<svg width="680" height="136" viewBox="0 0 680 136" fill="none" xmlns="http://www.w3.org/2000/svg">
<path d="M0 3.99999H58.88V25.712H23.184V46.504H58.88V68.032H23.184V109.8H0V3.99999ZM126.776 25.712V3.99999H67.896V25.712H126.776ZM97.704 68.032V46.504H67.896V68.032H97.704Z" fill="#24292E"/>
<path d="M0 3.99999H58.88V25.712H23.184V46.504H58.88V68.032H23.184V109.8H0V3.99999ZM126.776 25.712V3.99999H67.896V25.712H126.776ZM97.704 68.032V46.504H67.896V68.032H97.704Z" fill="#24292E"/>
<path d="M159.976 110H137.656V0.415985H159.976V110Z" fill="#24292E"/>
<path d="M202.562 111.872C195.458 111.872 189.554 109.424 184.85 104.528C180.242 99.632 177.938 92.528 177.938 83.216C177.938 73.904 181.202 67.136 187.73 62.912C194.354 58.688 203.954 56.576 216.53 56.576H227.33C227.33 50.144 226.706 46.016 225.458 44.192C224.21 42.272 221.378 41.312 216.962 41.312C212.642 41.312 207.794 41.792 202.418 42.752C197.138 43.712 191.234 45.152 184.706 47.072L180.098 30.944C184.034 29.12 189.65 27.44 196.946 25.904C204.338 24.272 210.914 23.456 216.674 23.456C228.482 23.456 236.93 26.192 242.018 31.664C247.106 37.04 249.65 44.912 249.65 55.28V110H235.538L232.658 100.64H231.794C230.642 101.504 229.106 102.56 227.186 103.808C225.362 105.056 221.858 106.736 216.674 108.848C211.49 110.864 206.786 111.872 202.562 111.872ZM227.33 73.136C223.97 72.656 219.458 72.416 213.794 72.416C208.226 72.416 204.626 73.136 202.994 74.576C201.458 76.016 200.69 78.752 200.69 82.784C200.69 86.816 201.314 89.648 202.562 91.28C203.906 92.816 205.922 93.584 208.61 93.584C213.602 93.584 218.882 92.24 224.45 89.552L227.33 88.112V73.136Z" fill="#24292E"/>
<path d="M334.62 55.712C334.62 64.064 331.308 71.024 324.684 76.592C318.156 82.064 309.18 84.848 297.756 84.944C297.564 86.672 297.468 87.68 297.468 87.968C297.468 88.256 297.948 88.592 298.908 88.976C299.868 89.36 301.788 90.032 304.668 90.992C318.3 95.792 327.084 99.968 331.02 103.52C335.052 106.976 337.068 110.816 337.068 115.04C337.068 121.664 333.66 126.752 326.844 130.304C320.028 133.952 311.1 135.776 300.06 135.776C294.78 135.776 289.26 135.344 283.5 134.48C277.74 133.712 271.74 132.512 265.5 130.88L267.948 113.888C285.804 116.672 298.332 118.064 305.532 118.064C312.828 118.064 316.476 117.296 316.476 115.76C316.476 114.704 308.268 111.296 291.852 105.536C284.652 102.944 280.668 101.36 279.9 100.784C279.228 100.208 278.892 99.536 278.892 98.768C278.892 97.232 280.764 91.856 284.508 82.64C270.684 77.84 263.772 68.432 263.772 54.416C263.772 48.848 264.828 44 266.94 39.872C269.052 35.744 271.98 32.528 275.724 30.224C283.02 25.712 292.236 23.456 303.372 23.456L339.948 25.184V38.144L331.02 39.584C333.42 44.768 334.62 50.144 334.62 55.712ZM299.772 68.672C305.724 68.672 309.66 67.616 311.58 65.504C313.596 63.392 314.604 59.024 314.604 52.4C314.604 45.776 314.076 41.936 313.02 40.88C311.964 39.824 308.076 39.296 301.356 39.296C294.732 39.296 290.268 40.208 287.964 42.032C285.756 43.76 284.652 47.648 284.652 53.696C284.652 59.648 285.66 63.632 287.676 65.648C289.788 67.664 293.82 68.672 299.772 68.672Z" fill="#24292E"/>
<path d="M352.25 0.415985H374.57V25.616C381.578 24.176 387.77 23.456 393.146 23.456C414.074 23.456 424.538 37.808 424.538 66.512C424.538 75.344 423.53 82.88 421.514 89.12C419.594 95.264 416.954 99.92 413.594 103.088C407.258 108.944 399.482 111.872 390.266 111.872C385.37 111.872 379.178 111.248 371.69 110C364.298 108.752 357.818 107.264 352.25 105.536V0.415985ZM398.186 43.76C396.842 42.416 394.538 41.744 391.274 41.744C385.322 41.744 379.754 42.368 374.57 43.616V92.432C379.562 93.392 384.074 93.872 388.106 93.872C392.234 93.872 395.018 93.296 396.458 92.144C399.818 89.36 401.498 80 401.498 64.064C401.498 52.64 400.394 45.872 398.186 43.76Z" fill="#24292E"/>
<path d="M463.421 111.872C456.317 111.872 450.413 109.424 445.709 104.528C441.101 99.632 438.797 92.528 438.797 83.216C438.797 73.904 442.061 67.136 448.589 62.912C455.213 58.688 464.813 56.576 477.389 56.576H488.189C488.189 50.144 487.565 46.016 486.317 44.192C485.069 42.272 482.237 41.312 477.821 41.312C473.501 41.312 468.653 41.792 463.277 42.752C457.997 43.712 452.093 45.152 445.565 47.072L440.957 30.944C444.893 29.12 450.509 27.44 457.805 25.904C465.197 24.272 471.773 23.456 477.533 23.456C489.341 23.456 497.789 26.192 502.877 31.664C507.965 37.04 510.509 44.912 510.509 55.28V110H496.397L493.517 100.64H492.653C491.501 101.504 489.965 102.56 488.045 103.808C486.221 105.056 482.717 106.736 477.533 108.848C472.349 110.864 467.645 111.872 463.421 111.872ZM488.189 73.136C484.829 72.656 480.317 72.416 474.653 72.416C469.085 72.416 465.485 73.136 463.853 74.576C462.317 76.016 461.549 78.752 461.549 82.784C461.549 86.816 462.173 89.648 463.421 91.28C464.765 92.816 466.781 93.584 469.469 93.584C474.461 93.584 479.741 92.24 485.309 89.552L488.189 88.112V73.136Z" fill="#24292E"/>
<path d="M558.327 41.312C554.679 41.312 552.279 41.792 551.127 42.752C550.071 43.616 549.543 44.96 549.543 46.784C549.543 48.608 550.359 50.24 551.991 51.68C553.623 53.024 555.255 54.032 556.887 54.704C558.519 55.28 560.391 55.904 562.503 56.576C564.711 57.152 567.927 58.064 572.151 59.312C576.471 60.56 579.879 61.856 582.375 63.2C589.767 67.328 593.463 73.952 593.463 83.072C593.463 92.096 590.679 99.152 585.111 104.24C579.543 109.328 571.719 111.872 561.639 111.872C556.359 111.872 550.839 111.2 545.079 109.856C539.319 108.416 534.855 107.024 531.687 105.68L527.079 103.52L532.551 85.952C544.743 91.136 554.727 93.728 562.503 93.728C565.479 93.728 567.687 93.2 569.127 92.144C570.567 91.088 571.287 89.168 571.287 86.384C571.287 84.656 570.999 83.408 570.423 82.64C569.847 81.872 569.367 81.296 568.983 80.912C568.599 80.432 568.023 80 567.255 79.616C566.487 79.136 565.815 78.8 565.239 78.608C564.759 78.32 563.991 77.984 562.935 77.6C561.879 77.216 561.063 76.928 560.487 76.736C559.911 76.544 558.951 76.256 557.607 75.872C556.263 75.488 554.727 75.056 552.999 74.576C551.367 74 550.119 73.568 549.255 73.28C548.391 72.992 546.663 72.368 544.071 71.408C541.575 70.448 539.799 69.632 538.743 68.96C537.783 68.192 536.391 67.136 534.567 65.792C532.839 64.352 531.591 62.864 530.823 61.328C528.807 57.104 527.799 52.88 527.799 48.656C527.799 40.784 530.439 34.64 535.719 30.224C540.999 25.712 548.871 23.456 559.335 23.456C569.895 23.456 580.071 25.088 589.863 28.352L586.551 45.632C575.511 42.752 566.103 41.312 558.327 41.312Z" fill="#24292E"/>
<path d="M644.455 111.872C618.343 111.872 605.287 97.136 605.287 67.664C605.287 38.192 618.247 23.456 644.167 23.456C655.783 23.456 664.519 26.576 670.375 32.816C676.231 38.96 679.159 49.184 679.159 63.488V75.44H628.471C628.471 83.504 629.959 88.832 632.935 91.424C634.951 93.248 637.783 94.16 641.431 94.16C648.151 94.16 656.695 92.624 667.063 89.552L672.103 87.968L677.575 104.096C673.255 106.112 667.879 107.936 661.447 109.568C655.015 111.104 649.351 111.872 644.455 111.872ZM653.815 44.192C652.087 42.08 648.631 41.024 643.447 41.024C638.263 41.024 634.567 42.272 632.359 44.768C630.151 47.264 628.903 52.112 628.615 59.312L656.407 58.736C656.215 51.152 655.351 46.304 653.815 44.192Z" fill="#24292E"/>
</svg>
