<svg width="1692" height="697" viewBox="0 0 1692 697" fill="none" xmlns="http://www.w3.org/2000/svg">
<rect x="0.5" y="127.5" width="324" height="509" rx="49.5" fill="white" stroke="#CFCFCF"/>
<path opacity="0.4" d="M1337 411C1375.11 411 1406 379.884 1406 341.5C1406 303.116 1375.11 272 1337 272C1298.89 272 1268 303.116 1268 341.5C1268 379.884 1298.89 411 1337 411Z" fill="#24292E" fill-opacity="0.8"/>
<path d="M1338 438H956V543H1338V438Z" fill="#24292E"/>
<path d="M1314.73 176.79L1299.35 184.08L1312.96 173.887C1310.75 170.428 1308.26 167.153 1305.53 164.092L1238.82 180.695L1299.08 157.679C1296.32 155.246 1293.4 153.014 1290.33 151L1188.68 167.395C1177.89 180.909 1172.01 197.696 1172 215H1325C1324.99 201.58 1321.45 188.399 1314.73 176.79Z" fill="#F2F2F2"/>
<path d="M1246.88 215L1196 137C1196 137 1273.05 164.763 1264.31 215H1246.88Z" fill="#24292E" fill-opacity="0.9"/>
<path d="M1249.38 215L1301 137C1301 137 1222.83 164.763 1231.7 215H1249.38Z" fill="#24292E" fill-opacity="0.9"/>
<path d="M1339 650H956V69H1339V650ZM957.786 648.184H1337.21V70.8156H957.786V648.184Z" fill="#24292E" fill-opacity="0.4"/>
<path d="M1338 82H957V85H1338V82Z" fill="#24292E" fill-opacity="0.4"/>
<path d="M967.5 80C969.433 80 971 78.433 971 76.5C971 74.567 969.433 73 967.5 73C965.567 73 964 74.567 964 76.5C964 78.433 965.567 80 967.5 80Z" fill="#24292E" fill-opacity="0.8"/>
<path d="M976.5 80C978.433 80 980 78.433 980 76.5C980 74.567 978.433 73 976.5 73C974.567 73 973 74.567 973 76.5C973 78.433 974.567 80 976.5 80Z" fill="#24292E" fill-opacity="0.8"/>
<path d="M986 80C988.209 80 990 78.433 990 76.5C990 74.567 988.209 73 986 73C983.791 73 982 74.567 982 76.5C982 78.433 983.791 80 986 80Z" fill="#24292E" fill-opacity="0.8"/>
<path d="M986 95H971V104H986V95Z" fill="#24292E" fill-opacity="0.8"/>
<path d="M1049 167H971V176H1049V167Z" fill="#24292E" fill-opacity="0.8"/>
<path d="M1250 104L1328 104V95L1250 95V104Z" fill="#F2F2F2"/>
<path d="M1103 183H971V188H1103V183Z" fill="#F2F2F2"/>
<path d="M1095 194H971V199H1095V194Z" fill="#F2F2F2"/>
<path d="M1062 206H971V212H1062V206Z" fill="#F2F2F2"/>
<path d="M1053 367H1000V373H1053V367Z" fill="#F2F2F2"/>
<path d="M1050 380H1000V385H1050V380Z" fill="#F2F2F2"/>
<path d="M1037 391H1000V396H1037V391Z" fill="#F2F2F2"/>
<path d="M1173 367H1122V373H1173V367Z" fill="#F2F2F2"/>
<path d="M1170 380H1122V385H1170V380Z" fill="#F2F2F2"/>
<path d="M1157 391H1122V396H1157V391Z" fill="#F2F2F2"/>
<path d="M1298 367H1246V373H1298V367Z" fill="#F2F2F2"/>
<path d="M1296 380H1246V385H1296V380Z" fill="#F2F2F2"/>
<path d="M1282 391H1246V396H1282V391Z" fill="#F2F2F2"/>
<path d="M1159 573H1081V583H1159V573Z" fill="#24292E" fill-opacity="0.8"/>
<path d="M1214 589H1081V595H1214V589Z" fill="#F2F2F2"/>
<path d="M1206 601H1081V606H1206V601Z" fill="#F2F2F2"/>
<path d="M1172 613H1081V618H1172V613Z" fill="#F2F2F2"/>
<path opacity="0.3" d="M1305 265H994V267H1305V265Z" fill="#24292E" fill-opacity="0.8"/>
<path opacity="0.3" d="M1060 297H993V357H1060V297Z" fill="#24292E" fill-opacity="0.8"/>
<path d="M1180 297H1114V357H1180V297Z" fill="#24292E"/>
<path d="M1306 297H1240V357H1306V297Z" fill="#24292E"/>
<path d="M1138.87 357L1138 356.982C1138.02 355.986 1138.56 332.493 1147.5 326L1148 326.737C1139.42 332.968 1138.87 356.76 1138.87 357Z" fill="white" fill-opacity="0.8"/>
<path d="M1152 326C1154.21 326 1156 323.985 1156 321.5C1156 319.015 1154.21 317 1152 317C1149.79 317 1148 319.015 1148 321.5C1148 323.985 1149.79 326 1152 326Z" fill="white" fill-opacity="0.8"/>
<path d="M1150.61 336.382C1148.47 337.088 1146.19 337.191 1144 336.682C1145.39 334.825 1147.26 333.429 1149.39 332.662C1151.52 331.896 1153.82 331.792 1156 332.363C1154.57 334.175 1152.71 335.561 1150.61 336.382Z" fill="white" fill-opacity="0.8"/>
<path d="M1263.87 357L1263 356.982C1263.02 355.986 1263.56 332.493 1272.5 326L1273 326.737C1264.42 332.968 1263.87 356.76 1263.87 357Z" fill="white" fill-opacity="0.8"/>
<path d="M1277 326C1279.21 326 1281 323.985 1281 321.5C1281 319.015 1279.21 317 1277 317C1274.79 317 1273 319.015 1273 321.5C1273 323.985 1274.79 326 1277 326Z" fill="white" fill-opacity="0.8"/>
<path d="M1276.16 336.382C1273.84 337.088 1271.37 337.191 1269 336.682C1270.51 334.825 1272.53 333.429 1274.84 332.662C1277.15 331.896 1279.63 331.792 1282 332.363C1280.45 334.175 1278.44 335.561 1276.16 336.382V336.382Z" fill="white" fill-opacity="0.8"/>
<path d="M1049 471H971V480H1049V471Z" fill="#24292E" fill-opacity="0.8"/>
<path d="M1103 486H971V492H1103V486Z" fill="#F2F2F2"/>
<path d="M1095 499H971V504H1095V499Z" fill="#F2F2F2"/>
<path d="M1062 510H971V515H1062V510Z" fill="#F2F2F2"/>
<path opacity="0.4" d="M1261.5 512C1276.69 512 1289 499.24 1289 483.5C1289 467.76 1276.69 455 1261.5 455C1246.31 455 1234 467.76 1234 483.5C1234 499.24 1246.31 512 1261.5 512Z" fill="#0075EA" fill-opacity="0.8"/>
<path opacity="0.4" d="M1210 517C1221.05 517 1230 508.046 1230 497C1230 485.954 1221.05 477 1210 477C1198.95 477 1190 485.954 1190 497C1190 508.046 1198.95 517 1210 517Z" fill="#188CFF" fill-opacity="0.8"/>
<path d="M864.5 619C903.436 619 935 586.765 935 547C935 507.235 903.436 475 864.5 475C825.564 475 794 507.235 794 547C794 586.765 825.564 619 864.5 619Z" fill="#24292E"/>
<path d="M854 603H832V643H854V603Z" fill="#24292E" fill-opacity="0.4"/>
<path d="M896 603H875V643H896V603Z" fill="#24292E" fill-opacity="0.4"/>
<path d="M850 650C859.941 650 868 646.642 868 642.5C868 638.358 859.941 635 850 635C840.059 635 832 638.358 832 642.5C832 646.642 840.059 650 850 650Z" fill="#24292E" fill-opacity="0.4"/>
<path d="M893 649C902.941 649 911 645.866 911 642C911 638.134 902.941 635 893 635C883.059 635 875 638.134 875 642C875 645.866 883.059 649 893 649Z" fill="#24292E" fill-opacity="0.4"/>
<path d="M866.5 554C880.031 554 891 542.807 891 529C891 515.193 880.031 504 866.5 504C852.969 504 842 515.193 842 529C842 542.807 852.969 554 866.5 554Z" fill="white"/>
<path d="M866.5 526C871.194 526 875 522.418 875 518C875 513.582 871.194 510 866.5 510C861.806 510 858 513.582 858 518C858 522.418 861.806 526 866.5 526Z" fill="#24292E" fill-opacity="0.8"/>
<path d="M796.043 480.353C790.348 454.244 808.551 427.861 836.699 421.426C864.847 414.991 892.282 430.94 897.976 457.05C903.67 483.16 885.016 492.789 856.867 499.224C828.719 505.66 801.737 506.463 796.043 480.353Z" fill="#24292E" fill-opacity="0.8"/>
<path d="M927.936 472.364C936.151 454.403 938.312 437.72 932.762 435.1C927.211 432.48 916.052 444.915 907.837 462.876C899.622 480.836 897.461 497.52 903.011 500.14C908.562 502.76 919.721 490.324 927.936 472.364Z" fill="#24292E" fill-opacity="0.4"/>
<path d="M804.822 521.101C810.231 518.193 807.222 501.645 798.102 484.141C788.982 466.637 777.203 454.806 771.794 457.714C766.385 460.623 769.393 477.17 778.514 494.674C787.634 512.178 799.413 524.01 804.822 521.101Z" fill="#24292E" fill-opacity="0.4"/>
<path d="M1460.27 527.105C1465.98 524.869 1464.93 508.075 1457.91 489.595C1450.9 471.116 1440.59 457.948 1434.88 460.184C1429.17 462.42 1430.22 479.213 1437.23 497.693C1444.25 516.173 1454.56 529.341 1460.27 527.105Z" fill="#24292E" fill-opacity="0.4"/>
<path d="M1513 619C1552.21 619 1584 586.988 1584 547.5C1584 508.012 1552.21 476 1513 476C1473.79 476 1442 508.012 1442 547.5C1442 586.988 1473.79 619 1513 619Z" fill="#24292E"/>
<path d="M1523.96 642.906L1545.41 642.845L1545.3 603.807L1523.85 603.868L1523.96 642.906Z" fill="#24292E" fill-opacity="0.4"/>
<path d="M1481.07 643.032L1502.52 642.971L1502.41 603.934L1480.96 603.995L1481.07 643.032Z" fill="#24292E" fill-opacity="0.4"/>
<path d="M1527.56 650.161C1537.43 650.133 1545.42 647.062 1545.41 643.302C1545.4 639.541 1537.39 636.516 1527.52 636.544C1517.65 636.572 1509.66 639.643 1509.67 643.404C1509.68 647.164 1517.69 650.19 1527.56 650.161Z" fill="#24292E" fill-opacity="0.4"/>
<path d="M1484.66 649.376C1494.53 649.348 1502.53 646.277 1502.52 642.517C1502.51 638.756 1494.49 635.731 1484.62 635.759C1474.75 635.787 1466.76 638.858 1466.77 642.618C1466.78 646.379 1474.79 649.404 1484.66 649.376Z" fill="#24292E" fill-opacity="0.4"/>
<path d="M1511 554C1524.25 554 1535 543.031 1535 529.5C1535 515.969 1524.25 505 1511 505C1497.75 505 1487 515.969 1487 529.5C1487 543.031 1497.75 554 1511 554Z" fill="white"/>
<path d="M1511 538C1515.42 538 1519 534.418 1519 530C1519 525.582 1515.42 522 1511 522C1506.58 522 1503 525.582 1503 530C1503 534.418 1506.58 538 1511 538Z" fill="#24292E" fill-opacity="0.8"/>
<path d="M1581.97 480.517C1587.65 454.688 1569.2 428.657 1540.77 422.375C1512.34 416.092 1484.69 431.938 1479.01 457.768C1473.33 483.597 1492.19 493.064 1520.62 499.346C1549.06 505.628 1576.3 506.346 1581.97 480.517Z" fill="#24292E" fill-opacity="0.8"/>
<path d="M1597.18 524.27C1614.77 515.733 1626.89 504.265 1624.25 498.655C1621.62 493.045 1605.22 495.417 1587.63 503.954C1570.03 512.491 1557.91 523.96 1560.55 529.57C1563.19 535.18 1579.59 532.807 1597.18 524.27Z" fill="#24292E" fill-opacity="0.4"/>
<path d="M1548 573.359C1548.02 580.263 1530.22 593.945 1510.43 594C1490.63 594.055 1472.02 574.672 1472 567.768C1471.98 560.865 1490.56 569.056 1510.36 569C1530.15 568.945 1547.98 566.456 1548 573.359Z" fill="white"/>
<path opacity="0.4" d="M1534.5 544C1588.9 544 1633 499.005 1633 443.5C1633 387.995 1588.9 343 1534.5 343C1480.1 343 1436 387.995 1436 443.5C1436 499.005 1480.1 544 1534.5 544Z" fill="#24292E" fill-opacity="0.8"/>
<path d="M885 407C924.212 407 956 374.765 956 335C956 295.235 924.212 263 885 263C845.788 263 814 295.235 814 335C814 374.765 845.788 407 885 407Z" fill="#24292E"/>
<path d="M864.515 388.161L843.41 384.279L836.565 422.692L857.67 426.573L864.515 388.161Z" fill="#24292E" fill-opacity="0.4"/>
<path d="M906.724 395.923L885.619 392.042L878.774 430.455L899.879 434.336L906.724 395.923Z" fill="#24292E" fill-opacity="0.4"/>
<path d="M906.646 448.958C909.038 446.088 904.871 438.508 897.338 432.028C889.806 425.547 881.76 422.62 879.368 425.489C876.975 428.359 881.143 435.939 888.675 442.42C896.208 448.9 904.253 451.828 906.646 448.958Z" fill="#24292E" fill-opacity="0.4"/>
<path d="M865.316 441.357C867.708 438.488 863.541 430.908 856.009 424.427C848.476 417.947 840.43 415.019 838.038 417.889C835.646 420.758 839.813 428.338 847.346 434.819C854.878 441.3 862.924 444.227 865.316 441.357Z" fill="#24292E" fill-opacity="0.4"/>
<path d="M890 341C903.255 341 914 330.255 914 317C914 303.745 903.255 293 890 293C876.745 293 866 303.745 866 317C866 330.255 876.745 341 890 341Z" fill="white"/>
<path d="M900 317C904.418 317 908 313.194 908 308.5C908 303.806 904.418 300 900 300C895.582 300 892 303.806 892 308.5C892 313.194 895.582 317 900 317Z" fill="#24292E" fill-opacity="0.8"/>
<path d="M829.036 256.698C827.97 230.454 850.593 208.225 879.567 207.049C908.541 205.872 932.893 226.193 933.96 252.437C935.026 278.681 914.885 284.644 885.912 285.821C856.938 286.997 830.102 282.942 829.036 256.698Z" fill="#24292E" fill-opacity="0.8"/>
<path d="M952.6 332.622C971.602 328.197 985.898 319.697 984.531 313.637C983.163 307.577 966.651 306.251 947.648 310.676C928.646 315.101 914.35 323.601 915.717 329.661C917.085 335.721 933.598 337.047 952.6 332.622Z" fill="#24292E" fill-opacity="0.4"/>
<path d="M814.019 356.034C833.021 351.609 847.317 343.109 845.949 337.049C844.582 330.989 828.069 329.663 809.067 334.088C790.065 338.513 775.769 347.012 777.136 353.073C778.503 359.133 795.016 360.458 814.019 356.034Z" fill="#24292E" fill-opacity="0.4"/>
<path d="M865.256 363.283C864.5 367.429 865.434 371.704 867.854 375.166C870.274 378.628 873.982 380.995 878.161 381.746C882.34 382.496 886.648 381.569 890.138 379.168C893.628 376.767 896.014 373.089 896.77 368.943C898.345 360.31 891.617 357.254 882.915 355.692C874.212 354.129 866.832 354.65 865.256 363.283Z" fill="white"/>
<path d="M1051.17 276.456L987.822 257.164L970.885 314.558L1034.23 333.85L1051.17 276.456Z" fill="#24292E"/>
<path d="M993.83 322L993 321.726C993.295 320.781 1000.35 298.547 1010.73 295L1011 295.85C1001.04 299.254 993.9 321.773 993.83 322Z" fill="white" fill-opacity="0.8"/>
<path d="M1017 296C1019.21 296 1021 294.209 1021 292C1021 289.791 1019.21 288 1017 288C1014.79 288 1013 289.791 1013 292C1013 294.209 1014.79 296 1017 296Z" fill="white" fill-opacity="0.8"/>
<path d="M1011.58 314.999C1009.28 315.03 1007.01 314.433 1005 313.269C1006.89 311.888 1009.12 311.103 1011.42 311.01C1013.73 310.916 1016.01 311.517 1018 312.74C1016.09 314.064 1013.87 314.843 1011.58 314.999V314.999Z" fill="white" fill-opacity="0.8"/>
<path d="M726.593 338.254C726.746 337.552 726.346 336.869 725.7 336.729L715.177 334.439C714.532 334.299 713.884 334.754 713.732 335.456C713.579 336.159 713.978 336.842 714.624 336.982L723.978 339.017L721.765 349.189C721.612 349.891 722.012 350.575 722.658 350.715C723.303 350.856 723.951 350.4 724.104 349.698L726.593 338.254ZM649.984 392.594L652.701 390.683L651.439 388.525L648.722 390.436L649.984 392.594ZM658.135 386.86L663.568 383.038L662.306 380.88L656.873 384.702L658.135 386.86ZM669.002 379.215L674.436 375.393L673.173 373.235L667.74 377.057L669.002 379.215ZM679.869 371.57L685.303 367.748L684.041 365.59L678.607 369.412L679.869 371.57ZM690.737 363.925L696.17 360.103L694.908 357.945L689.474 361.767L690.737 363.925ZM701.604 356.28L707.037 352.458L705.775 350.3L700.341 354.122L701.604 356.28ZM712.471 348.635L717.905 344.813L716.642 342.655L711.209 346.477L712.471 348.635ZM723.338 340.99L726.055 339.079L724.793 336.921L722.076 338.832L723.338 340.99ZM727.762 338.509C728.068 337.104 727.269 335.738 725.977 335.457L704.931 330.879C703.64 330.598 702.345 331.508 702.039 332.913C701.734 334.317 702.533 335.684 703.825 335.965L722.532 340.034L718.106 360.378C717.801 361.783 718.6 363.149 719.892 363.43C721.183 363.711 722.478 362.8 722.783 361.396L727.762 338.509ZM650.616 393.673L653.332 391.762L650.808 387.446L648.091 389.357L650.616 393.673ZM658.766 387.939L664.2 384.117L661.675 379.801L656.241 383.623L658.766 387.939ZM669.633 380.294L675.067 376.472L672.542 372.156L667.109 375.978L669.633 380.294ZM680.5 372.649L685.934 368.827L683.409 364.511L677.976 368.333L680.5 372.649ZM691.368 365.004L696.801 361.182L694.277 356.866L688.843 360.688L691.368 365.004ZM702.235 357.359L707.669 353.537L705.144 349.221L699.71 353.043L702.235 357.359ZM713.102 349.714L718.536 345.892L716.011 341.576L710.577 345.398L713.102 349.714ZM723.969 342.069L726.686 340.158L724.162 335.842L721.445 337.753L723.969 342.069Z" fill="#8A8A8A"/>
<path d="M725.7 446.301C726.346 446.161 726.746 445.478 726.593 444.775L724.104 433.332C723.951 432.63 723.303 432.174 722.658 432.315C722.012 432.455 721.612 433.138 721.765 433.841L723.978 444.013L714.624 446.047C713.978 446.188 713.579 446.871 713.732 447.573C713.884 448.276 714.532 448.731 715.177 448.59L725.7 446.301ZM648.722 392.594L651.439 394.505L652.701 392.347L649.984 390.436L648.722 392.594ZM656.873 398.328L662.306 402.15L663.568 399.992L658.135 396.17L656.873 398.328ZM667.74 405.973L673.173 409.795L674.436 407.637L669.002 403.815L667.74 405.973ZM678.607 413.618L684.041 417.44L685.303 415.282L679.869 411.46L678.607 413.618ZM689.474 421.262L694.908 425.085L696.17 422.927L690.737 419.105L689.474 421.262ZM700.341 428.907L705.775 432.73L707.037 430.572L701.604 426.75L700.341 428.907ZM711.209 436.552L716.642 440.375L717.905 438.217L712.471 434.395L711.209 436.552ZM722.076 444.197L724.793 446.109L726.055 443.951L723.338 442.039L722.076 444.197ZM725.977 447.573C727.269 447.292 728.068 445.925 727.762 444.521L722.783 421.634C722.478 420.23 721.183 419.319 719.892 419.6C718.6 419.881 717.801 421.247 718.106 422.652L722.532 442.995L703.825 447.065C702.533 447.346 701.734 448.713 702.039 450.117C702.345 451.521 703.64 452.432 704.931 452.151L725.977 447.573ZM648.091 393.673L650.808 395.584L653.332 391.268L650.616 389.357L648.091 393.673ZM656.241 399.407L661.675 403.229L664.2 398.913L658.766 395.091L656.241 399.407ZM667.109 407.051L672.542 410.874L675.067 406.558L669.633 402.736L667.109 407.051ZM677.976 414.696L683.409 418.519L685.934 414.203L680.5 410.381L677.976 414.696ZM688.843 422.341L694.277 426.164L696.801 421.848L691.368 418.026L688.843 422.341ZM699.71 429.986L705.144 433.809L707.669 429.493L702.235 425.671L699.71 429.986ZM710.577 437.631L716.011 441.454L718.536 437.138L713.102 433.316L710.577 437.631ZM721.445 445.276L724.162 447.188L726.686 442.872L723.969 440.961L721.445 445.276Z" fill="#8A8A8A"/>
<path d="M726.377 393.464C726.869 392.985 726.875 392.193 726.391 391.695L718.507 383.571C718.023 383.073 717.233 383.056 716.741 383.535C716.249 384.013 716.243 384.805 716.727 385.304L723.735 392.525L716.613 399.455C716.121 399.933 716.115 400.725 716.599 401.224C717.083 401.722 717.873 401.739 718.365 401.26L726.377 393.464ZM648.99 392.238L652.815 392.317L652.835 389.815L649.01 389.737L648.99 392.238ZM660.465 392.474L668.115 392.632L668.135 390.13L660.485 389.973L660.465 392.474ZM675.765 392.789L683.415 392.946L683.435 390.445L675.785 390.287L675.765 392.789ZM691.065 393.104L698.716 393.261L698.736 390.759L691.086 390.602L691.065 393.104ZM706.366 393.418L714.016 393.576L714.036 391.074L706.386 390.917L706.366 393.418ZM721.666 393.733L725.491 393.812L725.511 391.31L721.686 391.231L721.666 393.733ZM727.253 394.366C728.236 393.409 728.249 391.825 727.281 390.828L711.514 374.581C710.546 373.584 708.965 373.552 707.981 374.508C706.998 375.465 706.985 377.049 707.953 378.046L721.969 392.488L707.725 406.349C706.742 407.306 706.729 408.89 707.697 409.887C708.664 410.884 710.246 410.916 711.229 409.96L727.253 394.366ZM648.98 393.489L652.805 393.568L652.845 388.564L649.02 388.486L648.98 393.489ZM660.455 393.725L668.105 393.882L668.145 388.879L660.495 388.722L660.455 393.725ZM675.755 394.04L683.405 394.197L683.445 389.194L675.795 389.037L675.755 394.04ZM691.055 394.355L698.705 394.512L698.746 389.509L691.096 389.351L691.055 394.355ZM706.356 394.669L714.006 394.827L714.046 389.823L706.396 389.666L706.356 394.669ZM721.656 394.984L725.481 395.063L725.521 390.059L721.696 389.981L721.656 394.984Z" fill="#8A8A8A"/>
<path d="M208.967 276.876C221.485 276.876 231.634 266.728 231.634 254.209C231.634 241.691 221.485 231.542 208.967 231.542C196.448 231.542 186.3 241.691 186.3 254.209C186.3 266.728 196.448 276.876 208.967 276.876Z" fill="#49D893"/>
<path d="M213.5 291.209H111.5C102.483 291.209 93.8351 287.627 87.4589 281.251C81.0826 274.875 77.5005 266.227 77.5005 257.209C77.5005 248.192 81.0826 239.544 87.4589 233.168C93.8351 226.792 102.483 223.209 111.5 223.209H213.5C222.518 223.209 231.166 226.792 237.542 233.168C243.918 239.544 247.5 248.192 247.5 257.209C247.5 266.227 243.918 274.875 237.542 281.251C231.166 287.627 222.518 291.209 213.5 291.209ZM111.5 227.743C103.685 227.743 96.1904 230.847 90.6644 236.373C85.1383 241.899 82.0338 249.394 82.0338 257.209C82.0338 265.025 85.1383 272.519 90.6644 278.046C96.1904 283.572 103.685 286.676 111.5 286.676H213.5C221.316 286.676 228.81 283.572 234.337 278.046C239.863 272.519 242.967 265.025 242.967 257.209C242.967 249.394 239.863 241.899 234.337 236.373C228.81 230.847 221.316 227.743 213.5 227.743H111.5Z" fill="#49D893"/>
<path d="M115.174 403.654C127.692 403.654 137.841 393.506 137.841 380.987C137.841 368.469 127.692 358.321 115.174 358.321C102.655 358.321 92.5073 368.469 92.5073 380.987C92.5073 393.506 102.655 403.654 115.174 403.654Z" fill="#2F2E41"/>
<path d="M213.5 415.988H111.5C102.483 415.988 93.8351 412.406 87.4589 406.029C81.0826 399.653 77.5005 391.005 77.5005 381.988C77.5005 372.97 81.0826 364.322 87.4589 357.946C93.8351 351.57 102.483 347.988 111.5 347.988H213.5C222.518 347.988 231.166 351.57 237.542 357.946C243.918 364.322 247.5 372.97 247.5 381.988C247.5 391.005 243.918 399.653 237.542 406.029C231.166 412.406 222.518 415.988 213.5 415.988ZM111.5 352.521C103.685 352.521 96.1905 355.626 90.6644 361.152C85.1384 366.678 82.0338 374.173 82.0338 381.988C82.0338 389.803 85.1384 397.298 90.6644 402.824C96.1905 408.35 103.685 411.454 111.5 411.454H213.5C221.316 411.454 228.81 408.35 234.337 402.824C239.863 397.298 242.967 389.803 242.967 381.988C242.967 374.173 239.863 366.678 234.337 361.152C228.81 355.626 221.316 352.521 213.5 352.521H111.5Z" fill="#2F2E41"/>
<path d="M115.174 529.432C127.692 529.432 137.841 519.284 137.841 506.766C137.841 494.247 127.692 484.099 115.174 484.099C102.655 484.099 92.5073 494.247 92.5073 506.766C92.5073 519.284 102.655 529.432 115.174 529.432Z" fill="#2F2E41"/>
<path d="M213.5 540.766H111.5C102.483 540.766 93.8351 537.184 87.4589 530.808C81.0826 524.432 77.5005 515.783 77.5005 506.766C77.5005 497.749 81.0826 489.101 87.4589 482.724C93.8351 476.348 102.483 472.766 111.5 472.766H213.5C222.518 472.766 231.166 476.348 237.542 482.724C243.918 489.101 247.5 497.749 247.5 506.766C247.5 515.783 243.918 524.432 237.542 530.808C231.166 537.184 222.518 540.766 213.5 540.766ZM111.5 477.299C103.685 477.299 96.1904 480.404 90.6644 485.93C85.1383 491.456 82.0338 498.951 82.0338 506.766C82.0338 514.581 85.1383 522.076 90.6644 527.602C96.1904 533.128 103.685 536.233 111.5 536.233H213.5C217.37 536.233 221.202 535.471 224.777 533.99C228.352 532.509 231.6 530.338 234.337 527.602C237.073 524.866 239.243 521.618 240.724 518.043C242.205 514.467 242.967 510.636 242.967 506.766C242.967 502.896 242.205 499.065 240.724 495.49C239.243 491.915 237.073 488.666 234.337 485.93C231.6 483.194 228.352 481.023 224.777 479.542C221.202 478.062 217.37 477.299 213.5 477.299H111.5Z" fill="#2F2E41"/>
<path d="M371.884 382.884C372.372 382.396 372.372 381.604 371.884 381.116L363.929 373.161C363.441 372.673 362.649 372.673 362.161 373.161C361.673 373.649 361.673 374.441 362.161 374.929L369.232 382L362.161 389.071C361.673 389.559 361.673 390.351 362.161 390.839C362.649 391.327 363.441 391.327 363.929 390.839L371.884 382.884ZM325 383.25H328.833V380.75H325V383.25ZM336.5 383.25H344.167V380.75H336.5V383.25ZM351.833 383.25H359.5V380.75H351.833V383.25ZM367.167 383.25H371V380.75H367.167V383.25ZM372.768 383.768C373.744 382.791 373.744 381.209 372.768 380.232L356.858 364.322C355.882 363.346 354.299 363.346 353.322 364.322C352.346 365.299 352.346 366.882 353.322 367.858L367.464 382L353.322 396.142C352.346 397.118 352.346 398.701 353.322 399.678C354.299 400.654 355.882 400.654 356.858 399.678L372.768 383.768ZM325 384.5H328.833V379.5H325V384.5ZM336.5 384.5H344.167V379.5H336.5V384.5ZM351.833 384.5H359.5V379.5H351.833V384.5ZM367.167 384.5H371V379.5H367.167V384.5Z" fill="#8A8A8A"/>
<g filter="url(#filter0_d)">
<path d="M578.098 374.885H614.137C614.886 376.715 616.271 378.235 618.053 379.183C619.835 380.131 621.903 380.448 623.9 380.079C625.897 379.71 627.699 378.678 628.995 377.161C630.291 375.644 631 373.737 631 371.769C631 369.8 630.291 367.894 628.995 366.377C627.699 364.86 625.897 363.828 623.9 363.459C621.903 363.09 619.835 363.407 618.053 364.355C616.271 365.303 614.886 366.823 614.137 368.653H578.098V353.357H601.329C602.182 353.357 603.001 353.028 603.604 352.444C604.208 351.86 604.547 351.067 604.547 350.241V329.71H614.137C614.886 331.54 616.271 333.06 618.053 334.008C619.835 334.956 621.903 335.273 623.9 334.904C625.897 334.535 627.699 333.503 628.995 331.986C630.291 330.469 631 328.563 631 326.594C631 324.626 630.291 322.719 628.995 321.202C627.699 319.685 625.897 318.653 623.9 318.284C621.903 317.915 619.835 318.232 618.053 319.18C616.271 320.128 614.886 321.648 614.137 323.478H601.329C600.475 323.479 599.657 323.807 599.053 324.391C598.45 324.976 598.11 325.768 598.11 326.594V347.125H578.098V331.331C578.098 330.504 577.759 329.712 577.155 329.128C576.552 328.543 575.733 328.215 574.88 328.215H558.565V308.841H579.772C580.626 308.841 581.444 308.512 582.048 307.928C582.651 307.344 582.99 306.551 582.991 305.725V293.325C584.88 292.6 586.449 291.26 587.428 289.535C588.406 287.811 588.733 285.81 588.352 283.877C587.971 281.945 586.905 280.201 585.339 278.947C583.773 277.693 581.804 277.007 579.772 277.007C577.74 277.007 575.771 277.693 574.205 278.947C572.639 280.201 571.574 281.945 571.192 283.877C570.811 285.81 571.138 287.811 572.117 289.535C573.095 291.26 574.664 292.6 576.553 293.325V302.609H555.346C554.493 302.609 553.674 302.938 553.071 303.522C552.467 304.107 552.128 304.899 552.128 305.725V328.215H536.328V293.327C538.217 292.602 539.786 291.261 540.765 289.537C541.743 287.813 542.07 285.812 541.689 283.879C541.308 281.947 540.242 280.203 538.676 278.949C537.11 277.695 535.142 277.009 533.109 277.009C531.077 277.009 529.108 277.695 527.542 278.949C525.976 280.203 524.911 281.947 524.53 283.879C524.148 285.812 524.475 287.813 525.454 289.537C526.432 291.261 528.001 292.602 529.891 293.327V328.215H514.109V293.325C516 292.6 517.57 291.259 518.549 289.534C519.528 287.809 519.855 285.807 519.474 283.874C519.093 281.94 518.027 280.196 516.46 278.941C514.894 277.686 512.924 277 510.891 277C508.857 277 506.888 277.686 505.321 278.941C503.754 280.196 502.688 281.94 502.307 283.874C501.926 285.807 502.253 287.809 503.232 289.534C504.212 291.259 505.782 292.6 507.672 293.325V328.215H491.872V305.725C491.872 304.899 491.533 304.107 490.929 303.522C490.326 302.938 489.507 302.609 488.654 302.609H467.447V293.325C469.337 292.6 470.907 291.259 471.886 289.534C472.865 287.809 473.193 285.807 472.811 283.874C472.43 281.94 471.364 280.196 469.798 278.941C468.231 277.686 466.261 277 464.228 277C462.195 277 460.225 277.686 458.658 278.941C457.091 280.196 456.026 281.94 455.644 283.874C455.263 285.807 455.59 287.809 456.57 289.534C457.549 291.259 459.119 292.6 461.009 293.325V305.725C461.01 306.551 461.349 307.344 461.952 307.928C462.556 308.512 463.374 308.841 464.228 308.841H485.435V328.215H469.12C468.267 328.215 467.448 328.543 466.845 329.128C466.241 329.712 465.902 330.504 465.902 331.331V347.125H445.89V326.594C445.89 325.768 445.55 324.976 444.947 324.391C444.343 323.807 443.525 323.479 442.671 323.478H429.864C429.115 321.648 427.731 320.129 425.949 319.181C424.168 318.234 422.101 317.917 420.104 318.286C418.107 318.655 416.306 319.687 415.01 321.203C413.715 322.72 413.006 324.626 413.006 326.594C413.006 328.562 413.715 330.469 415.01 331.985C416.306 333.501 418.107 334.533 420.104 334.902C422.101 335.271 424.168 334.955 425.949 334.007C427.731 333.059 429.115 331.54 429.864 329.71H439.453V350.241C439.453 351.067 439.792 351.86 440.396 352.444C440.999 353.028 441.818 353.357 442.671 353.357H465.902V368.653H429.864C429.115 366.824 427.731 365.305 425.95 364.357C424.169 363.41 422.102 363.094 420.106 363.463C418.11 363.832 416.309 364.863 415.013 366.379C413.718 367.895 413.009 369.801 413.009 371.769C413.009 373.736 413.718 375.642 415.013 377.158C416.309 378.675 418.11 379.706 420.106 380.075C422.102 380.444 424.169 380.128 425.95 379.18C427.731 378.233 429.115 376.714 429.864 374.885H465.902V390.163H429.863C429.114 388.333 427.729 386.813 425.947 385.865C424.165 384.917 422.097 384.6 420.1 384.969C418.103 385.338 416.301 386.37 415.005 387.887C413.709 389.404 413 391.31 413 393.279C413 395.247 413.709 397.154 415.005 398.671C416.301 400.188 418.103 401.22 420.1 401.589C422.097 401.958 424.165 401.641 425.947 400.693C427.729 399.745 429.114 398.225 429.863 396.395H465.902V411.691H442.671C441.818 411.691 440.999 412.02 440.396 412.604C439.792 413.188 439.453 413.981 439.453 414.807V435.338H429.863C429.114 433.507 427.729 431.988 425.947 431.04C424.165 430.092 422.097 429.775 420.1 430.144C418.103 430.513 416.301 431.545 415.005 433.062C413.709 434.578 413 436.485 413 438.454C413 440.422 413.709 442.329 415.005 443.846C416.301 445.363 418.103 446.394 420.1 446.763C422.097 447.132 424.165 446.816 425.947 445.868C427.729 444.92 429.114 443.4 429.863 441.57H442.671C443.525 441.569 444.343 441.241 444.947 440.657C445.55 440.072 445.89 439.28 445.89 438.454V417.923H465.902V433.717C465.902 434.543 466.241 435.336 466.845 435.92C467.448 436.504 468.267 436.833 469.12 436.833H485.435V456.207H464.228C463.374 456.207 462.556 456.535 461.952 457.12C461.349 457.704 461.01 458.496 461.009 459.323V471.723C459.12 472.448 457.551 473.788 456.572 475.513C455.594 477.237 455.267 479.238 455.648 481.17C456.029 483.103 457.095 484.846 458.661 486.1C460.227 487.354 462.196 488.04 464.228 488.04C466.26 488.04 468.229 487.354 469.795 486.1C471.361 484.846 472.426 483.103 472.808 481.17C473.189 479.238 472.862 477.237 471.883 475.513C470.905 473.788 469.336 472.448 467.447 471.723V462.439H488.654C489.507 462.438 490.326 462.11 490.929 461.526C491.533 460.941 491.872 460.149 491.872 459.323V436.833H507.672V471.721C505.783 472.446 504.214 473.786 503.235 475.511C502.257 477.235 501.93 479.236 502.311 481.169C502.692 483.101 503.758 484.845 505.324 486.099C506.89 487.353 508.858 488.039 510.891 488.039C512.923 488.039 514.892 487.353 516.458 486.099C518.024 484.845 519.089 483.101 519.47 481.169C519.852 479.236 519.525 477.235 518.546 475.511C517.568 473.786 515.999 472.446 514.109 471.721V436.833H529.891V471.723C528 472.448 526.43 473.789 525.451 475.514C524.472 477.239 524.145 479.241 524.526 481.174C524.907 483.108 525.973 484.852 527.54 486.107C529.106 487.361 531.076 488.048 533.109 488.048C535.143 488.048 537.112 487.361 538.679 486.107C540.246 484.852 541.312 483.108 541.693 481.174C542.074 479.241 541.747 477.239 540.768 475.514C539.788 473.789 538.218 472.448 536.328 471.723V436.833H552.128V459.323C552.128 460.149 552.467 460.941 553.071 461.526C553.674 462.11 554.493 462.438 555.346 462.439H576.553V471.723C574.664 472.448 573.094 473.788 572.115 475.513C571.136 477.238 570.809 479.239 571.191 481.172C571.572 483.105 572.637 484.849 574.204 486.104C575.77 487.358 577.739 488.044 579.772 488.044C581.805 488.044 583.774 487.358 585.341 486.104C586.907 484.849 587.973 483.105 588.354 481.172C588.735 479.239 588.408 477.238 587.429 475.513C586.45 473.788 584.881 472.448 582.991 471.723V459.323C582.99 458.496 582.651 457.704 582.048 457.12C581.444 456.535 580.626 456.207 579.772 456.207H558.565V436.833H574.88C575.733 436.833 576.552 436.504 577.155 435.92C577.759 435.336 578.098 434.543 578.098 433.717V417.923H598.11V438.454C598.11 439.28 598.45 440.072 599.053 440.657C599.657 441.241 600.475 441.569 601.329 441.57H614.137C614.886 443.399 616.271 444.918 618.052 445.865C619.833 446.812 621.9 447.129 623.896 446.76C625.892 446.391 627.693 445.359 628.988 443.843C630.284 442.327 630.992 440.421 630.992 438.454C630.992 436.486 630.284 434.58 628.988 433.064C627.693 431.548 625.892 430.517 623.896 430.148C621.9 429.778 619.833 430.095 618.052 431.042C616.271 431.989 614.886 433.508 614.137 435.338H604.547V414.807C604.547 413.981 604.208 413.188 603.604 412.604C603.001 412.02 602.182 411.691 601.329 411.691H578.098V396.395H614.136C614.885 398.224 616.269 399.743 618.05 400.69C619.831 401.638 621.898 401.954 623.894 401.585C625.89 401.216 627.691 400.185 628.987 398.668C630.282 397.152 630.991 395.246 630.991 393.279C630.991 391.311 630.282 389.406 628.987 387.889C627.691 386.373 625.89 385.342 623.894 384.973C621.898 384.604 619.831 384.92 618.05 385.867C616.269 386.815 614.885 388.334 614.136 390.163H578.098V374.885ZM622.241 369.543C622.696 369.543 623.141 369.674 623.519 369.918C623.897 370.163 624.191 370.51 624.365 370.917C624.539 371.324 624.585 371.771 624.496 372.203C624.408 372.635 624.189 373.031 623.867 373.343C623.546 373.654 623.136 373.866 622.69 373.952C622.244 374.038 621.782 373.994 621.362 373.825C620.941 373.657 620.582 373.371 620.33 373.005C620.077 372.639 619.942 372.209 619.942 371.769C619.942 371.178 620.184 370.612 620.615 370.194C621.046 369.776 621.631 369.54 622.241 369.54V369.543ZM622.241 324.37C622.696 324.37 623.141 324.501 623.519 324.745C623.897 324.99 624.191 325.337 624.365 325.744C624.539 326.151 624.585 326.598 624.496 327.03C624.408 327.462 624.189 327.859 623.867 328.17C623.546 328.481 623.136 328.693 622.69 328.779C622.244 328.865 621.782 328.821 621.362 328.652C620.941 328.484 620.582 328.199 620.33 327.833C620.077 327.466 619.942 327.036 619.942 326.596C619.942 326.005 620.184 325.439 620.615 325.021C621.046 324.603 621.631 324.368 622.241 324.367V324.37ZM579.774 283.254C580.229 283.254 580.673 283.384 581.051 283.629C581.429 283.873 581.724 284.221 581.898 284.628C582.072 285.034 582.118 285.482 582.029 285.914C581.94 286.345 581.721 286.742 581.4 287.053C581.078 287.364 580.669 287.576 580.223 287.662C579.777 287.748 579.314 287.704 578.894 287.536C578.474 287.367 578.115 287.082 577.862 286.716C577.61 286.35 577.475 285.92 577.475 285.479C577.476 284.889 577.718 284.324 578.149 283.906C578.58 283.489 579.165 283.254 579.774 283.254ZM533.113 283.254C533.568 283.254 534.012 283.384 534.39 283.629C534.768 283.873 535.063 284.221 535.237 284.628C535.411 285.034 535.457 285.482 535.368 285.914C535.279 286.345 535.06 286.742 534.739 287.053C534.417 287.364 534.008 287.576 533.562 287.662C533.116 287.748 532.653 287.704 532.233 287.536C531.813 287.367 531.454 287.082 531.201 286.716C530.949 286.35 530.814 285.92 530.814 285.479C530.815 284.889 531.057 284.324 531.488 283.906C531.919 283.489 532.504 283.254 533.113 283.254ZM510.887 283.254C511.342 283.254 511.786 283.384 512.164 283.629C512.542 283.873 512.837 284.221 513.011 284.628C513.185 285.034 513.231 285.482 513.142 285.914C513.053 286.345 512.834 286.742 512.513 287.053C512.191 287.364 511.782 287.576 511.336 287.662C510.89 287.748 510.427 287.704 510.007 287.536C509.587 287.367 509.228 287.082 508.975 286.716C508.723 286.35 508.588 285.92 508.588 285.479C508.588 284.889 508.831 284.323 509.262 283.906C509.693 283.489 510.277 283.254 510.887 283.254ZM464.226 283.254C464.681 283.254 465.125 283.384 465.503 283.629C465.881 283.873 466.176 284.221 466.35 284.628C466.524 285.034 466.57 285.482 466.481 285.914C466.392 286.345 466.173 286.742 465.852 287.053C465.53 287.364 465.121 287.576 464.675 287.662C464.229 287.748 463.766 287.704 463.346 287.536C462.926 287.367 462.567 287.082 462.314 286.716C462.062 286.35 461.927 285.92 461.927 285.479C461.927 284.889 462.17 284.323 462.601 283.906C463.032 283.489 463.616 283.254 464.226 283.254ZM421.759 328.818C421.304 328.818 420.859 328.688 420.481 328.443C420.103 328.198 419.809 327.851 419.635 327.444C419.461 327.037 419.415 326.59 419.504 326.158C419.592 325.726 419.811 325.33 420.133 325.019C420.454 324.707 420.864 324.495 421.31 324.409C421.756 324.323 422.218 324.368 422.638 324.536C423.059 324.704 423.418 324.99 423.67 325.356C423.923 325.722 424.058 326.152 424.058 326.592C424.057 327.183 423.815 327.748 423.384 328.166C422.953 328.583 422.368 328.818 421.759 328.818ZM421.759 373.991C421.304 373.991 420.859 373.861 420.481 373.616C420.103 373.371 419.809 373.024 419.635 372.617C419.461 372.21 419.415 371.763 419.504 371.331C419.592 370.899 419.811 370.503 420.133 370.191C420.454 369.88 420.864 369.668 421.31 369.582C421.756 369.496 422.218 369.54 422.638 369.709C423.059 369.877 423.418 370.163 423.67 370.529C423.923 370.895 424.058 371.325 424.058 371.765C424.057 372.355 423.815 372.921 423.384 373.339C422.953 373.756 422.368 373.991 421.759 373.991ZM421.759 395.508C421.304 395.508 420.859 395.378 420.481 395.133C420.103 394.889 419.809 394.541 419.635 394.134C419.461 393.728 419.415 393.28 419.504 392.848C419.592 392.416 419.811 392.02 420.133 391.709C420.454 391.397 420.864 391.185 421.31 391.099C421.756 391.014 422.218 391.058 422.638 391.226C423.059 391.395 423.418 391.68 423.67 392.046C423.923 392.412 424.058 392.842 424.058 393.282C424.057 393.873 423.814 394.438 423.383 394.855C422.952 395.273 422.368 395.507 421.759 395.508ZM421.759 440.681C421.304 440.681 420.859 440.551 420.481 440.306C420.103 440.062 419.809 439.714 419.635 439.307C419.461 438.9 419.415 438.453 419.504 438.021C419.592 437.589 419.811 437.193 420.133 436.882C420.454 436.57 420.864 436.358 421.31 436.272C421.756 436.187 422.218 436.231 422.638 436.399C423.059 436.568 423.418 436.853 423.67 437.219C423.923 437.585 424.058 438.015 424.058 438.455C424.057 439.045 423.814 439.611 423.383 440.028C422.952 440.445 422.368 440.68 421.759 440.681ZM464.226 481.794C463.771 481.794 463.327 481.664 462.949 481.419C462.571 481.175 462.276 480.827 462.102 480.42C461.928 480.014 461.882 479.566 461.971 479.134C462.06 478.703 462.279 478.306 462.6 477.995C462.922 477.683 463.332 477.471 463.777 477.385C464.223 477.3 464.686 477.344 465.106 477.512C465.526 477.681 465.885 477.966 466.138 478.332C466.39 478.698 466.525 479.128 466.525 479.568C466.524 480.159 466.282 480.724 465.851 481.141C465.42 481.559 464.835 481.793 464.226 481.794ZM510.887 481.794C510.432 481.794 509.988 481.664 509.61 481.419C509.232 481.175 508.937 480.827 508.763 480.42C508.589 480.014 508.543 479.566 508.632 479.134C508.721 478.703 508.94 478.306 509.261 477.995C509.583 477.683 509.992 477.471 510.438 477.385C510.884 477.3 511.347 477.344 511.767 477.512C512.187 477.681 512.546 477.966 512.799 478.332C513.051 478.698 513.186 479.128 513.186 479.568C513.185 480.159 512.943 480.724 512.512 481.141C512.081 481.559 511.496 481.793 510.887 481.794ZM533.113 481.794C532.658 481.794 532.214 481.664 531.836 481.419C531.458 481.175 531.163 480.827 530.989 480.42C530.815 480.014 530.769 479.566 530.858 479.134C530.947 478.703 531.166 478.306 531.487 477.995C531.809 477.683 532.218 477.471 532.664 477.385C533.11 477.3 533.573 477.344 533.993 477.512C534.413 477.681 534.772 477.966 535.025 478.332C535.277 478.698 535.412 479.128 535.412 479.568C535.412 480.159 535.169 480.725 534.738 481.142C534.307 481.559 533.723 481.794 533.113 481.794ZM579.774 481.794C579.319 481.794 578.875 481.664 578.497 481.419C578.119 481.175 577.824 480.827 577.65 480.42C577.476 480.014 577.43 479.566 577.519 479.134C577.608 478.703 577.827 478.306 578.148 477.995C578.47 477.683 578.879 477.471 579.325 477.385C579.771 477.3 580.234 477.344 580.654 477.512C581.074 477.681 581.433 477.966 581.686 478.332C581.938 478.698 582.073 479.128 582.073 479.568C582.073 480.159 581.83 480.725 581.399 481.142C580.968 481.559 580.384 481.794 579.774 481.794ZM622.241 436.23C622.696 436.23 623.141 436.36 623.519 436.605C623.897 436.849 624.191 437.197 624.365 437.604C624.539 438.01 624.585 438.458 624.496 438.89C624.408 439.321 624.189 439.718 623.867 440.029C623.546 440.341 623.136 440.553 622.69 440.638C622.244 440.724 621.782 440.68 621.362 440.512C620.941 440.343 620.582 440.058 620.33 439.692C620.077 439.326 619.942 438.896 619.942 438.455C619.943 437.865 620.185 437.299 620.616 436.882C621.047 436.465 621.632 436.23 622.241 436.23ZM622.241 391.057C622.696 391.057 623.141 391.187 623.519 391.432C623.897 391.676 624.191 392.024 624.365 392.431C624.539 392.837 624.585 393.285 624.496 393.717C624.408 394.148 624.189 394.545 623.867 394.856C623.546 395.168 623.136 395.38 622.69 395.466C622.244 395.551 621.782 395.507 621.362 395.339C620.941 395.17 620.582 394.885 620.33 394.519C620.077 394.153 619.942 393.723 619.942 393.282C619.943 392.692 620.185 392.126 620.616 391.709C621.047 391.292 621.632 391.057 622.241 391.057ZM571.661 430.601H472.339V334.447H571.661V430.601Z" fill="#24292E"/>
</g>
<path d="M485.294 352.544H522.586V366.388H499.978V379.644H522.586V393.37H499.978V420H485.294V352.544ZM565.588 366.388V352.544H528.296V366.388H565.588ZM547.175 393.37V379.644H528.296V393.37H547.175Z" fill="#24292E"/>
<path d="M485.294 352.544H522.586V366.388H499.978V379.644H522.586V393.37H499.978V420H485.294V352.544ZM565.588 366.388V352.544H528.296V366.388H565.588ZM547.175 393.37V379.644H528.296V393.37H547.175Z" fill="#24292E"/>
<defs>
<filter id="filter0_d" x="409" y="277" width="226" height="219.048" filterUnits="userSpaceOnUse" color-interpolation-filters="sRGB">
<feFlood flood-opacity="0" result="BackgroundImageFix"/>
<feColorMatrix in="SourceAlpha" type="matrix" values="0 0 0 0 0 0 0 0 0 0 0 0 0 0 0 0 0 0 127 0"/>
<feOffset dy="4"/>
<feGaussianBlur stdDeviation="2"/>
<feColorMatrix type="matrix" values="0 0 0 0 0 0 0 0 0 0 0 0 0 0 0 0 0 0 0.25 0"/>
<feBlend mode="normal" in2="BackgroundImageFix" result="effect1_dropShadow"/>
<feBlend mode="normal" in="SourceGraphic" in2="effect1_dropShadow" result="shape"/>
</filter>
</defs>
</svg>
