<svg width="726" height="446" viewBox="0 0 726 446" fill="none" xmlns="http://www.w3.org/2000/svg">
<g filter="url(#filter0_d)">
<path d="M633.313 289.676L637.522 293.845L637.522 293.845L633.313 289.676ZM620.77 296.05C620.714 299.334 623.379 301.973 626.722 301.946L681.196 301.497C684.538 301.469 687.293 298.785 687.349 295.501C687.405 292.217 684.74 289.578 681.397 289.605L632.976 290.004L633.784 242.438C633.839 239.154 631.175 236.514 627.832 236.542C624.489 236.569 621.734 239.254 621.678 242.538L620.77 296.05ZM629.105 285.507L622.614 291.831L631.031 300.169L637.522 293.845L629.105 285.507ZM647.659 141.234C676.561 186.807 668.848 246.783 629.105 285.507L637.522 293.845C681.344 251.147 689.849 185.016 657.98 134.766L647.659 141.234Z" fill="black"/>
</g>
<path d="M26 363C66.1876 330.098 142.282 349.291 155 363H26Z" fill="#24292E"/>
<path d="M135.005 300.628C120.062 291.675 88.694 283.026 80.18 343.622L67.925 345.136V254L98.24 257.936L131.457 254L129.522 276.103L135.005 300.628Z" fill="#24292E"/>
<path d="M26 363C66.1876 330.098 142.282 349.291 155 363H26Z" stroke="white"/>
<path d="M135.005 300.628C120.062 291.675 88.694 283.026 80.18 343.622L67.925 345.136V254L98.24 257.936L131.457 254L129.522 276.103L135.005 300.628Z" stroke="white"/>
<path d="M369 364C409.188 331.098 485.282 350.291 498 364H369Z" fill="#24292E"/>
<path d="M478.005 301.628C463.062 292.675 431.694 284.026 423.18 344.622L410.925 346.136V255L441.24 258.936L474.457 255L472.522 277.103L478.005 301.628Z" fill="#24292E"/>
<path d="M369 364C409.188 331.098 485.282 350.291 498 364H369Z" stroke="white"/>
<path d="M478.005 301.628C463.062 292.675 431.694 284.026 423.18 344.622L410.925 346.136V255L441.24 258.936L474.457 255L472.522 277.103L478.005 301.628Z" stroke="white"/>
<path d="M203 418C243.188 385.098 319.282 404.291 332 418H203Z" fill="#24292E"/>
<path d="M312.005 355.628C297.062 346.675 265.694 338.026 257.18 398.622L244.925 400.136V309L275.24 312.936L308.457 309L306.522 331.103L312.005 355.628Z" fill="#24292E"/>
<path d="M203 418C243.188 385.098 319.282 404.291 332 418H203Z" stroke="white"/>
<path d="M312.005 355.628C297.062 346.675 265.694 338.026 257.18 398.622L244.925 400.136V309L275.24 312.936L308.457 309L306.522 331.103L312.005 355.628Z" stroke="white"/>
<rect width="563" height="173" rx="86.5" fill="#24292E"/>
<path d="M78.4375 82.9688H90.3125V89.9062H78.4375V103.438H71.0625V89.9062H59.125V82.9688H71.0625V70.3125H78.4375V82.9688ZM138.719 97.4062H121.094L117.406 108H109.188L126.375 62.5H133.469L150.688 108H142.438L138.719 97.4062ZM123.312 91.0312H136.5L129.906 72.1562L123.312 91.0312ZM153.719 90.8438C153.719 85.6354 154.927 81.4583 157.344 78.3125C159.76 75.1458 163 73.5625 167.062 73.5625C170.646 73.5625 173.542 74.8125 175.75 77.3125V60H183.344V108H176.469L176.094 104.5C173.823 107.25 170.792 108.625 167 108.625C163.042 108.625 159.833 107.031 157.375 103.844C154.938 100.656 153.719 96.3229 153.719 90.8438ZM161.312 91.5C161.312 94.9375 161.969 97.625 163.281 99.5625C164.615 101.479 166.5 102.438 168.938 102.438C172.042 102.438 174.312 101.052 175.75 98.2812V83.8438C174.354 81.1354 172.104 79.7812 169 79.7812C166.542 79.7812 164.646 80.7604 163.312 82.7188C161.979 84.6562 161.312 87.5833 161.312 91.5ZM189.844 90.8438C189.844 85.6354 191.052 81.4583 193.469 78.3125C195.885 75.1458 199.125 73.5625 203.188 73.5625C206.771 73.5625 209.667 74.8125 211.875 77.3125V60H219.469V108H212.594L212.219 104.5C209.948 107.25 206.917 108.625 203.125 108.625C199.167 108.625 195.958 107.031 193.5 103.844C191.062 100.656 189.844 96.3229 189.844 90.8438ZM197.438 91.5C197.438 94.9375 198.094 97.625 199.406 99.5625C200.74 101.479 202.625 102.438 205.062 102.438C208.167 102.438 210.438 101.052 211.875 98.2812V83.8438C210.479 81.1354 208.229 79.7812 205.125 79.7812C202.667 79.7812 200.771 80.7604 199.438 82.7188C198.104 84.6562 197.438 87.5833 197.438 91.5ZM280.156 108H272.25L251.969 75.7188V108H244.062V62.5H251.969L272.312 94.9062V62.5H280.156V108ZM303.656 108.625C298.844 108.625 294.938 107.115 291.938 104.094C288.958 101.052 287.469 97.0104 287.469 91.9688V91.0312C287.469 87.6562 288.115 84.6458 289.406 82C290.719 79.3333 292.552 77.2604 294.906 75.7812C297.26 74.3021 299.885 73.5625 302.781 73.5625C307.385 73.5625 310.938 75.0312 313.438 77.9688C315.958 80.9062 317.219 85.0625 317.219 90.4375V93.5H295.125C295.354 96.2917 296.281 98.5 297.906 100.125C299.552 101.75 301.615 102.562 304.094 102.562C307.573 102.562 310.406 101.156 312.594 98.3438L316.688 102.25C315.333 104.271 313.521 105.844 311.25 106.969C309 108.073 306.469 108.625 303.656 108.625ZM302.75 79.6562C300.667 79.6562 298.979 80.3854 297.688 81.8438C296.417 83.3021 295.604 85.3333 295.25 87.9375H309.719V87.375C309.552 84.8333 308.875 82.9167 307.688 81.625C306.5 80.3125 304.854 79.6562 302.75 79.6562ZM352.844 97.5312L358.219 74.1875H365.625L356.406 108H350.156L342.906 84.7812L335.781 108H329.531L320.281 74.1875H327.688L333.156 97.2812L340.094 74.1875H345.812L352.844 97.5312ZM413.594 88.7188H395.281V108H387.375V62.5H416.281V68.875H395.281V82.4062H413.594V88.7188ZM429.906 108H422.312V60H429.906V108ZM458.406 108C458.073 107.354 457.781 106.302 457.531 104.844C455.115 107.365 452.156 108.625 448.656 108.625C445.26 108.625 442.49 107.656 440.344 105.719C438.198 103.781 437.125 101.385 437.125 98.5312C437.125 94.9271 438.458 92.1667 441.125 90.25C443.812 88.3125 447.646 87.3438 452.625 87.3438H457.281V85.125C457.281 83.375 456.792 81.9792 455.812 80.9375C454.833 79.875 453.344 79.3438 451.344 79.3438C449.615 79.3438 448.198 79.7812 447.094 80.6562C445.99 81.5104 445.438 82.6042 445.438 83.9375H437.844C437.844 82.0833 438.458 80.3542 439.688 78.75C440.917 77.125 442.583 75.8542 444.688 74.9375C446.812 74.0208 449.177 73.5625 451.781 73.5625C455.74 73.5625 458.896 74.5625 461.25 76.5625C463.604 78.5417 464.812 81.3333 464.875 84.9375V100.188C464.875 103.229 465.302 105.656 466.156 107.469V108H458.406ZM450.062 102.531C451.562 102.531 452.969 102.167 454.281 101.438C455.615 100.708 456.615 99.7292 457.281 98.5V92.125H453.188C450.375 92.125 448.26 92.6146 446.844 93.5938C445.427 94.5729 444.719 95.9583 444.719 97.75C444.719 99.2083 445.198 100.375 446.156 101.25C447.135 102.104 448.438 102.531 450.062 102.531ZM471.5 90.8438C471.5 85.5938 472.729 81.4062 475.188 78.2812C477.667 75.1354 480.948 73.5625 485.031 73.5625C488.885 73.5625 491.917 74.9062 494.125 77.5938L494.469 74.1875H501.312V106.969C501.312 111.406 499.927 114.906 497.156 117.469C494.406 120.031 490.688 121.312 486 121.312C483.521 121.312 481.094 120.792 478.719 119.75C476.365 118.729 474.573 117.385 473.344 115.719L476.938 111.156C479.271 113.927 482.146 115.312 485.562 115.312C488.083 115.312 490.073 114.625 491.531 113.25C492.99 111.896 493.719 109.896 493.719 107.25V104.969C491.531 107.406 488.615 108.625 484.969 108.625C481.01 108.625 477.771 107.052 475.25 103.906C472.75 100.76 471.5 96.4062 471.5 90.8438ZM479.062 91.5C479.062 94.8958 479.75 97.5729 481.125 99.5312C482.521 101.469 484.448 102.438 486.906 102.438C489.969 102.438 492.24 101.125 493.719 98.5V83.625C492.281 81.0625 490.031 79.7812 486.969 79.7812C484.469 79.7812 482.521 80.7708 481.125 82.75C479.75 84.7292 479.062 87.6458 479.062 91.5Z" fill="white"/>
<path d="M59.1016 373.32L59.1836 374.785C60.1211 373.652 61.3516 373.086 62.875 373.086C65.5156 373.086 66.8594 374.598 66.9062 377.621V386H64.0586V377.785C64.0586 376.98 63.8828 376.387 63.5312 376.004C63.1875 375.613 62.6211 375.418 61.832 375.418C60.6836 375.418 59.8281 375.938 59.2656 376.977V386H56.418V373.32H59.1016ZM77.3945 386C77.2695 385.758 77.1602 385.363 77.0664 384.816C76.1602 385.762 75.0508 386.234 73.7383 386.234C72.4648 386.234 71.4258 385.871 70.6211 385.145C69.8164 384.418 69.4141 383.52 69.4141 382.449C69.4141 381.098 69.9141 380.062 70.9141 379.344C71.9219 378.617 73.3594 378.254 75.2266 378.254H76.9727V377.422C76.9727 376.766 76.7891 376.242 76.4219 375.852C76.0547 375.453 75.4961 375.254 74.7461 375.254C74.0977 375.254 73.5664 375.418 73.1523 375.746C72.7383 376.066 72.5312 376.477 72.5312 376.977H69.6836C69.6836 376.281 69.9141 375.633 70.375 375.031C70.8359 374.422 71.4609 373.945 72.25 373.602C73.0469 373.258 73.9336 373.086 74.9102 373.086C76.3945 373.086 77.5781 373.461 78.4609 374.211C79.3438 374.953 79.7969 376 79.8203 377.352V383.07C79.8203 384.211 79.9805 385.121 80.3008 385.801V386H77.3945ZM74.2656 383.949C74.8281 383.949 75.3555 383.812 75.8477 383.539C76.3477 383.266 76.7227 382.898 76.9727 382.438V380.047H75.4375C74.3828 380.047 73.5898 380.23 73.0586 380.598C72.5273 380.965 72.2617 381.484 72.2617 382.156C72.2617 382.703 72.4414 383.141 72.8008 383.469C73.168 383.789 73.6562 383.949 74.2656 383.949ZM87.0859 382.391L89.7695 373.32H92.7109L88.3164 386H85.8438L81.4141 373.32H84.3672L87.0859 382.391ZM100.023 379.895H93.8711V377.598H100.023V379.895ZM106.844 382.391L109.527 373.32H112.469L108.074 386H105.602L101.172 373.32H104.125L106.844 382.391ZM125.547 386H114.074V384.043L119.758 377.844C120.578 376.93 121.16 376.168 121.504 375.559C121.855 374.941 122.031 374.324 122.031 373.707C122.031 372.895 121.801 372.238 121.34 371.738C120.887 371.238 120.273 370.988 119.5 370.988C118.578 370.988 117.863 371.27 117.355 371.832C116.848 372.395 116.594 373.164 116.594 374.141H113.746C113.746 373.102 113.98 372.168 114.449 371.34C114.926 370.504 115.602 369.855 116.477 369.395C117.359 368.934 118.375 368.703 119.523 368.703C121.18 368.703 122.484 369.121 123.438 369.957C124.398 370.785 124.879 371.934 124.879 373.402C124.879 374.254 124.637 375.148 124.152 376.086C123.676 377.016 122.891 378.074 121.797 379.262L117.625 383.727H125.547V386Z" fill="black"/>
<path d="M369.137 373.32L369.219 374.645C370.109 373.605 371.328 373.086 372.875 373.086C374.57 373.086 375.73 373.734 376.355 375.031C377.277 373.734 378.574 373.086 380.246 373.086C381.645 373.086 382.684 373.473 383.363 374.246C384.051 375.02 384.402 376.16 384.418 377.668V386H381.57V377.75C381.57 376.945 381.395 376.355 381.043 375.98C380.691 375.605 380.109 375.418 379.297 375.418C378.648 375.418 378.117 375.594 377.703 375.945C377.297 376.289 377.012 376.742 376.848 377.305L376.859 386H374.012V377.656C373.973 376.164 373.211 375.418 371.727 375.418C370.586 375.418 369.777 375.883 369.301 376.812V386H366.453V373.32H369.137ZM395.023 384.758C394.188 385.742 393 386.234 391.461 386.234C390.086 386.234 389.043 385.832 388.332 385.027C387.629 384.223 387.277 383.059 387.277 381.535V373.32H390.125V381.5C390.125 383.109 390.793 383.914 392.129 383.914C393.512 383.914 394.445 383.418 394.93 382.426V373.32H397.777V386H395.094L395.023 384.758ZM403.707 386H400.859V368H403.707V386ZM410.387 370.238V373.32H412.625V375.43H410.387V382.508C410.387 382.992 410.48 383.344 410.668 383.562C410.863 383.773 411.207 383.879 411.699 383.879C412.027 383.879 412.359 383.84 412.695 383.762V385.965C412.047 386.145 411.422 386.234 410.82 386.234C408.633 386.234 407.539 385.027 407.539 382.613V375.43H405.453V373.32H407.539V370.238H410.387ZM417.84 386H414.992V373.32H417.84V386ZM414.816 370.027C414.816 369.59 414.953 369.227 415.227 368.938C415.508 368.648 415.906 368.504 416.422 368.504C416.938 368.504 417.336 368.648 417.617 368.938C417.898 369.227 418.039 369.59 418.039 370.027C418.039 370.457 417.898 370.816 417.617 371.105C417.336 371.387 416.938 371.527 416.422 371.527C415.906 371.527 415.508 371.387 415.227 371.105C414.953 370.816 414.816 370.457 414.816 370.027ZM426.477 379.895H420.324V377.598H426.477V379.895ZM439.93 379.789C439.93 381.75 439.484 383.316 438.594 384.488C437.703 385.652 436.508 386.234 435.008 386.234C433.617 386.234 432.504 385.777 431.668 384.863V390.875H428.82V373.32H431.445L431.562 374.609C432.398 373.594 433.535 373.086 434.973 373.086C436.52 373.086 437.73 373.664 438.605 374.82C439.488 375.969 439.93 377.566 439.93 379.613V379.789ZM437.094 379.543C437.094 378.277 436.84 377.273 436.332 376.531C435.832 375.789 435.113 375.418 434.176 375.418C433.012 375.418 432.176 375.898 431.668 376.859V382.484C432.184 383.469 433.027 383.961 434.199 383.961C435.105 383.961 435.812 383.598 436.32 382.871C436.836 382.137 437.094 381.027 437.094 379.543ZM448.988 375.922C448.613 375.859 448.227 375.828 447.828 375.828C446.523 375.828 445.645 376.328 445.191 377.328V386H442.344V373.32H445.062L445.133 374.738C445.82 373.637 446.773 373.086 447.992 373.086C448.398 373.086 448.734 373.141 449 373.25L448.988 375.922ZM449.832 379.543C449.832 378.301 450.078 377.184 450.57 376.191C451.062 375.191 451.754 374.426 452.645 373.895C453.535 373.355 454.559 373.086 455.715 373.086C457.426 373.086 458.812 373.637 459.875 374.738C460.945 375.84 461.523 377.301 461.609 379.121L461.621 379.789C461.621 381.039 461.379 382.156 460.895 383.141C460.418 384.125 459.73 384.887 458.832 385.426C457.941 385.965 456.91 386.234 455.738 386.234C453.949 386.234 452.516 385.641 451.438 384.453C450.367 383.258 449.832 381.668 449.832 379.684V379.543ZM452.68 379.789C452.68 381.094 452.949 382.117 453.488 382.859C454.027 383.594 454.777 383.961 455.738 383.961C456.699 383.961 457.445 383.586 457.977 382.836C458.516 382.086 458.785 380.988 458.785 379.543C458.785 378.262 458.508 377.246 457.953 376.496C457.406 375.746 456.66 375.371 455.715 375.371C454.785 375.371 454.047 375.742 453.5 376.484C452.953 377.219 452.68 378.32 452.68 379.789ZM467 373.32V387.125C467 388.422 466.676 389.41 466.027 390.09C465.387 390.777 464.445 391.121 463.203 391.121C462.68 391.121 462.176 391.055 461.691 390.922V388.672C461.988 388.742 462.324 388.777 462.699 388.777C463.645 388.777 464.129 388.262 464.152 387.23V373.32H467ZM463.906 370.027C463.906 369.59 464.043 369.227 464.316 368.938C464.598 368.648 464.996 368.504 465.512 368.504C466.027 368.504 466.426 368.648 466.707 368.938C466.988 369.227 467.129 369.59 467.129 370.027C467.129 370.457 466.988 370.816 466.707 371.105C466.426 371.387 466.027 371.527 465.512 371.527C464.996 371.527 464.598 371.387 464.316 371.105C464.043 370.816 463.906 370.457 463.906 370.027ZM475.578 379.895H469.426V377.598H475.578V379.895ZM482.398 382.391L485.082 373.32H488.023L483.629 386H481.156L476.727 373.32H479.68L482.398 382.391ZM497.34 386H494.504V372.301L490.32 373.73V371.328L496.977 368.879H497.34V386Z" fill="black"/>
<path d="M188.102 427.32L188.184 428.785C189.121 427.652 190.352 427.086 191.875 427.086C194.516 427.086 195.859 428.598 195.906 431.621V440H193.059V431.785C193.059 430.98 192.883 430.387 192.531 430.004C192.188 429.613 191.621 429.418 190.832 429.418C189.684 429.418 188.828 429.938 188.266 430.977V440H185.418V427.32H188.102ZM204.402 440.234C202.598 440.234 201.133 439.668 200.008 438.535C198.891 437.395 198.332 435.879 198.332 433.988V433.637C198.332 432.371 198.574 431.242 199.059 430.25C199.551 429.25 200.238 428.473 201.121 427.918C202.004 427.363 202.988 427.086 204.074 427.086C205.801 427.086 207.133 427.637 208.07 428.738C209.016 429.84 209.488 431.398 209.488 433.414V434.562H201.203C201.289 435.609 201.637 436.438 202.246 437.047C202.863 437.656 203.637 437.961 204.566 437.961C205.871 437.961 206.934 437.434 207.754 436.379L209.289 437.844C208.781 438.602 208.102 439.191 207.25 439.613C206.406 440.027 205.457 440.234 204.402 440.234ZM204.062 429.371C203.281 429.371 202.648 429.645 202.164 430.191C201.688 430.738 201.383 431.5 201.25 432.477H206.676V432.266C206.613 431.312 206.359 430.594 205.914 430.109C205.469 429.617 204.852 429.371 204.062 429.371ZM222.848 436.074L224.863 427.32H227.641L224.184 440H221.84L219.121 431.293L216.449 440H214.105L210.637 427.32H213.414L215.465 435.98L218.066 427.32H220.211L222.848 436.074ZM235.07 433.895H228.918V431.598H235.07V433.895ZM242.629 437.961C243.34 437.961 243.93 437.754 244.398 437.34C244.867 436.926 245.117 436.414 245.148 435.805H247.832C247.801 436.594 247.555 437.332 247.094 438.02C246.633 438.699 246.008 439.238 245.219 439.637C244.43 440.035 243.578 440.234 242.664 440.234C240.891 440.234 239.484 439.66 238.445 438.512C237.406 437.363 236.887 435.777 236.887 433.754V433.461C236.887 431.531 237.402 429.988 238.434 428.832C239.465 427.668 240.871 427.086 242.652 427.086C244.16 427.086 245.387 427.527 246.332 428.41C247.285 429.285 247.785 430.438 247.832 431.867H245.148C245.117 431.141 244.867 430.543 244.398 430.074C243.938 429.605 243.348 429.371 242.629 429.371C241.707 429.371 240.996 429.707 240.496 430.379C239.996 431.043 239.742 432.055 239.734 433.414V433.871C239.734 435.246 239.98 436.273 240.473 436.953C240.973 437.625 241.691 437.961 242.629 437.961ZM249.449 433.543C249.449 432.301 249.695 431.184 250.188 430.191C250.68 429.191 251.371 428.426 252.262 427.895C253.152 427.355 254.176 427.086 255.332 427.086C257.043 427.086 258.43 427.637 259.492 428.738C260.562 429.84 261.141 431.301 261.227 433.121L261.238 433.789C261.238 435.039 260.996 436.156 260.512 437.141C260.035 438.125 259.348 438.887 258.449 439.426C257.559 439.965 256.527 440.234 255.355 440.234C253.566 440.234 252.133 439.641 251.055 438.453C249.984 437.258 249.449 435.668 249.449 433.684V433.543ZM252.297 433.789C252.297 435.094 252.566 436.117 253.105 436.859C253.645 437.594 254.395 437.961 255.355 437.961C256.316 437.961 257.062 437.586 257.594 436.836C258.133 436.086 258.402 434.988 258.402 433.543C258.402 432.262 258.125 431.246 257.57 430.496C257.023 429.746 256.277 429.371 255.332 429.371C254.402 429.371 253.664 429.742 253.117 430.484C252.57 431.219 252.297 432.32 252.297 433.789ZM266.324 427.32L266.406 428.645C267.297 427.605 268.516 427.086 270.062 427.086C271.758 427.086 272.918 427.734 273.543 429.031C274.465 427.734 275.762 427.086 277.434 427.086C278.832 427.086 279.871 427.473 280.551 428.246C281.238 429.02 281.59 430.16 281.605 431.668V440H278.758V431.75C278.758 430.945 278.582 430.355 278.23 429.98C277.879 429.605 277.297 429.418 276.484 429.418C275.836 429.418 275.305 429.594 274.891 429.945C274.484 430.289 274.199 430.742 274.035 431.305L274.047 440H271.199V431.656C271.16 430.164 270.398 429.418 268.914 429.418C267.773 429.418 266.965 429.883 266.488 430.812V440H263.641V427.32H266.324ZM287.207 427.32L287.289 428.645C288.18 427.605 289.398 427.086 290.945 427.086C292.641 427.086 293.801 427.734 294.426 429.031C295.348 427.734 296.645 427.086 298.316 427.086C299.715 427.086 300.754 427.473 301.434 428.246C302.121 429.02 302.473 430.16 302.488 431.668V440H299.641V431.75C299.641 430.945 299.465 430.355 299.113 429.98C298.762 429.605 298.18 429.418 297.367 429.418C296.719 429.418 296.188 429.594 295.773 429.945C295.367 430.289 295.082 430.742 294.918 431.305L294.93 440H292.082V431.656C292.043 430.164 291.281 429.418 289.797 429.418C288.656 429.418 287.848 429.883 287.371 430.812V440H284.523V427.32H287.207ZM310.996 440.234C309.191 440.234 307.727 439.668 306.602 438.535C305.484 437.395 304.926 435.879 304.926 433.988V433.637C304.926 432.371 305.168 431.242 305.652 430.25C306.145 429.25 306.832 428.473 307.715 427.918C308.598 427.363 309.582 427.086 310.668 427.086C312.395 427.086 313.727 427.637 314.664 428.738C315.609 429.84 316.082 431.398 316.082 433.414V434.562H307.797C307.883 435.609 308.23 436.438 308.84 437.047C309.457 437.656 310.23 437.961 311.16 437.961C312.465 437.961 313.527 437.434 314.348 436.379L315.883 437.844C315.375 438.602 314.695 439.191 313.844 439.613C313 440.027 312.051 440.234 310.996 440.234ZM310.656 429.371C309.875 429.371 309.242 429.645 308.758 430.191C308.281 430.738 307.977 431.5 307.844 432.477H313.27V432.266C313.207 431.312 312.953 430.594 312.508 430.109C312.062 429.617 311.445 429.371 310.656 429.371ZM320.945 427.32L321.027 428.785C321.965 427.652 323.195 427.086 324.719 427.086C327.359 427.086 328.703 428.598 328.75 431.621V440H325.902V431.785C325.902 430.98 325.727 430.387 325.375 430.004C325.031 429.613 324.465 429.418 323.676 429.418C322.527 429.418 321.672 429.938 321.109 430.977V440H318.262V427.32H320.945ZM335.23 424.238V427.32H337.469V429.43H335.23V436.508C335.23 436.992 335.324 437.344 335.512 437.562C335.707 437.773 336.051 437.879 336.543 437.879C336.871 437.879 337.203 437.84 337.539 437.762V439.965C336.891 440.145 336.266 440.234 335.664 440.234C333.477 440.234 332.383 439.027 332.383 436.613V429.43H330.297V427.32H332.383V424.238H335.23ZM346.762 436.555C346.762 436.047 346.551 435.66 346.129 435.395C345.715 435.129 345.023 434.895 344.055 434.691C343.086 434.488 342.277 434.23 341.629 433.918C340.207 433.23 339.496 432.234 339.496 430.93C339.496 429.836 339.957 428.922 340.879 428.188C341.801 427.453 342.973 427.086 344.395 427.086C345.91 427.086 347.133 427.461 348.062 428.211C349 428.961 349.469 429.934 349.469 431.129H346.621C346.621 430.582 346.418 430.129 346.012 429.77C345.605 429.402 345.066 429.219 344.395 429.219C343.77 429.219 343.258 429.363 342.859 429.652C342.469 429.941 342.273 430.328 342.273 430.812C342.273 431.25 342.457 431.59 342.824 431.832C343.191 432.074 343.934 432.32 345.051 432.57C346.168 432.812 347.043 433.105 347.676 433.449C348.316 433.785 348.789 434.191 349.094 434.668C349.406 435.145 349.562 435.723 349.562 436.402C349.562 437.543 349.09 438.469 348.145 439.18C347.199 439.883 345.961 440.234 344.43 440.234C343.391 440.234 342.465 440.047 341.652 439.672C340.84 439.297 340.207 438.781 339.754 438.125C339.301 437.469 339.074 436.762 339.074 436.004H341.84C341.879 436.676 342.133 437.195 342.602 437.562C343.07 437.922 343.691 438.102 344.465 438.102C345.215 438.102 345.785 437.961 346.176 437.68C346.566 437.391 346.762 437.016 346.762 436.555Z" fill="black"/>
<defs>
<filter id="filter0_d" x="616.769" y="134.766" width="74.581" height="175.18" filterUnits="userSpaceOnUse" color-interpolation-filters="sRGB">
<feFlood flood-opacity="0" result="BackgroundImageFix"/>
<feColorMatrix in="SourceAlpha" type="matrix" values="0 0 0 0 0 0 0 0 0 0 0 0 0 0 0 0 0 0 127 0"/>
<feOffset dy="4"/>
<feGaussianBlur stdDeviation="2"/>
<feColorMatrix type="matrix" values="0 0 0 0 0 0 0 0 0 0 0 0 0 0 0 0 0 0 0.25 0"/>
<feBlend mode="normal" in2="BackgroundImageFix" result="effect1_dropShadow"/>
<feBlend mode="normal" in="SourceGraphic" in2="effect1_dropShadow" result="shape"/>
</filter>
</defs>
</svg>
