<svg width="868" height="293" viewBox="0 0 868 293" fill="none" xmlns="http://www.w3.org/2000/svg">
<rect x="0.5" y="0.5" width="867" height="292" rx="25.5" stroke="#24292E"/>
<path d="M22.7476 52.0713H19.3901L29.4624 24.2803H32.8198L22.7476 52.0713ZM32.6265 52.0713H29.269L39.3413 24.2803H42.6987L32.6265 52.0713ZM65.2866 44.7061C65.2866 43.9443 64.9702 43.3643 64.3374 42.9658C63.7163 42.5674 62.6792 42.2158 61.2261 41.9111C59.7729 41.6064 58.5601 41.2197 57.5874 40.751C55.4546 39.7197 54.3882 38.2256 54.3882 36.2686C54.3882 34.6279 55.0796 33.2568 56.4624 32.1553C57.8452 31.0537 59.603 30.5029 61.7358 30.5029C64.0093 30.5029 65.8433 31.0654 67.2378 32.1904C68.644 33.3154 69.3472 34.7744 69.3472 36.5674H65.0757C65.0757 35.7471 64.771 35.0674 64.1616 34.5283C63.5522 33.9775 62.7437 33.7021 61.7358 33.7021C60.7983 33.7021 60.0308 33.9189 59.4331 34.3525C58.8472 34.7861 58.5542 35.3662 58.5542 36.0928C58.5542 36.749 58.8296 37.2588 59.3804 37.6221C59.9312 37.9854 61.0444 38.3545 62.7202 38.7295C64.396 39.0928 65.7085 39.5322 66.6577 40.0479C67.6187 40.5518 68.3276 41.1611 68.7847 41.876C69.2534 42.5908 69.4878 43.458 69.4878 44.4775C69.4878 46.1885 68.7788 47.5771 67.3608 48.6436C65.9429 49.6982 64.0854 50.2256 61.7886 50.2256C60.23 50.2256 58.8413 49.9443 57.6226 49.3818C56.4038 48.8193 55.4546 48.0459 54.7749 47.0615C54.0952 46.0771 53.7554 45.0166 53.7554 43.8799H57.9038C57.9624 44.8877 58.3433 45.667 59.0464 46.2178C59.7495 46.7568 60.6812 47.0264 61.8413 47.0264C62.9663 47.0264 63.8218 46.8154 64.4077 46.3936C64.9937 45.96 65.2866 45.3975 65.2866 44.7061ZM77.4331 32.9287C78.8276 31.3115 80.5913 30.5029 82.7241 30.5029C86.7788 30.5029 88.8354 32.8174 88.894 37.4463V49.874H84.6226V37.6045C84.6226 36.292 84.3354 35.3662 83.7612 34.8271C83.1987 34.2764 82.3667 34.001 81.2651 34.001C79.5542 34.001 78.2769 34.7627 77.4331 36.2861V49.874H73.1616V22.874H77.4331V32.9287ZM92.4272 40.1885C92.4272 38.3252 92.7964 36.6494 93.5347 35.1611C94.2729 33.6611 95.3101 32.5127 96.646 31.7158C97.9819 30.9072 99.5171 30.5029 101.251 30.5029C103.818 30.5029 105.898 31.3291 107.492 32.9814C109.097 34.6338 109.964 36.8252 110.093 39.5557L110.111 40.5576C110.111 42.4326 109.748 44.1084 109.021 45.585C108.306 47.0615 107.275 48.2041 105.927 49.0127C104.591 49.8213 103.044 50.2256 101.287 50.2256C98.603 50.2256 96.4526 49.335 94.8354 47.5537C93.23 45.7607 92.4272 43.376 92.4272 40.3994V40.1885ZM96.6987 40.5576C96.6987 42.5146 97.103 44.0498 97.9116 45.1631C98.7202 46.2646 99.8452 46.8154 101.287 46.8154C102.728 46.8154 103.847 46.2529 104.644 45.1279C105.453 44.0029 105.857 42.3564 105.857 40.1885C105.857 38.2666 105.441 36.7432 104.609 35.6182C103.789 34.4932 102.669 33.9307 101.251 33.9307C99.8569 33.9307 98.7495 34.4873 97.9292 35.6006C97.1089 36.7021 96.6987 38.3545 96.6987 40.5576ZM130.431 43.9854L133.455 30.8545H137.621L132.435 49.874H128.919L124.841 36.8135L120.833 49.874H117.318L112.115 30.8545H116.281L119.357 43.8447L123.259 30.8545H126.476L130.431 43.9854ZM153.406 30.8545L153.529 33.0518C154.935 31.3525 156.781 30.5029 159.066 30.5029C163.027 30.5029 165.042 32.7705 165.113 37.3057V49.874H160.841V37.5518C160.841 36.3447 160.578 35.4541 160.05 34.8799C159.535 34.2939 158.685 34.001 157.501 34.001C155.779 34.001 154.496 34.7803 153.652 36.3389V49.874H149.38V30.8545H153.406ZM177.857 50.2256C175.15 50.2256 172.953 49.376 171.265 47.6768C169.589 45.9658 168.751 43.6924 168.751 40.8564V40.3291C168.751 38.4307 169.115 36.7373 169.841 35.249C170.58 33.749 171.611 32.583 172.935 31.751C174.259 30.9189 175.736 30.5029 177.365 30.5029C179.955 30.5029 181.953 31.3291 183.359 32.9814C184.777 34.6338 185.486 36.9717 185.486 39.9951V41.7178H173.058C173.187 43.2881 173.708 44.5303 174.623 45.4443C175.548 46.3584 176.708 46.8154 178.103 46.8154C180.06 46.8154 181.654 46.0244 182.884 44.4424L185.187 46.6396C184.425 47.7764 183.406 48.6611 182.128 49.2939C180.863 49.915 179.439 50.2256 177.857 50.2256ZM177.347 33.9307C176.175 33.9307 175.226 34.3408 174.5 35.1611C173.785 35.9814 173.328 37.124 173.128 38.5889H181.267V38.2725C181.173 36.8428 180.792 35.7646 180.125 35.0381C179.457 34.2998 178.531 33.9307 177.347 33.9307ZM205.525 43.9854L208.548 30.8545H212.714L207.529 49.874H204.013L199.935 36.8135L195.927 49.874H192.412L187.208 30.8545H191.375L194.451 43.8447L198.353 30.8545H201.57L205.525 43.9854ZM228.5 30.8545L228.623 33.0518C230.029 31.3525 231.875 30.5029 234.16 30.5029C238.121 30.5029 240.136 32.7705 240.207 37.3057V49.874H235.935V37.5518C235.935 36.3447 235.671 35.4541 235.144 34.8799C234.628 34.2939 233.779 34.001 232.595 34.001C230.873 34.001 229.589 34.7803 228.746 36.3389V49.874H224.474V30.8545H228.5ZM255.939 49.874C255.751 49.5107 255.587 48.9189 255.447 48.0986C254.087 49.5166 252.423 50.2256 250.455 50.2256C248.544 50.2256 246.986 49.6807 245.779 48.5908C244.572 47.501 243.968 46.1533 243.968 44.5479C243.968 42.5205 244.718 40.9678 246.218 39.8896C247.73 38.7998 249.886 38.2549 252.687 38.2549H255.306V37.0068C255.306 36.0225 255.031 35.2373 254.48 34.6514C253.929 34.0537 253.091 33.7549 251.966 33.7549C250.994 33.7549 250.197 34.001 249.576 34.4932C248.955 34.9736 248.644 35.5889 248.644 36.3389H244.373C244.373 35.2959 244.718 34.3232 245.41 33.4209C246.101 32.5068 247.039 31.792 248.222 31.2764C249.417 30.7607 250.748 30.5029 252.212 30.5029C254.439 30.5029 256.214 31.0654 257.539 32.1904C258.863 33.3037 259.542 34.874 259.578 36.9014V45.4795C259.578 47.1904 259.818 48.5557 260.298 49.5752V49.874H255.939ZM251.246 46.7979C252.089 46.7979 252.88 46.5928 253.619 46.1826C254.369 45.7725 254.931 45.2217 255.306 44.5303V40.9443H253.003C251.421 40.9443 250.232 41.2197 249.435 41.7705C248.638 42.3213 248.24 43.1006 248.24 44.1084C248.24 44.9287 248.509 45.585 249.048 46.0771C249.599 46.5576 250.332 46.7979 251.246 46.7979ZM270.476 44.46L274.501 30.8545H278.914L272.322 49.874H268.613L261.968 30.8545H266.398L270.476 44.46ZM286.138 49.874H281.867V30.8545H286.138V49.874ZM281.603 25.915C281.603 25.2588 281.808 24.7139 282.218 24.2803C282.64 23.8467 283.238 23.6299 284.011 23.6299C284.785 23.6299 285.382 23.8467 285.804 24.2803C286.226 24.7139 286.437 25.2588 286.437 25.915C286.437 26.5596 286.226 27.0986 285.804 27.5322C285.382 27.9541 284.785 28.165 284.011 28.165C283.238 28.165 282.64 27.9541 282.218 27.5322C281.808 27.0986 281.603 26.5596 281.603 25.915ZM290.058 40.2236C290.058 37.2705 290.75 34.915 292.132 33.1572C293.527 31.3877 295.373 30.5029 297.669 30.5029C299.837 30.5029 301.542 31.2588 302.785 32.7705L302.978 30.8545H306.828V49.2939C306.828 51.79 306.048 53.7588 304.49 55.2002C302.943 56.6416 300.851 57.3623 298.214 57.3623C296.82 57.3623 295.455 57.0693 294.119 56.4834C292.794 55.9092 291.787 55.1533 291.095 54.2158L293.117 51.6494C294.429 53.208 296.046 53.9873 297.968 53.9873C299.386 53.9873 300.505 53.6006 301.326 52.8271C302.146 52.0654 302.556 50.9404 302.556 49.4521V48.1689C301.326 49.54 299.685 50.2256 297.634 50.2256C295.408 50.2256 293.585 49.3408 292.167 47.5713C290.761 45.8018 290.058 43.3525 290.058 40.2236ZM294.312 40.5928C294.312 42.5029 294.699 44.0088 295.472 45.1104C296.257 46.2002 297.341 46.7451 298.724 46.7451C300.447 46.7451 301.724 46.0068 302.556 44.5303V36.1631C301.748 34.7217 300.482 34.001 298.759 34.001C297.353 34.001 296.257 34.5576 295.472 35.6709C294.699 36.7842 294.312 38.4248 294.312 40.5928ZM322.595 49.874C322.408 49.5107 322.244 48.9189 322.103 48.0986C320.744 49.5166 319.08 50.2256 317.111 50.2256C315.201 50.2256 313.642 49.6807 312.435 48.5908C311.228 47.501 310.625 46.1533 310.625 44.5479C310.625 42.5205 311.375 40.9678 312.875 39.8896C314.386 38.7998 316.542 38.2549 319.343 38.2549H321.962V37.0068C321.962 36.0225 321.687 35.2373 321.136 34.6514C320.585 34.0537 319.748 33.7549 318.623 33.7549C317.65 33.7549 316.853 34.001 316.232 34.4932C315.611 34.9736 315.3 35.5889 315.3 36.3389H311.029C311.029 35.2959 311.375 34.3232 312.066 33.4209C312.757 32.5068 313.695 31.792 314.878 31.2764C316.074 30.7607 317.404 30.5029 318.869 30.5029C321.095 30.5029 322.871 31.0654 324.195 32.1904C325.519 33.3037 326.199 34.874 326.234 36.9014V45.4795C326.234 47.1904 326.474 48.5557 326.955 49.5752V49.874H322.595ZM317.902 46.7979C318.746 46.7979 319.537 46.5928 320.275 46.1826C321.025 45.7725 321.587 45.2217 321.962 44.5303V40.9443H319.66C318.078 40.9443 316.888 41.2197 316.091 41.7705C315.294 42.3213 314.896 43.1006 314.896 44.1084C314.896 44.9287 315.166 45.585 315.705 46.0771C316.255 46.5576 316.988 46.7979 317.902 46.7979ZM336.06 26.2314V30.8545H339.417V34.0186H336.06V44.6357C336.06 45.3623 336.201 45.8896 336.482 46.2178C336.775 46.5342 337.291 46.6924 338.029 46.6924C338.521 46.6924 339.019 46.6338 339.523 46.5166V49.8213C338.55 50.0908 337.613 50.2256 336.71 50.2256C333.429 50.2256 331.789 48.415 331.789 44.7939V34.0186H328.66V30.8545H331.789V26.2314H336.06ZM347.24 49.874H342.968V30.8545H347.24V49.874ZM342.705 25.915C342.705 25.2588 342.91 24.7139 343.32 24.2803C343.742 23.8467 344.339 23.6299 345.113 23.6299C345.886 23.6299 346.484 23.8467 346.906 24.2803C347.328 24.7139 347.539 25.2588 347.539 25.915C347.539 26.5596 347.328 27.0986 346.906 27.5322C346.484 27.9541 345.886 28.165 345.113 28.165C344.339 28.165 343.742 27.9541 343.32 27.5322C342.91 27.0986 342.705 26.5596 342.705 25.915ZM351.107 40.1885C351.107 38.3252 351.476 36.6494 352.214 35.1611C352.953 33.6611 353.99 32.5127 355.326 31.7158C356.662 30.9072 358.197 30.5029 359.931 30.5029C362.498 30.5029 364.578 31.3291 366.171 32.9814C367.777 34.6338 368.644 36.8252 368.773 39.5557L368.791 40.5576C368.791 42.4326 368.427 44.1084 367.701 45.585C366.986 47.0615 365.955 48.2041 364.607 49.0127C363.271 49.8213 361.724 50.2256 359.966 50.2256C357.283 50.2256 355.132 49.335 353.515 47.5537C351.91 45.7607 351.107 43.376 351.107 40.3994V40.1885ZM355.378 40.5576C355.378 42.5146 355.783 44.0498 356.591 45.1631C357.4 46.2646 358.525 46.8154 359.966 46.8154C361.408 46.8154 362.527 46.2529 363.324 45.1279C364.132 44.0029 364.537 42.3564 364.537 40.1885C364.537 38.2666 364.121 36.7432 363.289 35.6182C362.468 34.4932 361.349 33.9307 359.931 33.9307C358.537 33.9307 357.429 34.4873 356.609 35.6006C355.789 36.7021 355.378 38.3545 355.378 40.5576ZM376.367 30.8545L376.49 33.0518C377.896 31.3525 379.742 30.5029 382.027 30.5029C385.988 30.5029 388.003 32.7705 388.074 37.3057V49.874H383.802V37.5518C383.802 36.3447 383.539 35.4541 383.011 34.8799C382.496 34.2939 381.646 34.001 380.462 34.001C378.74 34.001 377.457 34.7803 376.613 36.3389V49.874H372.341V30.8545H376.367ZM406.759 26.2314V30.8545H410.117V34.0186H406.759V44.6357C406.759 45.3623 406.9 45.8896 407.181 46.2178C407.474 46.5342 407.99 46.6924 408.728 46.6924C409.22 46.6924 409.718 46.6338 410.222 46.5166V49.8213C409.25 50.0908 408.312 50.2256 407.41 50.2256C404.128 50.2256 402.488 48.415 402.488 44.7939V34.0186H399.359V30.8545H402.488V26.2314H406.759ZM412.068 40.1885C412.068 38.3252 412.437 36.6494 413.175 35.1611C413.914 33.6611 414.951 32.5127 416.287 31.7158C417.623 30.9072 419.158 30.5029 420.892 30.5029C423.458 30.5029 425.539 31.3291 427.132 32.9814C428.738 34.6338 429.605 36.8252 429.734 39.5557L429.751 40.5576C429.751 42.4326 429.388 44.1084 428.662 45.585C427.947 47.0615 426.916 48.2041 425.568 49.0127C424.232 49.8213 422.685 50.2256 420.927 50.2256C418.244 50.2256 416.093 49.335 414.476 47.5537C412.871 45.7607 412.068 43.376 412.068 40.3994V40.1885ZM416.339 40.5576C416.339 42.5146 416.744 44.0498 417.552 45.1631C418.361 46.2646 419.486 46.8154 420.927 46.8154C422.369 46.8154 423.488 46.2529 424.285 45.1279C425.093 44.0029 425.498 42.3564 425.498 40.1885C425.498 38.2666 425.082 36.7432 424.25 35.6182C423.429 34.4932 422.31 33.9307 420.892 33.9307C419.498 33.9307 418.39 34.4873 417.57 35.6006C416.75 36.7021 416.339 38.3545 416.339 40.5576ZM447.681 26.2314V30.8545H451.039V34.0186H447.681V44.6357C447.681 45.3623 447.822 45.8896 448.103 46.2178C448.396 46.5342 448.912 46.6924 449.65 46.6924C450.142 46.6924 450.64 46.6338 451.144 46.5166V49.8213C450.171 50.0908 449.234 50.2256 448.332 50.2256C445.05 50.2256 443.41 48.415 443.41 44.7939V34.0186H440.281V30.8545H443.41V26.2314H447.681ZM464.275 34.7568C463.712 34.6631 463.132 34.6162 462.535 34.6162C460.578 34.6162 459.259 35.3662 458.58 36.8662V49.874H454.308V30.8545H458.386L458.492 32.9814C459.523 31.3291 460.953 30.5029 462.781 30.5029C463.39 30.5029 463.894 30.585 464.292 30.749L464.275 34.7568ZM474.998 50.2256C472.291 50.2256 470.093 49.376 468.406 47.6768C466.73 45.9658 465.892 43.6924 465.892 40.8564V40.3291C465.892 38.4307 466.255 36.7373 466.982 35.249C467.72 33.749 468.751 32.583 470.076 31.751C471.4 30.9189 472.876 30.5029 474.505 30.5029C477.095 30.5029 479.093 31.3291 480.5 32.9814C481.917 34.6338 482.626 36.9717 482.626 39.9951V41.7178H470.199C470.328 43.2881 470.849 44.5303 471.763 45.4443C472.689 46.3584 473.849 46.8154 475.244 46.8154C477.201 46.8154 478.794 46.0244 480.025 44.4424L482.328 46.6396C481.566 47.7764 480.546 48.6611 479.269 49.2939C478.003 49.915 476.58 50.2256 474.998 50.2256ZM474.488 33.9307C473.316 33.9307 472.367 34.3408 471.64 35.1611C470.925 35.9814 470.468 37.124 470.269 38.5889H478.408V38.2725C478.314 36.8428 477.933 35.7646 477.265 35.0381C476.597 34.2998 475.671 33.9307 474.488 33.9307ZM497.322 49.874C497.134 49.5107 496.97 48.9189 496.83 48.0986C495.47 49.5166 493.806 50.2256 491.837 50.2256C489.927 50.2256 488.369 49.6807 487.162 48.5908C485.955 47.501 485.351 46.1533 485.351 44.5479C485.351 42.5205 486.101 40.9678 487.601 39.8896C489.113 38.7998 491.269 38.2549 494.07 38.2549H496.689V37.0068C496.689 36.0225 496.414 35.2373 495.863 34.6514C495.312 34.0537 494.474 33.7549 493.349 33.7549C492.376 33.7549 491.58 34.001 490.958 34.4932C490.337 34.9736 490.027 35.5889 490.027 36.3389H485.755C485.755 35.2959 486.101 34.3232 486.792 33.4209C487.484 32.5068 488.421 31.792 489.605 31.2764C490.8 30.7607 492.13 30.5029 493.595 30.5029C495.822 30.5029 497.597 31.0654 498.921 32.1904C500.246 33.3037 500.925 34.874 500.96 36.9014V45.4795C500.96 47.1904 501.201 48.5557 501.681 49.5752V49.874H497.322ZM492.628 46.7979C493.472 46.7979 494.263 46.5928 495.001 46.1826C495.751 45.7725 496.314 45.2217 496.689 44.5303V40.9443H494.386C492.804 40.9443 491.615 41.2197 490.818 41.7705C490.021 42.3213 489.623 43.1006 489.623 44.1084C489.623 44.9287 489.892 45.585 490.431 46.0771C490.982 46.5576 491.714 46.7979 492.628 46.7979ZM510.787 26.2314V30.8545H514.144V34.0186H510.787V44.6357C510.787 45.3623 510.927 45.8896 511.208 46.2178C511.501 46.5342 512.017 46.6924 512.755 46.6924C513.248 46.6924 513.746 46.6338 514.25 46.5166V49.8213C513.277 50.0908 512.339 50.2256 511.437 50.2256C508.156 50.2256 506.515 48.415 506.515 44.7939V34.0186H503.386V30.8545H506.515V26.2314H510.787ZM521.439 30.8545L521.562 32.8408C522.898 31.2822 524.726 30.5029 527.046 30.5029C529.589 30.5029 531.33 31.4756 532.267 33.4209C533.65 31.4756 535.595 30.5029 538.103 30.5029C540.201 30.5029 541.759 31.083 542.779 32.2432C543.81 33.4033 544.337 35.1143 544.361 37.376V49.874H540.089V37.499C540.089 36.292 539.826 35.4072 539.298 34.8447C538.771 34.2822 537.898 34.001 536.679 34.001C535.707 34.001 534.91 34.2646 534.289 34.792C533.679 35.3076 533.251 35.9873 533.005 36.8311L533.023 49.874H528.751V37.3584C528.693 35.1201 527.55 34.001 525.324 34.001C523.613 34.001 522.4 34.6982 521.685 36.0928V49.874H517.414V30.8545H521.439ZM557.123 50.2256C554.416 50.2256 552.218 49.376 550.531 47.6768C548.855 45.9658 548.017 43.6924 548.017 40.8564V40.3291C548.017 38.4307 548.38 36.7373 549.107 35.249C549.845 33.749 550.876 32.583 552.201 31.751C553.525 30.9189 555.001 30.5029 556.63 30.5029C559.22 30.5029 561.218 31.3291 562.625 32.9814C564.042 34.6338 564.751 36.9717 564.751 39.9951V41.7178H552.324C552.453 43.2881 552.974 44.5303 553.888 45.4443C554.814 46.3584 555.974 46.8154 557.369 46.8154C559.326 46.8154 560.919 46.0244 562.15 44.4424L564.453 46.6396C563.691 47.7764 562.671 48.6611 561.394 49.2939C560.128 49.915 558.705 50.2256 557.123 50.2256ZM556.613 33.9307C555.441 33.9307 554.492 34.3408 553.765 35.1611C553.05 35.9814 552.593 37.124 552.394 38.5889H560.533V38.2725C560.439 36.8428 560.058 35.7646 559.39 35.0381C558.722 34.2998 557.796 33.9307 556.613 33.9307ZM572.046 30.8545L572.169 33.0518C573.576 31.3525 575.421 30.5029 577.707 30.5029C581.667 30.5029 583.683 32.7705 583.753 37.3057V49.874H579.482V37.5518C579.482 36.3447 579.218 35.4541 578.691 34.8799C578.175 34.2939 577.326 34.001 576.142 34.001C574.419 34.001 573.136 34.7803 572.292 36.3389V49.874H568.021V30.8545H572.046ZM593.474 26.2314V30.8545H596.832V34.0186H593.474V44.6357C593.474 45.3623 593.615 45.8896 593.896 46.2178C594.189 46.5342 594.705 46.6924 595.443 46.6924C595.935 46.6924 596.433 46.6338 596.937 46.5166V49.8213C595.964 50.0908 595.027 50.2256 594.125 50.2256C590.843 50.2256 589.203 48.415 589.203 44.7939V34.0186H586.074V30.8545H589.203V26.2314H593.474ZM608.328 40.2236C608.328 37.2705 609.019 34.915 610.402 33.1572C611.796 31.3877 613.642 30.5029 615.939 30.5029C618.107 30.5029 619.812 31.2588 621.054 32.7705L621.248 30.8545H625.097V49.2939C625.097 51.79 624.318 53.7588 622.759 55.2002C621.212 56.6416 619.121 57.3623 616.484 57.3623C615.089 57.3623 613.724 57.0693 612.388 56.4834C611.064 55.9092 610.056 55.1533 609.365 54.2158L611.386 51.6494C612.699 53.208 614.316 53.9873 616.238 53.9873C617.656 53.9873 618.775 53.6006 619.595 52.8271C620.416 52.0654 620.826 50.9404 620.826 49.4521V48.1689C619.595 49.54 617.955 50.2256 615.904 50.2256C613.677 50.2256 611.855 49.3408 610.437 47.5713C609.031 45.8018 608.328 43.3525 608.328 40.2236ZM612.582 40.5928C612.582 42.5029 612.968 44.0088 613.742 45.1104C614.527 46.2002 615.611 46.7451 616.994 46.7451C618.716 46.7451 619.994 46.0068 620.826 44.5303V36.1631C620.017 34.7217 618.751 34.001 617.029 34.001C615.623 34.001 614.527 34.5576 613.742 35.6709C612.968 36.7842 612.582 38.4248 612.582 40.5928ZM639.458 34.7568C638.896 34.6631 638.316 34.6162 637.718 34.6162C635.761 34.6162 634.443 35.3662 633.763 36.8662V49.874H629.492V30.8545H633.57L633.675 32.9814C634.707 31.3291 636.136 30.5029 637.964 30.5029C638.574 30.5029 639.078 30.585 639.476 30.749L639.458 34.7568ZM640.724 40.1885C640.724 38.3252 641.093 36.6494 641.832 35.1611C642.57 33.6611 643.607 32.5127 644.943 31.7158C646.279 30.9072 647.814 30.5029 649.548 30.5029C652.115 30.5029 654.195 31.3291 655.789 32.9814C657.394 34.6338 658.261 36.8252 658.39 39.5557L658.408 40.5576C658.408 42.4326 658.044 44.1084 657.318 45.585C656.603 47.0615 655.572 48.2041 654.224 49.0127C652.888 49.8213 651.341 50.2256 649.583 50.2256C646.9 50.2256 644.75 49.335 643.132 47.5537C641.527 45.7607 640.724 43.376 640.724 40.3994V40.1885ZM644.996 40.5576C644.996 42.5146 645.4 44.0498 646.208 45.1631C647.017 46.2646 648.142 46.8154 649.583 46.8154C651.025 46.8154 652.144 46.2529 652.941 45.1279C653.75 44.0029 654.154 42.3564 654.154 40.1885C654.154 38.2666 653.738 36.7432 652.906 35.6182C652.085 34.4932 650.966 33.9307 649.548 33.9307C648.154 33.9307 647.046 34.4873 646.226 35.6006C645.406 36.7021 644.996 38.3545 644.996 40.5576ZM673.542 48.0107C672.289 49.4873 670.507 50.2256 668.199 50.2256C666.136 50.2256 664.572 49.6221 663.505 48.415C662.451 47.208 661.923 45.4619 661.923 43.1768V30.8545H666.195V43.124C666.195 45.5381 667.197 46.7451 669.201 46.7451C671.275 46.7451 672.675 46.001 673.402 44.5127V30.8545H677.673V49.874H673.648L673.542 48.0107ZM698.679 40.5576C698.679 43.499 698.011 45.8486 696.675 47.6064C695.339 49.3525 693.546 50.2256 691.296 50.2256C689.21 50.2256 687.541 49.54 686.287 48.1689V57.1865H682.015V30.8545H685.953L686.128 32.7881C687.382 31.2646 689.087 30.5029 691.244 30.5029C693.564 30.5029 695.38 31.3701 696.693 33.1045C698.017 34.8271 698.679 37.2236 698.679 40.2939V40.5576ZM694.425 40.1885C694.425 38.29 694.044 36.7842 693.283 35.6709C692.533 34.5576 691.455 34.001 690.048 34.001C688.302 34.001 687.048 34.7217 686.287 36.1631V44.6006C687.06 46.0771 688.326 46.8154 690.083 46.8154C691.443 46.8154 692.503 46.2705 693.265 45.1807C694.039 44.0791 694.425 42.415 694.425 40.1885Z" fill="#949494"/>
<path d="M29.3569 88.8154C30.4233 88.8154 31.3081 88.5049 32.0112 87.8838C32.7144 87.2627 33.0894 86.4951 33.1362 85.5811H37.1616C37.1147 86.7646 36.7456 87.8721 36.0542 88.9033C35.3628 89.9229 34.4253 90.7314 33.2417 91.3291C32.0581 91.9268 30.7808 92.2256 29.4097 92.2256C26.7495 92.2256 24.6401 91.3643 23.0815 89.6416C21.5229 87.9189 20.7437 85.54 20.7437 82.5049V82.0654C20.7437 79.1709 21.5171 76.8564 23.064 75.1221C24.6108 73.376 26.7202 72.5029 29.3921 72.5029C31.6538 72.5029 33.4937 73.165 34.9116 74.4893C36.3413 75.8018 37.0913 77.5303 37.1616 79.6748H33.1362C33.0894 78.585 32.7144 77.6885 32.0112 76.9854C31.3198 76.2822 30.4351 75.9307 29.3569 75.9307C27.9741 75.9307 26.9077 76.4346 26.1577 77.4424C25.4077 78.4385 25.0269 79.9561 25.0151 81.9951V82.6807C25.0151 84.7432 25.3843 86.2842 26.1226 87.3037C26.8726 88.3115 27.9507 88.8154 29.3569 88.8154ZM39.5874 82.1885C39.5874 80.3252 39.9565 78.6494 40.6948 77.1611C41.4331 75.6611 42.4702 74.5127 43.8062 73.7158C45.1421 72.9072 46.6772 72.5029 48.4116 72.5029C50.978 72.5029 53.0581 73.3291 54.6519 74.9814C56.2573 76.6338 57.1245 78.8252 57.2534 81.5557L57.271 82.5576C57.271 84.4326 56.9077 86.1084 56.1812 87.585C55.4663 89.0615 54.4351 90.2041 53.0874 91.0127C51.7515 91.8213 50.2046 92.2256 48.4468 92.2256C45.7632 92.2256 43.6128 91.335 41.9956 89.5537C40.3901 87.7607 39.5874 85.376 39.5874 82.3994V82.1885ZM43.8589 82.5576C43.8589 84.5146 44.2632 86.0498 45.0718 87.1631C45.8804 88.2646 47.0054 88.8154 48.4468 88.8154C49.8882 88.8154 51.0073 88.2529 51.8042 87.1279C52.6128 86.0029 53.0171 84.3564 53.0171 82.1885C53.0171 80.2666 52.6011 78.7432 51.769 77.6182C50.9487 76.4932 49.8296 75.9307 48.4116 75.9307C47.0171 75.9307 45.9097 76.4873 45.0894 77.6006C44.269 78.7021 43.8589 80.3545 43.8589 82.5576ZM64.8472 72.8545L64.9702 75.0518C66.3765 73.3525 68.2222 72.5029 70.5073 72.5029C74.4683 72.5029 76.4839 74.7705 76.5542 79.3057V91.874H72.2827V79.5518C72.2827 78.3447 72.019 77.4541 71.4917 76.8799C70.9761 76.2939 70.1265 76.001 68.9429 76.001C67.2202 76.001 65.937 76.7803 65.0933 78.3389V91.874H60.8218V72.8545H64.8472ZM91.5835 86.7061C91.5835 85.9443 91.2671 85.3643 90.6343 84.9658C90.0132 84.5674 88.9761 84.2158 87.5229 83.9111C86.0698 83.6064 84.8569 83.2197 83.8843 82.751C81.7515 81.7197 80.6851 80.2256 80.6851 78.2686C80.6851 76.6279 81.3765 75.2568 82.7593 74.1553C84.1421 73.0537 85.8999 72.5029 88.0327 72.5029C90.3062 72.5029 92.1401 73.0654 93.5347 74.1904C94.9409 75.3154 95.644 76.7744 95.644 78.5674H91.3726C91.3726 77.7471 91.0679 77.0674 90.4585 76.5283C89.8491 75.9775 89.0405 75.7021 88.0327 75.7021C87.0952 75.7021 86.3276 75.9189 85.73 76.3525C85.144 76.7861 84.8511 77.3662 84.8511 78.0928C84.8511 78.749 85.1265 79.2588 85.6772 79.6221C86.228 79.9854 87.3413 80.3545 89.0171 80.7295C90.6929 81.0928 92.0054 81.5322 92.9546 82.0479C93.9155 82.5518 94.6245 83.1611 95.0815 83.876C95.5503 84.5908 95.7847 85.458 95.7847 86.4775C95.7847 88.1885 95.0757 89.5771 93.6577 90.6436C92.2397 91.6982 90.3823 92.2256 88.0854 92.2256C86.5269 92.2256 85.1382 91.9443 83.9194 91.3818C82.7007 90.8193 81.7515 90.0459 81.0718 89.0615C80.3921 88.0771 80.0522 87.0166 80.0522 85.8799H84.2007C84.2593 86.8877 84.6401 87.667 85.3433 88.2178C86.0464 88.7568 86.978 89.0264 88.1382 89.0264C89.2632 89.0264 90.1187 88.8154 90.7046 88.3936C91.2905 87.96 91.5835 87.3975 91.5835 86.7061ZM104.873 68.2314V72.8545H108.23V76.0186H104.873V86.6357C104.873 87.3623 105.013 87.8896 105.294 88.2178C105.587 88.5342 106.103 88.6924 106.841 88.6924C107.333 88.6924 107.832 88.6338 108.335 88.5166V91.8213C107.363 92.0908 106.425 92.2256 105.523 92.2256C102.242 92.2256 100.601 90.415 100.601 86.7939V76.0186H97.4722V72.8545H100.601V68.2314H104.873ZM318.376 78.1631H303.224V74.6123H318.376V78.1631ZM318.376 85.6162H303.224V82.083H318.376V85.6162ZM332.035 81.4678C332.035 78.7607 332.398 76.1943 333.125 73.7686C333.851 71.3311 334.917 69.1572 336.324 67.2471C337.73 65.3252 339.218 63.9775 340.789 63.2041L341.632 65.7002C339.98 66.9541 338.638 68.8701 337.607 71.4482C336.587 74.0146 336.031 76.9561 335.937 80.2725L335.919 81.7842C335.919 85.335 336.417 88.5049 337.414 91.2939C338.421 94.0713 339.828 96.1865 341.632 97.6396L340.789 100.013C339.218 99.2393 337.724 97.8857 336.306 95.9521C334.9 94.0303 333.833 91.8623 333.107 89.4482C332.392 87.0225 332.035 84.3623 332.035 81.4678ZM352.759 81.749C352.759 84.3506 352.402 86.8643 351.687 89.29C350.972 91.7041 349.888 93.9014 348.435 95.8818C346.982 97.874 345.464 99.251 343.882 100.013L343.039 97.6396C344.796 96.2803 346.185 94.2061 347.205 91.417C348.236 88.6162 348.751 85.4229 348.751 81.8369V81.4326C348.751 78.1748 348.306 75.21 347.416 72.5381C346.525 69.8545 345.248 67.7041 343.583 66.0869L343.039 65.5947L343.882 63.2041C345.382 63.9307 346.835 65.2197 348.242 67.0713C349.648 68.9229 350.726 70.9971 351.476 73.2939C352.226 75.5791 352.648 77.9404 352.742 80.3779L352.759 81.749ZM381.693 78.1631H366.541V74.6123H381.693V78.1631ZM381.693 85.6162H366.541V82.083H381.693V85.6162ZM397.25 80.6943L386.386 76.7041V72.5029L401.574 79.042V82.4346L386.386 88.9736V84.7725L397.25 80.6943ZM216.898 129.374C217.695 129.374 218.31 129.603 218.744 130.06C219.177 130.505 219.394 131.067 219.394 131.747C219.394 132.415 219.177 132.972 218.744 133.417C218.31 133.851 217.695 134.067 216.898 134.067C216.136 134.067 215.533 133.851 215.087 133.417C214.642 132.983 214.419 132.427 214.419 131.747C214.419 131.067 214.636 130.505 215.07 130.06C215.503 129.603 216.113 129.374 216.898 129.374ZM364.449 123.468C364.449 120.761 364.812 118.194 365.539 115.769C366.265 113.331 367.332 111.157 368.738 109.247C370.144 107.325 371.632 105.978 373.203 105.204L374.046 107.7C372.394 108.954 371.052 110.87 370.021 113.448C369.001 116.015 368.445 118.956 368.351 122.272L368.333 123.784C368.333 127.335 368.832 130.505 369.828 133.294C370.835 136.071 372.242 138.187 374.046 139.64L373.203 142.013C371.632 141.239 370.138 139.886 368.72 137.952C367.314 136.03 366.248 133.862 365.521 131.448C364.806 129.022 364.449 126.362 364.449 123.468ZM579.166 123.749C579.166 126.351 578.808 128.864 578.093 131.29C577.378 133.704 576.294 135.901 574.841 137.882C573.388 139.874 571.871 141.251 570.289 142.013L569.445 139.64C571.203 138.28 572.591 136.206 573.611 133.417C574.642 130.616 575.158 127.423 575.158 123.837V123.433C575.158 120.175 574.712 117.21 573.822 114.538C572.931 111.854 571.654 109.704 569.99 108.087L569.445 107.595L570.289 105.204C571.789 105.931 573.242 107.22 574.648 109.071C576.054 110.923 577.132 112.997 577.882 115.294C578.632 117.579 579.054 119.94 579.148 122.378L579.166 123.749ZM608.099 120.163H592.947V116.612H608.099V120.163ZM608.099 127.616H592.947V124.083H608.099V127.616ZM628.244 120.163H613.091V116.612H628.244V120.163ZM628.244 127.616H613.091V124.083H628.244V127.616ZM648.388 120.163H633.236V116.612H648.388V120.163ZM648.388 127.616H633.236V124.083H648.388V127.616ZM79.2964 168.351C79.2964 166.792 79.4897 165.55 79.8765 164.624C80.2632 163.698 81.0249 162.685 82.1616 161.583C83.3101 160.47 84.0366 159.679 84.3413 159.21C84.8101 158.495 85.0444 157.722 85.0444 156.89C85.0444 155.788 84.769 154.95 84.2183 154.376C83.6792 153.79 82.8823 153.497 81.8276 153.497C80.8198 153.497 80.0054 153.784 79.3843 154.358C78.7749 154.921 78.4702 155.688 78.4702 156.661H74.1987C74.2222 154.587 74.9253 152.946 76.3081 151.739C77.7026 150.532 79.5425 149.929 81.8276 149.929C84.1831 149.929 86.0171 150.526 87.3296 151.722C88.6538 152.917 89.3159 154.587 89.3159 156.731C89.3159 158.642 88.4253 160.522 86.644 162.374L84.4819 164.501C83.7085 165.38 83.3101 166.663 83.2866 168.351H79.2964ZM78.9976 173.817C78.9976 173.126 79.2144 172.569 79.6479 172.147C80.0815 171.714 80.6675 171.497 81.4058 171.497C82.1558 171.497 82.7476 171.72 83.1812 172.165C83.6147 172.599 83.8315 173.149 83.8315 173.817C83.8315 174.462 83.6206 175.001 83.1987 175.435C82.7769 175.868 82.1792 176.085 81.4058 176.085C80.6323 176.085 80.0347 175.868 79.6128 175.435C79.2026 175.001 78.9976 174.462 78.9976 173.817ZM219.693 171.374C220.49 171.374 221.105 171.603 221.539 172.06C221.972 172.505 222.189 173.067 222.189 173.747C222.189 174.415 221.972 174.972 221.539 175.417C221.105 175.851 220.49 176.067 219.693 176.067C218.931 176.067 218.328 175.851 217.882 175.417C217.437 174.983 217.214 174.427 217.214 173.747C217.214 173.067 217.431 172.505 217.865 172.06C218.298 171.603 218.908 171.374 219.693 171.374ZM219.693 156.45C220.49 156.45 221.105 156.679 221.539 157.136C221.972 157.581 222.189 158.144 222.189 158.823C222.189 159.491 221.972 160.048 221.539 160.493C221.105 160.927 220.49 161.144 219.693 161.144C218.931 161.144 218.328 160.927 217.882 160.493C217.437 160.06 217.214 159.503 217.214 158.823C217.214 158.144 217.431 157.581 217.865 157.136C218.298 156.679 218.908 156.45 219.693 156.45Z" fill="black"/>
<path d="M141.189 91.874H136.742L125.333 73.7158V91.874H120.886V66.2803H125.333L136.777 84.5088V66.2803H141.189V91.874ZM157.396 91.874C157.208 91.5107 157.044 90.9189 156.904 90.0986C155.544 91.5166 153.88 92.2256 151.912 92.2256C150.001 92.2256 148.443 91.6807 147.236 90.5908C146.029 89.501 145.425 88.1533 145.425 86.5479C145.425 84.5205 146.175 82.9678 147.675 81.8896C149.187 80.7998 151.343 80.2549 154.144 80.2549H156.763V79.0068C156.763 78.0225 156.488 77.2373 155.937 76.6514C155.386 76.0537 154.548 75.7549 153.423 75.7549C152.451 75.7549 151.654 76.001 151.033 76.4932C150.412 76.9736 150.101 77.5889 150.101 78.3389H145.83C145.83 77.2959 146.175 76.3232 146.867 75.4209C147.558 74.5068 148.496 73.792 149.679 73.2764C150.875 72.7607 152.205 72.5029 153.669 72.5029C155.896 72.5029 157.671 73.0654 158.996 74.1904C160.32 75.3037 161 76.874 161.035 78.9014V87.4795C161.035 89.1904 161.275 90.5557 161.755 91.5752V91.874H157.396ZM152.703 88.7979C153.546 88.7979 154.337 88.5928 155.076 88.1826C155.826 87.7725 156.388 87.2217 156.763 86.5303V82.9443H154.46C152.878 82.9443 151.689 83.2197 150.892 83.7705C150.095 84.3213 149.697 85.1006 149.697 86.1084C149.697 86.9287 149.966 87.585 150.505 88.0771C151.056 88.5576 151.789 88.7979 152.703 88.7979ZM171.933 86.46L175.958 72.8545H180.371L173.779 91.874H170.07L163.425 72.8545H167.855L171.933 86.46ZM187.595 91.874H183.324V72.8545H187.595V91.874ZM183.06 67.915C183.06 67.2588 183.265 66.7139 183.675 66.2803C184.097 65.8467 184.695 65.6299 185.468 65.6299C186.242 65.6299 186.839 65.8467 187.261 66.2803C187.683 66.7139 187.894 67.2588 187.894 67.915C187.894 68.5596 187.683 69.0986 187.261 69.5322C186.839 69.9541 186.242 70.165 185.468 70.165C184.695 70.165 184.097 69.9541 183.675 69.5322C183.265 69.0986 183.06 68.5596 183.06 67.915ZM191.515 82.2236C191.515 79.2705 192.207 76.915 193.589 75.1572C194.984 73.3877 196.83 72.5029 199.126 72.5029C201.294 72.5029 203 73.2588 204.242 74.7705L204.435 72.8545H208.285V91.2939C208.285 93.79 207.505 95.7588 205.947 97.2002C204.4 98.6416 202.308 99.3623 199.671 99.3623C198.277 99.3623 196.912 99.0693 195.576 98.4834C194.251 97.9092 193.244 97.1533 192.552 96.2158L194.574 93.6494C195.886 95.208 197.503 95.9873 199.425 95.9873C200.843 95.9873 201.962 95.6006 202.783 94.8271C203.603 94.0654 204.013 92.9404 204.013 91.4521V90.1689C202.783 91.54 201.142 92.2256 199.091 92.2256C196.865 92.2256 195.042 91.3408 193.625 89.5713C192.218 87.8018 191.515 85.3525 191.515 82.2236ZM195.769 82.5928C195.769 84.5029 196.156 86.0088 196.929 87.1104C197.714 88.2002 198.798 88.7451 200.181 88.7451C201.904 88.7451 203.181 88.0068 204.013 86.5303V78.1631C203.205 76.7217 201.939 76.001 200.216 76.001C198.81 76.001 197.714 76.5576 196.929 77.6709C196.156 78.7842 195.769 80.4248 195.769 82.5928ZM224.052 91.874C223.865 91.5107 223.701 90.9189 223.56 90.0986C222.201 91.5166 220.537 92.2256 218.568 92.2256C216.658 92.2256 215.099 91.6807 213.892 90.5908C212.685 89.501 212.082 88.1533 212.082 86.5479C212.082 84.5205 212.832 82.9678 214.332 81.8896C215.843 80.7998 218 80.2549 220.8 80.2549H223.419V79.0068C223.419 78.0225 223.144 77.2373 222.593 76.6514C222.042 76.0537 221.205 75.7549 220.08 75.7549C219.107 75.7549 218.31 76.001 217.689 76.4932C217.068 76.9736 216.757 77.5889 216.757 78.3389H212.486C212.486 77.2959 212.832 76.3232 213.523 75.4209C214.214 74.5068 215.152 73.792 216.335 73.2764C217.531 72.7607 218.861 72.5029 220.326 72.5029C222.552 72.5029 224.328 73.0654 225.652 74.1904C226.976 75.3037 227.656 76.874 227.691 78.9014V87.4795C227.691 89.1904 227.931 90.5557 228.412 91.5752V91.874H224.052ZM219.359 88.7979C220.203 88.7979 220.994 88.5928 221.732 88.1826C222.482 87.7725 223.044 87.2217 223.419 86.5303V82.9443H221.117C219.535 82.9443 218.345 83.2197 217.548 83.7705C216.751 84.3213 216.353 85.1006 216.353 86.1084C216.353 86.9287 216.623 87.585 217.162 88.0771C217.712 88.5576 218.445 88.7979 219.359 88.7979ZM237.517 68.2314V72.8545H240.875V76.0186H237.517V86.6357C237.517 87.3623 237.658 87.8896 237.939 88.2178C238.232 88.5342 238.748 88.6924 239.486 88.6924C239.978 88.6924 240.476 88.6338 240.98 88.5166V91.8213C240.007 92.0908 239.07 92.2256 238.167 92.2256C234.886 92.2256 233.246 90.415 233.246 86.7939V76.0186H230.117V72.8545H233.246V68.2314H237.517ZM248.697 91.874H244.425V72.8545H248.697V91.874ZM244.162 67.915C244.162 67.2588 244.367 66.7139 244.777 66.2803C245.199 65.8467 245.796 65.6299 246.57 65.6299C247.343 65.6299 247.941 65.8467 248.363 66.2803C248.785 66.7139 248.996 67.2588 248.996 67.915C248.996 68.5596 248.785 69.0986 248.363 69.5322C247.941 69.9541 247.343 70.165 246.57 70.165C245.796 70.165 245.199 69.9541 244.777 69.5322C244.367 69.0986 244.162 68.5596 244.162 67.915ZM252.564 82.1885C252.564 80.3252 252.933 78.6494 253.671 77.1611C254.41 75.6611 255.447 74.5127 256.783 73.7158C258.119 72.9072 259.654 72.5029 261.388 72.5029C263.955 72.5029 266.035 73.3291 267.628 74.9814C269.234 76.6338 270.101 78.8252 270.23 81.5557L270.248 82.5576C270.248 84.4326 269.884 86.1084 269.158 87.585C268.443 89.0615 267.412 90.2041 266.064 91.0127C264.728 91.8213 263.181 92.2256 261.423 92.2256C258.74 92.2256 256.589 91.335 254.972 89.5537C253.367 87.7607 252.564 85.376 252.564 82.3994V82.1885ZM256.835 82.5576C256.835 84.5146 257.24 86.0498 258.048 87.1631C258.857 88.2646 259.982 88.8154 261.423 88.8154C262.865 88.8154 263.984 88.2529 264.781 87.1279C265.589 86.0029 265.994 84.3564 265.994 82.1885C265.994 80.2666 265.578 78.7432 264.746 77.6182C263.925 76.4932 262.806 75.9307 261.388 75.9307C259.994 75.9307 258.886 76.4873 258.066 77.6006C257.246 78.7021 256.835 80.3545 256.835 82.5576ZM277.824 72.8545L277.947 75.0518C279.353 73.3525 281.199 72.5029 283.484 72.5029C287.445 72.5029 289.46 74.7705 289.531 79.3057V91.874H285.259V79.5518C285.259 78.3447 284.996 77.4541 284.468 76.8799C283.953 76.2939 283.103 76.001 281.919 76.001C280.197 76.001 278.914 76.7803 278.07 78.3389V91.874H273.798V72.8545H277.824ZM122.521 175.874H118.074L106.666 157.716V175.874H102.218V150.28H106.666L118.109 168.509V150.28H122.521V175.874ZM138.728 175.874C138.541 175.511 138.376 174.919 138.236 174.099C136.876 175.517 135.212 176.226 133.244 176.226C131.333 176.226 129.775 175.681 128.568 174.591C127.361 173.501 126.757 172.153 126.757 170.548C126.757 168.521 127.507 166.968 129.007 165.89C130.519 164.8 132.675 164.255 135.476 164.255H138.095V163.007C138.095 162.022 137.82 161.237 137.269 160.651C136.718 160.054 135.88 159.755 134.755 159.755C133.783 159.755 132.986 160.001 132.365 160.493C131.744 160.974 131.433 161.589 131.433 162.339H127.162C127.162 161.296 127.507 160.323 128.199 159.421C128.89 158.507 129.828 157.792 131.011 157.276C132.207 156.761 133.537 156.503 135.001 156.503C137.228 156.503 139.003 157.065 140.328 158.19C141.652 159.304 142.332 160.874 142.367 162.901V171.479C142.367 173.19 142.607 174.556 143.087 175.575V175.874H138.728ZM134.035 172.798C134.878 172.798 135.669 172.593 136.408 172.183C137.158 171.772 137.72 171.222 138.095 170.53V166.944H135.792C134.21 166.944 133.021 167.22 132.224 167.771C131.427 168.321 131.029 169.101 131.029 170.108C131.029 170.929 131.298 171.585 131.837 172.077C132.388 172.558 133.121 172.798 134.035 172.798ZM153.265 170.46L157.291 156.854H161.703L155.111 175.874H151.402L144.757 156.854H149.187L153.265 170.46ZM173.814 170.302L180.318 150.28H185.205L175.994 175.874H171.687L162.511 150.28H167.38L173.814 170.302ZM204.628 175.874H187.419V172.938L195.945 163.64C197.175 162.269 198.048 161.126 198.564 160.212C199.091 159.286 199.355 158.36 199.355 157.435C199.355 156.216 199.009 155.231 198.318 154.481C197.638 153.731 196.718 153.356 195.558 153.356C194.175 153.356 193.103 153.778 192.341 154.622C191.58 155.466 191.199 156.62 191.199 158.085H186.927C186.927 156.526 187.279 155.126 187.982 153.884C188.697 152.63 189.71 151.657 191.023 150.966C192.347 150.274 193.871 149.929 195.593 149.929C198.078 149.929 200.035 150.556 201.464 151.81C202.906 153.052 203.626 154.774 203.626 156.978C203.626 158.255 203.263 159.597 202.537 161.003C201.822 162.397 200.644 163.985 199.003 165.767L192.746 172.464H204.628V175.874ZM240.505 172.323H252.125V175.874H236.058V150.28H240.505V172.323ZM263.498 176.226C260.791 176.226 258.593 175.376 256.906 173.677C255.23 171.966 254.392 169.692 254.392 166.856V166.329C254.392 164.431 254.755 162.737 255.482 161.249C256.22 159.749 257.251 158.583 258.576 157.751C259.9 156.919 261.376 156.503 263.005 156.503C265.595 156.503 267.593 157.329 269 158.981C270.417 160.634 271.126 162.972 271.126 165.995V167.718H258.699C258.828 169.288 259.349 170.53 260.263 171.444C261.189 172.358 262.349 172.815 263.744 172.815C265.701 172.815 267.294 172.024 268.525 170.442L270.828 172.64C270.066 173.776 269.046 174.661 267.769 175.294C266.503 175.915 265.08 176.226 263.498 176.226ZM262.988 159.931C261.816 159.931 260.867 160.341 260.14 161.161C259.425 161.981 258.968 163.124 258.769 164.589H266.908V164.272C266.814 162.843 266.433 161.765 265.765 161.038C265.097 160.3 264.171 159.931 262.988 159.931ZM273.71 166.224C273.71 163.271 274.402 160.915 275.785 159.157C277.179 157.388 279.025 156.503 281.322 156.503C283.49 156.503 285.195 157.259 286.437 158.771L286.63 156.854H290.48V175.294C290.48 177.79 289.701 179.759 288.142 181.2C286.595 182.642 284.503 183.362 281.867 183.362C280.472 183.362 279.107 183.069 277.771 182.483C276.447 181.909 275.439 181.153 274.748 180.216L276.769 177.649C278.082 179.208 279.699 179.987 281.621 179.987C283.039 179.987 284.158 179.601 284.978 178.827C285.798 178.065 286.208 176.94 286.208 175.452V174.169C284.978 175.54 283.337 176.226 281.287 176.226C279.06 176.226 277.238 175.341 275.82 173.571C274.414 171.802 273.71 169.353 273.71 166.224ZM277.964 166.593C277.964 168.503 278.351 170.009 279.125 171.11C279.91 172.2 280.994 172.745 282.376 172.745C284.099 172.745 285.376 172.007 286.208 170.53V162.163C285.4 160.722 284.134 160.001 282.412 160.001C281.005 160.001 279.91 160.558 279.125 161.671C278.351 162.784 277.964 164.425 277.964 166.593ZM306.248 175.874C306.06 175.511 305.896 174.919 305.755 174.099C304.396 175.517 302.732 176.226 300.763 176.226C298.853 176.226 297.294 175.681 296.087 174.591C294.88 173.501 294.277 172.153 294.277 170.548C294.277 168.521 295.027 166.968 296.527 165.89C298.039 164.8 300.195 164.255 302.996 164.255H305.615V163.007C305.615 162.022 305.339 161.237 304.789 160.651C304.238 160.054 303.4 159.755 302.275 159.755C301.302 159.755 300.505 160.001 299.884 160.493C299.263 160.974 298.953 161.589 298.953 162.339H294.681C294.681 161.296 295.027 160.323 295.718 159.421C296.41 158.507 297.347 157.792 298.531 157.276C299.726 156.761 301.056 156.503 302.521 156.503C304.748 156.503 306.523 157.065 307.847 158.19C309.171 159.304 309.851 160.874 309.886 162.901V171.479C309.886 173.19 310.126 174.556 310.607 175.575V175.874H306.248ZM301.554 172.798C302.398 172.798 303.189 172.593 303.927 172.183C304.677 171.772 305.24 171.222 305.615 170.53V166.944H303.312C301.73 166.944 300.541 167.22 299.744 167.771C298.947 168.321 298.548 169.101 298.548 170.108C298.548 170.929 298.818 171.585 299.357 172.077C299.908 172.558 300.64 172.798 301.554 172.798ZM322.173 172.815C323.24 172.815 324.125 172.505 324.828 171.884C325.531 171.263 325.906 170.495 325.953 169.581H329.978C329.931 170.765 329.562 171.872 328.871 172.903C328.179 173.923 327.242 174.731 326.058 175.329C324.875 175.927 323.597 176.226 322.226 176.226C319.566 176.226 317.457 175.364 315.898 173.642C314.339 171.919 313.56 169.54 313.56 166.505V166.065C313.56 163.171 314.333 160.856 315.88 159.122C317.427 157.376 319.537 156.503 322.208 156.503C324.47 156.503 326.31 157.165 327.728 158.489C329.158 159.802 329.908 161.53 329.978 163.675H325.953C325.906 162.585 325.531 161.688 324.828 160.985C324.136 160.282 323.251 159.931 322.173 159.931C320.791 159.931 319.724 160.435 318.974 161.442C318.224 162.438 317.843 163.956 317.832 165.995V166.681C317.832 168.743 318.201 170.284 318.939 171.304C319.689 172.312 320.767 172.815 322.173 172.815ZM339.857 169.757L343.724 156.854H348.277L340.718 178.757C339.558 181.956 337.589 183.556 334.812 183.556C334.191 183.556 333.505 183.45 332.755 183.239V179.935L333.564 179.987C334.642 179.987 335.451 179.788 335.99 179.39C336.541 179.003 336.974 178.347 337.291 177.421L337.906 175.786L331.226 156.854H335.832L339.857 169.757ZM371.462 175.874H367.015L355.607 157.716V175.874H351.16V150.28H355.607L367.05 168.509V150.28H371.462V175.874ZM387.669 175.874C387.482 175.511 387.318 174.919 387.177 174.099C385.818 175.517 384.154 176.226 382.185 176.226C380.275 176.226 378.716 175.681 377.509 174.591C376.302 173.501 375.699 172.153 375.699 170.548C375.699 168.521 376.449 166.968 377.949 165.89C379.46 164.8 381.617 164.255 384.417 164.255H387.037V163.007C387.037 162.022 386.761 161.237 386.21 160.651C385.66 160.054 384.822 159.755 383.697 159.755C382.724 159.755 381.927 160.001 381.306 160.493C380.685 160.974 380.375 161.589 380.375 162.339H376.103C376.103 161.296 376.449 160.323 377.14 159.421C377.832 158.507 378.769 157.792 379.953 157.276C381.148 156.761 382.478 156.503 383.943 156.503C386.169 156.503 387.945 157.065 389.269 158.19C390.593 159.304 391.273 160.874 391.308 162.901V171.479C391.308 173.19 391.548 174.556 392.029 175.575V175.874H387.669ZM382.976 172.798C383.82 172.798 384.611 172.593 385.349 172.183C386.099 171.772 386.662 171.222 387.037 170.53V166.944H384.734C383.152 166.944 381.962 167.22 381.166 167.771C380.369 168.321 379.97 169.101 379.97 170.108C379.97 170.929 380.24 171.585 380.779 172.077C381.33 172.558 382.062 172.798 382.976 172.798ZM402.207 170.46L406.232 156.854H410.644L404.052 175.874H400.343L393.699 156.854H398.128L402.207 170.46ZM277.033 259.874H272.585L261.177 241.716V259.874H256.73V234.28H261.177L272.621 252.509V234.28H277.033V259.874ZM293.24 259.874C293.052 259.511 292.888 258.919 292.748 258.099C291.388 259.517 289.724 260.226 287.755 260.226C285.845 260.226 284.287 259.681 283.08 258.591C281.873 257.501 281.269 256.153 281.269 254.548C281.269 252.521 282.019 250.968 283.519 249.89C285.031 248.8 287.187 248.255 289.988 248.255H292.607V247.007C292.607 246.022 292.332 245.237 291.781 244.651C291.23 244.054 290.392 243.755 289.267 243.755C288.294 243.755 287.498 244.001 286.876 244.493C286.255 244.974 285.945 245.589 285.945 246.339H281.673C281.673 245.296 282.019 244.323 282.71 243.421C283.402 242.507 284.339 241.792 285.523 241.276C286.718 240.761 288.048 240.503 289.513 240.503C291.74 240.503 293.515 241.065 294.839 242.19C296.164 243.304 296.843 244.874 296.878 246.901V255.479C296.878 257.19 297.119 258.556 297.599 259.575V259.874H293.24ZM288.546 256.798C289.39 256.798 290.181 256.593 290.919 256.183C291.669 255.772 292.232 255.222 292.607 254.53V250.944H290.304C288.722 250.944 287.533 251.22 286.736 251.771C285.939 252.321 285.541 253.101 285.541 254.108C285.541 254.929 285.81 255.585 286.349 256.077C286.9 256.558 287.632 256.798 288.546 256.798ZM307.777 254.46L311.802 240.854H316.214L309.623 259.874H305.914L299.269 240.854H303.699L307.777 254.46ZM323.439 259.874H319.167V240.854H323.439V259.874ZM318.904 235.915C318.904 235.259 319.109 234.714 319.519 234.28C319.941 233.847 320.539 233.63 321.312 233.63C322.085 233.63 322.683 233.847 323.105 234.28C323.527 234.714 323.738 235.259 323.738 235.915C323.738 236.56 323.527 237.099 323.105 237.532C322.683 237.954 322.085 238.165 321.312 238.165C320.539 238.165 319.941 237.954 319.519 237.532C319.109 237.099 318.904 236.56 318.904 235.915ZM327.359 250.224C327.359 247.271 328.05 244.915 329.433 243.157C330.828 241.388 332.673 240.503 334.97 240.503C337.138 240.503 338.843 241.259 340.085 242.771L340.279 240.854H344.128V259.294C344.128 261.79 343.349 263.759 341.791 265.2C340.244 266.642 338.152 267.362 335.515 267.362C334.121 267.362 332.755 267.069 331.419 266.483C330.095 265.909 329.087 265.153 328.396 264.216L330.417 261.649C331.73 263.208 333.347 263.987 335.269 263.987C336.687 263.987 337.806 263.601 338.626 262.827C339.447 262.065 339.857 260.94 339.857 259.452V258.169C338.626 259.54 336.986 260.226 334.935 260.226C332.708 260.226 330.886 259.341 329.468 257.571C328.062 255.802 327.359 253.353 327.359 250.224ZM331.613 250.593C331.613 252.503 332 254.009 332.773 255.11C333.558 256.2 334.642 256.745 336.025 256.745C337.748 256.745 339.025 256.007 339.857 254.53V246.163C339.048 244.722 337.783 244.001 336.06 244.001C334.654 244.001 333.558 244.558 332.773 245.671C332 246.784 331.613 248.425 331.613 250.593ZM359.896 259.874C359.708 259.511 359.544 258.919 359.404 258.099C358.044 259.517 356.38 260.226 354.412 260.226C352.501 260.226 350.943 259.681 349.736 258.591C348.529 257.501 347.925 256.153 347.925 254.548C347.925 252.521 348.675 250.968 350.175 249.89C351.687 248.8 353.843 248.255 356.644 248.255H359.263V247.007C359.263 246.022 358.988 245.237 358.437 244.651C357.886 244.054 357.048 243.755 355.923 243.755C354.951 243.755 354.154 244.001 353.533 244.493C352.912 244.974 352.601 245.589 352.601 246.339H348.33C348.33 245.296 348.675 244.323 349.367 243.421C350.058 242.507 350.996 241.792 352.179 241.276C353.375 240.761 354.705 240.503 356.169 240.503C358.396 240.503 360.171 241.065 361.496 242.19C362.82 243.304 363.5 244.874 363.535 246.901V255.479C363.535 257.19 363.775 258.556 364.255 259.575V259.874H359.896ZM355.203 256.798C356.046 256.798 356.837 256.593 357.576 256.183C358.326 255.772 358.888 255.222 359.263 254.53V250.944H356.96C355.378 250.944 354.189 251.22 353.392 251.771C352.595 252.321 352.197 253.101 352.197 254.108C352.197 254.929 352.466 255.585 353.005 256.077C353.556 256.558 354.289 256.798 355.203 256.798ZM373.361 236.231V240.854H376.718V244.019H373.361V254.636C373.361 255.362 373.501 255.89 373.783 256.218C374.076 256.534 374.591 256.692 375.33 256.692C375.822 256.692 376.32 256.634 376.824 256.517V259.821C375.851 260.091 374.914 260.226 374.011 260.226C370.73 260.226 369.089 258.415 369.089 254.794V244.019H365.96V240.854H369.089V236.231H373.361ZM384.541 259.874H380.269V240.854H384.541V259.874ZM380.005 235.915C380.005 235.259 380.21 234.714 380.621 234.28C381.042 233.847 381.64 233.63 382.414 233.63C383.187 233.63 383.785 233.847 384.207 234.28C384.628 234.714 384.839 235.259 384.839 235.915C384.839 236.56 384.628 237.099 384.207 237.532C383.785 237.954 383.187 238.165 382.414 238.165C381.64 238.165 381.042 237.954 380.621 237.532C380.21 237.099 380.005 236.56 380.005 235.915ZM388.408 250.188C388.408 248.325 388.777 246.649 389.515 245.161C390.253 243.661 391.291 242.513 392.626 241.716C393.962 240.907 395.498 240.503 397.232 240.503C399.798 240.503 401.878 241.329 403.472 242.981C405.078 244.634 405.945 246.825 406.074 249.556L406.091 250.558C406.091 252.433 405.728 254.108 405.001 255.585C404.287 257.062 403.255 258.204 401.908 259.013C400.572 259.821 399.025 260.226 397.267 260.226C394.583 260.226 392.433 259.335 390.816 257.554C389.21 255.761 388.408 253.376 388.408 250.399V250.188ZM392.679 250.558C392.679 252.515 393.083 254.05 393.892 255.163C394.701 256.265 395.826 256.815 397.267 256.815C398.708 256.815 399.828 256.253 400.625 255.128C401.433 254.003 401.837 252.356 401.837 250.188C401.837 248.267 401.421 246.743 400.589 245.618C399.769 244.493 398.65 243.931 397.232 243.931C395.837 243.931 394.73 244.487 393.91 245.601C393.089 246.702 392.679 248.354 392.679 250.558ZM413.667 240.854L413.791 243.052C415.197 241.353 417.042 240.503 419.328 240.503C423.289 240.503 425.304 242.771 425.375 247.306V259.874H421.103V247.552C421.103 246.345 420.839 245.454 420.312 244.88C419.796 244.294 418.947 244.001 417.763 244.001C416.041 244.001 414.757 244.78 413.914 246.339V259.874H409.642V240.854H413.667Z" fill="#298888"/>
<path d="M87.646 110.267C86.4507 110.103 85.4194 110.021 84.5522 110.021C82.2554 110.021 81.1069 111.099 81.1069 113.255V114.854H84.9741V118.019H81.1069V133.874H76.8354V118.019H73.9351V114.854H76.8354V113.149C76.8472 111.005 77.48 109.364 78.7339 108.228C79.9995 107.079 81.7808 106.505 84.0776 106.505C85.5073 106.505 88.1206 106.786 91.9175 107.349V133.874H87.646V110.267ZM108.001 133.874C107.814 133.511 107.65 132.919 107.509 132.099C106.15 133.517 104.486 134.226 102.517 134.226C100.607 134.226 99.0483 133.681 97.8413 132.591C96.6343 131.501 96.0308 130.153 96.0308 128.548C96.0308 126.521 96.7808 124.968 98.2808 123.89C99.7925 122.8 101.949 122.255 104.75 122.255H107.369V121.007C107.369 120.022 107.093 119.237 106.542 118.651C105.992 118.054 105.154 117.755 104.029 117.755C103.056 117.755 102.259 118.001 101.638 118.493C101.017 118.974 100.707 119.589 100.707 120.339H96.4351C96.4351 119.296 96.7808 118.323 97.4722 117.421C98.1636 116.507 99.1011 115.792 100.285 115.276C101.48 114.761 102.81 114.503 104.275 114.503C106.501 114.503 108.277 115.065 109.601 116.19C110.925 117.304 111.605 118.874 111.64 120.901V129.479C111.64 131.19 111.88 132.556 112.361 133.575V133.874H108.001ZM103.308 130.798C104.152 130.798 104.943 130.593 105.681 130.183C106.431 129.772 106.994 129.222 107.369 128.53V124.944H105.066C103.484 124.944 102.294 125.22 101.498 125.771C100.701 126.321 100.302 127.101 100.302 128.108C100.302 128.929 100.572 129.585 101.111 130.077C101.662 130.558 102.394 130.798 103.308 130.798ZM115.367 124.224C115.367 121.271 116.058 118.915 117.441 117.157C118.835 115.388 120.681 114.503 122.978 114.503C125.146 114.503 126.851 115.259 128.093 116.771L128.287 114.854H132.136V133.294C132.136 135.79 131.357 137.759 129.798 139.2C128.251 140.642 126.16 141.362 123.523 141.362C122.128 141.362 120.763 141.069 119.427 140.483C118.103 139.909 117.095 139.153 116.404 138.216L118.425 135.649C119.738 137.208 121.355 137.987 123.277 137.987C124.695 137.987 125.814 137.601 126.634 136.827C127.455 136.065 127.865 134.94 127.865 133.452V132.169C126.634 133.54 124.994 134.226 122.943 134.226C120.716 134.226 118.894 133.341 117.476 131.571C116.07 129.802 115.367 127.353 115.367 124.224ZM119.621 124.593C119.621 126.503 120.007 128.009 120.781 129.11C121.566 130.2 122.65 130.745 124.033 130.745C125.755 130.745 127.033 130.007 127.865 128.53V120.163C127.056 118.722 125.791 118.001 124.068 118.001C122.662 118.001 121.566 118.558 120.781 119.671C120.007 120.784 119.621 122.425 119.621 124.593ZM153.23 124.558C153.23 127.511 152.568 129.86 151.244 131.606C149.931 133.353 148.121 134.226 145.812 134.226C143.585 134.226 141.851 133.423 140.609 131.817L140.398 133.874H136.531V106.874H140.802V116.683C142.033 115.229 143.691 114.503 145.777 114.503C148.097 114.503 149.919 115.364 151.244 117.087C152.568 118.81 153.23 121.218 153.23 124.312V124.558ZM148.958 124.188C148.958 122.126 148.595 120.579 147.869 119.548C147.142 118.517 146.087 118.001 144.705 118.001C142.853 118.001 141.552 118.81 140.802 120.427V128.267C141.564 129.919 142.876 130.745 144.74 130.745C146.076 130.745 147.107 130.247 147.833 129.251C148.56 128.255 148.935 126.749 148.958 124.733V124.188ZM168.189 133.874C168.001 133.511 167.837 132.919 167.697 132.099C166.337 133.517 164.673 134.226 162.705 134.226C160.794 134.226 159.236 133.681 158.029 132.591C156.822 131.501 156.218 130.153 156.218 128.548C156.218 126.521 156.968 124.968 158.468 123.89C159.98 122.8 162.136 122.255 164.937 122.255H167.556V121.007C167.556 120.022 167.281 119.237 166.73 118.651C166.179 118.054 165.341 117.755 164.216 117.755C163.244 117.755 162.447 118.001 161.826 118.493C161.205 118.974 160.894 119.589 160.894 120.339H156.623C156.623 119.296 156.968 118.323 157.66 117.421C158.351 116.507 159.289 115.792 160.472 115.276C161.667 114.761 162.998 114.503 164.462 114.503C166.689 114.503 168.464 115.065 169.789 116.19C171.113 117.304 171.792 118.874 171.828 120.901V129.479C171.828 131.19 172.068 132.556 172.548 133.575V133.874H168.189ZM163.496 130.798C164.339 130.798 165.13 130.593 165.869 130.183C166.619 129.772 167.181 129.222 167.556 128.53V124.944H165.253C163.671 124.944 162.482 125.22 161.685 125.771C160.888 126.321 160.49 127.101 160.49 128.108C160.49 128.929 160.759 129.585 161.298 130.077C161.849 130.558 162.582 130.798 163.496 130.798ZM186.962 128.706C186.962 127.944 186.646 127.364 186.013 126.966C185.392 126.567 184.355 126.216 182.902 125.911C181.449 125.606 180.236 125.22 179.263 124.751C177.13 123.72 176.064 122.226 176.064 120.269C176.064 118.628 176.755 117.257 178.138 116.155C179.521 115.054 181.279 114.503 183.412 114.503C185.685 114.503 187.519 115.065 188.914 116.19C190.32 117.315 191.023 118.774 191.023 120.567H186.751C186.751 119.747 186.447 119.067 185.837 118.528C185.228 117.978 184.419 117.702 183.412 117.702C182.474 117.702 181.707 117.919 181.109 118.353C180.523 118.786 180.23 119.366 180.23 120.093C180.23 120.749 180.505 121.259 181.056 121.622C181.607 121.985 182.72 122.354 184.396 122.729C186.072 123.093 187.384 123.532 188.333 124.048C189.294 124.552 190.003 125.161 190.46 125.876C190.929 126.591 191.164 127.458 191.164 128.478C191.164 130.188 190.455 131.577 189.037 132.644C187.619 133.698 185.761 134.226 183.464 134.226C181.906 134.226 180.517 133.944 179.298 133.382C178.08 132.819 177.13 132.046 176.451 131.062C175.771 130.077 175.431 129.017 175.431 127.88H179.58C179.638 128.888 180.019 129.667 180.722 130.218C181.425 130.757 182.357 131.026 183.517 131.026C184.642 131.026 185.498 130.815 186.083 130.394C186.669 129.96 186.962 129.397 186.962 128.706ZM203.275 134.226C200.568 134.226 198.371 133.376 196.683 131.677C195.007 129.966 194.169 127.692 194.169 124.856V124.329C194.169 122.431 194.533 120.737 195.259 119.249C195.998 117.749 197.029 116.583 198.353 115.751C199.677 114.919 201.154 114.503 202.783 114.503C205.373 114.503 207.371 115.329 208.777 116.981C210.195 118.634 210.904 120.972 210.904 123.995V125.718H198.476C198.605 127.288 199.126 128.53 200.041 129.444C200.966 130.358 202.126 130.815 203.521 130.815C205.478 130.815 207.072 130.024 208.302 128.442L210.605 130.64C209.843 131.776 208.824 132.661 207.546 133.294C206.281 133.915 204.857 134.226 203.275 134.226ZM202.765 117.931C201.593 117.931 200.644 118.341 199.917 119.161C199.203 119.981 198.746 121.124 198.546 122.589H206.685V122.272C206.591 120.843 206.21 119.765 205.542 119.038C204.875 118.3 203.949 117.931 202.765 117.931ZM230.996 128.46L235.021 114.854H239.433L232.841 133.874H229.132L222.488 114.854H226.917L230.996 128.46ZM253.197 133.874C253.009 133.511 252.845 132.919 252.705 132.099C251.345 133.517 249.681 134.226 247.712 134.226C245.802 134.226 244.244 133.681 243.037 132.591C241.83 131.501 241.226 130.153 241.226 128.548C241.226 126.521 241.976 124.968 243.476 123.89C244.988 122.8 247.144 122.255 249.945 122.255H252.564V121.007C252.564 120.022 252.289 119.237 251.738 118.651C251.187 118.054 250.349 117.755 249.224 117.755C248.251 117.755 247.455 118.001 246.833 118.493C246.212 118.974 245.902 119.589 245.902 120.339H241.63C241.63 119.296 241.976 118.323 242.667 117.421C243.359 116.507 244.296 115.792 245.48 115.276C246.675 114.761 248.005 114.503 249.47 114.503C251.697 114.503 253.472 115.065 254.796 116.19C256.121 117.304 256.8 118.874 256.835 120.901V129.479C256.835 131.19 257.076 132.556 257.556 133.575V133.874H253.197ZM248.503 130.798C249.347 130.798 250.138 130.593 250.876 130.183C251.626 129.772 252.189 129.222 252.564 128.53V124.944H250.261C248.679 124.944 247.49 125.22 246.693 125.771C245.896 126.321 245.498 127.101 245.498 128.108C245.498 128.929 245.767 129.585 246.306 130.077C246.857 130.558 247.589 130.798 248.503 130.798ZM271.267 118.757C270.705 118.663 270.125 118.616 269.527 118.616C267.57 118.616 266.251 119.366 265.572 120.866V133.874H261.3V114.854H265.378L265.484 116.981C266.515 115.329 267.945 114.503 269.773 114.503C270.382 114.503 270.886 114.585 271.285 114.749L271.267 118.757ZM278.509 133.874H274.238V114.854H278.509V133.874ZM273.974 109.915C273.974 109.259 274.179 108.714 274.589 108.28C275.011 107.847 275.609 107.63 276.382 107.63C277.156 107.63 277.753 107.847 278.175 108.28C278.597 108.714 278.808 109.259 278.808 109.915C278.808 110.56 278.597 111.099 278.175 111.532C277.753 111.954 277.156 112.165 276.382 112.165C275.609 112.165 275.011 111.954 274.589 111.532C274.179 111.099 273.974 110.56 273.974 109.915ZM294.541 133.874C294.353 133.511 294.189 132.919 294.048 132.099C292.689 133.517 291.025 134.226 289.056 134.226C287.146 134.226 285.587 133.681 284.38 132.591C283.173 131.501 282.57 130.153 282.57 128.548C282.57 126.521 283.32 124.968 284.82 123.89C286.332 122.8 288.488 122.255 291.289 122.255H293.908V121.007C293.908 120.022 293.632 119.237 293.082 118.651C292.531 118.054 291.693 117.755 290.568 117.755C289.595 117.755 288.798 118.001 288.177 118.493C287.556 118.974 287.246 119.589 287.246 120.339H282.974C282.974 119.296 283.32 118.323 284.011 117.421C284.703 116.507 285.64 115.792 286.824 115.276C288.019 114.761 289.349 114.503 290.814 114.503C293.041 114.503 294.816 115.065 296.14 116.19C297.464 117.304 298.144 118.874 298.179 120.901V129.479C298.179 131.19 298.419 132.556 298.9 133.575V133.874H294.541ZM289.847 130.798C290.691 130.798 291.482 130.593 292.22 130.183C292.97 129.772 293.533 129.222 293.908 128.53V124.944H291.605C290.023 124.944 288.833 125.22 288.037 125.771C287.24 126.321 286.841 127.101 286.841 128.108C286.841 128.929 287.111 129.585 287.65 130.077C288.201 130.558 288.933 130.798 289.847 130.798ZM308.005 110.231V114.854H311.363V118.019H308.005V128.636C308.005 129.362 308.146 129.89 308.427 130.218C308.72 130.534 309.236 130.692 309.974 130.692C310.466 130.692 310.964 130.634 311.468 130.517V133.821C310.496 134.091 309.558 134.226 308.656 134.226C305.375 134.226 303.734 132.415 303.734 128.794V118.019H300.605V114.854H303.734V110.231H308.005ZM319.185 133.874H314.914V114.854H319.185V133.874ZM314.65 109.915C314.65 109.259 314.855 108.714 315.265 108.28C315.687 107.847 316.285 107.63 317.058 107.63C317.832 107.63 318.429 107.847 318.851 108.28C319.273 108.714 319.484 109.259 319.484 109.915C319.484 110.56 319.273 111.099 318.851 111.532C318.429 111.954 317.832 112.165 317.058 112.165C316.285 112.165 315.687 111.954 315.265 111.532C314.855 111.099 314.65 110.56 314.65 109.915ZM323.052 124.188C323.052 122.325 323.421 120.649 324.16 119.161C324.898 117.661 325.935 116.513 327.271 115.716C328.607 114.907 330.142 114.503 331.876 114.503C334.443 114.503 336.523 115.329 338.117 116.981C339.722 118.634 340.589 120.825 340.718 123.556L340.736 124.558C340.736 126.433 340.373 128.108 339.646 129.585C338.931 131.062 337.9 132.204 336.552 133.013C335.216 133.821 333.669 134.226 331.912 134.226C329.228 134.226 327.078 133.335 325.46 131.554C323.855 129.761 323.052 127.376 323.052 124.399V124.188ZM327.324 124.558C327.324 126.515 327.728 128.05 328.537 129.163C329.345 130.265 330.47 130.815 331.912 130.815C333.353 130.815 334.472 130.253 335.269 129.128C336.078 128.003 336.482 126.356 336.482 124.188C336.482 122.267 336.066 120.743 335.234 119.618C334.414 118.493 333.294 117.931 331.876 117.931C330.482 117.931 329.375 118.487 328.554 119.601C327.734 120.702 327.324 122.354 327.324 124.558ZM348.312 114.854L348.435 117.052C349.841 115.353 351.687 114.503 353.972 114.503C357.933 114.503 359.949 116.771 360.019 121.306V133.874H355.748V121.552C355.748 120.345 355.484 119.454 354.957 118.88C354.441 118.294 353.591 118.001 352.408 118.001C350.685 118.001 349.402 118.78 348.558 120.339V133.874H344.287V114.854H348.312Z" fill="#1356A5"/>
<path d="M379.865 106.417L382.044 107.771C380.978 109.329 380.427 110.952 380.392 112.64V115.312H376.648V112.886C376.66 111.761 376.964 110.589 377.562 109.37C378.171 108.14 378.939 107.155 379.865 106.417ZM385.771 106.417L387.951 107.771C386.884 109.329 386.333 110.952 386.298 112.64V115.312H382.554V112.886C382.566 111.761 382.871 110.589 383.468 109.37C384.078 108.14 384.845 107.155 385.771 106.417ZM394.402 114.854L394.525 117.052C395.931 115.353 397.777 114.503 400.062 114.503C404.023 114.503 406.039 116.771 406.109 121.306V133.874H401.837V121.552C401.837 120.345 401.574 119.454 401.046 118.88C400.531 118.294 399.681 118.001 398.498 118.001C396.775 118.001 395.492 118.78 394.648 120.339V133.874H390.376V114.854H394.402ZM421.841 133.874C421.654 133.511 421.49 132.919 421.349 132.099C419.99 133.517 418.326 134.226 416.357 134.226C414.447 134.226 412.888 133.681 411.681 132.591C410.474 131.501 409.871 130.153 409.871 128.548C409.871 126.521 410.621 124.968 412.121 123.89C413.632 122.8 415.789 122.255 418.589 122.255H421.208V121.007C421.208 120.022 420.933 119.237 420.382 118.651C419.832 118.054 418.994 117.755 417.869 117.755C416.896 117.755 416.099 118.001 415.478 118.493C414.857 118.974 414.546 119.589 414.546 120.339H410.275C410.275 119.296 410.621 118.323 411.312 117.421C412.003 116.507 412.941 115.792 414.125 115.276C415.32 114.761 416.65 114.503 418.115 114.503C420.341 114.503 422.117 115.065 423.441 116.19C424.765 117.304 425.445 118.874 425.48 120.901V129.479C425.48 131.19 425.72 132.556 426.201 133.575V133.874H421.841ZM417.148 130.798C417.992 130.798 418.783 130.593 419.521 130.183C420.271 129.772 420.833 129.222 421.208 128.53V124.944H418.906C417.324 124.944 416.134 125.22 415.337 125.771C414.541 126.321 414.142 127.101 414.142 128.108C414.142 128.929 414.412 129.585 414.951 130.077C415.501 130.558 416.234 130.798 417.148 130.798ZM436.378 128.46L440.404 114.854H444.816L438.224 133.874H434.515L427.871 114.854H432.3L436.378 128.46ZM452.041 133.874H447.769V114.854H452.041V133.874ZM447.505 109.915C447.505 109.259 447.71 108.714 448.121 108.28C448.542 107.847 449.14 107.63 449.914 107.63C450.687 107.63 451.285 107.847 451.707 108.28C452.128 108.714 452.339 109.259 452.339 109.915C452.339 110.56 452.128 111.099 451.707 111.532C451.285 111.954 450.687 112.165 449.914 112.165C449.14 112.165 448.542 111.954 448.121 111.532C447.71 111.099 447.505 110.56 447.505 109.915ZM455.96 124.224C455.96 121.271 456.652 118.915 458.035 117.157C459.429 115.388 461.275 114.503 463.572 114.503C465.74 114.503 467.445 115.259 468.687 116.771L468.88 114.854H472.73V133.294C472.73 135.79 471.951 137.759 470.392 139.2C468.845 140.642 466.753 141.362 464.117 141.362C462.722 141.362 461.357 141.069 460.021 140.483C458.697 139.909 457.689 139.153 456.998 138.216L459.019 135.649C460.332 137.208 461.949 137.987 463.871 137.987C465.289 137.987 466.408 137.601 467.228 136.827C468.048 136.065 468.458 134.94 468.458 133.452V132.169C467.228 133.54 465.587 134.226 463.537 134.226C461.31 134.226 459.488 133.341 458.07 131.571C456.664 129.802 455.96 127.353 455.96 124.224ZM460.214 124.593C460.214 126.503 460.601 128.009 461.375 129.11C462.16 130.2 463.244 130.745 464.626 130.745C466.349 130.745 467.626 130.007 468.458 128.53V120.163C467.65 118.722 466.384 118.001 464.662 118.001C463.255 118.001 462.16 118.558 461.375 119.671C460.601 120.784 460.214 122.425 460.214 124.593ZM488.498 133.874C488.31 133.511 488.146 132.919 488.005 132.099C486.646 133.517 484.982 134.226 483.013 134.226C481.103 134.226 479.544 133.681 478.337 132.591C477.13 131.501 476.527 130.153 476.527 128.548C476.527 126.521 477.277 124.968 478.777 123.89C480.289 122.8 482.445 122.255 485.246 122.255H487.865V121.007C487.865 120.022 487.589 119.237 487.039 118.651C486.488 118.054 485.65 117.755 484.525 117.755C483.552 117.755 482.755 118.001 482.134 118.493C481.513 118.974 481.203 119.589 481.203 120.339H476.931C476.931 119.296 477.277 118.323 477.968 117.421C478.66 116.507 479.597 115.792 480.781 115.276C481.976 114.761 483.306 114.503 484.771 114.503C486.998 114.503 488.773 115.065 490.097 116.19C491.421 117.304 492.101 118.874 492.136 120.901V129.479C492.136 131.19 492.376 132.556 492.857 133.575V133.874H488.498ZM483.804 130.798C484.648 130.798 485.439 130.593 486.177 130.183C486.927 129.772 487.49 129.222 487.865 128.53V124.944H485.562C483.98 124.944 482.791 125.22 481.994 125.771C481.197 126.321 480.798 127.101 480.798 128.108C480.798 128.929 481.068 129.585 481.607 130.077C482.158 130.558 482.89 130.798 483.804 130.798ZM501.962 110.231V114.854H505.32V118.019H501.962V128.636C501.962 129.362 502.103 129.89 502.384 130.218C502.677 130.534 503.193 130.692 503.931 130.692C504.423 130.692 504.921 130.634 505.425 130.517V133.821C504.453 134.091 503.515 134.226 502.613 134.226C499.332 134.226 497.691 132.415 497.691 128.794V118.019H494.562V114.854H497.691V110.231H501.962ZM513.142 133.874H508.871V114.854H513.142V133.874ZM508.607 109.915C508.607 109.259 508.812 108.714 509.222 108.28C509.644 107.847 510.242 107.63 511.015 107.63C511.789 107.63 512.386 107.847 512.808 108.28C513.23 108.714 513.441 109.259 513.441 109.915C513.441 110.56 513.23 111.099 512.808 111.532C512.386 111.954 511.789 112.165 511.015 112.165C510.242 112.165 509.644 111.954 509.222 111.532C508.812 111.099 508.607 110.56 508.607 109.915ZM517.009 124.188C517.009 122.325 517.378 120.649 518.117 119.161C518.855 117.661 519.892 116.513 521.228 115.716C522.564 114.907 524.099 114.503 525.833 114.503C528.4 114.503 530.48 115.329 532.074 116.981C533.679 118.634 534.546 120.825 534.675 123.556L534.693 124.558C534.693 126.433 534.33 128.108 533.603 129.585C532.888 131.062 531.857 132.204 530.509 133.013C529.173 133.821 527.626 134.226 525.869 134.226C523.185 134.226 521.035 133.335 519.417 131.554C517.812 129.761 517.009 127.376 517.009 124.399V124.188ZM521.281 124.558C521.281 126.515 521.685 128.05 522.494 129.163C523.302 130.265 524.427 130.815 525.869 130.815C527.31 130.815 528.429 130.253 529.226 129.128C530.035 128.003 530.439 126.356 530.439 124.188C530.439 122.267 530.023 120.743 529.191 119.618C528.371 118.493 527.251 117.931 525.833 117.931C524.439 117.931 523.332 118.487 522.511 119.601C521.691 120.702 521.281 122.354 521.281 124.558ZM542.269 114.854L542.392 117.052C543.798 115.353 545.644 114.503 547.929 114.503C551.89 114.503 553.906 116.771 553.976 121.306V133.874H549.705V121.552C549.705 120.345 549.441 119.454 548.914 118.88C548.398 118.294 547.548 118.001 546.365 118.001C544.642 118.001 543.359 118.78 542.515 120.339V133.874H538.244V114.854H542.269ZM558.054 115.874L555.875 114.521C556.929 112.985 557.474 111.362 557.509 109.651V106.874H561.253V109.3C561.253 110.507 560.943 111.726 560.322 112.956C559.712 114.175 558.957 115.147 558.054 115.874ZM563.925 115.874L561.746 114.521C562.8 112.985 563.345 111.362 563.38 109.651V106.874H567.125V109.3C567.125 110.507 566.814 111.726 566.193 112.956C565.583 114.175 564.828 115.147 563.925 115.874Z" fill="#548942"/>
<path d="M664.912 106.417L667.091 107.771C666.025 109.329 665.474 110.952 665.439 112.64V115.312H661.695V112.886C661.707 111.761 662.011 110.589 662.609 109.37C663.218 108.14 663.986 107.155 664.912 106.417ZM670.818 106.417L672.998 107.771C671.931 109.329 671.38 110.952 671.345 112.64V115.312H667.601V112.886C667.613 111.761 667.917 110.589 668.515 109.37C669.125 108.14 669.892 107.155 670.818 106.417ZM681.189 110.231V114.854H684.546V118.019H681.189V128.636C681.189 129.362 681.33 129.89 681.611 130.218C681.904 130.534 682.419 130.692 683.158 130.692C683.65 130.692 684.148 130.634 684.652 130.517V133.821C683.679 134.091 682.742 134.226 681.839 134.226C678.558 134.226 676.917 132.415 676.917 128.794V118.019H673.789V114.854H676.917V110.231H681.189ZM697.783 118.757C697.22 118.663 696.64 118.616 696.042 118.616C694.085 118.616 692.767 119.366 692.087 120.866V133.874H687.816V114.854H691.894L692 116.981C693.031 115.329 694.46 114.503 696.289 114.503C696.898 114.503 697.402 114.585 697.8 114.749L697.783 118.757ZM708.505 134.226C705.798 134.226 703.601 133.376 701.914 131.677C700.238 129.966 699.4 127.692 699.4 124.856V124.329C699.4 122.431 699.763 120.737 700.49 119.249C701.228 117.749 702.259 116.583 703.583 115.751C704.908 114.919 706.384 114.503 708.013 114.503C710.603 114.503 712.601 115.329 714.007 116.981C715.425 118.634 716.134 120.972 716.134 123.995V125.718H703.707C703.835 127.288 704.357 128.53 705.271 129.444C706.197 130.358 707.357 130.815 708.751 130.815C710.708 130.815 712.302 130.024 713.533 128.442L715.835 130.64C715.074 131.776 714.054 132.661 712.777 133.294C711.511 133.915 710.087 134.226 708.505 134.226ZM707.996 117.931C706.824 117.931 705.875 118.341 705.148 119.161C704.433 119.981 703.976 121.124 703.777 122.589H711.916V122.272C711.822 120.843 711.441 119.765 710.773 119.038C710.105 118.3 709.179 117.931 707.996 117.931ZM730.83 133.874C730.642 133.511 730.478 132.919 730.337 132.099C728.978 133.517 727.314 134.226 725.345 134.226C723.435 134.226 721.876 133.681 720.669 132.591C719.462 131.501 718.859 130.153 718.859 128.548C718.859 126.521 719.609 124.968 721.109 123.89C722.621 122.8 724.777 122.255 727.578 122.255H730.197V121.007C730.197 120.022 729.921 119.237 729.371 118.651C728.82 118.054 727.982 117.755 726.857 117.755C725.884 117.755 725.087 118.001 724.466 118.493C723.845 118.974 723.535 119.589 723.535 120.339H719.263C719.263 119.296 719.609 118.323 720.3 117.421C720.992 116.507 721.929 115.792 723.113 115.276C724.308 114.761 725.638 114.503 727.103 114.503C729.33 114.503 731.105 115.065 732.429 116.19C733.753 117.304 734.433 118.874 734.468 120.901V129.479C734.468 131.19 734.708 132.556 735.189 133.575V133.874H730.83ZM726.136 130.798C726.98 130.798 727.771 130.593 728.509 130.183C729.259 129.772 729.822 129.222 730.197 128.53V124.944H727.894C726.312 124.944 725.123 125.22 724.326 125.771C723.529 126.321 723.13 127.101 723.13 128.108C723.13 128.929 723.4 129.585 723.939 130.077C724.49 130.558 725.222 130.798 726.136 130.798ZM744.294 110.231V114.854H747.652V118.019H744.294V128.636C744.294 129.362 744.435 129.89 744.716 130.218C745.009 130.534 745.525 130.692 746.263 130.692C746.755 130.692 747.253 130.634 747.757 130.517V133.821C746.785 134.091 745.847 134.226 744.945 134.226C741.664 134.226 740.023 132.415 740.023 128.794V118.019H736.894V114.854H740.023V110.231H744.294ZM754.947 114.854L755.07 116.841C756.406 115.282 758.234 114.503 760.554 114.503C763.097 114.503 764.837 115.476 765.775 117.421C767.158 115.476 769.103 114.503 771.611 114.503C773.708 114.503 775.267 115.083 776.287 116.243C777.318 117.403 777.845 119.114 777.869 121.376V133.874H773.597V121.499C773.597 120.292 773.333 119.407 772.806 118.845C772.279 118.282 771.406 118.001 770.187 118.001C769.214 118.001 768.417 118.265 767.796 118.792C767.187 119.308 766.759 119.987 766.513 120.831L766.531 133.874H762.259V121.358C762.201 119.12 761.058 118.001 758.832 118.001C757.121 118.001 755.908 118.698 755.193 120.093V133.874H750.921V114.854H754.947ZM790.63 134.226C787.923 134.226 785.726 133.376 784.039 131.677C782.363 129.966 781.525 127.692 781.525 124.856V124.329C781.525 122.431 781.888 120.737 782.615 119.249C783.353 117.749 784.384 116.583 785.708 115.751C787.033 114.919 788.509 114.503 790.138 114.503C792.728 114.503 794.726 115.329 796.132 116.981C797.55 118.634 798.259 120.972 798.259 123.995V125.718H785.832C785.96 127.288 786.482 128.53 787.396 129.444C788.322 130.358 789.482 130.815 790.876 130.815C792.833 130.815 794.427 130.024 795.658 128.442L797.96 130.64C797.199 131.776 796.179 132.661 794.902 133.294C793.636 133.915 792.212 134.226 790.63 134.226ZM790.121 117.931C788.949 117.931 788 118.341 787.273 119.161C786.558 119.981 786.101 121.124 785.902 122.589H794.041V122.272C793.947 120.843 793.566 119.765 792.898 119.038C792.23 118.3 791.304 117.931 790.121 117.931ZM805.554 114.854L805.677 117.052C807.083 115.353 808.929 114.503 811.214 114.503C815.175 114.503 817.191 116.771 817.261 121.306V133.874H812.99V121.552C812.99 120.345 812.726 119.454 812.199 118.88C811.683 118.294 810.833 118.001 809.65 118.001C807.927 118.001 806.644 118.78 805.8 120.339V133.874H801.529V114.854H805.554ZM826.982 110.231V114.854H830.339V118.019H826.982V128.636C826.982 129.362 827.123 129.89 827.404 130.218C827.697 130.534 828.212 130.692 828.951 130.692C829.443 130.692 829.941 130.634 830.445 130.517V133.821C829.472 134.091 828.535 134.226 827.632 134.226C824.351 134.226 822.71 132.415 822.71 128.794V118.019H819.582V114.854H822.71V110.231H826.982ZM834.734 115.874L832.554 114.521C833.609 112.985 834.154 111.362 834.189 109.651V106.874H837.933V109.3C837.933 110.507 837.623 111.726 837.001 112.956C836.392 114.175 835.636 115.147 834.734 115.874ZM840.605 115.874L838.425 114.521C839.48 112.985 840.025 111.362 840.06 109.651V106.874H843.804V109.3C843.804 110.507 843.494 111.726 842.873 112.956C842.263 114.175 841.507 115.147 840.605 115.874Z" fill="#548942"/>
<path d="M29.9194 260.226C27.2124 260.226 25.0151 259.376 23.3276 257.677C21.6519 255.966 20.814 253.692 20.814 250.856V250.329C20.814 248.431 21.1772 246.737 21.9038 245.249C22.6421 243.749 23.6733 242.583 24.9976 241.751C26.3218 240.919 27.7983 240.503 29.4272 240.503C32.0171 240.503 34.0151 241.329 35.4214 242.981C36.8394 244.634 37.5483 246.972 37.5483 249.995V251.718H25.1206C25.2495 253.288 25.771 254.53 26.6851 255.444C27.6108 256.358 28.771 256.815 30.1655 256.815C32.1226 256.815 33.7163 256.024 34.9468 254.442L37.2495 256.64C36.4878 257.776 35.4683 258.661 34.1909 259.294C32.9253 259.915 31.5015 260.226 29.9194 260.226ZM29.4097 243.931C28.2378 243.931 27.2886 244.341 26.562 245.161C25.8472 245.981 25.3901 247.124 25.1909 248.589H33.3296V248.272C33.2358 246.843 32.855 245.765 32.187 245.038C31.519 244.3 30.5933 243.931 29.4097 243.931ZM47.7085 247.112L51.3296 240.854H56.0757L50.2573 250.224L56.269 259.874H51.5581L47.7612 253.37L43.9819 259.874H39.2358L45.2476 250.224L39.4468 240.854H44.1577L47.7085 247.112ZM75.6401 250.558C75.6401 253.499 74.9722 255.849 73.6362 257.606C72.3003 259.353 70.5073 260.226 68.2573 260.226C66.1714 260.226 64.5015 259.54 63.2476 258.169V267.187H58.9761V240.854H62.9136L63.0894 242.788C64.3433 241.265 66.0483 240.503 68.2046 240.503C70.5249 240.503 72.3413 241.37 73.6538 243.104C74.978 244.827 75.6401 247.224 75.6401 250.294V250.558ZM71.3862 250.188C71.3862 248.29 71.0054 246.784 70.2437 245.671C69.4937 244.558 68.4155 244.001 67.0093 244.001C65.2632 244.001 64.0093 244.722 63.2476 246.163V254.601C64.021 256.077 65.2866 256.815 67.0444 256.815C68.4038 256.815 69.4644 256.271 70.2261 255.181C70.9995 254.079 71.3862 252.415 71.3862 250.188ZM78.4702 250.188C78.4702 248.325 78.8394 246.649 79.5776 245.161C80.3159 243.661 81.353 242.513 82.689 241.716C84.0249 240.907 85.5601 240.503 87.2944 240.503C89.8608 240.503 91.9409 241.329 93.5347 242.981C95.1401 244.634 96.0073 246.825 96.1362 249.556L96.1538 250.558C96.1538 252.433 95.7905 254.108 95.064 255.585C94.3491 257.062 93.3179 258.204 91.9702 259.013C90.6343 259.821 89.0874 260.226 87.3296 260.226C84.646 260.226 82.4956 259.335 80.8784 257.554C79.2729 255.761 78.4702 253.376 78.4702 250.399V250.188ZM82.7417 250.558C82.7417 252.515 83.146 254.05 83.9546 255.163C84.7632 256.265 85.8882 256.815 87.3296 256.815C88.771 256.815 89.8901 256.253 90.687 255.128C91.4956 254.003 91.8999 252.356 91.8999 250.188C91.8999 248.267 91.4839 246.743 90.6519 245.618C89.8315 244.493 88.7124 243.931 87.2944 243.931C85.8999 243.931 84.7925 244.487 83.9722 245.601C83.1519 246.702 82.7417 248.354 82.7417 250.558ZM109.724 244.757C109.162 244.663 108.582 244.616 107.984 244.616C106.027 244.616 104.708 245.366 104.029 246.866V259.874H99.7573V240.854H103.835L103.941 242.981C104.972 241.329 106.402 240.503 108.23 240.503C108.839 240.503 109.343 240.585 109.742 240.749L109.724 244.757ZM118.654 236.231V240.854H122.011V244.019H118.654V254.636C118.654 255.362 118.794 255.89 119.076 256.218C119.369 256.534 119.884 256.692 120.623 256.692C121.115 256.692 121.613 256.634 122.117 256.517V259.821C121.144 260.091 120.207 260.226 119.304 260.226C116.023 260.226 114.382 258.415 114.382 254.794V244.019H111.253V240.854H114.382V236.231H118.654ZM133.455 250.224C133.455 247.294 134.134 244.944 135.494 243.175C136.853 241.394 138.675 240.503 140.96 240.503C142.976 240.503 144.605 241.206 145.847 242.612V232.874H150.119V259.874H146.251L146.041 257.905C144.763 259.452 143.058 260.226 140.925 260.226C138.699 260.226 136.894 259.329 135.511 257.536C134.14 255.743 133.455 253.306 133.455 250.224ZM137.726 250.593C137.726 252.526 138.095 254.038 138.833 255.128C139.583 256.206 140.644 256.745 142.015 256.745C143.761 256.745 145.039 255.966 145.847 254.407V246.286C145.062 244.763 143.796 244.001 142.05 244.001C140.667 244.001 139.601 244.552 138.851 245.653C138.101 246.743 137.726 248.39 137.726 250.593ZM162.951 260.226C160.244 260.226 158.046 259.376 156.359 257.677C154.683 255.966 153.845 253.692 153.845 250.856V250.329C153.845 248.431 154.208 246.737 154.935 245.249C155.673 243.749 156.705 242.583 158.029 241.751C159.353 240.919 160.83 240.503 162.458 240.503C165.048 240.503 167.046 241.329 168.453 242.981C169.871 244.634 170.58 246.972 170.58 249.995V251.718H158.152C158.281 253.288 158.802 254.53 159.716 255.444C160.642 256.358 161.802 256.815 163.197 256.815C165.154 256.815 166.748 256.024 167.978 254.442L170.281 256.64C169.519 257.776 168.5 258.661 167.222 259.294C165.957 259.915 164.533 260.226 162.951 260.226ZM162.441 243.931C161.269 243.931 160.32 244.341 159.593 245.161C158.878 245.981 158.421 247.124 158.222 248.589H166.361V248.272C166.267 246.843 165.886 245.765 165.218 245.038C164.55 244.3 163.625 243.931 162.441 243.931ZM175.414 259.874V244.019H172.513V240.854H175.414V239.114C175.414 237.005 176 235.376 177.171 234.228C178.343 233.079 179.984 232.505 182.093 232.505C182.843 232.505 183.64 232.61 184.484 232.821L184.378 236.161C183.91 236.067 183.365 236.021 182.744 236.021C180.705 236.021 179.685 237.069 179.685 239.167V240.854H183.552V244.019H179.685V259.874H175.414ZM198.037 259.874C197.849 259.511 197.685 258.919 197.544 258.099C196.185 259.517 194.521 260.226 192.552 260.226C190.642 260.226 189.083 259.681 187.876 258.591C186.669 257.501 186.066 256.153 186.066 254.548C186.066 252.521 186.816 250.968 188.316 249.89C189.828 248.8 191.984 248.255 194.785 248.255H197.404V247.007C197.404 246.022 197.128 245.237 196.578 244.651C196.027 244.054 195.189 243.755 194.064 243.755C193.091 243.755 192.294 244.001 191.673 244.493C191.052 244.974 190.742 245.589 190.742 246.339H186.47C186.47 245.296 186.816 244.323 187.507 243.421C188.199 242.507 189.136 241.792 190.32 241.276C191.515 240.761 192.845 240.503 194.31 240.503C196.537 240.503 198.312 241.065 199.636 242.19C200.96 243.304 201.64 244.874 201.675 246.901V255.479C201.675 257.19 201.916 258.556 202.396 259.575V259.874H198.037ZM193.343 256.798C194.187 256.798 194.978 256.593 195.716 256.183C196.466 255.772 197.029 255.222 197.404 254.53V250.944H195.101C193.519 250.944 192.33 251.22 191.533 251.771C190.736 252.321 190.337 253.101 190.337 254.108C190.337 254.929 190.607 255.585 191.146 256.077C191.697 256.558 192.429 256.798 193.343 256.798ZM217.671 258.011C216.417 259.487 214.636 260.226 212.328 260.226C210.265 260.226 208.701 259.622 207.634 258.415C206.58 257.208 206.052 255.462 206.052 253.177V240.854H210.324V253.124C210.324 255.538 211.326 256.745 213.33 256.745C215.404 256.745 216.804 256.001 217.531 254.513V240.854H221.802V259.874H217.777L217.671 258.011ZM230.697 259.874H226.425V232.874H230.697V259.874ZM240.716 236.231V240.854H244.074V244.019H240.716V254.636C240.716 255.362 240.857 255.89 241.138 256.218C241.431 256.534 241.947 256.692 242.685 256.692C243.177 256.692 243.675 256.634 244.179 256.517V259.821C243.207 260.091 242.269 260.226 241.367 260.226C238.085 260.226 236.445 258.415 236.445 254.794V244.019H233.316V240.854H236.445V236.231H240.716Z" fill="#838D08"/>
</svg>
