<svg width="763" height="503" viewBox="0 0 763 503" fill="none" xmlns="http://www.w3.org/2000/svg">
<rect width="700" height="503" rx="162" fill="#24292E"/>
<path d="M382.125 280.672C381.469 294.922 377.625 307.531 370.594 318.5C363.562 329.375 353.672 337.812 340.922 343.812C328.266 349.812 313.781 352.812 297.469 352.812C270.562 352.812 249.375 344.047 233.906 326.516C218.438 308.984 210.703 284.234 210.703 252.266V242.141C210.703 222.078 214.172 204.547 221.109 189.547C228.141 174.453 238.219 162.828 251.344 154.672C264.469 146.422 279.656 142.297 296.906 142.297C321.75 142.297 341.719 148.859 356.812 161.984C371.906 175.016 380.484 193.016 382.547 215.984H333.328C332.953 203.516 329.812 194.562 323.906 189.125C318 183.688 309 180.969 296.906 180.969C284.625 180.969 275.625 185.562 269.906 194.75C264.188 203.938 261.188 218.609 260.906 238.766V253.25C260.906 275.094 263.625 290.703 269.062 300.078C274.594 309.453 284.062 314.141 297.469 314.141C308.812 314.141 317.484 311.469 323.484 306.125C329.484 300.781 332.672 292.297 333.047 280.672H382.125ZM454.828 312.031H540.75V350H405.469V145.25H454.828V312.031ZM614.156 350H564.938V145.25H614.156V350Z" fill="white"/>
<path d="M58.0625 189.375L88.2969 160.828L173.094 249L86.3281 330.562L58.3438 299.344L115.719 247.312L58.0625 189.375Z" fill="white"/>
</svg>
