<svg width="1028" height="697" viewBox="0 0 1028 697" fill="none" xmlns="http://www.w3.org/2000/svg">
<g clip-path="url(#clip0)">
<path opacity="0.4" d="M696.248 432.454C738.637 432.454 773 398.091 773 355.702C773 313.313 738.637 278.95 696.248 278.95C653.859 278.95 619.496 313.313 619.496 355.702C619.496 398.091 653.859 432.454 696.248 432.454Z" fill="#24292E" fill-opacity="0.8"/>
<path d="M698 461.902H270V577.902H698V461.902Z" fill="#24292E"/>
<path d="M670.587 174.506L653.497 182.594L668.622 171.284C666.164 167.447 663.402 163.813 660.364 160.417L586.247 178.839L653.195 153.301C650.136 150.602 646.887 148.125 643.473 145.891L530.537 164.082C518.546 179.076 512.009 197.702 512 216.902H682C681.993 202.012 678.056 187.387 670.587 174.506Z" fill="#F2F2F2"/>
<path d="M1020 693.902H0V695.902H1020V693.902Z" fill="#24292E" fill-opacity="0.4"/>
<path d="M595.864 216.902L538 130.951C538 130.951 625.631 161.544 615.686 216.902H595.864Z" fill="#24292E" fill-opacity="0.9"/>
<path d="M598.136 216.902L656 130.951C656 130.951 568.369 161.544 578.314 216.902H598.136Z" fill="#24292E" fill-opacity="0.9"/>
<path d="M698.5 695.902H269.5V55.902H698.5V695.902ZM271.5 693.902H696.5V57.902H271.5V693.902Z" fill="#24292E" fill-opacity="0.4"/>
<path d="M698 71.0831H271V73.0831H698V71.0831Z" fill="#24292E" fill-opacity="0.4"/>
<path d="M282 67.902C284.209 67.902 286 66.1111 286 63.902C286 61.6928 284.209 59.902 282 59.902C279.791 59.902 278 61.6928 278 63.902C278 66.1111 279.791 67.902 282 67.902Z" fill="#24292E" fill-opacity="0.8"/>
<path d="M293 67.902C295.209 67.902 297 66.1111 297 63.902C297 61.6928 295.209 59.902 293 59.902C290.791 59.902 289 61.6928 289 63.902C289 66.1111 290.791 67.902 293 67.902Z" fill="#24292E" fill-opacity="0.8"/>
<path d="M304 67.902C306.209 67.902 308 66.1111 308 63.902C308 61.6928 306.209 59.902 304 59.902C301.791 59.902 300 61.6928 300 63.902C300 66.1111 301.791 67.902 304 67.902Z" fill="#24292E" fill-opacity="0.8"/>
<path d="M304 84.902H286V94.902H304V84.902Z" fill="#24292E" fill-opacity="0.8"/>
<path d="M374 163.902H286V173.902H374V163.902Z" fill="#24292E" fill-opacity="0.8"/>
<path d="M599 94.902L687 94.902V84.902L599 84.902V94.902Z" fill="#F2F2F2"/>
<path d="M434 180.902H286V186.902H434V180.902Z" fill="#F2F2F2"/>
<path d="M426 193.902H286V199.902H426V193.902Z" fill="#F2F2F2"/>
<path d="M388 206.902H286V212.902H388V206.902Z" fill="#F2F2F2"/>
<path d="M378 384.902H320V390.902H378V384.902Z" fill="#F2F2F2"/>
<path d="M374.865 397.902H320V403.902H374.865V397.902Z" fill="#F2F2F2"/>
<path d="M359.973 410.902H320V416.902H359.973V410.902Z" fill="#F2F2F2"/>
<path d="M513 384.902H455V390.902H513V384.902Z" fill="#F2F2F2"/>
<path d="M509.865 397.902H455V403.902H509.865V397.902Z" fill="#F2F2F2"/>
<path d="M494.973 410.902H455V416.902H494.973V410.902Z" fill="#F2F2F2"/>
<path d="M653 384.902H595V390.902H653V384.902Z" fill="#F2F2F2"/>
<path d="M649.865 397.902H595V403.902H649.865V397.902Z" fill="#F2F2F2"/>
<path d="M634.973 410.902H595V416.902H634.973V410.902Z" fill="#F2F2F2"/>
<path d="M498 611.902H410V621.902H498V611.902Z" fill="#24292E" fill-opacity="0.8"/>
<path d="M558 628.902H410V634.902H558V628.902Z" fill="#F2F2F2"/>
<path d="M550 641.902H410V647.902H550V641.902Z" fill="#F2F2F2"/>
<path d="M512 654.902H410V660.902H512V654.902Z" fill="#F2F2F2"/>
<path opacity="0.3" d="M660.5 271.902H312.5V273.902H660.5V271.902Z" fill="#24292E" fill-opacity="0.8"/>
<path opacity="0.3" d="M386 306.902H312V372.902H386V306.902Z" fill="#24292E" fill-opacity="0.8"/>
<path d="M521 306.902H447V372.902H521V306.902Z" fill="#24292E"/>
<path d="M661 306.902H587V372.902H661V306.902Z" fill="#24292E"/>
<path d="M474.359 372.625L473.382 372.605C473.403 371.524 474.013 346.044 484.044 339.001L484.605 339.8C474.979 346.559 474.363 372.365 474.359 372.625Z" fill="white" fill-opacity="0.8"/>
<path d="M489.206 338.679C491.902 338.679 494.087 336.494 494.087 333.798C494.087 331.102 491.902 328.917 489.206 328.917C486.51 328.917 484.325 331.102 484.325 333.798C484.325 336.494 486.51 338.679 489.206 338.679Z" fill="white" fill-opacity="0.8"/>
<path d="M488.219 351.034C485.68 351.831 482.976 351.948 480.378 351.372C482.028 349.272 484.25 347.693 486.776 346.826C489.303 345.96 492.026 345.842 494.618 346.488C492.92 348.537 490.713 350.105 488.219 351.034Z" fill="white" fill-opacity="0.8"/>
<path d="M614.359 372.625L613.382 372.605C613.403 371.524 614.013 346.044 624.044 339.001L624.605 339.8C614.979 346.559 614.363 372.365 614.359 372.625Z" fill="white" fill-opacity="0.8"/>
<path d="M629.206 338.679C631.902 338.679 634.087 336.494 634.087 333.798C634.087 331.102 631.902 328.917 629.206 328.917C626.51 328.917 624.325 331.102 624.325 333.798C624.325 336.494 626.51 338.679 629.206 338.679Z" fill="white" fill-opacity="0.8"/>
<path d="M628.219 351.034C625.68 351.831 622.976 351.948 620.378 351.372C622.028 349.272 624.25 347.693 626.776 346.826C629.303 345.96 632.026 345.842 634.618 346.488C632.92 348.537 630.713 350.105 628.219 351.034V351.034Z" fill="white" fill-opacity="0.8"/>
<path d="M374 498.902H286V508.902H374V498.902Z" fill="#24292E" fill-opacity="0.8"/>
<path d="M434 515.902H286V521.902H434V515.902Z" fill="#F2F2F2"/>
<path d="M426 528.902H286V534.902H426V528.902Z" fill="#F2F2F2"/>
<path d="M388 541.902H286V547.902H388V541.902Z" fill="#F2F2F2"/>
<path opacity="0.4" d="M611.752 543.95C629.01 543.95 643 529.959 643 512.702C643 495.444 629.01 481.454 611.752 481.454C594.494 481.454 580.504 495.444 580.504 512.702C580.504 529.959 594.494 543.95 611.752 543.95Z" fill="#0075EA" fill-opacity="0.8"/>
<path opacity="0.4" d="M553.92 549.546C566.026 549.546 575.84 539.732 575.84 527.626C575.84 515.52 566.026 505.706 553.92 505.706C541.814 505.706 532 515.52 532 527.626C532 539.732 541.814 549.546 553.92 549.546Z" fill="#188CFF" fill-opacity="0.8"/>
<path d="M167.5 661.402C211.13 661.402 246.5 626.032 246.5 582.402C246.5 538.771 211.13 503.402 167.5 503.402C123.87 503.402 88.5 538.771 88.5 582.402C88.5 626.032 123.87 661.402 167.5 661.402Z" fill="#24292E"/>
<path d="M155.5 644.402H131.5V687.402H155.5V644.402Z" fill="#24292E" fill-opacity="0.4"/>
<path d="M203.5 644.402H179.5V687.402H203.5V644.402Z" fill="#24292E" fill-opacity="0.4"/>
<path d="M151.5 695.402C162.546 695.402 171.5 692.044 171.5 687.902C171.5 683.76 162.546 680.402 151.5 680.402C140.454 680.402 131.5 683.76 131.5 687.902C131.5 692.044 140.454 695.402 151.5 695.402Z" fill="#24292E" fill-opacity="0.4"/>
<path d="M199.5 694.402C210.546 694.402 219.5 691.044 219.5 686.902C219.5 682.76 210.546 679.402 199.5 679.402C188.454 679.402 179.5 682.76 179.5 686.902C179.5 691.044 188.454 694.402 199.5 694.402Z" fill="#24292E" fill-opacity="0.4"/>
<path d="M169.5 589.402C184.412 589.402 196.5 577.314 196.5 562.402C196.5 547.49 184.412 535.402 169.5 535.402C154.588 535.402 142.5 547.49 142.5 562.402C142.5 577.314 154.588 589.402 169.5 589.402Z" fill="white"/>
<path d="M169.5 559.402C174.471 559.402 178.5 555.372 178.5 550.402C178.5 545.431 174.471 541.402 169.5 541.402C164.529 541.402 160.5 545.431 160.5 550.402C160.5 555.372 164.529 559.402 169.5 559.402Z" fill="#24292E" fill-opacity="0.8"/>
<path d="M90.8674 508.934C84.4885 480.367 104.879 451.5 136.411 444.459C167.944 437.419 198.676 454.869 205.055 483.437C211.434 512.005 190.537 522.541 159.005 529.582C127.472 536.622 97.2463 537.502 90.8674 508.934Z" fill="#24292E" fill-opacity="0.8"/>
<path d="M238.522 500.212C247.715 480.428 250.132 462.051 243.922 459.165C237.711 456.279 225.224 469.977 216.031 489.761C206.838 509.544 204.42 527.922 210.631 530.808C216.842 533.694 229.329 519.995 238.522 500.212Z" fill="#24292E" fill-opacity="0.4"/>
<path d="M100.756 553.897C106.808 550.693 103.442 532.466 93.236 513.185C83.0303 493.904 69.8501 480.872 63.7973 484.075C57.7444 487.279 61.111 505.507 71.3168 524.787C81.5225 544.068 94.7027 557.101 100.756 553.897Z" fill="#24292E" fill-opacity="0.4"/>
<path d="M834.209 560.509C840.599 558.046 839.419 539.548 831.574 519.192C823.728 498.837 812.187 484.332 805.797 486.795C799.407 489.258 800.587 507.756 808.432 528.112C816.278 548.467 827.819 562.972 834.209 560.509Z" fill="#24292E" fill-opacity="0.4"/>
<path d="M893.189 662.104C936.82 662.104 972.189 626.734 972.189 583.104C972.189 539.473 936.82 504.104 893.189 504.104C849.559 504.104 814.189 539.473 814.189 583.104C814.189 626.734 849.559 662.104 893.189 662.104Z" fill="#24292E"/>
<path d="M905.48 688.066L929.48 687.999L929.36 644.999L905.36 645.066L905.48 688.066Z" fill="#24292E" fill-opacity="0.4"/>
<path d="M857.484 688.204L881.484 688.137L881.363 645.137L857.363 645.204L857.484 688.204Z" fill="#24292E" fill-opacity="0.4"/>
<path d="M909.506 696.058C920.552 696.027 929.497 692.645 929.485 688.502C929.473 684.36 920.51 681.028 909.464 681.058C898.418 681.089 889.474 684.472 889.485 688.614C889.497 692.757 898.46 696.089 909.506 696.058Z" fill="#24292E" fill-opacity="0.4"/>
<path d="M861.503 695.193C872.549 695.162 881.494 691.779 881.482 687.637C881.471 683.495 872.507 680.162 861.461 680.193C850.416 680.224 841.471 683.607 841.482 687.749C841.494 691.891 850.458 695.224 861.503 695.193Z" fill="#24292E" fill-opacity="0.4"/>
<path d="M891.134 590.109C906.045 590.109 918.134 578.021 918.134 563.109C918.134 548.198 906.045 536.109 891.134 536.109C876.222 536.109 864.134 548.198 864.134 563.109C864.134 578.021 876.222 590.109 891.134 590.109Z" fill="white"/>
<path d="M891.134 572.109C896.104 572.109 900.134 568.08 900.134 563.109C900.134 558.139 896.104 554.109 891.134 554.109C886.163 554.109 882.134 558.139 882.134 563.109C882.134 568.08 886.163 572.109 891.134 572.109Z" fill="#24292E" fill-opacity="0.8"/>
<path d="M969.616 509.422C975.915 480.836 955.443 452.027 923.892 445.075C892.34 438.122 861.656 455.659 855.357 484.245C849.058 512.83 869.985 523.308 901.537 530.26C933.089 537.212 963.317 538.007 969.616 509.422Z" fill="#24292E" fill-opacity="0.8"/>
<path d="M987.412 557.387C1007.1 547.984 1020.66 535.351 1017.71 529.171C1014.76 522.992 996.406 525.606 976.722 535.009C957.037 544.413 943.473 557.046 946.425 563.225C949.377 569.405 967.728 566.791 987.412 557.387Z" fill="#24292E" fill-opacity="0.4"/>
<path d="M932.074 611.495C932.096 619.227 912.23 634.551 890.138 634.613C868.047 634.675 847.273 612.965 847.251 605.233C847.23 597.501 867.969 606.675 890.06 606.613C912.151 606.551 932.052 603.763 932.074 611.495Z" fill="white"/>
<path opacity="0.4" d="M917.248 578.95C978.136 578.95 1027.5 529.59 1027.5 468.702C1027.5 407.813 978.136 358.454 917.248 358.454C856.36 358.454 807 407.813 807 468.702C807 529.59 856.36 578.95 917.248 578.95Z" fill="#24292E" fill-opacity="0.8"/>
<path d="M190.405 427.59C234.035 427.59 269.405 392.221 269.405 348.59C269.405 304.96 234.035 269.59 190.405 269.59C146.774 269.59 111.405 304.96 111.405 348.59C111.405 392.221 146.774 427.59 190.405 427.59Z" fill="#24292E"/>
<path d="M167.552 407.461L143.936 403.186L136.277 445.498L159.893 449.773L167.552 407.461Z" fill="#24292E" fill-opacity="0.4"/>
<path d="M214.785 416.011L191.169 411.736L183.509 454.048L207.125 458.324L214.785 416.011Z" fill="#24292E" fill-opacity="0.4"/>
<path d="M214.698 474.43C217.374 471.269 212.711 462.92 204.282 455.781C195.853 448.643 186.85 445.418 184.173 448.579C181.496 451.74 186.159 460.09 194.588 467.228C203.017 474.367 212.021 477.591 214.698 474.43Z" fill="#24292E" fill-opacity="0.4"/>
<path d="M168.449 466.058C171.126 462.897 166.463 454.548 158.034 447.409C149.605 440.271 140.602 437.046 137.925 440.207C135.248 443.368 139.911 451.717 148.34 458.856C156.769 465.994 165.772 469.219 168.449 466.058Z" fill="#24292E" fill-opacity="0.4"/>
<path d="M195.936 356.266C210.847 356.266 222.936 344.178 222.936 329.266C222.936 314.355 210.847 302.266 195.936 302.266C181.024 302.266 168.936 314.355 168.936 329.266C168.936 344.178 181.024 356.266 195.936 356.266Z" fill="white"/>
<path d="M207.032 328.588C212.003 328.588 216.032 324.559 216.032 319.588C216.032 314.618 212.003 310.588 207.032 310.588C202.062 310.588 198.032 314.618 198.032 319.588C198.032 324.559 202.062 328.588 207.032 328.588Z" fill="#24292E" fill-opacity="0.8"/>
<path d="M128.085 262.647C126.897 233.4 152.104 208.627 184.386 207.316C216.668 206.005 243.801 228.651 244.989 257.898C246.177 287.145 223.736 293.79 191.454 295.101C159.172 296.413 129.273 291.894 128.085 262.647Z" fill="#24292E" fill-opacity="0.8"/>
<path d="M266.121 346.284C287.385 341.41 303.382 332.048 301.852 325.373C300.322 318.697 281.844 317.237 260.58 322.111C239.316 326.985 223.319 336.347 224.849 343.023C226.379 349.698 244.857 351.158 266.121 346.284Z" fill="#24292E" fill-opacity="0.4"/>
<path d="M111.047 372.073C132.311 367.199 148.308 357.836 146.778 351.161C145.248 344.486 126.77 343.025 105.506 347.899C84.2421 352.773 68.2448 362.136 69.7749 368.811C71.305 375.487 89.7831 376.947 111.047 372.073Z" fill="#24292E" fill-opacity="0.4"/>
<path d="M168.707 379.723C167.857 384.421 168.908 389.264 171.628 393.187C174.348 397.11 178.516 399.791 183.213 400.642C187.911 401.492 192.754 400.441 196.677 397.721C200.6 395.001 203.281 390.833 204.132 386.136C205.902 376.354 198.339 372.892 188.557 371.121C178.775 369.351 170.478 369.941 168.707 379.723Z" fill="white"/>
<path d="M376.418 284.417L305.535 263.167L286.582 326.387L357.465 347.637L376.418 284.417Z" fill="#24292E"/>
<path d="M312.868 333.977L311.938 333.679C312.269 332.649 320.17 308.417 331.801 304.552L332.109 305.478C320.947 309.188 312.947 333.73 312.868 333.977Z" fill="white" fill-opacity="0.8"/>
<path d="M338.24 305.931C340.936 305.931 343.121 303.746 343.121 301.05C343.121 298.354 340.936 296.169 338.24 296.169C335.544 296.169 333.358 298.354 333.358 301.05C333.358 303.746 335.544 305.931 338.24 305.931Z" fill="white" fill-opacity="0.8"/>
<path d="M332.345 317.276C329.684 317.311 327.06 316.646 324.736 315.349C326.92 313.811 329.502 312.936 332.171 312.832C334.84 312.727 337.482 313.397 339.779 314.759C337.564 316.235 335 317.103 332.345 317.276V317.276Z" fill="white" fill-opacity="0.8"/>
</g>
<defs>
<clipPath id="clip0">
<rect width="1027.5" height="696.059" fill="white"/>
</clipPath>
</defs>
</svg>
