<?xml version="1.0" encoding="iso-8859-1"?>
<!-- Generator: Adobe Illustrator 19.0.0, SVG Export Plug-In . SVG Version: 6.00 Build 0)  -->
<svg version="1.1" id="Layer_1" xmlns="http://www.w3.org/2000/svg" xmlns:xlink="http://www.w3.org/1999/xlink" x="0px" y="0px"
	 viewBox="0 0 416 416" style="enable-background:new 0 0 416 416;" xml:space="preserve">
<g>
	<g>
		<g>
			<path d="M256,160h-12c-4.4,0-8,3.6-8,8c0,4.4,3.6,8,8,8h12c4.4,0,8-3.6,8-8C264,163.6,260.4,160,256,160z"/>
			<path d="M208,160h-60c-4.4,0-8,3.6-8,8c0,4.4,3.6,8,8,8h60c4.4,0,8-3.6,8-8C216,163.6,212.4,160,208,160z"/>
			<path d="M336,112H148c-4.4,0-8,3.6-8,8c0,4.4,3.6,8,8,8h188c4.4,0,8-3.6,8-8C344,115.6,340.4,112,336,112z"/>
			<path d="M376,32H104c-22,0-40,18-40,40v88H24c-13.2,0-24,10.8-24,24v128c0,13.2,10.8,24,24,24h40v40c0,3.2,2,6,4.8,7.2
				c1.2,0.4,2,0.8,3.2,0.8c2,0,4-0.8,5.2-2l49.6-44l0.4-0.4c1.2-1.2,2.8-1.6,5.2-1.6h52c13.2,0,24-10.8,24-24v-56h7.2
				c6,0,11.6,2,16,6.4l74.8,69.2c1.6,1.2,3.6,2,5.6,2c1.2,0,2-0.4,3.2-0.8c2.8-1.2,4.8-4,4.8-7.2V256h56c22,0,40-18,40-40V72
				C416,50,398,32,376,32z M192.4,312c0,4.4-3.6,8-8,8h-52c-6.4,0-12,2-16.4,6l-36,32v-30c0-4.4-3.6-8-8-8H24c-4.4,0-8-3.6-8-8V184
				c0-4.4,3.6-8,8-8h40v40c0,22,18,40,40,40h88.4V312z M400,216c0,13.2-10.8,24-24,24h-56v-24c0-4.4-3.6-8-8-8c-4.4,0-8,3.6-8,8
				v91.2l-61.2-56.8c-7.2-6.8-16.8-10.4-27.2-10.4H104c-13.2,0-24-10.8-24-24V72c0-13.2,10.8-24,24-24h272c13.2,0,24,10.8,24,24V216
				z"/>
		</g>
	</g>
</g>
<g>
</g>
<g>
</g>
<g>
</g>
<g>
</g>
<g>
</g>
<g>
</g>
<g>
</g>
<g>
</g>
<g>
</g>
<g>
</g>
<g>
</g>
<g>
</g>
<g>
</g>
<g>
</g>
<g>
</g>
</svg>
