<svg width="1969" height="1200" viewBox="0 0 1969 1200" fill="none" xmlns="http://www.w3.org/2000/svg">
<path d="M528.841 839.656H180.144V852.495H528.841V839.656Z" fill="white"/>
<path d="M1318.22 839.656H969.525V852.495H1318.22V839.656Z" fill="white"/>
<path d="M1855.17 839.656H1506.48V852.495H1855.17V839.656Z" fill="white"/>
<path d="M1857.22 645.186C1854.01 646.844 1851.03 648.905 1848.34 651.32C1845.61 648.894 1842.58 646.832 1839.32 645.186C1836.12 646.844 1833.13 648.905 1830.45 651.32C1827.72 648.894 1824.69 646.832 1821.43 645.186C1821.43 645.186 1807.52 652.028 1807.56 660.389C1807.56 660.598 1807.57 660.806 1807.59 661.013C1808.06 666.487 1822.44 667.882 1830.34 665.302C1836.19 666.97 1842.39 666.97 1848.24 665.302C1856.1 667.923 1870.77 666.421 1871.2 660.884C1871.22 660.677 1871.23 660.469 1871.23 660.26C1871.19 651.899 1857.22 645.186 1857.22 645.186Z" fill="#F2F2F2"/>
<path d="M14.9148 357.576L2.57568 347.703L71.6669 286H246.862V340.299L133.356 416.812L14.9148 357.576Z" fill="#3F3D56"/>
<path d="M278.806 320.611V287.232H255.546V295.406L246.863 286L190.111 347.703L167.903 362.512L133.468 614.154L185.398 666.097H306.086V350.172L278.806 320.611Z" fill="#CCCCCC"/>
<path d="M190.11 347.703H2.57617V666.097H190.11V347.703Z" fill="#F2F2F2"/>
<path d="M109.914 588.35H75.3687V666.097H109.914V588.35Z" fill="#CCCCCC"/>
<path d="M38.3565 610.563V598.223H23.5508V610.563H37.1222H38.3565Z" fill="#3F3D56"/>
<path d="M37.1222 620.436H23.5508V632.778H38.3565V620.436H37.1222Z" fill="#3F3D56"/>
<path d="M63.0314 598.223H48.2261V610.564H63.0314V598.223Z" fill="#3F3D56"/>
<path d="M63.0314 620.437H48.2261V632.777H63.0314V620.437Z" fill="#3F3D56"/>
<path d="M139.526 610.563V598.223H124.72V610.563H138.292H139.526Z" fill="#3F3D56"/>
<path d="M138.292 620.436H124.72V632.778H139.526V620.436H138.292Z" fill="#3F3D56"/>
<path d="M164.2 598.223H149.395V610.564H164.2V598.223Z" fill="#3F3D56"/>
<path d="M164.2 620.437H149.395V632.777H164.2V620.437Z" fill="#3F3D56"/>
<path d="M243.162 363.747V351.405H228.356V363.747H241.929H243.162Z" fill="#3F3D56"/>
<path d="M241.929 373.62H228.356V385.96H243.162V373.62H241.929Z" fill="#3F3D56"/>
<path d="M267.837 351.405H253.032V363.746H267.837V351.405Z" fill="#3F3D56"/>
<path d="M267.837 373.619H253.032V385.96H267.837V373.619Z" fill="#3F3D56"/>
<path d="M243.162 432.855V420.515H228.356V432.855H241.929H243.162Z" fill="#3F3D56"/>
<path d="M241.929 442.729H228.356V455.069H243.162V442.729H241.929Z" fill="#3F3D56"/>
<path d="M267.837 420.514H253.032V432.855H267.837V420.514Z" fill="#3F3D56"/>
<path d="M267.837 442.728H253.032V455.069H267.837V442.728Z" fill="#3F3D56"/>
<path d="M243.162 501.964V489.624H228.356V501.964H241.929H243.162Z" fill="#3F3D56"/>
<path d="M241.929 511.837H228.356V524.178H243.162V511.837H241.929Z" fill="#3F3D56"/>
<path d="M267.837 489.623H253.032V501.964H267.837V489.623Z" fill="#3F3D56"/>
<path d="M267.837 511.836H253.032V524.177H267.837V511.836Z" fill="#3F3D56"/>
<path d="M243.162 571.073V558.733H228.356V571.073H241.929H243.162Z" fill="#3F3D56"/>
<path d="M241.929 580.946H228.356V593.286H243.162V580.946H241.929Z" fill="#3F3D56"/>
<path d="M267.837 558.732H253.032V571.073H267.837V558.732Z" fill="#3F3D56"/>
<path d="M267.837 580.946H253.032V593.287H267.837V580.946Z" fill="#3F3D56"/>
<path d="M166.669 363.746H23.5508V393.364H166.669V363.746Z" fill="#3F3D56"/>
<path d="M166.669 422.982H23.5508V452.6H166.669V422.982Z" fill="#3F3D56"/>
<path d="M166.669 482.219H23.5508V511.837H166.669V482.219Z" fill="#3F3D56"/>
<path d="M166.669 541.455H23.5508V571.073H166.669V541.455Z" fill="#3F3D56"/>
<path d="M295.653 646.975C292.446 648.633 289.464 650.695 286.78 653.11C284.051 650.684 281.019 648.621 277.76 646.975C274.553 648.633 271.571 650.695 268.887 653.11C266.158 650.684 263.127 648.621 259.868 646.975C259.868 646.975 245.959 653.817 245.998 662.178C245.998 662.387 246.008 662.596 246.026 662.802C246.501 668.277 260.881 669.671 268.78 667.092C274.628 668.76 280.825 668.76 286.673 667.092C294.539 669.713 309.211 668.211 309.64 662.674C309.656 662.467 309.664 662.259 309.663 662.05C309.624 653.689 295.653 646.975 295.653 646.975Z" fill="#6C63FF"/>
<path d="M231.417 357.576L219.078 347.703L288.169 286H463.365V340.299L349.859 416.812L231.417 357.576Z" fill="#3F3D56"/>
<path d="M495.308 320.611V287.232H472.048V295.406L463.365 286L406.613 347.703L384.406 362.512L349.97 614.154L401.9 666.097H522.588V350.172L495.308 320.611Z" fill="#CCCCCC"/>
<path d="M406.612 347.703H219.079V666.097H406.612V347.703Z" fill="#F2F2F2"/>
<path d="M326.417 588.35H291.871V666.097H326.417V588.35Z" fill="#CCCCCC"/>
<path d="M254.859 610.563V598.223H240.053V610.563H253.625H254.859Z" fill="#3F3D56"/>
<path d="M253.625 620.436H240.053V632.778H254.859V620.436H253.625Z" fill="#3F3D56"/>
<path d="M279.534 598.223H264.729V610.564H279.534V598.223Z" fill="#3F3D56"/>
<path d="M279.534 620.437H264.729V632.777H279.534V620.437Z" fill="#3F3D56"/>
<path d="M356.028 610.563V598.223H341.222V610.563H354.794H356.028Z" fill="#3F3D56"/>
<path d="M354.794 620.436H341.222V632.778H356.028V620.436H354.794Z" fill="#3F3D56"/>
<path d="M380.703 598.223H365.897V610.564H380.703V598.223Z" fill="#3F3D56"/>
<path d="M380.703 620.437H365.897V632.777H380.703V620.437Z" fill="#3F3D56"/>
<path d="M459.664 363.747V351.405H444.858V363.747H458.432H459.664Z" fill="#3F3D56"/>
<path d="M458.432 373.62H444.858V385.96H459.664V373.62H458.432Z" fill="#3F3D56"/>
<path d="M484.34 351.405H469.535V363.746H484.34V351.405Z" fill="#3F3D56"/>
<path d="M484.34 373.619H469.535V385.96H484.34V373.619Z" fill="#3F3D56"/>
<path d="M459.664 432.855V420.515H444.858V432.855H458.432H459.664Z" fill="#3F3D56"/>
<path d="M458.432 442.729H444.858V455.069H459.664V442.729H458.432Z" fill="#3F3D56"/>
<path d="M484.34 420.514H469.535V432.855H484.34V420.514Z" fill="#3F3D56"/>
<path d="M484.34 442.728H469.535V455.069H484.34V442.728Z" fill="#3F3D56"/>
<path d="M459.664 501.964V489.624H444.858V501.964H458.432H459.664Z" fill="#3F3D56"/>
<path d="M458.432 511.837H444.858V524.178H459.664V511.837H458.432Z" fill="#3F3D56"/>
<path d="M484.34 489.623H469.535V501.964H484.34V489.623Z" fill="#3F3D56"/>
<path d="M484.34 511.836H469.535V524.177H484.34V511.836Z" fill="#3F3D56"/>
<path d="M459.664 571.073V558.733H444.858V571.073H458.432H459.664Z" fill="#3F3D56"/>
<path d="M458.432 580.946H444.858V593.286H459.664V580.946H458.432Z" fill="#3F3D56"/>
<path d="M484.34 558.732H469.535V571.073H484.34V558.732Z" fill="#3F3D56"/>
<path d="M484.34 580.946H469.535V593.287H484.34V580.946Z" fill="#3F3D56"/>
<path d="M383.17 363.746H240.053V393.364H383.17V363.746Z" fill="#3F3D56"/>
<path d="M383.17 422.982H240.053V452.6H383.17V422.982Z" fill="#3F3D56"/>
<path d="M383.17 482.219H240.053V511.837H383.17V482.219Z" fill="#3F3D56"/>
<path d="M383.17 541.455H240.053V571.073H383.17V541.455Z" fill="#3F3D56"/>
<path d="M653.121 428.919H647.146V664.977H653.121V428.919Z" fill="#3F3D56"/>
<path d="M711.426 497.619C711.438 500.216 711.414 502.8 711.354 505.372C709.212 598.297 597.833 598.81 594.834 505.909C594.751 503.338 594.703 500.754 594.691 498.157C594.212 394.286 652.192 309.812 652.192 309.812C652.192 309.812 710.947 393.748 711.426 497.619Z" fill="#57B894"/>
<path d="M632.342 646.452C629.135 648.11 626.153 650.172 623.469 652.587C620.74 650.161 617.708 648.099 614.449 646.452C611.242 648.11 608.26 650.172 605.576 652.587C602.847 650.161 599.816 648.099 596.557 646.452C596.557 646.452 582.648 653.294 582.687 661.656C582.687 661.865 582.697 662.073 582.715 662.279C583.19 667.754 597.57 669.149 605.469 666.569C611.317 668.237 617.514 668.237 623.362 666.569C631.228 669.19 645.9 667.688 646.329 662.151C646.345 661.944 646.352 661.736 646.352 661.527C646.313 653.166 632.342 646.452 632.342 646.452Z" fill="#CCCCCC"/>
<path d="M799.519 564.902L792.117 552.562L861.208 439.634H1038.87V456.911L974.715 579.711L900.688 594.521L799.519 564.902Z" fill="#3F3D56"/>
<path d="M1069.45 528.087V435.778H1046.19V447.956L1038.87 439.634L979.65 552.562L969.779 562.435L957.442 611.797L979.65 666.097H1093.16V555.029L1069.45 528.087Z" fill="#CCCCCC"/>
<path d="M979.65 552.562H792.117V666.097H979.65V552.562Z" fill="#F2F2F2"/>
<path d="M953.741 588.35H914.26V622.904H953.741V588.35Z" fill="#3F3D56"/>
<path d="M898.221 587.116H863.675V666.097H898.221V587.116Z" fill="#CCCCCC"/>
<path d="M824.196 599.457V587.117H809.39V599.457H822.961H824.196Z" fill="#3F3D56"/>
<path d="M822.961 609.33H809.39V621.67H824.196V609.33H822.961Z" fill="#3F3D56"/>
<path d="M848.87 587.116H834.065V599.457H848.87V587.116Z" fill="#3F3D56"/>
<path d="M848.87 609.33H834.065V621.67H848.87V609.33Z" fill="#3F3D56"/>
<path d="M1032.7 602.481V590.141H1017.9V602.481H1031.47H1032.7Z" fill="#3F3D56"/>
<path d="M1031.47 612.354H1017.9V624.694H1032.7V612.354H1031.47Z" fill="#3F3D56"/>
<path d="M1057.38 590.14H1042.57V602.481H1057.38V590.14Z" fill="#3F3D56"/>
<path d="M1057.38 612.354H1042.57V624.694H1057.38V612.354Z" fill="#3F3D56"/>
<path d="M877.168 486.049L875.219 482.802L893.398 453.089H940.143V457.634L923.264 489.945L903.786 493.842L877.168 486.049Z" fill="#3F3D56"/>
<path d="M940.142 453.089L924.562 482.802L921.965 485.4L918.718 498.389L924.562 512.674H954.426V483.451L940.142 453.089Z" fill="#CCCCCC"/>
<path d="M924.561 482.802H875.219V512.674H924.561V482.802Z" fill="#F2F2F2"/>
<path d="M896.123 495.675V489.782H889.055V495.675H895.535H896.123Z" fill="#3F3D56"/>
<path d="M895.535 500.39H889.055V506.28H896.123V500.39H895.535Z" fill="#3F3D56"/>
<path d="M907.906 489.782H900.836V495.675H907.906V489.782Z" fill="#3F3D56"/>
<path d="M907.906 500.388H900.836V506.281H907.906V500.388Z" fill="#3F3D56"/>
<path d="M1023.18 564.902L1015.78 552.562L1084.87 439.634H1262.53V456.911L1198.37 579.711L1124.35 594.521L1023.18 564.902Z" fill="#3F3D56"/>
<path d="M1293.11 528.087V435.778H1269.85V447.956L1262.53 439.634L1203.31 552.562L1193.44 562.435L1181.1 611.797L1203.31 666.097H1316.82V555.029L1293.11 528.087Z" fill="#CCCCCC"/>
<path d="M1203.31 552.562H1015.78V666.097H1203.31V552.562Z" fill="#F2F2F2"/>
<path d="M1177.4 588.35H1137.92V622.904H1177.4V588.35Z" fill="#3F3D56"/>
<path d="M1121.88 587.116H1087.33V666.097H1121.88V587.116Z" fill="#CCCCCC"/>
<path d="M1047.85 599.457V587.115H1033.05V599.457H1046.62H1047.85Z" fill="#3F3D56"/>
<path d="M1046.62 609.33H1033.05V621.67H1047.85V609.33H1046.62Z" fill="#3F3D56"/>
<path d="M1072.53 587.116H1057.72V599.457H1072.53V587.116Z" fill="#3F3D56"/>
<path d="M1072.53 609.33H1057.72V621.671H1072.53V609.33Z" fill="#3F3D56"/>
<path d="M1256.36 600.692V588.35H1241.56V600.692H1255.13H1256.36Z" fill="#3F3D56"/>
<path d="M1255.13 610.562H1241.56V622.905H1256.36V610.562H1255.13Z" fill="#3F3D56"/>
<path d="M1281.04 588.35H1266.23V600.69H1281.04V588.35Z" fill="#3F3D56"/>
<path d="M1281.04 610.563H1266.23V622.904H1281.04V610.563Z" fill="#3F3D56"/>
<path d="M1239.68 564.902L1232.28 552.562L1301.37 439.634H1479.03V456.911L1414.88 579.711L1340.85 594.521L1239.68 564.902Z" fill="#3F3D56"/>
<path d="M1509.62 528.087V435.778H1486.36V447.956L1479.03 439.634L1419.81 552.562L1409.94 562.435L1397.6 611.797L1419.81 666.097H1533.32V555.029L1509.62 528.087Z" fill="#CCCCCC"/>
<path d="M1419.81 552.562H1232.28V666.097H1419.81V552.562Z" fill="#F2F2F2"/>
<path d="M1393.9 588.35H1354.42V622.904H1393.9V588.35Z" fill="#3F3D56"/>
<path d="M1338.38 587.116H1303.84V666.097H1338.38V587.116Z" fill="#CCCCCC"/>
<path d="M1264.36 599.457V587.115H1249.55V599.457H1263.12H1264.36Z" fill="#3F3D56"/>
<path d="M1263.12 609.33H1249.55V621.67H1264.36V609.33H1263.12Z" fill="#3F3D56"/>
<path d="M1289.03 587.116H1274.23V599.457H1289.03V587.116Z" fill="#3F3D56"/>
<path d="M1289.03 609.33H1274.23V621.671H1289.03V609.33Z" fill="#3F3D56"/>
<path d="M1472.86 600.692V588.35H1458.06V600.692H1471.63H1472.86Z" fill="#3F3D56"/>
<path d="M1471.63 610.562H1458.06V622.905H1472.86V610.562H1471.63Z" fill="#3F3D56"/>
<path d="M1497.54 588.35H1482.73V600.69H1497.54V588.35Z" fill="#3F3D56"/>
<path d="M1497.54 610.563H1482.73V622.904H1497.54V610.563Z" fill="#3F3D56"/>
<path d="M1095.46 487.839L1093.51 484.591L1111.69 454.878H1158.44V459.425L1141.55 491.736L1122.08 495.63L1095.46 487.839Z" fill="#3F3D56"/>
<path d="M1158.44 454.878L1142.85 484.591L1140.26 487.189L1137.01 500.177L1142.85 514.465H1172.72V485.242L1158.44 454.878Z" fill="#CCCCCC"/>
<path d="M1142.85 484.592H1093.51V514.464H1142.85V484.592Z" fill="#F2F2F2"/>
<path d="M1114.42 497.464V491.571H1107.35V497.464H1113.83H1114.42Z" fill="#3F3D56"/>
<path d="M1113.83 502.178H1107.35V508.071H1114.42V502.178H1113.83Z" fill="#3F3D56"/>
<path d="M1126.2 491.572H1119.13V497.465H1126.2V491.572Z" fill="#3F3D56"/>
<path d="M1126.2 502.178H1119.13V508.071H1126.2V502.178Z" fill="#3F3D56"/>
<path d="M1313.75 486.049L1311.8 482.802L1329.98 453.089H1376.73V457.634L1359.85 489.945L1340.37 493.842L1313.75 486.049Z" fill="#3F3D56"/>
<path d="M1376.73 453.089L1361.14 482.802L1358.55 485.4L1355.3 498.389L1361.14 512.674H1391.01V483.451L1376.73 453.089Z" fill="#CCCCCC"/>
<path d="M1361.14 482.802H1311.8V512.674H1361.14V482.802Z" fill="#F2F2F2"/>
<path d="M1332.71 495.675V489.782H1325.64V495.675H1332.12H1332.71Z" fill="#3F3D56"/>
<path d="M1332.12 500.39H1325.64V506.28H1332.71V500.39H1332.12Z" fill="#3F3D56"/>
<path d="M1344.49 489.782H1337.42V495.675H1344.49V489.782Z" fill="#3F3D56"/>
<path d="M1344.49 500.388H1337.42V506.281H1344.49V500.388Z" fill="#3F3D56"/>
<path d="M1463.34 564.902L1455.94 552.562L1525.03 439.634H1702.69V456.911L1638.54 579.711L1564.51 594.521L1463.34 564.902Z" fill="#3F3D56"/>
<path d="M1733.28 455.473V435.778H1710.01V447.956L1702.69 439.634L1643.47 552.562L1633.6 562.435L1621.26 611.797L1643.47 666.097H1756.98V555.029L1733.28 455.473Z" fill="#CCCCCC"/>
<path d="M1643.47 552.562H1455.94V666.097H1643.47V552.562Z" fill="#F2F2F2"/>
<path d="M1617.56 588.35H1578.08V622.904H1617.56V588.35Z" fill="#3F3D56"/>
<path d="M1562.04 587.116H1527.5V666.097H1562.04V587.116Z" fill="#CCCCCC"/>
<path d="M1488.02 599.457V587.115H1473.21V599.457H1486.78H1488.02Z" fill="#3F3D56"/>
<path d="M1486.78 609.33H1473.21V621.67H1488.02V609.33H1486.78Z" fill="#3F3D56"/>
<path d="M1512.69 587.116H1497.89V599.457H1512.69V587.116Z" fill="#3F3D56"/>
<path d="M1512.69 609.33H1497.89V621.671H1512.69V609.33Z" fill="#3F3D56"/>
<path d="M1696.52 600.692V588.35H1681.72V600.692H1695.29H1696.52Z" fill="#3F3D56"/>
<path d="M1695.29 610.562H1681.72V622.905H1696.52V610.562H1695.29Z" fill="#3F3D56"/>
<path d="M1721.2 588.35H1706.39V600.69H1721.2V588.35Z" fill="#3F3D56"/>
<path d="M1721.2 610.563H1706.39V622.904H1721.2V610.563Z" fill="#3F3D56"/>
<path d="M1532.04 487.839L1530.1 484.591L1548.27 454.878H1595.02V459.425L1578.14 491.736L1558.66 495.63L1532.04 487.839Z" fill="#3F3D56"/>
<path d="M1595.02 454.878L1579.44 484.591L1576.84 487.189L1573.59 500.177L1579.44 514.465H1609.3V485.242L1595.02 454.878Z" fill="#CCCCCC"/>
<path d="M1579.44 484.592H1530.09V514.464H1579.44V484.592Z" fill="#F2F2F2"/>
<path d="M1551 497.464V491.571H1543.93V497.464H1550.41H1551Z" fill="#3F3D56"/>
<path d="M1550.41 502.178H1543.93V508.071H1551V502.178H1550.41Z" fill="#3F3D56"/>
<path d="M1562.78 491.572H1555.71V497.465H1562.78V491.572Z" fill="#3F3D56"/>
<path d="M1562.78 502.178H1555.71V508.071H1562.78V502.178Z" fill="#3F3D56"/>
<path d="M1969 664.871H1.78906V668.451H1969V664.871Z" fill="white"/>
<line x1="1261.82" y1="606.744" x2="1068.82" y2="312.744" stroke="#D8D8D8" stroke-width="10" stroke-dasharray="50 10"/>
<path d="M1967.21 999.55H0V1003.13H1967.21V999.55Z" fill="white"/>
<path d="M1840.33 428.883H1834.36V664.871H1840.33V428.883Z" fill="#3F3D56"/>
<path d="M1898.62 497.563C1898.63 500.159 1898.6 502.743 1898.54 505.314C1896.4 598.211 1785.06 598.724 1782.06 505.851C1781.98 503.281 1781.93 500.697 1781.92 498.101C1781.44 394.261 1839.4 309.812 1839.4 309.812C1839.4 309.812 1898.14 393.723 1898.62 497.563Z" fill="#57B894"/>
<path d="M657.789 895.979H594.835V905.975H657.789V895.979Z" fill="#3F3D56"/>
<path d="M1112.95 898.217L1099.96 901.223L606.328 901.487L601.889 891.142C594.147 873.397 591.49 853.849 594.214 834.681C596.34 820.394 601.668 806.198 613.768 800.032L635.674 654.09L908.778 653.602L1014.44 738.847C1014.44 738.847 1064.28 737.951 1091.36 771.67C1099.93 782.35 1106.22 796.5 1107.91 815.26L1108.98 832.801L1112.95 898.217Z" fill="#313131"/>
<path d="M1004.53 956.747C1038.2 956.747 1065.49 929.45 1065.49 895.777C1065.49 862.104 1038.2 834.806 1004.53 834.806C970.867 834.806 943.576 862.104 943.576 895.777C943.576 929.45 970.867 956.747 1004.53 956.747Z" fill="#3F3D56"/>
<path d="M1004.53 927.867C1022.25 927.867 1036.61 913.5 1036.61 895.777C1036.61 878.054 1022.25 863.687 1004.53 863.687C986.813 863.687 972.45 878.054 972.45 895.777C972.45 913.5 986.813 927.867 1004.53 927.867Z" fill="#CCCCCC"/>
<path d="M703.753 956.909C737.418 956.909 764.708 929.611 764.708 895.938C764.708 862.265 737.418 834.967 703.753 834.967C670.088 834.967 642.798 862.265 642.798 895.938C642.798 929.611 670.088 956.909 703.753 956.909Z" fill="#3F3D56"/>
<path d="M703.753 928.028C721.471 928.028 735.835 913.661 735.835 895.938C735.835 878.215 721.471 863.848 703.753 863.848C686.035 863.848 671.671 878.215 671.671 895.938C671.671 913.661 686.035 928.028 703.753 928.028Z" fill="#CCCCCC"/>
<path d="M972.46 728.882L825.006 728.946H807.007L776.615 728.967V726.751L776.593 700.02L776.572 670.006H796.79L814.789 669.984L846.675 669.963H864.674L901.484 669.941L972.46 728.882Z" fill="white"/>
<path d="M752.623 728.989L674.695 729.032L674.673 713.737V687.009L674.652 670.07H686.063L704.062 670.049L752.602 670.027L752.623 728.989Z" fill="white"/>
<path d="M786.631 772.956H776.639V791.946H786.631V772.956Z" fill="#3F3D56"/>
<path d="M951.496 755.873L951.491 745.878L932.505 745.888L932.51 755.883L951.496 755.873Z" fill="#3F3D56"/>
<path d="M939.49 708.496H940.589C946.128 708.496 951.44 710.697 955.357 714.615C959.274 718.532 961.474 723.846 961.474 729.386C961.474 734.926 959.274 740.24 955.357 744.157C951.44 748.075 946.128 750.276 940.589 750.276H939.49V708.496Z" fill="#3F3D56"/>
<path d="M1108.98 832.802C1101.42 833.624 1093.82 831.752 1087.51 827.516C1081.2 823.28 1076.58 816.952 1074.47 809.647C1072.37 802.341 1072.91 794.526 1076 787.579C1079.09 780.632 1084.53 774.998 1091.36 771.67C1099.93 782.351 1106.22 796.501 1107.91 815.261L1108.98 832.802Z" fill="#3F3D56"/>
<path d="M814.789 669.984L776.614 726.751L776.593 700.021L796.789 670.006L814.789 669.984Z" fill="#F2F2F2"/>
<path d="M704.062 670.049L674.673 713.737V687.009L686.062 670.07L704.062 670.049Z" fill="#F2F2F2"/>
<path d="M864.674 669.963L825.006 728.947H807.007L846.675 669.963H864.674Z" fill="#F2F2F2"/>
<path d="M1458.61 770.364L1496.85 770.384L1496.86 764.313L1458.62 764.292L1458.61 770.364Z" fill="#3F3D56"/>
<path d="M1182.13 765.663L1190.02 767.488L1489.87 767.649L1492.57 761.365C1497.27 750.586 1498.89 738.712 1497.23 727.068C1495.94 718.39 1492.71 709.766 1485.36 706.021L1472.05 617.37L1306.15 617.073L1241.97 668.855C1241.97 668.855 1211.69 668.31 1195.25 688.793C1189.31 696.409 1185.81 705.635 1185.19 715.271L1184.54 725.926L1182.13 765.663Z" fill="#3F3D56"/>
<path d="M1247.99 801.216C1268.44 801.216 1285.02 784.634 1285.02 764.18C1285.02 743.726 1268.44 727.144 1247.99 727.144C1227.54 727.144 1210.96 743.726 1210.96 764.18C1210.96 784.634 1227.54 801.216 1247.99 801.216Z" fill="#3F3D56"/>
<path d="M1247.99 783.672C1258.75 783.672 1267.48 774.945 1267.48 764.18C1267.48 753.414 1258.75 744.687 1247.99 744.687C1237.23 744.687 1228.5 753.414 1228.5 764.18C1228.5 774.945 1237.23 783.672 1247.99 783.672Z" fill="#CCCCCC"/>
<path d="M1430.69 801.314C1451.14 801.314 1467.72 784.732 1467.72 764.278C1467.72 743.823 1451.14 727.242 1430.69 727.242C1410.25 727.242 1393.67 743.823 1393.67 764.278C1393.67 784.732 1410.25 801.314 1430.69 801.314Z" fill="#3F3D56"/>
<path d="M1430.69 783.77C1441.46 783.77 1450.18 775.043 1450.18 764.278C1450.18 753.512 1441.46 744.785 1430.69 744.785C1419.93 744.785 1411.21 753.512 1411.21 764.278C1411.21 775.043 1419.93 783.77 1430.69 783.77Z" fill="#CCCCCC"/>
<path d="M1267.47 662.802L1357.04 662.842H1367.97L1386.44 662.855V661.507L1386.45 645.27L1386.46 627.037H1374.18L1363.25 627.024L1343.88 627.011H1332.94L1310.58 626.999L1267.47 662.802Z" fill="white"/>
<path d="M1401.01 662.868L1448.35 662.893L1448.36 653.602V637.366L1448.37 627.077H1441.44L1430.51 627.065L1401.02 627.052L1401.01 662.868Z" fill="white"/>
<path d="M1380.35 701.107L1386.42 701.11L1386.42 689.575L1380.35 689.571L1380.35 701.107Z" fill="#3F3D56"/>
<path d="M1291.74 679.203L1291.74 673.131L1280.21 673.125L1280.21 679.197L1291.74 679.203Z" fill="#3F3D56"/>
<path d="M1287.49 675.8L1286.82 675.8C1283.46 675.798 1280.23 674.46 1277.86 672.079C1275.48 669.698 1274.14 666.469 1274.15 663.104C1274.15 659.738 1275.49 656.511 1277.87 654.133C1280.25 651.755 1283.47 650.419 1286.84 650.421L1287.51 650.422L1287.49 675.8Z" fill="#3F3D56"/>
<path d="M1184.54 725.926C1189.13 726.425 1193.75 725.288 1197.59 722.715C1201.42 720.142 1204.23 716.298 1205.5 711.861C1206.78 707.423 1206.46 702.676 1204.58 698.456C1202.7 694.236 1199.4 690.814 1195.25 688.792C1189.31 696.409 1185.81 705.635 1185.19 715.271L1184.54 725.926Z" fill="#3F3D56"/>
<path d="M1363.25 627.024L1386.44 661.507L1386.45 645.27L1374.18 627.037L1363.25 627.024Z" fill="#F2F2F2"/>
<path d="M1430.51 627.064L1448.36 653.602V637.365L1441.44 627.077L1430.51 627.064Z" fill="#F2F2F2"/>
<path d="M1332.94 627.011L1357.04 662.842H1367.97L1343.88 627.011H1332.94Z" fill="#F2F2F2"/>
<path d="M342.581 1041.99C342.581 1041.99 342.581 1109.86 358.154 1127.66C358.154 1127.66 361.491 1136.56 362.603 1139.9C363.225 1141.8 363.968 1143.66 364.828 1145.46V1149.91C364.828 1149.91 394.862 1146.58 398.199 1138.79L392.637 1132.11C392.637 1132.11 391.524 1131 392.637 1127.66C392.827 1127.3 392.916 1126.89 392.895 1126.48C392.873 1126.07 392.742 1125.67 392.514 1125.33C392.287 1124.99 391.971 1124.72 391.602 1124.54C391.232 1124.36 390.821 1124.29 390.412 1124.32L382.626 1106.52L383.738 1033.09L378.176 931.838L330.345 929.612L342.581 1041.99Z" fill="#2F2E41"/>
<path d="M367.052 1143.24C367.052 1143.24 359.266 1166.6 367.052 1167.72C374.838 1168.83 442.692 1169.94 441.58 1161.04C440.467 1152.14 418.22 1153.25 418.22 1153.25L394.861 1138.79L367.052 1143.24Z" fill="#2F2E41"/>
<path d="M298.086 931.837C297.131 942.302 299.464 952.803 304.76 961.878C313.659 977.455 308.098 1029.75 308.098 1029.75L229.121 1098.73C229.121 1098.73 244.694 1125.44 250.255 1124.32C255.817 1123.21 343.693 1052 343.693 1052L378.176 936.288L298.086 931.837Z" fill="#2F2E41"/>
<path d="M230.206 1095.78C230.206 1095.78 206.307 1101.71 209.536 1108.89C212.765 1116.06 248.151 1173.98 255.072 1168.28C261.992 1162.57 249.143 1144.37 249.143 1144.37L248.851 1116.9L230.206 1095.78Z" fill="#2F2E41"/>
<path d="M341.468 750.478C355.598 750.478 367.052 739.021 367.052 724.887C367.052 710.754 355.598 699.297 341.468 699.297C327.339 699.297 315.884 710.754 315.884 724.887C315.884 739.021 327.339 750.478 341.468 750.478Z" fill="#FFB8B8"/>
<path d="M321.338 733.917L322.47 766.847L343.997 775.355C343.997 775.355 346.108 741.636 349.088 739.767C352.068 737.897 321.338 733.917 321.338 733.917Z" fill="#FFB8B8"/>
<path d="M349.254 779.406C349.254 779.406 319.221 749.365 311.434 750.478C303.648 751.591 303.648 754.929 303.648 757.154C303.648 759.379 305.873 760.492 303.648 761.604C301.423 762.717 299.199 761.604 299.199 764.942C299.199 768.28 279.176 801.659 285.85 838.376C292.524 875.093 300.311 892.895 296.974 912.922C293.637 932.95 295.861 937.4 295.861 937.4C295.861 937.4 379.288 944.076 380.4 936.288C381.512 928.499 377.063 932.95 382.625 927.386C388.187 921.823 385.962 921.823 385.962 918.485C385.962 915.148 361.49 779.406 349.254 779.406Z" fill="#575A89"/>
<path d="M333.682 930.725C333.682 930.725 347.03 962.991 357.041 955.203C367.052 947.414 352.592 920.711 352.592 920.711L333.682 930.725Z" fill="#FFB8B8"/>
<path d="M301.423 781.632C301.423 781.632 275.289 784.624 285.019 832.64C294.749 880.656 332.569 936.288 332.569 936.288L358.153 924.049L324.783 858.403L332.569 817.236C332.569 817.236 337.019 778.294 301.423 781.632Z" fill="#575A89"/>
<path opacity="0.2" d="M324.226 858.96L360.933 920.154L357.598 923.492L324.226 858.96Z" fill="black"/>
<path opacity="0.2" d="M304.797 887.477L334.238 935.731H324.226L304.797 887.477Z" fill="black"/>
<path d="M329.889 740.265C332.06 739.385 334.31 738.715 336.608 738.263C340.589 736.916 343.955 734.187 346.098 730.571C348.24 726.955 349.016 722.69 348.286 718.551C347.969 717.498 347.827 716.401 347.865 715.302C348.18 714.116 348.839 713.051 349.759 712.24C350.68 711.429 351.82 710.909 353.035 710.746C355.465 710.463 357.871 710.004 360.235 709.375C361.965 708.596 363.461 707.38 364.577 705.846C365.693 704.312 366.389 702.513 366.598 700.628C366.962 696.834 366.117 693.022 364.185 689.738L363.323 692.217C362.01 691.105 361.035 689.646 360.51 688.007C359.531 688.171 358.611 688.584 357.837 689.207C357.064 689.829 356.463 690.639 356.092 691.56C354.71 692.375 354.511 689.027 352.984 688.533C352.312 688.449 351.633 688.616 351.078 689.003C348.001 690.439 344.426 689.211 341.125 688.416C335.41 687.044 329.452 687.037 323.734 688.395C319.877 689.152 316.313 690.986 313.455 693.685C311.329 696.1 309.695 698.907 308.647 701.949C305.447 709.213 304.113 717.161 304.767 725.071C305.569 731.486 308.252 737.52 312.478 742.412C314.68 744.949 321.863 753.801 325.801 752.292C330.75 750.395 324.058 743.348 329.889 740.265Z" fill="#2F2E41"/>
<path opacity="0.2" d="M371.301 975.169L342.029 1051.94L343.508 1052.5L372.78 975.733L371.301 975.169Z" fill="black"/>
<path d="M349.097 785.515C349.971 785.515 350.679 784.807 350.679 783.932C350.679 783.058 349.971 782.35 349.097 782.35C348.223 782.35 347.515 783.058 347.515 783.932C347.515 784.807 348.223 785.515 349.097 785.515Z" fill="#D0CDE1"/>
<path d="M362.548 828.251C362.379 828.251 362.214 828.197 362.078 828.096C361.942 827.996 361.842 827.855 361.792 827.693L348.341 784.167C348.279 783.966 348.3 783.749 348.398 783.564C348.495 783.378 348.663 783.239 348.863 783.177C349.064 783.115 349.281 783.135 349.466 783.233C349.652 783.331 349.791 783.498 349.853 783.699L363.303 827.226C363.34 827.345 363.348 827.47 363.327 827.592C363.306 827.714 363.257 827.83 363.184 827.929C363.11 828.029 363.014 828.11 362.904 828.166C362.793 828.222 362.671 828.251 362.548 828.251Z" fill="#D0CDE1"/>
<path d="M1783.78 766.434C1798.53 766.434 1810.49 754.47 1810.49 739.711C1810.49 724.951 1798.53 712.987 1783.78 712.987C1769.02 712.987 1757.06 724.951 1757.06 739.711C1757.06 754.47 1769.02 766.434 1783.78 766.434Z" fill="#2F2E41"/>
<path d="M1745.8 901.59L1741.75 909.694C1741.75 909.694 1728.79 930.762 1737.7 933.193C1746.61 935.624 1749.45 917.392 1749.45 917.392L1751.07 907.668L1745.8 901.59Z" fill="#A0616A"/>
<path d="M1762 860.265L1751.87 887.004L1741.75 905.642L1754.31 913.745L1764.43 895.918L1776.59 867.962L1762 860.265Z" fill="#D0CDE1"/>
<path d="M1790.76 985.459L1811.01 1006.93L1846.66 1067.3L1862.05 1062.44L1843.82 1026.38C1843.82 1026.38 1833.29 998.83 1828.03 995.183C1822.76 991.537 1813.85 967.632 1813.85 967.632L1804.13 959.934L1790.76 985.459Z" fill="#A0616A"/>
<path d="M1749.04 997.209L1747.42 1004.1C1747.42 1004.1 1742.15 1025.57 1734.05 1035.29L1714.61 1068.92L1700.03 1064.06L1728.79 995.994L1749.04 997.209Z" fill="#A0616A"/>
<path d="M1779.22 770.926C1791.3 770.926 1801.09 761.131 1801.09 749.047C1801.09 736.964 1791.3 727.168 1779.22 727.168C1767.14 727.168 1757.34 736.964 1757.34 749.047C1757.34 761.131 1767.14 770.926 1779.22 770.926Z" fill="#A0616A"/>
<path d="M1796.43 759.784L1799.27 783.284L1781.04 792.197C1781.04 792.197 1781.04 771.939 1776.18 766.672L1796.43 759.784Z" fill="#A0616A"/>
<path d="M1853.55 911.314L1855.57 918.202C1855.57 918.202 1868.94 944.538 1857.6 944.538C1846.25 944.538 1844.23 920.228 1844.23 920.228L1843.01 914.151L1853.55 911.314Z" fill="#A0616A"/>
<path d="M1760.38 883.764L1763.22 903.617L1728.79 976.14L1726.76 997.209L1791.17 1005.31L1805.34 966.011L1828.03 995.183L1815.07 965.201C1815.07 965.201 1811.01 944.943 1812.23 939.676C1813.44 934.409 1811.42 908.074 1807.77 901.591C1804.13 895.108 1760.38 883.764 1760.38 883.764Z" fill="#2F2E41"/>
<path d="M1844.23 1067.3L1863.67 1060.82L1869.75 1070.54C1869.75 1070.54 1881.49 1073.78 1881.09 1082.29C1881.15 1090.03 1881.82 1097.76 1883.11 1105.39L1874.61 1106.2L1871.37 1089.59L1854.76 1109.44C1854.76 1109.44 1825.19 1111.06 1823.98 1106.2C1822.76 1101.34 1845.04 1096.07 1845.04 1096.07L1848.68 1078.65L1844.23 1067.3Z" fill="#2F2E41"/>
<path d="M1698.81 1061.63L1716.64 1067.3V1071.35C1716.64 1071.35 1721.9 1079.46 1721.09 1086.34C1720.28 1093.23 1716.64 1109.84 1716.64 1109.84H1707.32L1707.72 1094.45L1689.09 1109.84C1689.09 1109.84 1655.88 1107.41 1655.88 1102.15C1655.88 1096.88 1681.4 1093.23 1681.4 1093.23L1698.81 1061.63Z" fill="#2F2E41"/>
<path d="M1779.82 787.335C1779.82 787.335 1796.43 770.723 1804.13 774.775V782.068C1804.13 782.068 1815.47 787.335 1815.87 795.438C1816.28 803.541 1828.03 877.281 1828.03 877.281L1855.57 973.304C1855.57 973.304 1847.06 986.674 1815.87 971.684L1796.43 905.642C1796.43 905.642 1817.09 980.192 1806.96 978.976C1796.84 977.761 1757.14 885.384 1757.14 885.384L1759.98 841.627C1759.98 841.627 1753.5 822.584 1766.46 809.619L1779.82 787.335Z" fill="#D0CDE1"/>
<path d="M1808.18 789.766C1808.18 789.766 1815.06 792.197 1819.93 802.731C1824.79 813.265 1849.09 887.41 1849.09 887.41L1855.57 913.745L1837.34 918.202L1828.43 891.056L1795.22 829.472C1795.22 829.472 1789.95 797.059 1808.18 789.766Z" fill="#D0CDE1"/>
<path d="M1806.58 731.593C1806.49 729.079 1805.78 726.624 1804.52 724.447C1803.26 722.269 1801.48 720.435 1799.35 719.105C1801.57 714.639 1803.56 709.542 1802.09 704.773C1801.5 702.923 1800.42 701.264 1798.97 699.968C1797.53 698.672 1795.76 697.786 1793.85 697.4C1791.73 697.107 1789.57 697.135 1787.45 697.482L1777.47 698.615C1774.2 698.742 1771.01 699.603 1768.12 701.135C1766.68 702.042 1765.48 703.273 1764.61 704.729C1763.74 706.184 1763.22 707.825 1763.1 709.517C1762.98 711.209 1763.26 712.906 1763.91 714.472C1764.57 716.038 1765.58 717.428 1766.87 718.531C1759.88 724.118 1755.22 728.359 1752.04 736.72C1757.37 732.376 1764.02 729.992 1770.9 729.967C1775.57 729.714 1780.16 731.294 1783.68 734.37C1787.21 737.447 1789.4 741.778 1789.79 746.443C1789.74 748.783 1789.95 751.121 1790.4 753.418C1790.65 754.563 1791.29 755.585 1792.21 756.315C1793.13 757.045 1794.27 757.438 1795.44 757.43C1795.12 757.476 1793.14 751.533 1794.53 748.79L1794.56 748.746C1794.86 748.179 1795.37 747.745 1795.97 747.528C1796.51 747.321 1797.09 747.231 1797.67 747.264C1798.25 747.298 1798.82 747.454 1799.33 747.723C1799.84 747.992 1800.29 748.367 1800.65 748.823C1801.01 749.279 1801.27 749.807 1801.4 750.37C1802.18 753.346 1803.42 757.144 1804.5 756.136C1805.92 754.816 1805.32 743.174 1805.71 741.37C1806.47 738.171 1806.76 734.877 1806.58 731.593Z" fill="#2F2E41"/>
<path d="M1799.24 719.026C1799.24 719.026 1777.28 720.458 1766.79 718.548L1799.24 719.026Z" fill="#D0CDE1"/>
<path d="M1797.99 716.088C1800.22 711.622 1802.2 706.524 1800.74 701.755C1800.05 699.605 1798.71 697.723 1796.91 696.371C1798.29 697.005 1799.52 697.92 1800.53 699.056C1801.54 700.192 1802.3 701.525 1802.76 702.971C1804.23 707.739 1802.24 712.837 1800.02 717.303C1798.25 717.04 1802.42 718.448 1797.99 716.088Z" fill="#2F2E41"/>
<path opacity="0.2" d="M1790.96 829.675L1822.56 885.587L1834.71 915.974L1817.7 886.803L1790.96 829.675Z" fill="black"/>
<path d="M297.416 1147.46C297.416 1147.46 287.511 1169.03 279.47 1175.07C271.327 1169.01 261.229 1147.46 261.229 1147.46C261.229 1147.46 251.325 1169.03 243.283 1175.07C235.141 1169.01 225.042 1147.46 225.042 1147.46C225.042 1147.46 196.913 1176.23 196.991 1189.85C196.993 1190.19 197.013 1190.53 197.049 1190.86C198.009 1199.78 227.091 1202.06 243.067 1197.85C254.976 1200.57 267.345 1200.57 279.254 1197.85C295.162 1202.12 324.835 1199.68 325.703 1190.66C325.735 1190.32 325.751 1189.98 325.749 1189.64C325.671 1176.02 297.416 1147.46 297.416 1147.46Z" fill="#3AD29F"/>
<path d="M888.36 1147.46C888.36 1147.46 878.455 1169.03 870.414 1175.07C862.271 1169.01 852.173 1147.46 852.173 1147.46C852.173 1147.46 842.269 1169.03 834.227 1175.07C826.084 1169.01 815.986 1147.46 815.986 1147.46C815.986 1147.46 787.857 1176.23 787.935 1189.85C787.937 1190.19 787.956 1190.53 787.993 1190.86C788.953 1199.78 818.035 1202.06 834.011 1197.85C845.92 1200.57 858.289 1200.57 870.198 1197.85C886.106 1202.12 915.779 1199.68 916.647 1190.66C916.679 1190.32 916.695 1189.98 916.693 1189.64C916.615 1176.02 888.36 1147.46 888.36 1147.46Z" fill="#3AD29F"/>
<path d="M1475.48 1147.46C1475.48 1147.46 1465.58 1169.03 1457.53 1175.07C1449.39 1169.01 1439.29 1147.46 1439.29 1147.46C1439.29 1147.46 1429.39 1169.03 1421.35 1175.07C1413.2 1169.01 1403.11 1147.46 1403.11 1147.46C1403.11 1147.46 1374.98 1176.23 1375.06 1189.85C1375.06 1190.19 1375.08 1190.53 1375.11 1190.86C1376.07 1199.78 1405.15 1202.06 1421.13 1197.85C1433.04 1200.57 1445.41 1200.57 1457.32 1197.85C1473.23 1202.12 1502.9 1199.68 1503.77 1190.66C1503.8 1190.32 1503.81 1189.98 1503.81 1189.64C1503.73 1176.02 1475.48 1147.46 1475.48 1147.46Z" fill="#3AD29F"/>
<path d="M889.364 198.243L889.105 198.384C886.305 199.916 883.167 200.724 879.975 200.736C876.783 200.747 873.639 199.961 870.828 198.449C870.666 198.361 870.505 198.275 870.345 198.19C867.534 196.689 864.395 195.909 861.209 195.92C858.023 195.931 854.889 196.733 852.089 198.253L851.847 198.384C849.047 199.916 845.909 200.724 842.717 200.736C839.525 200.747 836.381 199.961 833.57 198.449C833.402 198.358 833.235 198.268 833.069 198.18C830.291 196.686 827.188 195.902 824.034 195.896C820.88 195.89 817.774 196.664 814.991 198.148C806.49 202.727 794.997 210.557 795.048 219.399C795.05 219.749 795.07 220.098 795.107 220.446C796.096 229.628 826.039 231.968 842.488 227.64C854.75 230.439 867.484 230.439 879.746 227.64C896.125 232.037 926.677 229.518 927.57 220.23C927.603 219.882 927.619 219.533 927.617 219.183C927.567 210.336 915.973 202.589 907.418 198.074C904.627 196.614 901.519 195.865 898.37 195.894C895.221 195.924 892.127 196.731 889.364 198.243Z" fill="#E6E6E6"/>
<path d="M1273.97 105.402L1273.71 105.544C1270.91 107.075 1267.77 107.884 1264.58 107.895C1261.39 107.906 1258.24 107.12 1255.43 105.608C1255.27 105.52 1255.11 105.434 1254.95 105.349C1252.14 103.848 1249 103.068 1245.81 103.079C1242.63 103.09 1239.49 103.892 1236.69 105.412L1236.45 105.544C1233.65 107.075 1230.51 107.884 1227.32 107.895C1224.13 107.906 1220.98 107.12 1218.17 105.608C1218 105.517 1217.84 105.428 1217.67 105.339C1214.89 103.845 1211.79 103.061 1208.64 103.055C1205.48 103.05 1202.38 103.823 1199.59 105.307C1191.09 109.886 1179.6 117.716 1179.65 126.558C1179.65 126.908 1179.67 127.257 1179.71 127.605C1180.7 136.787 1210.64 139.127 1227.09 134.8C1239.35 137.598 1252.09 137.598 1264.35 134.8C1280.73 139.196 1311.28 136.677 1312.17 127.389C1312.21 127.041 1312.22 126.692 1312.22 126.342C1312.17 117.495 1300.58 109.748 1292.02 105.233C1289.23 103.773 1286.12 103.024 1282.97 103.054C1279.82 103.083 1276.73 103.89 1273.97 105.402Z" fill="#E6E6E6"/>
<path d="M1967.21 1196.42H0V1200H1967.21V1196.42Z" fill="white"/>
<path d="M1295 162.141C1295 138.951 1289.11 116.228 1277.99 96.5562C1266.87 76.8847 1250.98 61.0552 1232.12 50.8694C1213.26 40.6836 1192.2 36.5506 1171.31 38.9408C1150.43 41.331 1130.58 50.1484 1114.01 64.3894C1099.91 46.365 1081.71 32.8184 1061.3 25.1443C1040.88 17.4702 1018.98 15.9461 997.853 20.7288C976.726 25.5116 957.134 36.4285 941.096 52.3552C925.058 68.282 913.152 88.643 906.606 111.342C895.652 100.586 882.497 92.9293 868.272 89.0316C854.047 85.1339 839.178 85.1113 824.943 88.9658C810.709 92.8202 797.535 100.436 786.554 111.159C775.574 121.882 767.116 135.391 761.907 150.523C756.699 165.656 754.895 181.96 756.653 198.032C758.411 214.105 763.676 229.465 771.997 242.793C780.317 256.12 791.444 267.016 804.42 274.542C817.396 282.068 831.833 286 846.489 286C847.895 286 849.293 285.959 850.684 285.889C852.12 285.958 853.562 286 855.013 286H1194.68C1219.11 285.998 1242.68 275.947 1260.78 257.804C1278.87 239.66 1290.21 214.725 1292.57 187.855C1294.19 179.4 1295 170.782 1295 162.141Z" fill="white"/>
<path d="M990.7 128.911H1035.84V147.125H1008.47V164.567H1035.84V182.627H1008.47V217.666H990.7V128.911ZM1087.89 147.125V128.911H1042.75V147.125H1087.89ZM1065.61 182.627V164.567H1042.75V182.627H1065.61Z" fill="#24292E"/>
<path d="M990.7 128.911H1035.84V147.125H1008.47V164.567H1035.84V182.627H1008.47V217.666H990.7V128.911ZM1087.89 147.125V128.911H1042.75V147.125H1087.89ZM1065.61 182.627V164.567H1042.75V182.627H1065.61Z" fill="#24292E"/>
<path d="M456 777.5L848 316.5" stroke="#D8D8D8" stroke-width="10" stroke-dasharray="50 10"/>
<line x1="1678.66" y1="749.725" x2="1191.66" y2="313.725" stroke="#D8D8D8" stroke-width="10" stroke-dasharray="50 10"/>
<line x1="860.184" y1="638.657" x2="952.184" y2="308.657" stroke="#D8D8D8" stroke-width="10" stroke-dasharray="50 10"/>
</svg>
