<svg width="1138" height="742" viewBox="0 0 1138 742" fill="none" xmlns="http://www.w3.org/2000/svg">
<g clip-path="url(#clip0)">
<path d="M223.43 472.27L217.14 468.36C216.54 467.99 215.95 467.59 215.35 467.21C228.741 464.911 240.953 458.125 249.976 447.967C259 437.809 264.299 424.883 265.003 411.314C265.707 397.745 261.773 384.34 253.849 373.302C245.925 362.265 234.482 354.252 221.4 350.58L221.71 375.25L208.16 348.42H207.97C200.118 348.053 192.271 349.236 184.876 351.902C177.482 354.568 170.685 358.665 164.873 363.958C159.062 369.251 154.351 375.637 151.008 382.751C147.665 389.865 145.756 397.568 145.39 405.42C145.33 406.56 145.39 407.69 145.39 408.82C140.68 403.44 136.39 397.67 133.56 391.35C127.83 378.56 127.72 364.06 128.17 346.45C129.07 311.54 130.58 276.37 132.54 241.31C146.689 239.735 159.814 233.167 169.557 222.786C179.3 212.405 185.024 198.891 185.7 184.67C185.78 182.84 185.75 181.03 185.7 179.24C185.7 178.79 185.7 178.34 185.63 177.9C185.51 176.16 185.35 174.44 185.08 172.74C185.08 172.46 184.98 172.19 184.93 171.92C184.69 170.48 184.39 169.06 184.05 167.65C183.92 167.13 183.79 166.65 183.65 166.08C183.23 164.56 182.77 163.08 182.23 161.57C182.05 161.08 181.84 160.57 181.65 160.11C181.23 159.02 180.77 157.94 180.28 156.88C180.02 156.32 179.77 155.76 179.5 155.21C179.42 155.07 179.37 154.92 179.29 154.78C172.971 142.294 162.473 132.42 149.624 126.876C136.775 121.332 122.389 120.47 108.97 124.44L109.37 156.54L95.9699 130.02C84.9511 136.333 76.2381 146.002 71.1021 157.616C65.9661 169.23 64.6759 182.181 67.4199 194.58H67.3599C67.4499 195.01 67.5799 195.41 67.6799 195.84C67.8699 196.63 68.0699 197.41 68.2899 198.19C68.5699 199.19 68.8899 200.19 69.2199 201.19C69.4699 201.92 69.7099 202.66 69.9899 203.39C70.3999 204.45 70.8599 205.48 71.3199 206.51C71.5899 207.11 71.8299 207.73 72.1199 208.32C72.8799 209.873 73.7066 211.383 74.5999 212.85C74.9099 213.37 75.2599 213.85 75.5999 214.36C76.2399 215.36 76.8799 216.36 77.5999 217.29C78.0299 217.88 78.4899 218.44 78.9399 219.02C79.5999 219.85 80.2699 220.67 80.9399 221.46C81.4299 222.03 81.9399 222.57 82.4499 223.12C83.1899 223.89 83.9399 224.64 84.7199 225.38C85.2299 225.87 85.7199 226.38 86.2899 226.84C87.1699 227.62 88.0899 228.37 89.0199 229.1C89.4899 229.46 89.9499 229.85 90.4299 230.21C91.8499 231.21 93.3099 232.21 94.8199 233.21C95.0999 233.39 95.4099 233.53 95.6899 233.7C96.9599 234.44 98.2399 235.14 99.5599 235.79C100.13 236.07 100.71 236.31 101.29 236.57C102.37 237.06 103.46 237.57 104.58 237.95C105.23 238.2 105.89 238.43 106.58 238.66C107.68 239.03 108.8 239.37 109.93 239.66C110.59 239.84 111.26 240.03 111.93 240.19C113.15 240.48 114.4 240.72 115.66 240.94L115.9 240.99C115.08 255.777 114.347 270.573 113.7 285.38C110.136 278.049 105.11 271.524 98.9326 266.206C92.7549 260.887 85.5553 256.888 77.7759 254.453C69.9964 252.018 61.8014 251.199 53.6939 252.046C45.5865 252.894 37.7378 255.389 30.6299 259.38L41.2099 288.38L19.4199 267.38C7.75122 278.05 0.795157 292.915 0.0799125 308.71C-0.198858 314.251 0.312948 319.803 1.59991 325.2C4.33598 336.876 10.5171 347.46 19.3416 355.581C28.1661 363.701 39.227 368.983 51.0896 370.741C62.9523 372.499 75.0695 370.652 85.8698 365.44C96.6701 360.228 105.655 351.891 111.66 341.51C111.66 343.01 111.56 344.51 111.52 346.02C111.12 361.56 110.62 380.9 118.37 398.17C123.62 409.87 132.06 419.37 140.37 427.89C145.8 433.44 151.43 438.8 157.2 443.99C162.875 451.622 170.286 457.792 178.82 461.99C188.3 469.3 198.12 476.17 208.27 482.51L214.61 486.45C220.31 489.98 226.15 493.61 231.87 497.38C230.87 497.28 229.87 497.17 228.87 497.12C216.179 496.529 203.629 499.989 193.034 506.999C182.439 514.01 174.348 524.208 169.93 536.12L207.33 566.55L166.19 557.01C166.203 567.132 168.781 577.085 173.683 585.941C178.585 594.796 185.652 602.265 194.223 607.649C202.793 613.033 212.589 616.157 222.695 616.729C232.8 617.301 242.886 615.302 252.01 610.92C251.09 612.08 250.163 613.233 249.23 614.38C247.39 616.667 245.573 618.94 243.78 621.2C219.44 652.02 212.67 681.29 224.72 703.6L239.38 695.68C227.65 673.97 245.29 646.17 256.85 631.53C258.61 629.297 260.397 627.063 262.21 624.83C277.78 605.46 295.4 583.58 294.97 556.7C294.32 516.21 254.97 491.85 223.43 472.27Z" fill="#F2F2F2"/>
<path d="M802.44 350.27L808.73 346.36C809.33 345.99 809.92 345.59 810.52 345.21C797.131 342.905 784.924 336.113 775.906 325.951C766.888 315.789 761.595 302.862 760.897 289.293C760.199 275.725 764.137 262.323 772.065 251.289C779.993 240.256 791.438 232.247 804.52 228.58L804.21 253.25L817.76 226.42H817.93C825.782 226.053 833.629 227.236 841.024 229.902C848.418 232.568 855.215 236.665 861.027 241.958C866.838 247.251 871.549 253.637 874.892 260.751C878.235 267.865 880.144 275.568 880.51 283.42C880.57 284.56 880.51 285.69 880.51 286.82C885.22 281.44 889.51 275.67 892.34 269.35C898.07 256.56 898.18 242.06 897.73 224.45C896.83 189.54 895.32 154.37 893.36 119.31C879.211 117.735 866.086 111.167 856.343 100.786C846.6 90.405 840.876 76.8909 840.2 62.6699C840.12 60.8399 840.15 59.0299 840.2 57.2399C840.2 56.7899 840.2 56.3399 840.27 55.8999C840.39 54.1599 840.55 52.4399 840.82 50.7399C840.82 50.4599 840.92 50.1899 840.97 49.9199C841.21 48.4799 841.51 47.0599 841.85 45.6499C841.98 45.1299 842.11 44.6499 842.25 44.0799C842.67 42.5599 843.13 41.0799 843.67 39.5699C843.85 39.0799 844.06 38.5699 844.25 38.1099C844.67 37.0199 845.13 35.9399 845.62 34.8799C845.88 34.3199 846.13 33.7599 846.41 33.2099C846.48 33.0699 846.53 32.9199 846.61 32.7799C852.926 20.3008 863.417 10.4303 876.257 4.88528C889.098 -0.659771 903.475 -1.52859 916.89 2.42994L916.49 34.5299L929.89 8.00994C940.913 14.3218 949.629 23.9916 954.767 35.6078C959.905 47.224 961.195 60.1784 958.45 72.5799H958.51C958.42 73.0099 958.29 73.4099 958.19 73.8399C958 74.6299 957.8 75.4099 957.58 76.1899C957.3 77.1899 956.98 78.1899 956.65 79.1899C956.4 79.9199 956.16 80.6599 955.88 81.3899C955.47 82.4499 955.01 83.4799 954.55 84.5099C954.28 85.1099 954.04 85.7299 953.75 86.3199C952.99 87.8733 952.163 89.3833 951.27 90.8499C950.96 91.3699 950.61 91.8499 950.27 92.3599C949.63 93.3599 948.99 94.3599 948.27 95.2899C947.84 95.8799 947.38 96.4399 946.93 97.0199C946.27 97.8499 945.6 98.6699 944.93 99.4599C944.44 100.03 943.93 100.57 943.42 101.12C942.69 101.89 941.93 102.64 941.15 103.38C940.64 103.87 940.15 104.38 939.58 104.84C938.7 105.62 937.78 106.37 936.85 107.1C936.38 107.46 935.92 107.85 935.44 108.21C934.02 109.21 932.56 110.21 931.05 111.16C930.77 111.34 930.46 111.48 930.18 111.65C928.91 112.39 927.63 113.09 926.31 113.74C925.74 114.02 925.16 114.26 924.58 114.52C923.5 115.01 922.41 115.52 921.29 115.9C920.64 116.15 919.98 116.38 919.29 116.61C918.19 116.98 917.07 117.32 915.94 117.61C915.28 117.79 914.61 117.98 913.94 118.14C912.72 118.43 911.47 118.67 910.21 118.89H909.97C910.79 133.683 911.523 148.48 912.17 163.28C915.734 155.949 920.76 149.424 926.937 144.106C933.115 138.787 940.315 134.788 948.094 132.353C955.874 129.918 964.069 129.099 972.176 129.946C980.283 130.794 988.132 133.289 995.24 137.28L984.66 166.28L1006.43 145.38C1018.1 156.05 1025.05 170.915 1025.77 186.71C1026.05 192.251 1025.54 197.803 1024.25 203.2C1021.51 214.876 1015.33 225.46 1006.51 233.581C997.684 241.701 986.623 246.983 974.76 248.741C962.898 250.499 950.78 248.652 939.98 243.44C929.18 238.228 920.195 229.891 914.19 219.51C914.19 221.01 914.3 222.51 914.33 224.02C914.73 239.56 915.23 258.9 907.48 276.17C902.23 287.87 893.79 297.37 885.48 305.89C880.05 311.44 874.42 316.8 868.65 321.99C862.975 329.621 855.564 335.792 847.03 339.99C837.55 347.3 827.73 354.17 817.58 360.51L811.24 364.45C805.54 367.98 799.7 371.61 793.98 375.38C794.98 375.28 795.98 375.17 796.98 375.12C809.671 374.529 822.221 377.988 832.816 384.999C843.411 392.01 851.502 402.208 855.92 414.12L818.52 444.55L859.66 435.01C859.647 445.132 857.069 455.085 852.167 463.94C847.265 472.796 840.198 480.264 831.627 485.648C823.057 491.033 813.261 494.157 803.155 494.729C793.05 495.301 782.964 493.302 773.84 488.92C774.76 490.08 775.687 491.233 776.62 492.38C778.46 494.667 780.277 496.94 782.07 499.2C806.41 530.02 813.18 559.29 801.13 581.6L786.47 573.68C798.2 551.97 780.56 524.17 769 509.53C767.24 507.297 765.453 505.063 763.64 502.83C748.09 483.51 730.47 461.61 730.9 434.75C731.55 394.21 770.86 369.85 802.44 350.27Z" fill="#F2F2F2"/>
<path d="M642.75 741.16C916.23 741.16 1137.93 726.386 1137.93 708.16C1137.93 689.935 916.23 675.16 642.75 675.16C369.27 675.16 147.57 689.935 147.57 708.16C147.57 726.386 369.27 741.16 642.75 741.16Z" fill="#F2F2F2"/>
<path d="M659.38 709.16L481.19 706.88L481.71 702.31L490.33 626.92H646.82L658.33 702.31L659.21 708.02L659.38 709.16Z" fill="#2F2E41"/>
<path opacity="0.1" d="M659.21 708.02H570.28L481.19 706.88L481.71 702.31H658.33L659.21 708.02Z" fill="black"/>
<path d="M687.94 703.45H451.49V709.16H687.94V703.45Z" fill="#3F3D56"/>
<path d="M913.54 174.11C913.549 172.157 913.174 170.222 912.435 168.414C911.696 166.606 910.609 164.962 909.234 163.575C907.86 162.187 906.226 161.084 904.425 160.329C902.625 159.573 900.693 159.179 898.74 159.17H238.42C236.467 159.179 234.535 159.573 232.735 160.329C230.934 161.084 229.3 162.187 227.926 163.575C226.552 164.962 225.464 166.606 224.725 168.414C223.986 170.222 223.611 172.157 223.62 174.11V574.37H913.54V174.11Z" fill="#3F3D56"/>
<path d="M223.62 570.38V617.26C223.62 621.185 225.179 624.95 227.955 627.725C230.73 630.501 234.495 632.06 238.42 632.06H898.74C902.665 632.06 906.43 630.501 909.205 627.725C911.981 624.95 913.54 621.185 913.54 617.26V570.38H223.62Z" fill="#3F3D56"/>
<path d="M888.4 184.3H252.17V544.11H888.4V184.3Z" fill="#2F2E41"/>
<path d="M571.97 614.27C574.306 614.273 576.612 613.744 578.714 612.723C580.816 611.703 582.657 610.217 584.1 608.38C584.541 607.819 584.942 607.227 585.3 606.61L576.84 605.22L585.99 605.29C586.866 603.38 587.344 601.311 587.396 599.211C587.447 597.11 587.071 595.021 586.29 593.07L574.01 599.44L585.33 591.12C584.267 589.293 582.839 587.703 581.136 586.451C579.433 585.199 577.49 584.31 575.429 583.84C573.368 583.37 571.232 583.329 569.154 583.719C567.077 584.11 565.101 584.923 563.351 586.109C561.601 587.295 560.113 588.828 558.981 590.613C557.848 592.399 557.095 594.397 556.768 596.486C556.44 598.575 556.546 600.708 557.078 602.754C557.61 604.8 558.557 606.715 559.86 608.38V608.38C561.301 610.215 563.139 611.698 565.237 612.719C567.335 613.739 569.637 614.269 571.97 614.27Z" fill="#E1F0FE"/>
<path opacity="0.1" d="M587.42 632.06L658.51 703.45L647.6 632.06H587.42Z" fill="black"/>
<path d="M778.35 680.78L797.5 669.58C794.906 665.163 791.598 661.206 787.71 657.87L751.6 669.1L779.89 652.46C772.885 648.622 765.001 646.675 757.014 646.81C749.027 646.945 741.214 649.157 734.341 653.228C727.469 657.3 721.776 663.091 717.822 670.032C713.868 676.972 711.789 684.822 711.79 692.81C711.79 718.22 732.39 719.1 757.79 719.1C783.19 719.1 803.79 718.22 803.79 692.81C803.798 686.383 802.455 680.025 799.85 674.15L778.35 680.78Z" fill="#57B894"/>
<path opacity="0.1" d="M783.23 705.48C781.187 703.439 778.908 701.649 776.44 700.15C772.97 697.84 769.37 695.49 765.27 694.7C761.68 694.01 757.96 694.59 754.27 694.39C747.903 693.999 741.91 691.251 737.46 686.68C734.84 683.98 732.79 680.68 729.64 678.59C726.25 676.37 721.95 675.89 717.94 676.44C716.771 676.614 715.612 676.855 714.47 677.16C712.664 682.162 711.744 687.441 711.75 692.76C711.75 718.17 732.35 719.05 757.75 719.05C770.08 719.05 781.28 718.84 789.54 715.72L788.16 713.14C786.847 710.388 785.19 707.815 783.23 705.48V705.48Z" fill="black"/>
<path opacity="0.3" d="M301.58 323.11H280.43V329.53H301.58V323.11Z" fill="#E1F0FE"/>
<path opacity="0.3" d="M865.93 323.3H844.78V329.72H865.93V323.3Z" fill="#E1F0FE"/>
<path opacity="0.3" d="M301.77 368.24H280.62V374.66H301.77V368.24Z" fill="#E1F0FE"/>
<path opacity="0.3" d="M301.96 413.37H280.81V419.79H301.96V413.37Z" fill="#E1F0FE"/>
<path opacity="0.3" d="M302.15 458.49H281V464.91H302.15V458.49Z" fill="#E1F0FE"/>
<g opacity="0.2">
<path opacity="0.2" d="M307.58 326.2H301.58V326.45H307.58V326.2Z" fill="#F2F2F2"/>
<path opacity="0.2" d="M826.61 326.45H814.82V326.2H826.61V326.45ZM803.02 326.45H791.23V326.2H803.02V326.45ZM779.43 326.45H767.63V326.2H779.43V326.45ZM755.84 326.45H744.04V326.2H755.84V326.45ZM732.25 326.45H720.45V326.2H732.25V326.45ZM708.65 326.45H696.86V326.2H708.65V326.45ZM685.06 326.45H673.26V326.2H685.06V326.45ZM661.47 326.45H649.67V326.2H661.47V326.45ZM637.88 326.45H626.08V326.2H637.88V326.45ZM614.28 326.45H602.49V326.2H614.28V326.45ZM590.69 326.45H578.89V326.2H590.69V326.45ZM567.1 326.45H555.3V326.2H567.1V326.45ZM543.51 326.45H531.71V326.2H543.51V326.45ZM519.91 326.45H508.12V326.2H519.91V326.45ZM496.32 326.45H484.53V326.2H496.32V326.45ZM472.73 326.45H460.97V326.2H472.77L472.73 326.45ZM449.14 326.45H437.34V326.2H449.14V326.45ZM425.54 326.45H413.75V326.2H425.54V326.45ZM401.95 326.45H390.16V326.2H401.97L401.95 326.45ZM378.36 326.45H366.56V326.2H378.36V326.45ZM354.77 326.45H342.97V326.2H354.77V326.45ZM331.17 326.45H319.38V326.2H331.17V326.45Z" fill="#F2F2F2"/>
<path opacity="0.2" d="M844.41 326.2H838.41V326.45H844.41V326.2Z" fill="#F2F2F2"/>
<path opacity="0.2" d="M307.58 326.2H301.58V326.45H307.58V326.2Z" fill="#F2F2F2"/>
<path opacity="0.2" d="M826.61 326.45H814.82V326.2H826.61V326.45ZM803.02 326.45H791.23V326.2H803.02V326.45ZM779.43 326.45H767.63V326.2H779.43V326.45ZM755.84 326.45H744.04V326.2H755.84V326.45ZM732.25 326.45H720.45V326.2H732.25V326.45ZM708.65 326.45H696.86V326.2H708.65V326.45ZM685.06 326.45H673.26V326.2H685.06V326.45ZM661.47 326.45H649.67V326.2H661.47V326.45ZM637.88 326.45H626.08V326.2H637.88V326.45ZM614.28 326.45H602.49V326.2H614.28V326.45ZM590.69 326.45H578.89V326.2H590.69V326.45ZM567.1 326.45H555.3V326.2H567.1V326.45ZM543.51 326.45H531.71V326.2H543.51V326.45ZM519.91 326.45H508.12V326.2H519.91V326.45ZM496.32 326.45H484.53V326.2H496.32V326.45ZM472.73 326.45H460.97V326.2H472.77L472.73 326.45ZM449.14 326.45H437.34V326.2H449.14V326.45ZM425.54 326.45H413.75V326.2H425.54V326.45ZM401.95 326.45H390.16V326.2H401.97L401.95 326.45ZM378.36 326.45H366.56V326.2H378.36V326.45ZM354.77 326.45H342.97V326.2H354.77V326.45ZM331.17 326.45H319.38V326.2H331.17V326.45Z" fill="#F2F2F2"/>
<path opacity="0.2" d="M844.41 326.2H838.41V326.45H844.41V326.2Z" fill="#F2F2F2"/>
</g>
<path opacity="0.3" d="M301.58 278.11H280.43V284.53H301.58V278.11Z" fill="#E1F0FE"/>
<path opacity="0.3" d="M865.93 278.3H844.78V284.72H865.93V278.3Z" fill="#E1F0FE"/>
<g opacity="0.2">
<path opacity="0.2" d="M307.58 281.2H301.58V281.45H307.58V281.2Z" fill="#F2F2F2"/>
<path opacity="0.2" d="M826.61 281.45H814.82V281.2H826.61V281.45ZM803.02 281.45H791.23V281.2H803.02V281.45ZM779.43 281.45H767.63V281.2H779.43V281.45ZM755.84 281.45H744.04V281.2H755.84V281.45ZM732.25 281.45H720.45V281.2H732.25V281.45ZM708.65 281.45H696.86V281.2H708.65V281.45ZM685.06 281.45H673.26V281.2H685.06V281.45ZM661.47 281.45H649.67V281.2H661.47V281.45ZM637.88 281.45H626.08V281.2H637.88V281.45ZM614.28 281.45H602.49V281.2H614.28V281.45ZM590.69 281.45H578.89V281.2H590.69V281.45ZM567.1 281.45H555.3V281.2H567.1V281.45ZM543.51 281.45H531.71V281.2H543.51V281.45ZM519.91 281.45H508.12V281.2H519.91V281.45ZM496.32 281.45H484.53V281.2H496.32V281.45ZM472.73 281.45H460.97V281.2H472.77L472.73 281.45ZM449.14 281.45H437.34V281.2H449.14V281.45ZM425.54 281.45H413.75V281.2H425.54V281.45ZM401.95 281.45H390.16V281.2H401.97L401.95 281.45ZM378.36 281.45H366.56V281.2H378.36V281.45ZM354.77 281.45H342.97V281.2H354.77V281.45ZM331.17 281.45H319.38V281.2H331.17V281.45Z" fill="#F2F2F2"/>
<path opacity="0.2" d="M844.41 281.2H838.41V281.45H844.41V281.2Z" fill="#F2F2F2"/>
</g>
<path opacity="0.3" d="M865.93 368.24H844.78V374.66H865.93V368.24Z" fill="#E1F0FE"/>
<g opacity="0.2">
<path opacity="0.2" d="M307.58 371.14H301.58V371.39H307.58V371.14Z" fill="#F2F2F2"/>
<path opacity="0.2" d="M826.61 371.38H814.82V371.13H826.61V371.38ZM803.02 371.38H791.23V371.13H803.02V371.38ZM779.43 371.38H767.63V371.13H779.43V371.38ZM755.84 371.38H744.04V371.13H755.84V371.38ZM732.25 371.38H720.45V371.13H732.25V371.38ZM708.65 371.38H696.86V371.13H708.65V371.38ZM685.06 371.38H673.26V371.13H685.06V371.38ZM661.47 371.38H649.67V371.13H661.47V371.38ZM637.88 371.38H626.08V371.13H637.88V371.38ZM614.28 371.38H602.49V371.13H614.28V371.38ZM590.69 371.38H578.89V371.13H590.69V371.38ZM567.1 371.38H555.3V371.13H567.1V371.38ZM543.51 371.38H531.71V371.13H543.51V371.38ZM519.91 371.38H508.12V371.13H519.91V371.38ZM496.32 371.38H484.53V371.13H496.32V371.38ZM472.73 371.38H460.97V371.13H472.77L472.73 371.38ZM449.14 371.38H437.34V371.13H449.14V371.38ZM425.54 371.38H413.75V371.13H425.54V371.38ZM401.95 371.38H390.16V371.13H401.97L401.95 371.38ZM378.36 371.38H366.56V371.13H378.36V371.38ZM354.77 371.38H342.97V371.13H354.77V371.38ZM331.17 371.38H319.38V371.13H331.17V371.38Z" fill="#F2F2F2"/>
<path opacity="0.2" d="M844.41 371.14H838.41V371.39H844.41V371.14Z" fill="#F2F2F2"/>
<path opacity="0.2" d="M307.58 371.14H301.58V371.39H307.58V371.14Z" fill="#F2F2F2"/>
<path opacity="0.2" d="M826.61 371.38H814.82V371.13H826.61V371.38ZM803.02 371.38H791.23V371.13H803.02V371.38ZM779.43 371.38H767.63V371.13H779.43V371.38ZM755.84 371.38H744.04V371.13H755.84V371.38ZM732.25 371.38H720.45V371.13H732.25V371.38ZM708.65 371.38H696.86V371.13H708.65V371.38ZM685.06 371.38H673.26V371.13H685.06V371.38ZM661.47 371.38H649.67V371.13H661.47V371.38ZM637.88 371.38H626.08V371.13H637.88V371.38ZM614.28 371.38H602.49V371.13H614.28V371.38ZM590.69 371.38H578.89V371.13H590.69V371.38ZM567.1 371.38H555.3V371.13H567.1V371.38ZM543.51 371.38H531.71V371.13H543.51V371.38ZM519.91 371.38H508.12V371.13H519.91V371.38ZM496.32 371.38H484.53V371.13H496.32V371.38ZM472.73 371.38H460.97V371.13H472.77L472.73 371.38ZM449.14 371.38H437.34V371.13H449.14V371.38ZM425.54 371.38H413.75V371.13H425.54V371.38ZM401.95 371.38H390.16V371.13H401.97L401.95 371.38ZM378.36 371.38H366.56V371.13H378.36V371.38ZM354.77 371.38H342.97V371.13H354.77V371.38ZM331.17 371.38H319.38V371.13H331.17V371.38Z" fill="#F2F2F2"/>
<path opacity="0.2" d="M844.41 371.14H838.41V371.39H844.41V371.14Z" fill="#F2F2F2"/>
</g>
<path opacity="0.3" d="M865.93 413.18H844.78V419.6H865.93V413.18Z" fill="#E1F0FE"/>
<g opacity="0.2">
<path opacity="0.2" d="M307.58 416.07H301.58V416.32H307.58V416.07Z" fill="#F2F2F2"/>
<path opacity="0.2" d="M826.61 416.32H814.82V416.07H826.61V416.32ZM803.02 416.32H791.23V416.07H803.02V416.32ZM779.43 416.32H767.63V416.07H779.43V416.32ZM755.84 416.32H744.04V416.07H755.84V416.32ZM732.25 416.32H720.45V416.07H732.25V416.32ZM708.65 416.32H696.86V416.07H708.65V416.32ZM685.06 416.32H673.26V416.07H685.06V416.32ZM661.47 416.32H649.67V416.07H661.47V416.32ZM637.88 416.32H626.08V416.07H637.88V416.32ZM614.28 416.32H602.49V416.07H614.28V416.32ZM590.69 416.32H578.89V416.07H590.69V416.32ZM567.1 416.32H555.3V416.07H567.1V416.32ZM543.51 416.32H531.71V416.07H543.51V416.32ZM519.91 416.32H508.12V416.07H519.91V416.32ZM496.32 416.32H484.53V416.07H496.32V416.32ZM472.73 416.32H460.97V416.07H472.77L472.73 416.32ZM449.14 416.32H437.34V416.07H449.14V416.32ZM425.54 416.32H413.75V416.07H425.54V416.32ZM401.95 416.32H390.16V416.07H401.97L401.95 416.32ZM378.36 416.32H366.56V416.07H378.36V416.32ZM354.77 416.32H342.97V416.07H354.77V416.32ZM331.17 416.32H319.38V416.07H331.17V416.32Z" fill="#F2F2F2"/>
<path opacity="0.2" d="M844.41 416.07H838.41V416.32H844.41V416.07Z" fill="#F2F2F2"/>
<path opacity="0.2" d="M307.58 416.07H301.58V416.32H307.58V416.07Z" fill="#F2F2F2"/>
<path opacity="0.2" d="M826.61 416.32H814.82V416.07H826.61V416.32ZM803.02 416.32H791.23V416.07H803.02V416.32ZM779.43 416.32H767.63V416.07H779.43V416.32ZM755.84 416.32H744.04V416.07H755.84V416.32ZM732.25 416.32H720.45V416.07H732.25V416.32ZM708.65 416.32H696.86V416.07H708.65V416.32ZM685.06 416.32H673.26V416.07H685.06V416.32ZM661.47 416.32H649.67V416.07H661.47V416.32ZM637.88 416.32H626.08V416.07H637.88V416.32ZM614.28 416.32H602.49V416.07H614.28V416.32ZM590.69 416.32H578.89V416.07H590.69V416.32ZM567.1 416.32H555.3V416.07H567.1V416.32ZM543.51 416.32H531.71V416.07H543.51V416.32ZM519.91 416.32H508.12V416.07H519.91V416.32ZM496.32 416.32H484.53V416.07H496.32V416.32ZM472.73 416.32H460.97V416.07H472.77L472.73 416.32ZM449.14 416.32H437.34V416.07H449.14V416.32ZM425.54 416.32H413.75V416.07H425.54V416.32ZM401.95 416.32H390.16V416.07H401.97L401.95 416.32ZM378.36 416.32H366.56V416.07H378.36V416.32ZM354.77 416.32H342.97V416.07H354.77V416.32ZM331.17 416.32H319.38V416.07H331.17V416.32Z" fill="#F2F2F2"/>
<path opacity="0.2" d="M844.41 416.07H838.41V416.32H844.41V416.07Z" fill="#F2F2F2"/>
</g>
<path opacity="0.3" d="M865.93 458.11H844.78V464.53H865.93V458.11Z" fill="#E1F0FE"/>
<g opacity="0.2">
<path opacity="0.2" d="M307.58 461.01H301.58V461.26H307.58V461.01Z" fill="#F2F2F2"/>
<path opacity="0.2" d="M826.61 461.26H814.82V461.01H826.61V461.26ZM803.02 461.26H791.23V461.01H803.02V461.26ZM779.43 461.26H767.63V461.01H779.43V461.26ZM755.84 461.26H744.04V461.01H755.84V461.26ZM732.25 461.26H720.45V461.01H732.25V461.26ZM708.65 461.26H696.86V461.01H708.65V461.26ZM685.06 461.26H673.26V461.01H685.06V461.26ZM661.47 461.26H649.67V461.01H661.47V461.26ZM637.88 461.26H626.08V461.01H637.88V461.26ZM614.28 461.26H602.49V461.01H614.28V461.26ZM590.69 461.26H578.89V461.01H590.69V461.26ZM567.1 461.26H555.3V461.01H567.1V461.26ZM543.51 461.26H531.71V461.01H543.51V461.26ZM519.91 461.26H508.12V461.01H519.91V461.26ZM496.32 461.26H484.53V461.01H496.32V461.26ZM472.73 461.26H460.97V461.01H472.77L472.73 461.26ZM449.14 461.26H437.34V461.01H449.14V461.26ZM425.54 461.26H413.75V461.01H425.54V461.26ZM401.95 461.26H390.16V461.01H401.97L401.95 461.26ZM378.36 461.26H366.56V461.01H378.36V461.26ZM354.77 461.26H342.97V461.01H354.77V461.26ZM331.17 461.26H319.38V461.01H331.17V461.26Z" fill="#F2F2F2"/>
<path opacity="0.2" d="M844.41 461.01H838.41V461.26H844.41V461.01Z" fill="#F2F2F2"/>
<path opacity="0.2" d="M307.58 461.01H301.58V461.26H307.58V461.01Z" fill="#F2F2F2"/>
<path opacity="0.2" d="M826.61 461.26H814.82V461.01H826.61V461.26ZM803.02 461.26H791.23V461.01H803.02V461.26ZM779.43 461.26H767.63V461.01H779.43V461.26ZM755.84 461.26H744.04V461.01H755.84V461.26ZM732.25 461.26H720.45V461.01H732.25V461.26ZM708.65 461.26H696.86V461.01H708.65V461.26ZM685.06 461.26H673.26V461.01H685.06V461.26ZM661.47 461.26H649.67V461.01H661.47V461.26ZM637.88 461.26H626.08V461.01H637.88V461.26ZM614.28 461.26H602.49V461.01H614.28V461.26ZM590.69 461.26H578.89V461.01H590.69V461.26ZM567.1 461.26H555.3V461.01H567.1V461.26ZM543.51 461.26H531.71V461.01H543.51V461.26ZM519.91 461.26H508.12V461.01H519.91V461.26ZM496.32 461.26H484.53V461.01H496.32V461.26ZM472.73 461.26H460.97V461.01H472.77L472.73 461.26ZM449.14 461.26H437.34V461.01H449.14V461.26ZM425.54 461.26H413.75V461.01H425.54V461.26ZM401.95 461.26H390.16V461.01H401.97L401.95 461.26ZM378.36 461.26H366.56V461.01H378.36V461.26ZM354.77 461.26H342.97V461.01H354.77V461.26ZM331.17 461.26H319.38V461.01H331.17V461.26Z" fill="#F2F2F2"/>
<path opacity="0.2" d="M844.41 461.01H838.41V461.26H844.41V461.01Z" fill="#F2F2F2"/>
</g>
<path d="M370.53 281.51V461.7" stroke="#F2F2F2" stroke-width="0.1" stroke-miterlimit="10"/>
<path d="M443.53 281.51V461.7" stroke="#F2F2F2" stroke-width="0.1" stroke-miterlimit="10"/>
<path d="M516.53 281.51V461.7" stroke="#F2F2F2" stroke-width="0.1" stroke-miterlimit="10"/>
<path d="M589.53 281.51V461.7" stroke="#F2F2F2" stroke-width="0.1" stroke-miterlimit="10"/>
<path d="M662.53 281.51V461.7" stroke="#F2F2F2" stroke-width="0.1" stroke-miterlimit="10"/>
<path d="M735.53 281.51V461.7" stroke="#F2F2F2" stroke-width="0.1" stroke-miterlimit="10"/>
<path d="M808.53 281.51V461.7" stroke="#F2F2F2" stroke-width="0.1" stroke-miterlimit="10"/>
<path opacity="0.3" d="M824.32 269.35L815.97 278.05C815.801 278.232 815.66 278.437 815.55 278.66L810.37 289.33C810.164 289.759 809.833 290.115 809.421 290.352C809.009 290.59 808.534 290.697 808.06 290.66L806.4 290.53C805.918 290.496 805.458 290.314 805.083 290.01C804.707 289.706 804.434 289.294 804.3 288.83L802.7 283.29C802.56 282.805 802.27 282.378 801.871 282.07C801.472 281.762 800.985 281.589 800.48 281.577C799.976 281.565 799.482 281.713 799.068 282.002C798.654 282.29 798.343 282.703 798.18 283.18L795.49 291.06C795.331 291.53 795.028 291.938 794.624 292.227C794.221 292.516 793.737 292.671 793.24 292.67H782.97C782.406 292.668 781.862 292.465 781.433 292.099C781.005 291.733 780.72 291.226 780.63 290.67L777.73 272.52C777.653 272.023 777.42 271.564 777.065 271.209C776.711 270.853 776.252 270.62 775.756 270.542C775.259 270.464 774.751 270.546 774.304 270.776C773.858 271.005 773.495 271.371 773.27 271.82L758.4 301.17C758.247 301.474 758.03 301.741 757.764 301.953C757.498 302.166 757.189 302.319 756.859 302.401C756.529 302.484 756.185 302.494 755.85 302.432C755.516 302.37 755.198 302.236 754.92 302.04L746.08 295.8C745.598 295.461 745.007 295.313 744.422 295.383C743.837 295.453 743.299 295.737 742.91 296.18L739.56 300.05C739.461 300.164 739.374 300.288 739.3 300.42L730.36 315.89C730.133 316.286 729.796 316.608 729.389 316.816C728.983 317.024 728.524 317.108 728.07 317.06L722.62 316.52C722.239 316.483 721.855 316.538 721.5 316.68L716.62 318.63C716.055 318.843 715.43 318.832 714.872 318.6C714.314 318.368 713.867 317.931 713.62 317.38L712.55 314.93C712.357 314.491 712.036 314.121 711.63 313.868C711.223 313.614 710.749 313.489 710.27 313.51L704.69 313.77C704.345 313.785 704.007 313.876 703.701 314.036C703.395 314.197 703.128 314.424 702.92 314.7L701.34 316.76C701.08 317.1 700.733 317.363 700.336 317.521C699.938 317.68 699.505 317.727 699.083 317.66C698.661 317.592 698.264 317.411 697.936 317.137C697.608 316.862 697.361 316.504 697.22 316.1L695.22 310.45C695.097 310.098 694.892 309.781 694.623 309.523C694.354 309.265 694.028 309.075 693.672 308.967C693.315 308.859 692.938 308.836 692.571 308.901C692.204 308.966 691.858 309.116 691.56 309.34L682.06 316.46L671.56 324.93C671.201 325.218 670.767 325.396 670.309 325.442C669.851 325.488 669.389 325.401 668.98 325.19L660.83 320.96C660.393 320.736 659.897 320.652 659.41 320.72L642.9 323.03C642.421 323.094 641.974 323.303 641.617 323.628C641.259 323.953 641.009 324.379 640.9 324.85L637.97 337.58C637.879 337.977 637.687 338.344 637.412 338.645C637.137 338.946 636.79 339.172 636.403 339.299C636.016 339.427 635.602 339.453 635.203 339.374C634.803 339.295 634.43 339.115 634.12 338.85V338.85C633.846 338.616 633.522 338.447 633.173 338.357C632.824 338.266 632.459 338.256 632.105 338.328C631.752 338.399 631.419 338.55 631.132 338.768C630.846 338.987 630.612 339.268 630.45 339.59L628.2 344.1C628.031 344.433 627.787 344.722 627.487 344.945C627.186 345.167 626.838 345.316 626.47 345.38L621.36 346.23C621.031 346.287 620.717 346.413 620.44 346.6L612.39 351.96C612.003 352.22 611.547 352.36 611.08 352.36H607.31C606.847 352.361 606.393 352.226 606.006 351.972C605.618 351.717 605.314 351.355 605.13 350.93L604.13 348.54C604.003 348.25 603.819 347.989 603.589 347.772C603.359 347.554 603.088 347.385 602.791 347.274C602.495 347.163 602.179 347.113 601.863 347.126C601.547 347.139 601.236 347.215 600.95 347.35L592.21 351.44C591.858 351.605 591.47 351.682 591.081 351.663C590.693 351.643 590.314 351.529 589.98 351.33L585.98 348.92C585.611 348.699 585.19 348.581 584.76 348.58H575.93C575.464 348.581 575.008 348.721 574.62 348.98L565.81 354.83C565.471 355.055 565.079 355.189 564.672 355.219C564.266 355.249 563.859 355.173 563.49 355L559.49 353.11C559.024 352.892 558.5 352.832 557.996 352.938C557.493 353.045 557.038 353.312 556.7 353.7L554.8 355.87C554.552 356.157 554.237 356.381 553.884 356.521C553.531 356.661 553.149 356.713 552.771 356.674C552.393 356.635 552.03 356.505 551.713 356.295C551.396 356.085 551.134 355.802 550.95 355.47L550.38 354.47C550.226 354.194 550.017 353.951 549.768 353.757C549.518 353.562 549.232 353.42 548.926 353.338C548.62 353.256 548.301 353.236 547.987 353.279C547.674 353.322 547.372 353.428 547.1 353.59L540.17 357.7C539.811 357.906 539.404 358.015 538.99 358.015C538.576 358.015 538.169 357.906 537.81 357.7L534.95 356.11C534.627 355.928 534.266 355.825 533.896 355.809C533.526 355.794 533.157 355.866 532.82 356.02L530.1 357.26C529.794 357.397 529.463 357.468 529.128 357.469C528.792 357.47 528.461 357.4 528.154 357.264C527.848 357.128 527.573 356.93 527.349 356.681C527.124 356.432 526.954 356.139 526.85 355.82L525.09 350.58C524.94 350.099 524.639 349.679 524.232 349.382C523.826 349.085 523.334 348.926 522.83 348.93H520.27C519.867 348.931 519.471 348.828 519.12 348.63L509.29 343.24C508.89 343.024 508.436 342.926 507.982 342.96C507.529 342.994 507.094 343.157 506.73 343.43L499.52 348.83C499.111 349.137 498.612 349.302 498.1 349.3H489.03C488.563 349.3 488.107 349.439 487.72 349.7L486.02 350.83C485.74 351.017 485.424 351.143 485.092 351.199C484.76 351.254 484.42 351.239 484.094 351.152C483.769 351.066 483.466 350.912 483.204 350.699C482.943 350.487 482.73 350.221 482.58 349.92L482.17 349.11C481.976 348.714 481.674 348.38 481.299 348.146C480.924 347.913 480.492 347.79 480.05 347.79H475.5C475.139 347.791 474.783 347.874 474.459 348.033C474.134 348.193 473.851 348.424 473.63 348.71L470.81 352.32C470.576 352.619 470.274 352.858 469.929 353.016C469.583 353.174 469.205 353.247 468.826 353.229C468.446 353.21 468.077 353.1 467.749 352.909C467.421 352.718 467.143 352.451 466.94 352.13L466.14 350.88C465.81 350.356 465.288 349.983 464.686 349.841C464.083 349.699 463.449 349.799 462.92 350.12L460.58 351.52C460.182 351.758 459.722 351.875 459.259 351.855C458.795 351.835 458.347 351.681 457.97 351.41L448.54 344.58C448.371 344.461 448.19 344.36 448 344.28L440.63 341.45C440.056 341.241 439.424 341.262 438.865 341.508C438.306 341.754 437.864 342.206 437.63 342.77L432.5 355.27C432.426 355.446 432.375 355.631 432.35 355.82L430.69 367.08C430.617 367.556 430.401 367.999 430.07 368.35L426.56 372.12C426.196 372.504 425.715 372.757 425.192 372.839C424.669 372.92 424.134 372.826 423.67 372.57L417.58 369.19C417.277 369.02 416.941 368.919 416.594 368.894C416.248 368.869 415.9 368.92 415.576 369.044C415.251 369.168 414.958 369.362 414.717 369.612C414.476 369.862 414.293 370.161 414.18 370.49L410.32 381.78C410.233 382.027 410.189 382.288 410.19 382.55V389.67C410.189 390.132 410.053 390.583 409.799 390.968C409.545 391.354 409.184 391.657 408.76 391.84L402.57 394.58C402.226 394.728 401.852 394.793 401.478 394.768C401.105 394.744 400.742 394.631 400.42 394.44L395.76 391.7C395.296 391.428 394.753 391.322 394.22 391.4L386.05 392.57C385.583 392.637 385.106 392.562 384.682 392.355C384.258 392.148 383.905 391.819 383.67 391.41L382.29 389.05C381.992 388.541 381.514 388.163 380.95 387.99L377.24 386.83C376.808 386.692 376.344 386.682 375.906 386.801C375.468 386.92 375.074 387.163 374.77 387.5L369.62 393.22C369.214 393.669 368.653 393.947 368.05 394L360.45 394.64C360.098 394.66 359.755 394.763 359.45 394.94L346.2 402.56C345.786 402.795 345.312 402.9 344.838 402.863C344.364 402.825 343.912 402.647 343.54 402.35L339.78 399.35C339.359 399.016 338.838 398.833 338.3 398.83H324.06C323.704 398.831 323.353 398.752 323.033 398.598C322.712 398.443 322.431 398.219 322.21 397.94L318.62 393.46C318.405 393.192 318.134 392.974 317.826 392.822C317.519 392.669 317.182 392.585 316.838 392.575C316.495 392.566 316.153 392.631 315.838 392.766C315.522 392.902 315.24 393.104 315.01 393.36L310.69 398.16C310.299 398.593 310.082 399.156 310.08 399.74V459.38C310.08 460.008 310.33 460.611 310.774 461.056C311.219 461.5 311.822 461.75 312.45 461.75H826.18C826.492 461.75 826.801 461.688 827.089 461.569C827.378 461.449 827.639 461.273 827.859 461.052C828.08 460.831 828.254 460.569 828.373 460.28C828.491 459.991 828.551 459.682 828.55 459.37L828.41 271.04C828.417 270.563 828.281 270.095 828.018 269.696C827.756 269.298 827.38 268.988 826.939 268.805C826.498 268.623 826.013 268.578 825.546 268.675C825.079 268.772 824.652 269.007 824.32 269.35V269.35Z" fill="#E1F0FE"/>
<path opacity="0.3" d="M823.86 346.58L816.12 351.74C815.848 351.923 815.609 352.149 815.41 352.41L810.6 358.76C810.308 359.136 809.931 359.438 809.5 359.639C809.069 359.841 808.596 359.937 808.12 359.92L806.55 359.84C806.011 359.813 805.49 359.638 805.044 359.335C804.598 359.032 804.243 358.611 804.02 358.12L803.02 355.99C802.797 355.49 802.437 355.062 801.982 354.757C801.528 354.451 800.996 354.28 800.448 354.262C799.901 354.244 799.359 354.381 798.885 354.657C798.412 354.932 798.025 355.335 797.77 355.82L795.77 359.65C795.521 360.12 795.147 360.512 794.691 360.786C794.234 361.059 793.712 361.202 793.18 361.2H783.26C782.606 361.203 781.97 360.986 781.455 360.583C780.94 360.18 780.575 359.615 780.42 358.98L778.04 349.45C777.908 348.919 777.629 348.435 777.236 348.055C776.843 347.674 776.351 347.411 775.816 347.295C775.281 347.179 774.724 347.216 774.208 347.401C773.693 347.586 773.24 347.911 772.9 348.34L758.6 366.42C758.197 366.934 757.632 367.297 756.997 367.452C756.362 367.606 755.694 367.542 755.1 367.27L745.91 363.12C745.429 362.895 744.896 362.805 744.367 362.859C743.839 362.914 743.335 363.111 742.91 363.43L739.62 365.86C739.463 365.977 739.319 366.112 739.19 366.26L730.51 375.87C730.218 376.205 729.854 376.469 729.445 376.642C729.036 376.815 728.594 376.893 728.15 376.87L722.48 376.51C722.171 376.492 721.861 376.519 721.56 376.59L716.45 377.9C715.867 378.052 715.252 378.02 714.688 377.809C714.124 377.598 713.639 377.218 713.3 376.72L712.72 375.86C712.443 375.456 712.069 375.128 711.632 374.907C711.195 374.685 710.71 374.576 710.22 374.59L704.52 374.76C703.862 374.771 703.229 375.012 702.73 375.44L701.33 376.61C700.999 376.888 700.61 377.09 700.191 377.2C699.772 377.31 699.334 377.326 698.909 377.246C698.484 377.167 698.081 376.994 697.73 376.741C697.379 376.487 697.089 376.159 696.88 375.78L695.4 373.1C695.039 372.445 694.442 371.953 693.73 371.724C693.017 371.495 692.245 371.548 691.57 371.87L681.98 376.48L671.37 381.96C671.024 382.138 670.646 382.245 670.257 382.274C669.869 382.303 669.479 382.254 669.11 382.13L660.66 379.33C660.28 379.205 659.879 379.158 659.48 379.19L643.12 380.58C642.565 380.637 642.037 380.849 641.596 381.189C641.154 381.53 640.816 381.988 640.62 382.51L638.25 389.13C638.107 389.528 637.879 389.89 637.583 390.191C637.287 390.493 636.929 390.727 636.534 390.877C636.138 391.027 635.715 391.09 635.294 391.061C634.872 391.032 634.461 390.913 634.09 390.71L633.99 390.66C633.383 390.323 632.675 390.215 631.995 390.354C631.314 390.493 630.706 390.871 630.28 391.42L628.42 393.8C627.926 394.42 627.207 394.819 626.42 394.91L621.3 395.46C621.011 395.489 620.728 395.56 620.46 395.67L612.35 399.14C611.985 399.29 611.595 399.368 611.2 399.37H607.3C606.823 399.37 606.353 399.253 605.931 399.03C605.51 398.807 605.149 398.484 604.88 398.09L604.32 397.27C603.969 396.757 603.464 396.37 602.878 396.163C602.292 395.956 601.655 395.941 601.06 396.12L591.97 398.87C591.346 399.058 590.678 399.033 590.07 398.8L585.85 397.18C585.531 397.054 585.193 396.987 584.85 396.98H575.79C575.398 396.98 575.009 397.061 574.65 397.22L565.65 401.04C565.018 401.313 564.309 401.352 563.65 401.15L559.2 399.82C558.767 399.691 558.309 399.663 557.864 399.74C557.418 399.816 556.996 399.994 556.63 400.26L554.68 401.69C554.09 402.122 553.359 402.317 552.632 402.238C551.904 402.158 551.233 401.809 550.75 401.26L550.46 400.93C550.067 400.481 549.546 400.163 548.967 400.018C548.388 399.873 547.778 399.909 547.22 400.12L539.97 402.89C539.324 403.125 538.616 403.125 537.97 402.89L534.79 401.75C534.209 401.549 533.581 401.532 532.99 401.7L529.99 402.57C529.333 402.759 528.631 402.713 528.004 402.439C527.378 402.165 526.867 401.681 526.56 401.07L525.44 398.82C525.196 398.334 524.822 397.925 524.359 397.639C523.897 397.353 523.364 397.201 522.82 397.2H520.22C519.88 397.206 519.541 397.152 519.22 397.04L509.13 393.5C508.767 393.37 508.383 393.314 507.998 393.335C507.613 393.355 507.237 393.452 506.89 393.62L499.52 397.16C499.123 397.349 498.69 397.448 498.25 397.45H488.94C488.545 397.452 488.155 397.53 487.79 397.68L485.89 398.5C485.296 398.752 484.635 398.802 484.009 398.641C483.384 398.48 482.829 398.118 482.43 397.61V397.61C482.157 397.258 481.807 396.973 481.406 396.777C481.006 396.581 480.566 396.48 480.12 396.48H475.42C474.743 396.479 474.086 396.712 473.56 397.14L470.83 399.38C470.269 399.845 469.554 400.082 468.826 400.045C468.099 400.008 467.411 399.699 466.9 399.18L466.28 398.56C465.88 398.157 465.37 397.879 464.815 397.76C464.259 397.641 463.681 397.686 463.15 397.89L460.43 398.94C459.686 399.217 458.863 399.189 458.14 398.86L448.57 394.42C448.401 394.339 448.223 394.279 448.04 394.24L440.53 392.39C439.938 392.242 439.314 392.284 438.747 392.51C438.18 392.736 437.698 393.135 437.37 393.65L432.65 401.01C432.47 401.293 432.338 401.604 432.26 401.93L430.83 408.18C430.659 408.894 430.232 409.52 429.63 409.94L426.51 412.08C426.13 412.342 425.694 412.509 425.236 412.568C424.779 412.627 424.314 412.577 423.88 412.42L417.46 410.14C416.789 409.903 416.054 409.918 415.394 410.183C414.733 410.448 414.191 410.945 413.87 411.58L410.49 417.9C410.268 418.326 410.151 418.799 410.15 419.28V422.13C410.147 422.77 409.936 423.392 409.548 423.901C409.16 424.41 408.617 424.778 408 424.95L402.38 426.51C401.784 426.679 401.149 426.651 400.57 426.43L395.67 424.58C395.256 424.421 394.811 424.359 394.37 424.4L385.92 425.17C385.47 425.214 385.016 425.152 384.594 424.988C384.172 424.825 383.794 424.565 383.49 424.23L382.49 423.12C382.074 422.653 381.515 422.337 380.9 422.22L377.05 421.44C376.657 421.365 376.252 421.37 375.861 421.454C375.469 421.539 375.098 421.7 374.77 421.93L369.7 425.54C369.247 425.859 368.713 426.046 368.16 426.08L360.39 426.49C360.096 426.508 359.807 426.569 359.53 426.67L346.04 431.67C345.662 431.813 345.258 431.875 344.855 431.851C344.452 431.827 344.058 431.717 343.7 431.53L339.8 429.53C339.388 429.32 338.932 429.21 338.47 429.21H323.97C323.301 429.21 322.651 428.981 322.13 428.56L318.62 425.75C318.123 425.352 317.509 425.127 316.872 425.109C316.235 425.09 315.609 425.281 315.09 425.65L311.33 428.33C310.95 428.602 310.64 428.961 310.426 429.376C310.212 429.792 310.1 430.253 310.1 430.72V458.83C310.1 459.607 310.409 460.352 310.958 460.902C311.508 461.451 312.253 461.76 313.03 461.76H825.62C826.397 461.76 827.142 461.451 827.692 460.902C828.241 460.352 828.55 459.607 828.55 458.83L828.41 349.06C828.417 348.527 828.279 348.002 828.009 347.542C827.74 347.082 827.351 346.704 826.883 346.449C826.414 346.194 825.886 346.071 825.353 346.094C824.82 346.117 824.304 346.285 823.86 346.58V346.58Z" fill="#E1F0FE"/>
<path d="M825.93 352.84C829.796 352.84 832.93 349.706 832.93 345.84C832.93 341.974 829.796 338.84 825.93 338.84C822.064 338.84 818.93 341.974 818.93 345.84C818.93 349.706 822.064 352.84 825.93 352.84Z" fill="#E1F0FE"/>
<path opacity="0.3" d="M825.48 415.09L815.97 418.26C815.788 418.323 815.613 418.407 815.45 418.51L810.23 421.96C809.85 422.208 809.404 422.334 808.95 422.32L805.7 422.24C805.398 422.234 805.1 422.166 804.825 422.04C804.55 421.915 804.303 421.734 804.1 421.51L802.1 419.31C801.901 419.09 801.661 418.912 801.392 418.787C801.124 418.661 800.833 418.59 800.537 418.578C800.241 418.566 799.946 418.613 799.668 418.716C799.39 418.82 799.136 418.977 798.92 419.18L795.55 422.34C795.141 422.732 794.596 422.95 794.03 422.95H782.35C781.934 422.953 781.525 422.838 781.171 422.618C780.818 422.399 780.533 422.084 780.35 421.71L777.68 416.38C777.541 416.102 777.345 415.856 777.105 415.658C776.865 415.46 776.587 415.315 776.287 415.231C775.988 415.147 775.674 415.127 775.366 415.172C775.058 415.216 774.763 415.325 774.5 415.49L757.97 425.96C757.47 426.273 756.866 426.378 756.29 426.25L744.97 423.7C744.551 423.601 744.113 423.629 743.71 423.78L739.58 425.31C739.472 425.344 739.367 425.391 739.27 425.45L730.14 430.51C729.788 430.702 729.391 430.799 728.99 430.79L722.23 430.57C722.114 430.56 721.997 430.56 721.88 430.57L715.38 431.4C714.814 431.469 714.243 431.323 713.78 430.99L712.46 429.99C712.07 429.702 711.595 429.551 711.11 429.56L703.98 429.66C703.695 429.66 703.413 429.718 703.15 429.83L699.95 431.18C699.558 431.342 699.128 431.39 698.711 431.317C698.293 431.245 697.904 431.055 697.59 430.77L694.97 428.45C694.703 428.21 694.381 428.037 694.033 427.949C693.685 427.86 693.32 427.857 692.97 427.94L682.03 430.58L670.78 433.49C670.477 433.555 670.163 433.555 669.86 433.49L660.36 431.91C660.207 431.9 660.053 431.9 659.9 431.91L642.33 432.7C641.993 432.715 641.664 432.807 641.368 432.968C641.071 433.129 640.816 433.355 640.62 433.63L637.97 437.28C637.706 437.651 637.333 437.931 636.904 438.083C636.475 438.235 636.009 438.252 635.57 438.13L632.74 437.35C632.439 437.271 632.124 437.255 631.816 437.303C631.508 437.351 631.213 437.463 630.95 437.63L628.12 439.44C627.794 439.642 627.423 439.759 627.04 439.78L621.04 440.11C620.927 440.101 620.813 440.101 620.7 440.11L612.04 441.96C611.885 441.992 611.728 442.008 611.57 442.01H606.49C606.019 442.01 605.56 441.86 605.18 441.58L603.86 440.58C603.628 440.407 603.363 440.281 603.081 440.211C602.8 440.14 602.507 440.126 602.22 440.17L591.41 441.79C591.162 441.83 590.909 441.83 590.66 441.79L585.58 440.79C585.44 440.775 585.3 440.775 585.16 440.79H575.41C575.257 440.775 575.103 440.775 574.95 440.79L565.06 442.89C564.796 442.94 564.524 442.94 564.26 442.89L558.37 442C557.999 441.95 557.621 441.991 557.27 442.12L553.49 443.5C553.186 443.614 552.861 443.658 552.537 443.631C552.214 443.603 551.9 443.504 551.62 443.34L549.83 442.34C549.375 442.072 548.838 441.979 548.32 442.08L539.32 443.79C539.052 443.84 538.778 443.84 538.51 443.79L534.18 443.02C533.945 442.985 533.705 442.985 533.47 443.02L528.69 443.71C528.348 443.763 527.999 443.734 527.671 443.626C527.343 443.518 527.044 443.335 526.8 443.09L525.22 441.58C524.798 441.167 524.231 440.934 523.64 440.93H519.85C519.724 440.94 519.597 440.94 519.47 440.93L508.41 438.99C508.11 438.925 507.8 438.925 507.5 438.99L499.14 440.99C498.97 441.03 498.795 441.051 498.62 441.05H488.55C488.397 441.035 488.243 441.035 488.09 441.05L484.68 441.78C484.106 441.94 483.492 441.868 482.97 441.58L482.03 440.97C481.671 440.742 481.255 440.621 480.83 440.62H474.74C474.452 440.621 474.166 440.679 473.9 440.79L469.64 442.53C469.347 442.653 469.03 442.71 468.712 442.698C468.395 442.686 468.083 442.605 467.8 442.46L465.54 441.32C465.101 441.1 464.603 441.03 464.12 441.12L459.66 441.98C459.357 442.045 459.043 442.045 458.74 441.98L448.4 439.58H448.17L439.38 438.49C438.794 438.424 438.206 438.589 437.74 438.95L432.74 442.83C432.46 443.047 432.237 443.328 432.09 443.65L430.97 446.14C430.844 446.414 430.663 446.659 430.44 446.862C430.217 447.065 429.955 447.221 429.67 447.32L425.83 448.63C425.475 448.759 425.091 448.791 424.72 448.72L416.18 447.2C415.839 447.141 415.49 447.162 415.158 447.261C414.827 447.36 414.523 447.534 414.27 447.77L410.88 450.94C410.658 451.149 410.481 451.402 410.36 451.682C410.24 451.963 410.178 452.265 410.18 452.57C410.18 453.107 409.986 453.626 409.633 454.03C409.28 454.435 408.792 454.698 408.26 454.77L401.85 455.66C401.612 455.7 401.368 455.7 401.13 455.66L395.33 454.56C395.157 454.54 394.983 454.54 394.81 454.56L385.12 455C384.713 455.016 384.309 454.923 383.95 454.73L382.25 453.8C381.989 453.651 381.699 453.559 381.4 453.53L376.31 453.02C375.972 452.985 375.63 453.026 375.31 453.14L369.31 455.27C369.088 455.349 368.855 455.393 368.62 455.4L360.09 455.63C359.974 455.62 359.857 455.62 359.74 455.63L345.29 458.3C344.977 458.365 344.653 458.365 344.34 458.3L339.42 457.04C339.237 456.997 339.049 456.973 338.86 456.97H323.35C323.066 456.973 322.783 456.919 322.52 456.81L317.66 454.87C317.151 454.675 316.589 454.675 316.08 454.87L311.56 456.48C311.127 456.632 310.752 456.914 310.487 457.289C310.221 457.663 310.079 458.111 310.08 458.57V459.57C310.079 459.863 310.135 460.152 310.246 460.423C310.357 460.693 310.521 460.939 310.727 461.146C310.933 461.354 311.178 461.518 311.448 461.63C311.718 461.742 312.008 461.8 312.3 461.8H826.3C826.592 461.8 826.882 461.742 827.152 461.63C827.422 461.518 827.667 461.354 827.873 461.146C828.08 460.939 828.243 460.693 828.354 460.423C828.465 460.152 828.521 459.863 828.52 459.57L828.39 417.3C828.404 416.942 828.331 416.585 828.178 416.261C828.025 415.937 827.796 415.654 827.51 415.437C827.225 415.221 826.891 415.076 826.538 415.015C826.184 414.955 825.822 414.981 825.48 415.09V415.09Z" fill="#E1F0FE"/>
<path d="M440.93 399.84C444.796 399.84 447.93 396.706 447.93 392.84C447.93 388.974 444.796 385.84 440.93 385.84C437.064 385.84 433.93 388.974 433.93 392.84C433.93 396.706 437.064 399.84 440.93 399.84Z" fill="#E1F0FE"/>
<path d="M776.93 355.84C780.796 355.84 783.93 352.706 783.93 348.84C783.93 344.974 780.796 341.84 776.93 341.84C773.064 341.84 769.93 344.974 769.93 348.84C769.93 352.706 773.064 355.84 776.93 355.84Z" fill="#E1F0FE"/>
<path d="M602.93 402.84C606.796 402.84 609.93 399.706 609.93 395.84C609.93 391.974 606.796 388.84 602.93 388.84C599.064 388.84 595.93 391.974 595.93 395.84C595.93 399.706 599.064 402.84 602.93 402.84Z" fill="#E1F0FE"/>
<path d="M693.93 377.84C697.796 377.84 700.93 374.706 700.93 370.84C700.93 366.974 697.796 363.84 693.93 363.84C690.064 363.84 686.93 366.974 686.93 370.84C686.93 374.706 690.064 377.84 693.93 377.84Z" fill="#E1F0FE"/>
<path d="M829.41 349C829.408 348.471 829.263 347.953 828.99 347.5C828.717 347.047 828.327 346.676 827.86 346.427C827.394 346.178 826.869 346.06 826.341 346.085C825.812 346.11 825.301 346.278 824.86 346.57L817.12 351.73C816.848 351.913 816.609 352.14 816.41 352.4L811.6 358.75C811.308 359.126 810.931 359.428 810.5 359.63C810.069 359.831 809.596 359.927 809.12 359.91L807.55 359.83C807.011 359.803 806.49 359.629 806.044 359.325C805.598 359.022 805.243 358.601 805.02 358.11L804.02 355.98C803.797 355.48 803.437 355.052 802.982 354.747C802.528 354.441 801.996 354.27 801.448 354.252C800.901 354.234 800.359 354.371 799.885 354.647C799.412 354.922 799.025 355.325 798.77 355.81L796.77 359.64C796.521 360.11 796.147 360.503 795.691 360.776C795.234 361.049 794.712 361.192 794.18 361.19H784.26C783.606 361.193 782.97 360.976 782.455 360.573C781.94 360.17 781.575 359.605 781.42 358.97L779.04 349.44C778.908 348.909 778.629 348.426 778.236 348.045C777.843 347.664 777.351 347.401 776.816 347.285C776.281 347.17 775.724 347.206 775.208 347.391C774.693 347.576 774.24 347.901 773.9 348.33L759.6 366.41C759.197 366.924 758.632 367.287 757.997 367.442C757.362 367.596 756.694 367.532 756.1 367.26L746.91 363.11C746.429 362.885 745.896 362.795 745.367 362.849C744.839 362.904 744.335 363.101 743.91 363.42L740.62 365.85C740.463 365.968 740.319 366.102 740.19 366.25L731.51 375.86C731.218 376.195 730.854 376.459 730.445 376.632C730.036 376.805 729.594 376.883 729.15 376.86L723.48 376.5C723.171 376.482 722.861 376.509 722.56 376.58L717.45 377.89C716.867 378.042 716.252 378.011 715.688 377.799C715.124 377.588 714.639 377.208 714.3 376.71L713.72 375.85C713.443 375.446 713.069 375.119 712.632 374.897C712.195 374.675 711.71 374.566 711.22 374.58L705.52 374.75C704.862 374.761 704.229 375.002 703.73 375.43L702.33 376.6C701.999 376.878 701.61 377.08 701.191 377.19C700.772 377.3 700.334 377.316 699.909 377.236C699.484 377.157 699.081 376.984 698.73 376.731C698.379 376.477 698.089 376.149 697.88 375.77L696.4 373.09C696.039 372.435 695.442 371.943 694.73 371.714C694.017 371.485 693.245 371.538 692.57 371.86L682.98 376.47L672.37 381.95C672.024 382.128 671.646 382.235 671.257 382.264C670.869 382.293 670.479 382.244 670.11 382.12L661.66 379.32C661.28 379.195 660.879 379.148 660.48 379.18L644.12 380.58C643.565 380.638 643.037 380.849 642.596 381.19C642.154 381.53 641.816 381.988 641.62 382.51L639.25 389.13C639.107 389.528 638.879 389.89 638.583 390.192C638.287 390.493 637.929 390.727 637.534 390.877C637.138 391.027 636.715 391.09 636.294 391.061C635.872 391.032 635.461 390.913 635.09 390.71L634.99 390.66C634.383 390.323 633.675 390.215 632.995 390.354C632.314 390.493 631.706 390.872 631.28 391.42L629.42 393.8C628.926 394.42 628.207 394.819 627.42 394.91L622.3 395.46C622.011 395.489 621.728 395.56 621.46 395.67L613.35 399.14C612.985 399.29 612.595 399.368 612.2 399.37H608.3C607.823 399.37 607.353 399.253 606.931 399.03C606.51 398.807 606.149 398.484 605.88 398.09L605.32 397.27C604.969 396.758 604.464 396.37 603.878 396.163C603.292 395.956 602.655 395.941 602.06 396.12L592.97 398.87C592.346 399.058 591.678 399.033 591.07 398.8L586.85 397.18C586.531 397.055 586.193 396.987 585.85 396.98H576.79C576.398 396.98 576.009 397.061 575.65 397.22L566.65 401.04C566.018 401.313 565.309 401.352 564.65 401.15L560.2 399.82C559.767 399.691 559.309 399.663 558.864 399.74C558.418 399.816 557.996 399.994 557.63 400.26L555.68 401.69C555.09 402.122 554.359 402.317 553.632 402.238C552.904 402.158 552.233 401.81 551.75 401.26L551.46 400.93C551.067 400.481 550.546 400.163 549.967 400.018C549.388 399.874 548.778 399.909 548.22 400.12L540.97 402.89C540.324 403.126 539.616 403.126 538.97 402.89L535.79 401.75C535.209 401.55 534.581 401.532 533.99 401.7L530.99 402.57C530.333 402.76 529.631 402.713 529.004 402.439C528.378 402.165 527.867 401.681 527.56 401.07L526.44 398.82C526.196 398.334 525.822 397.926 525.359 397.64C524.897 397.354 524.364 397.201 523.82 397.2H521.22C520.88 397.206 520.541 397.152 520.22 397.04L510.13 393.5C509.767 393.37 509.383 393.314 508.998 393.335C508.613 393.355 508.237 393.452 507.89 393.62L500.52 397.16C500.123 397.349 499.69 397.448 499.25 397.45H489.94C489.545 397.452 489.155 397.53 488.79 397.68L486.89 398.5C486.296 398.752 485.635 398.802 485.009 398.641C484.384 398.48 483.829 398.118 483.43 397.61C483.157 397.258 482.807 396.973 482.406 396.777C482.006 396.581 481.566 396.48 481.12 396.48H476.42C475.743 396.479 475.086 396.712 474.56 397.14L471.83 399.38C471.269 399.845 470.554 400.082 469.826 400.045C469.099 400.008 468.411 399.699 467.9 399.18L467.28 398.56C466.88 398.157 466.37 397.879 465.815 397.76C465.259 397.641 464.681 397.686 464.15 397.89L461.43 398.94C460.686 399.218 459.863 399.189 459.14 398.86L449.57 394.42C449.401 394.339 449.223 394.279 449.04 394.24L441.53 392.39C440.938 392.242 440.314 392.284 439.747 392.51C439.18 392.736 438.698 393.135 438.37 393.65L433.65 401.01C433.47 401.293 433.338 401.604 433.26 401.93L431.83 408.18C431.659 408.894 431.232 409.52 430.63 409.94L427.51 412.08C427.13 412.342 426.694 412.509 426.236 412.568C425.779 412.627 425.314 412.577 424.88 412.42L418.46 410.14C417.789 409.903 417.054 409.919 416.394 410.184C415.733 410.449 415.191 410.945 414.87 411.58L411.49 417.9C411.268 418.326 411.151 418.8 411.15 419.28V422.13C411.147 422.77 410.936 423.392 410.548 423.901C410.16 424.41 409.617 424.778 409 424.95L403.38 426.51C402.784 426.679 402.149 426.651 401.57 426.43L396.67 424.58C396.256 424.421 395.811 424.359 395.37 424.4L386.92 425.17C386.47 425.214 386.016 425.152 385.594 424.988C385.172 424.825 384.794 424.566 384.49 424.23L383.49 423.12C383.074 422.653 382.515 422.337 381.9 422.22L378.05 421.44C377.657 421.365 377.252 421.37 376.861 421.455C376.469 421.539 376.098 421.7 375.77 421.93L370.7 425.54C370.247 425.859 369.713 426.046 369.16 426.08L361.39 426.49C361.096 426.508 360.807 426.569 360.53 426.67L347.04 431.67C346.662 431.813 346.258 431.875 345.855 431.851C345.452 431.827 345.058 431.717 344.7 431.53L340.8 429.53C340.388 429.32 339.932 429.21 339.47 429.21H324.97C324.301 429.21 323.651 428.981 323.13 428.56L319.62 425.75C319.123 425.352 318.509 425.127 317.872 425.109C317.235 425.091 316.609 425.281 316.09 425.65L312.33 428.33C311.95 428.602 311.64 428.961 311.426 429.376C311.212 429.792 311.1 430.253 311.1 430.72" stroke="#E1F0FE" stroke-miterlimit="10"/>
<path opacity="0.2" d="M865.93 502.79H280.93V502.89H865.93V502.79Z" fill="#F2F2F2"/>
<path opacity="0.3" d="M370.93 507.84C373.691 507.84 375.93 505.601 375.93 502.84C375.93 500.078 373.691 497.84 370.93 497.84C368.169 497.84 365.93 500.078 365.93 502.84C365.93 505.601 368.169 507.84 370.93 507.84Z" fill="#E1F0FE"/>
<path opacity="0.3" d="M443.93 507.84C446.691 507.84 448.93 505.601 448.93 502.84C448.93 500.078 446.691 497.84 443.93 497.84C441.169 497.84 438.93 500.078 438.93 502.84C438.93 505.601 441.169 507.84 443.93 507.84Z" fill="#E1F0FE"/>
<path opacity="0.3" d="M516.93 507.84C519.691 507.84 521.93 505.601 521.93 502.84C521.93 500.078 519.691 497.84 516.93 497.84C514.169 497.84 511.93 500.078 511.93 502.84C511.93 505.601 514.169 507.84 516.93 507.84Z" fill="#E1F0FE"/>
<path opacity="0.3" d="M589.93 507.84C592.691 507.84 594.93 505.601 594.93 502.84C594.93 500.078 592.691 497.84 589.93 497.84C587.169 497.84 584.93 500.078 584.93 502.84C584.93 505.601 587.169 507.84 589.93 507.84Z" fill="#E1F0FE"/>
<path opacity="0.3" d="M662.93 507.84C665.691 507.84 667.93 505.601 667.93 502.84C667.93 500.078 665.691 497.84 662.93 497.84C660.169 497.84 657.93 500.078 657.93 502.84C657.93 505.601 660.169 507.84 662.93 507.84Z" fill="#E1F0FE"/>
<path opacity="0.3" d="M735.93 507.84C738.691 507.84 740.93 505.601 740.93 502.84C740.93 500.078 738.691 497.84 735.93 497.84C733.169 497.84 730.93 500.078 730.93 502.84C730.93 505.601 733.169 507.84 735.93 507.84Z" fill="#E1F0FE"/>
<path opacity="0.3" d="M808.93 507.84C811.691 507.84 813.93 505.601 813.93 502.84C813.93 500.078 811.691 497.84 808.93 497.84C806.169 497.84 803.93 500.078 803.93 502.84C803.93 505.601 806.169 507.84 808.93 507.84Z" fill="#E1F0FE"/>
<path d="M239.7 695.66C236.7 690.15 240.1 683.4 243.99 678.49C247.88 673.58 252.6 668.49 252.5 662.2C252.35 653.2 242.8 647.88 235.17 643.11C229.503 639.567 224.28 635.361 219.61 630.58C217.656 628.742 216.038 626.576 214.83 624.18C213.25 620.66 213.29 616.66 213.39 612.81C213.73 599.956 214.367 587.126 215.3 574.32" stroke="#3F3D56" stroke-width="4" stroke-miterlimit="10"/>
<path d="M200.79 573.64C200.896 571.289 201.593 569.003 202.817 566.993C204.04 564.983 205.751 563.314 207.79 562.14L210.93 568.35L210.83 560.83C212.332 560.39 213.896 560.2 215.46 560.27C218.222 560.407 220.882 561.359 223.103 563.006C225.325 564.652 227.009 566.92 227.944 569.523C228.878 572.126 229.02 574.948 228.353 577.631C227.685 580.315 226.238 582.741 224.193 584.603C222.149 586.465 219.599 587.68 216.864 588.095C214.13 588.509 211.334 588.104 208.83 586.932C206.325 585.759 204.224 583.871 202.791 581.505C201.359 579.14 200.659 576.403 200.78 573.64H200.79Z" fill="#57B894"/>
<path d="M225.82 668.63C227.292 671.483 229.7 673.744 232.641 675.033C235.582 676.322 238.876 676.561 241.972 675.71C245.068 674.86 247.777 672.97 249.646 670.36C251.515 667.749 252.429 664.575 252.236 661.37C252.044 658.165 250.755 655.124 248.587 652.756C246.418 650.388 243.502 648.837 240.326 648.364C237.151 647.891 233.909 648.523 231.144 650.155C228.379 651.788 226.259 654.321 225.14 657.33L233.91 664.46L224.26 662.23C224.264 664.457 224.798 666.651 225.82 668.63Z" fill="#57B894"/>
<path d="M232.75 641.38C236.237 641.626 239.69 640.559 242.43 638.388C245.17 636.217 246.999 633.1 247.557 629.649C248.115 626.198 247.361 622.663 245.445 619.739C243.528 616.816 240.587 614.715 237.2 613.85L237.28 619.63L234.1 613.34C232.258 613.25 230.417 613.524 228.682 614.148C226.947 614.771 225.353 615.731 223.989 616.972C222.626 618.214 221.522 619.712 220.739 621.381C219.957 623.051 219.512 624.858 219.43 626.7C219.348 628.319 219.551 629.941 220.03 631.49C220.873 634.248 222.548 636.678 224.825 638.448C227.101 640.218 229.869 641.242 232.75 641.38V641.38Z" fill="#57B894"/>
<path d="M198.68 618.71C200.834 618.789 202.978 618.37 204.944 617.484C206.909 616.599 208.644 615.272 210.012 613.606C211.381 611.94 212.346 609.981 212.833 607.881C213.319 605.781 213.315 603.597 212.819 601.499C212.323 599.401 211.349 597.446 209.973 595.786C208.598 594.126 206.857 592.806 204.888 591.929C202.919 591.053 200.773 590.643 198.619 590.731C196.465 590.82 194.361 591.404 192.47 592.44L194.95 599.24L189.85 594.34C187.117 596.843 185.488 600.328 185.32 604.03C185.253 605.33 185.371 606.633 185.67 607.9C186.37 610.87 188.019 613.532 190.366 615.482C192.713 617.432 195.632 618.565 198.68 618.71V618.71Z" fill="#57B894"/>
<path opacity="0.1" d="M202.68 577.38C205.92 577.73 209.07 578.74 212.32 578.94C215.57 579.14 219.14 578.36 221.2 575.84C222.3 574.48 222.86 572.75 223.79 571.27C224.678 569.886 225.894 568.742 227.33 567.94C228.177 569.71 228.642 571.638 228.696 573.6C228.749 575.561 228.39 577.512 227.641 579.326C226.892 581.139 225.77 582.775 224.348 584.127C222.926 585.479 221.236 586.518 219.387 587.174C217.538 587.831 215.571 588.092 213.615 587.94C211.659 587.787 209.756 587.226 208.031 586.291C206.306 585.356 204.796 584.069 203.601 582.513C202.405 580.957 201.55 579.168 201.09 577.26C201.623 577.28 202.153 577.32 202.68 577.38Z" fill="black"/>
<path opacity="0.1" d="M198.68 618.71C201.1 618.833 203.511 618.325 205.677 617.237C207.842 616.148 209.688 614.516 211.034 612.5C212.379 610.485 213.178 608.154 213.353 605.737C213.528 603.32 213.072 600.898 212.03 598.71C210.916 599.459 209.959 600.416 209.21 601.53C208.21 603.04 207.6 604.78 206.43 606.17C204.24 608.74 200.51 609.58 197.12 609.43C193.73 609.28 190.46 608.31 187.12 608C186.65 608 186.18 607.93 185.7 607.92C186.403 610.882 188.048 613.535 190.389 615.481C192.73 617.427 195.64 618.56 198.68 618.71V618.71Z" fill="black"/>
<path opacity="0.1" d="M232.75 641.38C235.153 641.505 237.548 641.008 239.703 639.938C241.859 638.868 243.702 637.26 245.055 635.27C246.407 633.28 247.225 630.974 247.427 628.576C247.629 626.178 247.21 623.769 246.21 621.58C245.046 622.341 244.029 623.306 243.21 624.43C242.12 625.97 241.44 627.74 240.21 629.16C237.84 631.8 233.86 632.73 230.28 632.64C226.7 632.55 223.45 631.72 220 631.45C220.838 634.22 222.514 636.662 224.798 638.44C227.081 640.219 229.859 641.246 232.75 641.38V641.38Z" fill="black"/>
<path opacity="0.1" d="M225.82 668.63C227.338 672.024 230.143 674.675 233.616 676.001C237.089 677.327 240.947 677.219 244.34 675.7C247.734 674.182 250.385 671.378 251.711 667.904C253.037 664.431 252.928 660.574 251.41 657.18C250.252 657.934 249.214 658.858 248.33 659.92C246.99 661.55 246.11 663.4 244.57 664.92C241.7 667.74 237.07 668.92 232.94 669.01C230.561 669.02 228.184 668.893 225.82 668.63V668.63Z" fill="black"/>
<path d="M260.87 689.32C260.87 689.32 249.79 688.98 246.45 686.6C243.11 684.22 229.45 681.39 228.59 685.2C227.73 689.01 211.94 704.2 224.44 704.26C236.94 704.32 253.5 702.31 256.84 700.26C260.18 698.21 260.87 689.32 260.87 689.32Z" fill="#656380"/>
<path opacity="0.2" d="M224.22 702.93C236.73 703.03 253.28 700.99 256.61 698.93C259.15 697.38 260.16 691.83 260.5 689.28H260.87C260.87 689.28 260.17 698.21 256.87 700.28C253.57 702.35 236.98 704.36 224.47 704.28C220.86 704.28 219.62 702.97 219.69 701.07C220.16 702.19 221.53 702.91 224.22 702.93Z" fill="black"/>
<path d="M958.97 566.23C958.242 568.318 957.966 570.537 958.16 572.74C958.646 574.94 959.678 576.983 961.16 578.68C961.903 579.863 963.057 580.728 964.4 581.11C965.096 581.175 965.797 581.048 966.426 580.743C967.056 580.438 967.589 579.967 967.97 579.38C968.721 578.197 969.167 576.847 969.27 575.45C969.551 571.728 969.367 567.986 968.72 564.31C968.3 561.22 968.19 557.82 967.37 554.83C965.25 554.83 962.8 554.44 961.62 556.46C960.11 559.09 959.75 563.29 958.97 566.23Z" fill="#FFC0C6"/>
<path d="M970.57 511.18C970.05 512.65 969.32 514.05 968.84 515.54C968.381 517.091 968.047 518.676 967.84 520.28C966.355 529.697 964.352 539.024 961.84 548.22C960.946 550.922 960.441 553.736 960.34 556.58L966.06 556.38C966.598 556.294 967.148 556.416 967.6 556.72C968.09 557.16 968.42 558.13 969.04 557.88C970.112 552.385 970.864 546.833 971.29 541.25C971.52 537.25 971.41 533.33 971.67 529.38C972.17 521.51 974.51 512.54 971.45 504.93C971.564 507.051 971.265 509.174 970.57 511.18V511.18Z" fill="#3F3D56"/>
<path opacity="0.1" d="M970.57 511.18C970.05 512.65 969.32 514.05 968.84 515.54C968.381 517.091 968.047 518.676 967.84 520.28C966.355 529.697 964.352 539.024 961.84 548.22C960.946 550.922 960.441 553.736 960.34 556.58L966.06 556.38C966.598 556.294 967.148 556.416 967.6 556.72C968.09 557.16 968.42 558.13 969.04 557.88C970.112 552.385 970.864 546.833 971.29 541.25C971.52 537.25 971.41 533.33 971.67 529.38C972.17 521.51 974.51 512.54 971.45 504.93C971.564 507.051 971.265 509.174 970.57 511.18V511.18Z" fill="black"/>
<path d="M977.68 464.04C976.28 465.24 975.8 467.16 975.39 468.96L972.07 483.58C971.31 486.92 970.55 490.26 970.07 493.65C967.97 507.81 970.4 522.37 968.07 536.49C967.396 539.637 966.948 542.829 966.73 546.04C966.63 551.92 968.9 557.77 967.96 563.57C967.644 564.6 967.644 565.7 967.96 566.73C968.44 567.73 970.06 568.05 970.51 567.08C970.59 566.903 970.641 566.714 970.66 566.52L974.12 544.69C974.95 539.5 975.77 534.23 975.2 529C974.81 525.44 973.77 521.88 974.34 518.34C974.716 516.586 975.227 514.864 975.87 513.19C979.21 503.19 978.75 492.32 976.87 481.98C976.49 480.478 976.382 478.92 976.55 477.38C977.01 474.85 978.97 472.91 980.29 470.71C981.29 469.05 983.01 465.4 982.29 463.4C981.55 461.06 979.09 462.83 977.68 464.04Z" fill="#3F3D56"/>
<path d="M983.22 675.42C982.76 675.371 982.295 675.454 981.88 675.66C981.53 675.914 981.257 676.26 981.09 676.66C979.98 678.95 979.2 681.6 977.09 683.08C976.028 683.744 974.862 684.224 973.64 684.5L964.24 687.18C963.03 687.52 961.65 688.02 961.24 689.18C960.83 690.34 961.71 691.76 962.84 692.44C964.521 693.24 966.384 693.585 968.24 693.44L981.85 693.64C983.143 693.732 984.442 693.6 985.69 693.25C987.28 692.69 988.62 691.42 990.29 691.25C991.65 691.1 992.96 691.69 994.29 691.99C997.06 692.6 999.93 691.99 1002.68 691.29C1003.18 691.221 1003.64 690.997 1004.01 690.65C1004.31 690.216 1004.45 689.695 1004.42 689.17C1004.53 686.84 1004.57 684.52 1004.56 682.17C1004.56 680.06 1004.31 677.61 1002.56 676.45C1001.75 675.988 1000.86 675.712 999.93 675.64C994.35 674.93 988.84 675.46 983.22 675.42Z" fill="#575A88"/>
<path d="M1019.23 705.03C1018.85 705.939 1018.36 706.801 1017.78 707.6L1012.05 716.28C1009.71 719.81 1007.29 723.59 1007.13 727.82C1010.95 729.291 1015.05 729.882 1019.13 729.55C1021.17 729.498 1023.16 728.878 1024.87 727.76C1027.33 725.95 1028.3 722.76 1029.1 719.84C1029.16 719.451 1029.35 719.096 1029.65 718.84C1030.16 718.49 1030.85 718.84 1031.47 718.71C1032.74 718.55 1033.18 716.95 1033.27 715.71C1033.52 711.755 1033.19 707.785 1032.27 703.93C1032.2 703.448 1031.99 702.999 1031.66 702.64C1031.28 702.355 1030.82 702.185 1030.35 702.15C1027.49 701.66 1024.63 701.09 1021.76 700.67C1017.97 700.06 1020.3 702.3 1019.23 705.03Z" fill="#575A88"/>
<path d="M971.91 550.36C969.14 553.88 968.25 558.58 968.46 563.05C968.67 567.52 969.9 571.88 970.93 576.24C972.62 583.336 973.842 590.535 974.59 597.79C974.708 599.82 975.044 601.832 975.59 603.79C976.08 605.31 976.84 606.73 977.28 608.26C977.82 610.12 977.87 612.1 978.37 613.97C979.046 615.99 979.909 617.942 980.95 619.8C985.52 629.14 986.5 639.8 986.58 650.2C986.58 653.01 986.58 655.81 986.84 658.6C987.42 664.26 989.17 670.6 985.78 675.16C986.64 678.26 990.78 678.85 993.94 678.44C997.654 677.978 1001.29 677.002 1004.73 675.54C1003.73 673.42 1002.27 670.95 1002.34 668.54C1002.55 666.656 1003.03 664.81 1003.76 663.06C1005.57 657.56 1005.76 651.68 1005.86 645.89C1005.93 644.104 1005.91 642.314 1005.78 640.53C1005.6 638.883 1005.34 637.248 1004.98 635.63L1001.11 616.24C1000.43 612.834 1000.34 609.337 1000.84 605.9C1001.57 601.826 1002.95 597.895 1004.93 594.26C1009.56 584.91 1011.16 574.37 1012.07 563.97C1012.56 558.29 1012.68 551.97 1009.07 547.56C1006.84 545.014 1003.82 543.289 1000.49 542.66C997.192 542.058 993.825 541.927 990.49 542.27C983.8 542.83 976.06 545.1 971.91 550.36Z" fill="#3F3D56"/>
<path d="M972.72 552.85C971.44 557.15 974.62 561.34 976.26 565.52C977.2 567.93 977.67 570.52 979.11 572.71C980.89 575.38 983.95 576.96 985.88 579.53C987.81 582.1 988.37 585.11 989.88 587.78C991.39 590.45 993.88 592.67 995.28 595.45C997.4 599.6 997.09 604.58 998.58 609C999.64 612.17 1001.63 615 1002.4 618.27C1002.74 619.74 1002.83 621.27 1003.21 622.71C1004.1 626.15 1006.54 629.15 1006.79 632.71C1006.95 635.04 1006.17 637.6 1007.4 639.58C1008.14 640.79 1009.48 641.5 1010.4 642.58C1011.07 643.563 1011.56 644.661 1011.83 645.82L1013.83 652.37C1015.76 658.73 1015.98 665.3 1017.83 671.69C1019.68 678.08 1020.99 684.99 1018.83 691.29C1017.96 693.9 1016.51 696.58 1017.24 699.23C1017.55 700.167 1018.06 701.025 1018.74 701.743C1019.42 702.462 1020.24 703.024 1021.16 703.39C1023.01 704.098 1024.96 704.468 1026.94 704.48C1029.59 704.62 1032.44 704.48 1034.63 703.01C1033.55 694.978 1033.13 686.871 1033.35 678.77C1033.6 673.49 1034.35 668.23 1034.35 662.94C1034.24 659.591 1033.92 656.251 1033.4 652.94C1032.8 647.986 1031.74 643.098 1030.24 638.34C1029.4 636.214 1028.7 634.036 1028.14 631.82C1027.82 630.31 1027.72 628.76 1027.5 627.23C1027.28 625.7 1026.95 624.23 1026.62 622.66L1025.28 616.48C1024.98 615.12 1024.16 613.93 1024.1 612.54L1023.69 603.54C1023.03 588.8 1022.39 573.82 1025.94 559.54C1023.87 553.4 1020.38 546.93 1014.43 544.36C1011.98 543.382 1009.37 542.883 1006.73 542.89C994.58 542.51 983.7 547.72 972.72 552.85Z" fill="#3F3D56"/>
<path d="M981.8 452.05C982.37 452.423 982.894 452.863 983.36 453.36C983.915 454.04 984.354 454.807 984.66 455.63C985.792 458.368 986.467 461.273 986.66 464.23C993.149 459.674 999.118 454.419 1004.46 448.56C1002.07 448.74 999.87 447.03 998.73 444.93C997.726 442.753 997.149 440.404 997.03 438.01C996.97 437.56 990.8 440.18 990.3 440.45C988.1 441.65 986.04 443.08 983.89 444.36C982.857 444.991 981.792 445.569 980.7 446.09C979.7 446.55 978.12 446.76 977.29 447.42C975.08 449.2 980.44 451.1 981.8 452.05Z" fill="#FFC0C6"/>
<path d="M980.8 458.82C980.55 460.75 980.88 462.72 980.59 464.64C980.18 467.41 978.59 469.82 977.39 472.36C974.11 479.49 974.39 487.66 974.24 495.5C974.09 504.08 973.38 512.63 972.66 521.18L971.35 536.83C971.12 539.53 970.89 542.25 970.35 544.92C970.065 546.044 969.927 547.2 969.94 548.36C970.109 549.754 970.522 551.108 971.16 552.36C971.755 554.026 972.707 555.541 973.95 556.8C974.583 557.417 975.395 557.818 976.27 557.945C977.144 558.073 978.037 557.92 978.82 557.51L980 553.96C980.043 555.38 980.618 556.733 981.61 557.749C982.603 558.766 983.941 559.373 985.36 559.45C986.379 559.414 987.388 559.239 988.36 558.93L997.61 556.42C999.611 555.968 1001.56 555.297 1003.41 554.42C1007.41 552.29 1010.09 548.29 1011.53 544.01C1012.97 539.73 1013.26 535.18 1013.43 530.68C1013.8 520.29 1013.52 509.8 1011.32 499.68C1010.4 495.43 1009.14 491.25 1008.38 486.97C1007.5 481.196 1007.06 475.362 1007.08 469.52L1006.76 455.06C1006.85 453.266 1006.54 451.475 1005.87 449.81C1005.52 448.989 1004.91 448.3 1004.14 447.842C1003.37 447.384 1002.48 447.181 1001.59 447.26C998.82 447.78 998.17 451.35 996.67 453.74C995.39 455.79 993.24 457.11 991.17 458.36C989.81 459.18 988.11 460.02 986.71 459.26C985.31 458.5 985.32 456.05 983.88 455.42C981.97 454.39 980.97 457.34 980.8 458.82Z" fill="#F2F2F2"/>
<path d="M994.05 462.88C991.43 469.58 990.05 476.69 988.73 483.77C987.34 491.4 986.09 499.23 987.36 506.88C989.76 521.35 1000.74 533.04 1004.48 547.22C1005.13 549.68 1005.56 552.22 1006.48 554.6C1007.91 558.6 1010.48 562 1013.01 565.37C1014.37 567.18 1016.38 569.21 1018.52 568.48C1020.11 567.93 1020.81 566.12 1022.02 564.94C1023.71 563.29 1026.3 563 1028.66 563.11C1031.02 563.22 1033.44 563.65 1035.73 563.11C1038.02 562.57 1040.2 560.52 1039.97 558.11C1039.82 556.6 1038.76 555.37 1037.97 554.11C1035.67 550.67 1034.79 546.49 1034.12 542.4C1030.27 518.81 1031.99 494.56 1027.9 471.01C1027.39 468.01 1026.75 465.01 1025.06 462.55C1024.23 461.505 1023.46 460.413 1022.75 459.28C1022.11 458.05 1021.83 456.62 1020.99 455.51C1019.79 453.93 1017.73 453.34 1015.84 452.73C1013.27 451.9 1010.77 450.86 1008.37 449.62C1006.55 448.68 1003.97 446.08 1002.13 447.32C1000.29 448.56 998.9 452.89 997.91 454.77C996.471 457.398 995.182 460.106 994.05 462.88V462.88Z" fill="#3F3D56"/>
<path d="M1001.97 560.37C1000.55 560.7 999.04 560.25 997.61 560.57C995.26 561.11 993.91 563.5 992.85 565.66C992.46 566.327 992.218 567.071 992.14 567.84C992.113 568.224 992.209 568.606 992.414 568.931C992.619 569.257 992.922 569.509 993.28 569.65C993.677 569.708 994.081 569.656 994.45 569.499C994.819 569.342 995.137 569.086 995.37 568.76C995.828 568.106 996.366 567.512 996.97 566.99C998.63 565.88 1000.89 567.06 1002.18 568.58C1003.47 570.1 1004.44 572.01 1006.18 572.92C1007.19 573.37 1008.27 573.634 1009.37 573.7C1010.53 573.89 1011.7 573.89 1012.86 573.7C1013.44 573.607 1013.99 573.377 1014.47 573.029C1014.94 572.682 1015.33 572.226 1015.59 571.7C1015.84 571.01 1015.96 570.275 1015.92 569.54L1016.09 559.54C1016.16 558.955 1016.04 558.363 1015.75 557.85C1015.4 557.444 1014.94 557.151 1014.42 557.01C1012.56 556.3 1008.53 553.89 1006.66 555.1C1004.57 556.58 1004.97 559.68 1001.97 560.37Z" fill="#FFC0C6"/>
<path d="M982.76 451.89C992.547 451.89 1000.48 443.957 1000.48 434.17C1000.48 424.384 992.547 416.45 982.76 416.45C972.974 416.45 965.04 424.384 965.04 434.17C965.04 443.957 972.974 451.89 982.76 451.89Z" fill="#FFC0C6"/>
<path d="M981.02 432.24C980.886 431.601 980.578 431.011 980.129 430.537C979.681 430.062 979.11 429.72 978.48 429.55C977.989 429.511 977.502 429.441 977.02 429.34C975.35 428.77 975.39 426.22 973.96 425.2C972.87 424.43 971.37 424.83 970.18 425.41C968.99 425.99 967.79 426.77 966.47 426.7C965.645 426.593 964.875 426.224 964.274 425.648C963.673 425.073 963.272 424.32 963.13 423.5C962.882 421.847 963.199 420.16 964.03 418.71C966.69 413.49 972.26 410.5 977.65 408.22C979.986 407.133 982.464 406.382 985.01 405.99C987.576 405.603 990.195 406.161 992.38 407.56C993.07 408.04 993.67 408.62 994.38 409.07C995.078 409.481 995.799 409.852 996.54 410.18C1003.66 413.75 1007.37 422.71 1005.42 430.44C1004.74 433.13 1003.42 435.66 1003.01 438.39C1002.95 439.131 1002.76 439.856 1002.45 440.53C1001.54 442.13 999.33 442.28 997.45 442.23C996.949 442.273 996.448 442.154 996.02 441.89C995.63 441.498 995.38 440.988 995.31 440.44C994.57 437.44 993.41 434.37 990.98 432.44C989.68 431.44 987.58 430.92 986.52 432.19C986.096 432.861 985.76 433.583 985.52 434.34C985 435.41 983.4 436.62 982.11 436.34C980.3 435.91 981.45 433.91 981.02 432.24Z" fill="#3F3D56"/>
<path opacity="0.1" d="M1024.66 455.9C1022.53 455.65 1022.12 466.81 1019.97 466.82C1019.36 466.82 1019.47 464.47 1018.97 464.82C1018.47 465.17 1020.26 472.82 1019.97 473.42C1018.88 475.67 1021.05 466.11 1019.97 468.36C1018.54 471.3 1019.19 472.26 1018.45 475.45C1016.81 482.45 1008.64 487.53 1010.3 494.51C1012.23 502.148 1013.64 509.91 1014.52 517.74C1014.81 520.24 1014.86 522.762 1014.65 525.27C1014.08 530.71 1011.59 535.74 1009.08 540.61C1006.88 544.87 1004.64 549.11 1002.85 553.55C1002.28 554.63 1002.1 555.874 1002.35 557.07C1003.09 559.32 1006.07 559.56 1008.35 560.21C1013.02 561.54 1017.01 566.21 1021.75 565.12C1023.87 558.68 1023.62 551.89 1025.47 545.36C1027.37 538.67 1031.81 532.85 1033.25 526.05C1033.75 523.238 1033.99 520.386 1033.97 517.53L1034.67 485.98C1034.76 484.105 1034.7 482.225 1034.48 480.36C1034.14 478.444 1033.63 476.561 1032.97 474.73L1029.31 463.73C1028.35 460.79 1027.67 456.26 1024.66 455.9Z" fill="black"/>
<path d="M1026.18 455.9C1024.05 455.65 1021.9 455.53 1019.75 455.54C1019.12 455.435 1018.48 455.568 1017.94 455.914C1017.41 456.26 1017.02 456.794 1016.86 457.41L1013.59 464.14C1012.06 467.033 1010.85 470.085 1009.98 473.24C1008.34 480.24 1010.16 487.51 1011.82 494.49C1013.75 502.128 1015.16 509.89 1016.04 517.72C1016.33 520.22 1016.38 522.742 1016.17 525.25C1015.6 530.69 1013.11 535.72 1010.6 540.59C1008.4 544.85 1006.16 549.09 1004.37 553.53C1003.8 554.608 1003.62 555.855 1003.87 557.05C1004.61 559.3 1007.59 559.54 1009.87 560.19C1014.54 561.52 1018.53 566.19 1023.27 565.1C1025.39 558.66 1025.14 551.87 1026.99 545.34C1028.89 538.65 1033.33 532.83 1034.77 526.03C1035.27 523.218 1035.51 520.366 1035.49 517.51L1036.18 485.96C1036.28 484.085 1036.22 482.204 1035.99 480.34C1035.65 478.424 1035.15 476.54 1034.49 474.71L1030.83 463.71C1029.87 460.79 1029.19 456.26 1026.18 455.9Z" fill="#3F3D56"/>
</g>
<defs>
<clipPath id="clip0">
<rect width="1137.93" height="741.16" fill="white"/>
</clipPath>
</defs>
</svg>
