<svg width="992" height="1015" viewBox="0 0 992 1015" fill="none" xmlns="http://www.w3.org/2000/svg">
<g filter="url(#filter0_d_961_79)">
<rect x="164.5" y="1.5" width="211" height="350" rx="45.5" stroke="white" stroke-width="3" shape-rendering="crispEdges"/>
</g>
<path d="M844.003 764.372L830.532 770.978L842.454 761.741C840.517 758.607 838.34 755.639 835.945 752.865L777.524 767.911L830.295 747.052C827.883 744.848 825.322 742.825 822.631 741L733.611 755.858C724.159 768.105 719.007 783.318 719 799H853C852.994 786.838 849.891 774.893 844.003 764.372Z" fill="white"/>
<path d="M784.243 799L740 729C740 729 807.002 753.915 799.398 799H784.243Z" fill="#008445" fill-opacity="0.9"/>
<path d="M787.757 799L832 729C832 729 764.997 753.915 772.601 799H787.757Z" fill="#008445" fill-opacity="0.9"/>
<mask id="path-5-inside-1_961_79" fill="white">
<path d="M866 1015H529V667H866V1015ZM530.571 1013.91H864.428V668.087H530.571V1013.91Z"/>
</mask>
<g filter="url(#filter1_i_961_79)">
<path d="M866 1015H529V667H866V1015ZM530.571 1013.91H864.428V668.087H530.571V1013.91Z" fill="white" fill-opacity="0.4"/>
</g>
<path d="M866 1015V2015H1866V1015H866ZM529 1015H-471V2015H529V1015ZM529 667V-333H-471V667H529ZM866 667H1866V-333H866V667ZM530.571 1013.91H-469.429V2013.91H530.571V1013.91ZM864.428 1013.91V2013.91H1864.43V1013.91H864.428ZM864.428 668.087H1864.43V-331.913H864.428V668.087ZM530.571 668.087V-331.913H-469.429V668.087H530.571ZM866 15H529V2015H866V15ZM1529 1015V667H-471V1015H1529ZM529 1667H866V-333H529V1667ZM-134 667V1015H1866V667H-134ZM530.571 2013.91H864.428V13.9125H530.571V2013.91ZM1864.43 1013.91V668.087H-135.572V1013.91H1864.43ZM864.428 -331.913H530.571V1668.09H864.428V-331.913ZM-469.429 668.087V1013.91H1530.57V668.087H-469.429Z" fill="white" mask="url(#path-5-inside-1_961_79)"/>
<path d="M865 679H530V681H865V679Z" fill="white" fill-opacity="0.4"/>
<path d="M538.5 678C540.433 678 542 676.433 542 674.5C542 672.567 540.433 671 538.5 671C536.567 671 535 672.567 535 674.5C535 676.433 536.567 678 538.5 678Z" fill="#24292E" fill-opacity="0.8"/>
<path d="M547 678C548.656 678 550 676.433 550 674.5C550 672.567 548.656 671 547 671C545.343 671 544 672.567 544 674.5C544 676.433 545.343 678 547 678Z" fill="#24292E" fill-opacity="0.8"/>
<path d="M555 678C557.209 678 559 676.433 559 674.5C559 672.567 557.209 671 555 671C552.79 671 551 672.567 551 674.5C551 676.433 552.79 678 555 678Z" fill="#24292E" fill-opacity="0.8"/>
<path d="M555 691H542V698H555V691Z" fill="#24292E" fill-opacity="0.8"/>
<path d="M611 755H542V763H611V755Z" fill="#24292E" fill-opacity="0.8"/>
<path d="M788 698H856V691H788V698Z" fill="white"/>
<path d="M658 770H542V774H658V770Z" fill="white"/>
<path d="M651 780H542V784H651V780Z" fill="white"/>
<path d="M621 791H542V796H621V791Z" fill="white"/>
<path d="M614 936H568V941H614V936Z" fill="white"/>
<path d="M612 948H568V952H612V948Z" fill="white"/>
<path d="M600 957H568V962H600V957Z" fill="white"/>
<path d="M720 936H675V941H720V936Z" fill="white"/>
<path d="M718 948H675V952H718V948Z" fill="white"/>
<path d="M706 957H675V962H706V957Z" fill="white"/>
<path d="M830 936H783V941H830V936Z" fill="white"/>
<path d="M828 948H783V952H828V948Z" fill="white"/>
<path d="M816 957H783V962H816V957Z" fill="white"/>
<path opacity="0.3" d="M836 844H562V846H836V844Z" fill="#24292E" fill-opacity="0.8"/>
<path opacity="0.3" d="M620 873H562V927H620V873Z" fill="#24292E" fill-opacity="0.8"/>
<path d="M726 873H668V927H726V873Z" fill="#6F7C8A"/>
<path d="M837 878H779V932H837V878Z" fill="#6F7C8A"/>
<path d="M689.782 927L689 926.984C689.016 926.084 689.506 904.865 697.55 899L698 899.665C690.28 905.294 689.786 926.784 689.782 927Z" fill="white" fill-opacity="0.8"/>
<path d="M701.5 899C703.433 899 705 896.985 705 894.5C705 892.015 703.433 890 701.5 890C699.567 890 698 892.015 698 894.5C698 896.985 699.567 899 701.5 899Z" fill="white" fill-opacity="0.8"/>
<path d="M700.057 908.259C698.096 909.105 696.007 909.229 694 908.618C695.274 906.39 696.99 904.714 698.942 903.795C700.894 902.875 702.997 902.751 705 903.436C703.688 905.61 701.983 907.273 700.057 908.259Z" fill="white" fill-opacity="0.8"/>
<path d="M799.782 927L799 926.984C799.016 926.084 799.506 904.865 807.55 899L808 899.665C800.28 905.294 799.786 926.784 799.782 927Z" fill="white" fill-opacity="0.8"/>
<path d="M811.5 899C813.433 899 815 896.985 815 894.5C815 892.015 813.433 890 811.5 890C809.567 890 808 892.015 808 894.5C808 896.985 809.567 899 811.5 899Z" fill="white" fill-opacity="0.8"/>
<path d="M811.057 908.259C809.096 909.105 807.007 909.229 805 908.618C806.274 906.39 807.99 904.714 809.942 903.795C811.894 902.875 813.997 902.751 816 903.436C814.688 905.61 812.983 907.273 811.057 908.259V908.259Z" fill="white" fill-opacity="0.8"/>
<path d="M612.541 854.068L556.734 836.679L541.812 888.411L597.619 905.801L612.541 854.068Z" fill="#6F7C8A"/>
<path d="M562.737 896L562 895.746C562.262 894.872 568.53 874.284 577.756 871L578 871.787C569.146 874.939 562.8 895.79 562.737 896Z" fill="white" fill-opacity="0.8"/>
<path d="M582.5 872C584.433 872 586 870.209 586 868C586 865.791 584.433 864 582.5 864C580.567 864 579 865.791 579 868C579 870.209 580.567 872 582.5 872Z" fill="white" fill-opacity="0.8"/>
<path d="M578.069 888.999C575.946 889.03 573.853 888.433 572 887.269C573.741 885.888 575.801 885.103 577.93 885.01C580.059 884.916 582.167 885.517 584 886.74C582.233 888.064 580.188 888.843 578.069 888.999V888.999Z" fill="white" fill-opacity="0.8"/>
<path d="M309.999 88C320.493 88 329 79.0457 329 68C329 56.9543 320.493 48 309.999 48C299.506 48 291 56.9543 291 68C291 79.0457 299.506 88 309.999 88Z" fill="#49D893"/>
<path d="M313.4 98H227.6C220.014 98 212.74 94.8393 207.376 89.2132C202.013 83.5871 199 75.9565 199 68C199 60.0435 202.013 52.4129 207.376 46.7868C212.74 41.1607 220.014 38 227.6 38H313.4C320.985 38 328.259 41.1607 333.623 46.7868C338.986 52.4129 342 60.0435 342 68C342 75.9565 338.986 83.5871 333.623 89.2132C328.259 94.8393 320.985 98 313.4 98ZM227.6 42C221.026 42 214.721 44.7393 210.073 49.6152C205.424 54.4912 202.813 61.1044 202.813 68C202.813 74.8956 205.424 81.5088 210.073 86.3848C214.721 91.2607 221.026 94 227.6 94H313.4C319.973 94 326.278 91.2607 330.926 86.3848C335.575 81.5088 338.186 74.8956 338.186 68C338.186 61.1044 335.575 54.4912 330.926 49.6152C326.278 44.7393 319.973 42 313.4 42H227.6Z" fill="#49D893"/>
<path d="M230.999 197C241.493 197 250 188.046 250 177C250 165.954 241.493 157 230.999 157C220.506 157 212 165.954 212 177C212 188.046 220.506 197 230.999 197Z" fill="white"/>
<path d="M313.4 206H227.6C220.014 206 212.74 202.892 207.376 197.36C202.013 191.827 199 184.324 199 176.5C199 168.676 202.013 161.173 207.376 155.64C212.74 150.108 220.014 147 227.6 147H313.4C320.985 147 328.259 150.108 333.623 155.64C338.986 161.173 342 168.676 342 176.5C342 184.324 338.986 191.827 333.623 197.36C328.259 202.892 320.985 206 313.4 206ZM227.6 150.933C221.026 150.933 214.721 153.627 210.073 158.422C205.424 163.216 202.813 169.719 202.813 176.5C202.813 183.281 205.424 189.784 210.073 194.578C214.721 199.373 221.026 202.067 227.6 202.067H313.4C319.973 202.067 326.278 199.373 330.926 194.578C335.575 189.784 338.186 183.281 338.186 176.5C338.186 169.719 335.575 163.216 330.926 158.422C326.278 153.627 319.973 150.933 313.4 150.933H227.6Z" fill="white"/>
<path d="M230.999 305C241.493 305 250 296.27 250 285.5C250 274.73 241.493 266 230.999 266C220.506 266 212 274.73 212 285.5C212 296.27 220.506 305 230.999 305Z" fill="white"/>
<path d="M313.4 315H227.6C220.014 315 212.74 311.892 207.376 306.36C202.013 300.827 199 293.324 199 285.5C199 277.676 202.013 270.173 207.376 264.64C212.74 259.108 220.014 256 227.6 256H313.4C320.985 256 328.259 259.108 333.623 264.64C338.986 270.173 342 277.676 342 285.5C342 293.324 338.986 300.827 333.623 306.36C328.259 311.892 320.985 315 313.4 315ZM227.6 259.933C221.026 259.933 214.721 262.627 210.073 267.422C205.424 272.216 202.813 278.719 202.813 285.5C202.813 292.281 205.424 298.784 210.073 303.578C214.721 308.373 221.026 311.067 227.6 311.067H313.4C316.655 311.067 319.878 310.405 322.885 309.121C325.892 307.836 328.625 305.952 330.926 303.578C333.228 301.204 335.054 298.386 336.299 295.284C337.545 292.182 338.186 288.857 338.186 285.5C338.186 282.143 337.545 278.818 336.299 275.716C335.054 272.614 333.228 269.796 330.926 267.422C328.625 265.048 325.892 263.164 322.885 261.879C319.878 260.595 316.655 259.933 313.4 259.933H227.6Z" fill="white"/>
<g filter="url(#filter2_d_961_79)">
<path d="M325 521H56C27.2812 521 4 544.281 4 573V702C4 730.719 27.2812 754 56 754H325C353.719 754 377 730.719 377 702V573C377 544.281 353.719 521 325 521Z" fill="#303036"/>
<path d="M56 522.5H325C352.89 522.5 375.5 545.11 375.5 573V702C375.5 729.89 352.89 752.5 325 752.5H56C28.1096 752.5 5.5 729.89 5.5 702V573C5.5 545.11 28.1096 522.5 56 522.5Z" stroke="white" stroke-width="3"/>
</g>
<path opacity="0.3" d="M339.519 576.469L334.623 582.1C334.524 582.218 334.441 582.351 334.377 582.495L331.34 589.401C331.219 589.679 331.025 589.909 330.783 590.063C330.542 590.217 330.263 590.286 329.985 590.262L329.012 590.178C328.729 590.156 328.46 590.038 328.24 589.842C328.019 589.645 327.859 589.378 327.781 589.078L326.843 585.492C326.761 585.178 326.59 584.902 326.356 584.702C326.122 584.503 325.837 584.391 325.541 584.383C325.246 584.375 324.955 584.471 324.713 584.658C324.47 584.845 324.288 585.112 324.192 585.421L322.615 590.521C322.522 590.825 322.344 591.09 322.107 591.277C321.871 591.464 321.587 591.564 321.296 591.563H315.274C314.944 591.562 314.624 591.431 314.373 591.194C314.122 590.957 313.955 590.629 313.902 590.269L312.202 578.521C312.157 578.2 312.02 577.903 311.812 577.672C311.604 577.442 311.335 577.291 311.044 577.241C310.753 577.19 310.455 577.243 310.193 577.392C309.931 577.541 309.719 577.777 309.587 578.068L300.868 597.065C300.778 597.261 300.651 597.434 300.495 597.572C300.339 597.709 300.158 597.808 299.964 597.862C299.771 597.915 299.569 597.922 299.373 597.881C299.176 597.841 298.99 597.755 298.827 597.628L293.644 593.589C293.361 593.37 293.015 593.274 292.672 593.319C292.329 593.364 292.013 593.548 291.785 593.835L289.821 596.34C289.763 596.414 289.712 596.494 289.669 596.579L284.427 606.592C284.294 606.849 284.096 607.057 283.858 607.192C283.619 607.326 283.35 607.381 283.084 607.349L279.888 607C279.665 606.976 279.44 607.011 279.232 607.104L276.37 608.366C276.039 608.504 275.672 608.497 275.345 608.346C275.019 608.196 274.756 607.913 274.611 607.557L273.984 605.971C273.871 605.687 273.683 605.447 273.444 605.283C273.206 605.119 272.928 605.039 272.647 605.052L269.375 605.22C269.173 605.229 268.975 605.288 268.795 605.392C268.616 605.497 268.46 605.643 268.338 605.822L267.411 607.155C267.259 607.375 267.055 607.545 266.822 607.648C266.589 607.751 266.335 607.782 266.088 607.738C265.84 607.694 265.608 607.577 265.415 607.399C265.223 607.221 265.078 606.99 264.995 606.728L263.823 603.071C263.75 602.844 263.63 602.638 263.473 602.471C263.315 602.304 263.124 602.181 262.915 602.111C262.706 602.041 262.485 602.027 262.27 602.069C262.054 602.11 261.851 602.208 261.677 602.353L256.106 606.961L249.95 612.443C249.74 612.63 249.485 612.745 249.216 612.775C248.948 612.805 248.677 612.748 248.437 612.612L243.658 609.874C243.402 609.729 243.111 609.674 242.826 609.718L233.145 611.214C232.865 611.255 232.602 611.39 232.393 611.601C232.183 611.811 232.037 612.087 231.973 612.392L230.255 620.631C230.201 620.888 230.088 621.126 229.927 621.321C229.767 621.516 229.563 621.661 229.336 621.744C229.109 621.827 228.866 621.843 228.632 621.792C228.398 621.741 228.179 621.624 227.997 621.453V621.453C227.836 621.302 227.646 621.192 227.442 621.134C227.237 621.075 227.023 621.069 226.816 621.115C226.609 621.161 226.414 621.259 226.245 621.4C226.077 621.542 225.941 621.724 225.845 621.932L224.526 624.851C224.427 625.067 224.284 625.254 224.108 625.398C223.932 625.542 223.728 625.638 223.512 625.68L220.516 626.23C220.323 626.267 220.139 626.348 219.976 626.469L215.256 629.938C215.029 630.107 214.762 630.197 214.488 630.197H212.278C212.006 630.198 211.74 630.111 211.513 629.946C211.286 629.782 211.107 629.547 210.999 629.272L210.413 627.725C210.338 627.537 210.23 627.368 210.096 627.228C209.961 627.087 209.802 626.977 209.628 626.906C209.454 626.834 209.269 626.801 209.084 626.81C208.898 626.818 208.716 626.867 208.548 626.955L203.424 629.602C203.217 629.709 202.99 629.758 202.762 629.746C202.534 629.734 202.312 629.66 202.116 629.531L199.771 627.971C199.555 627.828 199.308 627.752 199.056 627.751H193.878C193.605 627.752 193.337 627.842 193.11 628.01L187.944 631.796C187.745 631.942 187.516 632.029 187.277 632.048C187.039 632.067 186.8 632.018 186.584 631.906L184.239 630.683C183.965 630.542 183.658 630.503 183.363 630.572C183.068 630.641 182.801 630.814 182.603 631.065L181.489 632.469C181.343 632.655 181.159 632.8 180.952 632.89C180.744 632.981 180.521 633.015 180.299 632.99C180.077 632.964 179.864 632.88 179.679 632.744C179.493 632.609 179.339 632.426 179.231 632.21L178.897 631.563C178.807 631.384 178.684 631.227 178.538 631.101C178.392 630.976 178.224 630.883 178.044 630.83C177.865 630.777 177.678 630.764 177.494 630.792C177.31 630.82 177.133 630.889 176.974 630.993L172.911 633.654C172.7 633.787 172.462 633.857 172.219 633.857C171.976 633.857 171.737 633.787 171.527 633.654L169.85 632.625C169.661 632.507 169.449 632.44 169.232 632.43C169.015 632.42 168.799 632.467 168.601 632.566L167.006 633.369C166.827 633.458 166.633 633.504 166.436 633.504C166.239 633.505 166.045 633.46 165.865 633.372C165.685 633.284 165.525 633.155 165.393 632.994C165.261 632.833 165.161 632.643 165.101 632.437L164.069 629.045C163.981 628.734 163.804 628.462 163.566 628.27C163.327 628.078 163.039 627.975 162.743 627.977H161.242C161.006 627.978 160.774 627.911 160.568 627.783L154.804 624.294C154.57 624.154 154.304 624.092 154.038 624.113C153.772 624.135 153.517 624.241 153.303 624.417L149.076 627.913C148.836 628.111 148.543 628.218 148.243 628.217H142.925C142.652 628.217 142.384 628.307 142.157 628.476L141.16 629.207C140.996 629.328 140.811 629.41 140.616 629.446C140.421 629.482 140.222 629.472 140.031 629.416C139.84 629.36 139.662 629.26 139.509 629.123C139.356 628.985 139.231 628.813 139.143 628.618L138.903 628.094C138.789 627.837 138.612 627.621 138.392 627.47C138.172 627.319 137.919 627.239 137.66 627.239H134.992C134.78 627.24 134.571 627.294 134.381 627.397C134.191 627.5 134.025 627.65 133.896 627.835L132.242 630.171C132.105 630.365 131.928 630.52 131.725 630.622C131.523 630.725 131.301 630.772 131.079 630.76C130.856 630.748 130.64 630.677 130.447 630.553C130.255 630.429 130.092 630.256 129.973 630.049L129.504 629.239C129.31 628.901 129.004 628.659 128.651 628.567C128.298 628.475 127.926 628.54 127.616 628.748L126.244 629.654C126.01 629.808 125.741 629.883 125.469 629.871C125.197 629.858 124.934 629.758 124.713 629.582L119.184 625.162C119.085 625.085 118.979 625.02 118.868 624.968L114.546 623.136C114.21 623.001 113.839 623.014 113.511 623.173C113.184 623.332 112.924 623.625 112.787 623.99L109.779 632.081C109.736 632.195 109.706 632.314 109.691 632.437L108.718 639.725C108.675 640.033 108.548 640.32 108.355 640.547L106.296 642.987C106.083 643.236 105.801 643.399 105.494 643.452C105.188 643.505 104.874 643.444 104.602 643.278L101.031 641.091C100.853 640.981 100.656 640.915 100.453 640.899C100.25 640.883 100.046 640.916 99.8559 640.996C99.6657 641.076 99.4939 641.202 99.3525 641.364C99.211 641.525 99.1035 641.719 99.0376 641.932L96.7743 649.239C96.723 649.399 96.6972 649.568 96.6981 649.738V654.346C96.6974 654.645 96.6177 654.937 96.4688 655.187C96.3198 655.436 96.1081 655.632 95.8596 655.751L92.2302 657.524C92.0285 657.62 91.8091 657.662 91.59 657.646C91.3709 657.63 91.1582 657.558 90.9695 657.434L88.2372 655.66C87.9649 655.484 87.6464 655.416 87.3342 655.466L82.5438 656.223C82.2699 656.267 81.9905 656.218 81.7417 656.084C81.4929 655.95 81.2863 655.737 81.1483 655.472L80.3392 653.945C80.1645 653.616 79.8841 653.371 79.5535 653.259L77.3781 652.508C77.1245 652.419 76.853 652.412 76.5961 652.489C76.3393 652.566 76.1079 652.723 75.9299 652.942L72.9102 656.644C72.672 656.934 72.3432 657.115 71.9897 657.149L67.5335 657.563C67.3269 657.576 67.126 657.642 66.9472 657.757L59.1781 662.689C58.9356 662.841 58.6574 662.91 58.3794 662.885C58.1014 662.861 57.8364 662.745 57.6185 662.553L55.4138 660.612C55.1669 660.395 54.8613 660.277 54.546 660.275H46.1966C45.9881 660.276 45.7821 660.224 45.5942 660.125C45.4063 660.025 45.2414 659.879 45.1118 659.699L43.0069 656.799C42.8807 656.626 42.7219 656.485 42.5415 656.386C42.3611 656.287 42.1634 656.233 41.9621 656.227C41.7608 656.221 41.5606 656.263 41.3755 656.351C41.1904 656.438 41.0248 656.569 40.8902 656.735L38.3572 659.841C38.1279 660.122 38.0006 660.486 37.9995 660.864V699.466C37.9995 699.873 38.1459 700.263 38.4065 700.551C38.6671 700.838 39.0206 701 39.3892 701H340.61C340.793 701 340.974 700.96 341.143 700.883C341.312 700.805 341.465 700.692 341.595 700.548C341.724 700.405 341.826 700.235 341.895 700.049C341.965 699.862 342 699.662 342 699.46L341.917 577.563C341.922 577.254 341.841 576.951 341.688 576.693C341.534 576.436 341.313 576.235 341.055 576.117C340.796 575.999 340.512 575.969 340.238 576.032C339.964 576.095 339.714 576.247 339.519 576.469V576.469Z" fill="#E1F0FE"/>
<path opacity="0.3" d="M339.249 626.317L334.711 629.663C334.552 629.781 334.411 629.928 334.295 630.097L331.474 634.214C331.303 634.458 331.082 634.654 330.829 634.785C330.576 634.915 330.299 634.978 330.02 634.967L329.1 634.915C328.784 634.897 328.478 634.784 328.216 634.587C327.955 634.391 327.747 634.118 327.616 633.799L327.03 632.418C326.899 632.094 326.688 631.817 326.421 631.619C326.154 631.421 325.843 631.309 325.522 631.298C325.201 631.286 324.883 631.375 324.605 631.554C324.328 631.732 324.101 631.994 323.951 632.308L322.779 634.792C322.632 635.096 322.413 635.351 322.146 635.528C321.878 635.705 321.572 635.798 321.26 635.797H315.443C315.06 635.798 314.687 635.657 314.385 635.396C314.083 635.135 313.869 634.769 313.778 634.357L312.382 628.178C312.305 627.833 312.141 627.52 311.911 627.273C311.68 627.026 311.392 626.855 311.078 626.78C310.764 626.706 310.438 626.729 310.136 626.849C309.833 626.969 309.568 627.18 309.368 627.458L300.983 639.181C300.747 639.515 300.416 639.75 300.044 639.85C299.671 639.95 299.28 639.909 298.931 639.732L293.542 637.042C293.26 636.896 292.948 636.837 292.638 636.873C292.328 636.908 292.033 637.036 291.783 637.243L289.854 638.818C289.762 638.894 289.677 638.981 289.602 639.077L284.512 645.309C284.341 645.526 284.128 645.697 283.888 645.809C283.648 645.921 283.389 645.972 283.129 645.957L279.804 645.724C279.623 645.712 279.441 645.729 279.265 645.776L276.268 646.625C275.927 646.724 275.566 646.703 275.235 646.566C274.904 646.429 274.62 646.182 274.421 645.86L274.081 645.302C273.918 645.04 273.699 644.828 273.443 644.684C273.187 644.54 272.902 644.47 272.615 644.479L269.273 644.589C268.887 644.596 268.516 644.752 268.223 645.03L267.402 645.788C267.208 645.969 266.98 646.099 266.734 646.171C266.489 646.242 266.232 646.252 265.983 646.201C265.733 646.15 265.497 646.038 265.291 645.873C265.086 645.709 264.916 645.496 264.793 645.25L263.925 643.513C263.714 643.088 263.363 642.769 262.946 642.62C262.528 642.472 262.075 642.506 261.679 642.715L256.056 645.704L249.835 649.257C249.632 649.373 249.41 649.442 249.182 649.461C248.955 649.48 248.726 649.448 248.51 649.368L243.555 647.552C243.332 647.471 243.097 647.44 242.863 647.461L233.27 648.363C232.945 648.4 232.635 648.537 232.376 648.758C232.117 648.979 231.919 649.275 231.804 649.614L230.415 653.906C230.331 654.164 230.197 654.399 230.023 654.595C229.85 654.79 229.64 654.942 229.408 655.039C229.176 655.136 228.928 655.177 228.681 655.159C228.434 655.14 228.193 655.062 227.975 654.931L227.917 654.899C227.561 654.68 227.146 654.61 226.747 654.7C226.348 654.79 225.991 655.036 225.741 655.391L224.651 656.935C224.361 657.336 223.939 657.595 223.478 657.654L220.476 658.011C220.306 658.03 220.141 658.076 219.983 658.147L215.228 660.397C215.014 660.494 214.785 660.545 214.553 660.546H212.267C211.987 660.546 211.711 660.47 211.464 660.326C211.217 660.181 211.005 659.972 210.848 659.716L210.519 659.184C210.313 658.852 210.017 658.601 209.674 658.467C209.33 658.333 208.957 658.323 208.608 658.439L203.278 660.222C202.912 660.344 202.52 660.328 202.164 660.177L199.689 659.126C199.502 659.045 199.304 659.001 199.103 658.996H193.79C193.56 658.996 193.332 659.049 193.122 659.152L187.845 661.629C187.474 661.806 187.058 661.831 186.672 661.7L184.063 660.838C183.808 660.754 183.54 660.736 183.279 660.786C183.018 660.835 182.77 660.951 182.556 661.123L181.412 662.05C181.066 662.33 180.638 662.457 180.211 662.406C179.785 662.354 179.391 662.128 179.108 661.772L178.938 661.558C178.707 661.267 178.402 661.06 178.062 660.966C177.723 660.873 177.365 660.896 177.038 661.032L172.787 662.828C172.408 662.981 171.993 662.981 171.614 662.828L169.749 662.089C169.409 661.959 169.041 661.948 168.694 662.057L166.935 662.621C166.55 662.744 166.138 662.714 165.771 662.536C165.403 662.359 165.104 662.045 164.924 661.648L164.267 660.189C164.124 659.874 163.904 659.609 163.633 659.424C163.362 659.239 163.05 659.14 162.731 659.139H161.206C161.007 659.143 160.808 659.108 160.62 659.035L154.703 656.74C154.491 656.656 154.265 656.619 154.04 656.633C153.814 656.646 153.593 656.709 153.39 656.818L149.068 659.113C148.836 659.235 148.581 659.3 148.324 659.301H142.865C142.633 659.302 142.404 659.353 142.19 659.45L141.076 659.982C140.728 660.146 140.34 660.178 139.974 660.073C139.607 659.969 139.281 659.734 139.047 659.405V659.405C138.887 659.177 138.682 658.992 138.447 658.865C138.212 658.738 137.954 658.672 137.693 658.672H134.937C134.54 658.672 134.155 658.823 133.846 659.1L132.246 660.553C131.917 660.854 131.497 661.008 131.071 660.984C130.644 660.96 130.241 660.76 129.941 660.423L129.578 660.021C129.343 659.759 129.044 659.579 128.718 659.502C128.393 659.425 128.053 659.454 127.742 659.586L126.147 660.267C125.711 660.447 125.228 660.429 124.805 660.215L119.193 657.337C119.094 657.284 118.99 657.245 118.882 657.22L114.479 656.02C114.132 655.924 113.766 655.952 113.433 656.098C113.101 656.245 112.818 656.503 112.626 656.837L109.858 661.609C109.752 661.793 109.675 661.994 109.63 662.206L108.791 666.259C108.691 666.721 108.44 667.127 108.088 667.4L106.258 668.787C106.035 668.957 105.779 669.066 105.511 669.104C105.243 669.142 104.97 669.109 104.716 669.008L100.951 667.529C100.558 667.376 100.127 667.386 99.7398 667.558C99.3524 667.729 99.0349 668.051 98.8464 668.463L96.8645 672.561C96.7342 672.837 96.6658 673.144 96.6651 673.456V675.304C96.6636 675.719 96.5397 676.122 96.3122 676.452C96.0846 676.782 95.7659 677.021 95.4045 677.132L92.1091 678.144C91.7595 678.253 91.3873 678.235 91.0478 678.092L88.1746 676.892C87.932 676.789 87.6712 676.749 87.4123 676.776L82.4576 677.275C82.1935 677.303 81.9272 677.263 81.6798 677.157C81.4323 677.051 81.2107 676.883 81.0327 676.665L80.4463 675.946C80.2022 675.643 79.8744 675.438 79.514 675.362L77.2565 674.856C77.0258 674.808 76.7886 674.811 76.559 674.866C76.3294 674.92 76.112 675.025 75.9196 675.174L72.9468 677.515C72.6808 677.722 72.3682 677.843 72.0438 677.865L67.4877 678.131C67.3154 678.143 67.1456 678.182 66.9834 678.248L59.0734 681.49C58.8519 681.582 58.6151 681.622 58.3786 681.607C58.1421 681.591 57.9112 681.52 57.7013 681.399L55.4145 680.102C55.173 679.966 54.9058 679.895 54.6346 679.894H46.1324C45.7397 679.894 45.359 679.746 45.0535 679.473L42.9953 677.651C42.7036 677.393 42.3437 677.247 41.9702 677.235C41.5967 677.223 41.2299 677.347 40.9255 677.586L38.7207 679.324C38.4978 679.5 38.316 679.733 38.1906 680.002C38.0652 680.272 37.9997 680.57 37.9995 680.874V699.1C37.9995 699.604 38.1805 700.087 38.5027 700.444C38.8249 700.8 39.2619 701 39.7176 701H340.281C340.737 701 341.174 700.8 341.496 700.444C341.818 700.087 342 699.604 342 699.1L341.917 627.925C341.922 627.579 341.84 627.239 341.683 626.941C341.525 626.642 341.296 626.397 341.022 626.232C340.747 626.066 340.437 625.987 340.125 626.002C339.813 626.017 339.51 626.126 339.249 626.317V626.317Z" fill="#E1F0FE"/>
<path d="M340 630C342.209 630 344 627.985 344 625.5C344 623.015 342.209 621 340 621C337.79 621 336 623.015 336 625.5C336 627.985 337.79 630 340 630Z" fill="#E1F0FE"/>
<path opacity="0.3" d="M340.217 671.068L334.641 673.1C334.534 673.14 334.431 673.194 334.336 673.26L331.275 675.471C331.052 675.63 330.79 675.71 330.524 675.701L328.618 675.65C328.441 675.646 328.266 675.603 328.105 675.522C327.944 675.442 327.799 675.326 327.68 675.182L326.508 673.773C326.391 673.632 326.25 673.518 326.093 673.437C325.935 673.357 325.765 673.311 325.591 673.303C325.418 673.296 325.244 673.326 325.081 673.392C324.919 673.458 324.77 673.559 324.643 673.689L322.667 675.714C322.427 675.965 322.108 676.105 321.775 676.105H314.927C314.682 676.107 314.443 676.033 314.235 675.893C314.028 675.752 313.861 675.55 313.754 675.31L312.188 671.895C312.107 671.717 311.992 671.559 311.851 671.432C311.71 671.306 311.547 671.212 311.371 671.159C311.196 671.105 311.012 671.092 310.831 671.121C310.651 671.149 310.478 671.219 310.324 671.325L300.631 678.034C300.337 678.235 299.984 678.301 299.646 678.22L293.008 676.586C292.762 676.522 292.505 676.54 292.269 676.637L289.847 677.617C289.784 677.639 289.723 677.669 289.666 677.707L284.312 680.949C284.105 681.073 283.873 681.134 283.638 681.129L279.674 680.988C279.605 680.981 279.537 680.981 279.469 680.988L275.657 681.52C275.325 681.564 274.99 681.47 274.719 681.257L273.945 680.616C273.716 680.432 273.438 680.335 273.153 680.341L268.972 680.405C268.805 680.405 268.64 680.442 268.486 680.514L266.609 681.379C266.38 681.483 266.128 681.513 265.883 681.467C265.638 681.42 265.41 681.299 265.226 681.116L263.689 679.629C263.533 679.475 263.344 679.365 263.14 679.308C262.935 679.251 262.722 679.249 262.516 679.303L256.102 680.994L249.505 682.859C249.327 682.901 249.143 682.901 248.965 682.859L243.395 681.847C243.305 681.84 243.215 681.84 243.125 681.847L232.822 682.353C232.625 682.362 232.432 682.421 232.258 682.524C232.084 682.628 231.934 682.773 231.82 682.949L230.266 685.288C230.111 685.525 229.893 685.705 229.641 685.802C229.389 685.9 229.116 685.91 228.859 685.832L227.199 685.333C227.022 685.282 226.838 685.271 226.657 685.302C226.477 685.333 226.304 685.405 226.15 685.512L224.49 686.672C224.299 686.801 224.081 686.876 223.857 686.89L220.339 687.101C220.272 687.095 220.205 687.095 220.139 687.101L215.061 688.287C214.97 688.307 214.878 688.318 214.786 688.319H211.807C211.53 688.319 211.261 688.222 211.039 688.043L210.265 687.402C210.128 687.291 209.973 687.211 209.808 687.165C209.643 687.12 209.471 687.112 209.303 687.14L202.964 688.178C202.819 688.203 202.67 688.203 202.524 688.178L199.546 687.537C199.464 687.527 199.381 687.527 199.299 687.537H193.582C193.493 687.527 193.402 687.527 193.313 687.537L187.513 688.883C187.358 688.915 187.199 688.915 187.044 688.883L183.59 688.312C183.373 688.28 183.151 688.306 182.945 688.389L180.729 689.273C180.551 689.346 180.36 689.375 180.17 689.357C179.98 689.339 179.797 689.276 179.632 689.171L178.583 688.53C178.316 688.358 178.001 688.299 177.697 688.364L172.42 689.459C172.263 689.491 172.102 689.491 171.945 689.459L169.406 688.966C169.268 688.943 169.128 688.943 168.99 688.966L166.187 689.408C165.987 689.442 165.782 689.423 165.589 689.354C165.397 689.285 165.222 689.167 165.079 689.011L164.152 688.043C163.904 687.778 163.572 687.629 163.226 687.627H161.003C160.929 687.633 160.855 687.633 160.78 687.627L154.295 686.383C154.119 686.342 153.937 686.342 153.762 686.383L148.859 687.665C148.76 687.691 148.657 687.704 148.555 687.703H142.65C142.56 687.694 142.47 687.694 142.38 687.703L140.381 688.171C140.044 688.273 139.684 688.227 139.378 688.043L138.827 687.652C138.616 687.506 138.372 687.428 138.123 687.428H134.552C134.383 687.429 134.215 687.466 134.059 687.537L131.561 688.652C131.389 688.73 131.204 688.767 131.017 688.759C130.831 688.752 130.649 688.7 130.483 688.607L129.157 687.876C128.9 687.736 128.608 687.691 128.325 687.748L125.709 688.299C125.532 688.341 125.348 688.341 125.17 688.299L119.107 686.762H118.972L113.818 686.063C113.474 686.02 113.129 686.126 112.856 686.358L109.924 688.844C109.76 688.983 109.629 689.163 109.543 689.37L108.886 690.965C108.812 691.141 108.706 691.298 108.575 691.428C108.445 691.558 108.291 691.658 108.124 691.721L105.872 692.561C105.664 692.644 105.439 692.664 105.222 692.618L100.214 691.644C100.014 691.607 99.809 691.62 99.6147 691.683C99.4203 691.747 99.2421 691.858 99.0939 692.01L97.1061 694.041C96.9756 694.175 96.8719 694.337 96.8012 694.516C96.7306 694.696 96.6946 694.89 96.6956 695.085C96.6957 695.429 96.5816 695.762 96.3746 696.021C96.1676 696.28 95.8817 696.449 95.5698 696.495L91.8111 697.066C91.6714 697.091 91.5287 697.091 91.3889 697.066L87.9879 696.361C87.8867 696.348 87.7843 696.348 87.683 696.361L82.0011 696.643C81.7624 696.653 81.5256 696.593 81.315 696.47L80.3182 695.874C80.1651 695.778 79.9952 695.719 79.8198 695.701L76.8351 695.374C76.6369 695.351 76.4365 695.378 76.2487 695.451L72.7305 696.816C72.6004 696.866 72.4639 696.894 72.3259 696.899L67.3241 697.046C67.2558 697.04 67.1872 697.04 67.1189 697.046L58.6458 698.757C58.4621 698.799 58.2725 698.799 58.0887 698.757L55.2038 697.95C55.0961 697.922 54.986 697.907 54.8754 697.905H45.7807C45.6138 697.907 45.4483 697.872 45.294 697.802L42.4443 696.559C42.146 696.435 41.816 696.435 41.5178 696.559L38.8674 697.591C38.6134 697.688 38.3934 697.869 38.2378 698.109C38.0823 698.349 37.999 698.636 37.9995 698.93V699.571C37.9988 699.758 38.0319 699.944 38.0969 700.117C38.162 700.291 38.2578 700.448 38.3787 700.581C38.4997 700.714 38.6434 700.819 38.8018 700.891C38.9601 700.963 39.1298 701 39.3013 701H340.698C340.869 701 341.039 700.963 341.197 700.891C341.356 700.819 341.499 700.714 341.62 700.581C341.741 700.448 341.837 700.291 341.902 700.117C341.967 699.944 342 699.758 341.999 699.571L341.923 672.485C341.931 672.255 341.889 672.027 341.799 671.819C341.709 671.611 341.575 671.43 341.407 671.291C341.24 671.152 341.044 671.059 340.837 671.02C340.63 670.982 340.417 670.998 340.217 671.068V671.068Z" fill="#E1F0FE"/>
<path d="M115 661C117.209 661 119 658.985 119 656.5C119 654.015 117.209 652 115 652C112.79 652 111 654.015 111 656.5C111 658.985 112.79 661 115 661Z" fill="#E1F0FE"/>
<path d="M311.5 632C313.985 632 316 629.985 316 627.5C316 625.015 313.985 623 311.5 623C309.014 623 307 625.015 307 627.5C307 629.985 309.014 632 311.5 632Z" fill="#E1F0FE"/>
<path d="M209.5 663C211.985 663 214 660.985 214 658.5C214 656.015 211.985 654 209.5 654C207.014 654 205 656.015 205 658.5C205 660.985 207.014 663 209.5 663Z" fill="#E1F0FE"/>
<path d="M263 647C265.209 647 267 644.985 267 642.5C267 640.015 265.209 638 263 638C260.79 638 259 640.015 259 642.5C259 644.985 260.79 647 263 647Z" fill="#E1F0FE"/>
<path opacity="0.3" d="M73.9995 731C75.6564 731 76.9995 729.433 76.9995 727.5C76.9995 725.567 75.6564 724 73.9995 724C72.3427 724 70.9995 725.567 70.9995 727.5C70.9995 729.433 72.3427 731 73.9995 731Z" fill="#E1F0FE"/>
<path opacity="0.3" d="M116 731C117.656 731 119 729.433 119 727.5C119 725.567 117.656 724 116 724C114.343 724 113 725.567 113 727.5C113 729.433 114.343 731 116 731Z" fill="#E1F0FE"/>
<path opacity="0.3" d="M159 731C160.656 731 162 729.433 162 727.5C162 725.567 160.656 724 159 724C157.343 724 156 725.567 156 727.5C156 729.433 157.343 731 159 731Z" fill="#E1F0FE"/>
<path opacity="0.3" d="M202 731C203.656 731 205 729.433 205 727.5C205 725.567 203.656 724 202 724C200.343 724 199 725.567 199 727.5C199 729.433 200.343 731 202 731Z" fill="#E1F0FE"/>
<path opacity="0.3" d="M245 731C246.656 731 248 729.433 248 727.5C248 725.567 246.656 724 245 724C243.343 724 242 725.567 242 727.5C242 729.433 243.343 731 245 731Z" fill="#E1F0FE"/>
<path opacity="0.3" d="M287.5 731C288.88 731 290 729.433 290 727.5C290 725.567 288.88 724 287.5 724C286.119 724 285 725.567 285 727.5C285 729.433 286.119 731 287.5 731Z" fill="#E1F0FE"/>
<path opacity="0.3" d="M330 731C331.656 731 333 729.433 333 727.5C333 725.567 331.656 724 330 724C328.343 724 327 725.567 327 727.5C327 729.433 328.343 731 330 731Z" fill="#E1F0FE"/>
<g filter="url(#filter3_d_961_79)">
<path d="M485.504 104.026L485.426 97.9467L485.426 97.9467L485.504 104.026ZM609.664 178.315L604.533 181.277L604.533 181.277L609.664 178.315ZM621.6 208.394C624.757 209.311 628.006 207.435 628.857 204.206L642.72 151.571C643.57 148.341 641.701 144.98 638.544 144.064C635.387 143.147 632.138 145.023 631.288 148.253L618.965 195.039L573.237 181.764C570.081 180.848 566.832 182.723 565.981 185.953C565.13 189.183 567 192.544 570.157 193.461L621.6 208.394ZM452.855 110.106L485.583 110.105L485.426 97.9467L452.698 97.9476L452.855 110.106ZM604.533 181.277L618.01 205.508L628.272 199.584L614.795 175.353L604.533 181.277ZM485.583 110.105C534.58 110.103 580.092 137.335 604.533 181.277L614.795 175.353C588.213 127.562 538.715 97.9451 485.426 97.9467L485.583 110.105Z" fill="white"/>
</g>
<g filter="url(#filter4_d_961_79)">
<path d="M936.625 477.892L941.996 475.244L941.996 475.244L936.625 477.892ZM931.747 614.199L936.914 617.27L936.914 617.27L931.747 614.199ZM923.007 620.635C923.835 623.848 927.106 625.792 930.314 624.978L982.586 611.709C985.793 610.895 987.723 607.63 986.895 604.417C986.067 601.204 982.796 599.259 979.588 600.073L933.124 611.868L921.134 565.325C920.306 562.112 917.035 560.168 913.827 560.982C910.62 561.796 908.69 565.061 909.518 568.274L923.007 620.635ZM926.912 471.78L931.254 480.539L941.996 475.244L937.654 466.484L926.912 471.78ZM926.58 611.128L923.649 616.089L933.982 622.232L936.914 617.27L926.58 611.128ZM931.254 480.539C951.881 522.153 950.122 571.289 926.58 611.128L936.914 617.27C962.518 573.942 964.43 520.502 941.996 475.244L931.254 480.539Z" fill="white"/>
</g>
<g filter="url(#filter5_d_961_79)">
<path d="M472.404 882.69L472.135 888.765L472.135 888.765L472.404 882.69ZM354.669 805.064L359.878 802.246L359.878 802.246L354.669 805.064ZM355.84 798.228C352.712 797.222 349.414 799.007 348.472 802.214L333.126 854.473C332.184 857.68 333.956 861.094 337.083 862.1C340.211 863.105 343.509 861.321 344.451 858.114L358.092 811.662L403.39 826.227C406.517 827.233 409.816 825.448 410.758 822.241C411.699 819.035 409.928 815.62 406.8 814.614L355.84 798.228ZM477.863 876.919L472.674 876.614L472.135 888.765L477.324 889.07L477.863 876.919ZM359.878 802.246L359.344 801.216L348.925 806.853L349.459 807.883L359.878 802.246ZM472.674 876.614C425.202 873.83 382.364 845.587 359.878 802.246L349.459 807.883C373.915 855.02 420.505 885.737 472.135 888.765L472.674 876.614Z" fill="white"/>
</g>
<g filter="url(#filter6_d_961_79)">
<path d="M912 359.878C911.999 343.006 908.238 326.472 901.144 312.158C894.049 297.845 883.907 286.327 871.871 278.916C859.834 271.505 846.388 268.498 833.061 270.237C819.734 271.976 807.063 278.392 796.489 288.753C787.489 275.639 775.876 265.782 762.845 260.198C749.815 254.615 735.838 253.506 722.355 256.986C708.871 260.466 696.367 268.409 686.131 279.997C675.895 291.586 668.297 306.401 664.119 322.917C657.128 315.09 648.732 309.519 639.654 306.683C630.575 303.847 621.085 303.831 612 306.636C602.916 309.44 594.508 314.982 587.5 322.784C580.492 330.586 575.094 340.415 571.77 351.425C568.445 362.436 567.295 374.299 568.416 385.994C569.538 397.688 572.899 408.865 578.209 418.562C583.519 428.259 590.621 436.187 598.902 441.663C607.184 447.139 616.398 450 625.751 450C626.649 450 627.541 449.97 628.428 449.919C629.345 449.969 630.265 450 631.192 450H847.97C863.568 449.999 878.607 442.685 890.157 429.484C901.708 416.283 908.942 398.139 910.451 378.588C911.482 372.436 912.001 366.166 912 359.878V359.878Z" fill="#24292E"/>
<path d="M795.252 289.602L796.263 291.075L797.539 289.825C807.905 279.666 820.284 273.417 833.255 271.724C846.222 270.032 859.324 272.953 871.084 280.193C882.851 287.439 892.814 298.73 899.8 312.825C906.786 326.919 910.499 343.223 910.5 359.878C910.501 366.084 909.989 372.271 908.972 378.34L908.961 378.406L908.955 378.473C907.468 397.741 900.341 415.567 889.029 428.496C877.724 441.417 863.079 448.499 847.97 448.5H631.192C630.298 448.5 629.405 448.471 628.51 448.422L628.426 448.417L628.342 448.422C627.479 448.472 626.616 448.5 625.751 448.5C616.71 448.5 607.782 445.736 599.73 440.412C591.674 435.085 584.731 427.349 579.525 417.841C574.318 408.334 571.013 397.355 569.909 385.85C568.806 374.346 569.939 362.679 573.206 351.859C576.472 341.039 581.769 331.409 588.616 323.786C595.462 316.165 603.644 310.785 612.443 308.069C621.238 305.354 630.417 305.37 639.206 308.115C648 310.862 656.171 316.27 663 323.916L664.881 326.021L665.573 323.284C669.699 306.976 677.193 292.382 687.255 280.99C697.316 269.601 709.567 261.835 722.729 258.438C735.886 255.042 749.523 256.121 762.255 261.577C774.993 267.036 786.393 276.692 795.252 289.602Z" stroke="white" stroke-width="3"/>
</g>
<path d="M703 321H752.695V339.88H722.567V357.96H752.695V376.68H722.567V413H703V321ZM810 339.88V321H760.304V339.88H810ZM785.463 376.68V357.96H760.304V376.68H785.463Z" fill="white"/>
<path d="M703 321H752.695V339.88H722.567V357.96H752.695V376.68H722.567V413H703V321ZM810 339.88V321H760.304V339.88H810ZM785.463 376.68V357.96H760.304V376.68H785.463Z" fill="white"/>
<defs>
<filter id="filter0_d_961_79" x="159" y="0" width="222" height="361" filterUnits="userSpaceOnUse" color-interpolation-filters="sRGB">
<feFlood flood-opacity="0" result="BackgroundImageFix"/>
<feColorMatrix in="SourceAlpha" type="matrix" values="0 0 0 0 0 0 0 0 0 0 0 0 0 0 0 0 0 0 127 0" result="hardAlpha"/>
<feOffset dy="4"/>
<feGaussianBlur stdDeviation="2"/>
<feComposite in2="hardAlpha" operator="out"/>
<feColorMatrix type="matrix" values="0 0 0 0 0 0 0 0 0 0 0 0 0 0 0 0 0 0 0.25 0"/>
<feBlend mode="normal" in2="BackgroundImageFix" result="effect1_dropShadow_961_79"/>
<feBlend mode="normal" in="SourceGraphic" in2="effect1_dropShadow_961_79" result="shape"/>
</filter>
<filter id="filter1_i_961_79" x="529" y="667" width="337" height="352" filterUnits="userSpaceOnUse" color-interpolation-filters="sRGB">
<feFlood flood-opacity="0" result="BackgroundImageFix"/>
<feBlend mode="normal" in="SourceGraphic" in2="BackgroundImageFix" result="shape"/>
<feColorMatrix in="SourceAlpha" type="matrix" values="0 0 0 0 0 0 0 0 0 0 0 0 0 0 0 0 0 0 127 0" result="hardAlpha"/>
<feOffset dy="4"/>
<feGaussianBlur stdDeviation="2"/>
<feComposite in2="hardAlpha" operator="arithmetic" k2="-1" k3="1"/>
<feColorMatrix type="matrix" values="0 0 0 0 0 0 0 0 0 0 0 0 0 0 0 0 0 0 0.25 0"/>
<feBlend mode="normal" in2="shape" result="effect1_innerShadow_961_79"/>
</filter>
<filter id="filter2_d_961_79" x="0" y="521" width="381" height="241" filterUnits="userSpaceOnUse" color-interpolation-filters="sRGB">
<feFlood flood-opacity="0" result="BackgroundImageFix"/>
<feColorMatrix in="SourceAlpha" type="matrix" values="0 0 0 0 0 0 0 0 0 0 0 0 0 0 0 0 0 0 127 0" result="hardAlpha"/>
<feOffset dy="4"/>
<feGaussianBlur stdDeviation="2"/>
<feComposite in2="hardAlpha" operator="out"/>
<feColorMatrix type="matrix" values="0 0 0 0 0 0 0 0 0 0 0 0 0 0 0 0 0 0 0.25 0"/>
<feBlend mode="normal" in2="BackgroundImageFix" result="effect1_dropShadow_961_79"/>
<feBlend mode="normal" in="SourceGraphic" in2="effect1_dropShadow_961_79" result="shape"/>
</filter>
<filter id="filter3_d_961_79" x="448.698" y="97.9463" width="198.227" height="118.681" filterUnits="userSpaceOnUse" color-interpolation-filters="sRGB">
<feFlood flood-opacity="0" result="BackgroundImageFix"/>
<feColorMatrix in="SourceAlpha" type="matrix" values="0 0 0 0 0 0 0 0 0 0 0 0 0 0 0 0 0 0 127 0" result="hardAlpha"/>
<feOffset dy="4"/>
<feGaussianBlur stdDeviation="2"/>
<feColorMatrix type="matrix" values="0 0 0 0 0 0 0 0 0 0 0 0 0 0 0 0 0 0 0.25 0"/>
<feBlend mode="normal" in2="BackgroundImageFix" result="effect1_dropShadow_961_79"/>
<feBlend mode="normal" in="SourceGraphic" in2="effect1_dropShadow_961_79" result="shape"/>
</filter>
<filter id="filter4_d_961_79" x="905.326" y="466.484" width="85.7607" height="166.679" filterUnits="userSpaceOnUse" color-interpolation-filters="sRGB">
<feFlood flood-opacity="0" result="BackgroundImageFix"/>
<feColorMatrix in="SourceAlpha" type="matrix" values="0 0 0 0 0 0 0 0 0 0 0 0 0 0 0 0 0 0 127 0" result="hardAlpha"/>
<feOffset dy="4"/>
<feGaussianBlur stdDeviation="2"/>
<feColorMatrix type="matrix" values="0 0 0 0 0 0 0 0 0 0 0 0 0 0 0 0 0 0 0.25 0"/>
<feBlend mode="normal" in2="BackgroundImageFix" result="effect1_dropShadow_961_79"/>
<feBlend mode="normal" in="SourceGraphic" in2="effect1_dropShadow_961_79" result="shape"/>
</filter>
<filter id="filter5_d_961_79" x="328.874" y="797.947" width="152.99" height="99.1221" filterUnits="userSpaceOnUse" color-interpolation-filters="sRGB">
<feFlood flood-opacity="0" result="BackgroundImageFix"/>
<feColorMatrix in="SourceAlpha" type="matrix" values="0 0 0 0 0 0 0 0 0 0 0 0 0 0 0 0 0 0 127 0" result="hardAlpha"/>
<feOffset dy="4"/>
<feGaussianBlur stdDeviation="2"/>
<feColorMatrix type="matrix" values="0 0 0 0 0 0 0 0 0 0 0 0 0 0 0 0 0 0 0.25 0"/>
<feBlend mode="normal" in2="BackgroundImageFix" result="effect1_dropShadow_961_79"/>
<feBlend mode="normal" in="SourceGraphic" in2="effect1_dropShadow_961_79" result="shape"/>
</filter>
<filter id="filter6_d_961_79" x="564" y="255" width="352" height="203" filterUnits="userSpaceOnUse" color-interpolation-filters="sRGB">
<feFlood flood-opacity="0" result="BackgroundImageFix"/>
<feColorMatrix in="SourceAlpha" type="matrix" values="0 0 0 0 0 0 0 0 0 0 0 0 0 0 0 0 0 0 127 0" result="hardAlpha"/>
<feOffset dy="4"/>
<feGaussianBlur stdDeviation="2"/>
<feComposite in2="hardAlpha" operator="out"/>
<feColorMatrix type="matrix" values="0 0 0 0 0 0 0 0 0 0 0 0 0 0 0 0 0 0 0.25 0"/>
<feBlend mode="normal" in2="BackgroundImageFix" result="effect1_dropShadow_961_79"/>
<feBlend mode="normal" in="SourceGraphic" in2="effect1_dropShadow_961_79" result="shape"/>
</filter>
</defs>
</svg>
