<svg width="325" height="510" viewBox="0 0 325 510" fill="none" xmlns="http://www.w3.org/2000/svg">
<rect x="0.5" y="0.5" width="324" height="509" rx="49.5" fill="white" stroke="#CFCFCF"/>
<path d="M208.967 149.876C221.485 149.876 231.634 139.728 231.634 127.209C231.634 114.691 221.485 104.542 208.967 104.542C196.448 104.542 186.3 114.691 186.3 127.209C186.3 139.728 196.448 149.876 208.967 149.876Z" fill="#49D893"/>
<path d="M213.5 164.209H111.5C102.483 164.209 93.8351 160.627 87.4589 154.251C81.0826 147.875 77.5005 139.227 77.5005 130.209C77.5005 121.192 81.0826 112.544 87.4589 106.168C93.8351 99.7916 102.483 96.2095 111.5 96.2095H213.5C222.518 96.2095 231.166 99.7916 237.542 106.168C243.918 112.544 247.5 121.192 247.5 130.209C247.5 139.227 243.918 147.875 237.542 154.251C231.166 160.627 222.518 164.209 213.5 164.209ZM111.5 100.743C103.685 100.743 96.1904 103.847 90.6644 109.373C85.1383 114.899 82.0338 122.394 82.0338 130.209C82.0338 138.025 85.1383 145.519 90.6644 151.046C96.1904 156.572 103.685 159.676 111.5 159.676H213.5C221.316 159.676 228.81 156.572 234.337 151.046C239.863 145.519 242.967 138.025 242.967 130.209C242.967 122.394 239.863 114.899 234.337 109.373C228.81 103.847 221.316 100.743 213.5 100.743H111.5Z" fill="#49D893"/>
<path d="M115.174 276.654C127.692 276.654 137.841 266.506 137.841 253.987C137.841 241.469 127.692 231.321 115.174 231.321C102.655 231.321 92.5073 241.469 92.5073 253.987C92.5073 266.506 102.655 276.654 115.174 276.654Z" fill="#2F2E41"/>
<path d="M213.5 288.988H111.5C102.483 288.988 93.8351 285.406 87.4589 279.029C81.0826 272.653 77.5005 264.005 77.5005 254.988C77.5005 245.97 81.0826 237.322 87.4589 230.946C93.8351 224.57 102.483 220.988 111.5 220.988H213.5C222.518 220.988 231.166 224.57 237.542 230.946C243.918 237.322 247.5 245.97 247.5 254.988C247.5 264.005 243.918 272.653 237.542 279.029C231.166 285.406 222.518 288.988 213.5 288.988ZM111.5 225.521C103.685 225.521 96.1905 228.626 90.6644 234.152C85.1384 239.678 82.0338 247.173 82.0338 254.988C82.0338 262.803 85.1384 270.298 90.6644 275.824C96.1905 281.35 103.685 284.454 111.5 284.454H213.5C221.316 284.454 228.81 281.35 234.337 275.824C239.863 270.298 242.967 262.803 242.967 254.988C242.967 247.173 239.863 239.678 234.337 234.152C228.81 228.626 221.316 225.521 213.5 225.521H111.5Z" fill="#2F2E41"/>
<path d="M115.174 402.432C127.692 402.432 137.841 392.284 137.841 379.766C137.841 367.247 127.692 357.099 115.174 357.099C102.655 357.099 92.5073 367.247 92.5073 379.766C92.5073 392.284 102.655 402.432 115.174 402.432Z" fill="#2F2E41"/>
<path d="M213.5 413.766H111.5C102.483 413.766 93.8351 410.184 87.4589 403.808C81.0826 397.432 77.5005 388.783 77.5005 379.766C77.5005 370.749 81.0826 362.101 87.4589 355.724C93.8351 349.348 102.483 345.766 111.5 345.766H213.5C222.518 345.766 231.166 349.348 237.542 355.724C243.918 362.101 247.5 370.749 247.5 379.766C247.5 388.783 243.918 397.432 237.542 403.808C231.166 410.184 222.518 413.766 213.5 413.766ZM111.5 350.299C103.685 350.299 96.1904 353.404 90.6644 358.93C85.1383 364.456 82.0338 371.951 82.0338 379.766C82.0338 387.581 85.1383 395.076 90.6644 400.602C96.1904 406.128 103.685 409.233 111.5 409.233H213.5C217.37 409.233 221.202 408.471 224.777 406.99C228.352 405.509 231.6 403.338 234.337 400.602C237.073 397.866 239.243 394.618 240.724 391.043C242.205 387.467 242.967 383.636 242.967 379.766C242.967 375.896 242.205 372.065 240.724 368.49C239.243 364.915 237.073 361.666 234.337 358.93C231.6 356.194 228.352 354.023 224.777 352.542C221.202 351.062 217.37 350.299 213.5 350.299H111.5Z" fill="#2F2E41"/>
</svg>
