<svg width="988" height="788" viewBox="0 0 988 788" fill="none" xmlns="http://www.w3.org/2000/svg">
<g clip-path="url(#clip0)">
<path d="M59.0401 745.07C59.0401 745.07 16.7701 742.52 21.7501 772.15C21.7501 772.15 20.7501 777.38 25.5001 779.76C25.5001 779.76 25.5801 777.56 29.8401 778.31C31.356 778.565 32.8968 778.639 34.4301 778.53C36.5058 778.388 38.4788 777.574 40.0501 776.21V776.21C40.0501 776.21 51.9301 771.3 56.5601 751.88C56.5601 751.88 59.9801 747.64 59.8401 746.55L52.7101 749.55C52.7101 749.55 55.1401 754.7 53.2301 758.97C53.2301 758.97 52.9901 749.74 51.6201 749.97C51.3401 750.02 47.9201 751.76 47.9201 751.76C47.9201 751.76 52.1101 760.76 48.9201 767.24C48.9201 767.24 50.1201 756.19 46.5801 752.4L41.5801 755.34C41.5801 755.34 46.4901 764.6 43.1601 772.15C43.1601 772.15 44.0101 760.56 40.5301 756.05L35.9801 759.6C35.9801 759.6 40.5801 768.73 37.7701 774.99C37.7701 774.99 37.4101 761.5 34.9901 760.48C34.9901 760.48 30.9901 763.99 30.4001 765.48C30.4001 765.48 33.5601 772.1 31.6001 775.6C31.6001 775.6 30.4001 766.6 29.4201 766.6C29.4201 766.6 25.4201 772.55 25.0401 776.6C25.0401 776.6 25.2101 770.52 28.4501 765.99C26.1631 766.42 24.0526 767.512 22.3801 769.13C22.3801 769.13 23.0001 764.92 29.4301 764.55C29.4301 764.55 32.7101 760.04 33.5901 759.76C33.5901 759.76 27.1901 759.23 23.3101 760.95C23.3101 760.95 26.7201 756.95 34.7601 758.78L39.2601 755.11C39.2601 755.11 30.8301 753.96 27.2601 755.23C27.2601 755.23 31.3701 751.72 40.4701 754.28L45.3601 751.36C45.3601 751.36 38.1701 749.81 33.8901 750.36C33.8901 750.36 38.4101 747.92 46.7901 750.56L50.2901 748.99C50.2901 748.99 45.0201 747.99 43.4801 747.79C41.9401 747.59 41.8601 747.2 41.8601 747.2C45.1951 746.644 48.6189 747.025 51.7501 748.3C51.7501 748.3 59.1701 745.54 59.0401 745.07Z" fill="#6E7073"/>
<path opacity="0.1" d="M29.92 787.4C46.4444 787.4 59.84 785.135 59.84 782.34C59.84 779.546 46.4444 777.28 29.92 777.28C13.3956 777.28 0 779.546 0 782.34C0 785.135 13.3956 787.4 29.92 787.4Z" fill="#6E7073"/>
<path d="M987.17 677.78C987.17 677.78 963.33 676.34 966.17 693.04C966.024 693.889 966.151 694.762 966.532 695.534C966.913 696.307 967.528 696.939 968.29 697.34C968.29 697.34 968.29 696.1 970.73 696.52C971.586 696.661 972.455 696.701 973.32 696.64C974.49 696.563 975.603 696.107 976.49 695.34C976.49 695.34 983.19 692.57 985.8 681.62C985.8 681.62 987.72 679.23 987.65 678.62L983.65 680.34C983.65 680.34 985.02 683.24 983.94 685.66C983.94 685.66 983.81 680.45 983.04 680.57C982.88 680.57 980.94 681.57 980.94 681.57C980.94 681.57 983.31 686.57 981.53 690.29C981.53 690.29 982.2 684.07 980.21 681.93L977.37 683.58C977.37 683.58 980.14 688.81 978.26 693.07C978.26 693.07 978.75 686.53 976.78 683.99L974.21 685.99C974.21 685.99 976.81 691.13 975.21 694.67C975.21 694.67 975 687.06 973.64 686.49C972.666 687.311 971.797 688.248 971.05 689.28C971.05 689.28 972.83 693.01 971.73 694.99C971.73 694.99 971.05 689.92 970.49 689.9C970.49 689.9 968.26 693.25 968.03 695.55C968.133 693.416 968.795 691.347 969.95 689.55C968.66 689.795 967.471 690.414 966.53 691.33C966.53 691.33 966.88 688.95 970.53 688.74C970.53 688.74 972.38 686.2 972.88 686.04C972.88 686.04 969.27 685.74 967.08 686.71C967.08 686.71 969.01 684.47 973.54 685.49L976.07 683.42C976.07 683.42 971.32 682.77 969.31 683.49C969.31 683.49 971.63 681.49 976.75 682.95L979.51 681.3C977.39 680.836 975.218 680.651 973.05 680.75C973.05 680.75 975.59 679.37 980.32 680.86L982.32 679.97C982.32 679.97 979.32 679.39 978.49 679.3C977.66 679.21 977.57 678.97 977.57 678.97C979.452 678.657 981.383 678.872 983.15 679.59C983.15 679.59 987.24 678.04 987.17 677.78Z" fill="#6E7073"/>
<path opacity="0.1" d="M970.75 701.64C980.067 701.64 987.62 700.364 987.62 698.79C987.62 697.216 980.067 695.94 970.75 695.94C961.433 695.94 953.88 697.216 953.88 698.79C953.88 700.364 961.433 701.64 970.75 701.64Z" fill="#6E7073"/>
<path d="M938.15 723.25C938.15 723.25 909.37 721.52 912.81 741.7C912.635 742.724 912.789 743.778 913.248 744.71C913.708 745.642 914.451 746.405 915.37 746.89C915.37 746.89 915.37 745.39 918.37 745.89C919.404 746.065 920.454 746.115 921.5 746.04C922.911 745.942 924.252 745.387 925.32 744.46C925.32 744.46 933.41 741.12 936.55 727.9C936.55 727.9 938.88 725.01 938.79 724.27L933.93 726.35C933.93 726.35 935.59 729.85 934.29 732.76C934.29 732.76 934.13 726.47 933.2 726.62C933.01 726.62 930.67 727.83 930.67 727.83C930.67 727.83 933.53 733.94 931.37 738.37C931.37 738.37 932.19 730.85 929.78 728.28L926.36 730.28C926.36 730.28 929.7 736.59 927.44 741.73C927.44 741.73 928.02 733.84 925.64 730.73L922.55 733.14C922.55 733.14 925.68 739.36 923.77 743.62C923.77 743.62 923.52 734.44 921.87 733.75C921.87 733.75 919.16 736.13 918.75 737.12C918.75 737.12 920.9 741.63 919.57 744.01C919.57 744.01 918.75 737.89 918.08 737.86C918.08 737.86 915.38 741.91 915.08 744.69C915.215 742.121 916.018 739.633 917.41 737.47C915.851 737.765 914.412 738.509 913.27 739.61C913.27 739.61 913.69 736.75 918.07 736.5C918.07 736.5 920.3 733.42 920.9 733.23C920.9 733.23 916.54 732.87 913.9 734.04C913.9 734.04 916.23 731.34 921.7 732.57L924.76 730.07C924.76 730.07 919.02 729.28 916.59 730.15C916.59 730.15 919.39 727.76 925.59 729.5L928.92 727.5C928.92 727.5 924.03 726.45 921.12 726.83C921.12 726.83 924.19 725.17 929.9 726.97L932.28 725.9C932.28 725.9 928.69 725.19 927.65 725.08C926.61 724.97 926.54 724.68 926.54 724.68C928.809 724.302 931.139 724.562 933.27 725.43C933.27 725.43 938.23 723.57 938.15 723.25Z" fill="#6E7073"/>
<path opacity="0.1" d="M918.32 752.06C929.57 752.06 938.69 750.52 938.69 748.62C938.69 746.72 929.57 745.18 918.32 745.18C907.07 745.18 897.95 746.72 897.95 748.62C897.95 750.52 907.07 752.06 918.32 752.06Z" fill="#6E7073"/>
<path opacity="0.1" d="M805.49 740.83C856.483 740.83 897.82 734.378 897.82 726.42C897.82 718.461 856.483 712.01 805.49 712.01C754.498 712.01 713.16 718.461 713.16 726.42C713.16 734.378 754.498 740.83 805.49 740.83Z" fill="#6E7073"/>
<path opacity="0.1" d="M513.32 778.33C570.619 778.33 617.07 773.669 617.07 767.92C617.07 762.17 570.619 757.51 513.32 757.51C456.02 757.51 409.57 762.17 409.57 767.92C409.57 773.669 456.02 778.33 513.32 778.33Z" fill="#6E7073"/>
<path opacity="0.1" d="M198.99 767.99C242.483 767.99 277.74 765.814 277.74 763.13C277.74 760.446 242.483 758.27 198.99 758.27C155.498 758.27 120.24 760.446 120.24 763.13C120.24 765.814 155.498 767.99 198.99 767.99Z" fill="#6E7073"/>
<path opacity="0.1" d="M338.81 34.2499C368.02 8.2499 413.88 2.9199 455.61 4.9899C586.7 11.4999 705.03 74.7899 807.39 146.38C844.45 172.29 880.93 200.22 904.98 235.91C953.98 308.55 939.42 409.19 871.34 469.04C848.17 489.4 820.09 505.04 791.26 518.85C740 543.46 684.69 563.21 626.52 568.85C585.03 572.85 543.03 569.6 501.79 564C386.55 548.36 273.44 513.8 178.64 454.7C137.06 428.7 97.8602 396.5 80.7202 354.55C63.5802 312.6 74.5502 259.44 117.01 234.61C134.57 224.34 155.57 219.7 176.12 215.35C206.38 208.94 237.12 202.62 264.43 189.58C292.63 176.12 326.02 150.09 320.43 120.3C314.45 88.3299 309.64 60.2499 338.81 34.2499Z" fill="#6E7073"/>
<path opacity="0.9" d="M580.86 391.78V200.84H606.86V143.84H420.56V200.84H446.56V391.78C410.654 405.417 379.743 429.649 357.929 461.261C336.115 492.874 324.428 530.372 324.42 568.78C324.42 673.33 409.18 758.08 513.73 758.08C618.28 758.08 703.03 673.33 703.03 568.78C703.021 530.368 691.33 492.867 669.51 461.254C647.69 429.641 616.772 405.411 580.86 391.78V391.78Z" fill="#93C7C4"/>
<path opacity="0.1" d="M580.86 200.25H446.52V202.82H580.86V200.25Z" fill="black"/>
<path d="M407.81 563.7C407.81 563.7 521.81 561.7 578.81 533.17C635.81 504.64 668.38 530.11 665.32 547.42C662.26 564.73 645.99 598.3 580.85 602.42C515.71 606.54 407.81 563.7 407.81 563.7Z" fill="#6E7073"/>
<path opacity="0.1" d="M407.81 563.7C407.81 563.7 521.81 561.7 578.81 533.17C635.81 504.64 668.38 530.11 665.32 547.42C662.26 564.73 645.99 598.3 580.85 602.42C515.71 606.54 407.81 563.7 407.81 563.7Z" fill="black"/>
<path d="M358.99 545.4C358.99 545.4 346.81 714.35 506.56 717.4C666.31 720.45 665.33 547.4 665.33 547.4C665.33 547.4 606.33 611.51 466.87 558.59C466.87 558.63 394.61 539.29 358.99 545.4Z" fill="#6E7073"/>
<path opacity="0.1" d="M664.81 548.01C661.62 586.93 640.93 708.76 506.62 706.19C374.96 703.7 360.05 588.6 358.88 548.11C358.15 569.84 358.8 714.56 506.59 717.39C666.38 720.39 665.36 547.39 665.36 547.39C665.36 547.39 665.16 547.64 664.81 548.01Z" fill="black"/>
<path opacity="0.3" d="M507.53 493.23C518.979 493.23 528.26 483.949 528.26 472.5C528.26 461.051 518.979 451.77 507.53 451.77C496.081 451.77 486.8 461.051 486.8 472.5C486.8 483.949 496.081 493.23 507.53 493.23Z" fill="#6E7073"/>
<path opacity="0.3" d="M519.37 402.4C526.456 402.4 532.2 396.656 532.2 389.57C532.2 382.484 526.456 376.74 519.37 376.74C512.284 376.74 506.54 382.484 506.54 389.57C506.54 396.656 512.284 402.4 519.37 402.4Z" fill="#6E7073"/>
<path opacity="0.3" d="M490.74 328.35C497.826 328.35 503.57 322.606 503.57 315.52C503.57 308.434 497.826 302.69 490.74 302.69C483.654 302.69 477.91 308.434 477.91 315.52C477.91 322.606 483.654 328.35 490.74 328.35Z" fill="#6E7073"/>
<path opacity="0.2" d="M380.81 488.49C379.71 497.23 379.93 508.17 387.74 512.25C381.19 508.83 408.04 470.05 404.23 462.13C396.08 445.23 381.81 480.37 380.81 488.49Z" fill="white"/>
<path opacity="0.3" d="M480.37 105.74C491.819 105.74 501.1 96.4587 501.1 85.0098C501.1 73.5609 491.819 64.2798 480.37 64.2798C468.921 64.2798 459.64 73.5609 459.64 85.0098C459.64 96.4587 468.921 105.74 480.37 105.74Z" fill="#6E7073"/>
<path opacity="0.3" d="M542.56 64.8801C551.071 64.8801 557.97 57.9808 557.97 49.4701C557.97 40.9594 551.071 34.0601 542.56 34.0601C534.049 34.0601 527.15 40.9594 527.15 49.4701C527.15 57.9808 534.049 64.8801 542.56 64.8801Z" fill="#6E7073"/>
<path opacity="0.3" d="M498.14 16.02C502.564 16.02 506.15 12.4338 506.15 8.01C506.15 3.5862 502.564 0 498.14 0C493.716 0 490.13 3.5862 490.13 8.01C490.13 12.4338 493.716 16.02 498.14 16.02Z" fill="#6E7073"/>
<path opacity="0.9" d="M283.81 263.18H116.28V312.87H141.81V700.53C141.709 708.243 143.141 715.9 146.022 723.055C148.904 730.21 153.178 736.722 158.597 742.212C164.015 747.702 170.47 752.061 177.587 755.036C184.704 758.011 192.341 759.543 200.055 759.543C207.769 759.543 215.405 758.011 222.522 755.036C229.639 752.061 236.094 747.702 241.513 742.212C246.931 736.722 251.205 730.21 254.087 723.055C256.969 715.9 258.401 708.243 258.3 700.53V312.87H283.81V263.18Z" fill="#92AD9D"/>
<path d="M180.62 400.7C180.62 400.7 222.08 385.89 233.62 396.42C233.62 396.42 216.83 421.1 201.37 420.11C185.91 419.12 180.62 400.7 180.62 400.7Z" fill="#6E7073"/>
<path opacity="0.1" d="M180.62 400.7C180.62 400.7 222.08 385.89 233.62 396.42C233.62 396.42 216.83 421.1 201.37 420.11C185.91 419.12 180.62 400.7 180.62 400.7Z" fill="black"/>
<path d="M233.6 396.46V677.82C233.6 682.487 232.681 687.109 230.895 691.421C229.109 695.732 226.491 699.65 223.191 702.951C219.89 706.251 215.972 708.869 211.661 710.655C207.349 712.441 202.727 713.36 198.06 713.36C188.634 713.36 179.594 709.616 172.929 702.951C166.264 696.285 162.52 687.246 162.52 677.82V396.46C162.52 396.46 179.63 391.85 195.75 401.73C211.87 411.61 233.6 396.46 233.6 396.46Z" fill="#6E7073"/>
<path opacity="0.1" d="M258.28 312.56H141.79V314.85H258.28V312.56Z" fill="black"/>
<path opacity="0.1" d="M198.06 696.25C193.392 696.25 188.77 695.331 184.457 693.544C180.145 691.757 176.226 689.138 172.926 685.837C169.626 682.536 167.008 678.617 165.222 674.304C163.437 669.991 162.519 665.368 162.52 660.7V678.47C162.52 687.896 166.264 696.936 172.929 703.601C179.594 710.266 188.634 714.01 198.06 714.01C207.486 714.01 216.526 710.266 223.191 703.601C229.856 696.936 233.6 687.896 233.6 678.47V660.7C233.601 665.368 232.683 669.991 230.898 674.304C229.112 678.617 226.494 682.536 223.194 685.837C219.894 689.138 215.975 691.757 211.663 693.544C207.35 695.331 202.728 696.25 198.06 696.25V696.25Z" fill="black"/>
<path opacity="0.3" d="M198.07 368.83C202.069 368.83 205.31 365.589 205.31 361.59C205.31 357.592 202.069 354.35 198.07 354.35C194.072 354.35 190.83 357.592 190.83 361.59C190.83 365.589 194.072 368.83 198.07 368.83Z" fill="#6E7073"/>
<path opacity="0.3" d="M221.76 340.53C224.306 340.53 226.37 338.466 226.37 335.92C226.37 333.374 224.306 331.31 221.76 331.31C219.214 331.31 217.15 333.374 217.15 335.92C217.15 338.466 219.214 340.53 221.76 340.53Z" fill="#6E7073"/>
<path opacity="0.3" d="M189.51 331.32C192.056 331.32 194.12 329.256 194.12 326.71C194.12 324.164 192.056 322.1 189.51 322.1C186.964 322.1 184.9 324.164 184.9 326.71C184.9 329.256 186.964 331.32 189.51 331.32Z" fill="#6E7073"/>
<path opacity="0.2" d="M150.81 453.94C149.71 462.68 149.93 473.62 157.74 477.7C151.18 474.28 178.04 435.51 174.23 427.58C166.06 410.7 151.81 445.83 150.81 453.94Z" fill="white"/>
<path opacity="0.3" d="M213.09 232.09C222.805 232.09 230.68 224.215 230.68 214.5C230.68 204.785 222.805 196.91 213.09 196.91C203.375 196.91 195.5 204.785 195.5 214.5C195.5 224.215 203.375 232.09 213.09 232.09Z" fill="#6E7073"/>
<path opacity="0.3" d="M160.32 197.42C167.544 197.42 173.4 191.564 173.4 184.34C173.4 177.116 167.544 171.26 160.32 171.26C153.096 171.26 147.24 177.116 147.24 184.34C147.24 191.564 153.096 197.42 160.32 197.42Z" fill="#6E7073"/>
<path opacity="0.3" d="M198.01 155.96C201.765 155.96 204.81 152.915 204.81 149.16C204.81 145.404 201.765 142.36 198.01 142.36C194.254 142.36 191.21 145.404 191.21 149.16C191.21 152.915 194.254 155.96 198.01 155.96Z" fill="#6E7073"/>
<path d="M895.86 451.32C895.86 451.32 880.51 374.98 886.38 365.48C886.38 365.48 886.59 356.65 886.24 345.4C886.24 344.97 886.24 344.54 886.24 344.1C887.268 344.801 888.344 345.43 889.46 345.98C894.87 348.77 901.088 349.573 907.03 348.25L902.36 343.07C901.25 341.83 900.08 340.5 899.84 338.86C899.776 337.282 900.12 335.715 900.84 334.31C905.25 323.16 905.52 309.13 896.98 300.62C889.8 293.46 888.04 284.22 880.28 277.69C874.58 272.9 871.45 265.88 868.49 259.11C865.99 253.37 863.49 247.59 862.04 241.51C860.92 236.76 860.48 231.85 858.94 227.21C857.4 222.57 854.54 218.06 850.05 215.99C848.385 215.408 846.769 214.692 845.22 213.85C843.3 212.56 842.15 210.46 840.77 208.63C833.77 199.32 810.17 204.8 799.01 208.58C795.979 209.53 793.173 211.085 790.76 213.15L790.86 212.98L791.14 212.57C789.922 213.557 788.869 214.732 788.02 216.05C786.39 218.63 785.71 221.66 784.36 224.38C782.72 227.68 773.62 236.89 777.53 240.6C777.798 240.848 778.106 241.051 778.44 241.2C779.9 241.796 781.501 241.956 783.05 241.66C782.99 241.79 782.93 241.92 782.88 242.05C781.551 245.324 780.872 248.826 780.88 252.36C780.946 259.758 783.947 266.827 789.224 272.012C794.501 277.197 801.622 280.074 809.02 280.01C811.944 280.014 814.851 279.569 817.64 278.69C817.71 279.04 817.77 279.39 817.83 279.74C817.83 279.89 817.83 280.03 817.9 280.17L817.41 280.86L817.33 280.73L802.74 301.13C800.51 302.69 787.66 311.99 786.97 318.96C786.21 326.59 785.45 335.53 785.45 335.53L785.35 337.44C784.713 337.972 783.968 338.36 783.168 338.577C782.367 338.795 781.528 338.837 780.71 338.7C776.16 337.95 776.16 355.46 776.16 355.46C776.16 355.46 773.16 358.25 771.05 355.83C768.94 353.41 763.47 361.6 763.47 361.6L728.98 363.09H728.19L726.33 357.33C726.126 356.735 725.7 356.242 725.14 355.955C724.581 355.668 723.932 355.609 723.33 355.79C723.184 355.83 723.043 355.887 722.91 355.96L722.79 356.04C722.704 356.088 722.624 356.145 722.55 356.21C722.502 356.241 722.458 356.278 722.42 356.32C722.352 356.378 722.288 356.442 722.23 356.51C722.194 356.551 722.161 356.595 722.13 356.64L722.07 356.7C721.855 356.996 721.713 357.339 721.654 357.7C721.595 358.061 721.621 358.431 721.73 358.78L723.33 363.72C716.68 365.06 709.87 368.83 715.42 379.23L687.3 374.04L696.4 381.67L743.4 391.37C742.78 392.49 743.19 394.1 745.13 396.37C753.48 406.19 768.74 408.85 774.87 409.55C776.48 413.161 778.493 416.58 780.87 419.74L780.33 429.52C780.33 429.52 764.81 504.11 761.96 507.9C763.368 506.263 764.655 504.525 765.81 502.7C761.3 518.03 755 539.01 753.35 542.15C750.69 547.15 748.23 567.47 751.26 568.78C752.21 569.18 754.84 568.99 758.63 568.7V570.38L758.46 634.13C758.46 634.13 759.22 673.24 757.13 676.96C755.04 680.68 754.48 688.5 754.48 688.5C754.48 688.5 746.1 703.93 739.48 710.13L739.33 710.26L739.12 708.8C739.12 708.8 731.12 718.86 713.54 718.3C713.54 718.3 702.93 725.19 718.66 725.56C734.39 725.93 754.47 725 754.47 725C754.47 725 768.47 703.59 780.24 706.38V722.58H783.84V706.24C785.509 705.139 786.936 703.711 788.036 702.042C789.137 700.373 789.886 698.497 790.24 696.53C790.55 694.507 790.327 692.438 789.592 690.528C788.857 688.618 787.636 686.933 786.05 685.64C785.336 684.994 784.764 684.207 784.368 683.33C783.972 682.452 783.762 681.502 783.75 680.54L783.62 680.65C783.62 680.33 783.54 680 783.49 679.65C782.49 671.27 781.18 654.03 785.74 641.25C791.99 623.74 793.89 599.36 789.34 584.83C787.875 580.191 786.673 575.474 785.74 570.7C785.63 570.09 785.52 569.52 785.43 568.98C788.545 569.405 791.628 570.036 794.66 570.87C805.22 573.77 828.29 574.31 847.99 574.16C848.04 574.7 848.1 575.26 848.16 575.83C848.521 579.76 849.264 583.645 850.38 587.43C852.84 594.89 853.98 627.65 853.98 627.65C853.98 627.65 857.17 654.6 855.43 665.58C854.43 671.68 853.59 677.8 853.04 683.95V684.07C853.04 684.07 847.82 698.96 844.04 707.07C843.94 707.28 843.85 707.48 843.75 707.68C842.727 707.773 841.72 707.992 840.75 708.33C840.75 708.33 835.64 718.57 830.52 720.25C825.4 721.93 827.11 727.51 838.67 725.46C850.23 723.41 867.67 721.74 867.67 721.74L868.43 711.31L871.98 706.87L871.08 717.27L874.87 716.53L874.37 703.87L880.18 696.6C880.18 696.6 887.18 690.36 876.77 678.08V678.34C876.66 678.16 876.55 677.98 876.43 677.81V677.75C874.71 675.07 873.33 670.08 875.85 661.22C880.4 645.22 883.05 630.69 883.05 630.69C883.05 630.69 893.22 591.78 880.99 573.36H881.54C880.285 570.769 879.397 568.016 878.9 565.18C878.84 564.84 878.79 564.49 878.73 564.18C887.73 563.66 896.66 562.02 903.89 558.5C903.81 558.39 899.46 466.03 895.86 451.32ZM781.03 386.92V387.1L779.16 387.19L781.03 386.92ZM774.66 387.8C774.352 387.865 774.064 388.002 773.82 388.2C773.023 389.332 772.521 390.645 772.36 392.02L769.46 391.36C769.46 391.36 767.46 390.93 764.46 390.45L763.07 389.06C766.93 388.7 770.89 388.27 774.66 387.8V387.8Z" fill="url(#paint0_linear)"/>
<path d="M870.61 703.96L869.5 717.14L873.21 716.39L872.65 702.11L870.61 703.96Z" fill="#1D2366"/>
<path d="M786 641.43C781.53 654.16 782.81 671.35 783.81 679.7C784.18 682.79 784.52 684.7 784.52 684.7C784.52 684.7 777.84 699.92 777.28 700.48C776.72 701.04 757.6 712.7 757.6 712.7L744.24 720.49C744.24 720.49 730.69 714.55 737.24 712.49C738.566 711.956 739.76 711.141 740.74 710.1C747.22 703.92 755.43 688.55 755.43 688.55C755.43 688.55 755.98 680.76 758.02 677.05C760.06 673.34 759.32 634.37 759.32 634.37L759.49 570.83V562.55L784.91 562.74C785.074 565.553 785.442 568.35 786.01 571.11C786.926 575.866 788.108 580.566 789.55 585.19C793.97 599.7 792.12 623.98 786 641.43Z" fill="#FFB0B1"/>
<path opacity="0.1" d="M784.51 684.7C784.51 684.7 777.83 699.92 777.27 700.48C776.71 701.04 757.6 712.7 757.6 712.7L744.24 720.49C744.24 720.49 730.69 714.55 737.24 712.49C738.566 711.956 739.76 711.141 740.74 710.1L741.32 714.16L745.78 713.97L783.81 679.7C784.17 682.78 784.51 684.7 784.51 684.7Z" fill="black"/>
<path d="M784.05 680.58L745.73 715.1L741.27 715.28L740.35 708.79C740.35 708.79 732.55 718.79 715.29 718.25C715.29 718.25 704.9 725.12 720.29 725.49C735.68 725.86 755.37 724.93 755.37 724.93C755.37 724.93 769.1 703.59 780.6 706.38V722.52H784.13V706.19C785.772 705.084 787.173 703.657 788.249 701.995C789.325 700.333 790.053 698.471 790.39 696.52C790.698 694.51 790.482 692.455 789.764 690.553C789.046 688.65 787.849 686.965 786.29 685.66C785.59 685.011 785.03 684.225 784.645 683.352C784.26 682.478 784.057 681.535 784.05 680.58V680.58Z" fill="#24292E"/>
<path d="M874.14 661.28C871.67 670.11 873.02 675.08 874.7 677.75V677.81C876.885 681.114 878.403 684.814 879.17 688.7L879.33 689.54L861.89 714.96L852.43 718.67C852.43 718.67 837.21 713.48 839.99 711.99C840.69 711.62 841.78 709.7 842.99 706.99C846.72 698.99 851.84 684.13 851.84 684.13V684C852.37 677.87 853.23 671.77 854.18 665.69C855.88 654.76 852.76 627.9 852.76 627.9C852.76 627.9 851.65 595.25 849.23 587.82C848.142 584.044 847.415 580.173 847.06 576.26C846.56 571.59 846.45 567.78 846.45 567.78C846.45 567.78 856.45 553.86 874.84 568.89C876.303 570.097 877.592 571.5 878.67 573.06C891.36 591.06 881.15 630.87 881.15 630.87C881.15 630.87 878.59 645.33 874.14 661.28Z" fill="#FFB0B1"/>
<path opacity="0.1" d="M879.33 689.49L861.89 714.91L852.43 718.62C852.43 718.62 837.21 713.43 839.99 711.94C840.69 711.57 841.78 709.65 842.99 706.94C849.43 706.94 852.77 713.02 852.77 713.02L860.93 711.73C860.93 711.73 871.7 690.57 874.11 689.28C876.52 687.99 874.48 679.62 874.48 679.62V677.49L874.67 677.72V677.78C876.869 681.091 878.398 684.801 879.17 688.7L879.33 689.49Z" fill="black"/>
<path d="M853.35 713.61C853.35 713.61 848.71 705.08 839.81 708.23C839.81 708.23 834.81 718.44 829.81 720.11C824.81 721.78 826.47 727.34 837.81 725.3C849.15 723.26 866.2 721.59 866.2 721.59L866.94 711.2L878.44 696.54C878.44 696.54 885.31 690.32 875.1 678.08V680.21C875.1 680.21 877.1 688.56 874.73 689.86C872.36 691.16 861.56 712.31 861.56 712.31L853.35 713.61Z" fill="#24292E"/>
<path opacity="0.1" d="M784.88 562.75C785.044 565.563 785.412 568.36 785.98 571.12C775.51 569.58 765.8 570.35 759.44 570.84V562.56L784.88 562.75Z" fill="black"/>
<path opacity="0.1" d="M879.7 575.37C879.7 575.37 864.82 576.09 847.1 576.24C846.6 571.57 846.49 567.76 846.49 567.76C846.49 567.76 856.49 553.84 874.88 568.87C876.343 570.077 877.632 571.48 878.71 573.04C879 573.833 879.33 574.611 879.7 575.37V575.37Z" fill="black"/>
<path d="M879.7 573.7C879.7 573.7 814.57 576.85 794.7 571.29C774.83 565.73 755.18 570.54 752.21 569.24C749.24 567.94 751.66 547.72 754.21 542.71C756.76 537.7 771.1 487.04 771.1 487.04L784.83 415.41L799.31 411.41L800.31 411.13L825.52 404.13L844.01 399.03C844.01 399.03 880.75 542.47 877.59 553.03C876.445 557.082 876.264 561.345 877.06 565.48C877.555 568.329 878.443 571.095 879.7 573.7V573.7Z" fill="#24292E"/>
<path d="M737.01 366.42C737.01 366.42 724.01 380.34 733.85 388.13C743.69 395.92 750.18 388.88 750.18 388.88L737.01 366.42Z" fill="#C7DAF5"/>
<path opacity="0.1" d="M737.01 366.42C737.01 366.42 724.01 380.34 733.85 388.13C743.69 395.92 750.18 388.88 750.18 388.88L737.01 366.42Z" fill="black"/>
<path d="M842.13 274.76C842.13 274.76 840.61 276.2 838.31 278.35C835.04 281.4 830.2 285.87 825.9 289.62C819.9 294.8 815.05 298.62 816.8 295.35C818.55 292.08 818.22 286.46 817.35 281.17L817.17 280.12C816.444 276.235 815.483 272.398 814.29 268.63C814.29 268.63 823.9 256.21 829.22 251.31C831.22 249.48 832.59 248.7 832.66 249.98C832.76 251.72 834.07 255.52 835.66 259.64C835.72 259.76 835.77 259.89 835.82 260.01C836.9 262.78 838.11 265.67 839.18 268.14C840.81 271.93 842.13 274.76 842.13 274.76Z" fill="#FFB0B1"/>
<path opacity="0.1" d="M835.81 260.01C834.906 264.868 832.714 269.395 829.464 273.117C826.213 276.839 822.023 279.62 817.33 281.17C816.594 276.926 815.572 272.736 814.27 268.63C814.27 268.63 832.36 245.25 832.64 249.98C832.81 251.78 834.15 255.76 835.81 260.01Z" fill="black"/>
<path opacity="0.1" d="M815.55 287.42L817.89 284.13C817.89 284.13 819.44 293.59 825.15 289.42C830.86 285.25 831.15 320.82 831.15 320.82L825.01 412.4L780.75 409.75L782 365.5L787 343.23L799.39 310.8L806.81 300.09L815.55 287.42Z" fill="black"/>
<path d="M831.13 321.38L825.59 404.18L825.01 412.95L800.33 411.48L799.33 411.42L780.72 410.31L781.97 366.05L786.97 343.79L799.36 311.36L806.81 300.64L815.58 287.98L817.92 284.68C817.92 284.68 819.47 294.15 825.18 289.97L825.29 289.89C830.86 286.31 831.13 321.38 831.13 321.38Z" fill="#24292E"/>
<path d="M787.66 335.99C787.66 335.99 785.44 340.63 780.98 339.89C776.52 339.15 776.53 356.59 776.53 356.59C776.53 356.59 773.53 359.37 771.53 356.96C769.53 354.55 764.11 362.71 764.11 362.71L730.34 364.2C730.34 364.2 745.34 371.06 742.4 391.85C742.4 391.85 793.4 388.69 795.1 383.85C796.8 379.01 787.66 335.99 787.66 335.99Z" fill="white"/>
<path opacity="0.03" d="M787.66 335.99C787.66 335.99 785.44 340.63 780.98 339.89C776.52 339.15 776.53 356.59 776.53 356.59C776.53 356.59 773.53 359.37 771.53 356.96C769.53 354.55 764.11 362.71 764.11 362.71L730.34 364.2C730.34 364.2 745.34 371.06 742.4 391.85C742.4 391.85 793.4 388.69 795.1 383.85C796.8 379.01 787.66 335.99 787.66 335.99Z" fill="black"/>
<path d="M689.5 375.14L698.41 382.75L771.71 398.15L762.61 388.88L689.5 375.14Z" fill="white"/>
<path d="M815.68 290.34C814.47 292.16 810.99 301.72 808.07 310.03C805.65 316.95 803.62 323.03 803.62 323.03C803.62 323.03 798.89 353.84 796.48 359.4C794.07 364.96 795.37 386.7 795.37 386.7L786.37 440.33C786.37 440.33 782.29 467.98 775.99 484.49C769.81 500.7 762.81 508.33 762.62 508.56C765.41 504.79 780.62 430.45 780.62 430.45L785.62 336.73C785.62 336.73 786.36 327.83 787.11 320.22C787.86 312.61 802.88 302.22 802.88 302.22L817.4 281.57C818.89 283.6 817.91 287 815.68 290.34Z" fill="white"/>
<path d="M777.81 410.77C777.81 410.77 756.47 409.85 746.08 397.41C735.69 384.97 770.02 392.41 770.02 392.41L778.92 394.41L777.81 410.77Z" fill="#FFB0B1"/>
<path opacity="0.1" d="M877.66 553.1C876.515 557.152 876.333 561.415 877.13 565.55C853.81 567.21 828.86 560.89 828.86 560.89C824.22 565.16 811.97 571.47 811.97 571.47L805.29 488.7C801.03 477.56 799.36 419.11 799.36 419.11C799.36 419.11 799.74 416.05 800.36 411.47C800.36 411.36 800.36 411.24 800.41 411.13C802.08 398.33 805.41 374.3 806.99 371.05C809.22 366.6 800.13 354.73 800.13 354.73L804.26 319.45L804.76 315.2C813.49 311.3 820.17 298.87 820.17 298.87L825.29 289.87C830.88 286.29 831.15 321.36 831.15 321.36L825.61 404.16L844.1 399.06C844.1 399.06 880.81 542.52 877.66 553.1Z" fill="black"/>
<path d="M901.6 558.85C876.18 571.47 829.97 559.78 829.97 559.78C825.33 564.05 813.08 570.36 813.08 570.36L806.4 487.59C802.14 476.46 800.47 418.01 800.47 418.01C800.47 418.01 805.85 374.4 808.07 369.95C808.72 368.65 808.41 366.72 807.64 364.64C803.846 354.726 802.451 344.056 803.57 333.5L805.35 318.35L805.85 314.1C814.57 310.2 821.25 297.76 821.25 297.76L825.9 289.62L834.46 274.62L838.51 267.52L839.19 268.14L844.45 272.9C844.45 272.9 846.68 274.74 850.02 277.57C857.3 283.7 869.88 294.5 876.36 301.1C882.07 306.93 883.87 329.56 884.36 346.6C884.71 357.81 884.5 366.6 884.5 366.6C878.74 376.06 893.77 452.15 893.77 452.15C897.33 466.81 901.6 558.85 901.6 558.85Z" fill="white"/>
<path opacity="0.03" d="M852.81 297.58C852.81 297.58 835.36 330.8 837.41 343.41C839.46 356.02 845.2 370.32 842.41 373.66C841.456 374.925 840.221 375.951 838.804 376.659C837.386 377.367 835.824 377.737 834.24 377.74C831.46 377.93 824.03 383.12 824.03 383.68C824.03 384.24 817.17 384.24 811.03 386.84C804.89 389.44 795.81 390.92 795.81 390.92C795.81 390.92 778.18 390.36 776.51 392.03C774.84 393.7 773.17 403.72 776.7 411.7C780.23 419.68 784.12 425.62 787.09 426.7C790.06 427.78 808.8 421.51 824.01 420.02C839.22 418.53 855.81 406.51 855.81 406.51C855.81 406.51 873.99 400.01 877.15 389.06C880.31 378.11 873.25 317.99 873.25 317.99C873.25 317.99 867.81 289.97 852.81 297.58Z" fill="black"/>
<path opacity="0.03" d="M850.57 294.8C850.57 294.8 833.13 328.01 835.17 340.63C837.21 353.25 842.96 367.54 840.17 370.88C839.216 372.145 837.981 373.171 836.564 373.879C835.147 374.587 833.584 374.957 832 374.96C829.22 375.15 821.8 380.34 821.8 380.9C821.8 381.46 814.93 381.45 808.8 384.05C802.67 386.65 793.58 388.13 793.58 388.13C793.58 388.13 775.95 387.58 774.28 389.25C772.61 390.92 770.94 400.94 774.47 408.92C778 416.9 781.89 422.84 784.86 423.92C787.83 425 806.57 418.72 821.79 417.24C837.01 415.76 853.54 403.7 853.54 403.7C853.54 403.7 871.72 397.21 874.88 386.26C878.04 375.31 870.98 315.19 870.98 315.19C870.98 315.19 865.6 287.19 850.57 294.8Z" fill="black"/>
<path d="M852.24 295.91C852.24 295.91 834.81 329.13 836.81 341.7C838.81 354.27 844.6 368.61 841.81 371.95C840.857 373.216 839.623 374.244 838.206 374.952C836.788 375.66 835.225 376.029 833.64 376.03C830.86 376.22 823.44 381.41 823.44 381.97C823.44 382.53 816.57 382.53 810.44 385.13C804.31 387.73 795.22 389.21 795.22 389.21C795.22 389.21 777.59 388.65 775.92 390.32C774.25 391.99 772.58 402.01 776.11 409.99C779.64 417.97 783.53 423.91 786.5 424.99C789.47 426.07 808.21 419.8 823.43 418.31C838.65 416.82 855.16 404.77 855.16 404.77C855.16 404.77 873.34 398.27 876.5 387.32C879.66 376.37 872.6 316.25 872.6 316.25C872.6 316.25 867.27 288.3 852.24 295.91Z" fill="white"/>
<path opacity="0.1" d="M851.87 384.98C851.87 384.98 837.95 382.2 842.78 386.84C847.61 391.48 847.6 395.56 853.54 395.37C859.48 395.18 851.87 384.98 851.87 384.98Z" fill="black"/>
<path opacity="0.1" d="M875.44 485C875.44 485 869.13 489.27 881.19 499.1C893.25 508.93 875.44 485 875.44 485Z" fill="black"/>
<path opacity="0.1" d="M863.37 520.07C863.37 520.63 861.15 540.48 869.5 545.49C877.85 550.5 863.37 520.07 863.37 520.07Z" fill="black"/>
<path d="M730.88 364.18C724.16 364.41 709.61 366.47 717.15 380.53C723.82 392.97 735.02 384.66 741.29 378.34C739.76 372.462 736.034 367.394 730.88 364.18V364.18Z" fill="#FFB0B1"/>
<path d="M741.4 378.23C741.5 378.14 741.59 378.04 741.68 377.95C741.59 378.04 741.5 378.14 741.4 378.23Z" fill="#FFB0B1"/>
<path opacity="0.1" d="M850.02 278.12C842.88 283 836.89 287.12 835.73 287.98C832.52 290.34 826.4 304.26 822.5 311.36C819.36 317.08 809.19 318.55 805.35 318.91L805.81 314.7C814.53 310.81 821.21 298.37 821.21 298.37L838.47 268.13L844.41 273.51C844.41 273.51 846.68 275.3 850.02 278.12Z" fill="black"/>
<path d="M850.02 277.57C842.88 282.44 836.89 286.57 835.73 287.42C832.52 289.79 826.4 303.7 822.5 310.8C819.36 316.52 809.19 317.99 805.35 318.35L805.85 314.1C814.57 310.2 821.25 297.76 821.25 297.76L838.51 267.52L844.45 272.9C844.45 272.9 846.68 274.7 850.02 277.57Z" fill="#DCE7FF"/>
<path d="M836.28 253.88C836.286 255.817 836.082 257.748 835.67 259.64C834.926 263.176 833.485 266.528 831.43 269.5C827.695 274.933 822.136 278.846 815.762 280.531C809.389 282.215 802.622 281.559 796.691 278.682C790.759 275.804 786.056 270.896 783.434 264.847C780.812 258.798 780.445 252.009 782.4 245.713C784.355 239.417 788.502 234.03 794.089 230.53C799.676 227.03 806.332 225.649 812.85 226.637C819.369 227.625 825.317 230.917 829.616 235.915C833.914 240.914 836.279 247.287 836.28 253.88V253.88Z" fill="#FFB0B1"/>
<path opacity="0.1" d="M884.39 346.6C880.616 344.277 877.543 340.973 875.5 337.04C873.95 333.97 872.92 330.44 870.26 328.25C867.88 326.31 864.66 325.83 861.71 324.96C851.94 322.07 843.71 313.14 843.43 302.96C843.29 298.17 844.78 293.38 844.1 288.64C843.716 285.95 842.645 283.405 840.99 281.25C840.181 280.211 839.285 279.244 838.31 278.36C837.01 277.13 835.64 275.94 834.46 274.63C833.694 273.826 833.023 272.937 832.46 271.98C832.019 271.196 831.661 270.368 831.39 269.51C829.57 263.83 831.22 257.07 829.18 251.32C829.18 251.22 829.11 251.11 829.07 251.01C828.29 248.96 826.72 246.92 824.55 246.76C822.38 246.6 820.49 248.41 818.41 249.23C814.05 250.92 809.34 248.04 805.71 245.1C802.08 242.16 797.98 238.8 793.35 239.46C790.3 239.89 787.88 241.98 785.07 243.06C784.419 243.298 783.75 243.485 783.07 243.62C785.457 237.682 789.837 232.761 795.457 229.7C801.077 226.639 807.587 225.629 813.87 226.843C820.154 228.058 825.818 231.421 829.893 236.356C833.967 241.291 836.197 247.49 836.2 253.89C836.206 255.826 836.002 257.758 835.59 259.65C835.65 259.77 835.7 259.9 835.75 260.02C836.83 262.79 838.04 265.68 839.11 268.15L844.37 272.91C844.37 272.91 846.6 274.75 849.94 277.58C857.22 283.71 869.8 294.51 876.28 301.11C882.07 306.93 883.87 329.56 884.39 346.6Z" fill="black"/>
<path d="M784.81 226.09C786.14 223.38 786.81 220.35 788.39 217.79C790.72 214.04 794.8 211.69 798.97 210.25C809.89 206.49 832.97 201.02 839.86 210.25C841.22 212.08 842.34 214.18 844.22 215.47C845.74 216.297 847.321 217.006 848.95 217.59C853.35 219.66 856.16 224.15 857.66 228.77C859.16 233.39 859.6 238.29 860.66 243.03C862.06 249.09 864.53 254.84 866.98 260.56C869.87 267.31 872.98 274.3 878.52 279.08C886.13 285.59 887.84 294.8 894.87 301.93C903.24 310.41 902.97 324.4 898.66 335.5C897.946 336.903 897.601 338.466 897.66 340.04C898.065 341.647 898.923 343.104 900.13 344.24L904.7 349.4C899.241 350.578 893.548 349.946 888.48 347.601C883.412 345.255 879.245 341.323 876.61 336.4C875.05 333.33 874.02 329.8 871.36 327.62C868.98 325.67 865.77 325.2 862.81 324.32C853.04 321.43 844.81 312.5 844.53 302.32C844.39 297.54 845.88 292.74 845.21 288C844.809 285.344 843.742 282.833 842.11 280.7C839.54 277.36 835.69 275.09 833.61 271.43C830.09 265.22 832.76 257.14 830.22 250.43C829.44 248.43 827.88 246.34 825.7 246.18C823.52 246.02 821.64 247.84 819.56 248.65C815.2 250.34 810.5 247.46 806.87 244.52C803.24 241.58 799.13 238.23 794.51 238.89C791.45 239.32 789.04 241.4 786.22 242.48C784.14 243.28 779.92 244 778.09 242.24C774.26 238.56 783.17 229.38 784.81 226.09Z" fill="#591D4B"/>
<path opacity="0.1" d="M879.21 333.33C877.66 330.26 876.63 326.73 873.97 324.54C871.59 322.59 868.37 322.12 865.42 321.25C855.65 318.36 847.42 309.43 847.14 299.25C846.99 294.46 848.49 289.67 847.81 284.93C847.426 282.24 846.355 279.695 844.7 277.54C842.14 274.2 838.28 271.92 836.21 268.26C832.68 262.05 835.36 253.97 832.82 247.26C832.04 245.26 830.48 243.17 828.3 243.01C826.12 242.85 824.24 244.66 822.16 245.47C817.8 247.17 813.09 244.29 809.47 241.35C805.85 238.41 801.73 235.06 797.1 235.71C794.1 236.14 791.64 238.22 788.82 239.31C786.74 240.11 782.52 240.83 780.69 239.07C776.86 235.37 785.77 226.19 787.38 222.91C788.71 220.2 789.38 217.17 790.96 214.61L791.23 214.19C790.054 215.186 789.041 216.36 788.23 217.67C786.63 220.23 785.97 223.26 784.65 225.97C783.04 229.26 774.13 238.44 777.96 242.13C779.78 243.89 783.96 243.13 786.09 242.37C788.9 241.29 791.31 239.21 794.37 238.77C798.99 238.12 803.1 241.47 806.73 244.41C810.36 247.35 815.07 250.23 819.42 248.54C821.51 247.73 823.33 245.9 825.56 246.07C827.79 246.24 829.31 248.27 830.09 250.32C832.63 256.99 829.95 265.07 833.47 271.32C835.55 274.97 839.41 277.25 841.97 280.59C843.625 282.745 844.696 285.29 845.08 287.98C845.76 292.72 844.26 297.51 844.41 302.3C844.72 312.49 852.92 321.42 862.69 324.3C865.64 325.17 868.86 325.64 871.24 327.6C873.9 329.78 874.92 333.31 876.48 336.38C879.115 341.304 883.281 345.235 888.349 347.581C893.417 349.926 899.111 350.558 904.57 349.38L902.42 346.94C892.98 347.1 883.49 341.76 879.21 333.33Z" fill="black"/>
<path opacity="0.1" d="M815.13 290.9C813.91 292.72 810.43 302.28 807.52 310.58C804.8 309.53 802.32 302.77 802.32 302.77L816.81 282.12C818.33 284.16 817.35 287.56 815.13 290.9Z" fill="black"/>
<path d="M815.68 290.34C814.47 292.16 810.99 301.72 808.07 310.03C805.35 308.98 802.88 302.22 802.88 302.22L817.4 281.57C818.89 283.6 817.91 287 815.68 290.34Z" fill="#DCE7FF"/>
<path d="M731.27 385.3L723.22 359.95C723.124 359.652 723.087 359.338 723.112 359.026C723.137 358.713 723.224 358.409 723.367 358.13C723.51 357.852 723.707 357.604 723.946 357.401C724.185 357.199 724.462 357.045 724.76 356.95V356.95C725.058 356.851 725.373 356.812 725.686 356.836C725.999 356.86 726.304 356.946 726.584 357.09C726.863 357.233 727.111 357.431 727.313 357.671C727.515 357.912 727.667 358.19 727.76 358.49L735.81 383.86L735.01 389.17L731.27 385.3Z" fill="#BE8B87"/>
<path opacity="0.1" d="M723.98 357.7C724.279 357.604 724.593 357.568 724.906 357.594C725.219 357.619 725.523 357.707 725.802 357.851C726.081 357.995 726.329 358.193 726.531 358.433C726.733 358.673 726.885 358.951 726.98 359.25L735.03 384.6L734.42 388.6L735.01 389.21L735.81 383.9L727.76 358.55C727.667 358.25 727.515 357.972 727.313 357.731C727.111 357.491 726.863 357.293 726.583 357.15C726.304 357.006 725.999 356.92 725.686 356.896C725.373 356.872 725.058 356.911 724.76 357.01V357.01C724.259 357.166 723.825 357.486 723.53 357.92C723.671 357.831 723.822 357.757 723.98 357.7V357.7Z" fill="white"/>
<path d="M731.27 385.3L735.79 383.86L735.13 388.22L734.99 389.17L733.67 387.79L731.27 385.3Z" fill="#EFC8C4"/>
<path d="M733.67 387.79C733.752 387.695 733.851 387.613 733.96 387.55C734.025 387.51 734.099 387.489 734.175 387.489C734.251 387.489 734.325 387.51 734.39 387.55C734.455 387.625 734.509 387.709 734.55 387.8C734.61 387.905 734.694 387.995 734.794 388.063C734.895 388.13 735.01 388.174 735.13 388.19L734.99 389.19L733.67 387.79Z" fill="#727A9C"/>
<path d="M723.18 368.93C723.18 368.93 739.33 368.84 735.52 375.7C731.71 382.56 725.78 383.4 725.78 383.4L723.18 368.93Z" fill="#FFB0B1"/>
</g>
<defs>
<linearGradient id="paint0_linear" x1="797.11" y1="725.86" x2="797.11" y2="203.5" gradientUnits="userSpaceOnUse">
<stop stop-color="#808080" stop-opacity="0.25"/>
<stop offset="0.54" stop-color="#808080" stop-opacity="0.12"/>
<stop offset="1" stop-color="#808080" stop-opacity="0.1"/>
</linearGradient>
<clipPath id="clip0">
<rect width="987.62" height="787.4" fill="white"/>
</clipPath>
</defs>
</svg>
