<svg width="1005" height="841" viewBox="0 0 1005 841" fill="none" xmlns="http://www.w3.org/2000/svg">
<g clip-path="url(#clip0)">
<path d="M677.603 209.358C626.369 144.269 541.499 102.928 455.662 64.68C208.157 -45.6059 20.9448 -25.7419 110.592 209.358H677.603Z" fill="#24292E"/>
<path d="M282.145 529.018C323.386 595.251 371.898 643.392 455.662 643.392C543.671 643.392 621.859 598.514 671.318 529.018H282.145Z" fill="#24292E"/>
<path opacity="0.1" d="M61.2522 323.877C70.6183 312.547 81.1934 301.895 94.1 294.859C107.007 287.822 122.555 284.7 136.647 288.884C147.166 292.008 156.133 298.88 164.431 306.06C181.433 320.772 197.11 337.615 217.164 347.781C237.218 357.947 263.642 359.844 280.675 345.169C294.156 333.554 299.904 313.436 316.002 305.855C331.872 298.382 350.272 306.407 366.375 313.361C388.244 322.804 410.875 330.374 434.023 335.991C449.683 339.79 465.814 342.702 481.856 341.174C497.897 339.646 513.997 333.225 524.46 320.969" fill="black"/>
<path opacity="0.1" d="M290.977 389.373C300.343 378.043 310.918 367.392 323.825 360.355C336.732 353.318 352.28 350.196 366.372 354.38C376.891 357.504 385.858 364.376 394.156 371.556C411.158 386.268 426.835 403.112 446.889 413.277C466.943 423.443 493.367 425.34 510.4 410.665C523.881 399.05 529.629 378.932 545.727 371.352C561.597 363.879 579.997 371.903 596.1 378.857C617.969 388.3 640.6 395.87 663.748 401.487C679.408 405.286 695.539 408.198 711.581 406.67C727.622 405.143 743.722 398.721 754.185 386.465" fill="black"/>
<path d="M68.095 316.056C77.4611 304.726 88.0361 294.075 100.943 287.038C113.849 280.002 129.397 276.879 143.489 281.064C154.009 284.188 162.975 291.06 171.274 298.24C188.276 312.952 203.953 329.795 224.007 339.961C244.061 350.126 270.485 352.024 287.518 337.348C300.999 325.734 306.746 305.616 322.845 298.035C338.714 290.562 357.115 298.587 373.218 305.541C395.087 314.983 417.718 322.554 440.866 328.171C456.526 331.97 472.657 334.882 488.698 333.354C504.74 331.826 520.84 325.404 531.303 313.149" fill="#24292E"/>
<path d="M299.775 378.62C309.141 367.29 319.716 356.639 332.623 349.602C345.53 342.565 361.078 339.443 375.17 343.627C385.689 346.751 394.656 353.623 402.954 360.804C419.956 375.515 435.633 392.359 455.687 402.524C475.741 412.69 502.165 414.587 519.198 399.912C532.679 388.297 538.427 368.18 554.525 360.599C570.394 353.126 588.795 361.15 604.898 368.104C626.767 377.547 649.398 385.117 672.546 390.734C688.206 394.533 704.337 397.445 720.379 395.917C736.42 394.39 752.52 387.968 762.983 375.712" fill="#24292E"/>
<path opacity="0.1" d="M60.7303 274.854C72.6078 274.854 82.2365 265.225 82.2365 253.348C82.2365 241.47 72.6078 231.842 60.7303 231.842C48.8528 231.842 39.2241 241.47 39.2241 253.348C39.2241 265.225 48.8528 274.854 60.7303 274.854Z" fill="black"/>
<path d="M68.5507 265.078C80.4283 265.078 90.0569 255.45 90.0569 243.572C90.0569 231.695 80.4283 222.066 68.5507 222.066C56.6732 222.066 47.0446 231.695 47.0446 243.572C47.0446 255.45 56.6732 265.078 68.5507 265.078Z" fill="#7691AD"/>
<path opacity="0.1" d="M726.761 300.595H767.138C769.893 284.666 769.893 268.382 767.138 252.454H726.761C731.31 268.178 731.31 284.87 726.761 300.595V300.595Z" fill="black"/>
<path d="M732.627 292.774H773.003C775.759 276.846 775.759 260.562 773.003 244.633H732.627C737.175 260.358 737.175 277.05 732.627 292.774Z" fill="#7691AD"/>
<path d="M101.85 606.346C135.438 707.432 123.642 802.345 123.642 802.345C123.642 802.345 57.3884 733.366 23.8001 632.28C-9.78814 531.194 2.00814 436.281 2.00814 436.281C2.00814 436.281 68.2617 505.26 101.85 606.346Z" fill="#7691AD"/>
<path d="M145.434 606.346C111.846 707.432 123.642 802.345 123.642 802.345C123.642 802.345 189.896 733.366 223.484 632.28C257.072 531.194 245.276 436.281 245.276 436.281C245.276 436.281 179.022 505.26 145.434 606.346Z" fill="#7691AD"/>
<path d="M158.962 607.439C161.214 713.935 121.925 801.137 121.925 801.137C121.925 801.137 78.9863 715.674 76.7349 609.177C74.4835 502.681 113.772 415.479 113.772 415.479C113.772 415.479 156.711 500.943 158.962 607.439Z" fill="#24292E"/>
<path d="M121.903 807.551C174.363 807.551 216.891 805.217 216.891 802.338C216.891 799.459 174.363 797.125 121.903 797.125C69.4426 797.125 26.915 799.459 26.915 802.338C26.915 805.217 69.4426 807.551 121.903 807.551Z" fill="#24292E"/>
<path d="M117.849 523.746C123.606 523.746 128.274 519.078 128.274 513.32C128.274 507.562 123.606 502.895 117.849 502.895C112.091 502.895 107.423 507.562 107.423 513.32C107.423 519.078 112.091 523.746 117.849 523.746Z" fill="#7691AD"/>
<path d="M97.5767 602.516C100.776 602.516 103.369 599.923 103.369 596.724C103.369 593.525 100.776 590.932 97.5767 590.932C94.3779 590.932 91.7848 593.525 91.7848 596.724C91.7848 599.923 94.3779 602.516 97.5767 602.516Z" fill="#7691AD"/>
<path d="M26.915 545.176C30.1138 545.176 32.7069 542.583 32.7069 539.384C32.7069 536.185 30.1138 533.592 26.915 533.592C23.7162 533.592 21.123 536.185 21.123 539.384C21.123 542.583 23.7162 545.176 26.915 545.176Z" fill="#3F3D56"/>
<path d="M231.371 488.994C234.569 488.994 237.163 486.401 237.163 483.202C237.163 480.003 234.569 477.41 231.371 477.41C228.172 477.41 225.579 480.003 225.579 483.202C225.579 486.401 228.172 488.994 231.371 488.994Z" fill="#24292E"/>
<path d="M57.0332 599.62C60.232 599.62 62.8251 597.027 62.8251 593.828C62.8251 590.63 60.232 588.036 57.0332 588.036C53.8344 588.036 51.2412 590.63 51.2412 593.828C51.2412 597.027 53.8344 599.62 57.0332 599.62Z" fill="#3F3D56"/>
<path d="M178.664 566.027C181.863 566.027 184.456 563.434 184.456 560.235C184.456 557.036 181.863 554.443 178.664 554.443C175.465 554.443 172.872 557.036 172.872 560.235C172.872 563.434 175.465 566.027 178.664 566.027Z" fill="#24292E"/>
<path d="M60.5083 684.762C63.7071 684.762 66.3002 682.169 66.3002 678.97C66.3002 675.771 63.7071 673.178 60.5083 673.178C57.3095 673.178 54.7163 675.771 54.7163 678.97C54.7163 682.169 57.3095 684.762 60.5083 684.762Z" fill="#24292E"/>
<path d="M184.456 651.748C187.655 651.748 190.248 649.155 190.248 645.956C190.248 642.757 187.655 640.164 184.456 640.164C181.257 640.164 178.664 642.757 178.664 645.956C178.664 649.155 181.257 651.748 184.456 651.748Z" fill="#24292E"/>
<path d="M128.274 657.54C131.473 657.54 134.066 654.947 134.066 651.748C134.066 648.549 131.473 645.956 128.274 645.956C125.075 645.956 122.482 648.549 122.482 651.748C122.482 654.947 125.075 657.54 128.274 657.54Z" fill="#7691AD"/>
<path opacity="0.1" d="M666.788 327.774H626.412C623.656 311.845 623.656 295.561 626.412 279.633H666.788C662.24 295.357 662.24 312.049 666.788 327.774Z" fill="black"/>
<path d="M672.654 321.909H632.277C629.522 305.98 629.522 289.696 632.277 273.767H672.654C668.105 289.492 668.105 306.184 672.654 321.909V321.909Z" fill="#8CB47A"/>
<path d="M951.493 760.482L959.956 787.412L933.796 789.72L936.104 760.482H951.493Z" fill="#CCB3B3"/>
<path d="M824.537 781.256V818.189H794.53L802.993 781.256H824.537Z" fill="#CCB3B3"/>
<path d="M931.488 512.726L943.798 629.679C943.798 629.679 959.187 732.782 956.109 748.94C953.032 765.098 956.879 767.407 956.879 767.407H933.796C933.796 767.407 934.565 757.404 929.949 752.787C925.332 748.171 927.641 734.321 927.641 734.321L869.164 555.814L836.079 655.84C836.079 655.84 830.693 765.868 829.923 767.407C829.154 768.945 826.846 789.72 826.846 789.72H798.377C798.377 789.72 802.224 777.409 796.838 773.562C791.452 769.715 786.835 772.793 791.452 765.868C796.069 758.943 797.607 750.479 796.069 746.632C794.53 742.785 794.53 727.396 794.53 727.396C794.53 727.396 796.838 519.651 809.918 512.726C822.998 505.802 931.488 512.726 931.488 512.726Z" fill="#2F2E41"/>
<path d="M816.406 798.615C816.406 798.615 829.563 796.641 829.563 797.299C829.563 797.957 845.35 840.715 829.563 840.058C813.775 839.4 753.913 830.848 757.86 815.06C761.806 799.272 781.541 803.877 781.541 803.877L799.303 794.01L816.406 798.615Z" fill="#2F2E41"/>
<path d="M945.94 784.99C945.94 784.99 932.783 783.017 932.783 783.675C932.783 784.332 916.996 827.091 932.783 826.433C948.571 825.776 1008.43 817.224 1004.49 801.436C1000.54 785.648 980.805 790.253 980.805 790.253L963.043 780.385L945.94 784.99Z" fill="#2F2E41"/>
<path d="M887.529 616.891H839.454C836.173 597.925 836.173 578.537 839.454 559.571H887.529C882.113 578.294 882.113 598.168 887.529 616.891Z" fill="#7691AD"/>
<path d="M868.186 292.927C884.909 292.927 898.466 279.37 898.466 262.647C898.466 245.924 884.909 232.368 868.186 232.368C851.463 232.368 837.907 245.924 837.907 262.647C837.907 279.37 851.463 292.927 868.186 292.927Z" fill="#CCB3B3"/>
<path d="M892.247 258.816C892.247 258.816 897.633 312.676 904.558 316.523C911.483 320.37 851.467 324.217 851.467 324.217C851.467 324.217 866.086 274.974 861.47 270.357C856.853 265.741 892.247 258.816 892.247 258.816Z" fill="#CCB3B3"/>
<path d="M827.615 314.984C827.615 314.984 849.159 294.209 873.781 298.056C898.402 301.903 916.099 306.52 916.099 306.52C916.099 306.52 953.801 326.525 954.57 342.683C955.34 358.841 940.721 419.626 940.721 419.626C940.721 419.626 933.796 518.882 933.026 518.882C932.257 518.882 802.993 517.343 802.993 517.343L826.846 388.079L827.615 314.984Z" fill="#24292E"/>
<path d="M832.647 500.131C837.633 501.477 846.227 499.615 855.199 496.676C871.203 491.421 888.4 482.719 888.4 482.719C888.4 482.719 943.798 460.405 959.956 448.864C976.114 437.323 965.342 391.157 965.342 391.157L940.721 398.851L942.26 427.32L881.475 466.561C871.924 467.456 862.493 469.352 853.337 472.216C843.103 475.578 833.162 480.818 829.569 488.866C829.009 490.095 828.611 491.39 828.384 492.721C827.653 496.968 829.377 499.238 832.647 500.131Z" fill="#CCB3B3"/>
<path opacity="0.15" d="M829.569 488.866C830.639 492.852 831.678 496.645 832.647 500.131C837.633 501.477 846.227 499.615 855.199 496.676L853.337 472.216C843.103 475.578 833.162 480.818 829.569 488.866Z" fill="black"/>
<path d="M840.695 376.538L845.312 417.317L852.968 517.937C852.968 517.937 895.324 568.895 871.472 570.433C847.62 571.972 834.54 520.421 834.54 520.421C834.54 520.421 810.688 438.861 811.457 421.934C812.226 405.007 811.457 376.538 811.457 376.538H840.695Z" fill="#CCB3B3"/>
<path d="M833.991 259.268C833.2 258.951 832.464 258.508 831.814 257.956C830.161 256.352 830.44 253.633 831.158 251.445C831.875 249.256 832.924 246.993 832.41 244.748C832.171 243.701 831.601 242.744 831.438 241.683C831.05 239.161 833.063 236.861 835.291 235.616C837.518 234.37 840.081 233.756 842.186 232.313C845.415 230.1 847.198 226.198 850.476 224.059C853.681 221.967 857.754 221.902 861.582 221.906L873.01 221.919C878.982 221.925 885.545 222.147 889.99 226.136C891.342 227.349 892.412 228.851 893.782 230.045C896.539 232.449 900.26 233.409 903.322 235.411C905.609 236.94 907.478 239.015 908.761 241.448C910.044 243.881 910.7 246.595 910.67 249.346C910.562 254.417 908.09 259.343 908.732 264.374C909.163 267.749 910.985 270.992 910.506 274.36C909.939 278.355 906.274 281.217 902.516 282.686C898.758 284.156 894.661 284.683 891.004 286.39C888.02 287.782 884.902 290.003 881.756 289.028C879.094 288.204 877.634 285.393 876.68 282.774C875.565 279.712 874.746 276.55 874.234 273.332C873.851 270.925 873.597 268.373 872.183 266.387C871.353 265.307 870.26 264.456 869.009 263.916C867.758 263.377 866.389 263.166 865.033 263.304C858.863 263.846 855.389 274.355 849.714 271.87C846.901 270.638 844.739 266.949 842.485 264.938C839.935 262.657 837.076 260.748 833.991 259.268V259.268Z" fill="#2F2E41"/>
<path d="M945.337 335.758C945.337 335.758 960.726 341.144 966.881 362.688C973.037 384.232 970.728 398.851 970.728 398.851L938.412 404.237L945.337 335.758Z" fill="#24292E"/>
<path d="M843.003 313.445C843.003 313.445 815.304 307.289 811.457 333.45C809.05 351.047 807.765 368.78 807.61 386.54C807.61 386.54 833.77 374.229 845.312 386.54L843.003 313.445Z" fill="#24292E"/>
</g>
<defs>
<clipPath id="clip0">
<rect width="1004.67" height="840.065" fill="white"/>
</clipPath>
</defs>
</svg>
