<svg width="888" height="675" viewBox="0 0 888 675" fill="none" xmlns="http://www.w3.org/2000/svg">
<g clip-path="url(#clip0)">
<path d="M674 20.5H256V558.064H674V20.5Z" fill="#E6E8EC"/>
<path d="M567.494 117.809H354.091V120.207H567.494V117.809Z" fill="#3F3D56"/>
<path d="M567.494 134.594H354.091V136.991H567.494V134.594Z" fill="#3F3D56"/>
<path d="M567.494 151.378H354.091V153.776H567.494V151.378Z" fill="#3F3D56"/>
<path d="M567.494 242.809H354.091V245.207H567.494V242.809Z" fill="#24292E"/>
<path d="M567.494 259.594H354.091V261.991H567.494V259.594Z" fill="#24292E"/>
<path d="M567.494 276.378H354.091V278.776H567.494V276.378Z" fill="#3F3D56"/>
<path d="M567.494 318.809H354.091V321.207H567.494V318.809Z" fill="#3F3D56"/>
<path d="M567.494 335.594H354.091V337.991H567.494V335.594Z" fill="#3F3D56"/>
<path d="M567.494 352.378H354.091V354.776H567.494V352.378Z" fill="#3F3D56"/>
<path d="M567.494 394.809H354.091V397.207H567.494V394.809Z" fill="#3F3D56"/>
<path d="M567.494 411.594H354.091V413.991H567.494V411.594Z" fill="#24292E"/>
<path d="M567.494 428.378H354.091V430.776H567.494V428.378Z" fill="#3F3D56"/>
<path d="M567.494 470.809H354.091V473.207H567.494V470.809Z" fill="#3F3D56"/>
<path d="M567.494 487.594H354.091V489.991H567.494V487.594Z" fill="#3F3D56"/>
<path d="M567.494 504.378H354.091V506.776H567.494V504.378Z" fill="#3F3D56"/>
<path d="M703.5 597H254.5V0H703.5V597ZM256.5 595H701.5V2H256.5V595Z" fill="#3F3D56"/>
<path d="M604 46.5C604 44.2197 604.601 41.9797 605.742 40.0054C606.883 38.0311 608.524 36.3921 610.5 35.2534C608.524 34.1078 606.281 33.5031 603.997 33.5C601.713 33.4969 599.469 34.0956 597.49 35.2358C595.511 36.376 593.867 38.0175 592.724 39.9949C591.581 41.9724 590.98 44.216 590.98 46.5C590.98 48.784 591.581 51.0276 592.724 53.005C593.867 54.9825 595.511 56.624 597.49 57.7642C599.469 58.9044 601.713 59.5031 603.997 59.5C606.281 59.4969 608.524 58.8922 610.5 57.7466C608.524 56.6079 606.883 54.9689 605.742 52.9946C604.601 51.0203 604 48.7803 604 46.5V46.5Z" fill="#3F3D56"/>
<path d="M621 46.5C621 44.2197 621.601 41.9797 622.742 40.0054C623.883 38.0311 625.524 36.3921 627.5 35.2534C625.524 34.1078 623.281 33.5031 620.997 33.5C618.713 33.4969 616.469 34.0956 614.49 35.2358C612.511 36.376 610.867 38.0175 609.724 39.9949C608.581 41.9724 607.98 44.216 607.98 46.5C607.98 48.784 608.581 51.0276 609.724 53.005C610.867 54.9825 612.511 56.624 614.49 57.7642C616.469 58.9044 618.713 59.5031 620.997 59.5C623.281 59.4969 625.524 58.8922 627.5 57.7466C625.524 56.6079 623.883 54.9689 622.742 52.9946C621.601 51.0203 621 48.7803 621 46.5V46.5Z" fill="#24292E"/>
<path d="M638 59.5C645.18 59.5 651 53.6797 651 46.5C651 39.3203 645.18 33.5 638 33.5C630.82 33.5 625 39.3203 625 46.5C625 53.6797 630.82 59.5 638 59.5Z" fill="#3F3D56"/>
<path d="M625.804 598.049L624.73 597.646C624.494 597.557 601.022 588.564 590.026 568.173C579.03 547.78 584.414 523.227 584.47 522.982L584.723 521.864L585.796 522.266C586.032 522.355 609.504 531.348 620.5 551.74C631.496 572.133 626.112 596.685 626.056 596.93L625.804 598.049ZM591.787 567.223C601.083 584.465 619.632 593.302 624.332 595.32C625.225 590.283 628.028 569.914 618.74 552.689C609.452 535.467 590.896 526.615 586.195 524.593C585.301 529.633 582.499 550 591.787 567.223Z" fill="#3F3D56"/>
<path d="M598.429 561.02C618.19 572.908 625.8 596.522 625.8 596.522C625.8 596.522 601.373 600.861 581.612 588.972C561.851 577.084 554.241 553.47 554.241 553.47C554.241 553.47 578.669 549.131 598.429 561.02Z" fill="#24292E"/>
<path d="M339 160.5C338.996 180.025 333.702 199.183 323.682 215.941C313.661 232.698 299.288 246.427 282.09 255.67C280.8 256.37 279.49 257.04 278.16 257.68C263.401 264.829 247.21 268.529 230.81 268.5C214.411 268.47 198.233 264.712 183.5 257.51C180.96 256.27 178.48 254.93 176.06 253.49C173.6 252.05 171.21 250.5 168.89 248.86C153.633 238.133 141.414 223.638 133.421 206.787C125.429 189.936 121.936 171.303 123.282 152.701C124.628 134.099 130.768 116.162 141.103 100.638C151.438 85.1128 165.618 72.5286 182.26 64.11C188.834 60.7686 195.738 58.121 202.86 56.21C206 55.36 209.193 54.6534 212.44 54.09C218.569 53.027 224.779 52.4951 231 52.5C232.28 52.5 233.55 52.52 234.82 52.58C235.75 52.6 236.68 52.64 237.61 52.7C247.332 53.2811 256.93 55.1819 266.14 58.35C266.93 58.62 267.72 58.9 268.5 59.19C271.22 60.19 273.88 61.3034 276.48 62.53C295.158 71.1989 310.968 85.0278 322.045 102.386C333.122 119.744 339.005 139.908 339 160.5Z" fill="#3F3D56"/>
<path d="M273.154 50.0599C263.328 26.8758 238.316 22.4973 238.316 22.4973C238.316 22.4973 214.233 16.0724 194.12 46.6706C175.374 75.1907 151.199 101.911 181.857 113.295L189.956 96.2871L190.927 115.861C195.385 116.789 199.891 117.473 204.424 117.909C238.43 121.364 270.487 127.108 271.08 114.818C271.87 98.4808 282.609 72.3677 273.154 50.0599Z" fill="#2F2E41"/>
<path d="M185.82 239.01L185.02 245.43L183.5 257.51C180.96 256.27 178.48 254.93 176.06 253.49C173.6 252.05 171.21 250.5 168.89 248.86L169.13 242.63L169.4 235.72L180.5 237.95L185.82 239.01Z" fill="#FFB8B8"/>
<path d="M297.55 245.57C292.694 249.372 287.522 252.751 282.09 255.67L276.85 237.52L276.16 235.13L274.44 229.16L276.29 228.87L295.23 225.88L295.84 231.03L297.55 245.57Z" fill="#FFB8B8"/>
<path d="M238.333 97.8666C254.648 97.8666 267.874 84.6408 267.874 68.3259C267.874 52.011 254.648 38.7852 238.333 38.7852C222.018 38.7852 208.792 52.011 208.792 68.3259C208.792 84.6408 222.018 97.8666 238.333 97.8666Z" fill="#FFB8B8"/>
<path d="M218.092 79.814C218.092 79.814 220.28 117.013 213.716 119.202C207.151 121.39 247.633 119.202 247.633 119.202C247.633 119.202 242.162 96.2255 247.633 89.6609C253.103 83.0963 218.092 79.814 218.092 79.814Z" fill="#FFB8B8"/>
<path d="M248.18 113.184C248.18 113.184 219.733 110.996 214.263 113.184C208.792 115.372 193.475 126.313 193.475 126.313L201.133 195.242L263.497 208.371L273.344 194.147L283.191 173.359L278.815 147.101L277.721 131.784L248.18 113.184Z" fill="#F9F9F9"/>
<path d="M188.004 130.69C188.004 130.69 173.781 133.972 172.687 144.913C171.593 155.854 171.593 183.206 172.687 187.583C173.781 191.959 172.687 194.147 171.593 195.242C170.499 196.336 168.31 194.147 170.499 197.43C172.687 200.712 172.687 200.712 171.593 203.994C170.499 207.277 167.216 202.9 169.405 208.371C171.593 213.841 172.687 214.935 171.593 216.029C170.499 217.124 167.216 242.288 167.216 242.288L185.816 245.57L204.416 181.018L188.004 130.69Z" fill="#F9F9F9"/>
<path d="M273.344 130.69C275.422 130.806 277.431 131.475 279.162 132.63C280.894 133.784 282.285 135.381 283.191 137.254C286.473 143.819 295.226 186.489 294.132 189.771C293.038 193.053 290.85 188.677 293.038 195.242C295.226 201.806 293.038 200.712 294.132 205.088C295.226 209.465 289.756 205.088 294.132 209.465C298.508 213.841 300.697 214.935 298.508 217.124C296.32 219.312 293.038 214.935 296.32 219.312C299.603 223.688 299.603 230.253 299.603 230.253L273.344 235.723L265.685 174.454L273.344 130.69Z" fill="#F9F9F9"/>
<path d="M276.85 237.52L278.16 257.68C263.401 264.829 247.21 268.529 230.81 268.5C214.411 268.47 198.233 264.712 183.5 257.51C180.96 256.27 178.48 254.93 176.06 253.49C176.9 250.4 177.75 247.32 178.62 244.3C179.24 242.15 179.867 240.033 180.5 237.95C185.41 221.88 190.7 208.21 195.66 202.9C195.66 202.9 195.66 190.87 197.85 189.77C198.903 188.945 199.706 187.844 200.17 186.59C200.985 184.783 201.674 182.922 202.23 181.02L198.61 172.6L182.41 134.88C181.949 133.801 181.917 132.587 182.32 131.485C182.723 130.383 183.531 129.476 184.58 128.95L189.95 126.26C190.494 125.99 191.086 125.83 191.692 125.789C192.298 125.749 192.906 125.828 193.481 126.024C194.057 126.219 194.588 126.526 195.044 126.927C195.5 127.328 195.873 127.815 196.14 128.36L220.83 178.83L248.18 196.34L267.36 187.81L267.87 187.58C267.87 187.58 282.1 165.7 277.72 154.76C275.85 150.09 273.79 143.85 272.02 138.22C270.99 134.9 270.07 131.79 269.35 129.35C269.237 128.962 269.245 128.549 269.375 128.167C269.504 127.784 269.748 127.451 270.073 127.212C270.399 126.973 270.79 126.839 271.193 126.83C271.597 126.821 271.994 126.936 272.33 127.16L276.06 129.65C276.905 130.217 277.574 131.011 277.99 131.94C278.163 132.303 278.29 132.686 278.37 133.08L286.47 172.27L275.53 195.24V217.12L276.29 228.87L276.69 235.02L276.85 237.52Z" fill="#2F2E41"/>
<path d="M267.599 41.637L242.532 28.507L207.916 33.878L200.754 65.51L218.582 64.825L223.563 53.203V64.633L231.789 64.317L236.564 45.815L239.548 65.51L268.793 64.914L267.599 41.637Z" fill="#2F2E41"/>
<path d="M208.245 74.07C210.058 74.07 211.527 71.4983 211.527 68.3259C211.527 65.1536 210.058 62.5819 208.245 62.5819C206.432 62.5819 204.963 65.1536 204.963 68.3259C204.963 71.4983 206.432 74.07 208.245 74.07Z" fill="#FFB8B8"/>
<path d="M862.585 339.563C862.585 387.497 830.206 428.063 785.588 441.638C779 443.656 772.237 445.048 765.388 445.797C761.206 446.267 757.001 446.501 752.793 446.5C751.227 446.5 749.672 446.47 748.126 446.391H748.106C732.409 445.781 717.019 441.853 702.949 434.866C693.065 429.957 683.977 423.588 675.989 415.974C665.583 406.15 657.291 394.307 651.619 381.169C645.947 368.031 643.014 353.874 643 339.563C643 294.244 671.943 255.509 712.81 239.944C717.7 238.075 722.718 236.559 727.825 235.409C746.644 231.157 766.238 231.788 784.744 237.241C786.147 237.637 787.54 238.083 788.912 238.558C788.922 238.558 788.933 238.568 788.943 238.568C792.244 239.678 795.488 240.954 798.661 242.39C799.749 242.865 800.837 243.37 801.904 243.905C804.039 244.935 806.133 246.04 808.187 247.222C808.98 247.667 809.763 248.123 810.535 248.598C823.147 256.188 834.092 266.252 842.711 278.184C850.55 289.032 856.243 301.279 859.484 314.265C861.552 322.539 862.594 331.035 862.585 339.563Z" fill="#24292E"/>
<path d="M871.254 166.084L886.284 161.52L887.581 148.627C887.581 148.627 851.025 135.177 839.337 158.967C835.211 167.367 830.01 172.412 825.008 175.424C821.555 177.421 817.703 178.629 813.728 178.963C809.753 179.296 805.754 178.746 802.017 177.352C776.681 168.34 770.715 193.968 770.715 193.968C770.715 193.968 772.905 197.617 788.522 198.514C796.294 198.96 802.654 204.657 807.082 210.267C816.564 222.281 836.04 218.809 840.823 204.389C840.9 204.157 840.976 203.921 841.05 203.683C848.521 179.847 882.532 198.825 882.532 198.825L884.704 177.235L871.254 166.084Z" fill="#2F2E41"/>
<path d="M768.843 224.431C779.01 224.431 787.252 216.404 787.252 206.501C787.252 196.599 779.01 188.572 768.843 188.572C758.676 188.572 750.435 196.599 750.435 206.501C750.435 216.404 758.676 224.431 768.843 224.431Z" fill="#2F2E41"/>
<path d="M759.639 302.127C786.75 302.127 808.729 280.72 808.729 254.314C808.729 227.908 786.75 206.501 759.639 206.501C732.527 206.501 710.549 227.908 710.549 254.314C710.549 280.72 732.527 302.127 759.639 302.127Z" fill="#2F2E41"/>
<path d="M758.105 304.617C776.744 304.617 791.854 289.9 791.854 271.746C791.854 253.591 776.744 238.875 758.105 238.875C739.466 238.875 724.355 253.591 724.355 271.746C724.355 289.9 739.466 304.617 758.105 304.617Z" fill="#A0616A"/>
<path d="M744.81 296.648L750.946 328.523L781.627 324.539C781.627 324.539 776.513 299.637 779.581 292.664L744.81 296.648Z" fill="#A0616A"/>
<path d="M805.149 226.921C805.149 226.921 780.604 208.992 770.377 215.964C760.15 222.937 797.99 245.847 802.081 243.855C806.172 241.863 805.149 226.921 805.149 226.921Z" fill="#A0616A"/>
<path d="M828.671 362.387C828.675 362.552 828.668 362.717 828.651 362.882V362.891C828.021 377.13 801.111 420.707 785.588 441.638C779 443.656 772.237 445.048 765.388 445.797C761.206 446.267 757.001 446.501 752.793 446.5C751.227 446.5 749.672 446.47 748.126 446.391H748.106C733.813 441.896 716.835 435.994 704.453 431.341C698.618 429.133 693.799 427.212 690.77 425.845C689.642 425.383 688.56 424.816 687.537 424.152C682.424 420.162 693.677 417.172 698.791 416.182C703.904 415.181 696.748 404.23 696.748 404.23C678.337 385.299 700.834 369.367 700.834 369.367C700.834 369.367 710.034 350.435 710.034 345.455C710.059 345.085 710.198 344.733 710.431 344.445C714.284 339.138 744.812 329.523 744.812 329.523V313.582L747.974 313.067L779.082 308.017L781.623 307.601L786.737 315.572L809.244 318.562C809.244 318.562 828.671 344.465 828.671 362.387Z" fill="#F9F9F9"/>
<path d="M731.515 362.386C731.515 362.386 718.035 398.784 705.724 428.281C705.297 429.311 704.87 430.331 704.453 431.341C703.945 432.529 703.447 433.707 702.949 434.866C693.065 429.957 683.977 423.588 675.989 415.974C681.519 398.458 690.292 370.625 693.677 359.406C697.408 347.039 706.039 344.772 710.431 344.445C711.321 344.363 712.216 344.369 713.104 344.465L731.515 362.386Z" fill="#F9F9F9"/>
<path d="M806.172 321.551L809.24 318.562C809.24 318.562 848.103 277.722 847.08 267.761C847.08 267.761 826.626 242.859 801.058 249.832C801.058 249.832 789.809 222.937 807.195 223.933C824.58 224.929 889.011 220.945 887.988 249.832C886.965 278.719 825.603 367.371 825.603 367.371L806.172 321.551Z" fill="#F9F9F9"/>
<path d="M765.388 445.797C761.206 446.267 757.001 446.501 752.793 446.5C751.227 446.5 749.672 446.47 748.126 446.391H748.106C732.409 445.781 717.019 441.853 702.949 434.866C698.475 432.645 694.158 430.121 690.028 427.311L690.77 425.845V425.836L691.634 424.152L705.724 428.281L765.388 445.797Z" fill="#2F2E41"/>
<path d="M791.698 256.608C795.229 245.577 783.739 232.04 766.033 226.371C748.327 220.703 731.111 225.051 727.579 236.082C724.048 247.113 735.539 260.651 753.245 266.319C770.95 271.987 788.167 267.64 791.698 256.608Z" fill="#2F2E41"/>
<path d="M6.76301e-06 566.5C-0.00194665 572.051 0.419268 577.593 1.26 583.08C5.30166 609.001 18.6295 632.568 38.76 649.39C39.31 649.85 39.87 650.31 40.44 650.76C41.62 651.71 42.82 652.633 44.04 653.53C45.8 654.83 47.6 656.073 49.44 657.26C63.9051 666.58 80.3848 672.314 97.5107 673.987C114.637 675.661 131.915 673.224 147.91 666.88C148.67 666.58 149.43 666.27 150.18 665.95C151.38 665.44 152.56 664.91 153.74 664.35C156.73 662.96 159.647 661.43 162.49 659.76C165.42 658.05 168.253 656.21 170.99 654.24C172.24 653.34 173.45 652.43 174.66 651.48L174.68 651.47C190.68 638.904 202.817 622.085 209.7 602.94V602.93C217.926 579.897 218.101 554.755 210.197 531.609C202.293 508.464 186.776 488.681 166.18 475.49C165.23 474.89 164.27 474.29 163.3 473.73C162.3 473.11 161.28 472.53 160.25 471.97C146.388 464.278 130.991 459.759 115.17 458.74C112.8 458.58 110.41 458.5 108 458.5C107.88 458.5 107.76 458.5 107.64 458.51C104.4 458.51 101.2 458.66 98.04 458.96C71.2353 461.442 46.3239 473.845 28.188 493.738C10.0522 513.632 -0.000582091 539.581 6.76301e-06 566.5Z" fill="#3F3D56"/>
<path d="M219.312 603.589C219.312 603.589 250.854 570.995 259.265 590.972C267.677 610.948 227.723 621.463 227.723 621.463L219.312 603.589Z" fill="#FFB8B8"/>
<path d="M40.44 650.76C41.62 651.71 42.82 652.633 44.04 653.53C45.8 654.83 47.6 656.073 49.44 657.26C63.9051 666.58 80.3848 672.314 97.5107 673.987C114.637 675.661 131.915 673.224 147.91 666.88C148.67 666.58 149.43 666.27 150.18 665.95C151.38 665.44 152.56 664.91 153.74 664.35L150.97 660.37C148.962 658.49 146.712 656.886 144.28 655.6C125.33 645.31 89.6401 645.63 65.4901 647.32C62.0501 647.56 58.8501 647.83 55.9701 648.1C54.1701 648.26 52.4901 648.43 50.9601 648.59C50.3401 648.66 49.7501 648.72 49.1901 648.78C43.8001 649.38 40.5701 649.85 40.5701 649.85L40.44 650.76Z" fill="#2F2E41"/>
<path d="M133.119 504.967C149.806 504.967 163.333 491.439 163.333 474.752C163.333 458.065 149.806 444.537 133.119 444.537C116.431 444.537 102.904 458.065 102.904 474.752C102.904 491.439 116.431 504.967 133.119 504.967Z" fill="#FFB8B8"/>
<path d="M113.119 484.779L91.0388 507.91L84.7303 543.658L140.455 553.121L136.25 520.527C136.25 520.527 137.301 504.756 141.507 501.601C145.712 498.447 113.119 484.779 113.119 484.779Z" fill="#FFB8B8"/>
<path d="M47.93 653.01C49.7733 652.418 51.6458 651.921 53.54 651.52C58.3071 650.483 63.1554 649.864 68.03 649.67C79.5658 649.062 91.0747 651.29 101.55 656.16C116.87 663.51 135.05 665.51 147.55 665.89C148.46 665.92 149.34 665.94 150.18 665.95C151.38 665.44 152.56 664.91 153.74 664.35C156.73 662.96 159.647 661.43 162.49 659.76L162.45 656.06L161.79 582.86V582.85L161.48 547.86L141.51 524.73L136.38 518.95L133.94 521.14L119.43 534.2L98.28 514.61L91.04 507.91L56.31 624.82L51.83 639.9L49.19 648.78L48.78 650.14V650.15L47.93 653.01Z" fill="#24292E"/>
<path d="M128.62 551.11C128.67 556.362 129.112 561.603 129.94 566.79C133.54 589.78 136.63 628 144.28 655.6C145.28 659.24 146.37 662.68 147.55 665.89L147.91 666.88C148.67 666.58 149.43 666.27 150.18 665.95C151.38 665.44 152.56 664.91 153.74 664.35C156.73 662.96 159.647 661.43 162.49 659.76C165.42 658.05 168.253 656.21 170.99 654.24L170.67 652.98V652.97L165.69 633.03C165.69 633.03 168.89 616.34 171.45 597.67V597.66C174.39 576.29 176.49 552.35 172 547.86L136.77 515.63L136.76 515.64C135.662 517.388 134.719 519.228 133.94 521.14C131.54 526.83 128.5 536.87 128.62 551.11Z" fill="#F9F9F9"/>
<path d="M19.01 627.7C24.5764 635.794 31.221 643.092 38.76 649.39C39.31 649.85 39.87 650.31 40.44 650.76C41.62 651.71 42.82 652.633 44.04 653.53C45.8 654.83 47.6 656.073 49.44 657.26C50.8 655.37 52.17 653.45 53.54 651.52C54.35 650.39 55.16 649.25 55.97 648.1C57.25 646.28 58.5301 644.45 59.79 642.61C59.95 642.39 60.1 642.17 60.25 641.95C61.85 639.64 63.43 637.32 64.97 635.01C76.33 618.04 85.75 601.75 86.83 592.02C88.13 580.37 90.76 562.35 93.43 545.14C95.15 533.96 96.89 523.12 98.28 514.61C99.96 504.27 101.12 497.35 101.12 497.35C101.12 497.35 46.02 491.84 38.3 497.25H38.29C38.0684 497.377 37.8763 497.55 37.7264 497.757C37.5764 497.964 37.472 498.2 37.42 498.45C36.58 504.31 41.08 558.77 42.94 580.77V580.78C43.42 586.42 43.73 589.92 43.73 589.92C43.73 589.92 40.58 594.13 35.96 600.88C31.25 607.77 25 617.3 19.01 627.7Z" fill="#F9F9F9"/>
<path d="M168.844 577.303L174.101 618.308L220.363 598.332L235.083 628.823L159.381 657.211C159.381 657.211 145.712 584.663 168.844 577.303Z" fill="#F9F9F9"/>
<path d="M163.307 480.281C163.307 480.281 167.412 475.847 166.997 470.296C166.723 467.139 166.925 463.958 167.596 460.861C167.596 460.861 166.311 451.776 164.413 446.51C162.516 441.244 164.116 439.411 155.959 436.537C147.802 433.662 152.995 423.265 128.947 431.552C128.032 432.475 126.865 433.107 125.591 433.368C124.318 433.628 122.996 433.506 121.792 433.016C117.352 431.39 114.677 437.489 114.677 437.489C114.677 437.489 111.907 435.217 110.353 437.579C108.799 439.942 101.284 434.558 98.5278 451.743C95.7719 468.928 105.233 484.253 105.233 484.253C105.233 484.253 106.56 456.753 122.178 456.254C137.796 455.755 155.458 449.84 157.648 461.42C158.793 467.906 160.692 474.236 163.307 480.281Z" fill="#2F2E41"/>
<path d="M38.76 649.39C39.31 649.85 39.87 650.31 40.44 650.76C41.62 651.71 42.82 652.633 44.04 653.53C45.8 654.83 47.6 656.073 49.44 657.26C58.3001 662.993 67.9574 667.386 78.1 670.3C80.58 663.94 74.64 656.03 68.0301 649.67C67.1901 648.86 66.3301 648.07 65.4901 647.32C63.4901 645.55 61.5201 643.95 59.7901 642.61C59.7101 642.55 59.6401 642.5 59.5701 642.44C56.3001 639.92 53.9301 638.37 53.9301 638.37L51.8301 639.9L38.76 649.39Z" fill="#FFB8B8"/>
<path d="M1.26001 583.08C5.30167 609.001 18.6295 632.568 38.76 649.39C39.31 649.85 39.87 650.31 40.44 650.76C41.62 651.71 42.82 652.633 44.04 653.53L48.78 650.15V650.14L50.96 648.59L59.57 642.44L60.25 641.95L66.86 637.23L64.97 635.01L56.31 624.82L35.96 600.88L31.11 595.18L42.94 580.78V580.77L55.29 565.74L44.78 498.45C42.7897 497.408 40.5315 496.99 38.3 497.25H38.29C35.91 497.66 33.48 499.3 32.16 503.7C29.77 511.67 10.47 560.1 1.26001 583.08Z" fill="#F9F9F9"/>
</g>
<defs>
<clipPath id="clip0">
<rect width="888" height="674.5" fill="white"/>
</clipPath>
</defs>
</svg>
