<svg width="686" height="144" viewBox="0 0 686 144" fill="none" xmlns="http://www.w3.org/2000/svg">
<mask id="path-1-outside-1_596_14" maskUnits="userSpaceOnUse" x="0" y="0" width="686" height="144" fill="black">
<rect fill="white" width="686" height="144"/>
<path d="M2 7.58401H60.88V29.296H25.184V50.088H60.88V71.616H25.184V113.384H2V7.58401ZM128.776 29.296V7.58401H69.896V29.296H128.776ZM99.704 71.616V50.088H69.896V71.616H99.704Z"/>
<path d="M2 7.58401H60.88V29.296H25.184V50.088H60.88V71.616H25.184V113.384H2V7.58401ZM128.776 29.296V7.58401H69.896V29.296H128.776ZM99.704 71.616V50.088H69.896V71.616H99.704Z"/>
<path d="M161.976 113.584H139.656V4H161.976V113.584Z"/>
<path d="M204.562 115.456C197.458 115.456 191.554 113.008 186.85 108.112C182.242 103.216 179.938 96.112 179.938 86.8C179.938 77.488 183.202 70.72 189.73 66.496C196.354 62.272 205.954 60.16 218.53 60.16H229.33C229.33 53.728 228.706 49.6 227.458 47.776C226.21 45.856 223.378 44.896 218.962 44.896C214.642 44.896 209.794 45.376 204.418 46.336C199.138 47.296 193.234 48.736 186.706 50.656L182.098 34.528C186.034 32.704 191.65 31.024 198.946 29.488C206.338 27.856 212.914 27.04 218.674 27.04C230.482 27.04 238.93 29.776 244.018 35.248C249.106 40.624 251.65 48.496 251.65 58.864V113.584H237.538L234.658 104.224H233.794C232.642 105.088 231.106 106.144 229.186 107.392C227.362 108.64 223.858 110.32 218.674 112.432C213.49 114.448 208.786 115.456 204.562 115.456ZM229.33 76.72C225.97 76.24 221.458 76 215.794 76C210.226 76 206.626 76.72 204.994 78.16C203.458 79.6 202.69 82.336 202.69 86.368C202.69 90.4 203.314 93.232 204.562 94.864C205.906 96.4 207.922 97.168 210.61 97.168C215.602 97.168 220.882 95.824 226.45 93.136L229.33 91.696V76.72Z"/>
<path d="M336.62 59.296C336.62 67.648 333.308 74.608 326.684 80.176C320.156 85.648 311.18 88.432 299.756 88.528C299.564 90.256 299.468 91.264 299.468 91.552C299.468 91.84 299.948 92.176 300.908 92.56C301.868 92.944 303.788 93.616 306.668 94.576C320.3 99.376 329.084 103.552 333.02 107.104C337.052 110.56 339.068 114.4 339.068 118.624C339.068 125.248 335.66 130.336 328.844 133.888C322.028 137.536 313.1 139.36 302.06 139.36C296.78 139.36 291.26 138.928 285.5 138.064C279.74 137.296 273.74 136.096 267.5 134.464L269.948 117.472C287.804 120.256 300.332 121.648 307.532 121.648C314.828 121.648 318.476 120.88 318.476 119.344C318.476 118.288 310.268 114.88 293.852 109.12C286.652 106.528 282.668 104.944 281.9 104.368C281.228 103.792 280.892 103.12 280.892 102.352C280.892 100.816 282.764 95.44 286.508 86.224C272.684 81.424 265.772 72.016 265.772 58C265.772 52.432 266.828 47.584 268.94 43.456C271.052 39.328 273.98 36.112 277.724 33.808C285.02 29.296 294.236 27.04 305.372 27.04L341.948 28.768V41.728L333.02 43.168C335.42 48.352 336.62 53.728 336.62 59.296ZM301.772 72.256C307.724 72.256 311.66 71.2 313.58 69.088C315.596 66.976 316.604 62.608 316.604 55.984C316.604 49.36 316.076 45.52 315.02 44.464C313.964 43.408 310.076 42.88 303.356 42.88C296.732 42.88 292.268 43.792 289.964 45.616C287.756 47.344 286.652 51.232 286.652 57.28C286.652 63.232 287.66 67.216 289.676 69.232C291.788 71.248 295.82 72.256 301.772 72.256Z"/>
<path d="M354.25 4H376.57V29.2C383.578 27.76 389.77 27.04 395.146 27.04C416.074 27.04 426.538 41.392 426.538 70.096C426.538 78.928 425.53 86.464 423.514 92.704C421.594 98.848 418.954 103.504 415.594 106.672C409.258 112.528 401.482 115.456 392.266 115.456C387.37 115.456 381.178 114.832 373.69 113.584C366.298 112.336 359.818 110.848 354.25 109.12V4ZM400.186 47.344C398.842 46 396.538 45.328 393.274 45.328C387.322 45.328 381.754 45.952 376.57 47.2V96.016C381.562 96.976 386.074 97.456 390.106 97.456C394.234 97.456 397.018 96.88 398.458 95.728C401.818 92.944 403.498 83.584 403.498 67.648C403.498 56.224 402.394 49.456 400.186 47.344Z"/>
<path d="M465.421 115.456C458.317 115.456 452.413 113.008 447.709 108.112C443.101 103.216 440.797 96.112 440.797 86.8C440.797 77.488 444.061 70.72 450.589 66.496C457.213 62.272 466.813 60.16 479.389 60.16H490.189C490.189 53.728 489.565 49.6 488.317 47.776C487.069 45.856 484.237 44.896 479.821 44.896C475.501 44.896 470.653 45.376 465.277 46.336C459.997 47.296 454.093 48.736 447.565 50.656L442.957 34.528C446.893 32.704 452.509 31.024 459.805 29.488C467.197 27.856 473.773 27.04 479.533 27.04C491.341 27.04 499.789 29.776 504.877 35.248C509.965 40.624 512.509 48.496 512.509 58.864V113.584H498.397L495.517 104.224H494.653C493.501 105.088 491.965 106.144 490.045 107.392C488.221 108.64 484.717 110.32 479.533 112.432C474.349 114.448 469.645 115.456 465.421 115.456ZM490.189 76.72C486.829 76.24 482.317 76 476.653 76C471.085 76 467.485 76.72 465.853 78.16C464.317 79.6 463.549 82.336 463.549 86.368C463.549 90.4 464.173 93.232 465.421 94.864C466.765 96.4 468.781 97.168 471.469 97.168C476.461 97.168 481.741 95.824 487.309 93.136L490.189 91.696V76.72Z"/>
<path d="M560.327 44.896C556.679 44.896 554.279 45.376 553.127 46.336C552.071 47.2 551.543 48.544 551.543 50.368C551.543 52.192 552.359 53.824 553.991 55.264C555.623 56.608 557.255 57.616 558.887 58.288C560.519 58.864 562.391 59.488 564.503 60.16C566.711 60.736 569.927 61.648 574.151 62.896C578.471 64.144 581.879 65.44 584.375 66.784C591.767 70.912 595.463 77.536 595.463 86.656C595.463 95.68 592.679 102.736 587.111 107.824C581.543 112.912 573.719 115.456 563.639 115.456C558.359 115.456 552.839 114.784 547.079 113.44C541.319 112 536.855 110.608 533.687 109.264L529.079 107.104L534.551 89.536C546.743 94.72 556.727 97.312 564.503 97.312C567.479 97.312 569.687 96.784 571.127 95.728C572.567 94.672 573.287 92.752 573.287 89.968C573.287 88.24 572.999 86.992 572.423 86.224C571.847 85.456 571.367 84.88 570.983 84.496C570.599 84.016 570.023 83.584 569.255 83.2C568.487 82.72 567.815 82.384 567.239 82.192C566.759 81.904 565.991 81.568 564.935 81.184C563.879 80.8 563.063 80.512 562.487 80.32C561.911 80.128 560.951 79.84 559.607 79.456C558.263 79.072 556.727 78.64 554.999 78.16C553.367 77.584 552.119 77.152 551.255 76.864C550.391 76.576 548.663 75.952 546.071 74.992C543.575 74.032 541.799 73.216 540.743 72.544C539.783 71.776 538.391 70.72 536.567 69.376C534.839 67.936 533.591 66.448 532.823 64.912C530.807 60.688 529.799 56.464 529.799 52.24C529.799 44.368 532.439 38.224 537.719 33.808C542.999 29.296 550.871 27.04 561.335 27.04C571.895 27.04 582.071 28.672 591.863 31.936L588.551 49.216C577.511 46.336 568.103 44.896 560.327 44.896Z"/>
<path d="M646.455 115.456C620.343 115.456 607.287 100.72 607.287 71.248C607.287 41.776 620.247 27.04 646.167 27.04C657.783 27.04 666.519 30.16 672.375 36.4C678.231 42.544 681.159 52.768 681.159 67.072V79.024H630.471C630.471 87.088 631.959 92.416 634.935 95.008C636.951 96.832 639.783 97.744 643.431 97.744C650.151 97.744 658.695 96.208 669.063 93.136L674.103 91.552L679.575 107.68C675.255 109.696 669.879 111.52 663.447 113.152C657.015 114.688 651.351 115.456 646.455 115.456ZM655.815 47.776C654.087 45.664 650.631 44.608 645.447 44.608C640.263 44.608 636.567 45.856 634.359 48.352C632.151 50.848 630.903 55.696 630.615 62.896L658.407 62.32C658.215 54.736 657.351 49.888 655.815 47.776Z"/>
</mask>
<path d="M2 7.58401H60.88V29.296H25.184V50.088H60.88V71.616H25.184V113.384H2V7.58401ZM128.776 29.296V7.58401H69.896V29.296H128.776ZM99.704 71.616V50.088H69.896V71.616H99.704Z" fill="#24292E"/>
<path d="M2 7.58401H60.88V29.296H25.184V50.088H60.88V71.616H25.184V113.384H2V7.58401ZM128.776 29.296V7.58401H69.896V29.296H128.776ZM99.704 71.616V50.088H69.896V71.616H99.704Z" fill="#24292E"/>
<path d="M161.976 113.584H139.656V4H161.976V113.584Z" fill="#24292E"/>
<path d="M204.562 115.456C197.458 115.456 191.554 113.008 186.85 108.112C182.242 103.216 179.938 96.112 179.938 86.8C179.938 77.488 183.202 70.72 189.73 66.496C196.354 62.272 205.954 60.16 218.53 60.16H229.33C229.33 53.728 228.706 49.6 227.458 47.776C226.21 45.856 223.378 44.896 218.962 44.896C214.642 44.896 209.794 45.376 204.418 46.336C199.138 47.296 193.234 48.736 186.706 50.656L182.098 34.528C186.034 32.704 191.65 31.024 198.946 29.488C206.338 27.856 212.914 27.04 218.674 27.04C230.482 27.04 238.93 29.776 244.018 35.248C249.106 40.624 251.65 48.496 251.65 58.864V113.584H237.538L234.658 104.224H233.794C232.642 105.088 231.106 106.144 229.186 107.392C227.362 108.64 223.858 110.32 218.674 112.432C213.49 114.448 208.786 115.456 204.562 115.456ZM229.33 76.72C225.97 76.24 221.458 76 215.794 76C210.226 76 206.626 76.72 204.994 78.16C203.458 79.6 202.69 82.336 202.69 86.368C202.69 90.4 203.314 93.232 204.562 94.864C205.906 96.4 207.922 97.168 210.61 97.168C215.602 97.168 220.882 95.824 226.45 93.136L229.33 91.696V76.72Z" fill="#24292E"/>
<path d="M336.62 59.296C336.62 67.648 333.308 74.608 326.684 80.176C320.156 85.648 311.18 88.432 299.756 88.528C299.564 90.256 299.468 91.264 299.468 91.552C299.468 91.84 299.948 92.176 300.908 92.56C301.868 92.944 303.788 93.616 306.668 94.576C320.3 99.376 329.084 103.552 333.02 107.104C337.052 110.56 339.068 114.4 339.068 118.624C339.068 125.248 335.66 130.336 328.844 133.888C322.028 137.536 313.1 139.36 302.06 139.36C296.78 139.36 291.26 138.928 285.5 138.064C279.74 137.296 273.74 136.096 267.5 134.464L269.948 117.472C287.804 120.256 300.332 121.648 307.532 121.648C314.828 121.648 318.476 120.88 318.476 119.344C318.476 118.288 310.268 114.88 293.852 109.12C286.652 106.528 282.668 104.944 281.9 104.368C281.228 103.792 280.892 103.12 280.892 102.352C280.892 100.816 282.764 95.44 286.508 86.224C272.684 81.424 265.772 72.016 265.772 58C265.772 52.432 266.828 47.584 268.94 43.456C271.052 39.328 273.98 36.112 277.724 33.808C285.02 29.296 294.236 27.04 305.372 27.04L341.948 28.768V41.728L333.02 43.168C335.42 48.352 336.62 53.728 336.62 59.296ZM301.772 72.256C307.724 72.256 311.66 71.2 313.58 69.088C315.596 66.976 316.604 62.608 316.604 55.984C316.604 49.36 316.076 45.52 315.02 44.464C313.964 43.408 310.076 42.88 303.356 42.88C296.732 42.88 292.268 43.792 289.964 45.616C287.756 47.344 286.652 51.232 286.652 57.28C286.652 63.232 287.66 67.216 289.676 69.232C291.788 71.248 295.82 72.256 301.772 72.256Z" fill="#24292E"/>
<path d="M354.25 4H376.57V29.2C383.578 27.76 389.77 27.04 395.146 27.04C416.074 27.04 426.538 41.392 426.538 70.096C426.538 78.928 425.53 86.464 423.514 92.704C421.594 98.848 418.954 103.504 415.594 106.672C409.258 112.528 401.482 115.456 392.266 115.456C387.37 115.456 381.178 114.832 373.69 113.584C366.298 112.336 359.818 110.848 354.25 109.12V4ZM400.186 47.344C398.842 46 396.538 45.328 393.274 45.328C387.322 45.328 381.754 45.952 376.57 47.2V96.016C381.562 96.976 386.074 97.456 390.106 97.456C394.234 97.456 397.018 96.88 398.458 95.728C401.818 92.944 403.498 83.584 403.498 67.648C403.498 56.224 402.394 49.456 400.186 47.344Z" fill="#24292E"/>
<path d="M465.421 115.456C458.317 115.456 452.413 113.008 447.709 108.112C443.101 103.216 440.797 96.112 440.797 86.8C440.797 77.488 444.061 70.72 450.589 66.496C457.213 62.272 466.813 60.16 479.389 60.16H490.189C490.189 53.728 489.565 49.6 488.317 47.776C487.069 45.856 484.237 44.896 479.821 44.896C475.501 44.896 470.653 45.376 465.277 46.336C459.997 47.296 454.093 48.736 447.565 50.656L442.957 34.528C446.893 32.704 452.509 31.024 459.805 29.488C467.197 27.856 473.773 27.04 479.533 27.04C491.341 27.04 499.789 29.776 504.877 35.248C509.965 40.624 512.509 48.496 512.509 58.864V113.584H498.397L495.517 104.224H494.653C493.501 105.088 491.965 106.144 490.045 107.392C488.221 108.64 484.717 110.32 479.533 112.432C474.349 114.448 469.645 115.456 465.421 115.456ZM490.189 76.72C486.829 76.24 482.317 76 476.653 76C471.085 76 467.485 76.72 465.853 78.16C464.317 79.6 463.549 82.336 463.549 86.368C463.549 90.4 464.173 93.232 465.421 94.864C466.765 96.4 468.781 97.168 471.469 97.168C476.461 97.168 481.741 95.824 487.309 93.136L490.189 91.696V76.72Z" fill="#24292E"/>
<path d="M560.327 44.896C556.679 44.896 554.279 45.376 553.127 46.336C552.071 47.2 551.543 48.544 551.543 50.368C551.543 52.192 552.359 53.824 553.991 55.264C555.623 56.608 557.255 57.616 558.887 58.288C560.519 58.864 562.391 59.488 564.503 60.16C566.711 60.736 569.927 61.648 574.151 62.896C578.471 64.144 581.879 65.44 584.375 66.784C591.767 70.912 595.463 77.536 595.463 86.656C595.463 95.68 592.679 102.736 587.111 107.824C581.543 112.912 573.719 115.456 563.639 115.456C558.359 115.456 552.839 114.784 547.079 113.44C541.319 112 536.855 110.608 533.687 109.264L529.079 107.104L534.551 89.536C546.743 94.72 556.727 97.312 564.503 97.312C567.479 97.312 569.687 96.784 571.127 95.728C572.567 94.672 573.287 92.752 573.287 89.968C573.287 88.24 572.999 86.992 572.423 86.224C571.847 85.456 571.367 84.88 570.983 84.496C570.599 84.016 570.023 83.584 569.255 83.2C568.487 82.72 567.815 82.384 567.239 82.192C566.759 81.904 565.991 81.568 564.935 81.184C563.879 80.8 563.063 80.512 562.487 80.32C561.911 80.128 560.951 79.84 559.607 79.456C558.263 79.072 556.727 78.64 554.999 78.16C553.367 77.584 552.119 77.152 551.255 76.864C550.391 76.576 548.663 75.952 546.071 74.992C543.575 74.032 541.799 73.216 540.743 72.544C539.783 71.776 538.391 70.72 536.567 69.376C534.839 67.936 533.591 66.448 532.823 64.912C530.807 60.688 529.799 56.464 529.799 52.24C529.799 44.368 532.439 38.224 537.719 33.808C542.999 29.296 550.871 27.04 561.335 27.04C571.895 27.04 582.071 28.672 591.863 31.936L588.551 49.216C577.511 46.336 568.103 44.896 560.327 44.896Z" fill="#24292E"/>
<path d="M646.455 115.456C620.343 115.456 607.287 100.72 607.287 71.248C607.287 41.776 620.247 27.04 646.167 27.04C657.783 27.04 666.519 30.16 672.375 36.4C678.231 42.544 681.159 52.768 681.159 67.072V79.024H630.471C630.471 87.088 631.959 92.416 634.935 95.008C636.951 96.832 639.783 97.744 643.431 97.744C650.151 97.744 658.695 96.208 669.063 93.136L674.103 91.552L679.575 107.68C675.255 109.696 669.879 111.52 663.447 113.152C657.015 114.688 651.351 115.456 646.455 115.456ZM655.815 47.776C654.087 45.664 650.631 44.608 645.447 44.608C640.263 44.608 636.567 45.856 634.359 48.352C632.151 50.848 630.903 55.696 630.615 62.896L658.407 62.32C658.215 54.736 657.351 49.888 655.815 47.776Z" fill="#24292E"/>
<path d="M2 7.58401H60.88V29.296H25.184V50.088H60.88V71.616H25.184V113.384H2V7.58401ZM128.776 29.296V7.58401H69.896V29.296H128.776ZM99.704 71.616V50.088H69.896V71.616H99.704Z" stroke="white" stroke-width="8" stroke-linejoin="round" mask="url(#path-1-outside-1_596_14)"/>
<path d="M2 7.58401H60.88V29.296H25.184V50.088H60.88V71.616H25.184V113.384H2V7.58401ZM128.776 29.296V7.58401H69.896V29.296H128.776ZM99.704 71.616V50.088H69.896V71.616H99.704Z" stroke="white" stroke-width="8" stroke-linejoin="round" mask="url(#path-1-outside-1_596_14)"/>
<path d="M161.976 113.584H139.656V4H161.976V113.584Z" stroke="white" stroke-width="8" stroke-linejoin="round" mask="url(#path-1-outside-1_596_14)"/>
<path d="M204.562 115.456C197.458 115.456 191.554 113.008 186.85 108.112C182.242 103.216 179.938 96.112 179.938 86.8C179.938 77.488 183.202 70.72 189.73 66.496C196.354 62.272 205.954 60.16 218.53 60.16H229.33C229.33 53.728 228.706 49.6 227.458 47.776C226.21 45.856 223.378 44.896 218.962 44.896C214.642 44.896 209.794 45.376 204.418 46.336C199.138 47.296 193.234 48.736 186.706 50.656L182.098 34.528C186.034 32.704 191.65 31.024 198.946 29.488C206.338 27.856 212.914 27.04 218.674 27.04C230.482 27.04 238.93 29.776 244.018 35.248C249.106 40.624 251.65 48.496 251.65 58.864V113.584H237.538L234.658 104.224H233.794C232.642 105.088 231.106 106.144 229.186 107.392C227.362 108.64 223.858 110.32 218.674 112.432C213.49 114.448 208.786 115.456 204.562 115.456ZM229.33 76.72C225.97 76.24 221.458 76 215.794 76C210.226 76 206.626 76.72 204.994 78.16C203.458 79.6 202.69 82.336 202.69 86.368C202.69 90.4 203.314 93.232 204.562 94.864C205.906 96.4 207.922 97.168 210.61 97.168C215.602 97.168 220.882 95.824 226.45 93.136L229.33 91.696V76.72Z" stroke="white" stroke-width="8" stroke-linejoin="round" mask="url(#path-1-outside-1_596_14)"/>
<path d="M336.62 59.296C336.62 67.648 333.308 74.608 326.684 80.176C320.156 85.648 311.18 88.432 299.756 88.528C299.564 90.256 299.468 91.264 299.468 91.552C299.468 91.84 299.948 92.176 300.908 92.56C301.868 92.944 303.788 93.616 306.668 94.576C320.3 99.376 329.084 103.552 333.02 107.104C337.052 110.56 339.068 114.4 339.068 118.624C339.068 125.248 335.66 130.336 328.844 133.888C322.028 137.536 313.1 139.36 302.06 139.36C296.78 139.36 291.26 138.928 285.5 138.064C279.74 137.296 273.74 136.096 267.5 134.464L269.948 117.472C287.804 120.256 300.332 121.648 307.532 121.648C314.828 121.648 318.476 120.88 318.476 119.344C318.476 118.288 310.268 114.88 293.852 109.12C286.652 106.528 282.668 104.944 281.9 104.368C281.228 103.792 280.892 103.12 280.892 102.352C280.892 100.816 282.764 95.44 286.508 86.224C272.684 81.424 265.772 72.016 265.772 58C265.772 52.432 266.828 47.584 268.94 43.456C271.052 39.328 273.98 36.112 277.724 33.808C285.02 29.296 294.236 27.04 305.372 27.04L341.948 28.768V41.728L333.02 43.168C335.42 48.352 336.62 53.728 336.62 59.296ZM301.772 72.256C307.724 72.256 311.66 71.2 313.58 69.088C315.596 66.976 316.604 62.608 316.604 55.984C316.604 49.36 316.076 45.52 315.02 44.464C313.964 43.408 310.076 42.88 303.356 42.88C296.732 42.88 292.268 43.792 289.964 45.616C287.756 47.344 286.652 51.232 286.652 57.28C286.652 63.232 287.66 67.216 289.676 69.232C291.788 71.248 295.82 72.256 301.772 72.256Z" stroke="white" stroke-width="8" stroke-linejoin="round" mask="url(#path-1-outside-1_596_14)"/>
<path d="M354.25 4H376.57V29.2C383.578 27.76 389.77 27.04 395.146 27.04C416.074 27.04 426.538 41.392 426.538 70.096C426.538 78.928 425.53 86.464 423.514 92.704C421.594 98.848 418.954 103.504 415.594 106.672C409.258 112.528 401.482 115.456 392.266 115.456C387.37 115.456 381.178 114.832 373.69 113.584C366.298 112.336 359.818 110.848 354.25 109.12V4ZM400.186 47.344C398.842 46 396.538 45.328 393.274 45.328C387.322 45.328 381.754 45.952 376.57 47.2V96.016C381.562 96.976 386.074 97.456 390.106 97.456C394.234 97.456 397.018 96.88 398.458 95.728C401.818 92.944 403.498 83.584 403.498 67.648C403.498 56.224 402.394 49.456 400.186 47.344Z" stroke="white" stroke-width="8" stroke-linejoin="round" mask="url(#path-1-outside-1_596_14)"/>
<path d="M465.421 115.456C458.317 115.456 452.413 113.008 447.709 108.112C443.101 103.216 440.797 96.112 440.797 86.8C440.797 77.488 444.061 70.72 450.589 66.496C457.213 62.272 466.813 60.16 479.389 60.16H490.189C490.189 53.728 489.565 49.6 488.317 47.776C487.069 45.856 484.237 44.896 479.821 44.896C475.501 44.896 470.653 45.376 465.277 46.336C459.997 47.296 454.093 48.736 447.565 50.656L442.957 34.528C446.893 32.704 452.509 31.024 459.805 29.488C467.197 27.856 473.773 27.04 479.533 27.04C491.341 27.04 499.789 29.776 504.877 35.248C509.965 40.624 512.509 48.496 512.509 58.864V113.584H498.397L495.517 104.224H494.653C493.501 105.088 491.965 106.144 490.045 107.392C488.221 108.64 484.717 110.32 479.533 112.432C474.349 114.448 469.645 115.456 465.421 115.456ZM490.189 76.72C486.829 76.24 482.317 76 476.653 76C471.085 76 467.485 76.72 465.853 78.16C464.317 79.6 463.549 82.336 463.549 86.368C463.549 90.4 464.173 93.232 465.421 94.864C466.765 96.4 468.781 97.168 471.469 97.168C476.461 97.168 481.741 95.824 487.309 93.136L490.189 91.696V76.72Z" stroke="white" stroke-width="8" stroke-linejoin="round" mask="url(#path-1-outside-1_596_14)"/>
<path d="M560.327 44.896C556.679 44.896 554.279 45.376 553.127 46.336C552.071 47.2 551.543 48.544 551.543 50.368C551.543 52.192 552.359 53.824 553.991 55.264C555.623 56.608 557.255 57.616 558.887 58.288C560.519 58.864 562.391 59.488 564.503 60.16C566.711 60.736 569.927 61.648 574.151 62.896C578.471 64.144 581.879 65.44 584.375 66.784C591.767 70.912 595.463 77.536 595.463 86.656C595.463 95.68 592.679 102.736 587.111 107.824C581.543 112.912 573.719 115.456 563.639 115.456C558.359 115.456 552.839 114.784 547.079 113.44C541.319 112 536.855 110.608 533.687 109.264L529.079 107.104L534.551 89.536C546.743 94.72 556.727 97.312 564.503 97.312C567.479 97.312 569.687 96.784 571.127 95.728C572.567 94.672 573.287 92.752 573.287 89.968C573.287 88.24 572.999 86.992 572.423 86.224C571.847 85.456 571.367 84.88 570.983 84.496C570.599 84.016 570.023 83.584 569.255 83.2C568.487 82.72 567.815 82.384 567.239 82.192C566.759 81.904 565.991 81.568 564.935 81.184C563.879 80.8 563.063 80.512 562.487 80.32C561.911 80.128 560.951 79.84 559.607 79.456C558.263 79.072 556.727 78.64 554.999 78.16C553.367 77.584 552.119 77.152 551.255 76.864C550.391 76.576 548.663 75.952 546.071 74.992C543.575 74.032 541.799 73.216 540.743 72.544C539.783 71.776 538.391 70.72 536.567 69.376C534.839 67.936 533.591 66.448 532.823 64.912C530.807 60.688 529.799 56.464 529.799 52.24C529.799 44.368 532.439 38.224 537.719 33.808C542.999 29.296 550.871 27.04 561.335 27.04C571.895 27.04 582.071 28.672 591.863 31.936L588.551 49.216C577.511 46.336 568.103 44.896 560.327 44.896Z" stroke="white" stroke-width="8" stroke-linejoin="round" mask="url(#path-1-outside-1_596_14)"/>
<path d="M646.455 115.456C620.343 115.456 607.287 100.72 607.287 71.248C607.287 41.776 620.247 27.04 646.167 27.04C657.783 27.04 666.519 30.16 672.375 36.4C678.231 42.544 681.159 52.768 681.159 67.072V79.024H630.471C630.471 87.088 631.959 92.416 634.935 95.008C636.951 96.832 639.783 97.744 643.431 97.744C650.151 97.744 658.695 96.208 669.063 93.136L674.103 91.552L679.575 107.68C675.255 109.696 669.879 111.52 663.447 113.152C657.015 114.688 651.351 115.456 646.455 115.456ZM655.815 47.776C654.087 45.664 650.631 44.608 645.447 44.608C640.263 44.608 636.567 45.856 634.359 48.352C632.151 50.848 630.903 55.696 630.615 62.896L658.407 62.32C658.215 54.736 657.351 49.888 655.815 47.776Z" stroke="white" stroke-width="8" stroke-linejoin="round" mask="url(#path-1-outside-1_596_14)"/>
</svg>
