<svg width="680" height="136" viewBox="0 0 680 136" fill="none" xmlns="http://www.w3.org/2000/svg">
<path d="M0 3.58401H58.88V25.296H23.184V46.088H58.88V67.616H23.184V109.384H0V3.58401ZM126.776 25.296V3.58401H67.896V25.296H126.776ZM97.704 67.616V46.088H67.896V67.616H97.704Z" fill="black"/>
<path d="M0 3.58401H58.88V25.296H23.184V46.088H58.88V67.616H23.184V109.384H0V3.58401ZM126.776 25.296V3.58401H67.896V25.296H126.776ZM97.704 67.616V46.088H67.896V67.616H97.704Z" fill="black"/>
<path d="M159.976 109.584H137.656V0H159.976V109.584Z" fill="black"/>
<path d="M202.562 111.456C195.458 111.456 189.554 109.008 184.85 104.112C180.242 99.216 177.938 92.112 177.938 82.8C177.938 73.488 181.202 66.72 187.73 62.496C194.354 58.272 203.954 56.16 216.53 56.16H227.33C227.33 49.728 226.706 45.6 225.458 43.776C224.21 41.856 221.378 40.896 216.962 40.896C212.642 40.896 207.794 41.376 202.418 42.336C197.138 43.296 191.234 44.736 184.706 46.656L180.098 30.528C184.034 28.704 189.65 27.024 196.946 25.488C204.338 23.856 210.914 23.04 216.674 23.04C228.482 23.04 236.93 25.776 242.018 31.248C247.106 36.624 249.65 44.496 249.65 54.864V109.584H235.538L232.658 100.224H231.794C230.642 101.088 229.106 102.144 227.186 103.392C225.362 104.64 221.858 106.32 216.674 108.432C211.49 110.448 206.786 111.456 202.562 111.456ZM227.33 72.72C223.97 72.24 219.458 72 213.794 72C208.226 72 204.626 72.72 202.994 74.16C201.458 75.6 200.69 78.336 200.69 82.368C200.69 86.4 201.314 89.232 202.562 90.864C203.906 92.4 205.922 93.168 208.61 93.168C213.602 93.168 218.882 91.824 224.45 89.136L227.33 87.696V72.72Z" fill="black"/>
<path d="M334.62 55.296C334.62 63.648 331.308 70.608 324.684 76.176C318.156 81.648 309.18 84.432 297.756 84.528C297.564 86.256 297.468 87.264 297.468 87.552C297.468 87.84 297.948 88.176 298.908 88.56C299.868 88.944 301.788 89.616 304.668 90.576C318.3 95.376 327.084 99.552 331.02 103.104C335.052 106.56 337.068 110.4 337.068 114.624C337.068 121.248 333.66 126.336 326.844 129.888C320.028 133.536 311.1 135.36 300.06 135.36C294.78 135.36 289.26 134.928 283.5 134.064C277.74 133.296 271.74 132.096 265.5 130.464L267.948 113.472C285.804 116.256 298.332 117.648 305.532 117.648C312.828 117.648 316.476 116.88 316.476 115.344C316.476 114.288 308.268 110.88 291.852 105.12C284.652 102.528 280.668 100.944 279.9 100.368C279.228 99.792 278.892 99.12 278.892 98.352C278.892 96.816 280.764 91.44 284.508 82.224C270.684 77.424 263.772 68.016 263.772 54C263.772 48.432 264.828 43.584 266.94 39.456C269.052 35.328 271.98 32.112 275.724 29.808C283.02 25.296 292.236 23.04 303.372 23.04L339.948 24.768V37.728L331.02 39.168C333.42 44.352 334.62 49.728 334.62 55.296ZM299.772 68.256C305.724 68.256 309.66 67.2 311.58 65.088C313.596 62.976 314.604 58.608 314.604 51.984C314.604 45.36 314.076 41.52 313.02 40.464C311.964 39.408 308.076 38.88 301.356 38.88C294.732 38.88 290.268 39.792 287.964 41.616C285.756 43.344 284.652 47.232 284.652 53.28C284.652 59.232 285.66 63.216 287.676 65.232C289.788 67.248 293.82 68.256 299.772 68.256Z" fill="black"/>
<path d="M352.25 0H374.57V25.2C381.578 23.76 387.77 23.04 393.146 23.04C414.074 23.04 424.538 37.392 424.538 66.096C424.538 74.928 423.53 82.464 421.514 88.704C419.594 94.848 416.954 99.504 413.594 102.672C407.258 108.528 399.482 111.456 390.266 111.456C385.37 111.456 379.178 110.832 371.69 109.584C364.298 108.336 357.818 106.848 352.25 105.12V0ZM398.186 43.344C396.842 42 394.538 41.328 391.274 41.328C385.322 41.328 379.754 41.952 374.57 43.2V92.016C379.562 92.976 384.074 93.456 388.106 93.456C392.234 93.456 395.018 92.88 396.458 91.728C399.818 88.944 401.498 79.584 401.498 63.648C401.498 52.224 400.394 45.456 398.186 43.344Z" fill="black"/>
<path d="M463.421 111.456C456.317 111.456 450.413 109.008 445.709 104.112C441.101 99.216 438.797 92.112 438.797 82.8C438.797 73.488 442.061 66.72 448.589 62.496C455.213 58.272 464.813 56.16 477.389 56.16H488.189C488.189 49.728 487.565 45.6 486.317 43.776C485.069 41.856 482.237 40.896 477.821 40.896C473.501 40.896 468.653 41.376 463.277 42.336C457.997 43.296 452.093 44.736 445.565 46.656L440.957 30.528C444.893 28.704 450.509 27.024 457.805 25.488C465.197 23.856 471.773 23.04 477.533 23.04C489.341 23.04 497.789 25.776 502.877 31.248C507.965 36.624 510.509 44.496 510.509 54.864V109.584H496.397L493.517 100.224H492.653C491.501 101.088 489.965 102.144 488.045 103.392C486.221 104.64 482.717 106.32 477.533 108.432C472.349 110.448 467.645 111.456 463.421 111.456ZM488.189 72.72C484.829 72.24 480.317 72 474.653 72C469.085 72 465.485 72.72 463.853 74.16C462.317 75.6 461.549 78.336 461.549 82.368C461.549 86.4 462.173 89.232 463.421 90.864C464.765 92.4 466.781 93.168 469.469 93.168C474.461 93.168 479.741 91.824 485.309 89.136L488.189 87.696V72.72Z" fill="black"/>
<path d="M558.327 40.896C554.679 40.896 552.279 41.376 551.127 42.336C550.071 43.2 549.543 44.544 549.543 46.368C549.543 48.192 550.359 49.824 551.991 51.264C553.623 52.608 555.255 53.616 556.887 54.288C558.519 54.864 560.391 55.488 562.503 56.16C564.711 56.736 567.927 57.648 572.151 58.896C576.471 60.144 579.879 61.44 582.375 62.784C589.767 66.912 593.463 73.536 593.463 82.656C593.463 91.68 590.679 98.736 585.111 103.824C579.543 108.912 571.719 111.456 561.639 111.456C556.359 111.456 550.839 110.784 545.079 109.44C539.319 108 534.855 106.608 531.687 105.264L527.079 103.104L532.551 85.536C544.743 90.72 554.727 93.312 562.503 93.312C565.479 93.312 567.687 92.784 569.127 91.728C570.567 90.672 571.287 88.752 571.287 85.968C571.287 84.24 570.999 82.992 570.423 82.224C569.847 81.456 569.367 80.88 568.983 80.496C568.599 80.016 568.023 79.584 567.255 79.2C566.487 78.72 565.815 78.384 565.239 78.192C564.759 77.904 563.991 77.568 562.935 77.184C561.879 76.8 561.063 76.512 560.487 76.32C559.911 76.128 558.951 75.84 557.607 75.456C556.263 75.072 554.727 74.64 552.999 74.16C551.367 73.584 550.119 73.152 549.255 72.864C548.391 72.576 546.663 71.952 544.071 70.992C541.575 70.032 539.799 69.216 538.743 68.544C537.783 67.776 536.391 66.72 534.567 65.376C532.839 63.936 531.591 62.448 530.823 60.912C528.807 56.688 527.799 52.464 527.799 48.24C527.799 40.368 530.439 34.224 535.719 29.808C540.999 25.296 548.871 23.04 559.335 23.04C569.895 23.04 580.071 24.672 589.863 27.936L586.551 45.216C575.511 42.336 566.103 40.896 558.327 40.896Z" fill="black"/>
<path d="M644.455 111.456C618.343 111.456 605.287 96.72 605.287 67.248C605.287 37.776 618.247 23.04 644.167 23.04C655.783 23.04 664.519 26.16 670.375 32.4C676.231 38.544 679.159 48.768 679.159 63.072V75.024H628.471C628.471 83.088 629.959 88.416 632.935 91.008C634.951 92.832 637.783 93.744 641.431 93.744C648.151 93.744 656.695 92.208 667.063 89.136L672.103 87.552L677.575 103.68C673.255 105.696 667.879 107.52 661.447 109.152C655.015 110.688 649.351 111.456 644.455 111.456ZM653.815 43.776C652.087 41.664 648.631 40.608 643.447 40.608C638.263 40.608 634.567 41.856 632.359 44.352C630.151 46.848 628.903 51.696 628.615 58.896L656.407 58.32C656.215 50.736 655.351 45.888 653.815 43.776Z" fill="black"/>
</svg>
