<svg width="48" height="49" viewBox="0 0 48 49" fill="none" xmlns="http://www.w3.org/2000/svg">
<path d="M32.2188 9.84912C27.1562 9.84912 23.0312 6.56787 16.75 6.56787C14.4062 6.56787 12.3438 7.03662 10.375 7.78662C10.5625 7.13037 10.6562 6.56787 10.6562 5.91162C10.6562 5.72412 10.6562 5.63037 10.6562 5.53662C10.5625 2.91162 8.3125 0.755371 5.6875 0.661621C2.6875 0.474121 0.25 2.91162 0.25 5.81787C0.25 7.69287 1.09375 9.19287 2.5 10.1304V46.3179C2.5 47.6304 3.4375 48.5679 4.75 48.5679H6.25C7.46875 48.5679 8.5 47.6304 8.5 46.3179V37.5054C11.125 36.3804 14.4062 35.4429 19.1875 35.4429C24.25 35.4429 28.375 38.7241 34.6562 38.7241C39.1562 38.7241 42.8125 37.1304 46.1875 34.8804C46.9375 34.3179 47.5 33.3804 47.5 32.4429V9.56787C47.5 7.41162 45.1562 6.00537 43.1875 6.84912C40 8.34912 36.0625 9.84912 32.2188 9.84912Z" fill="white"/>
</svg>
