<svg width="868" height="441" viewBox="0 0 868 441" fill="none" xmlns="http://www.w3.org/2000/svg">
<rect x="0.5" y="0.5" width="867" height="440" rx="26.5" stroke="#24292E"/>
<rect x="97" y="54" width="188" height="65" fill="#C4C4C4"/>
<path d="M131.711 97.1367C130.457 98.6133 128.676 99.3516 126.367 99.3516C124.305 99.3516 122.74 98.748 121.674 97.541C120.619 96.334 120.092 94.5879 120.092 92.3027V79.9805H124.363V92.25C124.363 94.6641 125.365 95.8711 127.369 95.8711C129.443 95.8711 130.844 95.127 131.57 93.6387V79.9805H135.842V99H131.816L131.711 97.1367ZM150.854 93.832C150.854 93.0703 150.537 92.4902 149.904 92.0918C149.283 91.6934 148.246 91.3418 146.793 91.0371C145.34 90.7324 144.127 90.3457 143.154 89.877C141.021 88.8457 139.955 87.3516 139.955 85.3945C139.955 83.7539 140.646 82.3828 142.029 81.2812C143.412 80.1797 145.17 79.6289 147.303 79.6289C149.576 79.6289 151.41 80.1914 152.805 81.3164C154.211 82.4414 154.914 83.9004 154.914 85.6934H150.643C150.643 84.873 150.338 84.1934 149.729 83.6543C149.119 83.1035 148.311 82.8281 147.303 82.8281C146.365 82.8281 145.598 83.0449 145 83.4785C144.414 83.9121 144.121 84.4922 144.121 85.2188C144.121 85.875 144.396 86.3848 144.947 86.748C145.498 87.1113 146.611 87.4805 148.287 87.8555C149.963 88.2188 151.275 88.6582 152.225 89.1738C153.186 89.6777 153.895 90.2871 154.352 91.002C154.82 91.7168 155.055 92.584 155.055 93.6035C155.055 95.3145 154.346 96.7031 152.928 97.7695C151.51 98.8242 149.652 99.3516 147.355 99.3516C145.797 99.3516 144.408 99.0703 143.189 98.5078C141.971 97.9453 141.021 97.1719 140.342 96.1875C139.662 95.2031 139.322 94.1426 139.322 93.0059H143.471C143.529 94.0137 143.91 94.793 144.613 95.3438C145.316 95.8828 146.248 96.1523 147.408 96.1523C148.533 96.1523 149.389 95.9414 149.975 95.5195C150.561 95.0859 150.854 94.5234 150.854 93.832ZM167.166 99.3516C164.459 99.3516 162.262 98.502 160.574 96.8027C158.898 95.0918 158.061 92.8184 158.061 89.9824V89.4551C158.061 87.5566 158.424 85.8633 159.15 84.375C159.889 82.875 160.92 81.709 162.244 80.877C163.568 80.0449 165.045 79.6289 166.674 79.6289C169.264 79.6289 171.262 80.4551 172.668 82.1074C174.086 83.7598 174.795 86.0977 174.795 89.1211V90.8438H162.367C162.496 92.4141 163.018 93.6562 163.932 94.5703C164.857 95.4844 166.018 95.9414 167.412 95.9414C169.369 95.9414 170.963 95.1504 172.193 93.5684L174.496 95.7656C173.734 96.9023 172.715 97.7871 171.438 98.4199C170.172 99.041 168.748 99.3516 167.166 99.3516ZM166.656 83.0566C165.484 83.0566 164.535 83.4668 163.809 84.2871C163.094 85.1074 162.637 86.25 162.438 87.7148H170.576V87.3984C170.482 85.9688 170.102 84.8906 169.434 84.1641C168.766 83.4258 167.84 83.0566 166.656 83.0566ZM188.084 83.8828C187.521 83.7891 186.941 83.7422 186.344 83.7422C184.387 83.7422 183.068 84.4922 182.389 85.9922V99H178.117V79.9805H182.195L182.301 82.1074C183.332 80.4551 184.762 79.6289 186.59 79.6289C187.199 79.6289 187.703 79.7109 188.102 79.875L188.084 83.8828ZM204.766 102.357H188.646V99H204.766V102.357ZM214.838 95.9414C215.904 95.9414 216.789 95.6309 217.492 95.0098C218.195 94.3887 218.57 93.6211 218.617 92.707H222.643C222.596 93.8906 222.227 94.998 221.535 96.0293C220.844 97.0488 219.906 97.8574 218.723 98.4551C217.539 99.0527 216.262 99.3516 214.891 99.3516C212.23 99.3516 210.121 98.4902 208.562 96.7676C207.004 95.0449 206.225 92.666 206.225 89.6309V89.1914C206.225 86.2969 206.998 83.9824 208.545 82.248C210.092 80.502 212.201 79.6289 214.873 79.6289C217.135 79.6289 218.975 80.291 220.393 81.6152C221.822 82.9277 222.572 84.6562 222.643 86.8008H218.617C218.57 85.7109 218.195 84.8145 217.492 84.1113C216.801 83.4082 215.916 83.0566 214.838 83.0566C213.455 83.0566 212.389 83.5605 211.639 84.5684C210.889 85.5645 210.508 87.082 210.496 89.1211V89.8066C210.496 91.8691 210.865 93.4102 211.604 94.4297C212.354 95.4375 213.432 95.9414 214.838 95.9414ZM230.412 99H226.141V79.9805H230.412V99ZM225.877 75.041C225.877 74.3848 226.082 73.8398 226.492 73.4062C226.914 72.9727 227.512 72.7559 228.285 72.7559C229.059 72.7559 229.656 72.9727 230.078 73.4062C230.5 73.8398 230.711 74.3848 230.711 75.041C230.711 75.6855 230.5 76.2246 230.078 76.6582C229.656 77.0801 229.059 77.291 228.285 77.291C227.512 77.291 226.914 77.0801 226.492 76.6582C226.082 76.2246 225.877 75.6855 225.877 75.041ZM240.432 75.3574V79.9805H243.789V83.1445H240.432V93.7617C240.432 94.4883 240.572 95.0156 240.854 95.3438C241.146 95.6602 241.662 95.8184 242.4 95.8184C242.893 95.8184 243.391 95.7598 243.895 95.6426V98.9473C242.922 99.2168 241.984 99.3516 241.082 99.3516C237.801 99.3516 236.16 97.541 236.16 93.9199V83.1445H233.031V79.9805H236.16V75.3574H240.432ZM253.721 92.8828L257.588 79.9805H262.141L254.582 101.883C253.422 105.082 251.453 106.682 248.676 106.682C248.055 106.682 247.369 106.576 246.619 106.365V103.061L247.428 103.113C248.506 103.113 249.314 102.914 249.854 102.516C250.404 102.129 250.838 101.473 251.154 100.547L251.77 98.9121L245.09 79.9805H249.695L253.721 92.8828Z" fill="black"/>
<rect x="97" y="54" width="211" height="65" fill="#F2F2F2"/>
<path d="M131.711 97.1367C130.457 98.6133 128.676 99.3516 126.367 99.3516C124.305 99.3516 122.74 98.748 121.674 97.541C120.619 96.334 120.092 94.5879 120.092 92.3027V79.9805H124.363V92.25C124.363 94.6641 125.365 95.8711 127.369 95.8711C129.443 95.8711 130.844 95.127 131.57 93.6387V79.9805H135.842V99H131.816L131.711 97.1367ZM150.854 93.832C150.854 93.0703 150.537 92.4902 149.904 92.0918C149.283 91.6934 148.246 91.3418 146.793 91.0371C145.34 90.7324 144.127 90.3457 143.154 89.877C141.021 88.8457 139.955 87.3516 139.955 85.3945C139.955 83.7539 140.646 82.3828 142.029 81.2812C143.412 80.1797 145.17 79.6289 147.303 79.6289C149.576 79.6289 151.41 80.1914 152.805 81.3164C154.211 82.4414 154.914 83.9004 154.914 85.6934H150.643C150.643 84.873 150.338 84.1934 149.729 83.6543C149.119 83.1035 148.311 82.8281 147.303 82.8281C146.365 82.8281 145.598 83.0449 145 83.4785C144.414 83.9121 144.121 84.4922 144.121 85.2188C144.121 85.875 144.396 86.3848 144.947 86.748C145.498 87.1113 146.611 87.4805 148.287 87.8555C149.963 88.2188 151.275 88.6582 152.225 89.1738C153.186 89.6777 153.895 90.2871 154.352 91.002C154.82 91.7168 155.055 92.584 155.055 93.6035C155.055 95.3145 154.346 96.7031 152.928 97.7695C151.51 98.8242 149.652 99.3516 147.355 99.3516C145.797 99.3516 144.408 99.0703 143.189 98.5078C141.971 97.9453 141.021 97.1719 140.342 96.1875C139.662 95.2031 139.322 94.1426 139.322 93.0059H143.471C143.529 94.0137 143.91 94.793 144.613 95.3438C145.316 95.8828 146.248 96.1523 147.408 96.1523C148.533 96.1523 149.389 95.9414 149.975 95.5195C150.561 95.0859 150.854 94.5234 150.854 93.832ZM167.166 99.3516C164.459 99.3516 162.262 98.502 160.574 96.8027C158.898 95.0918 158.061 92.8184 158.061 89.9824V89.4551C158.061 87.5566 158.424 85.8633 159.15 84.375C159.889 82.875 160.92 81.709 162.244 80.877C163.568 80.0449 165.045 79.6289 166.674 79.6289C169.264 79.6289 171.262 80.4551 172.668 82.1074C174.086 83.7598 174.795 86.0977 174.795 89.1211V90.8438H162.367C162.496 92.4141 163.018 93.6562 163.932 94.5703C164.857 95.4844 166.018 95.9414 167.412 95.9414C169.369 95.9414 170.963 95.1504 172.193 93.5684L174.496 95.7656C173.734 96.9023 172.715 97.7871 171.438 98.4199C170.172 99.041 168.748 99.3516 167.166 99.3516ZM166.656 83.0566C165.484 83.0566 164.535 83.4668 163.809 84.2871C163.094 85.1074 162.637 86.25 162.438 87.7148H170.576V87.3984C170.482 85.9688 170.102 84.8906 169.434 84.1641C168.766 83.4258 167.84 83.0566 166.656 83.0566ZM188.084 83.8828C187.521 83.7891 186.941 83.7422 186.344 83.7422C184.387 83.7422 183.068 84.4922 182.389 85.9922V99H178.117V79.9805H182.195L182.301 82.1074C183.332 80.4551 184.762 79.6289 186.59 79.6289C187.199 79.6289 187.703 79.7109 188.102 79.875L188.084 83.8828ZM204.766 102.357H188.646V99H204.766V102.357ZM214.838 95.9414C215.904 95.9414 216.789 95.6309 217.492 95.0098C218.195 94.3887 218.57 93.6211 218.617 92.707H222.643C222.596 93.8906 222.227 94.998 221.535 96.0293C220.844 97.0488 219.906 97.8574 218.723 98.4551C217.539 99.0527 216.262 99.3516 214.891 99.3516C212.23 99.3516 210.121 98.4902 208.562 96.7676C207.004 95.0449 206.225 92.666 206.225 89.6309V89.1914C206.225 86.2969 206.998 83.9824 208.545 82.248C210.092 80.502 212.201 79.6289 214.873 79.6289C217.135 79.6289 218.975 80.291 220.393 81.6152C221.822 82.9277 222.572 84.6562 222.643 86.8008H218.617C218.57 85.7109 218.195 84.8145 217.492 84.1113C216.801 83.4082 215.916 83.0566 214.838 83.0566C213.455 83.0566 212.389 83.5605 211.639 84.5684C210.889 85.5645 210.508 87.082 210.496 89.1211V89.8066C210.496 91.8691 210.865 93.4102 211.604 94.4297C212.354 95.4375 213.432 95.9414 214.838 95.9414ZM230.412 99H226.141V79.9805H230.412V99ZM225.877 75.041C225.877 74.3848 226.082 73.8398 226.492 73.4062C226.914 72.9727 227.512 72.7559 228.285 72.7559C229.059 72.7559 229.656 72.9727 230.078 73.4062C230.5 73.8398 230.711 74.3848 230.711 75.041C230.711 75.6855 230.5 76.2246 230.078 76.6582C229.656 77.0801 229.059 77.291 228.285 77.291C227.512 77.291 226.914 77.0801 226.492 76.6582C226.082 76.2246 225.877 75.6855 225.877 75.041ZM240.432 75.3574V79.9805H243.789V83.1445H240.432V93.7617C240.432 94.4883 240.572 95.0156 240.854 95.3438C241.146 95.6602 241.662 95.8184 242.4 95.8184C242.893 95.8184 243.391 95.7598 243.895 95.6426V98.9473C242.922 99.2168 241.984 99.3516 241.082 99.3516C237.801 99.3516 236.16 97.541 236.16 93.9199V83.1445H233.031V79.9805H236.16V75.3574H240.432ZM253.721 92.8828L257.588 79.9805H262.141L254.582 101.883C253.422 105.082 251.453 106.682 248.676 106.682C248.055 106.682 247.369 106.576 246.619 106.365V103.061L247.428 103.113C248.506 103.113 249.314 102.914 249.854 102.516C250.404 102.129 250.838 101.473 251.154 100.547L251.77 98.9121L245.09 79.9805H249.695L253.721 92.8828Z" fill="black"/>
<path d="M51.7324 99H47.4609V79.9805H51.7324V99ZM47.1973 75.041C47.1973 74.3848 47.4023 73.8398 47.8125 73.4062C48.2344 72.9727 48.832 72.7559 49.6055 72.7559C50.3789 72.7559 50.9766 72.9727 51.3984 73.4062C51.8203 73.8398 52.0312 74.3848 52.0312 75.041C52.0312 75.6855 51.8203 76.2246 51.3984 76.6582C50.9766 77.0801 50.3789 77.291 49.6055 77.291C48.832 77.291 48.2344 77.0801 47.8125 76.6582C47.4023 76.2246 47.1973 75.6855 47.1973 75.041ZM57.9023 99V83.1445H55.002V79.9805H57.9023V78.2402C57.9023 76.1309 58.4883 74.502 59.6602 73.3535C60.832 72.2051 62.4727 71.6309 64.582 71.6309C65.332 71.6309 66.1289 71.7363 66.9727 71.9473L66.8672 75.2871C66.3984 75.1934 65.8535 75.1465 65.2324 75.1465C63.1934 75.1465 62.1738 76.1953 62.1738 78.293V79.9805H66.041V83.1445H62.1738V99H57.9023Z" fill="#413D3D"/>
<path d="M370.541 177.357V181.98H373.898V185.145H370.541V195.762C370.541 196.488 370.682 197.016 370.963 197.344C371.256 197.66 371.771 197.818 372.51 197.818C373.002 197.818 373.5 197.76 374.004 197.643V200.947C373.031 201.217 372.094 201.352 371.191 201.352C367.91 201.352 366.27 199.541 366.27 195.92V185.145H363.141V181.98H366.27V177.357H370.541ZM381.387 184.055C382.781 182.438 384.545 181.629 386.678 181.629C390.732 181.629 392.789 183.943 392.848 188.572V201H388.576V188.73C388.576 187.418 388.289 186.492 387.715 185.953C387.152 185.402 386.32 185.127 385.219 185.127C383.508 185.127 382.23 185.889 381.387 187.412V201H377.115V174H381.387V184.055ZM405.557 201.352C402.85 201.352 400.652 200.502 398.965 198.803C397.289 197.092 396.451 194.818 396.451 191.982V191.455C396.451 189.557 396.814 187.863 397.541 186.375C398.279 184.875 399.311 183.709 400.635 182.877C401.959 182.045 403.436 181.629 405.064 181.629C407.654 181.629 409.652 182.455 411.059 184.107C412.477 185.76 413.186 188.098 413.186 191.121V192.844H400.758C400.887 194.414 401.408 195.656 402.322 196.57C403.248 197.484 404.408 197.941 405.803 197.941C407.76 197.941 409.354 197.15 410.584 195.568L412.887 197.766C412.125 198.902 411.105 199.787 409.828 200.42C408.562 201.041 407.139 201.352 405.557 201.352ZM405.047 185.057C403.875 185.057 402.926 185.467 402.199 186.287C401.484 187.107 401.027 188.25 400.828 189.715H408.967V189.398C408.873 187.969 408.492 186.891 407.824 186.164C407.156 185.426 406.23 185.057 405.047 185.057ZM420.48 181.98L420.604 184.178C422.01 182.479 423.855 181.629 426.141 181.629C430.102 181.629 432.117 183.896 432.188 188.432V201H427.916V188.678C427.916 187.471 427.652 186.58 427.125 186.006C426.609 185.42 425.76 185.127 424.576 185.127C422.854 185.127 421.57 185.906 420.727 187.465V201H416.455V181.98H420.48ZM456.182 195.832C456.182 195.07 455.865 194.49 455.232 194.092C454.611 193.693 453.574 193.342 452.121 193.037C450.668 192.732 449.455 192.346 448.482 191.877C446.35 190.846 445.283 189.352 445.283 187.395C445.283 185.754 445.975 184.383 447.357 183.281C448.74 182.18 450.498 181.629 452.631 181.629C454.904 181.629 456.738 182.191 458.133 183.316C459.539 184.441 460.242 185.9 460.242 187.693H455.971C455.971 186.873 455.666 186.193 455.057 185.654C454.447 185.104 453.639 184.828 452.631 184.828C451.693 184.828 450.926 185.045 450.328 185.479C449.742 185.912 449.449 186.492 449.449 187.219C449.449 187.875 449.725 188.385 450.275 188.748C450.826 189.111 451.939 189.48 453.615 189.855C455.291 190.219 456.604 190.658 457.553 191.174C458.514 191.678 459.223 192.287 459.68 193.002C460.148 193.717 460.383 194.584 460.383 195.604C460.383 197.314 459.674 198.703 458.256 199.77C456.838 200.824 454.98 201.352 452.684 201.352C451.125 201.352 449.736 201.07 448.518 200.508C447.299 199.945 446.35 199.172 445.67 198.188C444.99 197.203 444.65 196.143 444.65 195.006H448.799C448.857 196.014 449.238 196.793 449.941 197.344C450.645 197.883 451.576 198.152 452.736 198.152C453.861 198.152 454.717 197.941 455.303 197.52C455.889 197.086 456.182 196.523 456.182 195.832ZM472.494 201.352C469.787 201.352 467.59 200.502 465.902 198.803C464.227 197.092 463.389 194.818 463.389 191.982V191.455C463.389 189.557 463.752 187.863 464.479 186.375C465.217 184.875 466.248 183.709 467.572 182.877C468.896 182.045 470.373 181.629 472.002 181.629C474.592 181.629 476.59 182.455 477.996 184.107C479.414 185.76 480.123 188.098 480.123 191.121V192.844H467.695C467.824 194.414 468.346 195.656 469.26 196.57C470.186 197.484 471.346 197.941 472.74 197.941C474.697 197.941 476.291 197.15 477.521 195.568L479.824 197.766C479.062 198.902 478.043 199.787 476.766 200.42C475.5 201.041 474.076 201.352 472.494 201.352ZM471.984 185.057C470.812 185.057 469.863 185.467 469.137 186.287C468.422 187.107 467.965 188.25 467.766 189.715H475.904V189.398C475.811 187.969 475.43 186.891 474.762 186.164C474.094 185.426 473.168 185.057 471.984 185.057ZM493.412 185.883C492.85 185.789 492.27 185.742 491.672 185.742C489.715 185.742 488.396 186.492 487.717 187.992V201H483.445V181.98H487.523L487.629 184.107C488.66 182.455 490.09 181.629 491.918 181.629C492.527 181.629 493.031 181.711 493.43 181.875L493.412 185.883ZM503.133 195.586L507.158 181.98H511.57L504.979 201H501.27L494.625 181.98H499.055L503.133 195.586ZM522.381 201.352C519.674 201.352 517.477 200.502 515.789 198.803C514.113 197.092 513.275 194.818 513.275 191.982V191.455C513.275 189.557 513.639 187.863 514.365 186.375C515.104 184.875 516.135 183.709 517.459 182.877C518.783 182.045 520.26 181.629 521.889 181.629C524.479 181.629 526.477 182.455 527.883 184.107C529.301 185.76 530.01 188.098 530.01 191.121V192.844H517.582C517.711 194.414 518.232 195.656 519.146 196.57C520.072 197.484 521.232 197.941 522.627 197.941C524.584 197.941 526.178 197.15 527.408 195.568L529.711 197.766C528.949 198.902 527.93 199.787 526.652 200.42C525.387 201.041 523.963 201.352 522.381 201.352ZM521.871 185.057C520.699 185.057 519.75 185.467 519.023 186.287C518.309 187.107 517.852 188.25 517.652 189.715H525.791V189.398C525.697 187.969 525.316 186.891 524.648 186.164C523.98 185.426 523.055 185.057 521.871 185.057Z" fill="#413D3D"/>
<line x1="276.376" y1="87.159" x2="283.376" y2="95.159" stroke="#787878"/>
<path d="M291.648 87.2348L283 95.4878" stroke="#787878"/>
<rect x="571" y="156" width="257" height="65" fill="#BFE7DF"/>
<path d="M604.541 177.357V181.98H607.898V185.145H604.541V195.762C604.541 196.488 604.682 197.016 604.963 197.344C605.256 197.66 605.771 197.818 606.51 197.818C607.002 197.818 607.5 197.76 608.004 197.643V200.947C607.031 201.217 606.094 201.352 605.191 201.352C601.91 201.352 600.27 199.541 600.27 195.92V185.145H597.141V181.98H600.27V177.357H604.541ZM621.135 185.883C620.572 185.789 619.992 185.742 619.395 185.742C617.438 185.742 616.119 186.492 615.439 187.992V201H611.168V181.98H615.246L615.352 184.107C616.383 182.455 617.812 181.629 619.641 181.629C620.25 181.629 620.754 181.711 621.152 181.875L621.135 185.883ZM631.857 201.352C629.15 201.352 626.953 200.502 625.266 198.803C623.59 197.092 622.752 194.818 622.752 191.982V191.455C622.752 189.557 623.115 187.863 623.842 186.375C624.58 184.875 625.611 183.709 626.936 182.877C628.26 182.045 629.736 181.629 631.365 181.629C633.955 181.629 635.953 182.455 637.359 184.107C638.777 185.76 639.486 188.098 639.486 191.121V192.844H627.059C627.188 194.414 627.709 195.656 628.623 196.57C629.549 197.484 630.709 197.941 632.104 197.941C634.061 197.941 635.654 197.15 636.885 195.568L639.188 197.766C638.426 198.902 637.406 199.787 636.129 200.42C634.863 201.041 633.439 201.352 631.857 201.352ZM631.348 185.057C630.176 185.057 629.227 185.467 628.5 186.287C627.785 187.107 627.328 188.25 627.129 189.715H635.268V189.398C635.174 187.969 634.793 186.891 634.125 186.164C633.457 185.426 632.531 185.057 631.348 185.057ZM654.182 201C653.994 200.637 653.83 200.045 653.689 199.225C652.33 200.643 650.666 201.352 648.697 201.352C646.787 201.352 645.229 200.807 644.021 199.717C642.814 198.627 642.211 197.279 642.211 195.674C642.211 193.646 642.961 192.094 644.461 191.016C645.973 189.926 648.129 189.381 650.93 189.381H653.549V188.133C653.549 187.148 653.273 186.363 652.723 185.777C652.172 185.18 651.334 184.881 650.209 184.881C649.236 184.881 648.439 185.127 647.818 185.619C647.197 186.1 646.887 186.715 646.887 187.465H642.615C642.615 186.422 642.961 185.449 643.652 184.547C644.344 183.633 645.281 182.918 646.465 182.402C647.66 181.887 648.99 181.629 650.455 181.629C652.682 181.629 654.457 182.191 655.781 183.316C657.105 184.43 657.785 186 657.82 188.027V196.605C657.82 198.316 658.061 199.682 658.541 200.701V201H654.182ZM649.488 197.924C650.332 197.924 651.123 197.719 651.861 197.309C652.611 196.898 653.174 196.348 653.549 195.656V192.07H651.246C649.664 192.07 648.475 192.346 647.678 192.896C646.881 193.447 646.482 194.227 646.482 195.234C646.482 196.055 646.752 196.711 647.291 197.203C647.842 197.684 648.574 197.924 649.488 197.924ZM667.646 177.357V181.98H671.004V185.145H667.646V195.762C667.646 196.488 667.787 197.016 668.068 197.344C668.361 197.66 668.877 197.818 669.615 197.818C670.107 197.818 670.605 197.76 671.109 197.643V200.947C670.137 201.217 669.199 201.352 668.297 201.352C665.016 201.352 663.375 199.541 663.375 195.92V185.145H660.246V181.98H663.375V177.357H667.646ZM678.299 181.98L678.422 183.967C679.758 182.408 681.586 181.629 683.906 181.629C686.449 181.629 688.189 182.602 689.127 184.547C690.51 182.602 692.455 181.629 694.963 181.629C697.061 181.629 698.619 182.209 699.639 183.369C700.67 184.529 701.197 186.24 701.221 188.502V201H696.949V188.625C696.949 187.418 696.686 186.533 696.158 185.971C695.631 185.408 694.758 185.127 693.539 185.127C692.566 185.127 691.77 185.391 691.148 185.918C690.539 186.434 690.111 187.113 689.865 187.957L689.883 201H685.611V188.484C685.553 186.246 684.41 185.127 682.184 185.127C680.473 185.127 679.26 185.824 678.545 187.219V201H674.273V181.98H678.299ZM713.982 201.352C711.275 201.352 709.078 200.502 707.391 198.803C705.715 197.092 704.877 194.818 704.877 191.982V191.455C704.877 189.557 705.24 187.863 705.967 186.375C706.705 184.875 707.736 183.709 709.061 182.877C710.385 182.045 711.861 181.629 713.49 181.629C716.08 181.629 718.078 182.455 719.484 184.107C720.902 185.76 721.611 188.098 721.611 191.121V192.844H709.184C709.312 194.414 709.834 195.656 710.748 196.57C711.674 197.484 712.834 197.941 714.229 197.941C716.186 197.941 717.779 197.15 719.01 195.568L721.312 197.766C720.551 198.902 719.531 199.787 718.254 200.42C716.988 201.041 715.564 201.352 713.982 201.352ZM713.473 185.057C712.301 185.057 711.352 185.467 710.625 186.287C709.91 187.107 709.453 188.25 709.254 189.715H717.393V189.398C717.299 187.969 716.918 186.891 716.25 186.164C715.582 185.426 714.656 185.057 713.473 185.057ZM728.906 181.98L729.029 184.178C730.436 182.479 732.281 181.629 734.566 181.629C738.527 181.629 740.543 183.896 740.613 188.432V201H736.342V188.678C736.342 187.471 736.078 186.58 735.551 186.006C735.035 185.42 734.186 185.127 733.002 185.127C731.279 185.127 729.996 185.906 729.152 187.465V201H724.881V181.98H728.906ZM750.334 177.357V181.98H753.691V185.145H750.334V195.762C750.334 196.488 750.475 197.016 750.756 197.344C751.049 197.66 751.564 197.818 752.303 197.818C752.795 197.818 753.293 197.76 753.797 197.643V200.947C752.824 201.217 751.887 201.352 750.984 201.352C747.703 201.352 746.062 199.541 746.062 195.92V185.145H742.934V181.98H746.062V177.357H750.334Z" fill="black"/>
<line y1="-0.5" x2="11.6916" y2="-0.5" transform="matrix(0.729246 0.684251 -0.812156 0.583441 789.024 189.488)" stroke="#787878"/>
<path d="M808.083 189.235L797.55 197.488" stroke="#787878"/>
<rect x="359" y="54" width="172" height="65" fill="#F2F2F2"/>
<rect x="571.5" y="54.5" width="256" height="64" fill="white" stroke="#CECECE"/>
<path d="M389.564 99.3516C386.857 99.3516 384.66 98.502 382.973 96.8027C381.297 95.0918 380.459 92.8184 380.459 89.9824V89.4551C380.459 87.5566 380.822 85.8633 381.549 84.375C382.287 82.875 383.318 81.709 384.643 80.877C385.967 80.0449 387.443 79.6289 389.072 79.6289C391.662 79.6289 393.66 80.4551 395.066 82.1074C396.484 83.7598 397.193 86.0977 397.193 89.1211V90.8438H384.766C384.895 92.4141 385.416 93.6562 386.33 94.5703C387.256 95.4844 388.416 95.9414 389.811 95.9414C391.768 95.9414 393.361 95.1504 394.592 93.5684L396.895 95.7656C396.133 96.9023 395.113 97.7871 393.836 98.4199C392.57 99.041 391.146 99.3516 389.564 99.3516ZM389.055 83.0566C387.883 83.0566 386.934 83.4668 386.207 84.2871C385.492 85.1074 385.035 86.25 384.836 87.7148H392.975V87.3984C392.881 85.9688 392.5 84.8906 391.832 84.1641C391.164 83.4258 390.238 83.0566 389.055 83.0566ZM399.725 89.332C399.725 86.3555 400.404 83.9941 401.764 82.248C403.123 80.502 404.963 79.6289 407.283 79.6289C409.404 79.6289 411.086 80.373 412.328 81.8613L412.574 79.9805H416.371V106.312H412.1V97.3828C410.857 98.6953 409.24 99.3516 407.248 99.3516C404.975 99.3516 403.152 98.4668 401.781 96.6973C400.41 94.916 399.725 92.4609 399.725 89.332ZM403.996 89.7012C403.996 91.6465 404.377 93.1758 405.139 94.2891C405.912 95.3906 406.979 95.9414 408.338 95.9414C410.025 95.9414 411.279 95.2207 412.1 93.7793V85.1309C411.279 83.748 410.037 83.0566 408.373 83.0566C407.014 83.0566 405.941 83.6016 405.156 84.6914C404.383 85.7812 403.996 87.4512 403.996 89.7012ZM432.508 97.1367C431.254 98.6133 429.473 99.3516 427.164 99.3516C425.102 99.3516 423.537 98.748 422.471 97.541C421.416 96.334 420.889 94.5879 420.889 92.3027V79.9805H425.16V92.25C425.16 94.6641 426.162 95.8711 428.166 95.8711C430.24 95.8711 431.641 95.127 432.367 93.6387V79.9805H436.639V99H432.613L432.508 97.1367ZM452.354 99C452.166 98.6367 452.002 98.0449 451.861 97.2246C450.502 98.6426 448.838 99.3516 446.869 99.3516C444.959 99.3516 443.4 98.8066 442.193 97.7168C440.986 96.627 440.383 95.2793 440.383 93.6738C440.383 91.6465 441.133 90.0938 442.633 89.0156C444.145 87.9258 446.301 87.3809 449.102 87.3809H451.721V86.1328C451.721 85.1484 451.445 84.3633 450.895 83.7773C450.344 83.1797 449.506 82.8809 448.381 82.8809C447.408 82.8809 446.611 83.127 445.99 83.6191C445.369 84.0996 445.059 84.7148 445.059 85.4648H440.787C440.787 84.4219 441.133 83.4492 441.824 82.5469C442.516 81.6328 443.453 80.918 444.637 80.4023C445.832 79.8867 447.162 79.6289 448.627 79.6289C450.854 79.6289 452.629 80.1914 453.953 81.3164C455.277 82.4297 455.957 84 455.992 86.0273V94.6055C455.992 96.3164 456.232 97.6816 456.713 98.7012V99H452.354ZM447.66 95.9238C448.504 95.9238 449.295 95.7188 450.033 95.3086C450.783 94.8984 451.346 94.3477 451.721 93.6562V90.0703H449.418C447.836 90.0703 446.646 90.3457 445.85 90.8965C445.053 91.4473 444.654 92.2266 444.654 93.2344C444.654 94.0547 444.924 94.7109 445.463 95.2031C446.014 95.6836 446.746 95.9238 447.66 95.9238ZM465.01 99H460.738V72H465.01V99ZM480.338 93.832C480.338 93.0703 480.021 92.4902 479.389 92.0918C478.768 91.6934 477.73 91.3418 476.277 91.0371C474.824 90.7324 473.611 90.3457 472.639 89.877C470.506 88.8457 469.439 87.3516 469.439 85.3945C469.439 83.7539 470.131 82.3828 471.514 81.2812C472.896 80.1797 474.654 79.6289 476.787 79.6289C479.061 79.6289 480.895 80.1914 482.289 81.3164C483.695 82.4414 484.398 83.9004 484.398 85.6934H480.127C480.127 84.873 479.822 84.1934 479.213 83.6543C478.604 83.1035 477.795 82.8281 476.787 82.8281C475.85 82.8281 475.082 83.0449 474.484 83.4785C473.898 83.9121 473.605 84.4922 473.605 85.2188C473.605 85.875 473.881 86.3848 474.432 86.748C474.982 87.1113 476.096 87.4805 477.771 87.8555C479.447 88.2188 480.76 88.6582 481.709 89.1738C482.67 89.6777 483.379 90.2871 483.836 91.002C484.305 91.7168 484.539 92.584 484.539 93.6035C484.539 95.3145 483.83 96.7031 482.412 97.7695C480.994 98.8242 479.137 99.3516 476.84 99.3516C475.281 99.3516 473.893 99.0703 472.674 98.5078C471.455 97.9453 470.506 97.1719 469.826 96.1875C469.146 95.2031 468.807 94.1426 468.807 93.0059H472.955C473.014 94.0137 473.395 94.793 474.098 95.3438C474.801 95.8828 475.732 96.1523 476.893 96.1523C478.018 96.1523 478.873 95.9414 479.459 95.5195C480.045 95.0859 480.338 94.5234 480.338 93.832Z" fill="black"/>
<path d="M598.541 75.3574V79.9805H601.898V83.1445H598.541V93.7617C598.541 94.4883 598.682 95.0156 598.963 95.3438C599.256 95.6602 599.771 95.8184 600.51 95.8184C601.002 95.8184 601.5 95.7598 602.004 95.6426V98.9473C601.031 99.2168 600.094 99.3516 599.191 99.3516C595.91 99.3516 594.27 97.541 594.27 93.9199V83.1445H591.141V79.9805H594.27V75.3574H598.541ZM603.85 89.3145C603.85 87.4512 604.219 85.7754 604.957 84.2871C605.695 82.7871 606.732 81.6387 608.068 80.8418C609.404 80.0332 610.939 79.6289 612.674 79.6289C615.24 79.6289 617.32 80.4551 618.914 82.1074C620.52 83.7598 621.387 85.9512 621.516 88.6816L621.533 89.6836C621.533 91.5586 621.17 93.2344 620.443 94.7109C619.729 96.1875 618.697 97.3301 617.35 98.1387C616.014 98.9473 614.467 99.3516 612.709 99.3516C610.025 99.3516 607.875 98.4609 606.258 96.6797C604.652 94.8867 603.85 92.502 603.85 89.5254V89.3145ZM608.121 89.6836C608.121 91.6406 608.525 93.1758 609.334 94.2891C610.143 95.3906 611.268 95.9414 612.709 95.9414C614.15 95.9414 615.27 95.3789 616.066 94.2539C616.875 93.1289 617.279 91.4824 617.279 89.3145C617.279 87.3926 616.863 85.8691 616.031 84.7441C615.211 83.6191 614.092 83.0566 612.674 83.0566C611.279 83.0566 610.172 83.6133 609.352 84.7266C608.531 85.8281 608.121 87.4805 608.121 89.6836ZM631.324 90.8438L629.426 92.7949V99H625.154V72H629.426V87.5742L630.762 85.9043L636.018 79.9805H641.15L634.084 87.9082L641.906 99H636.967L631.324 90.8438ZM650.607 92.8828L654.475 79.9805H659.027L651.469 101.883C650.309 105.082 648.34 106.682 645.562 106.682C644.941 106.682 644.256 106.576 643.506 106.365V103.061L644.314 103.113C645.393 103.113 646.201 102.914 646.74 102.516C647.291 102.129 647.725 101.473 648.041 100.547L648.656 98.9121L641.977 79.9805H646.582L650.607 92.8828ZM660.416 89.3145C660.416 87.4512 660.785 85.7754 661.523 84.2871C662.262 82.7871 663.299 81.6387 664.635 80.8418C665.971 80.0332 667.506 79.6289 669.24 79.6289C671.807 79.6289 673.887 80.4551 675.48 82.1074C677.086 83.7598 677.953 85.9512 678.082 88.6816L678.1 89.6836C678.1 91.5586 677.736 93.2344 677.01 94.7109C676.295 96.1875 675.264 97.3301 673.916 98.1387C672.58 98.9473 671.033 99.3516 669.275 99.3516C666.592 99.3516 664.441 98.4609 662.824 96.6797C661.219 94.8867 660.416 92.502 660.416 89.5254V89.3145ZM664.688 89.6836C664.688 91.6406 665.092 93.1758 665.9 94.2891C666.709 95.3906 667.834 95.9414 669.275 95.9414C670.717 95.9414 671.836 95.3789 672.633 94.2539C673.441 93.1289 673.846 91.4824 673.846 89.3145C673.846 87.3926 673.43 85.8691 672.598 84.7441C671.777 83.6191 670.658 83.0566 669.24 83.0566C667.846 83.0566 666.738 83.6133 665.918 84.7266C665.098 85.8281 664.688 87.4805 664.688 89.6836Z" fill="black"/>
<line x1="499.376" y1="87.159" x2="506.376" y2="95.159" stroke="#787878"/>
<path d="M514.648 87.2348L506 95.4878" stroke="#787878"/>
<rect x="97" y="248" width="188" height="65" fill="#C4C4C4"/>
<path d="M131.711 291.137C130.457 292.613 128.676 293.352 126.367 293.352C124.305 293.352 122.74 292.748 121.674 291.541C120.619 290.334 120.092 288.588 120.092 286.303V273.98H124.363V286.25C124.363 288.664 125.365 289.871 127.369 289.871C129.443 289.871 130.844 289.127 131.57 287.639V273.98H135.842V293H131.816L131.711 291.137ZM150.854 287.832C150.854 287.07 150.537 286.49 149.904 286.092C149.283 285.693 148.246 285.342 146.793 285.037C145.34 284.732 144.127 284.346 143.154 283.877C141.021 282.846 139.955 281.352 139.955 279.395C139.955 277.754 140.646 276.383 142.029 275.281C143.412 274.18 145.17 273.629 147.303 273.629C149.576 273.629 151.41 274.191 152.805 275.316C154.211 276.441 154.914 277.9 154.914 279.693H150.643C150.643 278.873 150.338 278.193 149.729 277.654C149.119 277.104 148.311 276.828 147.303 276.828C146.365 276.828 145.598 277.045 145 277.479C144.414 277.912 144.121 278.492 144.121 279.219C144.121 279.875 144.396 280.385 144.947 280.748C145.498 281.111 146.611 281.48 148.287 281.855C149.963 282.219 151.275 282.658 152.225 283.174C153.186 283.678 153.895 284.287 154.352 285.002C154.82 285.717 155.055 286.584 155.055 287.604C155.055 289.314 154.346 290.703 152.928 291.77C151.51 292.824 149.652 293.352 147.355 293.352C145.797 293.352 144.408 293.07 143.189 292.508C141.971 291.945 141.021 291.172 140.342 290.188C139.662 289.203 139.322 288.143 139.322 287.006H143.471C143.529 288.014 143.91 288.793 144.613 289.344C145.316 289.883 146.248 290.152 147.408 290.152C148.533 290.152 149.389 289.941 149.975 289.52C150.561 289.086 150.854 288.523 150.854 287.832ZM167.166 293.352C164.459 293.352 162.262 292.502 160.574 290.803C158.898 289.092 158.061 286.818 158.061 283.982V283.455C158.061 281.557 158.424 279.863 159.15 278.375C159.889 276.875 160.92 275.709 162.244 274.877C163.568 274.045 165.045 273.629 166.674 273.629C169.264 273.629 171.262 274.455 172.668 276.107C174.086 277.76 174.795 280.098 174.795 283.121V284.844H162.367C162.496 286.414 163.018 287.656 163.932 288.57C164.857 289.484 166.018 289.941 167.412 289.941C169.369 289.941 170.963 289.15 172.193 287.568L174.496 289.766C173.734 290.902 172.715 291.787 171.438 292.42C170.172 293.041 168.748 293.352 167.166 293.352ZM166.656 277.057C165.484 277.057 164.535 277.467 163.809 278.287C163.094 279.107 162.637 280.25 162.438 281.715H170.576V281.398C170.482 279.969 170.102 278.891 169.434 278.164C168.766 277.426 167.84 277.057 166.656 277.057ZM188.084 277.883C187.521 277.789 186.941 277.742 186.344 277.742C184.387 277.742 183.068 278.492 182.389 279.992V293H178.117V273.98H182.195L182.301 276.107C183.332 274.455 184.762 273.629 186.59 273.629C187.199 273.629 187.703 273.711 188.102 273.875L188.084 277.883ZM204.766 296.357H188.646V293H204.766V296.357ZM214.838 289.941C215.904 289.941 216.789 289.631 217.492 289.01C218.195 288.389 218.57 287.621 218.617 286.707H222.643C222.596 287.891 222.227 288.998 221.535 290.029C220.844 291.049 219.906 291.857 218.723 292.455C217.539 293.053 216.262 293.352 214.891 293.352C212.23 293.352 210.121 292.49 208.562 290.768C207.004 289.045 206.225 286.666 206.225 283.631V283.191C206.225 280.297 206.998 277.982 208.545 276.248C210.092 274.502 212.201 273.629 214.873 273.629C217.135 273.629 218.975 274.291 220.393 275.615C221.822 276.928 222.572 278.656 222.643 280.801H218.617C218.57 279.711 218.195 278.814 217.492 278.111C216.801 277.408 215.916 277.057 214.838 277.057C213.455 277.057 212.389 277.561 211.639 278.568C210.889 279.564 210.508 281.082 210.496 283.121V283.807C210.496 285.869 210.865 287.41 211.604 288.43C212.354 289.438 213.432 289.941 214.838 289.941ZM230.412 293H226.141V273.98H230.412V293ZM225.877 269.041C225.877 268.385 226.082 267.84 226.492 267.406C226.914 266.973 227.512 266.756 228.285 266.756C229.059 266.756 229.656 266.973 230.078 267.406C230.5 267.84 230.711 268.385 230.711 269.041C230.711 269.686 230.5 270.225 230.078 270.658C229.656 271.08 229.059 271.291 228.285 271.291C227.512 271.291 226.914 271.08 226.492 270.658C226.082 270.225 225.877 269.686 225.877 269.041ZM240.432 269.357V273.98H243.789V277.145H240.432V287.762C240.432 288.488 240.572 289.016 240.854 289.344C241.146 289.66 241.662 289.818 242.4 289.818C242.893 289.818 243.391 289.76 243.895 289.643V292.947C242.922 293.217 241.984 293.352 241.082 293.352C237.801 293.352 236.16 291.541 236.16 287.92V277.145H233.031V273.98H236.16V269.357H240.432ZM253.721 286.883L257.588 273.98H262.141L254.582 295.883C253.422 299.082 251.453 300.682 248.676 300.682C248.055 300.682 247.369 300.576 246.619 300.365V297.061L247.428 297.113C248.506 297.113 249.314 296.914 249.854 296.516C250.404 296.129 250.838 295.473 251.154 294.547L251.77 292.912L245.09 273.98H249.695L253.721 286.883Z" fill="black"/>
<rect x="97" y="248" width="211" height="65" fill="#F2F2F2"/>
<path d="M131.553 293C131.365 292.637 131.201 292.045 131.061 291.225C129.701 292.643 128.037 293.352 126.068 293.352C124.158 293.352 122.6 292.807 121.393 291.717C120.186 290.627 119.582 289.279 119.582 287.674C119.582 285.646 120.332 284.094 121.832 283.016C123.344 281.926 125.5 281.381 128.301 281.381H130.92V280.133C130.92 279.148 130.645 278.363 130.094 277.777C129.543 277.18 128.705 276.881 127.58 276.881C126.607 276.881 125.811 277.127 125.189 277.619C124.568 278.1 124.258 278.715 124.258 279.465H119.986C119.986 278.422 120.332 277.449 121.023 276.547C121.715 275.633 122.652 274.918 123.836 274.402C125.031 273.887 126.361 273.629 127.826 273.629C130.053 273.629 131.828 274.191 133.152 275.316C134.477 276.43 135.156 278 135.191 280.027V288.605C135.191 290.316 135.432 291.682 135.912 292.701V293H131.553ZM126.859 289.924C127.703 289.924 128.494 289.719 129.232 289.309C129.982 288.898 130.545 288.348 130.92 287.656V284.07H128.617C127.035 284.07 125.846 284.346 125.049 284.896C124.252 285.447 123.854 286.227 123.854 287.234C123.854 288.055 124.123 288.711 124.662 289.203C125.213 289.684 125.945 289.924 126.859 289.924ZM138.918 283.35C138.918 280.396 139.609 278.041 140.992 276.283C142.387 274.514 144.232 273.629 146.529 273.629C148.697 273.629 150.402 274.385 151.645 275.896L151.838 273.98H155.688V292.42C155.688 294.916 154.908 296.885 153.35 298.326C151.803 299.768 149.711 300.488 147.074 300.488C145.68 300.488 144.314 300.195 142.979 299.609C141.654 299.035 140.646 298.279 139.955 297.342L141.977 294.775C143.289 296.334 144.906 297.113 146.828 297.113C148.246 297.113 149.365 296.727 150.186 295.953C151.006 295.191 151.416 294.066 151.416 292.578V291.295C150.186 292.666 148.545 293.352 146.494 293.352C144.268 293.352 142.445 292.467 141.027 290.697C139.621 288.928 138.918 286.479 138.918 283.35ZM143.172 283.719C143.172 285.629 143.559 287.135 144.332 288.236C145.117 289.326 146.201 289.871 147.584 289.871C149.307 289.871 150.584 289.133 151.416 287.656V279.289C150.607 277.848 149.342 277.127 147.619 277.127C146.213 277.127 145.117 277.684 144.332 278.797C143.559 279.91 143.172 281.551 143.172 283.719ZM168.467 293.352C165.76 293.352 163.562 292.502 161.875 290.803C160.199 289.092 159.361 286.818 159.361 283.982V283.455C159.361 281.557 159.725 279.863 160.451 278.375C161.189 276.875 162.221 275.709 163.545 274.877C164.869 274.045 166.346 273.629 167.975 273.629C170.564 273.629 172.562 274.455 173.969 276.107C175.387 277.76 176.096 280.098 176.096 283.121V284.844H163.668C163.797 286.414 164.318 287.656 165.232 288.57C166.158 289.484 167.318 289.941 168.713 289.941C170.67 289.941 172.264 289.15 173.494 287.568L175.797 289.766C175.035 290.902 174.016 291.787 172.738 292.42C171.473 293.041 170.049 293.352 168.467 293.352ZM167.957 277.057C166.785 277.057 165.836 277.467 165.109 278.287C164.395 279.107 163.938 280.25 163.738 281.715H171.877V281.398C171.783 279.969 171.402 278.891 170.734 278.164C170.066 277.426 169.141 277.057 167.957 277.057Z" fill="black"/>
<path d="M51.7324 293H47.4609V273.98H51.7324V293ZM47.1973 269.041C47.1973 268.385 47.4023 267.84 47.8125 267.406C48.2344 266.973 48.832 266.756 49.6055 266.756C50.3789 266.756 50.9766 266.973 51.3984 267.406C51.8203 267.84 52.0312 268.385 52.0312 269.041C52.0312 269.686 51.8203 270.225 51.3984 270.658C50.9766 271.08 50.3789 271.291 49.6055 271.291C48.832 271.291 48.2344 271.08 47.8125 270.658C47.4023 270.225 47.1973 269.686 47.1973 269.041ZM57.9023 293V277.145H55.002V273.98H57.9023V272.24C57.9023 270.131 58.4883 268.502 59.6602 267.354C60.832 266.205 62.4727 265.631 64.582 265.631C65.332 265.631 66.1289 265.736 66.9727 265.947L66.8672 269.287C66.3984 269.193 65.8535 269.146 65.2324 269.146C63.1934 269.146 62.1738 270.195 62.1738 272.293V273.98H66.041V277.145H62.1738V293H57.9023Z" fill="#413D3D"/>
<path d="M370.541 371.357V375.98H373.898V379.145H370.541V389.762C370.541 390.488 370.682 391.016 370.963 391.344C371.256 391.66 371.771 391.818 372.51 391.818C373.002 391.818 373.5 391.76 374.004 391.643V394.947C373.031 395.217 372.094 395.352 371.191 395.352C367.91 395.352 366.27 393.541 366.27 389.92V379.145H363.141V375.98H366.27V371.357H370.541ZM381.387 378.055C382.781 376.438 384.545 375.629 386.678 375.629C390.732 375.629 392.789 377.943 392.848 382.572V395H388.576V382.73C388.576 381.418 388.289 380.492 387.715 379.953C387.152 379.402 386.32 379.127 385.219 379.127C383.508 379.127 382.23 379.889 381.387 381.412V395H377.115V368H381.387V378.055ZM405.557 395.352C402.85 395.352 400.652 394.502 398.965 392.803C397.289 391.092 396.451 388.818 396.451 385.982V385.455C396.451 383.557 396.814 381.863 397.541 380.375C398.279 378.875 399.311 377.709 400.635 376.877C401.959 376.045 403.436 375.629 405.064 375.629C407.654 375.629 409.652 376.455 411.059 378.107C412.477 379.76 413.186 382.098 413.186 385.121V386.844H400.758C400.887 388.414 401.408 389.656 402.322 390.57C403.248 391.484 404.408 391.941 405.803 391.941C407.76 391.941 409.354 391.15 410.584 389.568L412.887 391.766C412.125 392.902 411.105 393.787 409.828 394.42C408.562 395.041 407.139 395.352 405.557 395.352ZM405.047 379.057C403.875 379.057 402.926 379.467 402.199 380.287C401.484 381.107 401.027 382.25 400.828 383.715H408.967V383.398C408.873 381.969 408.492 380.891 407.824 380.164C407.156 379.426 406.23 379.057 405.047 379.057ZM420.48 375.98L420.604 378.178C422.01 376.479 423.855 375.629 426.141 375.629C430.102 375.629 432.117 377.896 432.188 382.432V395H427.916V382.678C427.916 381.471 427.652 380.58 427.125 380.006C426.609 379.42 425.76 379.127 424.576 379.127C422.854 379.127 421.57 379.906 420.727 381.465V395H416.455V375.98H420.48ZM456.182 389.832C456.182 389.07 455.865 388.49 455.232 388.092C454.611 387.693 453.574 387.342 452.121 387.037C450.668 386.732 449.455 386.346 448.482 385.877C446.35 384.846 445.283 383.352 445.283 381.395C445.283 379.754 445.975 378.383 447.357 377.281C448.74 376.18 450.498 375.629 452.631 375.629C454.904 375.629 456.738 376.191 458.133 377.316C459.539 378.441 460.242 379.9 460.242 381.693H455.971C455.971 380.873 455.666 380.193 455.057 379.654C454.447 379.104 453.639 378.828 452.631 378.828C451.693 378.828 450.926 379.045 450.328 379.479C449.742 379.912 449.449 380.492 449.449 381.219C449.449 381.875 449.725 382.385 450.275 382.748C450.826 383.111 451.939 383.48 453.615 383.855C455.291 384.219 456.604 384.658 457.553 385.174C458.514 385.678 459.223 386.287 459.68 387.002C460.148 387.717 460.383 388.584 460.383 389.604C460.383 391.314 459.674 392.703 458.256 393.77C456.838 394.824 454.98 395.352 452.684 395.352C451.125 395.352 449.736 395.07 448.518 394.508C447.299 393.945 446.35 393.172 445.67 392.188C444.99 391.203 444.65 390.143 444.65 389.006H448.799C448.857 390.014 449.238 390.793 449.941 391.344C450.645 391.883 451.576 392.152 452.736 392.152C453.861 392.152 454.717 391.941 455.303 391.52C455.889 391.086 456.182 390.523 456.182 389.832ZM472.494 395.352C469.787 395.352 467.59 394.502 465.902 392.803C464.227 391.092 463.389 388.818 463.389 385.982V385.455C463.389 383.557 463.752 381.863 464.479 380.375C465.217 378.875 466.248 377.709 467.572 376.877C468.896 376.045 470.373 375.629 472.002 375.629C474.592 375.629 476.59 376.455 477.996 378.107C479.414 379.76 480.123 382.098 480.123 385.121V386.844H467.695C467.824 388.414 468.346 389.656 469.26 390.57C470.186 391.484 471.346 391.941 472.74 391.941C474.697 391.941 476.291 391.15 477.521 389.568L479.824 391.766C479.062 392.902 478.043 393.787 476.766 394.42C475.5 395.041 474.076 395.352 472.494 395.352ZM471.984 379.057C470.812 379.057 469.863 379.467 469.137 380.287C468.422 381.107 467.965 382.25 467.766 383.715H475.904V383.398C475.811 381.969 475.43 380.891 474.762 380.164C474.094 379.426 473.168 379.057 471.984 379.057ZM493.412 379.883C492.85 379.789 492.27 379.742 491.672 379.742C489.715 379.742 488.396 380.492 487.717 381.992V395H483.445V375.98H487.523L487.629 378.107C488.66 376.455 490.09 375.629 491.918 375.629C492.527 375.629 493.031 375.711 493.43 375.875L493.412 379.883ZM503.133 389.586L507.158 375.98H511.57L504.979 395H501.27L494.625 375.98H499.055L503.133 389.586ZM522.381 395.352C519.674 395.352 517.477 394.502 515.789 392.803C514.113 391.092 513.275 388.818 513.275 385.982V385.455C513.275 383.557 513.639 381.863 514.365 380.375C515.104 378.875 516.135 377.709 517.459 376.877C518.783 376.045 520.26 375.629 521.889 375.629C524.479 375.629 526.477 376.455 527.883 378.107C529.301 379.76 530.01 382.098 530.01 385.121V386.844H517.582C517.711 388.414 518.232 389.656 519.146 390.57C520.072 391.484 521.232 391.941 522.627 391.941C524.584 391.941 526.178 391.15 527.408 389.568L529.711 391.766C528.949 392.902 527.93 393.787 526.652 394.42C525.387 395.041 523.963 395.352 522.381 395.352ZM521.871 379.057C520.699 379.057 519.75 379.467 519.023 380.287C518.309 381.107 517.852 382.25 517.652 383.715H525.791V383.398C525.697 381.969 525.316 380.891 524.648 380.164C523.98 379.426 523.055 379.057 521.871 379.057Z" fill="#413D3D"/>
<line x1="276.376" y1="281.159" x2="283.376" y2="289.159" stroke="#787878"/>
<path d="M291.648 281.235L283 289.488" stroke="#787878"/>
<rect x="571" y="350" width="257" height="65" fill="#FFEAB3"/>
<path d="M607.002 391.941C608.068 391.941 608.953 391.631 609.656 391.01C610.359 390.389 610.734 389.621 610.781 388.707H614.807C614.76 389.891 614.391 390.998 613.699 392.029C613.008 393.049 612.07 393.857 610.887 394.455C609.703 395.053 608.426 395.352 607.055 395.352C604.395 395.352 602.285 394.49 600.727 392.768C599.168 391.045 598.389 388.666 598.389 385.631V385.191C598.389 382.297 599.162 379.982 600.709 378.248C602.256 376.502 604.365 375.629 607.037 375.629C609.299 375.629 611.139 376.291 612.557 377.615C613.986 378.928 614.736 380.656 614.807 382.801H610.781C610.734 381.711 610.359 380.814 609.656 380.111C608.965 379.408 608.08 379.057 607.002 379.057C605.619 379.057 604.553 379.561 603.803 380.568C603.053 381.564 602.672 383.082 602.66 385.121V385.807C602.66 387.869 603.029 389.41 603.768 390.43C604.518 391.438 605.596 391.941 607.002 391.941ZM617.232 385.314C617.232 383.451 617.602 381.775 618.34 380.287C619.078 378.787 620.115 377.639 621.451 376.842C622.787 376.033 624.322 375.629 626.057 375.629C628.623 375.629 630.703 376.455 632.297 378.107C633.902 379.76 634.77 381.951 634.898 384.682L634.916 385.684C634.916 387.559 634.553 389.234 633.826 390.711C633.111 392.188 632.08 393.33 630.732 394.139C629.396 394.947 627.85 395.352 626.092 395.352C623.408 395.352 621.258 394.461 619.641 392.68C618.035 390.887 617.232 388.502 617.232 385.525V385.314ZM621.504 385.684C621.504 387.641 621.908 389.176 622.717 390.289C623.525 391.391 624.65 391.941 626.092 391.941C627.533 391.941 628.652 391.379 629.449 390.254C630.258 389.129 630.662 387.482 630.662 385.314C630.662 383.393 630.246 381.869 629.414 380.744C628.594 379.619 627.475 379.057 626.057 379.057C624.662 379.057 623.555 379.613 622.734 380.727C621.914 381.828 621.504 383.48 621.504 385.684ZM642.492 375.98L642.615 378.178C644.021 376.479 645.867 375.629 648.152 375.629C652.113 375.629 654.129 377.896 654.199 382.432V395H649.928V382.678C649.928 381.471 649.664 380.58 649.137 380.006C648.621 379.42 647.771 379.127 646.588 379.127C644.865 379.127 643.582 379.906 642.738 381.465V395H638.467V375.98H642.492ZM663.92 371.357V375.98H667.277V379.145H663.92V389.762C663.92 390.488 664.061 391.016 664.342 391.344C664.635 391.66 665.15 391.818 665.889 391.818C666.381 391.818 666.879 391.76 667.383 391.643V394.947C666.41 395.217 665.473 395.352 664.57 395.352C661.289 395.352 659.648 393.541 659.648 389.92V379.145H656.52V375.98H659.648V371.357H663.92ZM680.514 379.883C679.951 379.789 679.371 379.742 678.773 379.742C676.816 379.742 675.498 380.492 674.818 381.992V395H670.547V375.98H674.625L674.73 378.107C675.762 376.455 677.191 375.629 679.02 375.629C679.629 375.629 680.133 375.711 680.531 375.875L680.514 379.883ZM681.779 385.314C681.779 383.451 682.148 381.775 682.887 380.287C683.625 378.787 684.662 377.639 685.998 376.842C687.334 376.033 688.869 375.629 690.604 375.629C693.17 375.629 695.25 376.455 696.844 378.107C698.449 379.76 699.316 381.951 699.445 384.682L699.463 385.684C699.463 387.559 699.1 389.234 698.373 390.711C697.658 392.188 696.627 393.33 695.279 394.139C693.943 394.947 692.396 395.352 690.639 395.352C687.955 395.352 685.805 394.461 684.188 392.68C682.582 390.887 681.779 388.502 681.779 385.525V385.314ZM686.051 385.684C686.051 387.641 686.455 389.176 687.264 390.289C688.072 391.391 689.197 391.941 690.639 391.941C692.08 391.941 693.199 391.379 693.996 390.254C694.805 389.129 695.209 387.482 695.209 385.314C695.209 383.393 694.793 381.869 693.961 380.744C693.141 379.619 692.021 379.057 690.604 379.057C689.209 379.057 688.102 379.613 687.281 380.727C686.461 381.828 686.051 383.48 686.051 385.684ZM707.619 395H703.348V368H707.619V395Z" fill="black"/>
<line y1="-0.5" x2="11.6916" y2="-0.5" transform="matrix(0.729246 0.684251 -0.812156 0.583441 789.024 383.488)" stroke="#787878"/>
<path d="M808.083 383.235L797.55 391.488" stroke="#787878"/>
<rect x="359" y="248" width="172" height="65" fill="#F2F2F2"/>
<rect x="571.5" y="248.5" width="256" height="64" fill="white" stroke="#CECECE"/>
<path d="M392.113 281.82L381.25 277.83V273.629L396.438 280.168V283.561L381.25 290.1V285.898L392.113 281.82ZM415.439 279.289H400.287V275.738H415.439V279.289ZM415.439 286.742H400.287V283.209H415.439V286.742Z" fill="black"/>
<path d="M610.125 293H592.916V290.064L601.441 280.766C602.672 279.395 603.545 278.252 604.061 277.338C604.588 276.412 604.852 275.486 604.852 274.561C604.852 273.342 604.506 272.357 603.814 271.607C603.135 270.857 602.215 270.482 601.055 270.482C599.672 270.482 598.6 270.904 597.838 271.748C597.076 272.592 596.695 273.746 596.695 275.211H592.424C592.424 273.652 592.775 272.252 593.479 271.01C594.193 269.756 595.207 268.783 596.52 268.092C597.844 267.4 599.367 267.055 601.09 267.055C603.574 267.055 605.531 267.682 606.961 268.936C608.402 270.178 609.123 271.9 609.123 274.104C609.123 275.381 608.76 276.723 608.033 278.129C607.318 279.523 606.141 281.111 604.5 282.893L598.242 289.59H610.125V293ZM614.52 280.309L615.908 267.406H629.654V271.098H619.459L618.756 277.215C619.939 276.535 621.275 276.195 622.764 276.195C625.201 276.195 627.094 276.975 628.441 278.533C629.801 280.092 630.48 282.189 630.48 284.826C630.48 287.428 629.73 289.502 628.23 291.049C626.73 292.584 624.674 293.352 622.061 293.352C619.717 293.352 617.771 292.689 616.225 291.365C614.689 290.029 613.857 288.271 613.729 286.092H617.859C618.023 287.334 618.469 288.289 619.195 288.957C619.922 289.613 620.871 289.941 622.043 289.941C623.355 289.941 624.375 289.473 625.102 288.535C625.84 287.598 626.209 286.32 626.209 284.703C626.209 283.145 625.805 281.914 624.996 281.012C624.188 280.098 623.074 279.641 621.656 279.641C620.883 279.641 620.227 279.746 619.688 279.957C619.148 280.156 618.562 280.555 617.93 281.152L614.52 280.309Z" fill="black"/>
<line x1="499.376" y1="281.159" x2="506.376" y2="289.159" stroke="#787878"/>
<path d="M514.648 281.235L506 289.488" stroke="#787878"/>
<path d="M260.534 382.687L259.034 382.687L259.034 384.187L260.534 384.187L260.534 382.687ZM308.594 383.748C309.18 383.162 309.18 382.212 308.594 381.626L299.048 372.08C298.462 371.495 297.513 371.495 296.927 372.08C296.341 372.666 296.341 373.616 296.927 374.202L305.412 382.687L296.927 391.172C296.341 391.758 296.341 392.708 296.927 393.294C297.513 393.879 298.462 393.879 299.048 393.294L308.594 383.748ZM259.034 363.187L259.034 382.687L262.034 382.687L262.034 363.187L259.034 363.187ZM260.534 384.187L307.534 384.187L307.534 381.187L260.534 381.187L260.534 384.187Z" fill="#929292"/>
<path d="M260.534 188.687L259.034 188.687L259.034 190.187L260.534 190.187L260.534 188.687ZM308.594 189.748C309.18 189.162 309.18 188.212 308.594 187.626L299.048 178.08C298.462 177.495 297.513 177.495 296.927 178.08C296.341 178.666 296.341 179.616 296.927 180.202L305.412 188.687L296.927 197.172C296.341 197.758 296.341 198.708 296.927 199.294C297.513 199.879 298.462 199.879 299.048 199.294L308.594 189.748ZM259.034 169.187L259.034 188.687L262.034 188.687L262.034 169.187L259.034 169.187ZM260.534 190.187L307.534 190.187L307.534 187.187L260.534 187.187L260.534 190.187Z" fill="#929292"/>
</svg>
