<svg width="512" height="512" viewBox="0 0 512 512" fill="none" xmlns="http://www.w3.org/2000/svg">
<g filter="url(#filter0_d)">
<mask id="path-2-outside-1" maskUnits="userSpaceOnUse" x="13.9521" y="13.9521" width="485" height="485" fill="black">
<rect fill="white" x="13.9521" y="13.9521" width="485" height="485"/>
<path d="M378 238.84H456.376C458.005 242.951 461.016 246.365 464.891 248.495C468.767 250.625 473.263 251.336 477.607 250.507C481.95 249.678 485.869 247.36 488.687 243.953C491.506 240.545 493.048 236.262 493.048 231.84C493.048 227.418 491.506 223.135 488.687 219.727C485.869 216.32 481.95 214.002 477.607 213.173C473.263 212.344 468.767 213.055 464.891 215.185C461.016 217.315 458.005 220.729 456.376 224.84H378V190.48H428.52C430.376 190.479 432.156 189.741 433.469 188.429C434.781 187.116 435.519 185.336 435.52 183.48V137.36H456.376C458.005 141.471 461.016 144.885 464.891 147.015C468.767 149.145 473.263 149.856 477.607 149.027C481.95 148.198 485.869 145.88 488.687 142.473C491.506 139.065 493.048 134.782 493.048 130.36C493.048 125.938 491.506 121.655 488.687 118.247C485.869 114.84 481.95 112.522 477.607 111.693C473.263 110.864 468.767 111.575 464.891 113.705C461.016 115.835 458.005 119.249 456.376 123.36H428.52C426.664 123.361 424.884 124.099 423.571 125.411C422.259 126.724 421.521 128.504 421.52 130.36V176.48H378V141C377.999 139.144 377.261 137.364 375.949 136.051C374.636 134.739 372.856 134.001 371 134H335.52V90.48H381.64C383.496 90.4789 385.276 89.7411 386.589 88.4285C387.901 87.116 388.639 85.3362 388.64 83.48V55.624C392.749 53.9953 396.161 50.9849 398.289 47.1111C400.417 43.2374 401.128 38.7428 400.299 34.4015C399.47 30.0602 397.153 26.1438 393.747 23.3269C390.341 20.5099 386.06 18.9688 381.64 18.9688C377.22 18.9688 372.939 20.5099 369.533 23.3269C366.127 26.1438 363.81 30.0602 362.981 34.4015C362.152 38.7428 362.863 43.2374 364.991 47.1111C367.119 50.9849 370.531 53.9953 374.64 55.624V76.48H328.52C326.664 76.481 324.884 77.2189 323.571 78.5314C322.259 79.8439 321.521 81.6238 321.52 83.48V134H287.16V55.628C291.269 53.9993 294.681 50.9889 296.809 47.1151C298.937 43.2414 299.648 38.7468 298.819 34.4055C297.99 30.0642 295.673 26.1478 292.267 23.3309C288.861 20.5139 284.58 18.9728 280.16 18.9728C275.74 18.9728 271.459 20.5139 268.053 23.3309C264.647 26.1478 262.33 30.0642 261.501 34.4055C260.672 38.7468 261.383 43.2414 263.511 47.1151C265.639 50.9889 269.051 53.9993 273.16 55.628V134H238.84V55.624C242.951 53.9952 246.365 50.9838 248.495 47.1085C250.625 43.2331 251.336 38.7365 250.507 34.393C249.678 30.0495 247.36 26.131 243.953 23.3126C240.545 20.4942 236.262 18.9521 231.84 18.9521C227.418 18.9521 223.135 20.4942 219.727 23.3126C216.32 26.131 214.002 30.0495 213.173 34.393C212.344 38.7365 213.055 43.2331 215.185 47.1085C217.315 50.9838 220.729 53.9952 224.84 55.624V134H190.48V83.48C190.479 81.6238 189.741 79.8439 188.429 78.5314C187.116 77.2189 185.336 76.481 183.48 76.48H137.36V55.624C141.471 53.9952 144.885 50.9838 147.015 47.1085C149.145 43.2331 149.856 38.7365 149.027 34.393C148.198 30.0495 145.88 26.131 142.473 23.3126C139.065 20.4942 134.782 18.9521 130.36 18.9521C125.938 18.9521 121.655 20.4942 118.247 23.3126C114.84 26.131 112.522 30.0495 111.693 34.393C110.864 38.7365 111.575 43.2331 113.705 47.1085C115.835 50.9838 119.249 53.9952 123.36 55.624V83.48C123.361 85.3362 124.099 87.116 125.411 88.4285C126.724 89.7411 128.504 90.4789 130.36 90.48H176.48V134H141C139.144 134.001 137.364 134.739 136.051 136.051C134.739 137.364 134.001 139.144 134 141V176.48H90.48V130.36C90.4789 128.504 89.7411 126.724 88.4285 125.411C87.116 124.099 85.3362 123.361 83.48 123.36H55.628C53.9992 119.25 50.9883 115.837 47.1138 113.708C43.2393 111.579 38.7436 110.868 34.4012 111.697C30.0588 112.526 26.1414 114.844 23.3237 118.25C20.506 121.657 18.9645 125.939 18.9645 130.36C18.9645 134.781 20.506 139.063 23.3237 142.47C26.1414 145.876 30.0588 148.194 34.4012 149.023C38.7436 149.852 43.2393 149.141 47.1138 147.012C50.9883 144.883 53.9992 141.47 55.628 137.36H76.48V183.48C76.481 185.336 77.2189 187.116 78.5314 188.429C79.8439 189.741 81.6238 190.479 83.48 190.48H134V224.84H55.628C53.9993 220.731 50.9889 217.319 47.1151 215.191C43.2414 213.063 38.7468 212.352 34.4055 213.181C30.0642 214.01 26.1478 216.327 23.3309 219.733C20.5139 223.139 18.9728 227.42 18.9728 231.84C18.9728 236.26 20.5139 240.541 23.3309 243.947C26.1478 247.353 30.0642 249.67 34.4055 250.499C38.7468 251.328 43.2414 250.617 47.1151 248.489C50.9889 246.361 53.9993 242.949 55.628 238.84H134V273.16H55.624C53.9952 269.049 50.9838 265.635 47.1085 263.505C43.2331 261.375 38.7365 260.664 34.393 261.493C30.0495 262.322 26.131 264.64 23.3126 268.047C20.4942 271.455 18.9521 275.738 18.9521 280.16C18.9521 284.582 20.4942 288.865 23.3126 292.273C26.131 295.68 30.0495 297.998 34.393 298.827C38.7365 299.656 43.2331 298.945 47.1085 296.815C50.9838 294.685 53.9952 291.271 55.624 287.16H134V321.52H83.48C81.6238 321.521 79.8439 322.259 78.5314 323.571C77.2189 324.884 76.481 326.664 76.48 328.52V374.64H55.624C53.9952 370.529 50.9838 367.115 47.1085 364.985C43.2331 362.855 38.7365 362.144 34.393 362.973C30.0495 363.802 26.131 366.12 23.3126 369.527C20.4942 372.935 18.9521 377.218 18.9521 381.64C18.9521 386.062 20.4942 390.345 23.3126 393.753C26.131 397.16 30.0495 399.478 34.393 400.307C38.7365 401.136 43.2331 400.425 47.1085 398.295C50.9838 396.165 53.9952 392.751 55.624 388.64H83.48C85.3362 388.639 87.116 387.901 88.4285 386.589C89.7411 385.276 90.4789 383.496 90.48 381.64V335.52H134V371C134.001 372.856 134.739 374.636 136.051 375.949C137.364 377.261 139.144 377.999 141 378H176.48V421.52H130.36C128.504 421.521 126.724 422.259 125.411 423.571C124.099 424.884 123.361 426.664 123.36 428.52V456.376C119.251 458.005 115.839 461.015 113.711 464.889C111.583 468.763 110.872 473.257 111.701 477.598C112.53 481.94 114.847 485.856 118.253 488.673C121.659 491.49 125.94 493.031 130.36 493.031C134.78 493.031 139.061 491.49 142.467 488.673C145.873 485.856 148.19 481.94 149.019 477.598C149.848 473.257 149.137 468.763 147.009 464.889C144.881 461.015 141.469 458.005 137.36 456.376V435.52H183.48C185.336 435.519 187.116 434.781 188.429 433.469C189.741 432.156 190.479 430.376 190.48 428.52V378H224.84V456.372C220.731 458.001 217.319 461.011 215.191 464.885C213.063 468.759 212.352 473.253 213.181 477.594C214.01 481.936 216.327 485.852 219.733 488.669C223.139 491.486 227.42 493.027 231.84 493.027C236.26 493.027 240.541 491.486 243.947 488.669C247.353 485.852 249.67 481.936 250.499 477.594C251.328 473.253 250.617 468.759 248.489 464.885C246.361 461.011 242.949 458.001 238.84 456.372V378H273.16V456.376C269.049 458.005 265.635 461.016 263.505 464.891C261.375 468.767 260.664 473.263 261.493 477.607C262.322 481.95 264.64 485.869 268.047 488.687C271.455 491.506 275.738 493.048 280.16 493.048C284.582 493.048 288.865 491.506 292.273 488.687C295.68 485.869 297.998 481.95 298.827 477.607C299.656 473.263 298.945 468.767 296.815 464.891C294.685 461.016 291.271 458.005 287.16 456.376V378H321.52V428.52C321.521 430.376 322.259 432.156 323.571 433.469C324.884 434.781 326.664 435.519 328.52 435.52H374.64V456.376C370.53 458.005 367.117 461.016 364.988 464.89C362.859 468.765 362.148 473.26 362.977 477.603C363.806 481.945 366.124 485.863 369.53 488.68C372.937 491.498 377.219 493.039 381.64 493.039C386.061 493.039 390.343 491.498 393.75 488.68C397.156 485.863 399.474 481.945 400.303 477.603C401.132 473.26 400.421 468.765 398.292 464.89C396.163 461.016 392.75 458.005 388.64 456.376V428.52C388.639 426.664 387.901 424.884 386.589 423.571C385.276 422.259 383.496 421.521 381.64 421.52H335.52V378H371C372.856 377.999 374.636 377.261 375.949 375.949C377.261 374.636 377.999 372.856 378 371V335.52H421.52V381.64C421.521 383.496 422.259 385.276 423.571 386.589C424.884 387.901 426.664 388.639 428.52 388.64H456.376C458.005 392.749 461.015 396.161 464.889 398.289C468.763 400.417 473.257 401.128 477.598 400.299C481.94 399.47 485.856 397.153 488.673 393.747C491.49 390.341 493.031 386.06 493.031 381.64C493.031 377.22 491.49 372.939 488.673 369.533C485.856 366.127 481.94 363.81 477.598 362.981C473.257 362.152 468.763 362.863 464.889 364.991C461.015 367.119 458.005 370.531 456.376 374.64H435.52V328.52C435.519 326.664 434.781 324.884 433.469 323.571C432.156 322.259 430.376 321.521 428.52 321.52H378V287.16H456.372C458.001 291.269 461.011 294.681 464.885 296.809C468.759 298.937 473.253 299.648 477.594 298.819C481.936 297.99 485.852 295.673 488.669 292.267C491.486 288.861 493.027 284.58 493.027 280.16C493.027 275.74 491.486 271.459 488.669 268.053C485.852 264.647 481.936 262.33 477.594 261.501C473.253 260.672 468.759 261.383 464.885 263.511C461.011 265.639 458.001 269.051 456.372 273.16H378V238.84ZM474 226.84C474.989 226.84 475.956 227.133 476.778 227.683C477.6 228.232 478.241 229.013 478.619 229.927C478.998 230.84 479.097 231.846 478.904 232.815C478.711 233.785 478.235 234.676 477.535 235.376C476.836 236.075 475.945 236.551 474.975 236.744C474.006 236.937 473 236.838 472.087 236.459C471.173 236.081 470.392 235.44 469.843 234.618C469.293 233.796 469 232.829 469 231.84C469 230.513 469.527 229.241 470.464 228.302C471.401 227.363 472.673 226.834 474 226.832V226.84ZM474 125.364C474.989 125.364 475.956 125.657 476.778 126.207C477.6 126.756 478.241 127.537 478.619 128.451C478.998 129.364 479.097 130.37 478.904 131.339C478.711 132.309 478.235 133.2 477.535 133.9C476.836 134.599 475.945 135.075 474.975 135.268C474.006 135.461 473 135.362 472.087 134.983C471.173 134.605 470.392 133.964 469.843 133.142C469.293 132.32 469 131.353 469 130.364C469 129.037 469.527 127.765 470.464 126.826C471.401 125.887 472.673 125.358 474 125.356V125.364ZM381.644 33C382.633 33 383.6 33.2932 384.422 33.8426C385.244 34.392 385.885 35.1729 386.263 36.0866C386.642 37.0002 386.741 38.0055 386.548 38.9754C386.355 39.9453 385.879 40.8362 385.18 41.5355C384.48 42.2348 383.589 42.711 382.619 42.9039C381.65 43.0968 380.644 42.9978 379.731 42.6194C378.817 42.2409 378.036 41.6001 377.487 40.7778C376.937 39.9556 376.644 38.9889 376.644 38C376.646 36.6745 377.174 35.404 378.111 34.4668C379.048 33.5296 380.319 33.0021 381.644 33ZM280.168 33C281.157 33 282.124 33.2932 282.946 33.8426C283.768 34.392 284.409 35.1729 284.787 36.0866C285.166 37.0002 285.265 38.0055 285.072 38.9754C284.879 39.9453 284.403 40.8362 283.703 41.5355C283.004 42.2348 282.113 42.711 281.143 42.9039C280.174 43.0968 279.168 42.9978 278.255 42.6194C277.341 42.2409 276.56 41.6001 276.011 40.7778C275.461 39.9556 275.168 38.9889 275.168 38C275.17 36.6745 275.698 35.404 276.635 34.4668C277.572 33.5296 278.843 33.0021 280.168 33ZM231.832 33C232.821 33 233.788 33.2932 234.61 33.8426C235.432 34.392 236.073 35.1729 236.451 36.0866C236.83 37.0002 236.929 38.0055 236.736 38.9754C236.543 39.9453 236.067 40.8362 235.368 41.5355C234.668 42.2348 233.777 42.711 232.807 42.9039C231.838 43.0968 230.832 42.9978 229.919 42.6194C229.005 42.2409 228.224 41.6001 227.675 40.7778C227.125 39.9556 226.832 38.9889 226.832 38C226.833 36.6742 227.36 35.4031 228.298 34.4656C229.235 33.5282 230.506 33.001 231.832 33ZM130.356 33C131.345 33 132.312 33.2932 133.134 33.8426C133.956 34.392 134.597 35.1729 134.975 36.0866C135.354 37.0002 135.453 38.0055 135.26 38.9754C135.067 39.9453 134.591 40.8362 133.892 41.5355C133.192 42.2348 132.301 42.711 131.331 42.9039C130.362 43.0968 129.356 42.9978 128.443 42.6194C127.529 42.2409 126.748 41.6001 126.199 40.7778C125.649 39.9556 125.356 38.9889 125.356 38C125.357 36.6742 125.884 35.4031 126.822 34.4656C127.759 33.5282 129.03 33.001 130.356 33ZM38 135.356C37.0111 135.356 36.0444 135.063 35.2221 134.513C34.3999 133.964 33.759 133.183 33.3806 132.269C33.0021 131.356 32.9031 130.35 33.096 129.381C33.289 128.411 33.7652 127.52 34.4644 126.82C35.1637 126.121 36.0546 125.645 37.0245 125.452C37.9944 125.259 38.9998 125.358 39.9134 125.737C40.827 126.115 41.6079 126.756 42.1573 127.578C42.7067 128.4 43 129.367 43 130.356C42.9989 131.682 42.4718 132.953 41.5343 133.89C40.5969 134.828 39.3257 135.355 38 135.356ZM38 236.832C37.0111 236.832 36.0444 236.539 35.2221 235.989C34.3999 235.44 33.759 234.659 33.3806 233.745C33.0021 232.832 32.9031 231.826 33.096 230.857C33.289 229.887 33.7652 228.996 34.4644 228.296C35.1637 227.597 36.0546 227.121 37.0245 226.928C37.9944 226.735 38.9998 226.834 39.9134 227.213C40.827 227.591 41.6079 228.232 42.1573 229.054C42.7067 229.876 43 230.843 43 231.832C42.9989 233.158 42.4718 234.429 41.5343 235.366C40.5969 236.304 39.3257 236.831 38 236.832ZM38 285.168C37.0111 285.168 36.0444 284.875 35.2221 284.325C34.3999 283.776 33.759 282.995 33.3806 282.081C33.0021 281.168 32.9031 280.162 33.096 279.193C33.289 278.223 33.7652 277.332 34.4644 276.632C35.1637 275.933 36.0546 275.457 37.0245 275.264C37.9944 275.071 38.9998 275.17 39.9134 275.549C40.827 275.927 41.6079 276.568 42.1573 277.39C42.7067 278.212 43 279.179 43 280.168C42.9979 281.493 42.4704 282.764 41.5332 283.701C40.5959 284.638 39.3254 285.166 38 285.168ZM38 386.644C37.0111 386.644 36.0444 386.351 35.2221 385.801C34.3999 385.252 33.759 384.471 33.3806 383.557C33.0021 382.644 32.9031 381.638 33.096 380.669C33.289 379.699 33.7652 378.808 34.4644 378.108C35.1637 377.409 36.0546 376.933 37.0245 376.74C37.9944 376.547 38.9998 376.646 39.9134 377.025C40.827 377.403 41.6079 378.044 42.1573 378.866C42.7067 379.688 43 380.655 43 381.644C42.9979 382.969 42.4704 384.24 41.5332 385.177C40.5959 386.114 39.3254 386.642 38 386.644ZM130.356 479C129.367 479 128.4 478.707 127.578 478.157C126.756 477.608 126.115 476.827 125.737 475.913C125.358 475 125.259 473.994 125.452 473.025C125.645 472.055 126.121 471.164 126.82 470.464C127.52 469.765 128.411 469.289 129.381 469.096C130.35 468.903 131.356 469.002 132.269 469.381C133.183 469.759 133.964 470.4 134.513 471.222C135.063 472.044 135.356 473.011 135.356 474C135.354 475.325 134.826 476.596 133.889 477.533C132.952 478.47 131.681 478.998 130.356 479ZM231.832 479C230.843 479 229.876 478.707 229.054 478.157C228.232 477.608 227.591 476.827 227.213 475.913C226.834 475 226.735 473.994 226.928 473.025C227.121 472.055 227.597 471.164 228.296 470.464C228.996 469.765 229.887 469.289 230.857 469.096C231.826 468.903 232.832 469.002 233.745 469.381C234.659 469.759 235.44 470.4 235.989 471.222C236.539 472.044 236.832 473.011 236.832 474C236.83 475.325 236.302 476.596 235.365 477.533C234.428 478.47 233.157 478.998 231.832 479ZM280.168 479C279.179 479 278.212 478.707 277.39 478.157C276.568 477.608 275.927 476.827 275.549 475.913C275.17 475 275.071 473.994 275.264 473.025C275.457 472.055 275.933 471.164 276.632 470.464C277.332 469.765 278.223 469.289 279.193 469.096C280.162 468.903 281.168 469.002 282.081 469.381C282.995 469.759 283.776 470.4 284.325 471.222C284.875 472.044 285.168 473.011 285.168 474C285.167 475.326 284.64 476.597 283.702 477.534C282.765 478.472 281.494 478.999 280.168 479ZM381.644 479C380.655 479 379.688 478.707 378.866 478.157C378.044 477.608 377.403 476.827 377.025 475.913C376.646 475 376.547 473.994 376.74 473.025C376.933 472.055 377.409 471.164 378.108 470.464C378.808 469.765 379.699 469.289 380.669 469.096C381.638 468.903 382.644 469.002 383.557 469.381C384.471 469.759 385.252 470.4 385.801 471.222C386.351 472.044 386.644 473.011 386.644 474C386.643 475.326 386.116 476.597 385.178 477.534C384.241 478.472 382.97 478.999 381.644 479ZM474 376.644C474.989 376.644 475.956 376.937 476.778 377.487C477.6 378.036 478.241 378.817 478.619 379.731C478.998 380.644 479.097 381.65 478.904 382.619C478.711 383.589 478.235 384.48 477.535 385.18C476.836 385.879 475.945 386.355 474.975 386.548C474.006 386.741 473 386.642 472.087 386.263C471.173 385.885 470.392 385.244 469.843 384.422C469.293 383.6 469 382.633 469 381.644C469.001 380.318 469.528 379.047 470.466 378.11C471.403 377.172 472.674 376.645 474 376.644ZM474 275.168C474.989 275.168 475.956 275.461 476.778 276.011C477.6 276.56 478.241 277.341 478.619 278.255C478.998 279.168 479.097 280.174 478.904 281.143C478.711 282.113 478.235 283.004 477.535 283.703C476.836 284.403 475.945 284.879 474.975 285.072C474.006 285.265 473 285.166 472.087 284.787C471.173 284.409 470.392 283.768 469.843 282.946C469.293 282.124 469 281.157 469 280.168C469.001 278.842 469.528 277.571 470.466 276.634C471.403 275.696 472.674 275.169 474 275.168ZM364 364H148V148H364V364Z"/>
</mask>
<path d="M378 238.84H456.376C458.005 242.951 461.016 246.365 464.891 248.495C468.767 250.625 473.263 251.336 477.607 250.507C481.95 249.678 485.869 247.36 488.687 243.953C491.506 240.545 493.048 236.262 493.048 231.84C493.048 227.418 491.506 223.135 488.687 219.727C485.869 216.32 481.95 214.002 477.607 213.173C473.263 212.344 468.767 213.055 464.891 215.185C461.016 217.315 458.005 220.729 456.376 224.84H378V190.48H428.52C430.376 190.479 432.156 189.741 433.469 188.429C434.781 187.116 435.519 185.336 435.52 183.48V137.36H456.376C458.005 141.471 461.016 144.885 464.891 147.015C468.767 149.145 473.263 149.856 477.607 149.027C481.95 148.198 485.869 145.88 488.687 142.473C491.506 139.065 493.048 134.782 493.048 130.36C493.048 125.938 491.506 121.655 488.687 118.247C485.869 114.84 481.95 112.522 477.607 111.693C473.263 110.864 468.767 111.575 464.891 113.705C461.016 115.835 458.005 119.249 456.376 123.36H428.52C426.664 123.361 424.884 124.099 423.571 125.411C422.259 126.724 421.521 128.504 421.52 130.36V176.48H378V141C377.999 139.144 377.261 137.364 375.949 136.051C374.636 134.739 372.856 134.001 371 134H335.52V90.48H381.64C383.496 90.4789 385.276 89.7411 386.589 88.4285C387.901 87.116 388.639 85.3362 388.64 83.48V55.624C392.749 53.9953 396.161 50.9849 398.289 47.1111C400.417 43.2374 401.128 38.7428 400.299 34.4015C399.47 30.0602 397.153 26.1438 393.747 23.3269C390.341 20.5099 386.06 18.9688 381.64 18.9688C377.22 18.9688 372.939 20.5099 369.533 23.3269C366.127 26.1438 363.81 30.0602 362.981 34.4015C362.152 38.7428 362.863 43.2374 364.991 47.1111C367.119 50.9849 370.531 53.9953 374.64 55.624V76.48H328.52C326.664 76.481 324.884 77.2189 323.571 78.5314C322.259 79.8439 321.521 81.6238 321.52 83.48V134H287.16V55.628C291.269 53.9993 294.681 50.9889 296.809 47.1151C298.937 43.2414 299.648 38.7468 298.819 34.4055C297.99 30.0642 295.673 26.1478 292.267 23.3309C288.861 20.5139 284.58 18.9728 280.16 18.9728C275.74 18.9728 271.459 20.5139 268.053 23.3309C264.647 26.1478 262.33 30.0642 261.501 34.4055C260.672 38.7468 261.383 43.2414 263.511 47.1151C265.639 50.9889 269.051 53.9993 273.16 55.628V134H238.84V55.624C242.951 53.9952 246.365 50.9838 248.495 47.1085C250.625 43.2331 251.336 38.7365 250.507 34.393C249.678 30.0495 247.36 26.131 243.953 23.3126C240.545 20.4942 236.262 18.9521 231.84 18.9521C227.418 18.9521 223.135 20.4942 219.727 23.3126C216.32 26.131 214.002 30.0495 213.173 34.393C212.344 38.7365 213.055 43.2331 215.185 47.1085C217.315 50.9838 220.729 53.9952 224.84 55.624V134H190.48V83.48C190.479 81.6238 189.741 79.8439 188.429 78.5314C187.116 77.2189 185.336 76.481 183.48 76.48H137.36V55.624C141.471 53.9952 144.885 50.9838 147.015 47.1085C149.145 43.2331 149.856 38.7365 149.027 34.393C148.198 30.0495 145.88 26.131 142.473 23.3126C139.065 20.4942 134.782 18.9521 130.36 18.9521C125.938 18.9521 121.655 20.4942 118.247 23.3126C114.84 26.131 112.522 30.0495 111.693 34.393C110.864 38.7365 111.575 43.2331 113.705 47.1085C115.835 50.9838 119.249 53.9952 123.36 55.624V83.48C123.361 85.3362 124.099 87.116 125.411 88.4285C126.724 89.7411 128.504 90.4789 130.36 90.48H176.48V134H141C139.144 134.001 137.364 134.739 136.051 136.051C134.739 137.364 134.001 139.144 134 141V176.48H90.48V130.36C90.4789 128.504 89.7411 126.724 88.4285 125.411C87.116 124.099 85.3362 123.361 83.48 123.36H55.628C53.9992 119.25 50.9883 115.837 47.1138 113.708C43.2393 111.579 38.7436 110.868 34.4012 111.697C30.0588 112.526 26.1414 114.844 23.3237 118.25C20.506 121.657 18.9645 125.939 18.9645 130.36C18.9645 134.781 20.506 139.063 23.3237 142.47C26.1414 145.876 30.0588 148.194 34.4012 149.023C38.7436 149.852 43.2393 149.141 47.1138 147.012C50.9883 144.883 53.9992 141.47 55.628 137.36H76.48V183.48C76.481 185.336 77.2189 187.116 78.5314 188.429C79.8439 189.741 81.6238 190.479 83.48 190.48H134V224.84H55.628C53.9993 220.731 50.9889 217.319 47.1151 215.191C43.2414 213.063 38.7468 212.352 34.4055 213.181C30.0642 214.01 26.1478 216.327 23.3309 219.733C20.5139 223.139 18.9728 227.42 18.9728 231.84C18.9728 236.26 20.5139 240.541 23.3309 243.947C26.1478 247.353 30.0642 249.67 34.4055 250.499C38.7468 251.328 43.2414 250.617 47.1151 248.489C50.9889 246.361 53.9993 242.949 55.628 238.84H134V273.16H55.624C53.9952 269.049 50.9838 265.635 47.1085 263.505C43.2331 261.375 38.7365 260.664 34.393 261.493C30.0495 262.322 26.131 264.64 23.3126 268.047C20.4942 271.455 18.9521 275.738 18.9521 280.16C18.9521 284.582 20.4942 288.865 23.3126 292.273C26.131 295.68 30.0495 297.998 34.393 298.827C38.7365 299.656 43.2331 298.945 47.1085 296.815C50.9838 294.685 53.9952 291.271 55.624 287.16H134V321.52H83.48C81.6238 321.521 79.8439 322.259 78.5314 323.571C77.2189 324.884 76.481 326.664 76.48 328.52V374.64H55.624C53.9952 370.529 50.9838 367.115 47.1085 364.985C43.2331 362.855 38.7365 362.144 34.393 362.973C30.0495 363.802 26.131 366.12 23.3126 369.527C20.4942 372.935 18.9521 377.218 18.9521 381.64C18.9521 386.062 20.4942 390.345 23.3126 393.753C26.131 397.16 30.0495 399.478 34.393 400.307C38.7365 401.136 43.2331 400.425 47.1085 398.295C50.9838 396.165 53.9952 392.751 55.624 388.64H83.48C85.3362 388.639 87.116 387.901 88.4285 386.589C89.7411 385.276 90.4789 383.496 90.48 381.64V335.52H134V371C134.001 372.856 134.739 374.636 136.051 375.949C137.364 377.261 139.144 377.999 141 378H176.48V421.52H130.36C128.504 421.521 126.724 422.259 125.411 423.571C124.099 424.884 123.361 426.664 123.36 428.52V456.376C119.251 458.005 115.839 461.015 113.711 464.889C111.583 468.763 110.872 473.257 111.701 477.598C112.53 481.94 114.847 485.856 118.253 488.673C121.659 491.49 125.94 493.031 130.36 493.031C134.78 493.031 139.061 491.49 142.467 488.673C145.873 485.856 148.19 481.94 149.019 477.598C149.848 473.257 149.137 468.763 147.009 464.889C144.881 461.015 141.469 458.005 137.36 456.376V435.52H183.48C185.336 435.519 187.116 434.781 188.429 433.469C189.741 432.156 190.479 430.376 190.48 428.52V378H224.84V456.372C220.731 458.001 217.319 461.011 215.191 464.885C213.063 468.759 212.352 473.253 213.181 477.594C214.01 481.936 216.327 485.852 219.733 488.669C223.139 491.486 227.42 493.027 231.84 493.027C236.26 493.027 240.541 491.486 243.947 488.669C247.353 485.852 249.67 481.936 250.499 477.594C251.328 473.253 250.617 468.759 248.489 464.885C246.361 461.011 242.949 458.001 238.84 456.372V378H273.16V456.376C269.049 458.005 265.635 461.016 263.505 464.891C261.375 468.767 260.664 473.263 261.493 477.607C262.322 481.95 264.64 485.869 268.047 488.687C271.455 491.506 275.738 493.048 280.16 493.048C284.582 493.048 288.865 491.506 292.273 488.687C295.68 485.869 297.998 481.95 298.827 477.607C299.656 473.263 298.945 468.767 296.815 464.891C294.685 461.016 291.271 458.005 287.16 456.376V378H321.52V428.52C321.521 430.376 322.259 432.156 323.571 433.469C324.884 434.781 326.664 435.519 328.52 435.52H374.64V456.376C370.53 458.005 367.117 461.016 364.988 464.89C362.859 468.765 362.148 473.26 362.977 477.603C363.806 481.945 366.124 485.863 369.53 488.68C372.937 491.498 377.219 493.039 381.64 493.039C386.061 493.039 390.343 491.498 393.75 488.68C397.156 485.863 399.474 481.945 400.303 477.603C401.132 473.26 400.421 468.765 398.292 464.89C396.163 461.016 392.75 458.005 388.64 456.376V428.52C388.639 426.664 387.901 424.884 386.589 423.571C385.276 422.259 383.496 421.521 381.64 421.52H335.52V378H371C372.856 377.999 374.636 377.261 375.949 375.949C377.261 374.636 377.999 372.856 378 371V335.52H421.52V381.64C421.521 383.496 422.259 385.276 423.571 386.589C424.884 387.901 426.664 388.639 428.52 388.64H456.376C458.005 392.749 461.015 396.161 464.889 398.289C468.763 400.417 473.257 401.128 477.598 400.299C481.94 399.47 485.856 397.153 488.673 393.747C491.49 390.341 493.031 386.06 493.031 381.64C493.031 377.22 491.49 372.939 488.673 369.533C485.856 366.127 481.94 363.81 477.598 362.981C473.257 362.152 468.763 362.863 464.889 364.991C461.015 367.119 458.005 370.531 456.376 374.64H435.52V328.52C435.519 326.664 434.781 324.884 433.469 323.571C432.156 322.259 430.376 321.521 428.52 321.52H378V287.16H456.372C458.001 291.269 461.011 294.681 464.885 296.809C468.759 298.937 473.253 299.648 477.594 298.819C481.936 297.99 485.852 295.673 488.669 292.267C491.486 288.861 493.027 284.58 493.027 280.16C493.027 275.74 491.486 271.459 488.669 268.053C485.852 264.647 481.936 262.33 477.594 261.501C473.253 260.672 468.759 261.383 464.885 263.511C461.011 265.639 458.001 269.051 456.372 273.16H378V238.84ZM474 226.84C474.989 226.84 475.956 227.133 476.778 227.683C477.6 228.232 478.241 229.013 478.619 229.927C478.998 230.84 479.097 231.846 478.904 232.815C478.711 233.785 478.235 234.676 477.535 235.376C476.836 236.075 475.945 236.551 474.975 236.744C474.006 236.937 473 236.838 472.087 236.459C471.173 236.081 470.392 235.44 469.843 234.618C469.293 233.796 469 232.829 469 231.84C469 230.513 469.527 229.241 470.464 228.302C471.401 227.363 472.673 226.834 474 226.832V226.84ZM474 125.364C474.989 125.364 475.956 125.657 476.778 126.207C477.6 126.756 478.241 127.537 478.619 128.451C478.998 129.364 479.097 130.37 478.904 131.339C478.711 132.309 478.235 133.2 477.535 133.9C476.836 134.599 475.945 135.075 474.975 135.268C474.006 135.461 473 135.362 472.087 134.983C471.173 134.605 470.392 133.964 469.843 133.142C469.293 132.32 469 131.353 469 130.364C469 129.037 469.527 127.765 470.464 126.826C471.401 125.887 472.673 125.358 474 125.356V125.364ZM381.644 33C382.633 33 383.6 33.2932 384.422 33.8426C385.244 34.392 385.885 35.1729 386.263 36.0866C386.642 37.0002 386.741 38.0055 386.548 38.9754C386.355 39.9453 385.879 40.8362 385.18 41.5355C384.48 42.2348 383.589 42.711 382.619 42.9039C381.65 43.0968 380.644 42.9978 379.731 42.6194C378.817 42.2409 378.036 41.6001 377.487 40.7778C376.937 39.9556 376.644 38.9889 376.644 38C376.646 36.6745 377.174 35.404 378.111 34.4668C379.048 33.5296 380.319 33.0021 381.644 33ZM280.168 33C281.157 33 282.124 33.2932 282.946 33.8426C283.768 34.392 284.409 35.1729 284.787 36.0866C285.166 37.0002 285.265 38.0055 285.072 38.9754C284.879 39.9453 284.403 40.8362 283.703 41.5355C283.004 42.2348 282.113 42.711 281.143 42.9039C280.174 43.0968 279.168 42.9978 278.255 42.6194C277.341 42.2409 276.56 41.6001 276.011 40.7778C275.461 39.9556 275.168 38.9889 275.168 38C275.17 36.6745 275.698 35.404 276.635 34.4668C277.572 33.5296 278.843 33.0021 280.168 33ZM231.832 33C232.821 33 233.788 33.2932 234.61 33.8426C235.432 34.392 236.073 35.1729 236.451 36.0866C236.83 37.0002 236.929 38.0055 236.736 38.9754C236.543 39.9453 236.067 40.8362 235.368 41.5355C234.668 42.2348 233.777 42.711 232.807 42.9039C231.838 43.0968 230.832 42.9978 229.919 42.6194C229.005 42.2409 228.224 41.6001 227.675 40.7778C227.125 39.9556 226.832 38.9889 226.832 38C226.833 36.6742 227.36 35.4031 228.298 34.4656C229.235 33.5282 230.506 33.001 231.832 33ZM130.356 33C131.345 33 132.312 33.2932 133.134 33.8426C133.956 34.392 134.597 35.1729 134.975 36.0866C135.354 37.0002 135.453 38.0055 135.26 38.9754C135.067 39.9453 134.591 40.8362 133.892 41.5355C133.192 42.2348 132.301 42.711 131.331 42.9039C130.362 43.0968 129.356 42.9978 128.443 42.6194C127.529 42.2409 126.748 41.6001 126.199 40.7778C125.649 39.9556 125.356 38.9889 125.356 38C125.357 36.6742 125.884 35.4031 126.822 34.4656C127.759 33.5282 129.03 33.001 130.356 33ZM38 135.356C37.0111 135.356 36.0444 135.063 35.2221 134.513C34.3999 133.964 33.759 133.183 33.3806 132.269C33.0021 131.356 32.9031 130.35 33.096 129.381C33.289 128.411 33.7652 127.52 34.4644 126.82C35.1637 126.121 36.0546 125.645 37.0245 125.452C37.9944 125.259 38.9998 125.358 39.9134 125.737C40.827 126.115 41.6079 126.756 42.1573 127.578C42.7067 128.4 43 129.367 43 130.356C42.9989 131.682 42.4718 132.953 41.5343 133.89C40.5969 134.828 39.3257 135.355 38 135.356ZM38 236.832C37.0111 236.832 36.0444 236.539 35.2221 235.989C34.3999 235.44 33.759 234.659 33.3806 233.745C33.0021 232.832 32.9031 231.826 33.096 230.857C33.289 229.887 33.7652 228.996 34.4644 228.296C35.1637 227.597 36.0546 227.121 37.0245 226.928C37.9944 226.735 38.9998 226.834 39.9134 227.213C40.827 227.591 41.6079 228.232 42.1573 229.054C42.7067 229.876 43 230.843 43 231.832C42.9989 233.158 42.4718 234.429 41.5343 235.366C40.5969 236.304 39.3257 236.831 38 236.832ZM38 285.168C37.0111 285.168 36.0444 284.875 35.2221 284.325C34.3999 283.776 33.759 282.995 33.3806 282.081C33.0021 281.168 32.9031 280.162 33.096 279.193C33.289 278.223 33.7652 277.332 34.4644 276.632C35.1637 275.933 36.0546 275.457 37.0245 275.264C37.9944 275.071 38.9998 275.17 39.9134 275.549C40.827 275.927 41.6079 276.568 42.1573 277.39C42.7067 278.212 43 279.179 43 280.168C42.9979 281.493 42.4704 282.764 41.5332 283.701C40.5959 284.638 39.3254 285.166 38 285.168ZM38 386.644C37.0111 386.644 36.0444 386.351 35.2221 385.801C34.3999 385.252 33.759 384.471 33.3806 383.557C33.0021 382.644 32.9031 381.638 33.096 380.669C33.289 379.699 33.7652 378.808 34.4644 378.108C35.1637 377.409 36.0546 376.933 37.0245 376.74C37.9944 376.547 38.9998 376.646 39.9134 377.025C40.827 377.403 41.6079 378.044 42.1573 378.866C42.7067 379.688 43 380.655 43 381.644C42.9979 382.969 42.4704 384.24 41.5332 385.177C40.5959 386.114 39.3254 386.642 38 386.644ZM130.356 479C129.367 479 128.4 478.707 127.578 478.157C126.756 477.608 126.115 476.827 125.737 475.913C125.358 475 125.259 473.994 125.452 473.025C125.645 472.055 126.121 471.164 126.82 470.464C127.52 469.765 128.411 469.289 129.381 469.096C130.35 468.903 131.356 469.002 132.269 469.381C133.183 469.759 133.964 470.4 134.513 471.222C135.063 472.044 135.356 473.011 135.356 474C135.354 475.325 134.826 476.596 133.889 477.533C132.952 478.47 131.681 478.998 130.356 479ZM231.832 479C230.843 479 229.876 478.707 229.054 478.157C228.232 477.608 227.591 476.827 227.213 475.913C226.834 475 226.735 473.994 226.928 473.025C227.121 472.055 227.597 471.164 228.296 470.464C228.996 469.765 229.887 469.289 230.857 469.096C231.826 468.903 232.832 469.002 233.745 469.381C234.659 469.759 235.44 470.4 235.989 471.222C236.539 472.044 236.832 473.011 236.832 474C236.83 475.325 236.302 476.596 235.365 477.533C234.428 478.47 233.157 478.998 231.832 479ZM280.168 479C279.179 479 278.212 478.707 277.39 478.157C276.568 477.608 275.927 476.827 275.549 475.913C275.17 475 275.071 473.994 275.264 473.025C275.457 472.055 275.933 471.164 276.632 470.464C277.332 469.765 278.223 469.289 279.193 469.096C280.162 468.903 281.168 469.002 282.081 469.381C282.995 469.759 283.776 470.4 284.325 471.222C284.875 472.044 285.168 473.011 285.168 474C285.167 475.326 284.64 476.597 283.702 477.534C282.765 478.472 281.494 478.999 280.168 479ZM381.644 479C380.655 479 379.688 478.707 378.866 478.157C378.044 477.608 377.403 476.827 377.025 475.913C376.646 475 376.547 473.994 376.74 473.025C376.933 472.055 377.409 471.164 378.108 470.464C378.808 469.765 379.699 469.289 380.669 469.096C381.638 468.903 382.644 469.002 383.557 469.381C384.471 469.759 385.252 470.4 385.801 471.222C386.351 472.044 386.644 473.011 386.644 474C386.643 475.326 386.116 476.597 385.178 477.534C384.241 478.472 382.97 478.999 381.644 479ZM474 376.644C474.989 376.644 475.956 376.937 476.778 377.487C477.6 378.036 478.241 378.817 478.619 379.731C478.998 380.644 479.097 381.65 478.904 382.619C478.711 383.589 478.235 384.48 477.535 385.18C476.836 385.879 475.945 386.355 474.975 386.548C474.006 386.741 473 386.642 472.087 386.263C471.173 385.885 470.392 385.244 469.843 384.422C469.293 383.6 469 382.633 469 381.644C469.001 380.318 469.528 379.047 470.466 378.11C471.403 377.172 472.674 376.645 474 376.644ZM474 275.168C474.989 275.168 475.956 275.461 476.778 276.011C477.6 276.56 478.241 277.341 478.619 278.255C478.998 279.168 479.097 280.174 478.904 281.143C478.711 282.113 478.235 283.004 477.535 283.703C476.836 284.403 475.945 284.879 474.975 285.072C474.006 285.265 473 285.166 472.087 284.787C471.173 284.409 470.392 283.768 469.843 282.946C469.293 282.124 469 281.157 469 280.168C469.001 278.842 469.528 277.571 470.466 276.634C471.403 275.696 472.674 275.169 474 275.168ZM364 364H148V148H364V364Z" fill="#24292E"/>
<path d="M378 238.84H456.376C458.005 242.951 461.016 246.365 464.891 248.495C468.767 250.625 473.263 251.336 477.607 250.507C481.95 249.678 485.869 247.36 488.687 243.953C491.506 240.545 493.048 236.262 493.048 231.84C493.048 227.418 491.506 223.135 488.687 219.727C485.869 216.32 481.95 214.002 477.607 213.173C473.263 212.344 468.767 213.055 464.891 215.185C461.016 217.315 458.005 220.729 456.376 224.84H378V190.48H428.52C430.376 190.479 432.156 189.741 433.469 188.429C434.781 187.116 435.519 185.336 435.52 183.48V137.36H456.376C458.005 141.471 461.016 144.885 464.891 147.015C468.767 149.145 473.263 149.856 477.607 149.027C481.95 148.198 485.869 145.88 488.687 142.473C491.506 139.065 493.048 134.782 493.048 130.36C493.048 125.938 491.506 121.655 488.687 118.247C485.869 114.84 481.95 112.522 477.607 111.693C473.263 110.864 468.767 111.575 464.891 113.705C461.016 115.835 458.005 119.249 456.376 123.36H428.52C426.664 123.361 424.884 124.099 423.571 125.411C422.259 126.724 421.521 128.504 421.52 130.36V176.48H378V141C377.999 139.144 377.261 137.364 375.949 136.051C374.636 134.739 372.856 134.001 371 134H335.52V90.48H381.64C383.496 90.4789 385.276 89.7411 386.589 88.4285C387.901 87.116 388.639 85.3362 388.64 83.48V55.624C392.749 53.9953 396.161 50.9849 398.289 47.1111C400.417 43.2374 401.128 38.7428 400.299 34.4015C399.47 30.0602 397.153 26.1438 393.747 23.3269C390.341 20.5099 386.06 18.9688 381.64 18.9688C377.22 18.9688 372.939 20.5099 369.533 23.3269C366.127 26.1438 363.81 30.0602 362.981 34.4015C362.152 38.7428 362.863 43.2374 364.991 47.1111C367.119 50.9849 370.531 53.9953 374.64 55.624V76.48H328.52C326.664 76.481 324.884 77.2189 323.571 78.5314C322.259 79.8439 321.521 81.6238 321.52 83.48V134H287.16V55.628C291.269 53.9993 294.681 50.9889 296.809 47.1151C298.937 43.2414 299.648 38.7468 298.819 34.4055C297.99 30.0642 295.673 26.1478 292.267 23.3309C288.861 20.5139 284.58 18.9728 280.16 18.9728C275.74 18.9728 271.459 20.5139 268.053 23.3309C264.647 26.1478 262.33 30.0642 261.501 34.4055C260.672 38.7468 261.383 43.2414 263.511 47.1151C265.639 50.9889 269.051 53.9993 273.16 55.628V134H238.84V55.624C242.951 53.9952 246.365 50.9838 248.495 47.1085C250.625 43.2331 251.336 38.7365 250.507 34.393C249.678 30.0495 247.36 26.131 243.953 23.3126C240.545 20.4942 236.262 18.9521 231.84 18.9521C227.418 18.9521 223.135 20.4942 219.727 23.3126C216.32 26.131 214.002 30.0495 213.173 34.393C212.344 38.7365 213.055 43.2331 215.185 47.1085C217.315 50.9838 220.729 53.9952 224.84 55.624V134H190.48V83.48C190.479 81.6238 189.741 79.8439 188.429 78.5314C187.116 77.2189 185.336 76.481 183.48 76.48H137.36V55.624C141.471 53.9952 144.885 50.9838 147.015 47.1085C149.145 43.2331 149.856 38.7365 149.027 34.393C148.198 30.0495 145.88 26.131 142.473 23.3126C139.065 20.4942 134.782 18.9521 130.36 18.9521C125.938 18.9521 121.655 20.4942 118.247 23.3126C114.84 26.131 112.522 30.0495 111.693 34.393C110.864 38.7365 111.575 43.2331 113.705 47.1085C115.835 50.9838 119.249 53.9952 123.36 55.624V83.48C123.361 85.3362 124.099 87.116 125.411 88.4285C126.724 89.7411 128.504 90.4789 130.36 90.48H176.48V134H141C139.144 134.001 137.364 134.739 136.051 136.051C134.739 137.364 134.001 139.144 134 141V176.48H90.48V130.36C90.4789 128.504 89.7411 126.724 88.4285 125.411C87.116 124.099 85.3362 123.361 83.48 123.36H55.628C53.9992 119.25 50.9883 115.837 47.1138 113.708C43.2393 111.579 38.7436 110.868 34.4012 111.697C30.0588 112.526 26.1414 114.844 23.3237 118.25C20.506 121.657 18.9645 125.939 18.9645 130.36C18.9645 134.781 20.506 139.063 23.3237 142.47C26.1414 145.876 30.0588 148.194 34.4012 149.023C38.7436 149.852 43.2393 149.141 47.1138 147.012C50.9883 144.883 53.9992 141.47 55.628 137.36H76.48V183.48C76.481 185.336 77.2189 187.116 78.5314 188.429C79.8439 189.741 81.6238 190.479 83.48 190.48H134V224.84H55.628C53.9993 220.731 50.9889 217.319 47.1151 215.191C43.2414 213.063 38.7468 212.352 34.4055 213.181C30.0642 214.01 26.1478 216.327 23.3309 219.733C20.5139 223.139 18.9728 227.42 18.9728 231.84C18.9728 236.26 20.5139 240.541 23.3309 243.947C26.1478 247.353 30.0642 249.67 34.4055 250.499C38.7468 251.328 43.2414 250.617 47.1151 248.489C50.9889 246.361 53.9993 242.949 55.628 238.84H134V273.16H55.624C53.9952 269.049 50.9838 265.635 47.1085 263.505C43.2331 261.375 38.7365 260.664 34.393 261.493C30.0495 262.322 26.131 264.64 23.3126 268.047C20.4942 271.455 18.9521 275.738 18.9521 280.16C18.9521 284.582 20.4942 288.865 23.3126 292.273C26.131 295.68 30.0495 297.998 34.393 298.827C38.7365 299.656 43.2331 298.945 47.1085 296.815C50.9838 294.685 53.9952 291.271 55.624 287.16H134V321.52H83.48C81.6238 321.521 79.8439 322.259 78.5314 323.571C77.2189 324.884 76.481 326.664 76.48 328.52V374.64H55.624C53.9952 370.529 50.9838 367.115 47.1085 364.985C43.2331 362.855 38.7365 362.144 34.393 362.973C30.0495 363.802 26.131 366.12 23.3126 369.527C20.4942 372.935 18.9521 377.218 18.9521 381.64C18.9521 386.062 20.4942 390.345 23.3126 393.753C26.131 397.16 30.0495 399.478 34.393 400.307C38.7365 401.136 43.2331 400.425 47.1085 398.295C50.9838 396.165 53.9952 392.751 55.624 388.64H83.48C85.3362 388.639 87.116 387.901 88.4285 386.589C89.7411 385.276 90.4789 383.496 90.48 381.64V335.52H134V371C134.001 372.856 134.739 374.636 136.051 375.949C137.364 377.261 139.144 377.999 141 378H176.48V421.52H130.36C128.504 421.521 126.724 422.259 125.411 423.571C124.099 424.884 123.361 426.664 123.36 428.52V456.376C119.251 458.005 115.839 461.015 113.711 464.889C111.583 468.763 110.872 473.257 111.701 477.598C112.53 481.94 114.847 485.856 118.253 488.673C121.659 491.49 125.94 493.031 130.36 493.031C134.78 493.031 139.061 491.49 142.467 488.673C145.873 485.856 148.19 481.94 149.019 477.598C149.848 473.257 149.137 468.763 147.009 464.889C144.881 461.015 141.469 458.005 137.36 456.376V435.52H183.48C185.336 435.519 187.116 434.781 188.429 433.469C189.741 432.156 190.479 430.376 190.48 428.52V378H224.84V456.372C220.731 458.001 217.319 461.011 215.191 464.885C213.063 468.759 212.352 473.253 213.181 477.594C214.01 481.936 216.327 485.852 219.733 488.669C223.139 491.486 227.42 493.027 231.84 493.027C236.26 493.027 240.541 491.486 243.947 488.669C247.353 485.852 249.67 481.936 250.499 477.594C251.328 473.253 250.617 468.759 248.489 464.885C246.361 461.011 242.949 458.001 238.84 456.372V378H273.16V456.376C269.049 458.005 265.635 461.016 263.505 464.891C261.375 468.767 260.664 473.263 261.493 477.607C262.322 481.95 264.64 485.869 268.047 488.687C271.455 491.506 275.738 493.048 280.16 493.048C284.582 493.048 288.865 491.506 292.273 488.687C295.68 485.869 297.998 481.95 298.827 477.607C299.656 473.263 298.945 468.767 296.815 464.891C294.685 461.016 291.271 458.005 287.16 456.376V378H321.52V428.52C321.521 430.376 322.259 432.156 323.571 433.469C324.884 434.781 326.664 435.519 328.52 435.52H374.64V456.376C370.53 458.005 367.117 461.016 364.988 464.89C362.859 468.765 362.148 473.26 362.977 477.603C363.806 481.945 366.124 485.863 369.53 488.68C372.937 491.498 377.219 493.039 381.64 493.039C386.061 493.039 390.343 491.498 393.75 488.68C397.156 485.863 399.474 481.945 400.303 477.603C401.132 473.26 400.421 468.765 398.292 464.89C396.163 461.016 392.75 458.005 388.64 456.376V428.52C388.639 426.664 387.901 424.884 386.589 423.571C385.276 422.259 383.496 421.521 381.64 421.52H335.52V378H371C372.856 377.999 374.636 377.261 375.949 375.949C377.261 374.636 377.999 372.856 378 371V335.52H421.52V381.64C421.521 383.496 422.259 385.276 423.571 386.589C424.884 387.901 426.664 388.639 428.52 388.64H456.376C458.005 392.749 461.015 396.161 464.889 398.289C468.763 400.417 473.257 401.128 477.598 400.299C481.94 399.47 485.856 397.153 488.673 393.747C491.49 390.341 493.031 386.06 493.031 381.64C493.031 377.22 491.49 372.939 488.673 369.533C485.856 366.127 481.94 363.81 477.598 362.981C473.257 362.152 468.763 362.863 464.889 364.991C461.015 367.119 458.005 370.531 456.376 374.64H435.52V328.52C435.519 326.664 434.781 324.884 433.469 323.571C432.156 322.259 430.376 321.521 428.52 321.52H378V287.16H456.372C458.001 291.269 461.011 294.681 464.885 296.809C468.759 298.937 473.253 299.648 477.594 298.819C481.936 297.99 485.852 295.673 488.669 292.267C491.486 288.861 493.027 284.58 493.027 280.16C493.027 275.74 491.486 271.459 488.669 268.053C485.852 264.647 481.936 262.33 477.594 261.501C473.253 260.672 468.759 261.383 464.885 263.511C461.011 265.639 458.001 269.051 456.372 273.16H378V238.84ZM474 226.84C474.989 226.84 475.956 227.133 476.778 227.683C477.6 228.232 478.241 229.013 478.619 229.927C478.998 230.84 479.097 231.846 478.904 232.815C478.711 233.785 478.235 234.676 477.535 235.376C476.836 236.075 475.945 236.551 474.975 236.744C474.006 236.937 473 236.838 472.087 236.459C471.173 236.081 470.392 235.44 469.843 234.618C469.293 233.796 469 232.829 469 231.84C469 230.513 469.527 229.241 470.464 228.302C471.401 227.363 472.673 226.834 474 226.832V226.84ZM474 125.364C474.989 125.364 475.956 125.657 476.778 126.207C477.6 126.756 478.241 127.537 478.619 128.451C478.998 129.364 479.097 130.37 478.904 131.339C478.711 132.309 478.235 133.2 477.535 133.9C476.836 134.599 475.945 135.075 474.975 135.268C474.006 135.461 473 135.362 472.087 134.983C471.173 134.605 470.392 133.964 469.843 133.142C469.293 132.32 469 131.353 469 130.364C469 129.037 469.527 127.765 470.464 126.826C471.401 125.887 472.673 125.358 474 125.356V125.364ZM381.644 33C382.633 33 383.6 33.2932 384.422 33.8426C385.244 34.392 385.885 35.1729 386.263 36.0866C386.642 37.0002 386.741 38.0055 386.548 38.9754C386.355 39.9453 385.879 40.8362 385.18 41.5355C384.48 42.2348 383.589 42.711 382.619 42.9039C381.65 43.0968 380.644 42.9978 379.731 42.6194C378.817 42.2409 378.036 41.6001 377.487 40.7778C376.937 39.9556 376.644 38.9889 376.644 38C376.646 36.6745 377.174 35.404 378.111 34.4668C379.048 33.5296 380.319 33.0021 381.644 33ZM280.168 33C281.157 33 282.124 33.2932 282.946 33.8426C283.768 34.392 284.409 35.1729 284.787 36.0866C285.166 37.0002 285.265 38.0055 285.072 38.9754C284.879 39.9453 284.403 40.8362 283.703 41.5355C283.004 42.2348 282.113 42.711 281.143 42.9039C280.174 43.0968 279.168 42.9978 278.255 42.6194C277.341 42.2409 276.56 41.6001 276.011 40.7778C275.461 39.9556 275.168 38.9889 275.168 38C275.17 36.6745 275.698 35.404 276.635 34.4668C277.572 33.5296 278.843 33.0021 280.168 33ZM231.832 33C232.821 33 233.788 33.2932 234.61 33.8426C235.432 34.392 236.073 35.1729 236.451 36.0866C236.83 37.0002 236.929 38.0055 236.736 38.9754C236.543 39.9453 236.067 40.8362 235.368 41.5355C234.668 42.2348 233.777 42.711 232.807 42.9039C231.838 43.0968 230.832 42.9978 229.919 42.6194C229.005 42.2409 228.224 41.6001 227.675 40.7778C227.125 39.9556 226.832 38.9889 226.832 38C226.833 36.6742 227.36 35.4031 228.298 34.4656C229.235 33.5282 230.506 33.001 231.832 33ZM130.356 33C131.345 33 132.312 33.2932 133.134 33.8426C133.956 34.392 134.597 35.1729 134.975 36.0866C135.354 37.0002 135.453 38.0055 135.26 38.9754C135.067 39.9453 134.591 40.8362 133.892 41.5355C133.192 42.2348 132.301 42.711 131.331 42.9039C130.362 43.0968 129.356 42.9978 128.443 42.6194C127.529 42.2409 126.748 41.6001 126.199 40.7778C125.649 39.9556 125.356 38.9889 125.356 38C125.357 36.6742 125.884 35.4031 126.822 34.4656C127.759 33.5282 129.03 33.001 130.356 33ZM38 135.356C37.0111 135.356 36.0444 135.063 35.2221 134.513C34.3999 133.964 33.759 133.183 33.3806 132.269C33.0021 131.356 32.9031 130.35 33.096 129.381C33.289 128.411 33.7652 127.52 34.4644 126.82C35.1637 126.121 36.0546 125.645 37.0245 125.452C37.9944 125.259 38.9998 125.358 39.9134 125.737C40.827 126.115 41.6079 126.756 42.1573 127.578C42.7067 128.4 43 129.367 43 130.356C42.9989 131.682 42.4718 132.953 41.5343 133.89C40.5969 134.828 39.3257 135.355 38 135.356ZM38 236.832C37.0111 236.832 36.0444 236.539 35.2221 235.989C34.3999 235.44 33.759 234.659 33.3806 233.745C33.0021 232.832 32.9031 231.826 33.096 230.857C33.289 229.887 33.7652 228.996 34.4644 228.296C35.1637 227.597 36.0546 227.121 37.0245 226.928C37.9944 226.735 38.9998 226.834 39.9134 227.213C40.827 227.591 41.6079 228.232 42.1573 229.054C42.7067 229.876 43 230.843 43 231.832C42.9989 233.158 42.4718 234.429 41.5343 235.366C40.5969 236.304 39.3257 236.831 38 236.832ZM38 285.168C37.0111 285.168 36.0444 284.875 35.2221 284.325C34.3999 283.776 33.759 282.995 33.3806 282.081C33.0021 281.168 32.9031 280.162 33.096 279.193C33.289 278.223 33.7652 277.332 34.4644 276.632C35.1637 275.933 36.0546 275.457 37.0245 275.264C37.9944 275.071 38.9998 275.17 39.9134 275.549C40.827 275.927 41.6079 276.568 42.1573 277.39C42.7067 278.212 43 279.179 43 280.168C42.9979 281.493 42.4704 282.764 41.5332 283.701C40.5959 284.638 39.3254 285.166 38 285.168ZM38 386.644C37.0111 386.644 36.0444 386.351 35.2221 385.801C34.3999 385.252 33.759 384.471 33.3806 383.557C33.0021 382.644 32.9031 381.638 33.096 380.669C33.289 379.699 33.7652 378.808 34.4644 378.108C35.1637 377.409 36.0546 376.933 37.0245 376.74C37.9944 376.547 38.9998 376.646 39.9134 377.025C40.827 377.403 41.6079 378.044 42.1573 378.866C42.7067 379.688 43 380.655 43 381.644C42.9979 382.969 42.4704 384.24 41.5332 385.177C40.5959 386.114 39.3254 386.642 38 386.644ZM130.356 479C129.367 479 128.4 478.707 127.578 478.157C126.756 477.608 126.115 476.827 125.737 475.913C125.358 475 125.259 473.994 125.452 473.025C125.645 472.055 126.121 471.164 126.82 470.464C127.52 469.765 128.411 469.289 129.381 469.096C130.35 468.903 131.356 469.002 132.269 469.381C133.183 469.759 133.964 470.4 134.513 471.222C135.063 472.044 135.356 473.011 135.356 474C135.354 475.325 134.826 476.596 133.889 477.533C132.952 478.47 131.681 478.998 130.356 479ZM231.832 479C230.843 479 229.876 478.707 229.054 478.157C228.232 477.608 227.591 476.827 227.213 475.913C226.834 475 226.735 473.994 226.928 473.025C227.121 472.055 227.597 471.164 228.296 470.464C228.996 469.765 229.887 469.289 230.857 469.096C231.826 468.903 232.832 469.002 233.745 469.381C234.659 469.759 235.44 470.4 235.989 471.222C236.539 472.044 236.832 473.011 236.832 474C236.83 475.325 236.302 476.596 235.365 477.533C234.428 478.47 233.157 478.998 231.832 479ZM280.168 479C279.179 479 278.212 478.707 277.39 478.157C276.568 477.608 275.927 476.827 275.549 475.913C275.17 475 275.071 473.994 275.264 473.025C275.457 472.055 275.933 471.164 276.632 470.464C277.332 469.765 278.223 469.289 279.193 469.096C280.162 468.903 281.168 469.002 282.081 469.381C282.995 469.759 283.776 470.4 284.325 471.222C284.875 472.044 285.168 473.011 285.168 474C285.167 475.326 284.64 476.597 283.702 477.534C282.765 478.472 281.494 478.999 280.168 479ZM381.644 479C380.655 479 379.688 478.707 378.866 478.157C378.044 477.608 377.403 476.827 377.025 475.913C376.646 475 376.547 473.994 376.74 473.025C376.933 472.055 377.409 471.164 378.108 470.464C378.808 469.765 379.699 469.289 380.669 469.096C381.638 468.903 382.644 469.002 383.557 469.381C384.471 469.759 385.252 470.4 385.801 471.222C386.351 472.044 386.644 473.011 386.644 474C386.643 475.326 386.116 476.597 385.178 477.534C384.241 478.472 382.97 478.999 381.644 479ZM474 376.644C474.989 376.644 475.956 376.937 476.778 377.487C477.6 378.036 478.241 378.817 478.619 379.731C478.998 380.644 479.097 381.65 478.904 382.619C478.711 383.589 478.235 384.48 477.535 385.18C476.836 385.879 475.945 386.355 474.975 386.548C474.006 386.741 473 386.642 472.087 386.263C471.173 385.885 470.392 385.244 469.843 384.422C469.293 383.6 469 382.633 469 381.644C469.001 380.318 469.528 379.047 470.466 378.11C471.403 377.172 472.674 376.645 474 376.644ZM474 275.168C474.989 275.168 475.956 275.461 476.778 276.011C477.6 276.56 478.241 277.341 478.619 278.255C478.998 279.168 479.097 280.174 478.904 281.143C478.711 282.113 478.235 283.004 477.535 283.703C476.836 284.403 475.945 284.879 474.975 285.072C474.006 285.265 473 285.166 472.087 284.787C471.173 284.409 470.392 283.768 469.843 282.946C469.293 282.124 469 281.157 469 280.168C469.001 278.842 469.528 277.571 470.466 276.634C471.403 275.696 472.674 275.169 474 275.168ZM364 364H148V148H364V364Z" stroke="white" stroke-width="10" mask="url(#path-2-outside-1)"/>
</g>
<path d="M176 188H257.277V219.193H208.003V249.064H257.277V279.993H208.003V340H176V188ZM351 219.193V188H269.723V219.193H351ZM310.869 279.993V249.064H269.723V279.993H310.869Z" fill="#24292E"/>
<path d="M176 188H257.277V219.193H208.003V249.064H257.277V279.993H208.003V340H176V188ZM351 219.193V188H269.723V219.193H351ZM310.869 279.993V249.064H269.723V279.993H310.869Z" fill="#24292E"/>
<path d="M176 188H257.277V219.193H208.003V249.064H257.277V279.993H208.003V340H176V188ZM351 219.193V188H269.723V219.193H351ZM310.869 279.993V249.064H269.723V279.993H310.869Z" stroke="white" stroke-width="5"/>
<defs>
<filter id="filter0_d" x="9.95215" y="13.9521" width="492.096" height="492.096" filterUnits="userSpaceOnUse" color-interpolation-filters="sRGB">
<feFlood flood-opacity="0" result="BackgroundImageFix"/>
<feColorMatrix in="SourceAlpha" type="matrix" values="0 0 0 0 0 0 0 0 0 0 0 0 0 0 0 0 0 0 127 0"/>
<feOffset dy="4"/>
<feGaussianBlur stdDeviation="2"/>
<feColorMatrix type="matrix" values="0 0 0 0 0 0 0 0 0 0 0 0 0 0 0 0 0 0 0.25 0"/>
<feBlend mode="normal" in2="BackgroundImageFix" result="effect1_dropShadow"/>
<feBlend mode="normal" in="SourceGraphic" in2="effect1_dropShadow" result="shape"/>
</filter>
</defs>
</svg>
