<svg width="664" height="762" viewBox="0 0 664 762" fill="none" xmlns="http://www.w3.org/2000/svg">
<g clip-path="url(#clip0)">
<path d="M342.5 279.64H333.04V285.95H342.5V279.64Z" fill="#B0BEC5"/>
<path d="M355.11 279.64H345.65V285.95H355.11V279.64Z" fill="#B0BEC5"/>
<path d="M367.73 279.64H358.27V285.95H367.73V279.64Z" fill="#B0BEC5"/>
<path d="M380.34 279.64H370.88V285.95H380.34V279.64Z" fill="#B0BEC5"/>
<path d="M392.96 279.64H383.5V285.95H392.96V279.64Z" fill="#B0BEC5"/>
<path d="M405.58 279.64H396.12V285.95H405.58V279.64Z" fill="#B0BEC5"/>
<path d="M418.19 279.64H408.73V285.95H418.19V279.64Z" fill="#B0BEC5"/>
<path d="M430.81 279.64H421.35V285.95H430.81V279.64Z" fill="#B0BEC5"/>
<path d="M443.42 279.64H433.96V285.95H443.42V279.64Z" fill="#B0BEC5"/>
<path d="M456.04 279.64H446.58V285.95H456.04V279.64Z" fill="#B0BEC5"/>
<path d="M663.17 284.02H256.14V738.31H663.17V284.02Z" fill="url(#paint0_linear)"/>
<path d="M656.45 587.33H262.87V728.42H656.45V587.33Z" fill="#ECEFF1"/>
<path d="M310.42 620.8H295.17V693.09H310.42V620.8Z" fill="#24292E"/>
<g opacity="0.7">
<path opacity="0.7" d="M340.53 620.8H325.28V693.09H340.53V620.8Z" fill="#24292E"/>
</g>
<g opacity="0.6">
<path opacity="0.6" d="M370.64 620.8H355.39V693.09H370.64V620.8Z" fill="#24292E"/>
</g>
<g opacity="0.5">
<path opacity="0.5" d="M400.75 620.8H385.5V693.09H400.75V620.8Z" fill="#24292E"/>
</g>
<g opacity="0.5">
<path opacity="0.5" d="M430.86 620.8H415.61V693.09H430.86V620.8Z" fill="#24292E"/>
</g>
<g opacity="0.4">
<path opacity="0.4" d="M460.97 620.8H445.72V693.09H460.97V620.8Z" fill="#24292E"/>
</g>
<g opacity="0.3">
<path opacity="0.3" d="M491.07 620.8H475.82V693.09H491.07V620.8Z" fill="#24292E"/>
</g>
<path d="M656.45 440.75H262.87V581.84H656.45V440.75Z" fill="#ECEFF1"/>
<path d="M310.42 474.22H295.17V546.51H310.42V474.22Z" fill="#24292E"/>
<g opacity="0.7">
<path opacity="0.7" d="M340.53 474.22H325.28V546.51H340.53V474.22Z" fill="#24292E"/>
</g>
<g opacity="0.6">
<path opacity="0.6" d="M370.64 474.22H355.39V546.51H370.64V474.22Z" fill="#24292E"/>
</g>
<g opacity="0.5">
<path opacity="0.5" d="M400.75 474.22H385.5V546.51H400.75V474.22Z" fill="#24292E"/>
</g>
<g opacity="0.5">
<path opacity="0.5" d="M430.86 474.22H415.61V546.51H430.86V474.22Z" fill="#24292E"/>
</g>
<g opacity="0.4">
<path opacity="0.4" d="M460.97 474.22H445.72V546.51H460.97V474.22Z" fill="#24292E"/>
</g>
<g opacity="0.3">
<path opacity="0.3" d="M491.07 474.22H475.82V546.51H491.07V474.22Z" fill="#24292E"/>
</g>
<path d="M656.45 294.18H262.87V435.27H656.45V294.18Z" fill="#ECEFF1"/>
<path d="M546.95 343.556H570.829V353.205H556.352V362.446H570.829V372.014H556.352V390.578H546.95V343.556ZM598.365 353.205V343.556H574.486V353.205H598.365ZM586.574 372.014V362.446H574.486V372.014H586.574Z" fill="#24292E"/>
<path d="M546.95 343.556H570.829V353.205H556.352V362.446H570.829V372.014H556.352V390.578H546.95V343.556ZM598.365 353.205V343.556H574.486V353.205H598.365ZM586.574 372.014V362.446H574.486V372.014H586.574Z" fill="#24292E"/>
<path d="M546.95 485.556H570.829V495.205H556.352V504.446H570.829V514.014H556.352V532.578H546.95V485.556ZM598.365 495.205V485.556H574.486V495.205H598.365ZM586.574 514.014V504.446H574.486V514.014H586.574Z" fill="#24292E"/>
<path d="M546.95 485.556H570.829V495.205H556.352V504.446H570.829V514.014H556.352V532.578H546.95V485.556ZM598.365 495.205V485.556H574.486V495.205H598.365ZM586.574 514.014V504.446H574.486V514.014H586.574Z" fill="#24292E"/>
<path d="M546.95 640.556H570.829V650.205H556.352V659.446H570.829V669.014H556.352V687.578H546.95V640.556ZM598.365 650.205V640.556H574.486V650.205H598.365ZM586.574 669.014V659.446H574.486V669.014H586.574Z" fill="#24292E"/>
<path d="M546.95 640.556H570.829V650.205H556.352V659.446H570.829V669.014H556.352V687.578H546.95V640.556ZM598.365 650.205V640.556H574.486V650.205H598.365ZM586.574 669.014V659.446H574.486V669.014H586.574Z" fill="#24292E"/>
<path d="M310.42 327.64H295.17V399.93H310.42V327.64Z" fill="#24292E"/>
<g opacity="0.7">
<path opacity="0.7" d="M340.53 327.64H325.28V399.93H340.53V327.64Z" fill="#24292E"/>
</g>
<g opacity="0.6">
<path opacity="0.6" d="M370.64 327.64H355.39V399.93H370.64V327.64Z" fill="#24292E"/>
</g>
<g opacity="0.5">
<path opacity="0.5" d="M400.75 327.64H385.5V399.93H400.75V327.64Z" fill="#24292E"/>
</g>
<g opacity="0.5">
<path opacity="0.5" d="M430.86 327.64H415.61V399.93H430.86V327.64Z" fill="#24292E"/>
</g>
<g opacity="0.4">
<path opacity="0.4" d="M460.97 327.64H445.72V399.93H460.97V327.64Z" fill="#24292E"/>
</g>
<g opacity="0.3">
<path opacity="0.3" d="M491.07 327.64H475.82V399.93H491.07V327.64Z" fill="#24292E"/>
</g>
<path d="M471.81 300.67H326.45C325.124 300.67 323.852 300.143 322.914 299.206C321.977 298.268 321.45 296.996 321.45 295.67V287.75C321.45 286.424 321.977 285.152 322.914 284.214C323.852 283.277 325.124 282.75 326.45 282.75H471.81V300.67Z" fill="url(#paint1_linear)"/>
<path d="M471.81 298.56H329.08C327.754 298.56 326.482 298.033 325.544 297.096C324.607 296.158 324.08 294.886 324.08 293.56V288.79C324.08 287.464 324.607 286.192 325.544 285.254C326.482 284.317 327.754 283.79 329.08 283.79H471.81V298.56Z" fill="#B0BEC5"/>
<path d="M101.39 203.22L206.39 296.1L328.39 270.33L318.94 242.84L224.4 254L129.81 171C127.547 169.013 124.891 167.525 122.015 166.63C119.14 165.736 116.108 165.456 113.117 165.809C110.127 166.161 107.243 167.139 104.655 168.677C102.066 170.216 99.8292 172.281 98.09 174.74V174.74C95.0383 179.061 93.6876 184.356 94.2964 189.611C94.9053 194.866 97.431 199.711 101.39 203.22V203.22Z" fill="url(#paint2_linear)"/>
<path d="M328.33 270.33C328.33 270.33 359.45 271.19 370.95 254.01C382.45 236.83 318.88 242.84 318.88 242.84L328.33 270.33Z" fill="url(#paint3_linear)"/>
<path d="M87.62 142.68C117.51 142.68 141.74 118.45 141.74 88.56C141.74 58.6704 117.51 34.44 87.62 34.44C57.7304 34.44 33.5 58.6704 33.5 88.56C33.5 118.45 57.7304 142.68 87.62 142.68Z" fill="url(#paint4_linear)"/>
<path d="M65.29 147.83C65.29 147.83 -4.21003 194.63 13.44 339.31C15.5891 356.788 14.0701 374.522 8.97998 391.38L-0.0200195 420.98C-0.0200195 420.98 152.88 424.42 157.17 420.98C159.83 418.85 157.76 364.33 150.3 288.7C145.73 242.37 160.06 177.92 110.79 142.7L65.29 147.83Z" fill="url(#paint5_linear)"/>
<path d="M157.19 419.27L225.05 562.72L232.78 708.74H184.68L164.06 557.56L122.83 484.55L81.6 708.74H33.5L48.1 542.1L0 420.99L157.19 419.27Z" fill="url(#paint6_linear)"/>
<path d="M232.79 708.74L247.39 731.07C247.39 731.07 296.39 749.97 274.88 761.99H181.25V708.74H232.79Z" fill="url(#paint7_linear)"/>
<path d="M80.75 708.74L95.35 731.07C95.35 731.07 144.35 749.97 122.84 761.99H29.21V708.74H80.75Z" fill="url(#paint8_linear)"/>
<g opacity="0.2">
<path opacity="0.2" d="M88.4801 33.59C79.1366 33.5709 69.949 35.9833 61.8201 40.59C74.5378 35.0509 88.897 34.6076 101.932 39.3516C114.967 44.0957 125.683 53.6647 131.865 66.0823C138.048 78.4999 139.225 92.8177 135.154 106.079C131.083 119.339 122.075 130.53 109.99 137.34C121.41 132.392 130.776 123.66 136.51 112.614C142.244 101.568 143.995 88.8829 141.47 76.6962C138.944 64.5095 132.295 53.5658 122.643 45.7086C112.991 37.8514 100.926 33.561 88.4801 33.56V33.59Z" fill="url(#paint9_linear)"/>
</g>
<path d="M153.41 0L138.35 23C132.94 31.27 125.08 40.66 115.35 38.74C110.83 37.85 107.21 34.59 103.6 31.74C91.7901 22.36 77.1801 16 62.1001 15.91C47.0201 15.82 31.5901 22.61 23.1001 35.06C16.8101 44.25 14.6401 55.59 13.4001 66.65C10.9101 88.77 13.4001 114.88 31.8701 127.3C33.3616 128.489 35.2032 129.153 37.1101 129.19C39.1101 129.06 40.7301 127.79 42.2301 126.53C65.3501 107.16 78.2301 75.66 106.07 62.36C118.36 56.5 136.24 56.45 146.15 46.49C160.75 31.85 144.59 13.47 153.41 0Z" fill="url(#paint10_linear)"/>
<g opacity="0.2">
<path opacity="0.2" d="M97.5901 31.74C101.2 34.61 104.81 37.87 109.34 38.74C111.18 39.1048 113.076 39.0673 114.9 38.63C110.59 37.63 107.1 34.48 103.61 31.72C91.8 22.34 77.19 15.98 62.11 15.89C61.05 15.89 60.0001 15.89 58.9401 15.98C73.0401 16.81 86.5901 23 97.5901 31.74Z" fill="url(#paint11_linear)"/>
<path opacity="0.2" d="M153.41 0L144.72 13.29C145.55 24.22 150.35 36.29 140.17 46.49C130.25 56.49 112.37 56.49 100.09 62.36C72.2201 75.66 59.3601 107.17 36.2501 126.53C35.4574 127.224 34.6002 127.84 33.6901 128.37C34.7457 128.948 35.9373 129.231 37.14 129.19C39.14 129.06 40.7601 127.79 42.2601 126.53C65.3801 107.16 78.2601 75.66 106.1 62.36C118.39 56.5 136.27 56.45 146.18 46.49C160.75 31.85 144.59 13.47 153.41 0Z" fill="url(#paint12_linear)"/>
</g>
<g opacity="0.2">
<path opacity="0.2" d="M150.33 288.71C145.76 242.38 160.09 177.93 110.82 142.71L100.39 143.89C147.74 179.37 133.79 242.89 138.31 288.73C145.77 364.36 147.85 418.88 145.18 421.01C143.87 422.01 128.74 422.47 108.35 422.53C134.58 422.6 155.65 422.26 157.21 421.01C159.86 418.86 157.78 364.34 150.33 288.71Z" fill="url(#paint13_linear)"/>
</g>
<path d="M71.13 221.59L176.13 314.47L298.13 288.7L288.59 261.22L194.1 272.39L99.51 189.39C97.2467 187.403 94.591 185.915 91.7154 185.02C88.8397 184.126 85.8082 183.846 82.8174 184.199C79.8266 184.551 76.9433 185.529 74.3545 187.067C71.7657 188.606 69.5292 190.671 67.79 193.13V193.13C64.7487 197.454 63.4079 202.747 64.0241 207.998C64.6403 213.248 67.1702 218.088 71.13 221.59V221.59Z" fill="url(#paint14_linear)"/>
<path d="M298.07 288.71C298.07 288.71 329.19 289.57 340.69 272.39C352.19 255.21 288.59 261.22 288.59 261.22L298.07 288.71Z" fill="url(#paint15_linear)"/>
<path d="M90.33 119.49H84.89C73.5848 119.49 64.42 128.655 64.42 139.96V145.4C64.42 156.705 73.5848 165.87 84.89 165.87H90.33C101.635 165.87 110.8 156.705 110.8 145.4V139.96C110.8 128.655 101.635 119.49 90.33 119.49Z" fill="url(#paint16_linear)"/>
<g opacity="0.2">
<path opacity="0.2" d="M113.38 484.55L72.15 708.74H81.6L120.51 497.17L113.38 484.55Z" fill="url(#paint17_linear)"/>
<path opacity="0.2" d="M225.05 562.72L157.19 419.27L147.79 419.37L215.6 562.72L223.33 708.74H232.78L225.05 562.72Z" fill="url(#paint18_linear)"/>
</g>
<g opacity="0.2">
<path opacity="0.2" d="M247.39 731.08L232.79 708.75H228.49L243.09 731.08C243.09 731.08 292.06 750 270.59 762H274.88C296.35 750 247.39 731.08 247.39 731.08Z" fill="url(#paint19_linear)"/>
</g>
<g opacity="0.2">
<path opacity="0.2" d="M99.65 731.08L85.05 708.75H80.76L95.36 731.08C95.36 731.08 144.36 749.98 122.85 762H127.14C148.59 750 99.65 731.08 99.65 731.08Z" fill="url(#paint20_linear)"/>
</g>
<g opacity="0.2">
<path opacity="0.2" d="M304.19 265.68L302.36 260.36L214.71 270.72L304.19 265.68Z" fill="url(#paint21_linear)"/>
</g>
<path d="M43.17 220.58L72.36 165.45L121 183.83L72.36 254.09L43.17 220.58Z" fill="url(#paint22_linear)"/>
<path d="M103.72 208.09L205.81 298.43L324.44 273.37L315.25 246.64L223.35 257.5L131.35 176.74C129.149 174.808 126.566 173.36 123.769 172.491C120.972 171.621 118.023 171.349 115.115 171.692C112.206 172.035 109.402 172.986 106.884 174.483C104.366 175.98 102.191 177.989 100.5 180.38V180.38C97.5299 184.585 96.2161 189.737 96.8103 194.851C97.4045 199.964 99.8649 204.679 103.72 208.09V208.09Z" fill="#CA7070"/>
<path d="M324.44 273.36C324.44 273.36 354.71 274.2 365.89 257.49C377.07 240.78 315.25 246.63 315.25 246.63L324.44 273.36Z" fill="#CA7070"/>
<path d="M90.3199 149.21C119.387 149.21 142.95 125.647 142.95 96.58C142.95 67.5133 119.387 43.95 90.3199 43.95C61.2532 43.95 37.6899 67.5133 37.6899 96.58C37.6899 125.647 61.2532 149.21 90.3199 149.21Z" fill="#CA7070"/>
<path d="M68.59 154.22C68.59 154.22 0.989973 199.74 18.16 340.46C20.2505 357.461 18.7723 374.712 13.82 391.11L5.09998 419.9C5.09998 419.9 153.81 423.24 157.99 419.9C160.58 417.83 158.56 364.8 151.31 291.24C146.87 246.18 160.8 183.49 112.88 149.24L68.59 154.22Z" fill="#263238"/>
<path d="M157.99 418.22L223.99 557.74L231.5 699.76H184.72L164.67 552.73L124.57 481.71L84.47 699.76H37.68L51.88 537.69L5.09998 419.89L157.99 418.22Z" fill="#5CAADE"/>
<path d="M231.51 699.76L245.71 721.48C245.71 721.48 293.33 739.86 272.44 751.56H181.38V699.76H231.51Z" fill="#263238"/>
<path d="M83.59 699.76L97.79 721.48C97.79 721.48 145.41 739.86 124.52 751.56H33.51V699.76H83.59Z" fill="#263238"/>
<path opacity="0.2" d="M91.16 43.11C82.0695 43.1009 73.1332 45.4582 65.23 49.95C77.5731 44.6945 91.4573 44.3509 104.045 48.9895C116.633 53.6281 126.975 62.8986 132.957 74.9067C138.938 86.9147 140.108 100.754 136.228 113.596C132.348 126.438 123.71 137.313 112.08 144C123.18 139.183 132.282 130.69 137.854 119.949C143.426 109.207 145.127 96.8747 142.671 85.0263C140.215 73.1778 133.752 62.5372 124.37 54.8955C114.988 47.2538 103.26 43.0777 91.16 43.07V43.11Z" fill="white"/>
<path d="M154.3 10.44L139.66 32.83C134.4 40.83 126.76 50 117.33 48.14C112.93 47.27 109.42 44.14 105.91 41.31C94.41 32.19 80.21 26 65.59 25.91C50.97 25.82 35.92 32.43 27.59 44.53C21.48 53.46 19.37 64.53 18.15 75.26C15.73 96.77 18.15 122.17 36.15 134.26C37.6003 135.411 39.3886 136.054 41.24 136.09C43.14 135.96 44.76 134.73 46.24 133.5C68.72 114.67 81.24 84.02 108.34 71.09C120.29 65.39 137.68 65.34 147.34 55.66C161.45 41.42 145.73 23.54 154.3 10.44Z" fill="#263238"/>
<g opacity="0.2">
<path opacity="0.2" d="M100.05 41.31C103.56 44.1 107.05 47.31 111.47 48.14C113.26 48.496 115.105 48.4619 116.88 48.04C112.69 47.04 109.29 44.04 105.88 41.32C94.41 32.19 80.21 26 65.59 25.91C64.59 25.91 63.54 25.91 62.51 26C76.14 26.79 89.29 32.76 100.05 41.31Z" fill="white"/>
<path opacity="0.2" d="M154.3 10.44L145.84 23.37C146.64 34 151.32 45.71 141.41 55.66C131.76 65.34 114.41 65.39 102.41 71.09C75.3001 84.02 62.8001 114.67 40.3101 133.5C39.5393 134.175 38.7055 134.774 37.8201 135.29C38.8448 135.852 40.0019 136.128 41.17 136.09C43.07 135.96 44.69 134.73 46.17 133.5C68.65 114.67 81.17 84.02 108.27 71.09C120.22 65.39 137.61 65.34 147.27 55.66C161.45 41.42 145.73 23.54 154.3 10.44Z" fill="white"/>
</g>
<path opacity="0.2" d="M151.31 291.23C146.87 246.17 160.8 183.48 112.88 149.23L102.74 150.38C148.79 184.89 135.22 246.69 139.62 291.26C146.87 364.82 148.89 417.85 146.3 419.92C145.03 420.92 130.3 421.34 110.48 421.4C136 421.47 156.48 421.13 158 419.92C160.59 417.82 158.59 364.8 151.31 291.23Z" fill="white"/>
<path d="M74.28 226L176.37 316.3L295 291.24L285.81 264.51L193.91 275.37L101.91 194.61C99.7087 192.678 97.1258 191.23 94.3289 190.361C91.532 189.491 88.5835 189.219 85.6747 189.562C82.7659 189.905 79.9617 190.856 77.444 192.353C74.9263 193.85 72.7513 195.859 71.06 198.25V198.25C68.0786 202.458 66.7581 207.619 67.3525 212.742C67.9469 217.865 70.4143 222.587 74.28 226V226Z" fill="#CA7070"/>
<path d="M295 291.23C295 291.23 325.27 292.07 336.45 275.36C347.63 258.65 285.81 264.5 285.81 264.5L295 291.23Z" fill="#CA7070"/>
<path d="M92.4 126.65H88.23C76.9247 126.65 67.76 135.815 67.76 147.12V151.29C67.76 162.595 76.9247 171.76 88.23 171.76H92.4C103.705 171.76 112.87 162.595 112.87 151.29V147.12C112.87 135.815 103.705 126.65 92.4 126.65Z" fill="#CA7070"/>
<g opacity="0.2">
<path opacity="0.2" d="M115.38 481.71L75.28 699.76H84.47L122.31 493.99L115.38 481.71Z" fill="white"/>
<path opacity="0.2" d="M223.99 557.74L157.99 418.22L148.84 418.32L214.8 557.74L222.31 699.76H231.5L223.99 557.74Z" fill="white"/>
</g>
<path opacity="0.2" d="M245.71 721.49L231.51 699.77H227.33L241.53 721.49C241.53 721.49 289.15 739.87 268.26 751.57H272.44C293.33 739.87 245.71 721.49 245.71 721.49Z" fill="white"/>
<path opacity="0.2" d="M102.02 721.49L87.82 699.77H83.59L97.79 721.49C97.79 721.49 145.41 739.87 124.52 751.57H128.7C149.59 739.87 102.02 721.49 102.02 721.49Z" fill="white"/>
<path opacity="0.2" d="M300.95 268.84L299.18 263.67L213.93 273.74L300.95 268.84Z" fill="white"/>
<path d="M47.09 224.97L75.47 171.36L122.78 189.23L75.47 257.56L47.09 224.97Z" fill="#263238"/>
<path d="M461.83 285.36L547.83 168.42C548.219 167.89 548.71 167.442 549.273 167.102C549.835 166.762 550.46 166.536 551.11 166.438C551.76 166.339 552.424 166.37 553.062 166.528C553.7 166.687 554.301 166.969 554.83 167.36L558.83 170.31C559.36 170.699 559.808 171.19 560.148 171.753C560.488 172.315 560.714 172.94 560.812 173.59C560.911 174.24 560.88 174.904 560.722 175.542C560.563 176.18 560.281 176.781 559.89 177.31L473.89 294.25L461.83 285.36Z" fill="url(#paint23_linear)"/>
<path d="M463.54 286.61L548.08 171.61C548.47 171.08 548.96 170.632 549.523 170.292C550.085 169.952 550.71 169.726 551.36 169.628C552.01 169.529 552.674 169.56 553.312 169.718C553.95 169.877 554.551 170.159 555.08 170.55L555.49 170.85C556.02 171.24 556.468 171.73 556.808 172.293C557.148 172.855 557.374 173.48 557.472 174.13C557.571 174.78 557.54 175.444 557.382 176.082C557.223 176.72 556.941 177.321 556.55 177.85L472.01 292.85L463.54 286.61Z" fill="#B0BEC5"/>
</g>
<defs>
<linearGradient id="paint0_linear" x1="459.65" y1="738.32" x2="459.65" y2="284.02" gradientUnits="userSpaceOnUse">
<stop stop-color="#808080" stop-opacity="0.25"/>
<stop offset="0.54" stop-color="#808080" stop-opacity="0.12"/>
<stop offset="1" stop-color="#808080" stop-opacity="0.1"/>
</linearGradient>
<linearGradient id="paint1_linear" x1="100320" y1="6907.24" x2="100320" y2="6586.83" gradientUnits="userSpaceOnUse">
<stop stop-color="#808080" stop-opacity="0.25"/>
<stop offset="0.54" stop-color="#808080" stop-opacity="0.12"/>
<stop offset="1" stop-color="#808080" stop-opacity="0.1"/>
</linearGradient>
<linearGradient id="paint2_linear" x1="112446" y1="47788.9" x2="112446" y2="30770.6" gradientUnits="userSpaceOnUse">
<stop stop-color="#808080" stop-opacity="0.25"/>
<stop offset="0.54" stop-color="#808080" stop-opacity="0.12"/>
<stop offset="1" stop-color="#808080" stop-opacity="0.1"/>
</linearGradient>
<linearGradient id="paint3_linear" x1="33145.2" y1="9918.27" x2="33145.2" y2="9105.01" gradientUnits="userSpaceOnUse">
<stop stop-color="#808080" stop-opacity="0.25"/>
<stop offset="0.54" stop-color="#808080" stop-opacity="0.12"/>
<stop offset="1" stop-color="#808080" stop-opacity="0.1"/>
</linearGradient>
<linearGradient id="paint4_linear" x1="9517.49" y1="15478.1" x2="9517.49" y2="3763.31" gradientUnits="userSpaceOnUse">
<stop stop-color="#808080" stop-opacity="0.25"/>
<stop offset="0.54" stop-color="#808080" stop-opacity="0.12"/>
<stop offset="1" stop-color="#808080" stop-opacity="0.1"/>
</linearGradient>
<linearGradient id="paint5_linear" x1="55019.5" y1="137672" x2="55019.5" y2="59372.6" gradientUnits="userSpaceOnUse">
<stop stop-color="#808080" stop-opacity="0.25"/>
<stop offset="0.54" stop-color="#808080" stop-opacity="0.12"/>
<stop offset="1" stop-color="#808080" stop-opacity="0.1"/>
</linearGradient>
<linearGradient id="paint6_linear" x1="27093.3" y1="205578" x2="27093.3" y2="121785" gradientUnits="userSpaceOnUse">
<stop stop-color="#808080" stop-opacity="0.25"/>
<stop offset="0.54" stop-color="#808080" stop-opacity="0.12"/>
<stop offset="1" stop-color="#808080" stop-opacity="0.1"/>
</linearGradient>
<linearGradient id="paint7_linear" x1="49646.4" y1="44959.5" x2="49646.4" y2="42123.4" gradientUnits="userSpaceOnUse">
<stop stop-color="#808080" stop-opacity="0.25"/>
<stop offset="0.54" stop-color="#808080" stop-opacity="0.12"/>
<stop offset="1" stop-color="#808080" stop-opacity="0.1"/>
</linearGradient>
<linearGradient id="paint8_linear" x1="34428.9" y1="44959.5" x2="34428.9" y2="42123.4" gradientUnits="userSpaceOnUse">
<stop stop-color="#808080" stop-opacity="0.25"/>
<stop offset="0.54" stop-color="#808080" stop-opacity="0.12"/>
<stop offset="1" stop-color="#808080" stop-opacity="0.1"/>
</linearGradient>
<linearGradient id="paint9_linear" x1="29999" y1="21450.6" x2="29999" y2="10680.3" gradientUnits="userSpaceOnUse">
<stop stop-color="#808080" stop-opacity="0.25"/>
<stop offset="0.54" stop-color="#808080" stop-opacity="0.12"/>
<stop offset="1" stop-color="#808080" stop-opacity="0.1"/>
</linearGradient>
<linearGradient id="paint10_linear" x1="49499.1" y1="25605.5" x2="49499.1" y2="8914.11" gradientUnits="userSpaceOnUse">
<stop stop-color="#808080" stop-opacity="0.25"/>
<stop offset="0.54" stop-color="#808080" stop-opacity="0.12"/>
<stop offset="1" stop-color="#808080" stop-opacity="0.1"/>
</linearGradient>
<linearGradient id="paint11_linear" x1="19944.9" y1="2510.74" x2="19944.9" y2="1977.17" gradientUnits="userSpaceOnUse">
<stop stop-color="#808080" stop-opacity="0.25"/>
<stop offset="0.54" stop-color="#808080" stop-opacity="0.12"/>
<stop offset="1" stop-color="#808080" stop-opacity="0.1"/>
</linearGradient>
<linearGradient id="paint12_linear" x1="43366.3" y1="25606.2" x2="43366.3" y2="8914.38" gradientUnits="userSpaceOnUse">
<stop stop-color="#808080" stop-opacity="0.25"/>
<stop offset="0.54" stop-color="#808080" stop-opacity="0.12"/>
<stop offset="1" stop-color="#808080" stop-opacity="0.1"/>
</linearGradient>
<linearGradient id="paint13_linear" x1="23138" y1="137681" x2="23138" y2="59376.8" gradientUnits="userSpaceOnUse">
<stop stop-color="#808080" stop-opacity="0.25"/>
<stop offset="0.54" stop-color="#808080" stop-opacity="0.12"/>
<stop offset="1" stop-color="#808080" stop-opacity="0.1"/>
</linearGradient>
<linearGradient id="paint14_linear" x1="105332" y1="50195.8" x2="105332" y2="33181.4" gradientUnits="userSpaceOnUse">
<stop stop-color="#808080" stop-opacity="0.25"/>
<stop offset="0.54" stop-color="#808080" stop-opacity="0.12"/>
<stop offset="1" stop-color="#808080" stop-opacity="0.1"/>
</linearGradient>
<linearGradient id="paint15_linear" x1="31514.3" y1="10460.5" x2="31514.3" y2="9647.51" gradientUnits="userSpaceOnUse">
<stop stop-color="#808080" stop-opacity="0.25"/>
<stop offset="0.54" stop-color="#808080" stop-opacity="0.12"/>
<stop offset="1" stop-color="#808080" stop-opacity="0.1"/>
</linearGradient>
<linearGradient id="paint16_linear" x1="4128.24" y1="7812.54" x2="4128.24" y2="5661.44" gradientUnits="userSpaceOnUse">
<stop stop-color="#808080" stop-opacity="0.25"/>
<stop offset="0.54" stop-color="#808080" stop-opacity="0.12"/>
<stop offset="1" stop-color="#808080" stop-opacity="0.1"/>
</linearGradient>
<linearGradient id="paint17_linear" x1="4730.67" y1="159377" x2="4730.67" y2="109116" gradientUnits="userSpaceOnUse">
<stop stop-color="#808080" stop-opacity="0.25"/>
<stop offset="0.54" stop-color="#808080" stop-opacity="0.12"/>
<stop offset="1" stop-color="#808080" stop-opacity="0.1"/>
</linearGradient>
<linearGradient id="paint18_linear" x1="16320.5" y1="205578" x2="16320.5" y2="121785" gradientUnits="userSpaceOnUse">
<stop stop-color="#808080" stop-opacity="0.25"/>
<stop offset="0.54" stop-color="#808080" stop-opacity="0.12"/>
<stop offset="1" stop-color="#808080" stop-opacity="0.1"/>
</linearGradient>
<linearGradient id="paint19_linear" x1="27328.5" y1="44959.5" x2="27328.5" y2="42123.4" gradientUnits="userSpaceOnUse">
<stop stop-color="#808080" stop-opacity="0.25"/>
<stop offset="0.54" stop-color="#808080" stop-opacity="0.12"/>
<stop offset="1" stop-color="#808080" stop-opacity="0.1"/>
</linearGradient>
<linearGradient id="paint20_linear" x1="19515.8" y1="44959.5" x2="19515.8" y2="42123.4" gradientUnits="userSpaceOnUse">
<stop stop-color="#808080" stop-opacity="0.25"/>
<stop offset="0.54" stop-color="#808080" stop-opacity="0.12"/>
<stop offset="1" stop-color="#808080" stop-opacity="0.1"/>
</linearGradient>
<linearGradient id="paint21_linear" x1="23430.3" y1="3065.02" x2="23430.3" y2="2957.69" gradientUnits="userSpaceOnUse">
<stop stop-color="#808080" stop-opacity="0.25"/>
<stop offset="0.54" stop-color="#808080" stop-opacity="0.12"/>
<stop offset="1" stop-color="#808080" stop-opacity="0.1"/>
</linearGradient>
<linearGradient id="paint22_linear" x1="6431.46" y1="22688" x2="6431.46" y2="14830.9" gradientUnits="userSpaceOnUse">
<stop stop-color="#808080" stop-opacity="0.25"/>
<stop offset="0.54" stop-color="#808080" stop-opacity="0.12"/>
<stop offset="1" stop-color="#808080" stop-opacity="0.1"/>
</linearGradient>
<linearGradient id="paint23_linear" x1="77684.3" y1="46608.3" x2="77684.3" y2="30265.4" gradientUnits="userSpaceOnUse">
<stop stop-color="#808080" stop-opacity="0.25"/>
<stop offset="0.54" stop-color="#808080" stop-opacity="0.12"/>
<stop offset="1" stop-color="#808080" stop-opacity="0.1"/>
</linearGradient>
<clipPath id="clip0">
<rect width="663.17" height="762" fill="white"/>
</clipPath>
</defs>
</svg>
