<svg width="1692" height="697" viewBox="0 0 1692 697" fill="none" xmlns="http://www.w3.org/2000/svg">
<rect x="4" y="131" width="317" height="502" rx="46" stroke="white" stroke-width="8"/>
<path d="M1623.8 498.873C1624.37 500.067 1624.18 501.655 1623.17 503.592C1622.17 505.52 1620.39 507.702 1617.96 510C1613.11 514.591 1605.73 519.565 1596.97 523.818C1588.2 528.07 1579.76 530.778 1573.19 531.728C1569.91 532.203 1567.12 532.234 1565.01 531.816C1562.9 531.396 1561.56 530.546 1561 529.352C1560.44 528.157 1560.63 526.57 1561.64 524.632C1562.64 522.705 1564.41 520.523 1566.84 518.225C1571.69 513.634 1579.08 508.659 1587.84 504.407C1596.6 500.154 1605.05 497.447 1611.61 496.497C1614.9 496.021 1617.68 495.991 1619.79 496.408C1621.91 496.829 1623.24 497.678 1623.8 498.873Z" fill="#24292E" fill-opacity="0.4" stroke="white"/>
<path d="M797.662 484.378C802.205 493.098 805.216 501.563 806.421 508.189C807.024 511.505 807.169 514.332 806.845 516.489C806.518 518.658 805.737 520.042 804.591 520.658C803.445 521.274 801.879 521.153 799.929 520.207C797.991 519.267 795.772 517.556 793.411 515.185C788.695 510.447 783.498 503.158 778.954 494.438C774.411 485.718 771.399 477.253 770.195 470.627C769.592 467.31 769.447 464.484 769.771 462.327C770.097 460.158 770.879 458.774 772.025 458.158C773.171 457.541 774.737 457.663 776.686 458.608C778.624 459.548 780.844 461.26 783.204 463.631C787.921 468.369 793.118 475.658 797.662 484.378Z" fill="#24292E" fill-opacity="0.4" stroke="white"/>
<path d="M932.554 435.554C933.729 436.109 934.58 437.45 935.017 439.599C935.451 441.736 935.45 444.567 935.017 447.91C934.152 454.591 931.577 463.203 927.484 472.15C923.391 481.098 918.573 488.651 914.104 493.631C911.868 496.123 909.739 497.949 907.851 498.99C905.952 500.037 904.395 500.24 903.219 499.685C902.044 499.131 901.193 497.79 900.756 495.641C900.322 493.504 900.323 490.673 900.756 487.33C901.621 480.649 904.197 472.037 908.289 463.089C912.382 454.142 917.2 446.589 921.669 441.609C923.905 439.117 926.035 437.291 927.922 436.25C929.821 435.203 931.378 434.999 932.554 435.554Z" fill="#24292E" fill-opacity="0.4" stroke="white"/>
<path d="M897.018 432.412C900.751 435.623 903.632 439.093 905.281 442.092C906.106 443.593 906.608 444.951 906.769 446.084C906.929 447.217 906.74 448.063 906.267 448.632C905.793 449.2 905.002 449.529 903.875 449.555C902.749 449.581 901.347 449.301 899.754 448.721C896.572 447.563 892.728 445.247 888.995 442.036C885.262 438.824 882.381 435.354 880.733 432.356C879.907 430.855 879.405 429.496 879.245 428.364C879.084 427.23 879.273 426.384 879.747 425.816C880.221 425.247 881.011 424.919 882.138 424.893C883.264 424.867 884.666 425.147 886.259 425.727C889.442 426.885 893.285 429.2 897.018 432.412Z" fill="#24292E" fill-opacity="0.4" stroke="white"/>
<path d="M855.688 424.811C859.421 428.023 862.303 431.493 863.951 434.491C864.776 435.992 865.279 437.351 865.439 438.483C865.599 439.616 865.411 440.463 864.937 441.031C864.463 441.6 863.672 441.928 862.546 441.954C861.42 441.98 860.018 441.7 858.425 441.12C855.242 439.962 851.398 437.646 847.666 434.435C843.933 431.223 841.051 427.753 839.403 424.755C838.578 423.254 838.075 421.896 837.915 420.763C837.755 419.63 837.943 418.783 838.417 418.215C838.891 417.646 839.682 417.318 840.808 417.292C841.934 417.266 843.336 417.546 844.929 418.126C848.112 419.284 851.956 421.6 855.688 424.811Z" fill="#24292E" fill-opacity="0.4" stroke="white"/>
<path d="M984.044 313.751C984.335 315.042 983.811 316.55 982.41 318.216C981.016 319.875 978.815 321.61 975.951 323.312C970.228 326.715 961.955 329.93 952.49 332.134C943.025 334.338 934.199 335.105 927.588 334.574C924.28 334.309 921.556 333.72 919.59 332.845C917.614 331.965 916.496 330.839 916.204 329.548C915.913 328.256 916.437 326.748 917.838 325.082C919.233 323.423 921.433 321.688 924.297 319.986C930.02 316.583 938.293 313.368 947.758 311.164C957.223 308.96 966.049 308.193 972.66 308.724C975.968 308.99 978.692 309.578 980.658 310.454C982.634 311.333 983.752 312.459 984.044 313.751Z" fill="#24292E" fill-opacity="0.4" stroke="white"/>
<path d="M845.462 337.162C845.754 338.454 845.23 339.962 843.828 341.628C842.434 343.286 840.234 345.021 837.37 346.724C831.647 350.127 823.374 353.342 813.908 355.546C804.443 357.75 795.617 358.517 789.007 357.986C785.699 357.72 782.974 357.132 781.008 356.256C779.033 355.376 777.914 354.251 777.623 352.959C777.331 351.667 777.856 350.159 779.257 348.493C780.651 346.835 782.851 345.1 785.715 343.397C791.438 339.995 799.712 336.78 809.177 334.575C818.642 332.371 827.468 331.605 834.078 332.136C837.387 332.401 840.111 332.989 842.077 333.865C844.053 334.745 845.171 335.87 845.462 337.162Z" fill="#24292E" fill-opacity="0.4" stroke="white"/>
<path d="M1544.8 604.309L1544.91 642.346L1524.46 642.404L1524.36 604.367L1544.8 604.309Z" fill="#24292E" fill-opacity="0.4" stroke="white"/>
<path d="M1501.91 604.435L1502.02 642.472L1481.57 642.53L1481.46 604.493L1501.91 604.435Z" fill="#24292E" fill-opacity="0.4" stroke="white"/>
<path d="M837.144 422.29L843.814 384.862L863.935 388.562L857.265 425.991L837.144 422.29Z" fill="#24292E" fill-opacity="0.4" stroke="white"/>
<path d="M879.353 430.053L886.023 392.624L906.144 396.325L899.474 433.753L879.353 430.053Z" fill="#24292E" fill-opacity="0.4" stroke="white"/>
<path d="M832.5 642.5V603.5H853.5V642.5H832.5Z" fill="#24292E" fill-opacity="0.4" stroke="white"/>
<path d="M875.5 642.5V603.5H895.5V642.5H875.5Z" fill="#24292E" fill-opacity="0.4" stroke="white"/>
<path d="M867.5 642.5C867.5 643.361 867.083 644.227 866.235 645.063C865.384 645.901 864.128 646.678 862.536 647.342C859.353 648.668 854.921 649.5 850 649.5C845.079 649.5 840.647 648.668 837.464 647.342C835.872 646.678 834.616 645.901 833.765 645.063C832.917 644.227 832.5 643.361 832.5 642.5C832.5 641.639 832.917 640.773 833.765 639.937C834.616 639.099 835.872 638.322 837.464 637.658C840.647 636.332 845.079 635.5 850 635.5C854.921 635.5 859.353 636.332 862.536 637.658C864.128 638.322 865.384 639.099 866.235 639.937C867.083 640.773 867.5 641.639 867.5 642.5Z" fill="#24292E" fill-opacity="0.4" stroke="white"/>
<path d="M910.5 642C910.5 642.779 910.096 643.576 909.247 644.357C908.398 645.137 907.141 645.864 905.547 646.484C902.36 647.723 897.925 648.5 893 648.5C888.075 648.5 883.64 647.723 880.453 646.484C878.859 645.864 877.602 645.137 876.753 644.357C875.904 643.576 875.5 642.779 875.5 642C875.5 641.221 875.904 640.424 876.753 639.643C877.602 638.863 878.859 638.136 880.453 637.516C883.64 636.277 888.075 635.5 893 635.5C897.925 635.5 902.36 636.277 905.547 637.516C907.141 638.136 908.398 638.863 909.247 639.643C910.096 640.424 910.5 641.221 910.5 642Z" fill="#24292E" fill-opacity="0.4" stroke="white"/>
<path opacity="0.4" d="M1337 411C1375.11 411 1406 379.884 1406 341.5C1406 303.116 1375.11 272 1337 272C1298.89 272 1268 303.116 1268 341.5C1268 379.884 1298.89 411 1337 411Z" fill="#24292E" fill-opacity="0.8"/>
<path d="M956.5 542.5V438.5H1337.5V542.5H956.5Z" fill="#666B70" stroke="white"/>
<path d="M1314.73 176.79L1299.35 184.08L1312.96 173.887C1310.75 170.428 1308.26 167.153 1305.53 164.092L1238.82 180.695L1299.08 157.679C1296.32 155.246 1293.4 153.014 1290.33 151L1188.68 167.395C1177.89 180.909 1172.01 197.696 1172 215H1325C1324.99 201.58 1321.45 188.399 1314.73 176.79Z" fill="#F2F2F2"/>
<path d="M1246.88 215L1196 137C1196 137 1273.05 164.763 1264.31 215H1246.88Z" fill="#666B70" fill-opacity="0.9"/>
<path d="M1249.38 215L1301 137C1301 137 1222.83 164.763 1231.7 215H1249.38Z" fill="#24292E" fill-opacity="0.9"/>
<path d="M1339 650H956V69H1339V650ZM957.786 648.184H1337.21V70.8156H957.786V648.184Z" stroke="white" stroke-width="3"/>
<path d="M1338 82H957V85H1338V82Z" fill="white"/>
<path d="M967.5 80C969.433 80 971 78.433 971 76.5C971 74.567 969.433 73 967.5 73C965.567 73 964 74.567 964 76.5C964 78.433 965.567 80 967.5 80Z" fill="white" fill-opacity="0.8"/>
<path d="M976.5 80C978.433 80 980 78.433 980 76.5C980 74.567 978.433 73 976.5 73C974.567 73 973 74.567 973 76.5C973 78.433 974.567 80 976.5 80Z" fill="white" fill-opacity="0.8"/>
<path d="M986 80C988.209 80 990 78.433 990 76.5C990 74.567 988.209 73 986 73C983.791 73 982 74.567 982 76.5C982 78.433 983.791 80 986 80Z" fill="white" fill-opacity="0.8"/>
<path d="M986 95H971V104H986V95Z" fill="white" fill-opacity="0.8"/>
<path d="M1049 167H971V176H1049V167Z" fill="white" fill-opacity="0.8"/>
<path d="M1250 104L1328 104V95L1250 95V104Z" fill="#F2F2F2"/>
<path d="M1103 183H971V188H1103V183Z" fill="#F2F2F2"/>
<path d="M1095 194H971V199H1095V194Z" fill="#F2F2F2"/>
<path d="M1062 206H971V212H1062V206Z" fill="#F2F2F2"/>
<path d="M1053 367H1000V373H1053V367Z" fill="#F2F2F2"/>
<path d="M1050 380H1000V385H1050V380Z" fill="#F2F2F2"/>
<path d="M1037 391H1000V396H1037V391Z" fill="#F2F2F2"/>
<path d="M1173 367H1122V373H1173V367Z" fill="#F2F2F2"/>
<path d="M1170 380H1122V385H1170V380Z" fill="#F2F2F2"/>
<path d="M1157 391H1122V396H1157V391Z" fill="#F2F2F2"/>
<path d="M1298 367H1246V373H1298V367Z" fill="#F2F2F2"/>
<path d="M1296 380H1246V385H1296V380Z" fill="#F2F2F2"/>
<path d="M1282 391H1246V396H1282V391Z" fill="#F2F2F2"/>
<path d="M1159 573H1081V583H1159V573Z" fill="white" fill-opacity="0.8"/>
<path d="M1214 589H1081V595H1214V589Z" fill="#F2F2F2"/>
<path d="M1206 601H1081V606H1206V601Z" fill="#F2F2F2"/>
<path d="M1172 613H1081V618H1172V613Z" fill="#F2F2F2"/>
<path opacity="0.3" d="M994.5 266.5V265.5H1304.5V266.5H994.5Z" fill="#24292E" fill-opacity="0.8" stroke="white"/>
<path opacity="0.3" d="M1060 297H993V357H1060V297Z" fill="#24292E" fill-opacity="0.8"/>
<path d="M1180 297H1114V357H1180V297Z" fill="#666B70"/>
<path d="M1306 297H1240V357H1306V297Z" fill="#666B70"/>
<path d="M1138.87 357L1138 356.982C1138.02 355.986 1138.56 332.493 1147.5 326L1148 326.737C1139.42 332.968 1138.87 356.76 1138.87 357Z" fill="white" fill-opacity="0.8"/>
<path d="M1152 326C1154.21 326 1156 323.985 1156 321.5C1156 319.015 1154.21 317 1152 317C1149.79 317 1148 319.015 1148 321.5C1148 323.985 1149.79 326 1152 326Z" fill="white" fill-opacity="0.8"/>
<path d="M1150.61 336.382C1148.47 337.088 1146.19 337.191 1144 336.682C1145.39 334.825 1147.26 333.429 1149.39 332.662C1151.52 331.896 1153.82 331.792 1156 332.363C1154.57 334.175 1152.71 335.561 1150.61 336.382Z" fill="white" fill-opacity="0.8"/>
<path d="M1263.87 357L1263 356.982C1263.02 355.986 1263.56 332.493 1272.5 326L1273 326.737C1264.42 332.968 1263.87 356.76 1263.87 357Z" fill="white" fill-opacity="0.8"/>
<path d="M1277 326C1279.21 326 1281 323.985 1281 321.5C1281 319.015 1279.21 317 1277 317C1274.79 317 1273 319.015 1273 321.5C1273 323.985 1274.79 326 1277 326Z" fill="white" fill-opacity="0.8"/>
<path d="M1276.16 336.382C1273.84 337.088 1271.37 337.191 1269 336.682C1270.51 334.825 1272.53 333.429 1274.84 332.662C1277.15 331.896 1279.63 331.792 1282 332.363C1280.45 334.175 1278.44 335.561 1276.16 336.382Z" fill="white" fill-opacity="0.8"/>
<path d="M1049 471H971V480H1049V471Z" fill="#24292E" fill-opacity="0.8"/>
<path d="M1103 486H971V492H1103V486Z" fill="#F2F2F2"/>
<path d="M1095 499H971V504H1095V499Z" fill="#F2F2F2"/>
<path d="M1062 510H971V515H1062V510Z" fill="#F2F2F2"/>
<path opacity="0.4" d="M1261.5 512C1276.69 512 1289 499.24 1289 483.5C1289 467.76 1276.69 455 1261.5 455C1246.31 455 1234 467.76 1234 483.5C1234 499.24 1246.31 512 1261.5 512Z" fill="#0075EA" fill-opacity="0.8"/>
<path opacity="0.4" d="M1210 517C1221.05 517 1230 508.046 1230 497C1230 485.954 1221.05 477 1210 477C1198.95 477 1190 485.954 1190 497C1190 508.046 1198.95 517 1210 517Z" fill="#188CFF" fill-opacity="0.8"/>
<path d="M934.5 547C934.5 586.498 903.15 618.5 864.5 618.5C825.85 618.5 794.5 586.498 794.5 547C794.5 507.502 825.85 475.5 864.5 475.5C903.15 475.5 934.5 507.502 934.5 547Z" fill="#666B70" stroke="white"/>
<path d="M866.5 554C880.031 554 891 542.807 891 529C891 515.193 880.031 504 866.5 504C852.969 504 842 515.193 842 529C842 542.807 852.969 554 866.5 554Z" fill="white"/>
<path d="M866.5 526C871.194 526 875 522.418 875 518C875 513.582 871.194 510 866.5 510C861.806 510 858 513.582 858 518C858 522.418 861.806 526 866.5 526Z" fill="#24292E" fill-opacity="0.8"/>
<path d="M796.531 480.247C790.903 454.44 808.894 428.296 836.81 421.914C864.724 415.532 891.86 431.354 897.488 457.157C898.898 463.623 898.793 469.032 897.434 473.608C896.077 478.179 893.458 481.953 889.785 485.137C882.416 491.525 870.825 495.521 856.756 498.737C842.692 501.952 829 503.739 818.136 501.503C812.713 500.388 808.018 498.274 804.33 494.855C800.646 491.439 797.936 486.69 796.531 480.247Z" fill="#24292E" fill-opacity="0.8" stroke="white"/>
<path d="M1457.45 489.778C1460.94 498.984 1462.94 507.752 1463.37 514.477C1463.58 517.843 1463.39 520.667 1462.82 522.77C1462.24 524.885 1461.3 526.164 1460.09 526.637C1458.88 527.11 1457.34 526.802 1455.52 525.627C1453.7 524.46 1451.7 522.494 1449.63 519.854C1445.5 514.581 1441.19 506.717 1437.7 497.511C1434.21 488.304 1432.21 479.536 1431.78 472.811C1431.57 469.446 1431.76 466.621 1432.33 464.519C1432.91 462.404 1433.85 461.125 1435.06 460.651C1436.27 460.178 1437.81 460.487 1439.63 461.661C1441.45 462.828 1443.45 464.795 1445.52 467.434C1449.65 472.707 1453.96 480.571 1457.45 489.778Z" fill="#24292E" fill-opacity="0.4" stroke="white"/>
<path d="M1583.5 547.5C1583.5 586.716 1551.93 618.5 1513 618.5C1474.07 618.5 1442.5 586.716 1442.5 547.5C1442.5 508.284 1474.07 476.5 1513 476.5C1551.93 476.5 1583.5 508.284 1583.5 547.5Z" fill="#666B70" stroke="white"/>
<path d="M1544.91 643.303C1544.91 644.052 1544.52 644.824 1543.68 645.586C1542.84 646.347 1541.59 647.057 1540.01 647.665C1536.85 648.879 1532.45 649.648 1527.56 649.662C1522.67 649.676 1518.26 648.932 1515.09 647.736C1513.51 647.137 1512.26 646.434 1511.41 645.678C1510.57 644.921 1510.17 644.151 1510.17 643.402C1510.17 642.653 1510.56 641.881 1511.4 641.12C1512.24 640.359 1513.49 639.649 1515.07 639.041C1518.23 637.827 1522.63 637.058 1527.52 637.044C1532.41 637.03 1536.82 637.774 1539.99 638.97C1541.57 639.569 1542.82 640.272 1543.67 641.028C1544.51 641.785 1544.91 642.555 1544.91 643.303Z" fill="#24292E" fill-opacity="0.4" stroke="white"/>
<path d="M1502.02 642.518C1502.02 643.267 1501.62 644.039 1500.78 644.8C1499.94 645.561 1498.7 646.271 1497.11 646.879C1493.95 648.094 1489.55 648.862 1484.66 648.876C1479.77 648.89 1475.36 648.146 1472.19 646.95C1470.61 646.351 1469.36 645.648 1468.52 644.892C1467.67 644.135 1467.27 643.366 1467.27 642.617C1467.27 641.868 1467.66 641.096 1468.5 640.334C1469.34 639.573 1470.59 638.863 1472.17 638.255C1475.33 637.041 1479.73 636.272 1484.63 636.258C1489.52 636.245 1493.92 636.988 1497.09 638.185C1498.68 638.783 1499.93 639.486 1500.77 640.243C1501.61 640.999 1502.01 641.769 1502.02 642.518Z" fill="#24292E" fill-opacity="0.4" stroke="white"/>
<path d="M1511 554C1524.25 554 1535 543.031 1535 529.5C1535 515.969 1524.25 505 1511 505C1497.75 505 1487 515.969 1487 529.5C1487 543.031 1497.75 554 1511 554Z" fill="white"/>
<path d="M1511 538C1515.42 538 1519 534.418 1519 530C1519 525.582 1515.42 522 1511 522C1506.58 522 1503 525.582 1503 530C1503 534.418 1506.58 538 1511 538Z" fill="#24292E" fill-opacity="0.8"/>
<path d="M1581.97 480.517C1587.65 454.688 1569.2 428.657 1540.77 422.375C1512.34 416.092 1484.69 431.938 1479.01 457.768C1473.33 483.597 1492.19 493.064 1520.62 499.346C1549.06 505.628 1576.3 506.346 1581.97 480.517Z" fill="#24292E" fill-opacity="0.8"/>
<path d="M1548 573.359C1548.02 580.263 1530.22 593.945 1510.43 594C1490.63 594.055 1472.02 574.672 1472 567.768C1471.98 560.865 1490.56 569.056 1510.36 569C1530.15 568.945 1547.98 566.456 1548 573.359Z" fill="white"/>
<path opacity="0.4" d="M1632.5 443.5C1632.5 498.738 1588.61 543.5 1534.5 543.5C1480.39 543.5 1436.5 498.738 1436.5 443.5C1436.5 388.262 1480.39 343.5 1534.5 343.5C1588.61 343.5 1632.5 388.262 1632.5 443.5Z" fill="#BEC6CE" fill-opacity="0.8" stroke="white"/>
<path d="M955.5 335C955.5 374.495 923.93 406.5 885 406.5C846.07 406.5 814.5 374.495 814.5 335C814.5 295.505 846.07 263.5 885 263.5C923.93 263.5 955.5 295.505 955.5 335Z" fill="#666B70" stroke="white"/>
<path d="M890 341C903.255 341 914 330.255 914 317C914 303.745 903.255 293 890 293C876.745 293 866 303.745 866 317C866 330.255 876.745 341 890 341Z" fill="white"/>
<path d="M900 317C904.418 317 908 313.194 908 308.5C908 303.806 904.418 300 900 300C895.582 300 892 303.806 892 308.5C892 313.194 895.582 317 900 317Z" fill="#24292E" fill-opacity="0.8"/>
<path d="M829.536 256.678C828.483 230.755 850.842 208.716 879.587 207.548C908.333 206.381 932.407 226.535 933.46 252.457C933.724 258.954 932.674 264.158 930.532 268.331C928.391 272.502 925.142 275.678 920.951 278.096C912.542 282.948 900.374 284.733 885.891 285.321C871.415 285.909 857.553 285.184 847.193 281.077C842.022 279.028 837.745 276.144 834.695 272.181C831.647 268.221 829.799 263.15 829.536 256.678Z" fill="#24292E" fill-opacity="0.8" stroke="white"/>
<path d="M865.256 363.283C864.5 367.429 865.434 371.704 867.854 375.166C870.274 378.628 873.982 380.995 878.161 381.746C882.34 382.496 886.648 381.569 890.138 379.168C893.628 376.767 896.014 373.089 896.77 368.943C898.345 360.31 891.617 357.254 882.915 355.692C874.212 354.129 866.832 354.65 865.256 363.283Z" fill="white"/>
<path d="M1051.17 276.456L987.822 257.164L970.885 314.558L1034.23 333.85L1051.17 276.456Z" fill="#ADADAD"/>
<path d="M993.83 322L993 321.726C993.295 320.781 1000.35 298.547 1010.73 295L1011 295.85C1001.04 299.254 993.9 321.773 993.83 322Z" fill="white" fill-opacity="0.8"/>
<path d="M1017 296C1019.21 296 1021 294.209 1021 292C1021 289.791 1019.21 288 1017 288C1014.79 288 1013 289.791 1013 292C1013 294.209 1014.79 296 1017 296Z" fill="white" fill-opacity="0.8"/>
<path d="M1011.58 314.999C1009.28 315.03 1007.01 314.433 1005 313.269C1006.89 311.888 1009.12 311.103 1011.42 311.01C1013.73 310.916 1016.01 311.517 1018 312.74C1016.09 314.064 1013.87 314.843 1011.58 314.999Z" fill="white" fill-opacity="0.8"/>
<path d="M714.221 317.267C714.369 316.592 713.941 315.926 713.267 315.779L702.276 313.378C701.601 313.231 700.935 313.659 700.788 314.333C700.641 315.007 701.068 315.674 701.742 315.821L711.512 317.955L709.378 327.724C709.231 328.399 709.659 329.065 710.333 329.212C711.007 329.359 711.674 328.932 711.821 328.258L714.221 317.267ZM607.675 386.052L610.619 384.163L609.27 382.059L606.325 383.948L607.675 386.052ZM616.508 380.385L622.397 376.608L621.047 374.503L615.158 378.281L616.508 380.385ZM628.286 372.83L634.175 369.052L632.825 366.948L626.936 370.726L628.286 372.83ZM640.064 365.274L645.953 361.497L644.603 359.392L638.714 363.17L640.064 365.274ZM651.842 357.719L657.73 353.941L656.381 351.837L650.492 355.615L651.842 357.719ZM663.619 350.163L669.508 346.385L668.158 344.281L662.269 348.059L663.619 350.163ZM675.397 342.608L681.286 338.83L679.936 336.726L674.047 340.503L675.397 342.608ZM687.175 335.052L693.064 331.274L691.714 329.17L685.825 332.948L687.175 335.052ZM698.953 327.497L704.842 323.719L703.492 321.615L697.603 325.392L698.953 327.497ZM710.731 319.941L713.675 318.052L712.325 315.948L709.381 317.837L710.731 319.941ZM715.442 317.533C715.737 316.184 714.882 314.852 713.533 314.558L691.552 309.757C690.203 309.462 688.87 310.317 688.576 311.666C688.281 313.015 689.136 314.347 690.485 314.642L710.024 318.909L705.757 338.448C705.462 339.797 706.317 341.13 707.666 341.424C709.015 341.719 710.347 340.864 710.642 339.515L715.442 317.533ZM608.35 387.104L611.294 385.215L608.595 381.007L605.65 382.896L608.35 387.104ZM617.183 381.438L623.072 377.66L620.372 373.451L614.483 377.229L617.183 381.438ZM628.961 373.882L634.85 370.104L632.15 365.896L626.261 369.674L628.961 373.882ZM640.739 366.326L646.628 362.549L643.928 358.34L638.039 362.118L640.739 366.326ZM652.517 358.771L658.405 354.993L655.706 350.785L649.817 354.562L652.517 358.771ZM664.294 351.215L670.183 347.438L667.483 343.229L661.595 347.007L664.294 351.215ZM676.072 343.66L681.961 339.882L679.261 335.674L673.372 339.451L676.072 343.66ZM687.85 336.104L693.739 332.326L691.039 328.118L685.15 331.896L687.85 336.104ZM699.628 328.549L705.517 324.771L702.817 320.562L696.928 324.34L699.628 328.549ZM711.405 320.993L714.35 319.104L711.65 314.896L708.706 316.785L711.405 320.993Z" fill="#8A8A8A"/>
<path d="M713.267 454.221C713.941 454.074 714.369 453.408 714.221 452.733L711.821 441.742C711.674 441.068 711.007 440.641 710.333 440.788C709.659 440.935 709.231 441.601 709.378 442.276L711.512 452.045L701.742 454.179C701.068 454.326 700.641 454.993 700.788 455.667C700.935 456.341 701.601 456.769 702.276 456.622L713.267 454.221ZM606.325 386.052L609.27 387.941L610.619 385.837L607.675 383.948L606.325 386.052ZM615.158 391.719L621.047 395.497L622.397 393.392L616.508 389.615L615.158 391.719ZM626.936 399.274L632.825 403.052L634.175 400.948L628.286 397.17L626.936 399.274ZM638.714 406.83L644.603 410.608L645.953 408.503L640.064 404.726L638.714 406.83ZM650.492 414.385L656.381 418.163L657.73 416.059L651.842 412.281L650.492 414.385ZM662.269 421.941L668.158 425.719L669.508 423.615L663.619 419.837L662.269 421.941ZM674.047 429.497L679.936 433.274L681.286 431.17L675.397 427.392L674.047 429.497ZM685.825 437.052L691.714 440.83L693.064 438.726L687.175 434.948L685.825 437.052ZM697.603 444.608L703.492 448.385L704.842 446.281L698.953 442.503L697.603 444.608ZM709.381 452.163L712.325 454.052L713.675 451.948L710.731 450.059L709.381 452.163ZM713.533 455.442C714.882 455.148 715.737 453.816 715.442 452.467L710.642 430.485C710.347 429.136 709.015 428.281 707.666 428.576C706.317 428.87 705.462 430.203 705.757 431.552L710.024 451.091L690.485 455.358C689.136 455.653 688.281 456.985 688.576 458.334C688.87 459.683 690.203 460.538 691.552 460.243L713.533 455.442ZM605.65 387.104L608.595 388.993L611.294 384.785L608.35 382.896L605.65 387.104ZM614.483 392.771L620.372 396.549L623.072 392.34L617.183 388.562L614.483 392.771ZM626.261 400.326L632.15 404.104L634.85 399.896L628.961 396.118L626.261 400.326ZM638.039 407.882L643.928 411.66L646.628 407.451L640.739 403.674L638.039 407.882ZM649.817 415.438L655.706 419.215L658.405 415.007L652.517 411.229L649.817 415.438ZM661.595 422.993L667.483 426.771L670.183 422.562L664.294 418.785L661.595 422.993ZM673.372 430.549L679.261 434.326L681.961 430.118L676.072 426.34L673.372 430.549ZM685.15 438.104L691.039 441.882L693.739 437.674L687.85 433.896L685.15 438.104ZM696.928 445.66L702.817 449.438L705.517 445.229L699.628 441.451L696.928 445.66ZM708.706 453.215L711.65 455.104L714.35 450.896L711.405 449.007L708.706 453.215Z" fill="#8A8A8A"/>
<path d="M713.975 387.229C714.472 386.75 714.487 385.959 714.008 385.462L706.203 377.359C705.725 376.862 704.933 376.847 704.436 377.326C703.939 377.805 703.924 378.596 704.403 379.093L711.34 386.296L704.138 393.233C703.64 393.712 703.626 394.503 704.104 395.001C704.583 395.498 705.375 395.513 705.872 395.034L713.975 387.229ZM606.484 385.579L609.816 385.642L609.862 383.142L606.531 383.08L606.484 385.579ZM616.478 385.767L623.141 385.892L623.187 383.392L616.525 383.267L616.478 385.767ZM629.803 386.017L636.465 386.142L636.512 383.642L629.85 383.517L629.803 386.017ZM643.128 386.267L649.79 386.392L649.837 383.892L643.175 383.767L643.128 386.267ZM656.453 386.517L663.115 386.642L663.162 384.142L656.5 384.017L656.453 386.517ZM669.778 386.766L676.44 386.891L676.487 384.392L669.825 384.267L669.778 386.766ZM683.103 387.016L689.765 387.141L689.812 384.642L683.15 384.517L683.103 387.016ZM696.428 387.266L703.09 387.391L703.137 384.892L696.475 384.767L696.428 387.266ZM709.753 387.516L713.084 387.579L713.131 385.079L709.8 385.017L709.753 387.516ZM714.842 388.13C715.836 387.172 715.866 385.589 714.908 384.595L699.299 368.389C698.342 367.395 696.759 367.365 695.764 368.323C694.77 369.281 694.74 370.863 695.698 371.858L709.573 386.263L695.168 400.137C694.173 401.095 694.144 402.678 695.101 403.672C696.059 404.666 697.642 404.696 698.636 403.738L714.842 388.13ZM606.461 386.829L609.792 386.892L609.886 381.892L606.555 381.83L606.461 386.829ZM616.455 387.017L623.117 387.141L623.211 382.142L616.548 382.017L616.455 387.017ZM629.78 387.266L636.442 387.391L636.536 382.392L629.873 382.267L629.78 387.266ZM643.105 387.516L649.767 387.641L649.861 382.642L643.198 382.517L643.105 387.516ZM656.43 387.766L663.092 387.891L663.186 382.892L656.523 382.767L656.43 387.766ZM669.754 388.016L676.417 388.141L676.511 383.142L669.848 383.017L669.754 388.016ZM683.079 388.266L689.742 388.391L689.836 383.392L683.173 383.267L683.079 388.266ZM696.404 388.516L703.067 388.641L703.161 383.642L696.498 383.517L696.404 388.516ZM709.729 388.766L713.061 388.829L713.154 383.829L709.823 383.767L709.729 388.766Z" fill="#8A8A8A"/>
<path d="M419 309.5H416.5V312V464V466.5H419H451.003H453.503V464V406.493H500.277H502.777V403.993V373.064V370.564H500.277H453.503V345.693H500.277H502.777V343.193V312V309.5H500.277H419ZM594 345.693H596.5V343.193V312V309.5H594H512.723H510.223V312V343.193V345.693H512.723H594ZM553.869 406.493H556.369V403.993V373.064V370.564H553.869H512.723H510.223V373.064V403.993V406.493H512.723H553.869Z" fill="#24292E" stroke="white" stroke-width="5"/>
<path d="M208.967 276.876C221.485 276.876 231.634 266.728 231.634 254.209C231.634 241.691 221.485 231.542 208.967 231.542C196.448 231.542 186.3 241.691 186.3 254.209C186.3 266.728 196.448 276.876 208.967 276.876Z" fill="#49D893"/>
<path d="M213.5 291.209H111.5C102.483 291.209 93.8351 287.627 87.4589 281.251C81.0826 274.875 77.5005 266.227 77.5005 257.209C77.5005 248.192 81.0826 239.544 87.4589 233.168C93.8351 226.792 102.483 223.209 111.5 223.209H213.5C222.518 223.209 231.166 226.792 237.542 233.168C243.918 239.544 247.5 248.192 247.5 257.209C247.5 266.227 243.918 274.875 237.542 281.251C231.166 287.627 222.518 291.209 213.5 291.209ZM111.5 227.743C103.685 227.743 96.1904 230.847 90.6644 236.373C85.1383 241.899 82.0338 249.394 82.0338 257.209C82.0338 265.025 85.1383 272.519 90.6644 278.046C96.1904 283.572 103.685 286.676 111.5 286.676H213.5C221.316 286.676 228.81 283.572 234.337 278.046C239.863 272.519 242.967 265.025 242.967 257.209C242.967 249.394 239.863 241.899 234.337 236.373C228.81 230.847 221.316 227.743 213.5 227.743H111.5Z" fill="#49D893"/>
<path d="M115.174 403.654C127.692 403.654 137.841 393.506 137.841 380.987C137.841 368.469 127.692 358.321 115.174 358.321C102.655 358.321 92.5073 368.469 92.5073 380.987C92.5073 393.506 102.655 403.654 115.174 403.654Z" fill="white"/>
<path d="M213.5 415.988H111.5C102.483 415.988 93.8351 412.406 87.4589 406.029C81.0826 399.653 77.5005 391.005 77.5005 381.988C77.5005 372.97 81.0826 364.322 87.4589 357.946C93.8351 351.57 102.483 347.988 111.5 347.988H213.5C222.518 347.988 231.166 351.57 237.542 357.946C243.918 364.322 247.5 372.97 247.5 381.988C247.5 391.005 243.918 399.653 237.542 406.029C231.166 412.406 222.518 415.988 213.5 415.988ZM111.5 352.521C103.685 352.521 96.1905 355.626 90.6644 361.152C85.1384 366.678 82.0338 374.173 82.0338 381.988C82.0338 389.803 85.1384 397.298 90.6644 402.824C96.1905 408.35 103.685 411.454 111.5 411.454H213.5C221.316 411.454 228.81 408.35 234.337 402.824C239.863 397.298 242.967 389.803 242.967 381.988C242.967 374.173 239.863 366.678 234.337 361.152C228.81 355.626 221.316 352.521 213.5 352.521H111.5Z" fill="white"/>
<path d="M115.174 529.432C127.692 529.432 137.841 519.284 137.841 506.766C137.841 494.247 127.692 484.099 115.174 484.099C102.655 484.099 92.5073 494.247 92.5073 506.766C92.5073 519.284 102.655 529.432 115.174 529.432Z" fill="white"/>
<path d="M213.5 540.766H111.5C102.483 540.766 93.8351 537.184 87.4589 530.808C81.0826 524.432 77.5005 515.783 77.5005 506.766C77.5005 497.749 81.0826 489.101 87.4589 482.724C93.8351 476.348 102.483 472.766 111.5 472.766H213.5C222.518 472.766 231.166 476.348 237.542 482.724C243.918 489.101 247.5 497.749 247.5 506.766C247.5 515.783 243.918 524.432 237.542 530.808C231.166 537.184 222.518 540.766 213.5 540.766ZM111.5 477.299C103.685 477.299 96.1904 480.404 90.6644 485.93C85.1383 491.456 82.0338 498.951 82.0338 506.766C82.0338 514.581 85.1383 522.076 90.6644 527.602C96.1904 533.128 103.685 536.233 111.5 536.233H213.5C217.37 536.233 221.202 535.471 224.777 533.99C228.352 532.509 231.6 530.338 234.337 527.602C237.073 524.866 239.243 521.618 240.724 518.043C242.205 514.467 242.967 510.636 242.967 506.766C242.967 502.896 242.205 499.065 240.724 495.49C239.243 491.915 237.073 488.666 234.337 485.93C231.6 483.194 228.352 481.023 224.777 479.542C221.202 478.062 217.37 477.299 213.5 477.299H111.5Z" fill="white"/>
<path d="M371.884 382.884C372.372 382.396 372.372 381.604 371.884 381.116L363.929 373.161C363.441 372.673 362.649 372.673 362.161 373.161C361.673 373.649 361.673 374.441 362.161 374.929L369.232 382L362.161 389.071C361.673 389.559 361.673 390.351 362.161 390.839C362.649 391.327 363.441 391.327 363.929 390.839L371.884 382.884ZM325 383.25H328.833V380.75H325V383.25ZM336.5 383.25H344.167V380.75H336.5V383.25ZM351.833 383.25H359.5V380.75H351.833V383.25ZM367.167 383.25H371V380.75H367.167V383.25ZM372.768 383.768C373.744 382.791 373.744 381.209 372.768 380.232L356.858 364.322C355.882 363.346 354.299 363.346 353.322 364.322C352.346 365.299 352.346 366.882 353.322 367.858L367.464 382L353.322 396.142C352.346 397.118 352.346 398.701 353.322 399.678C354.299 400.654 355.882 400.654 356.858 399.678L372.768 383.768ZM325 384.5H328.833V379.5H325V384.5ZM336.5 384.5H344.167V379.5H336.5V384.5ZM351.833 384.5H359.5V379.5H351.833V384.5ZM367.167 384.5H371V379.5H367.167V384.5Z" fill="#8A8A8A"/>
</svg>
