<svg width="988" height="1015" viewBox="0 0 988 1015" fill="none" xmlns="http://www.w3.org/2000/svg">
<rect x="160.5" y="1.5" width="211" height="350" rx="45.5" stroke="#303036" stroke-width="3"/>
<path d="M840.004 764.372L826.533 770.978L838.455 761.741C836.517 758.607 834.34 755.639 831.945 752.865L773.524 767.911L826.295 747.052C823.884 744.848 821.323 742.825 818.632 741L729.611 755.858C720.16 768.105 715.007 783.318 715 799H849C848.995 786.838 845.891 774.893 840.004 764.372Z" fill="#303036"/>
<path d="M780.243 799L736 729C736 729 803.003 753.915 795.398 799H780.243Z" fill="#008445" fill-opacity="0.9"/>
<path d="M783.757 799L828 729C828 729 760.997 753.915 768.602 799H783.757Z" fill="#008445" fill-opacity="0.9"/>
<path d="M862 1015H525V667H862V1015ZM526.571 1013.91H860.429V668.087H526.571V1013.91Z" fill="#24292E" fill-opacity="0.4"/>
<path d="M861 679H526V681H861V679Z" fill="#24292E" fill-opacity="0.4"/>
<path d="M534.5 678C536.433 678 538 676.433 538 674.5C538 672.567 536.433 671 534.5 671C532.567 671 531 672.567 531 674.5C531 676.433 532.567 678 534.5 678Z" fill="#24292E" fill-opacity="0.8"/>
<path d="M543 678C544.657 678 546 676.433 546 674.5C546 672.567 544.657 671 543 671C541.343 671 540 672.567 540 674.5C540 676.433 541.343 678 543 678Z" fill="#24292E" fill-opacity="0.8"/>
<path d="M551 678C553.209 678 555 676.433 555 674.5C555 672.567 553.209 671 551 671C548.791 671 547 672.567 547 674.5C547 676.433 548.791 678 551 678Z" fill="#24292E" fill-opacity="0.8"/>
<path d="M551 691H538V698H551V691Z" fill="#24292E" fill-opacity="0.8"/>
<path d="M607 755H538V763H607V755Z" fill="#24292E" fill-opacity="0.8"/>
<path d="M784 698H852V691H784V698Z" fill="#303036"/>
<path d="M654 770H538V774H654V770Z" fill="#303036"/>
<path d="M647 780H538V784H647V780Z" fill="#303036"/>
<path d="M617 791H538V796H617V791Z" fill="#303036"/>
<path d="M610 936H564V941H610V936Z" fill="#303036"/>
<path d="M608 948H564V952H608V948Z" fill="#303036"/>
<path d="M596 957H564V962H596V957Z" fill="#303036"/>
<path d="M716 936H671V941H716V936Z" fill="#303036"/>
<path d="M714 948H671V952H714V948Z" fill="#303036"/>
<path d="M702 957H671V962H702V957Z" fill="#303036"/>
<path d="M826 936H779V941H826V936Z" fill="#303036"/>
<path d="M824 948H779V952H824V948Z" fill="#303036"/>
<path d="M812 957H779V962H812V957Z" fill="#303036"/>
<path opacity="0.3" d="M832 844H558V846H832V844Z" fill="#24292E" fill-opacity="0.8"/>
<path opacity="0.3" d="M616 873H558V927H616V873Z" fill="#24292E" fill-opacity="0.8"/>
<path d="M722 873H664V927H722V873Z" fill="#24292E"/>
<path d="M833 878H775V932H833V878Z" fill="#24292E"/>
<path d="M685.783 927L685 926.984C685.017 926.084 685.506 904.865 693.55 899L694 899.665C686.28 905.294 685.787 926.784 685.783 927Z" fill="white" fill-opacity="0.8"/>
<path d="M697.5 899C699.433 899 701 896.985 701 894.5C701 892.015 699.433 890 697.5 890C695.567 890 694 892.015 694 894.5C694 896.985 695.567 899 697.5 899Z" fill="white" fill-opacity="0.8"/>
<path d="M696.057 908.259C694.096 909.105 692.007 909.229 690 908.618C691.274 906.39 692.991 904.714 694.943 903.795C696.894 902.875 698.998 902.751 701 903.436C699.688 905.61 697.984 907.273 696.057 908.259Z" fill="white" fill-opacity="0.8"/>
<path d="M795.783 927L795 926.984C795.017 926.084 795.506 904.865 803.55 899L804 899.665C796.28 905.294 795.787 926.784 795.783 927Z" fill="white" fill-opacity="0.8"/>
<path d="M807.5 899C809.433 899 811 896.985 811 894.5C811 892.015 809.433 890 807.5 890C805.567 890 804 892.015 804 894.5C804 896.985 805.567 899 807.5 899Z" fill="white" fill-opacity="0.8"/>
<path d="M807.057 908.259C805.096 909.105 803.007 909.229 801 908.618C802.274 906.39 803.991 904.714 805.943 903.795C807.894 902.875 809.998 902.751 812 903.436C810.688 905.61 808.984 907.273 807.057 908.259V908.259Z" fill="white" fill-opacity="0.8"/>
<path d="M608.541 854.068L552.734 836.679L537.812 888.411L593.619 905.801L608.541 854.068Z" fill="#24292E"/>
<path d="M558.737 896L558 895.746C558.262 894.872 564.53 874.284 573.756 871L574 871.787C565.146 874.939 558.8 895.79 558.737 896Z" fill="white" fill-opacity="0.8"/>
<path d="M578.5 872C580.433 872 582 870.209 582 868C582 865.791 580.433 864 578.5 864C576.567 864 575 865.791 575 868C575 870.209 576.567 872 578.5 872Z" fill="white" fill-opacity="0.8"/>
<path d="M574.069 888.999C571.947 889.03 569.854 888.433 568 887.269C569.742 885.888 571.801 885.103 573.931 885.01C576.06 884.916 578.167 885.517 580 886.74C578.233 888.064 576.188 888.843 574.069 888.999V888.999Z" fill="white" fill-opacity="0.8"/>
<path d="M306 88C316.493 88 325 79.0457 325 68C325 56.9543 316.493 48 306 48C295.507 48 287 56.9543 287 68C287 79.0457 295.507 88 306 88Z" fill="#49D893"/>
<path d="M309.4 98H223.6C216.015 98 208.74 94.8393 203.377 89.2132C198.013 83.5871 195 75.9565 195 68C195 60.0435 198.013 52.4129 203.377 46.7868C208.74 41.1607 216.015 38 223.6 38H309.4C316.985 38 324.26 41.1607 329.623 46.7868C334.987 52.4129 338 60.0435 338 68C338 75.9565 334.987 83.5871 329.623 89.2132C324.26 94.8393 316.985 98 309.4 98ZM223.6 42C217.026 42 210.722 44.7393 206.073 49.6152C201.425 54.4912 198.813 61.1044 198.813 68C198.813 74.8956 201.425 81.5088 206.073 86.3848C210.722 91.2607 217.026 94 223.6 94H309.4C315.974 94 322.278 91.2607 326.927 86.3848C331.575 81.5088 334.187 74.8956 334.187 68C334.187 61.1044 331.575 54.4912 326.927 49.6152C322.278 44.7393 315.974 42 309.4 42H223.6Z" fill="#49D893"/>
<path d="M227 197C237.493 197 246 188.046 246 177C246 165.954 237.493 157 227 157C216.507 157 208 165.954 208 177C208 188.046 216.507 197 227 197Z" fill="#2F2E41"/>
<path d="M309.4 206H223.6C216.015 206 208.74 202.892 203.377 197.36C198.013 191.827 195 184.324 195 176.5C195 168.676 198.013 161.173 203.377 155.64C208.74 150.108 216.015 147 223.6 147H309.4C316.985 147 324.26 150.108 329.623 155.64C334.987 161.173 338 168.676 338 176.5C338 184.324 334.987 191.827 329.623 197.36C324.26 202.892 316.985 206 309.4 206ZM223.6 150.933C217.026 150.933 210.722 153.627 206.073 158.422C201.425 163.216 198.813 169.719 198.813 176.5C198.813 183.281 201.425 189.784 206.073 194.578C210.722 199.373 217.026 202.067 223.6 202.067H309.4C315.974 202.067 322.278 199.373 326.927 194.578C331.575 189.784 334.187 183.281 334.187 176.5C334.187 169.719 331.575 163.216 326.927 158.422C322.278 153.627 315.974 150.933 309.4 150.933H223.6Z" fill="#2F2E41"/>
<path d="M227 305C237.493 305 246 296.27 246 285.5C246 274.73 237.493 266 227 266C216.507 266 208 274.73 208 285.5C208 296.27 216.507 305 227 305Z" fill="#2F2E41"/>
<path d="M309.4 315H223.6C216.015 315 208.74 311.892 203.377 306.36C198.013 300.827 195 293.324 195 285.5C195 277.676 198.013 270.173 203.377 264.64C208.74 259.108 216.015 256 223.6 256H309.4C316.985 256 324.26 259.108 329.623 264.64C334.987 270.173 338 277.676 338 285.5C338 293.324 334.987 300.827 329.623 306.36C324.26 311.892 316.985 315 309.4 315ZM223.6 259.933C217.026 259.933 210.722 262.627 206.073 267.422C201.425 272.216 198.813 278.719 198.813 285.5C198.813 292.281 201.425 298.784 206.073 303.578C210.722 308.373 217.026 311.067 223.6 311.067H309.4C312.655 311.067 315.878 310.405 318.885 309.121C321.893 307.836 324.625 305.952 326.927 303.578C329.228 301.204 331.054 298.386 332.3 295.284C333.546 292.182 334.187 288.857 334.187 285.5C334.187 282.143 333.546 278.818 332.3 275.716C331.054 272.614 329.228 269.796 326.927 267.422C324.625 265.048 321.893 263.164 318.885 261.879C315.878 260.595 312.655 259.933 309.4 259.933H223.6Z" fill="#2F2E41"/>
<path d="M321 521H52C23.2812 521 0 544.281 0 573V702C0 730.719 23.2812 754 52 754H321C349.719 754 373 730.719 373 702V573C373 544.281 349.719 521 321 521Z" fill="#303036"/>
<path opacity="0.3" d="M335.52 576.469L330.624 582.1C330.525 582.218 330.442 582.351 330.378 582.495L327.34 589.401C327.219 589.679 327.025 589.909 326.784 590.063C326.542 590.217 326.264 590.286 325.986 590.262L325.013 590.178C324.73 590.156 324.46 590.038 324.24 589.842C324.02 589.645 323.86 589.378 323.781 589.078L322.843 585.492C322.761 585.178 322.591 584.902 322.357 584.702C322.123 584.503 321.837 584.391 321.542 584.383C321.246 584.375 320.956 584.471 320.713 584.658C320.471 584.845 320.288 585.112 320.193 585.421L318.616 590.521C318.522 590.825 318.345 591.09 318.108 591.277C317.871 591.464 317.587 591.564 317.296 591.563H311.275C310.944 591.562 310.625 591.431 310.373 591.194C310.122 590.957 309.955 590.629 309.903 590.269L308.202 578.521C308.157 578.2 308.021 577.903 307.812 577.672C307.604 577.442 307.335 577.291 307.044 577.241C306.753 577.19 306.456 577.243 306.194 577.392C305.932 577.541 305.719 577.777 305.587 578.068L296.868 597.065C296.778 597.261 296.651 597.434 296.495 597.572C296.339 597.709 296.158 597.808 295.965 597.862C295.771 597.915 295.569 597.922 295.373 597.881C295.177 597.841 294.991 597.755 294.828 597.628L289.644 593.589C289.362 593.37 289.016 593.274 288.672 593.319C288.329 593.364 288.014 593.548 287.786 593.835L285.822 596.34C285.764 596.414 285.713 596.494 285.669 596.579L280.427 606.592C280.294 606.849 280.096 607.057 279.858 607.192C279.62 607.326 279.351 607.381 279.084 607.349L275.889 607C275.666 606.976 275.44 607.011 275.232 607.104L272.371 608.366C272.04 608.504 271.673 608.497 271.346 608.346C271.019 608.196 270.756 607.913 270.612 607.557L269.984 605.971C269.871 605.687 269.683 605.447 269.445 605.283C269.206 605.119 268.928 605.039 268.648 605.052L265.376 605.22C265.173 605.229 264.975 605.288 264.796 605.392C264.616 605.497 264.46 605.643 264.338 605.822L263.412 607.155C263.259 607.375 263.056 607.545 262.823 607.648C262.59 607.751 262.336 607.782 262.088 607.738C261.841 607.694 261.608 607.577 261.416 607.399C261.224 607.221 261.078 606.99 260.996 606.728L259.823 603.071C259.751 602.844 259.631 602.638 259.473 602.471C259.315 602.304 259.124 602.181 258.915 602.111C258.706 602.041 258.485 602.027 258.27 602.069C258.055 602.11 257.852 602.208 257.677 602.353L252.107 606.961L245.95 612.443C245.74 612.63 245.485 612.745 245.217 612.775C244.948 612.805 244.678 612.748 244.438 612.612L239.659 609.874C239.402 609.729 239.112 609.674 238.826 609.718L229.146 611.214C228.865 611.255 228.603 611.39 228.393 611.601C228.184 611.811 228.037 612.087 227.973 612.392L226.255 620.631C226.202 620.888 226.089 621.126 225.928 621.321C225.767 621.516 225.563 621.661 225.336 621.744C225.109 621.827 224.867 621.843 224.632 621.792C224.398 621.741 224.179 621.624 223.998 621.453V621.453C223.837 621.302 223.647 621.192 223.442 621.134C223.238 621.075 223.024 621.069 222.816 621.115C222.609 621.161 222.414 621.259 222.246 621.4C222.078 621.542 221.941 621.724 221.846 621.932L220.527 624.851C220.428 625.067 220.284 625.254 220.108 625.398C219.932 625.542 219.728 625.638 219.512 625.68L216.516 626.23C216.323 626.267 216.139 626.348 215.977 626.469L211.257 629.938C211.03 630.107 210.762 630.197 210.489 630.197H208.278C208.006 630.198 207.74 630.111 207.513 629.946C207.286 629.782 207.108 629.547 207 629.272L206.413 627.725C206.339 627.537 206.231 627.368 206.096 627.228C205.961 627.087 205.802 626.977 205.628 626.906C205.455 626.834 205.27 626.801 205.084 626.81C204.899 626.818 204.717 626.867 204.549 626.955L199.424 629.602C199.218 629.709 198.99 629.758 198.762 629.746C198.535 629.734 198.313 629.66 198.117 629.531L195.771 627.971C195.555 627.828 195.308 627.752 195.056 627.751H189.879C189.605 627.752 189.338 627.842 189.111 628.01L183.945 631.796C183.746 631.942 183.516 632.029 183.278 632.048C183.039 632.067 182.801 632.018 182.585 631.906L180.239 630.683C179.966 630.542 179.659 630.503 179.363 630.572C179.068 630.641 178.801 630.814 178.603 631.065L177.489 632.469C177.344 632.655 177.159 632.8 176.952 632.89C176.745 632.981 176.521 633.015 176.299 632.99C176.078 632.964 175.865 632.88 175.679 632.744C175.493 632.609 175.34 632.426 175.232 632.21L174.898 631.563C174.807 631.384 174.685 631.227 174.538 631.101C174.392 630.976 174.224 630.883 174.045 630.83C173.866 630.777 173.679 630.764 173.495 630.792C173.311 630.82 173.134 630.889 172.974 630.993L168.911 633.654C168.701 633.787 168.462 633.857 168.219 633.857C167.976 633.857 167.738 633.787 167.527 633.654L165.85 632.625C165.661 632.507 165.449 632.44 165.232 632.43C165.015 632.42 164.799 632.467 164.601 632.566L163.007 633.369C162.827 633.458 162.633 633.504 162.436 633.504C162.24 633.505 162.045 633.46 161.866 633.372C161.686 633.284 161.525 633.155 161.393 632.994C161.262 632.833 161.162 632.643 161.101 632.437L160.069 629.045C159.981 628.734 159.805 628.462 159.566 628.27C159.328 628.078 159.039 627.975 158.744 627.977H157.243C157.007 627.978 156.774 627.911 156.569 627.783L150.805 624.294C150.57 624.154 150.304 624.092 150.038 624.113C149.772 624.135 149.517 624.241 149.304 624.417L145.076 627.913C144.836 628.111 144.544 628.218 144.244 628.217H138.926C138.652 628.217 138.385 628.307 138.158 628.476L137.161 629.207C136.997 629.328 136.811 629.41 136.617 629.446C136.422 629.482 136.223 629.472 136.032 629.416C135.841 629.36 135.663 629.26 135.51 629.123C135.357 628.985 135.232 628.813 135.144 628.618L134.903 628.094C134.789 627.837 134.612 627.621 134.393 627.47C134.173 627.319 133.919 627.239 133.66 627.239H130.992C130.781 627.24 130.572 627.294 130.382 627.397C130.192 627.5 130.026 627.65 129.896 627.835L128.243 630.171C128.105 630.365 127.928 630.52 127.726 630.622C127.523 630.725 127.301 630.772 127.079 630.76C126.857 630.748 126.64 630.677 126.448 630.553C126.255 630.429 126.093 630.256 125.973 630.049L125.504 629.239C125.311 628.901 125.005 628.659 124.651 628.567C124.298 628.475 123.927 628.54 123.616 628.748L122.244 629.654C122.011 629.808 121.741 629.883 121.469 629.871C121.198 629.858 120.935 629.758 120.714 629.582L115.185 625.162C115.086 625.085 114.98 625.02 114.868 624.968L110.547 623.136C110.21 623.001 109.84 623.014 109.512 623.173C109.184 623.332 108.925 623.625 108.788 623.99L105.78 632.081C105.736 632.195 105.707 632.314 105.692 632.437L104.719 639.725C104.676 640.033 104.549 640.32 104.355 640.547L102.297 642.987C102.084 643.236 101.801 643.399 101.495 643.452C101.188 643.505 100.874 643.444 100.602 643.278L97.0316 641.091C96.8539 640.981 96.6566 640.915 96.4535 640.899C96.2505 640.883 96.0466 640.916 95.8564 640.996C95.6662 641.076 95.4944 641.202 95.3529 641.364C95.2115 641.525 95.104 641.719 95.0381 641.932L92.7748 649.239C92.7235 649.399 92.6977 649.568 92.6986 649.738V654.346C92.6979 654.645 92.6182 654.937 92.4693 655.187C92.3203 655.436 92.1086 655.632 91.8601 655.751L88.2306 657.524C88.029 657.62 87.8096 657.662 87.5905 657.646C87.3713 657.63 87.1587 657.558 86.97 657.434L84.2377 655.66C83.9654 655.484 83.6469 655.416 83.3347 655.466L78.5443 656.223C78.2703 656.267 77.991 656.218 77.7422 656.084C77.4934 655.95 77.2867 655.737 77.1488 655.472L76.3397 653.945C76.165 653.616 75.8846 653.371 75.554 653.259L73.3786 652.508C73.125 652.419 72.8535 652.412 72.5966 652.489C72.3398 652.566 72.1084 652.723 71.9304 652.942L68.9107 656.644C68.6725 656.934 68.3437 657.115 67.9902 657.149L63.534 657.563C63.3274 657.576 63.1265 657.642 62.9476 657.757L55.1786 662.689C54.9361 662.841 54.6579 662.91 54.3799 662.885C54.1019 662.861 53.8369 662.745 53.619 662.553L51.4143 660.612C51.1674 660.395 50.8618 660.277 50.5465 660.275H42.197C41.9885 660.276 41.7826 660.224 41.5947 660.125C41.4068 660.025 41.2419 659.879 41.1123 659.699L39.0074 656.799C38.8812 656.626 38.7224 656.485 38.542 656.386C38.3616 656.287 38.1639 656.233 37.9626 656.227C37.7612 656.221 37.5611 656.263 37.376 656.351C37.1909 656.438 37.0253 656.569 36.8907 656.735L34.3577 659.841C34.1284 660.122 34.001 660.486 34 660.864V699.466C34 699.873 34.1464 700.263 34.407 700.551C34.6676 700.838 35.0211 701 35.3896 701H336.61C336.793 701 336.975 700.96 337.144 700.883C337.312 700.805 337.466 700.692 337.595 700.548C337.724 700.405 337.826 700.235 337.896 700.049C337.965 699.862 338.001 699.662 338 699.46L337.918 577.563C337.922 577.254 337.842 576.951 337.688 576.693C337.534 576.436 337.314 576.235 337.055 576.117C336.797 575.999 336.512 575.969 336.239 576.032C335.965 576.095 335.714 576.247 335.52 576.469V576.469Z" fill="#E1F0FE"/>
<path opacity="0.3" d="M335.25 626.317L330.712 629.663C330.552 629.781 330.412 629.928 330.295 630.097L327.475 634.214C327.304 634.458 327.083 634.654 326.83 634.785C326.577 634.915 326.3 634.978 326.021 634.967L325.1 634.915C324.784 634.897 324.478 634.784 324.217 634.587C323.955 634.391 323.747 634.118 323.616 633.799L323.03 632.418C322.899 632.094 322.688 631.817 322.422 631.619C322.155 631.421 321.843 631.309 321.522 631.298C321.201 631.286 320.883 631.375 320.606 631.554C320.328 631.732 320.101 631.994 319.952 632.308L318.779 634.792C318.633 635.096 318.414 635.351 318.146 635.528C317.879 635.705 317.572 635.798 317.26 635.797H311.444C311.06 635.798 310.687 635.657 310.385 635.396C310.083 635.135 309.869 634.769 309.778 634.357L308.383 628.178C308.305 627.833 308.142 627.52 307.911 627.273C307.681 627.026 307.392 626.855 307.078 626.78C306.765 626.706 306.438 626.729 306.136 626.849C305.834 626.969 305.568 627.18 305.369 627.458L296.984 639.181C296.747 639.515 296.416 639.75 296.044 639.85C295.672 639.95 295.28 639.909 294.932 639.732L289.543 637.042C289.261 636.896 288.948 636.837 288.638 636.873C288.328 636.908 288.033 637.036 287.784 637.243L285.855 638.818C285.762 638.894 285.678 638.981 285.603 639.077L280.513 645.309C280.342 645.526 280.128 645.697 279.889 645.809C279.649 645.921 279.389 645.972 279.129 645.957L275.804 645.724C275.623 645.712 275.442 645.729 275.265 645.776L272.269 646.625C271.927 646.724 271.566 646.703 271.236 646.566C270.905 646.429 270.621 646.182 270.422 645.86L270.082 645.302C269.919 645.04 269.7 644.828 269.443 644.684C269.187 644.54 268.903 644.47 268.616 644.479L265.273 644.589C264.888 644.596 264.516 644.752 264.224 645.03L263.403 645.788C263.208 645.969 262.98 646.099 262.735 646.171C262.489 646.242 262.233 646.252 261.983 646.201C261.734 646.15 261.498 646.038 261.292 645.873C261.086 645.709 260.916 645.496 260.794 645.25L259.926 643.513C259.714 643.088 259.364 642.769 258.946 642.62C258.529 642.472 258.076 642.506 257.68 642.715L252.057 645.704L245.835 649.257C245.632 649.373 245.411 649.442 245.183 649.461C244.955 649.48 244.727 649.448 244.51 649.368L239.555 647.552C239.333 647.471 239.097 647.44 238.864 647.461L229.271 648.363C228.945 648.4 228.636 648.537 228.377 648.758C228.118 648.979 227.92 649.275 227.805 649.614L226.415 653.906C226.331 654.164 226.198 654.399 226.024 654.595C225.85 654.79 225.64 654.942 225.409 655.039C225.177 655.136 224.929 655.177 224.681 655.159C224.434 655.14 224.193 655.062 223.976 654.931L223.917 654.899C223.561 654.68 223.146 654.61 222.747 654.7C222.348 654.79 221.992 655.036 221.742 655.391L220.651 656.935C220.362 657.336 219.94 657.595 219.478 657.654L216.476 658.011C216.307 658.03 216.141 658.076 215.984 658.147L211.228 660.397C211.014 660.494 210.785 660.545 210.554 660.546H208.267C207.987 660.546 207.712 660.47 207.465 660.326C207.217 660.181 207.006 659.972 206.848 659.716L206.52 659.184C206.314 658.852 206.018 658.601 205.674 658.467C205.33 658.333 204.957 658.323 204.608 658.439L199.278 660.222C198.913 660.344 198.521 660.328 198.164 660.177L195.69 659.126C195.503 659.045 195.304 659.001 195.103 658.996H189.791C189.561 658.996 189.333 659.049 189.122 659.152L183.845 661.629C183.474 661.806 183.059 661.831 182.672 661.7L180.063 660.838C179.809 660.754 179.541 660.736 179.279 660.786C179.018 660.835 178.771 660.951 178.556 661.123L177.413 662.05C177.066 662.33 176.638 662.457 176.212 662.406C175.785 662.354 175.392 662.128 175.108 661.772L174.938 661.558C174.708 661.267 174.402 661.06 174.063 660.966C173.723 660.873 173.366 660.896 173.038 661.032L168.787 662.828C168.409 662.981 167.993 662.981 167.615 662.828L165.75 662.089C165.409 661.959 165.041 661.948 164.695 662.057L162.935 662.621C162.55 662.744 162.138 662.714 161.771 662.536C161.404 662.359 161.104 662.045 160.924 661.648L160.267 660.189C160.124 659.874 159.905 659.609 159.634 659.424C159.362 659.239 159.05 659.14 158.731 659.139H157.207C157.007 659.143 156.809 659.108 156.62 659.035L150.704 656.74C150.491 656.656 150.266 656.619 150.04 656.633C149.815 656.646 149.594 656.709 149.39 656.818L145.069 659.113C144.836 659.235 144.582 659.3 144.324 659.301H138.865C138.634 659.302 138.405 659.353 138.191 659.45L137.077 659.982C136.728 660.146 136.341 660.178 135.974 660.073C135.607 659.969 135.282 659.734 135.048 659.405V659.405C134.888 659.177 134.682 658.992 134.448 658.865C134.213 658.738 133.955 658.672 133.693 658.672H130.938C130.54 658.672 130.155 658.823 129.847 659.1L128.246 660.553C127.917 660.854 127.498 661.008 127.071 660.984C126.644 660.96 126.241 660.76 125.942 660.423L125.578 660.021C125.343 659.759 125.045 659.579 124.719 659.502C124.393 659.425 124.054 659.454 123.743 659.586L122.148 660.267C121.712 660.447 121.229 660.429 120.805 660.215L115.194 657.337C115.095 657.284 114.99 657.245 114.883 657.22L110.479 656.02C110.132 655.924 109.766 655.952 109.434 656.098C109.101 656.245 108.819 656.503 108.626 656.837L105.859 661.609C105.753 661.793 105.676 661.994 105.63 662.206L104.792 666.259C104.691 666.721 104.441 667.127 104.088 667.4L102.259 668.787C102.036 668.957 101.78 669.066 101.512 669.104C101.243 669.142 100.971 669.109 100.716 669.008L96.9519 667.529C96.5584 667.376 96.1277 667.386 95.7403 667.558C95.3529 667.729 95.0353 668.051 94.8469 668.463L92.865 672.561C92.7347 672.837 92.6663 673.144 92.6656 673.456V675.304C92.6641 675.719 92.5402 676.122 92.3127 676.452C92.0851 676.782 91.7664 677.021 91.405 677.132L88.1096 678.144C87.76 678.253 87.3878 678.235 87.0483 678.092L84.1751 676.892C83.9325 676.789 83.6716 676.749 83.4128 676.776L78.4581 677.275C78.194 677.303 77.9277 677.263 77.6802 677.157C77.4328 677.051 77.2112 676.883 77.0332 676.665L76.4468 675.946C76.2027 675.643 75.8749 675.438 75.5145 675.362L73.257 674.856C73.0263 674.808 72.7891 674.811 72.5595 674.866C72.3299 674.92 72.1125 675.025 71.9201 675.174L68.9473 677.515C68.6813 677.722 68.3687 677.843 68.0442 677.865L63.4882 678.131C63.3159 678.143 63.1461 678.182 62.9839 678.248L55.0739 681.49C54.8524 681.582 54.6156 681.622 54.3791 681.607C54.1426 681.591 53.9117 681.52 53.7018 681.399L51.415 680.102C51.1735 679.966 50.9062 679.895 50.6351 679.894H42.1329C41.7402 679.894 41.3595 679.746 41.0539 679.473L38.9958 677.651C38.7041 677.393 38.3442 677.247 37.9707 677.235C37.5972 677.223 37.2304 677.347 36.9259 677.586L34.7212 679.324C34.4982 679.5 34.3165 679.733 34.1911 680.002C34.0656 680.272 34.0001 680.57 34 680.874V699.1C34 699.604 34.181 700.087 34.5032 700.444C34.8254 700.8 35.2624 701 35.718 701H336.282C336.738 701 337.175 700.8 337.497 700.444C337.819 700.087 338 699.604 338 699.1L337.918 627.925C337.922 627.579 337.841 627.239 337.683 626.941C337.525 626.642 337.297 626.397 337.022 626.232C336.748 626.066 336.438 625.987 336.125 626.002C335.813 626.017 335.51 626.126 335.25 626.317V626.317Z" fill="#E1F0FE"/>
<path d="M336 630C338.209 630 340 627.985 340 625.5C340 623.015 338.209 621 336 621C333.791 621 332 623.015 332 625.5C332 627.985 333.791 630 336 630Z" fill="#E1F0FE"/>
<path opacity="0.3" d="M336.217 671.068L330.641 673.1C330.534 673.14 330.432 673.194 330.336 673.26L327.275 675.471C327.052 675.63 326.791 675.71 326.525 675.701L324.619 675.65C324.442 675.646 324.267 675.603 324.106 675.522C323.944 675.442 323.8 675.326 323.681 675.182L322.508 673.773C322.391 673.632 322.25 673.518 322.093 673.437C321.936 673.357 321.765 673.311 321.592 673.303C321.418 673.296 321.245 673.326 321.082 673.392C320.919 673.458 320.77 673.559 320.643 673.689L318.667 675.714C318.427 675.965 318.108 676.105 317.776 676.105H310.927C310.683 676.107 310.443 676.033 310.236 675.893C310.028 675.752 309.861 675.55 309.754 675.31L308.189 671.895C308.107 671.717 307.992 671.559 307.852 671.432C307.711 671.306 307.548 671.212 307.372 671.159C307.196 671.105 307.012 671.092 306.832 671.121C306.651 671.149 306.478 671.219 306.324 671.325L296.631 678.034C296.338 678.235 295.984 678.301 295.646 678.22L289.008 676.586C288.763 676.522 288.506 676.54 288.27 676.637L285.848 677.617C285.784 677.639 285.723 677.669 285.666 677.707L280.312 680.949C280.106 681.073 279.873 681.134 279.638 681.129L275.674 680.988C275.606 680.981 275.537 680.981 275.469 680.988L271.658 681.52C271.326 681.564 270.991 681.47 270.719 681.257L269.945 680.616C269.717 680.432 269.438 680.335 269.154 680.341L264.973 680.405C264.806 680.405 264.64 680.442 264.486 680.514L262.61 681.379C262.38 681.483 262.128 681.513 261.883 681.467C261.638 681.42 261.41 681.299 261.226 681.116L259.69 679.629C259.533 679.475 259.344 679.365 259.14 679.308C258.936 679.251 258.722 679.249 258.517 679.303L252.102 680.994L245.505 682.859C245.328 682.901 245.144 682.901 244.966 682.859L239.395 681.847C239.305 681.84 239.215 681.84 239.126 681.847L228.823 682.353C228.625 682.362 228.432 682.421 228.259 682.524C228.085 682.628 227.935 682.773 227.82 682.949L226.266 685.288C226.111 685.525 225.893 685.705 225.641 685.802C225.39 685.9 225.116 685.91 224.859 685.832L223.2 685.333C223.023 685.282 222.838 685.271 222.658 685.302C222.477 685.333 222.304 685.405 222.15 685.512L220.491 686.672C220.299 686.801 220.082 686.876 219.857 686.89L216.339 687.101C216.273 687.095 216.206 687.095 216.14 687.101L211.062 688.287C210.971 688.307 210.879 688.318 210.786 688.319H207.807C207.531 688.319 207.262 688.222 207.039 688.043L206.265 687.402C206.129 687.291 205.974 687.211 205.808 687.165C205.643 687.12 205.472 687.112 205.303 687.14L198.965 688.178C198.819 688.203 198.671 688.203 198.525 688.178L195.546 687.537C195.464 687.527 195.382 687.527 195.3 687.537H189.583C189.493 687.527 189.403 687.527 189.313 687.537L183.514 688.883C183.359 688.915 183.2 688.915 183.045 688.883L179.591 688.312C179.373 688.28 179.152 688.306 178.946 688.389L176.729 689.273C176.551 689.346 176.36 689.375 176.171 689.357C175.981 689.339 175.797 689.276 175.633 689.171L174.583 688.53C174.317 688.358 174.002 688.299 173.698 688.364L168.42 689.459C168.264 689.491 168.102 689.491 167.946 689.459L165.407 688.966C165.269 688.943 165.128 688.943 164.99 688.966L162.187 689.408C161.987 689.442 161.782 689.423 161.59 689.354C161.397 689.285 161.222 689.167 161.079 689.011L160.153 688.043C159.905 687.778 159.573 687.629 159.226 687.627H157.004C156.93 687.633 156.855 687.633 156.781 687.627L150.296 686.383C150.12 686.342 149.938 686.342 149.762 686.383L144.86 687.665C144.76 687.691 144.658 687.704 144.555 687.703H138.65C138.561 687.694 138.47 687.694 138.381 687.703L136.381 688.171C136.044 688.273 135.684 688.227 135.378 688.043L134.827 687.652C134.617 687.506 134.373 687.428 134.123 687.428H130.552C130.383 687.429 130.216 687.466 130.06 687.537L127.562 688.652C127.39 688.73 127.204 688.767 127.018 688.759C126.832 688.752 126.649 688.7 126.483 688.607L125.158 687.876C124.9 687.736 124.608 687.691 124.325 687.748L121.71 688.299C121.532 688.341 121.348 688.341 121.17 688.299L115.107 686.762H114.972L109.818 686.063C109.475 686.02 109.13 686.126 108.857 686.358L105.925 688.844C105.761 688.983 105.63 689.163 105.544 689.37L104.887 690.965C104.813 691.141 104.707 691.298 104.576 691.428C104.445 691.558 104.292 691.658 104.125 691.721L101.873 692.561C101.665 692.644 101.44 692.664 101.222 692.618L96.2143 691.644C96.0145 691.607 95.8094 691.62 95.6151 691.683C95.4208 691.747 95.2426 691.858 95.0944 692.01L93.1066 694.041C92.9761 694.175 92.8723 694.337 92.8017 694.516C92.7311 694.696 92.6951 694.89 92.6961 695.085C92.6962 695.429 92.5821 695.762 92.3751 696.021C92.1681 696.28 91.8822 696.449 91.5703 696.495L87.8116 697.066C87.6719 697.091 87.5292 697.091 87.3894 697.066L83.9884 696.361C83.8871 696.348 83.7848 696.348 83.6835 696.361L78.0016 696.643C77.7629 696.653 77.526 696.593 77.3155 696.47L76.3187 695.874C76.1656 695.778 75.9957 695.719 75.8202 695.701L72.8356 695.374C72.6373 695.351 72.437 695.378 72.2492 695.451L68.731 696.816C68.6009 696.866 68.4644 696.894 68.3264 696.899L63.3246 697.046C63.2563 697.04 63.1877 697.04 63.1194 697.046L54.6463 698.757C54.4625 698.799 54.2729 698.799 54.0892 698.757L51.2043 697.95C51.0966 697.922 50.9865 697.907 50.8759 697.905H41.7812C41.6143 697.907 41.4488 697.872 41.2945 697.802L38.4447 696.559C38.1465 696.435 37.8165 696.435 37.5183 696.559L34.8679 697.591C34.6139 697.688 34.3938 697.869 34.2383 698.109C34.0828 698.349 33.9995 698.636 34 698.93V699.571C33.9992 699.758 34.0324 699.944 34.0974 700.117C34.1625 700.291 34.2583 700.448 34.3792 700.581C34.5002 700.714 34.6439 700.819 34.8023 700.891C34.9606 700.963 35.1303 701 35.3018 701H336.698C336.87 701 337.039 700.963 337.198 700.891C337.356 700.819 337.5 700.714 337.621 700.581C337.742 700.448 337.838 700.291 337.903 700.117C337.968 699.944 338.001 699.758 338 699.571L337.924 672.485C337.932 672.255 337.889 672.027 337.8 671.819C337.71 671.611 337.575 671.43 337.408 671.291C337.241 671.152 337.045 671.059 336.838 671.02C336.63 670.982 336.418 670.998 336.217 671.068V671.068Z" fill="#E1F0FE"/>
<path d="M111 661C113.209 661 115 658.985 115 656.5C115 654.015 113.209 652 111 652C108.791 652 107 654.015 107 656.5C107 658.985 108.791 661 111 661Z" fill="#E1F0FE"/>
<path d="M307.5 632C309.985 632 312 629.985 312 627.5C312 625.015 309.985 623 307.5 623C305.015 623 303 625.015 303 627.5C303 629.985 305.015 632 307.5 632Z" fill="#E1F0FE"/>
<path d="M205.5 663C207.985 663 210 660.985 210 658.5C210 656.015 207.985 654 205.5 654C203.015 654 201 656.015 201 658.5C201 660.985 203.015 663 205.5 663Z" fill="#E1F0FE"/>
<path d="M259 647C261.209 647 263 644.985 263 642.5C263 640.015 261.209 638 259 638C256.791 638 255 640.015 255 642.5C255 644.985 256.791 647 259 647Z" fill="#E1F0FE"/>
<path opacity="0.3" d="M70 731C71.6569 731 73 729.433 73 727.5C73 725.567 71.6569 724 70 724C68.3431 724 67 725.567 67 727.5C67 729.433 68.3431 731 70 731Z" fill="#E1F0FE"/>
<path opacity="0.3" d="M112 731C113.657 731 115 729.433 115 727.5C115 725.567 113.657 724 112 724C110.343 724 109 725.567 109 727.5C109 729.433 110.343 731 112 731Z" fill="#E1F0FE"/>
<path opacity="0.3" d="M155 731C156.657 731 158 729.433 158 727.5C158 725.567 156.657 724 155 724C153.343 724 152 725.567 152 727.5C152 729.433 153.343 731 155 731Z" fill="#E1F0FE"/>
<path opacity="0.3" d="M198 731C199.657 731 201 729.433 201 727.5C201 725.567 199.657 724 198 724C196.343 724 195 725.567 195 727.5C195 729.433 196.343 731 198 731Z" fill="#E1F0FE"/>
<path opacity="0.3" d="M241 731C242.657 731 244 729.433 244 727.5C244 725.567 242.657 724 241 724C239.343 724 238 725.567 238 727.5C238 729.433 239.343 731 241 731Z" fill="#E1F0FE"/>
<path opacity="0.3" d="M283.5 731C284.881 731 286 729.433 286 727.5C286 725.567 284.881 724 283.5 724C282.119 724 281 725.567 281 727.5C281 729.433 282.119 731 283.5 731Z" fill="#E1F0FE"/>
<path opacity="0.3" d="M326 731C327.657 731 329 729.433 329 727.5C329 725.567 327.657 724 326 724C324.343 724 323 725.567 323 727.5C323 729.433 324.343 731 326 731Z" fill="#E1F0FE"/>
<g filter="url(#filter0_d)">
<path d="M481.505 104.026L481.426 97.9467L481.426 97.9467L481.505 104.026ZM605.664 178.315L600.533 181.277L600.533 181.277L605.664 178.315ZM617.601 208.394C620.758 209.311 624.006 207.435 624.857 204.206L638.72 151.571C639.571 148.341 637.701 144.98 634.544 144.064C631.388 143.147 628.139 145.023 627.288 148.253L614.966 195.039L569.238 181.764C566.081 180.848 562.832 182.723 561.982 185.953C561.131 189.183 563 192.544 566.157 193.461L617.601 208.394ZM448.856 110.106L481.583 110.105L481.426 97.9467L448.699 97.9476L448.856 110.106ZM600.533 181.277L614.01 205.508L624.272 199.584L610.795 175.353L600.533 181.277ZM481.583 110.105C530.581 110.103 576.093 137.335 600.533 181.277L610.795 175.353C584.214 127.562 534.716 97.9451 481.426 97.9467L481.583 110.105Z" fill="black"/>
</g>
<g filter="url(#filter1_d)">
<path d="M932.624 477.892L937.996 475.244L937.996 475.244L932.624 477.892ZM927.746 614.199L932.913 617.27L932.913 617.27L927.746 614.199ZM919.007 620.635C919.835 623.848 923.106 625.792 926.314 624.978L978.585 611.709C981.793 610.895 983.722 607.63 982.895 604.417C982.067 601.204 978.795 599.259 975.588 600.073L929.124 611.868L917.133 565.325C916.306 562.112 913.034 560.168 909.827 560.982C906.619 561.796 904.69 565.061 905.518 568.274L919.007 620.635ZM922.911 471.78L927.253 480.539L937.996 475.244L933.654 466.484L922.911 471.78ZM922.58 611.128L919.648 616.089L929.981 622.232L932.913 617.27L922.58 611.128ZM927.253 480.539C947.88 522.153 946.122 571.289 922.58 611.128L932.913 617.27C958.517 573.942 960.429 520.502 937.996 475.244L927.253 480.539Z" fill="black"/>
</g>
<g filter="url(#filter2_d)">
<path d="M468.405 882.69L468.135 888.765L468.135 888.765L468.405 882.69ZM350.669 805.064L355.879 802.246L355.879 802.246L350.669 805.064ZM351.84 798.228C348.713 797.222 345.414 799.007 344.473 802.214L329.127 854.473C328.185 857.68 329.957 861.094 333.084 862.1C336.211 863.105 339.51 861.321 340.451 858.114L354.092 811.662L399.391 826.227C402.518 827.233 405.816 825.448 406.758 822.241C407.7 819.035 405.928 815.62 402.801 814.614L351.84 798.228ZM473.864 876.919L468.674 876.614L468.135 888.765L473.325 889.07L473.864 876.919ZM355.879 802.246L355.345 801.216L344.925 806.853L345.46 807.883L355.879 802.246ZM468.674 876.614C421.203 873.83 378.365 845.587 355.879 802.246L345.46 807.883C369.915 855.02 416.505 885.737 468.135 888.765L468.674 876.614Z" fill="black"/>
</g>
<path d="M908 359.878C908 343.006 904.239 326.472 897.144 312.158C890.05 297.845 879.907 286.327 867.871 278.916C855.835 271.505 842.388 268.498 829.061 270.237C815.735 271.976 803.063 278.392 792.489 288.753C783.489 275.639 771.876 265.782 758.846 260.198C745.816 254.615 731.839 253.506 718.355 256.986C704.871 260.466 692.368 268.409 682.132 279.997C671.896 291.586 664.298 306.401 660.119 322.917C653.129 315.09 644.733 309.519 635.654 306.683C626.576 303.847 617.086 303.831 608.001 306.636C598.916 309.44 590.508 314.982 583.5 322.784C576.492 330.586 571.094 340.415 567.77 351.425C564.446 362.436 563.295 374.299 564.417 385.994C565.538 397.688 568.899 408.865 574.209 418.562C579.52 428.259 586.621 436.187 594.903 441.663C603.184 447.139 612.398 450 621.752 450C622.649 450 623.541 449.97 624.429 449.919C625.345 449.969 626.266 450 627.192 450H843.971C859.569 449.999 874.608 442.685 886.158 429.484C897.708 416.283 904.942 398.139 906.451 378.588C907.482 372.436 908.001 366.166 908 359.878V359.878Z" fill="#24292E"/>
<path d="M699 321H748.695V339.88H718.567V357.96H748.695V376.68H718.567V413H699V321ZM806 339.88V321H756.305V339.88H806ZM781.463 376.68V357.96H756.305V376.68H781.463Z" fill="white"/>
<path d="M699 321H748.695V339.88H718.567V357.96H748.695V376.68H718.567V413H699V321ZM806 339.88V321H756.305V339.88H806ZM781.463 376.68V357.96H756.305V376.68H781.463Z" fill="white"/>
<defs>
<filter id="filter0_d" x="444.699" y="97.9463" width="198.227" height="118.68" filterUnits="userSpaceOnUse" color-interpolation-filters="sRGB">
<feFlood flood-opacity="0" result="BackgroundImageFix"/>
<feColorMatrix in="SourceAlpha" type="matrix" values="0 0 0 0 0 0 0 0 0 0 0 0 0 0 0 0 0 0 127 0"/>
<feOffset dy="4"/>
<feGaussianBlur stdDeviation="2"/>
<feColorMatrix type="matrix" values="0 0 0 0 0 0 0 0 0 0 0 0 0 0 0 0 0 0 0.25 0"/>
<feBlend mode="normal" in2="BackgroundImageFix" result="effect1_dropShadow"/>
<feBlend mode="normal" in="SourceGraphic" in2="effect1_dropShadow" result="shape"/>
</filter>
<filter id="filter1_d" x="901.326" y="466.484" width="85.7604" height="166.679" filterUnits="userSpaceOnUse" color-interpolation-filters="sRGB">
<feFlood flood-opacity="0" result="BackgroundImageFix"/>
<feColorMatrix in="SourceAlpha" type="matrix" values="0 0 0 0 0 0 0 0 0 0 0 0 0 0 0 0 0 0 127 0"/>
<feOffset dy="4"/>
<feGaussianBlur stdDeviation="2"/>
<feColorMatrix type="matrix" values="0 0 0 0 0 0 0 0 0 0 0 0 0 0 0 0 0 0 0.25 0"/>
<feBlend mode="normal" in2="BackgroundImageFix" result="effect1_dropShadow"/>
<feBlend mode="normal" in="SourceGraphic" in2="effect1_dropShadow" result="shape"/>
</filter>
<filter id="filter2_d" x="324.874" y="797.947" width="152.99" height="99.1219" filterUnits="userSpaceOnUse" color-interpolation-filters="sRGB">
<feFlood flood-opacity="0" result="BackgroundImageFix"/>
<feColorMatrix in="SourceAlpha" type="matrix" values="0 0 0 0 0 0 0 0 0 0 0 0 0 0 0 0 0 0 127 0"/>
<feOffset dy="4"/>
<feGaussianBlur stdDeviation="2"/>
<feColorMatrix type="matrix" values="0 0 0 0 0 0 0 0 0 0 0 0 0 0 0 0 0 0 0.25 0"/>
<feBlend mode="normal" in2="BackgroundImageFix" result="effect1_dropShadow"/>
<feBlend mode="normal" in="SourceGraphic" in2="effect1_dropShadow" result="shape"/>
</filter>
</defs>
</svg>
