<svg width="862" height="634" viewBox="0 0 862 634" fill="none" xmlns="http://www.w3.org/2000/svg">
<g clip-path="url(#clip0)">
<path d="M606.096 602.011H0V604.011H606.096V602.011Z" fill="#2F2E41"/>
<path d="M187.928 103.305H182.375L158.772 188.923C158.772 188.923 158.309 245.848 163.862 273.616C163.862 273.616 173.119 261.583 179.598 261.583C186.077 261.583 192.093 200.956 192.093 200.956C192.093 200.956 217.548 114.412 187.928 103.305Z" fill="#2F2E41"/>
<path d="M310.108 267.136C310.108 267.136 295.298 308.788 309.182 311.565C323.066 314.342 330.471 279.169 326.769 274.541C323.066 269.913 310.108 267.136 310.108 267.136Z" fill="#FEB8B8"/>
<path d="M162.357 258.531C162.357 258.531 166.52 302.541 180.278 299.196C194.036 295.85 185.897 260.84 180.586 258.208C175.276 255.576 162.357 258.531 162.357 258.531Z" fill="#FEB8B8"/>
<path d="M198.11 516.124C198.11 516.124 204.589 547.595 193.482 555.925C182.375 564.256 197.184 581.842 197.184 581.842L232.357 544.818C232.357 544.818 217.548 521.678 218.473 507.794L198.11 516.124Z" fill="#FEB8B8"/>
<path d="M253.646 544.818L249.944 569.809L249.018 587.395L269.381 585.544L272.158 549.446L253.646 544.818Z" fill="#FEB8B8"/>
<path d="M175.278 262.942C175.278 262.942 163.863 267.136 164.788 279.169C165.714 291.202 168.491 329.152 168.491 329.152C168.491 329.152 160.16 410.605 168.491 438.373C176.821 466.141 192.556 521.677 192.556 521.677C192.556 521.677 216.622 526.305 222.176 508.719C222.176 508.719 221.25 448.555 211.068 435.596C200.887 422.638 208.292 418.935 209.217 417.084C210.143 415.233 212.92 412.456 212.92 409.679C212.92 406.902 213.845 396.721 213.845 393.018C213.845 389.316 212.92 390.242 214.771 384.688C216.622 379.134 218.473 377.283 218.473 376.358C218.473 375.432 234.209 326.375 234.209 326.375L254.572 440.224C254.572 440.224 249.944 552.222 251.795 552.222C253.646 552.222 274.01 559.627 281.414 552.222C281.414 552.222 299.926 455.96 296.224 450.406C292.522 444.852 291.596 443.927 292.522 438.373C293.447 432.819 295.298 430.043 293.447 427.266C291.596 424.489 288.819 415.233 291.596 412.456C294.373 409.679 295.298 396.721 295.298 396.721C295.298 396.721 311.034 306.012 300.852 293.053C290.67 280.095 175.278 262.942 175.278 262.942Z" fill="#2F2E41"/>
<path d="M206.44 556.851C206.44 556.851 195.333 542.967 191.631 549.446C187.928 555.925 182.375 566.107 182.375 566.107C182.375 566.107 140.723 602.205 163.863 603.131C187.003 604.057 201.812 587.396 201.812 587.396C201.812 587.396 205.515 568.884 216.622 568.884L218.473 573.512L238.837 560.553C238.837 560.553 235.969 535.977 227.684 536.695L206.44 556.851Z" fill="#2F2E41"/>
<path d="M245.316 584.619C245.316 584.619 269.381 575.363 272.158 584.619C274.935 593.875 274.935 598.503 274.935 598.503C274.935 598.503 295.298 631.824 274.935 633.676C254.572 635.527 245.316 622.568 245.316 622.568C245.316 622.568 248.092 606.833 245.316 604.982C242.539 603.131 245.316 584.619 245.316 584.619Z" fill="#2F2E41"/>
<path d="M261.977 73.6853C279.869 73.6853 294.373 59.1811 294.373 41.2892C294.373 23.3973 279.869 8.89307 261.977 8.89307C244.085 8.89307 229.581 23.3973 229.581 41.2892C229.581 59.1811 244.085 73.6853 261.977 73.6853Z" fill="#FEB8B8"/>
<path d="M237.911 48.6938L231.432 84.7924L276.786 95.8997C276.786 95.8997 266.142 69.52 277.712 57.9499C280.639 55.0229 237.911 48.6938 237.911 48.6938Z" fill="#FEB8B8"/>
<path d="M234.192 69.4136C233.099 69.6194 232.087 70.1295 231.271 70.8851C230.455 71.6408 229.869 72.6114 229.581 73.6852C228.773 76.3446 227.521 78.8482 225.878 81.0901C225.878 81.0901 182.375 101.453 182.375 104.23C182.375 107.007 199.961 166.246 199.961 166.246C199.961 166.246 200.887 203.27 193.482 211.6C186.077 219.931 178.672 250.476 180.524 253.252C182.375 256.029 167.565 262.508 173.119 267.137C178.672 271.765 256.423 316.194 302.703 295.83C302.703 295.83 303.629 287.5 302.703 281.946C301.778 276.393 308.257 257.88 306.406 251.401C304.555 244.922 306.406 178.279 306.406 178.279L315.945 99.3646C316.127 97.8657 315.775 96.3505 314.951 95.0851C314.127 93.8197 312.884 92.8851 311.439 92.4455C300.771 89.2032 276.031 75.9283 272.621 78.7761C268.206 82.4633 240.655 79.9516 234.192 69.4136Z" fill="#2F2E41"/>
<path d="M307.331 92.1971L307.39 92.1735C308.714 91.6424 310.177 91.5673 311.548 91.9601C312.919 92.3528 314.12 93.191 314.962 94.3423C320.698 102.191 332.768 119.831 334.173 131.072C336.025 145.882 341.578 185.683 340.653 191.237C339.727 196.79 338.801 197.716 340.653 200.493C342.504 203.27 341.578 202.344 340.653 205.121C339.727 207.898 328.62 284.723 328.62 284.723C328.62 284.723 321.215 268.062 307.331 273.615C307.331 273.615 309.182 258.806 307.331 254.178C305.48 249.55 303.628 246.773 305.48 243.071C307.331 239.368 305.48 203.27 304.554 199.567C303.628 195.865 304.554 176.427 304.554 176.427L296.224 138.477L307.331 92.1971Z" fill="#2F2E41"/>
<path d="M255.926 46.8044L257.02 39.1764C257.275 37.3984 258.316 35.0607 260.046 35.5442C261.517 35.9554 264.722 37.2149 265.259 36.8348C267.269 35.411 270.31 37.9005 272.424 36.6358C273.309 36.1059 273.887 34.9706 274.916 34.8948C275.607 34.9389 276.257 35.2337 276.746 35.7237C278.118 36.9168 279.734 37.7949 281.482 38.2965C282.359 38.5353 283.283 38.5352 284.16 38.2962C285.037 38.0573 285.833 37.5882 286.468 36.9375C286.692 36.591 286.994 36.3015 287.349 36.0924C287.767 35.972 288.213 35.9925 288.617 36.1507L294.017 37.6209C294.811 34.7413 294.975 31.7242 294.495 28.7758C294.016 25.8274 292.906 23.0172 291.241 20.5373C289.05 17.5637 286.395 14.9628 283.376 12.8346C280.032 10.2905 276.581 7.89763 273.023 5.65591C269.128 3.19575 264.998 0.875049 260.444 0.183479C255.89 -0.508021 250.791 0.729155 247.927 4.3362C246.58 3.36112 245.567 1.99309 245.028 0.419746C244.707 0.711957 244.454 1.0711 244.286 1.47182C244.119 1.87255 244.042 2.30508 244.06 2.7389C244.078 3.17272 244.192 3.59726 244.392 3.98252C244.592 4.36779 244.875 4.70439 245.219 4.96859L240.652 2.05221C239.368 3.40021 241.877 5.84458 240.783 7.35087C240.452 7.7234 240.028 8.00058 239.553 8.15362C237.074 9.12013 234.801 10.5506 232.857 12.3684C230.232 15.0005 228.807 18.5733 227.583 22.0834C224.862 29.8908 222.884 38.8444 226.75 46.1526C227.189 46.9811 232.975 60.6563 233.746 61.1896C236.352 62.9922 234.655 58.6297 236.523 61.1896C237.987 63.197 237.713 55.5139 239.889 57.2003C240.742 57.8108 241.754 58.1608 242.802 58.2079C243.85 58.255 244.889 57.9973 245.794 57.4659C246.696 56.8402 246.405 53.3657 245.918 50.1751C245.825 49.5673 245.883 48.946 246.085 48.3656C246.288 47.7852 246.63 47.2634 247.082 46.846C247.533 46.4286 248.08 46.1283 248.675 45.9714C249.269 45.8145 249.893 45.8058 250.492 45.9461C253.202 46.5835 255.88 47.1283 255.926 46.8044Z" fill="#2F2E41"/>
<path opacity="0.1" d="M300.531 120.531L308.719 212.989C308.719 212.989 291.417 135.444 300.531 120.531Z" fill="black"/>
<path d="M148.424 440.614C135.174 459.344 131.674 565.944 130.894 600.114C130.874 600.884 130.854 601.614 130.844 602.304H97.304C96.894 601.574 96.514 600.854 96.154 600.114C76.274 560.874 87.3039 513.824 87.8839 511.444C86.3739 518.924 93.2039 540.604 100.924 561.604C105.634 497.034 145.904 443.874 148.424 440.614Z" fill="#2F2E41"/>
<path d="M745.169 171.323C757.687 171.323 767.835 161.174 767.835 148.656C767.835 136.137 757.687 125.989 745.169 125.989C732.65 125.989 722.502 136.137 722.502 148.656C722.502 161.174 732.65 171.323 745.169 171.323Z" fill="#2F2E41"/>
<path d="M749.702 182.656H647.702C638.685 182.656 630.037 179.074 623.661 172.698C617.284 166.322 613.702 157.674 613.702 148.656C613.702 139.639 617.284 130.991 623.661 124.615C630.037 118.238 638.685 114.656 647.702 114.656H749.702C758.72 114.656 767.368 118.238 773.744 124.615C780.12 130.991 783.702 139.639 783.702 148.656C783.702 157.674 780.12 166.322 773.744 172.698C767.368 179.074 758.72 182.656 749.702 182.656ZM647.702 119.19C639.887 119.19 632.392 122.294 626.866 127.82C621.34 133.346 618.235 140.841 618.235 148.656C618.235 156.471 621.34 163.966 626.866 169.492C632.392 175.018 639.887 178.123 647.702 178.123H749.702C757.517 178.123 765.012 175.018 770.538 169.492C776.064 163.966 779.169 156.471 779.169 148.656C779.169 140.841 776.064 133.346 770.538 127.82C765.012 122.294 757.517 119.19 749.702 119.19H647.702Z" fill="#2F2E41"/>
<path d="M651.376 296.101C663.894 296.101 674.042 285.953 674.042 273.434C674.042 260.916 663.894 250.768 651.376 250.768C638.857 250.768 628.709 260.916 628.709 273.434C628.709 285.953 638.857 296.101 651.376 296.101Z" fill="#2F2E41"/>
<path d="M749.702 307.435H647.702C638.685 307.435 630.037 303.852 623.661 297.476C617.284 291.1 613.702 282.452 613.702 273.435C613.702 264.417 617.284 255.769 623.661 249.393C630.037 243.017 638.685 239.435 647.702 239.435H749.702C758.72 239.435 767.368 243.017 773.744 249.393C780.12 255.769 783.702 264.417 783.702 273.435C783.702 282.452 780.12 291.1 773.744 297.476C767.368 303.852 758.72 307.435 749.702 307.435ZM647.702 243.968C639.887 243.968 632.392 247.072 626.866 252.598C621.34 258.125 618.235 265.62 618.235 273.435C618.235 281.25 621.34 288.745 626.866 294.271C632.392 299.797 639.887 302.901 647.702 302.901H749.702C757.517 302.901 765.012 299.797 770.538 294.271C776.064 288.745 779.169 281.25 779.169 273.435C779.169 265.62 776.064 258.125 770.538 252.598C765.012 247.072 757.517 243.968 749.702 243.968H647.702Z" fill="#2F2E41"/>
<path d="M651.376 420.879C663.894 420.879 674.042 410.731 674.042 398.213C674.042 385.694 663.894 375.546 651.376 375.546C638.857 375.546 628.709 385.694 628.709 398.213C628.709 410.731 638.857 420.879 651.376 420.879Z" fill="#2F2E41"/>
<path d="M749.702 432.213H647.702C638.685 432.213 630.037 428.631 623.661 422.255C617.284 415.878 613.702 407.23 613.702 398.213C613.702 389.196 617.284 380.548 623.661 374.171C630.037 367.795 638.685 364.213 647.702 364.213H749.702C758.72 364.213 767.368 367.795 773.744 374.171C780.12 380.548 783.702 389.196 783.702 398.213C783.702 407.23 780.12 415.878 773.744 422.255C767.368 428.631 758.72 432.213 749.702 432.213ZM647.702 368.746C639.887 368.746 632.392 371.851 626.866 377.377C621.34 382.903 618.235 390.398 618.235 398.213C618.235 406.028 621.34 413.523 626.866 419.049C632.392 424.575 639.887 427.68 647.702 427.68H749.702C753.572 427.68 757.403 426.917 760.979 425.437C764.554 423.956 767.802 421.785 770.538 419.049C773.274 416.313 775.445 413.064 776.926 409.489C778.407 405.914 779.169 402.083 779.169 398.213C779.169 394.343 778.407 390.512 776.926 386.936C775.445 383.361 773.274 380.113 770.538 377.377C767.802 374.641 764.554 372.47 760.979 370.989C757.403 369.508 753.572 368.746 749.702 368.746H647.702Z" fill="#2F2E41"/>
<path d="M856.202 528.422H541.202C539.876 528.421 538.605 527.894 537.668 526.956C536.731 526.019 536.203 524.748 536.202 523.422V23.4468C536.203 22.1212 536.731 20.8503 537.668 19.913C538.605 18.9756 539.876 18.4483 541.202 18.4468H856.202C857.528 18.4483 858.799 18.9756 859.736 19.913C860.673 20.8503 861.201 22.1212 861.202 23.4468V523.422C861.201 524.748 860.673 526.019 859.736 526.956C858.799 527.894 857.528 528.421 856.202 528.422ZM541.202 20.4468C540.406 20.4476 539.644 20.764 539.081 21.3264C538.519 21.8888 538.203 22.6514 538.202 23.4468V523.422C538.203 524.218 538.519 524.98 539.081 525.543C539.644 526.105 540.406 526.421 541.202 526.422H856.202C856.997 526.421 857.76 526.105 858.322 525.543C858.885 524.98 859.201 524.218 859.202 523.422V23.4468C859.201 22.6514 858.885 21.8888 858.322 21.3264C857.76 20.764 856.997 20.4476 856.202 20.4468H541.202Z" fill="#A5A5A7"/>
</g>
<defs>
<clipPath id="clip0">
<rect width="861.202" height="633.857" fill="white"/>
</clipPath>
</defs>
</svg>
