<svg width="1217" height="675" viewBox="0 0 1217 675" fill="none" xmlns="http://www.w3.org/2000/svg">
<path d="M787.414 46.3422L787.253 46.4231C785.523 47.3001 783.583 47.7628 781.61 47.7692C779.638 47.7756 777.694 47.3255 775.957 46.4598C775.857 46.4098 775.757 46.3604 775.658 46.3116C773.921 45.4525 771.981 45.006 770.012 45.0123C768.042 45.0186 766.105 45.4775 764.375 46.3477L764.225 46.4231C762.494 47.3001 760.555 47.7628 758.582 47.7692C756.609 47.7756 754.666 47.3256 752.929 46.4599C752.825 46.4079 752.721 46.3567 752.619 46.3061C750.902 45.4508 748.984 45.0017 747.034 44.9985C745.085 44.9953 743.165 45.4381 741.445 46.2877C736.191 48.9093 729.087 53.3917 729.119 58.4539C729.12 58.654 729.132 58.854 729.155 59.0531C729.766 64.3101 748.274 65.6496 758.44 63.1721C766.019 64.7743 773.89 64.7743 781.469 63.1721C791.592 65.6893 810.476 64.2472 811.028 58.9299C811.049 58.7306 811.058 58.5306 811.057 58.3304C811.026 53.2655 803.86 48.8301 798.572 46.2454C796.848 45.4093 794.927 44.9807 792.98 44.9976C791.033 45.0144 789.121 45.4763 787.414 46.3422Z" fill="#E6E6E6"/>
<path d="M326.866 466.703H111.343V474.053H326.866V466.703Z" fill="white"/>
<path d="M814.767 466.703H599.244V474.053H814.767V466.703Z" fill="white"/>
<path d="M1146.65 466.703H931.123V474.053H1146.65V466.703Z" fill="white"/>
<path d="M1147.91 355.369C1145.93 356.319 1144.08 357.499 1142.42 358.881C1140.74 357.492 1138.86 356.312 1136.85 355.369C1134.87 356.319 1133.02 357.499 1131.37 358.881C1129.68 357.492 1127.8 356.312 1125.79 355.369C1125.79 355.369 1117.19 359.286 1117.22 364.073C1117.22 364.193 1117.22 364.312 1117.24 364.43C1117.53 367.564 1126.42 368.363 1131.3 366.886C1134.91 367.841 1138.74 367.841 1142.36 366.886C1147.22 368.386 1156.29 367.527 1156.55 364.357C1156.56 364.238 1156.57 364.119 1156.57 363.999C1156.54 359.213 1147.91 355.369 1147.91 355.369Z" fill="#F2F2F2"/>
<path d="M9.21863 190.713L1.59204 185.06L44.2959 149.735H152.581V180.822L82.4249 224.625L9.21863 190.713Z" fill="#3F3D56"/>
<path d="M172.324 169.55V150.441H157.948V155.121L152.581 149.735L117.504 185.06L103.778 193.539L82.4937 337.603L114.591 367.341H189.185V186.474L172.324 169.55Z" fill="#CCCCCC"/>
<path d="M117.503 185.061H1.59229V367.341H117.503V185.061Z" fill="#F2F2F2"/>
<path d="M67.9358 322.83H46.5839V367.341H67.9358V322.83Z" fill="#CCCCCC"/>
<path d="M23.7074 335.547V328.482H14.5563V335.547H22.9445H23.7074Z" fill="#3F3D56"/>
<path d="M22.9445 341.199H14.5563V348.265H23.7074V341.199H22.9445Z" fill="#3F3D56"/>
<path d="M38.9583 328.482H29.8075V335.548H38.9583V328.482Z" fill="#3F3D56"/>
<path d="M38.9583 341.199H29.8075V348.264H38.9583V341.199Z" fill="#3F3D56"/>
<path d="M86.238 335.547V328.482H77.0869V335.547H85.4751H86.238Z" fill="#3F3D56"/>
<path d="M85.4751 341.199H77.0869V348.265H86.238V341.199H85.4751Z" fill="#3F3D56"/>
<path d="M101.489 328.482H92.3383V335.548H101.489V328.482Z" fill="#3F3D56"/>
<path d="M101.489 341.199H92.3383V348.264H101.489V341.199Z" fill="#3F3D56"/>
<path d="M150.293 194.246V187.18H141.142V194.246H149.532H150.293Z" fill="#3F3D56"/>
<path d="M149.532 199.897H141.142V206.962H150.293V199.897H149.532Z" fill="#3F3D56"/>
<path d="M165.545 187.18H156.394V194.245H165.545V187.18Z" fill="#3F3D56"/>
<path d="M165.545 199.896H156.394V206.962H165.545V199.896Z" fill="#3F3D56"/>
<path d="M150.293 233.81V226.745H141.142V233.81H149.532H150.293Z" fill="#3F3D56"/>
<path d="M149.532 239.462H141.142V246.527H150.293V239.462H149.532Z" fill="#3F3D56"/>
<path d="M165.545 226.744H156.394V233.809H165.545V226.744Z" fill="#3F3D56"/>
<path d="M165.545 239.462H156.394V246.527H165.545V239.462Z" fill="#3F3D56"/>
<path d="M150.293 273.374V266.31H141.142V273.374H149.532H150.293Z" fill="#3F3D56"/>
<path d="M149.532 279.027H141.142V286.092H150.293V279.027H149.532Z" fill="#3F3D56"/>
<path d="M165.545 266.309H156.394V273.374H165.545V266.309Z" fill="#3F3D56"/>
<path d="M165.545 279.026H156.394V286.092H165.545V279.026Z" fill="#3F3D56"/>
<path d="M150.293 312.94V305.875H141.142V312.94H149.532H150.293Z" fill="#3F3D56"/>
<path d="M149.532 318.592H141.142V325.656H150.293V318.592H149.532Z" fill="#3F3D56"/>
<path d="M165.545 305.874H156.394V312.939H165.545V305.874Z" fill="#3F3D56"/>
<path d="M165.545 318.592H156.394V325.657H165.545V318.592Z" fill="#3F3D56"/>
<path d="M103.014 194.245H14.5562V211.201H103.014V194.245Z" fill="#3F3D56"/>
<path d="M103.014 228.157H14.5562V245.114H103.014V228.157Z" fill="#3F3D56"/>
<path d="M103.014 262.07H14.5562V279.027H103.014V262.07Z" fill="#3F3D56"/>
<path d="M103.014 295.982H14.5562V312.939H103.014V295.982Z" fill="#3F3D56"/>
<path d="M182.737 356.394C180.755 357.343 178.912 358.523 177.253 359.906C175.566 358.517 173.692 357.336 171.678 356.394C169.696 357.343 167.853 358.523 166.194 359.906C164.507 358.517 162.633 357.336 160.619 356.394C160.619 356.394 152.022 360.311 152.046 365.097C152.047 365.217 152.053 365.336 152.064 365.455C152.357 368.589 161.245 369.387 166.128 367.91C169.742 368.865 173.572 368.865 177.187 367.91C182.048 369.411 191.117 368.551 191.382 365.381C191.392 365.263 191.397 365.144 191.396 365.024C191.373 360.237 182.737 356.394 182.737 356.394Z" fill="#6C63FF"/>
<path d="M143.034 190.713L135.408 185.06L178.112 149.735H286.397V180.822L216.241 224.625L143.034 190.713Z" fill="#3F3D56"/>
<path d="M306.14 169.55V150.441H291.764V155.121L286.397 149.735L251.319 185.06L237.593 193.539L216.31 337.603L248.407 367.341H323.001V186.474L306.14 169.55Z" fill="#CCCCCC"/>
<path d="M251.319 185.061H135.408V367.341H251.319V185.061Z" fill="#F2F2F2"/>
<path d="M201.752 322.83H180.4V367.341H201.752V322.83Z" fill="#CCCCCC"/>
<path d="M157.523 335.547V328.482H148.372V335.547H156.76H157.523Z" fill="#3F3D56"/>
<path d="M156.76 341.199H148.372V348.265H157.523V341.199H156.76Z" fill="#3F3D56"/>
<path d="M172.774 328.482H163.623V335.548H172.774V328.482Z" fill="#3F3D56"/>
<path d="M172.774 341.199H163.623V348.264H172.774V341.199Z" fill="#3F3D56"/>
<path d="M220.054 335.547V328.482H210.903V335.547H219.291H220.054Z" fill="#3F3D56"/>
<path d="M219.291 341.199H210.903V348.265H220.054V341.199H219.291Z" fill="#3F3D56"/>
<path d="M235.305 328.482H226.154V335.548H235.305V328.482Z" fill="#3F3D56"/>
<path d="M235.305 341.199H226.154V348.264H235.305V341.199Z" fill="#3F3D56"/>
<path d="M284.109 194.246V187.18H274.958V194.246H283.348H284.109Z" fill="#3F3D56"/>
<path d="M283.348 199.897H274.958V206.962H284.109V199.897H283.348Z" fill="#3F3D56"/>
<path d="M299.361 187.18H290.21V194.245H299.361V187.18Z" fill="#3F3D56"/>
<path d="M299.361 199.896H290.21V206.962H299.361V199.896Z" fill="#3F3D56"/>
<path d="M284.109 233.81V226.745H274.958V233.81H283.348H284.109Z" fill="#3F3D56"/>
<path d="M283.348 239.462H274.958V246.527H284.109V239.462H283.348Z" fill="#3F3D56"/>
<path d="M299.361 226.744H290.21V233.809H299.361V226.744Z" fill="#3F3D56"/>
<path d="M299.361 239.462H290.21V246.527H299.361V239.462Z" fill="#3F3D56"/>
<path d="M284.109 273.374V266.31H274.958V273.374H283.348H284.109Z" fill="#3F3D56"/>
<path d="M283.348 279.027H274.958V286.092H284.109V279.027H283.348Z" fill="#3F3D56"/>
<path d="M299.361 266.309H290.21V273.374H299.361V266.309Z" fill="#3F3D56"/>
<path d="M299.361 279.026H290.21V286.092H299.361V279.026Z" fill="#3F3D56"/>
<path d="M284.109 312.94V305.875H274.958V312.94H283.348H284.109Z" fill="#3F3D56"/>
<path d="M283.348 318.592H274.958V325.656H284.109V318.592H283.348Z" fill="#3F3D56"/>
<path d="M299.361 305.874H290.21V312.939H299.361V305.874Z" fill="#3F3D56"/>
<path d="M299.361 318.592H290.21V325.657H299.361V318.592Z" fill="#3F3D56"/>
<path d="M236.83 194.245H148.372V211.201H236.83V194.245Z" fill="#3F3D56"/>
<path d="M236.83 228.157H148.372V245.114H236.83V228.157Z" fill="#3F3D56"/>
<path d="M236.83 262.07H148.372V279.027H236.83V262.07Z" fill="#3F3D56"/>
<path d="M236.83 295.982H148.372V312.939H236.83V295.982Z" fill="#3F3D56"/>
<path d="M403.681 231.556H399.989V366.699H403.681V231.556Z" fill="#3F3D56"/>
<path d="M439.718 270.887C439.726 272.373 439.711 273.853 439.674 275.325C438.35 328.525 369.509 328.819 367.655 275.633C367.604 274.161 367.574 272.681 367.567 271.195C367.271 211.728 403.107 163.367 403.107 163.367C403.107 163.367 439.422 211.42 439.718 270.887Z" fill="#57B894"/>
<path d="M390.838 356.094C388.856 357.043 387.013 358.223 385.354 359.606C383.667 358.217 381.793 357.036 379.779 356.094C377.797 357.043 375.954 358.223 374.294 359.606C372.608 358.217 370.734 357.036 368.72 356.094C368.72 356.094 360.123 360.011 360.147 364.798C360.148 364.917 360.153 365.036 360.165 365.155C360.458 368.289 369.346 369.087 374.228 367.61C377.843 368.566 381.673 368.566 385.288 367.61C390.149 369.111 399.218 368.251 399.483 365.081C399.493 364.963 399.498 364.844 399.497 364.724C399.473 359.937 390.838 356.094 390.838 356.094Z" fill="#CCCCCC"/>
<path d="M494.167 309.406L489.592 302.341L532.296 237.69H642.105V247.581L602.452 317.884L556.698 326.363L494.167 309.406Z" fill="#3F3D56"/>
<path d="M661.008 288.329V235.482H646.631V242.454L642.105 237.69L605.502 302.341L599.402 307.993L591.776 336.253L605.502 367.34H675.658V303.753L661.008 288.329Z" fill="#CCCCCC"/>
<path d="M605.503 302.342H489.592V367.341H605.503V302.342Z" fill="#F2F2F2"/>
<path d="M589.488 322.83H565.086V342.613H589.488V322.83Z" fill="#3F3D56"/>
<path d="M555.173 322.124H533.821V367.341H555.173V322.124Z" fill="#CCCCCC"/>
<path d="M509.419 329.189V322.124H500.268V329.189H508.656H509.419Z" fill="#3F3D56"/>
<path d="M508.656 334.842H500.268V341.907H509.419V334.842H508.656Z" fill="#3F3D56"/>
<path d="M524.67 322.124H515.519V329.189H524.67V322.124Z" fill="#3F3D56"/>
<path d="M524.67 334.841H515.519V341.906H524.67V334.841Z" fill="#3F3D56"/>
<path d="M638.294 330.92V323.855H629.142V330.92H637.531H638.294Z" fill="#3F3D56"/>
<path d="M637.531 336.572H629.142V343.637H638.294V336.572H637.531Z" fill="#3F3D56"/>
<path d="M653.544 323.854H644.394V330.92H653.544V323.854Z" fill="#3F3D56"/>
<path d="M653.544 336.572H644.394V343.637H653.544V336.572Z" fill="#3F3D56"/>
<path d="M542.16 264.263L540.955 262.404L552.192 245.394H581.084V247.996L570.651 266.493L558.612 268.724L542.16 264.263Z" fill="#3F3D56"/>
<path d="M581.083 245.394L571.454 262.404L569.848 263.892L567.841 271.327L571.454 279.506H589.912V262.776L581.083 245.394Z" fill="#CCCCCC"/>
<path d="M571.453 262.404H540.956V279.506H571.453V262.404Z" fill="#F2F2F2"/>
<path d="M553.876 269.774V266.4H549.507V269.774H553.512H553.876Z" fill="#3F3D56"/>
<path d="M553.512 272.473H549.507V275.845H553.876V272.473H553.512Z" fill="#3F3D56"/>
<path d="M561.158 266.4H556.789V269.774H561.158V266.4Z" fill="#3F3D56"/>
<path d="M561.158 272.473H556.789V275.846H561.158V272.473Z" fill="#3F3D56"/>
<path d="M632.407 309.406L627.831 302.341L670.535 237.69H780.346V247.581L740.692 317.884L694.938 326.363L632.407 309.406Z" fill="#3F3D56"/>
<path d="M799.248 288.329V235.482H784.871V242.454L780.345 237.69L743.742 302.341L737.641 307.993L730.015 336.253L743.742 367.34H813.898V303.753L799.248 288.329Z" fill="#CCCCCC"/>
<path d="M743.742 302.342H627.831V367.341H743.742V302.342Z" fill="#F2F2F2"/>
<path d="M727.728 322.83H703.326V342.613H727.728V322.83Z" fill="#3F3D56"/>
<path d="M693.412 322.124H672.06V367.341H693.412V322.124Z" fill="#CCCCCC"/>
<path d="M647.657 329.189V322.123H638.506V329.189H646.896H647.657Z" fill="#3F3D56"/>
<path d="M646.896 334.842H638.506V341.907H647.657V334.842H646.896Z" fill="#3F3D56"/>
<path d="M662.909 322.124H653.758V329.189H662.909V322.124Z" fill="#3F3D56"/>
<path d="M662.909 334.841H653.758V341.906H662.909V334.841Z" fill="#3F3D56"/>
<path d="M776.532 329.896V322.83H767.381V329.896H775.769H776.532Z" fill="#3F3D56"/>
<path d="M775.769 335.547H767.381V342.613H776.532V335.547H775.769Z" fill="#3F3D56"/>
<path d="M791.784 322.83H782.633V329.895H791.784V322.83Z" fill="#3F3D56"/>
<path d="M791.784 335.548H782.633V342.613H791.784V335.548Z" fill="#3F3D56"/>
<path d="M766.223 309.406L761.647 302.341L804.351 237.69H914.161V247.581L874.508 317.884L828.754 326.363L766.223 309.406Z" fill="#3F3D56"/>
<path d="M933.064 288.329V235.482H918.687V242.454L914.161 237.69L877.558 302.341L871.457 307.993L863.831 336.253L877.558 367.34H947.714V303.753L933.064 288.329Z" fill="#CCCCCC"/>
<path d="M877.557 302.342H761.647V367.341H877.557V302.342Z" fill="#F2F2F2"/>
<path d="M861.544 322.83H837.141V342.613H861.544V322.83Z" fill="#3F3D56"/>
<path d="M827.228 322.124H805.876V367.341H827.228V322.124Z" fill="#CCCCCC"/>
<path d="M781.473 329.189V322.123H772.323V329.189H780.712H781.473Z" fill="#3F3D56"/>
<path d="M780.712 334.842H772.323V341.907H781.473V334.842H780.712Z" fill="#3F3D56"/>
<path d="M796.725 322.124H787.574V329.189H796.725V322.124Z" fill="#3F3D56"/>
<path d="M796.725 334.841H787.574V341.906H796.725V334.841Z" fill="#3F3D56"/>
<path d="M910.348 329.896V322.83H901.197V329.896H909.587H910.348Z" fill="#3F3D56"/>
<path d="M909.587 335.547H901.197V342.613H910.348V335.547H909.587Z" fill="#3F3D56"/>
<path d="M925.6 322.83H916.449V329.895H925.6V322.83Z" fill="#3F3D56"/>
<path d="M925.6 335.548H916.449V342.613H925.6V335.548Z" fill="#3F3D56"/>
<path d="M677.081 265.288L675.878 263.429L687.113 246.418H716.006V249.021L705.572 267.519L693.533 269.749L677.081 265.288Z" fill="#3F3D56"/>
<path d="M716.006 246.418L706.375 263.429L704.77 264.916L702.764 272.352L706.375 280.531H724.835V263.801L716.006 246.418Z" fill="#CCCCCC"/>
<path d="M706.375 263.429H675.878V280.531H706.375V263.429Z" fill="#F2F2F2"/>
<path d="M688.799 270.798V267.425H684.429V270.798H688.434H688.799Z" fill="#3F3D56"/>
<path d="M688.434 273.497H684.429V276.871H688.799V273.497H688.434Z" fill="#3F3D56"/>
<path d="M696.08 267.425H691.711V270.798H696.08V267.425Z" fill="#3F3D56"/>
<path d="M696.08 273.497H691.711V276.87H696.08V273.497Z" fill="#3F3D56"/>
<path d="M812.003 264.263L810.799 262.404L822.035 245.394H850.927V247.996L840.493 266.493L828.456 268.724L812.003 264.263Z" fill="#3F3D56"/>
<path d="M850.927 245.394L841.296 262.404L839.691 263.892L837.685 271.327L841.296 279.506H859.756V262.776L850.927 245.394Z" fill="#CCCCCC"/>
<path d="M841.297 262.404H810.799V279.506H841.297V262.404Z" fill="#F2F2F2"/>
<path d="M823.72 269.774V266.4H819.351V269.774H823.356H823.72Z" fill="#3F3D56"/>
<path d="M823.356 272.473H819.351V275.845H823.72V272.473H823.356Z" fill="#3F3D56"/>
<path d="M831.002 266.4H826.633V269.774H831.002V266.4Z" fill="#3F3D56"/>
<path d="M831.002 272.473H826.633V275.846H831.002V272.473Z" fill="#3F3D56"/>
<path d="M904.461 309.406L899.886 302.341L942.59 237.69H1052.4V247.581L1012.75 317.884L966.992 326.363L904.461 309.406Z" fill="#3F3D56"/>
<path d="M1071.3 246.758V235.482H1056.93V242.454L1052.4 237.69L1015.8 302.341L1009.7 307.993L1002.07 336.253L1015.8 367.34H1085.95V303.753L1071.3 246.758Z" fill="#CCCCCC"/>
<path d="M1015.8 302.342H899.886V367.341H1015.8V302.342Z" fill="#F2F2F2"/>
<path d="M999.783 322.83H975.381V342.613H999.783V322.83Z" fill="#3F3D56"/>
<path d="M965.468 322.124H944.116V367.341H965.468V322.124Z" fill="#CCCCCC"/>
<path d="M919.713 329.189V322.123H910.562V329.189H918.95H919.713Z" fill="#3F3D56"/>
<path d="M918.95 334.842H910.562V341.907H919.713V334.842H918.95Z" fill="#3F3D56"/>
<path d="M934.965 322.124H925.814V329.189H934.965V322.124Z" fill="#3F3D56"/>
<path d="M934.965 334.841H925.814V341.906H934.965V334.841Z" fill="#3F3D56"/>
<path d="M1048.59 329.896V322.83H1039.44V329.896H1047.83H1048.59Z" fill="#3F3D56"/>
<path d="M1047.83 335.547H1039.44V342.613H1048.59V335.547H1047.83Z" fill="#3F3D56"/>
<path d="M1063.84 322.83H1054.69V329.895H1063.84V322.83Z" fill="#3F3D56"/>
<path d="M1063.84 335.548H1054.69V342.613H1063.84V335.548Z" fill="#3F3D56"/>
<path d="M946.925 265.288L945.721 263.429L956.956 246.418H985.85V249.021L975.416 267.519L963.377 269.749L946.925 265.288Z" fill="#3F3D56"/>
<path d="M985.85 246.418L976.219 263.429L974.613 264.916L972.606 272.352L976.219 280.531H994.677V263.801L985.85 246.418Z" fill="#CCCCCC"/>
<path d="M976.218 263.429H945.721V280.531H976.218V263.429Z" fill="#F2F2F2"/>
<path d="M958.641 270.798V267.425H954.272V270.798H958.277H958.641Z" fill="#3F3D56"/>
<path d="M958.277 273.497H954.272V276.871H958.641V273.497H958.277Z" fill="#3F3D56"/>
<path d="M965.924 267.425H961.554V270.798H965.924V267.425Z" fill="#3F3D56"/>
<path d="M965.924 273.497H961.554V276.87H965.924V273.497Z" fill="#3F3D56"/>
<path d="M1217 366.639H1.10596V368.688H1217V366.639Z" fill="white"/>
<line y1="-5" x2="206.301" y2="-5" transform="matrix(-0.578232 -0.815873 0.854443 -0.519545 782.49 331.79)" stroke="#D8D8D8" stroke-width="10" stroke-dasharray="50 10"/>
<path d="M1215.89 558.242H0V560.291H1215.89V558.242Z" fill="white"/>
<path d="M1137.47 231.536H1133.78V366.639H1137.47V231.536Z" fill="#3F3D56"/>
<path d="M1173.5 270.854C1173.5 272.341 1173.49 273.82 1173.45 275.292C1172.13 328.475 1103.31 328.769 1101.46 275.599C1101.4 274.128 1101.37 272.649 1101.37 271.162C1101.07 211.714 1136.9 163.367 1136.9 163.367C1136.9 163.367 1173.2 211.406 1173.5 270.854Z" fill="#57B894"/>
<path d="M406.567 498.948H367.656V504.67H406.567V498.948Z" fill="#3F3D56"/>
<path d="M687.894 500.23L679.866 501.951L374.759 502.102L372.016 496.179C367.23 486.021 365.588 474.829 367.272 463.856C368.586 455.676 371.879 447.549 379.358 444.019L392.897 360.467L561.697 360.188L627.006 408.991C627.006 408.991 657.812 408.477 674.549 427.782C679.845 433.896 683.735 441.997 684.779 452.737L685.439 462.779L687.894 500.23Z" fill="#313131"/>
<path d="M620.881 533.738C641.688 533.738 658.556 518.11 658.556 498.832C658.556 479.555 641.688 463.927 620.881 463.927C600.074 463.927 583.206 479.555 583.206 498.832C583.206 518.11 600.074 533.738 620.881 533.738Z" fill="#3F3D56"/>
<path d="M620.881 517.204C631.832 517.204 640.71 508.979 640.71 498.832C640.71 488.686 631.832 480.461 620.881 480.461C609.93 480.461 601.052 488.686 601.052 498.832C601.052 508.979 609.93 517.204 620.881 517.204Z" fill="#CCCCCC"/>
<path d="M434.976 533.83C455.783 533.83 472.651 518.202 472.651 498.924C472.651 479.646 455.783 464.019 434.976 464.019C414.169 464.019 397.301 479.646 397.301 498.924C397.301 518.202 414.169 533.83 434.976 533.83Z" fill="#3F3D56"/>
<path d="M434.976 517.295C445.927 517.295 454.805 509.07 454.805 498.924C454.805 488.778 445.927 480.553 434.976 480.553C424.025 480.553 415.147 488.778 415.147 498.924C415.147 509.07 424.025 517.295 434.976 517.295Z" fill="#CCCCCC"/>
<path d="M601.058 403.285L509.92 403.322H498.795L480.01 403.334V402.065L479.997 386.762L479.984 369.579H492.48L503.605 369.566L523.313 369.554H534.438L557.19 369.542L601.058 403.285Z" fill="white"/>
<path d="M465.181 403.347L417.015 403.371L417.002 394.614V379.313L416.989 369.615H424.042L435.167 369.603L465.168 369.591L465.181 403.347Z" fill="white"/>
<path d="M486.201 428.518H480.025V439.39H486.201V428.518Z" fill="#3F3D56"/>
<path d="M588.101 418.737L588.098 413.015L576.363 413.02L576.366 418.743L588.101 418.737Z" fill="#3F3D56"/>
<path d="M580.68 391.614H581.36C584.783 391.614 588.066 392.874 590.487 395.117C592.908 397.36 594.268 400.402 594.268 403.574V403.574C594.268 406.746 592.908 409.788 590.487 412.03C588.066 414.273 584.783 415.533 581.36 415.533H580.68V391.614Z" fill="#3F3D56"/>
<path d="M685.439 462.779C680.769 463.249 676.069 462.178 672.167 459.753C668.265 457.328 665.412 453.705 664.111 449.523C662.809 445.34 663.143 440.866 665.052 436.889C666.962 432.912 670.325 429.687 674.549 427.781C679.846 433.896 683.735 441.997 684.779 452.737L685.439 462.779Z" fill="#3F3D56"/>
<path d="M503.605 369.566L480.01 402.065L479.997 386.762L492.48 369.579L503.605 369.566Z" fill="#F2F2F2"/>
<path d="M435.167 369.604L417.002 394.615V379.313L424.041 369.616L435.167 369.604Z" fill="#F2F2F2"/>
<path d="M534.438 369.555L509.92 403.323H498.795L523.313 369.555H534.438Z" fill="#F2F2F2"/>
<path d="M901.54 427.033L925.176 427.045L925.178 423.569L901.542 423.557L901.54 427.033Z" fill="#3F3D56"/>
<path d="M730.652 424.342L735.528 425.387L920.862 425.479L922.529 421.881C925.435 415.711 926.433 408.912 925.41 402.247C924.612 397.278 922.612 392.341 918.069 390.197L909.844 339.444L807.309 339.274L767.638 368.919C767.638 368.919 748.925 368.608 738.758 380.334C735.091 384.694 732.925 389.976 732.544 395.493L732.143 401.593L730.652 424.342Z" fill="#3F3D56"/>
<path d="M771.358 444.696C783.997 444.696 794.243 435.203 794.243 423.493C794.243 411.783 783.997 402.29 771.358 402.29C758.719 402.29 748.472 411.783 748.472 423.493C748.472 435.203 758.719 444.696 771.358 444.696Z" fill="#3F3D56"/>
<path d="M771.358 434.652C778.01 434.652 783.403 429.656 783.403 423.493C783.403 417.329 778.01 412.333 771.358 412.333C764.706 412.333 759.313 417.329 759.313 423.493C759.313 429.656 764.706 434.652 771.358 434.652Z" fill="#CCCCCC"/>
<path d="M884.284 444.752C896.923 444.752 907.17 435.259 907.17 423.549C907.17 411.839 896.923 402.346 884.284 402.346C871.645 402.346 861.399 411.839 861.399 423.549C861.399 435.259 871.645 444.752 884.284 444.752Z" fill="#3F3D56"/>
<path d="M884.284 434.709C890.936 434.709 896.329 429.712 896.329 423.549C896.329 417.386 890.936 412.39 884.284 412.39C877.632 412.39 872.239 417.386 872.239 423.549C872.239 429.712 877.632 434.709 884.284 434.709Z" fill="#CCCCCC"/>
<path d="M783.4 365.454L838.76 365.477H845.518L856.929 365.485V364.713L856.937 355.418L856.945 344.979H849.354L842.596 344.972L830.626 344.964H823.866L810.046 344.957L783.4 365.454Z" fill="white"/>
<path d="M865.936 365.492L895.194 365.507L895.202 360.187V350.892L895.21 345.002H890.926L884.168 344.995L865.945 344.987L865.936 365.492Z" fill="white"/>
<path d="M853.166 387.384L856.918 387.386L856.922 380.782L853.17 380.78L853.166 387.384Z" fill="#3F3D56"/>
<path d="M798.398 374.844L798.4 371.368L791.272 371.365L791.27 374.841L798.398 374.844Z" fill="#3F3D56"/>
<path d="M795.773 372.896L795.361 372.895C793.281 372.894 791.287 372.128 789.817 370.765C788.348 369.402 787.523 367.553 787.524 365.627C787.525 363.7 788.352 361.853 789.823 360.491C791.295 359.129 793.289 358.365 795.369 358.366L795.782 358.366L795.773 372.896Z" fill="#3F3D56"/>
<path d="M732.143 401.593C734.98 401.879 737.835 401.228 740.205 399.755C742.575 398.282 744.308 396.081 745.098 393.541C745.889 391 745.687 388.282 744.527 385.866C743.367 383.451 741.324 381.491 738.758 380.334C735.091 384.694 732.925 389.976 732.544 395.493L732.143 401.593Z" fill="#3F3D56"/>
<path d="M842.596 344.972L856.929 364.713L856.937 355.418L849.354 344.979L842.596 344.972Z" fill="#F2F2F2"/>
<path d="M884.168 344.994L895.202 360.187V350.891L890.926 345.002L884.168 344.994Z" fill="#F2F2F2"/>
<path d="M823.866 344.964L838.76 365.477H845.518L830.626 344.964H823.866Z" fill="#F2F2F2"/>
<path d="M211.742 582.538C211.742 582.538 211.742 621.394 221.368 631.586C221.368 631.586 223.43 636.682 224.118 638.593C224.502 639.681 224.962 640.744 225.493 641.778V644.326C225.493 644.326 244.056 642.415 246.119 637.956L242.681 634.134C242.681 634.134 241.993 633.497 242.681 631.586C242.799 631.378 242.854 631.144 242.84 630.91C242.827 630.675 242.746 630.448 242.605 630.253C242.464 630.057 242.27 629.9 242.041 629.799C241.812 629.697 241.558 629.654 241.306 629.675L236.493 619.483L237.181 577.443L233.743 519.477L204.18 518.203L211.742 582.538Z" fill="#2F2E41"/>
<path d="M226.868 640.503C226.868 640.503 222.055 653.88 226.868 654.517C231.68 655.154 273.619 655.791 272.932 650.695C272.244 645.599 258.494 646.236 258.494 646.236L244.056 637.955L226.868 640.503Z" fill="#2F2E41"/>
<path d="M184.241 519.477C183.651 525.467 185.093 531.48 188.366 536.675C193.867 545.593 190.429 575.531 190.429 575.531L141.615 615.024C141.615 615.024 151.24 630.311 154.678 629.674C158.115 629.037 212.43 588.271 212.43 588.271L233.743 522.024L184.241 519.477Z" fill="#2F2E41"/>
<path d="M142.286 613.336C142.286 613.336 127.515 616.731 129.51 620.838C131.506 624.945 153.377 658.105 157.655 654.839C161.932 651.573 153.99 641.154 153.99 641.154L153.81 625.422L142.286 613.336Z" fill="#2F2E41"/>
<path d="M211.055 415.649C219.788 415.649 226.868 409.09 226.868 400.998C226.868 392.907 219.788 386.348 211.055 386.348C202.322 386.348 195.242 392.907 195.242 400.998C195.242 409.09 202.322 415.649 211.055 415.649Z" fill="#FFB8B8"/>
<path d="M198.613 406.167L199.312 425.02L212.618 429.89C212.618 429.89 213.922 410.587 215.764 409.516C217.606 408.446 198.613 406.167 198.613 406.167Z" fill="#FFB8B8"/>
<path d="M215.867 432.21C215.867 432.21 197.304 415.011 192.492 415.648C187.679 416.285 187.679 418.196 187.679 419.47C187.679 420.744 189.054 421.381 187.679 422.018C186.304 422.655 184.929 422.018 184.929 423.929C184.929 425.84 172.553 444.949 176.679 465.97C180.804 486.99 185.616 497.182 183.554 508.647C181.491 520.113 182.866 522.661 182.866 522.661C182.866 522.661 234.43 526.483 235.118 522.024C235.805 517.565 233.055 520.113 236.493 516.928C239.93 513.743 238.555 513.743 238.555 511.832C238.555 509.921 223.43 432.21 215.867 432.21Z" fill="#575A89"/>
<path d="M206.242 518.839C206.242 518.839 214.492 537.312 220.68 532.853C226.868 528.394 217.93 513.106 217.93 513.106L206.242 518.839Z" fill="#FFB8B8"/>
<path d="M186.304 433.484C186.304 433.484 170.151 435.198 176.165 462.687C182.179 490.176 205.555 522.025 205.555 522.025L221.368 515.018L200.742 477.436L205.555 453.868C205.555 453.868 208.305 431.573 186.304 433.484Z" fill="#575A89"/>
<path opacity="0.2" d="M200.398 477.755L223.086 512.788L221.024 514.699L200.398 477.755Z" fill="black"/>
<path opacity="0.2" d="M188.389 494.081L206.586 521.707H200.398L188.389 494.081Z" fill="black"/>
<path d="M203.898 409.802C205.239 409.298 206.63 408.914 208.05 408.656C210.511 407.885 212.592 406.322 213.916 404.252C215.24 402.182 215.72 399.74 215.269 397.371C215.073 396.768 214.985 396.14 215.008 395.511C215.203 394.832 215.61 394.222 216.179 393.758C216.748 393.293 217.453 392.996 218.204 392.903C219.706 392.74 221.193 392.478 222.654 392.117C223.723 391.671 224.648 390.975 225.338 390.097C226.027 389.219 226.458 388.189 226.587 387.11C226.812 384.938 226.29 382.756 225.095 380.875L224.563 382.294C223.751 381.658 223.149 380.823 222.824 379.884C222.219 379.978 221.65 380.215 221.172 380.571C220.694 380.927 220.323 381.391 220.094 381.918C219.239 382.385 219.116 380.468 218.172 380.185C217.757 380.137 217.338 380.233 216.994 380.455C215.092 381.276 212.883 380.574 210.843 380.118C207.31 379.333 203.628 379.329 200.093 380.106C197.709 380.54 195.507 381.59 193.74 383.135C192.426 384.517 191.417 386.125 190.768 387.866C188.791 392.024 187.966 396.575 188.371 401.104C188.866 404.776 190.524 408.231 193.137 411.031C194.497 412.484 198.937 417.551 201.371 416.687C204.43 415.602 200.294 411.567 203.898 409.802Z" fill="#2F2E41"/>
<path opacity="0.2" d="M229.494 544.284L211.402 588.232L212.316 588.555L230.408 544.606L229.494 544.284Z" fill="black"/>
<path d="M215.77 435.708C216.31 435.708 216.748 435.302 216.748 434.802C216.748 434.301 216.31 433.896 215.77 433.896C215.23 433.896 214.792 434.301 214.792 434.802C214.792 435.302 215.23 435.708 215.77 435.708Z" fill="#D0CDE1"/>
<path d="M224.083 460.174C223.979 460.174 223.877 460.143 223.793 460.085C223.709 460.028 223.647 459.947 223.616 459.854L215.303 434.935C215.265 434.821 215.277 434.697 215.338 434.59C215.398 434.484 215.502 434.404 215.626 434.369C215.749 434.333 215.883 434.345 215.998 434.401C216.113 434.457 216.199 434.553 216.237 434.668L224.551 459.587C224.573 459.655 224.578 459.727 224.565 459.796C224.552 459.866 224.522 459.932 224.477 459.99C224.431 460.047 224.372 460.093 224.304 460.125C224.235 460.157 224.16 460.174 224.083 460.174V460.174Z" fill="#D0CDE1"/>
<path d="M1102.52 424.784C1111.64 424.784 1119.03 417.935 1119.03 409.485C1119.03 401.035 1111.64 394.186 1102.52 394.186C1093.4 394.186 1086 401.035 1086 409.485C1086 417.935 1093.4 424.784 1102.52 424.784Z" fill="#2F2E41"/>
<path d="M1079.04 502.16L1076.54 506.799C1076.54 506.799 1068.53 518.861 1074.04 520.253C1079.54 521.645 1081.3 511.206 1081.3 511.206L1082.3 505.64L1079.04 502.16Z" fill="#A0616A"/>
<path d="M1089.06 478.502L1082.8 493.81L1076.54 504.48L1084.3 509.119L1090.56 498.913L1098.07 482.908L1089.06 478.502Z" fill="#D0CDE1"/>
<path d="M1106.83 550.176L1119.35 562.469L1141.38 597.031L1150.9 594.247L1139.63 573.603C1139.63 573.603 1133.12 557.83 1129.87 555.743C1126.61 553.655 1121.1 539.97 1121.1 539.97L1115.1 535.562L1106.83 550.176Z" fill="#A0616A"/>
<path d="M1081.05 556.902L1080.05 560.845C1080.05 560.845 1076.79 573.139 1071.78 578.706L1059.77 597.958L1050.75 595.174L1068.53 556.206L1081.05 556.902Z" fill="#A0616A"/>
<path d="M1099.7 427.355C1107.17 427.355 1113.22 421.747 1113.22 414.829C1113.22 407.912 1107.17 402.304 1099.7 402.304C1092.23 402.304 1086.18 407.912 1086.18 414.829C1086.18 421.747 1092.23 427.355 1099.7 427.355Z" fill="#A0616A"/>
<path d="M1110.34 420.977L1112.09 434.43L1100.83 439.533C1100.83 439.533 1100.83 427.935 1097.82 424.92L1110.34 420.977Z" fill="#A0616A"/>
<path d="M1145.64 507.728L1146.89 511.671C1146.89 511.671 1155.15 526.748 1148.14 526.748C1141.13 526.748 1139.88 512.831 1139.88 512.831L1139.13 509.351L1145.64 507.728Z" fill="#A0616A"/>
<path d="M1088.06 491.955L1089.81 503.321L1068.53 544.841L1067.28 556.902L1107.08 561.542L1115.85 539.042L1129.87 555.743L1121.86 538.578C1121.86 538.578 1119.35 526.98 1120.1 523.965C1120.85 520.949 1119.6 505.872 1117.35 502.161C1115.1 498.45 1088.06 491.955 1088.06 491.955Z" fill="#2F2E41"/>
<path d="M1139.88 597.031L1151.9 593.319L1155.65 598.886C1155.65 598.886 1162.91 600.742 1162.66 605.613C1162.7 610.044 1163.12 614.465 1163.92 618.834L1158.66 619.298L1156.66 609.788L1146.39 621.154C1146.39 621.154 1128.11 622.082 1127.36 619.298C1126.61 616.515 1140.38 613.499 1140.38 613.499L1142.64 603.525L1139.88 597.031Z" fill="#2F2E41"/>
<path d="M1050 593.783L1061.02 597.031V599.35C1061.02 599.35 1064.27 603.989 1063.77 607.932C1063.27 611.876 1061.02 621.386 1061.02 621.386H1055.26L1055.51 612.572L1043.99 621.386C1043.99 621.386 1023.46 619.994 1023.46 616.979C1023.46 613.963 1039.24 611.876 1039.24 611.876L1050 593.783Z" fill="#2F2E41"/>
<path d="M1100.07 436.749C1100.07 436.749 1110.34 427.239 1115.1 429.559V433.734C1115.1 433.734 1122.11 436.75 1122.36 441.389C1122.61 446.028 1129.87 488.243 1129.87 488.243L1146.89 543.217C1146.89 543.217 1141.63 550.871 1122.36 542.289L1110.34 504.48C1110.34 504.48 1123.11 547.16 1116.85 546.464C1110.59 545.768 1086.05 492.883 1086.05 492.883L1087.81 467.831C1087.81 467.831 1083.8 456.93 1091.81 449.507L1100.07 436.749Z" fill="#D0CDE1"/>
<path d="M1117.6 438.141C1117.6 438.141 1121.86 439.532 1124.86 445.563C1127.86 451.594 1142.89 494.042 1142.89 494.042L1146.89 509.119L1135.63 511.67L1130.12 496.129L1109.59 460.872C1109.59 460.872 1106.33 442.316 1117.6 438.141Z" fill="#D0CDE1"/>
<path d="M1116.61 404.837C1116.55 403.397 1116.12 401.992 1115.34 400.746C1114.56 399.499 1113.46 398.449 1112.14 397.688C1113.52 395.131 1114.74 392.213 1113.84 389.482C1113.47 388.423 1112.8 387.474 1111.91 386.732C1111.01 385.99 1109.92 385.482 1108.75 385.261C1107.43 385.094 1106.1 385.11 1104.79 385.309L1098.62 385.957C1096.6 386.03 1094.62 386.523 1092.84 387.399C1091.95 387.919 1091.21 388.624 1090.67 389.457C1090.13 390.291 1089.81 391.229 1089.74 392.198C1089.66 393.167 1089.83 394.139 1090.24 395.035C1090.64 395.932 1091.27 396.727 1092.06 397.359C1087.75 400.558 1084.86 402.986 1082.9 407.772C1086.19 405.285 1090.31 403.921 1094.56 403.906C1097.45 403.761 1100.28 404.666 1102.46 406.427C1104.64 408.188 1105.99 410.668 1106.23 413.338C1106.21 414.678 1106.33 416.017 1106.61 417.332C1106.77 417.987 1107.16 418.572 1107.73 418.99C1108.3 419.408 1109 419.633 1109.73 419.629C1109.53 419.655 1108.3 416.252 1109.17 414.682L1109.18 414.657C1109.37 414.332 1109.68 414.084 1110.06 413.96C1110.39 413.841 1110.75 413.789 1111.11 413.809C1111.46 413.828 1111.81 413.917 1112.13 414.071C1112.45 414.225 1112.73 414.44 1112.95 414.701C1113.17 414.962 1113.33 415.264 1113.41 415.587C1113.89 417.291 1114.66 419.465 1115.33 418.888C1116.2 418.132 1115.83 411.467 1116.07 410.434C1116.54 408.603 1116.72 406.717 1116.61 404.837V404.837Z" fill="#2F2E41"/>
<path d="M1112.07 397.642C1112.07 397.642 1098.5 398.462 1092.02 397.369Z" fill="#D0CDE1"/>
<path d="M1111.3 395.961C1112.68 393.404 1113.91 390.485 1113 387.755C1112.58 386.524 1111.75 385.447 1110.63 384.673C1111.49 385.036 1112.25 385.559 1112.87 386.21C1113.49 386.86 1113.96 387.623 1114.25 388.451C1115.16 391.181 1113.93 394.1 1112.56 396.657C1111.47 396.506 1114.04 397.312 1111.3 395.961Z" fill="#2F2E41"/>
<path opacity="0.2" d="M1106.96 460.988L1126.49 492.998L1134 510.395L1123.48 493.694L1106.96 460.988Z" fill="black"/>
<path d="M183.827 642.923C183.827 642.923 177.705 655.269 172.735 658.73C167.702 655.259 161.461 642.923 161.461 642.923C161.461 642.923 155.339 655.269 150.368 658.73C145.336 655.259 139.094 642.923 139.094 642.923C139.094 642.923 121.708 659.39 121.756 667.188C121.758 667.383 121.77 667.577 121.792 667.77C122.385 672.876 140.361 674.177 150.235 671.771C157.596 673.327 165.24 673.327 172.601 671.771C182.434 674.216 200.774 672.815 201.31 667.651C201.331 667.457 201.34 667.263 201.339 667.069C201.291 659.27 183.827 642.923 183.827 642.923Z" fill="#3AD29F"/>
<path d="M549.078 642.923C549.078 642.923 542.956 655.269 537.986 658.73C532.953 655.259 526.711 642.923 526.711 642.923C526.711 642.923 520.59 655.269 515.619 658.73C510.587 655.259 504.345 642.923 504.345 642.923C504.345 642.923 486.959 659.39 487.007 667.188C487.008 667.383 487.02 667.577 487.043 667.77C487.636 672.876 505.611 674.177 515.486 671.771C522.847 673.327 530.491 673.327 537.852 671.771C547.685 674.216 566.025 672.815 566.561 667.651C566.581 667.457 566.591 667.263 566.59 667.069C566.542 659.27 549.078 642.923 549.078 642.923Z" fill="#3AD29F"/>
<path d="M911.965 642.923C911.965 642.923 905.843 655.269 900.873 658.73C895.84 655.259 889.598 642.923 889.598 642.923C889.598 642.923 883.477 655.269 878.506 658.73C873.474 655.259 867.232 642.923 867.232 642.923C867.232 642.923 849.846 659.39 849.894 667.188C849.896 667.383 849.907 667.577 849.93 667.77C850.523 672.876 868.498 674.177 878.373 671.771C885.734 673.327 893.378 673.327 900.739 671.771C910.571 674.216 928.912 672.815 929.448 667.651C929.468 667.457 929.478 667.263 929.477 667.069C929.429 659.27 911.965 642.923 911.965 642.923Z" fill="#3AD29F"/>
<path d="M549.698 99.4946L549.538 99.5754C547.807 100.452 545.868 100.915 543.895 100.922C541.922 100.928 539.979 100.478 538.242 99.6122C538.142 99.5621 538.042 99.5127 537.943 99.4639C536.206 98.6048 534.266 98.1584 532.296 98.1647C530.327 98.171 528.39 98.6298 526.659 99.5L526.51 99.5755C524.779 100.452 522.839 100.915 520.867 100.922C518.894 100.928 516.951 100.478 515.213 99.6122C515.109 99.5602 515.006 99.509 514.903 99.4584C513.186 98.6032 511.268 98.154 509.319 98.1508C507.37 98.1476 505.45 98.5905 503.73 99.44C498.475 102.062 491.372 106.544 491.403 111.606C491.405 111.806 491.417 112.006 491.44 112.205C492.051 117.463 510.558 118.802 520.725 116.325C528.304 117.927 536.175 117.927 543.753 116.325C553.877 118.842 572.76 117.4 573.312 112.082C573.333 111.883 573.343 111.683 573.342 111.483C573.311 106.418 566.145 101.983 560.857 99.3977C559.132 98.5616 557.211 98.133 555.265 98.1499C553.318 98.1668 551.406 98.6287 549.698 99.4946V99.4946Z" fill="#E6E6E6"/>
<path d="M1215.89 672.951H0V675H1215.89V672.951Z" fill="white"/>
<path d="M688.166 27.1853L688.48 27.5563L688.86 27.2538C699.026 19.1595 711.208 14.1488 724.019 12.7905C736.83 11.4322 749.756 13.7808 761.328 19.5696C772.899 25.3584 782.652 34.3556 789.474 45.5385C796.296 56.7215 799.914 69.6406 799.914 82.8252C799.915 87.7385 799.416 92.6384 798.425 97.4455L798.419 97.4722L798.417 97.4993C796.967 112.762 790.016 126.923 778.921 137.226C767.826 147.528 753.383 153.234 738.405 153.235H528.467C527.579 153.235 526.695 153.211 525.813 153.172L525.79 153.171L525.767 153.172C524.914 153.212 524.059 153.235 523.198 153.235C514.223 153.235 505.381 151.004 497.433 146.734C489.485 142.465 482.669 136.282 477.571 128.719C472.473 121.156 469.246 112.438 468.169 103.314C467.092 94.1914 468.197 84.9373 471.388 76.3484C474.58 67.7595 479.763 60.0935 486.489 54.0091C493.216 47.9248 501.285 43.6041 510.003 41.4176C518.721 39.231 527.827 39.2438 536.539 41.4549C545.251 43.666 553.308 48.0094 560.019 54.1127L560.599 54.6407L560.832 53.8915C564.853 40.9796 572.164 29.3988 582.011 20.341C591.859 11.2833 603.886 5.07578 616.856 2.35631C629.825 -0.363162 643.268 0.503402 655.802 4.867C668.336 9.23062 679.507 16.934 688.166 27.1853Z" fill="white" stroke="black"/>
<path d="M612.332 59.8018H640.233V70.2293H623.318V80.2149H640.233V90.554H623.318V110.614H612.332V59.8018ZM672.406 70.2293V59.8018H644.505V70.2293H672.406ZM658.63 90.554V80.2149H644.505V90.554H658.63Z" fill="#24292E"/>
<path d="M612.332 59.8018H640.233V70.2293H623.318V80.2149H640.233V90.554H623.318V110.614H612.332V59.8018ZM672.406 70.2293V59.8018H644.505V70.2293H672.406ZM658.63 90.554V80.2149H644.505V90.554H658.63Z" fill="#24292E"/>
<path d="M281.844 431.119L524.132 167.197" stroke="#D8D8D8" stroke-width="10" stroke-dasharray="50 10"/>
<line y1="-5" x2="391.036" y2="-5" transform="matrix(-0.769763 -0.63833 0.694981 -0.719028 1039.61 413.085)" stroke="#D8D8D8" stroke-width="10" stroke-dasharray="50 10"/>
<line y1="-5" x2="197.297" y2="-5" transform="matrix(0.288212 -0.957566 0.968239 0.250027 534.639 352.4)" stroke="#D8D8D8" stroke-width="10" stroke-dasharray="50 10"/>
</svg>
