<svg width="1663" height="582" viewBox="0 0 1663 582" fill="none" xmlns="http://www.w3.org/2000/svg">
<rect x="0.5" y="60.5" width="324" height="509" rx="49.5" fill="white" stroke="#CFCFCF"/>
<mask id="path-2-inside-1_776_224" fill="white">
<path d="M1367 342C1405.11 342 1436 310.884 1436 272.5C1436 234.116 1405.11 203 1367 203C1328.89 203 1298 234.116 1298 272.5C1298 310.884 1328.89 342 1367 342Z"/>
<path d="M1368 369H986V474H1368V369Z"/>
<path d="M1344.73 107.79L1329.35 115.08L1342.96 104.887C1340.75 101.428 1338.26 98.1531 1335.53 95.0922L1268.82 111.695L1329.08 88.6785C1326.32 86.2458 1323.4 84.0139 1320.33 82L1218.68 98.395C1207.89 111.909 1202.01 128.696 1202 146H1355C1354.99 132.58 1351.45 119.399 1344.73 107.79Z"/>
<path d="M1276.88 146L1226 68C1226 68 1303.05 95.7627 1294.31 146H1276.88Z"/>
<path d="M1279.38 146L1331 68C1331 68 1252.83 95.7627 1261.7 146H1279.38Z"/>
<path d="M1369 581H986V0H1369V581ZM987.785 579.184H1367.21V1.81562H987.785V579.184Z"/>
<path d="M1368 13H987V16H1368V13Z"/>
<path d="M997.5 11C999.433 11 1001 9.433 1001 7.5C1001 5.567 999.433 4 997.5 4C995.567 4 994 5.567 994 7.5C994 9.433 995.567 11 997.5 11Z"/>
<path d="M1006.5 11C1008.43 11 1010 9.433 1010 7.5C1010 5.567 1008.43 4 1006.5 4C1004.57 4 1003 5.567 1003 7.5C1003 9.433 1004.57 11 1006.5 11Z"/>
<path d="M1016 11C1018.21 11 1020 9.433 1020 7.5C1020 5.567 1018.21 4 1016 4C1013.79 4 1012 5.567 1012 7.5C1012 9.433 1013.79 11 1016 11Z"/>
<path d="M1016 26H1001V35H1016V26Z"/>
<path d="M1079 98H1001V107H1079V98Z"/>
<path d="M1280 35H1358V26H1280V35Z"/>
<path d="M1133 114H1001V119H1133V114Z"/>
<path d="M1125 125H1001V130H1125V125Z"/>
<path d="M1092 137H1001V143H1092V137Z"/>
<path d="M1083 298H1030V304H1083V298Z"/>
<path d="M1080 311H1030V316H1080V311Z"/>
<path d="M1067 322H1030V327H1067V322Z"/>
<path d="M1203 298H1152V304H1203V298Z"/>
<path d="M1200 311H1152V316H1200V311Z"/>
<path d="M1187 322H1152V327H1187V322Z"/>
<path d="M1328 298H1276V304H1328V298Z"/>
<path d="M1326 311H1276V316H1326V311Z"/>
<path d="M1312 322H1276V327H1312V322Z"/>
<path d="M1189 504H1111V514H1189V504Z"/>
<path d="M1244 520H1111V526H1244V520Z"/>
<path d="M1236 532H1111V537H1236V532Z"/>
<path d="M1202 544H1111V549H1202V544Z"/>
<path d="M1335 196H1024V198H1335V196Z"/>
<path d="M1090 228H1023V288H1090V228Z"/>
<path d="M1210 228H1144V288H1210V228Z"/>
<path d="M1336 228H1270V288H1336V228Z"/>
<path d="M1168.87 288L1168 287.982C1168.02 286.986 1168.56 263.493 1177.5 257L1178 257.737C1169.42 263.968 1168.87 287.76 1168.87 288Z"/>
<path d="M1182 257C1184.21 257 1186 254.985 1186 252.5C1186 250.015 1184.21 248 1182 248C1179.79 248 1178 250.015 1178 252.5C1178 254.985 1179.79 257 1182 257Z"/>
<path d="M1180.61 267.382C1178.47 268.088 1176.19 268.191 1174 267.682C1175.39 265.825 1177.26 264.429 1179.39 263.663C1181.52 262.896 1183.82 262.792 1186 263.363C1184.57 265.175 1182.71 266.561 1180.61 267.382Z"/>
<path d="M1293.87 288L1293 287.982C1293.02 286.986 1293.56 263.493 1302.5 257L1303 257.737C1294.42 263.968 1293.87 287.76 1293.87 288Z"/>
<path d="M1307 257C1309.21 257 1311 254.985 1311 252.5C1311 250.015 1309.21 248 1307 248C1304.79 248 1303 250.015 1303 252.5C1303 254.985 1304.79 257 1307 257Z"/>
<path d="M1306.16 267.382C1303.84 268.088 1301.37 268.191 1299 267.682C1300.51 265.825 1302.53 264.429 1304.84 263.663C1307.15 262.896 1309.63 262.792 1312 263.363C1310.45 265.175 1308.44 266.561 1306.16 267.382Z"/>
<path d="M1079 402H1001V411H1079V402Z"/>
<path d="M1133 417H1001V423H1133V417Z"/>
<path d="M1125 430H1001V435H1125V430Z"/>
<path d="M1092 441H1001V446H1092V441Z"/>
<path d="M1291.5 443C1306.69 443 1319 430.24 1319 414.5C1319 398.76 1306.69 386 1291.5 386C1276.31 386 1264 398.76 1264 414.5C1264 430.24 1276.31 443 1291.5 443Z"/>
<path d="M1240 448C1251.05 448 1260 439.046 1260 428C1260 416.954 1251.05 408 1240 408C1228.95 408 1220 416.954 1220 428C1220 439.046 1228.95 448 1240 448Z"/>
<path d="M894.5 550C933.436 550 965 517.765 965 478C965 438.235 933.436 406 894.5 406C855.564 406 824 438.235 824 478C824 517.765 855.564 550 894.5 550Z"/>
<path d="M884 534H862V574H884V534Z"/>
<path d="M926 534H905V574H926V534Z"/>
<path d="M880 581C889.941 581 898 577.642 898 573.5C898 569.358 889.941 566 880 566C870.059 566 862 569.358 862 573.5C862 577.642 870.059 581 880 581Z"/>
<path d="M923 580C932.941 580 941 576.866 941 573C941 569.134 932.941 566 923 566C913.059 566 905 569.134 905 573C905 576.866 913.059 580 923 580Z"/>
<path d="M896.5 485C910.031 485 921 473.807 921 460C921 446.193 910.031 435 896.5 435C882.969 435 872 446.193 872 460C872 473.807 882.969 485 896.5 485Z"/>
<path d="M896.5 457C901.194 457 905 453.418 905 449C905 444.582 901.194 441 896.5 441C891.805 441 888 444.582 888 449C888 453.418 891.805 457 896.5 457Z"/>
<path d="M826.042 411.353C820.348 385.244 838.551 358.861 866.699 352.426C894.847 345.991 922.282 361.94 927.976 388.05C933.67 414.16 915.015 423.789 886.867 430.224C858.719 436.66 831.737 437.463 826.042 411.353Z"/>
<path d="M957.936 403.364C966.151 385.403 968.312 368.72 962.762 366.1C957.211 363.48 946.052 375.915 937.837 393.876C929.622 411.836 927.461 428.52 933.011 431.14C938.561 433.76 949.721 421.324 957.936 403.364Z"/>
<path d="M834.822 452.101C840.231 449.193 837.222 432.645 828.102 415.141C818.981 397.637 807.203 385.806 801.794 388.714C796.385 391.623 799.393 408.17 808.514 425.674C817.634 443.178 829.412 455.01 834.822 452.101Z"/>
<path d="M1490.27 458.105C1495.98 455.869 1494.93 439.075 1487.91 420.595C1480.9 402.116 1470.59 388.948 1464.88 391.184C1459.17 393.42 1460.22 410.213 1467.23 428.693C1474.25 447.173 1484.56 460.341 1490.27 458.105Z"/>
<path d="M1543 550C1582.21 550 1614 517.988 1614 478.5C1614 439.012 1582.21 407 1543 407C1503.79 407 1472 439.012 1472 478.5C1472 517.988 1503.79 550 1543 550Z"/>
<path d="M1553.96 573.906L1575.41 573.845L1575.3 534.807L1553.85 534.868L1553.96 573.906Z"/>
<path d="M1511.07 574.031L1532.52 573.97L1532.41 534.933L1510.96 534.994L1511.07 574.031Z"/>
<path d="M1557.56 581.162C1567.43 581.134 1575.42 578.062 1575.41 574.302C1575.4 570.542 1567.39 567.516 1557.52 567.544C1547.65 567.572 1539.66 570.643 1539.67 574.404C1539.68 578.164 1547.69 581.19 1557.56 581.162Z"/>
<path d="M1514.66 580.376C1524.53 580.348 1532.53 577.277 1532.52 573.516C1532.5 569.756 1524.49 566.73 1514.62 566.758C1504.75 566.787 1496.76 569.858 1496.77 573.618C1496.78 577.378 1504.79 580.404 1514.66 580.376Z"/>
<path d="M1541 485C1554.25 485 1565 474.031 1565 460.5C1565 446.969 1554.25 436 1541 436C1527.75 436 1517 446.969 1517 460.5C1517 474.031 1527.75 485 1541 485Z"/>
<path d="M1541 469C1545.42 469 1549 465.418 1549 461C1549 456.582 1545.42 453 1541 453C1536.58 453 1533 456.582 1533 461C1533 465.418 1536.58 469 1541 469Z"/>
<path d="M1611.97 411.517C1617.65 385.688 1599.2 359.657 1570.77 353.375C1542.34 347.092 1514.69 362.938 1509.01 388.768C1503.33 414.597 1522.19 424.064 1550.62 430.346C1579.06 436.628 1606.3 437.346 1611.97 411.517Z"/>
<path d="M1627.18 455.27C1644.77 446.733 1656.89 435.265 1654.25 429.655C1651.62 424.045 1635.22 426.417 1617.63 434.954C1600.03 443.491 1587.91 454.96 1590.55 460.57C1593.19 466.18 1609.59 463.807 1627.18 455.27Z"/>
<path d="M1578 504.359C1578.02 511.263 1560.22 524.945 1540.43 525C1520.63 525.055 1502.02 505.672 1502 498.768C1501.98 491.865 1520.56 500.056 1540.36 500C1560.15 499.945 1577.98 497.456 1578 504.359Z"/>
<path d="M1564.5 475C1618.9 475 1663 430.005 1663 374.5C1663 318.995 1618.9 274 1564.5 274C1510.1 274 1466 318.995 1466 374.5C1466 430.005 1510.1 475 1564.5 475Z"/>
<path d="M915 338C954.212 338 986 305.765 986 266C986 226.235 954.212 194 915 194C875.788 194 844 226.235 844 266C844 305.765 875.788 338 915 338Z"/>
<path d="M894.514 319.161L873.41 315.279L866.565 353.692L887.669 357.573L894.514 319.161Z"/>
<path d="M936.723 326.923L915.619 323.042L908.774 361.455L929.878 365.336L936.723 326.923Z"/>
<path d="M936.645 379.958C939.038 377.088 934.871 369.508 927.338 363.028C919.805 356.547 911.76 353.62 909.367 356.489C906.975 359.359 911.142 366.939 918.675 373.42C926.207 379.9 934.253 382.828 936.645 379.958Z"/>
<path d="M895.316 372.357C897.708 369.488 893.541 361.908 886.008 355.427C878.476 348.947 870.43 346.019 868.038 348.889C865.646 351.758 869.813 359.338 877.345 365.819C884.878 372.3 892.924 375.227 895.316 372.357Z"/>
<path d="M920 272C933.255 272 944 261.255 944 248C944 234.745 933.255 224 920 224C906.745 224 896 234.745 896 248C896 261.255 906.745 272 920 272Z"/>
<path d="M930 248C934.418 248 938 244.194 938 239.5C938 234.806 934.418 231 930 231C925.582 231 922 234.806 922 239.5C922 244.194 925.582 248 930 248Z"/>
<path d="M859.036 187.698C857.97 161.454 880.593 139.225 909.567 138.049C938.541 136.872 962.893 157.193 963.959 183.437C965.026 209.681 944.885 215.644 915.911 216.821C886.938 217.997 860.102 213.942 859.036 187.698Z"/>
<path d="M982.6 263.622C1001.6 259.197 1015.9 250.697 1014.53 244.637C1013.16 238.577 996.65 237.251 977.648 241.676C958.646 246.101 944.35 254.601 945.717 260.661C947.085 266.721 963.597 268.047 982.6 263.622Z"/>
<path d="M844.018 287.034C863.021 282.609 877.317 274.109 875.949 268.049C874.582 261.989 858.069 260.663 839.067 265.088C820.064 269.513 805.768 278.012 807.136 284.073C808.503 290.133 825.016 291.458 844.018 287.034Z"/>
<path d="M895.256 294.283C894.5 298.429 895.434 302.704 897.854 306.166C900.274 309.629 903.982 311.995 908.161 312.746C912.34 313.496 916.648 312.569 920.138 310.168C923.628 307.767 926.013 304.089 926.77 299.943C928.345 291.31 921.617 288.254 912.915 286.692C904.212 285.129 896.831 285.65 895.256 294.283Z"/>
<path d="M1081.17 207.456L1017.82 188.164L1000.88 245.558L1064.23 264.85L1081.17 207.456Z"/>
<path d="M1023.83 253L1023 252.726C1023.29 251.781 1030.35 229.547 1040.73 226L1041 226.85C1031.04 230.254 1023.9 252.773 1023.83 253Z"/>
<path d="M1047 227C1049.21 227 1051 225.209 1051 223C1051 220.791 1049.21 219 1047 219C1044.79 219 1043 220.791 1043 223C1043 225.209 1044.79 227 1047 227Z"/>
<path d="M1041.58 245.999C1039.28 246.03 1037.01 245.433 1035 244.269C1036.89 242.888 1039.12 242.103 1041.42 242.01C1043.73 241.916 1046.01 242.517 1048 243.74C1046.09 245.064 1043.87 245.843 1041.58 245.999Z"/>
</mask>
<path d="M1367 342C1405.11 342 1436 310.884 1436 272.5C1436 234.116 1405.11 203 1367 203C1328.89 203 1298 234.116 1298 272.5C1298 310.884 1328.89 342 1367 342Z" fill="#24292E"/>
<path d="M1368 369H986V474H1368V369Z" fill="#24292E"/>
<path d="M1344.73 107.79L1329.35 115.08L1342.96 104.887C1340.75 101.428 1338.26 98.1531 1335.53 95.0922L1268.82 111.695L1329.08 88.6785C1326.32 86.2458 1323.4 84.0139 1320.33 82L1218.68 98.395C1207.89 111.909 1202.01 128.696 1202 146H1355C1354.99 132.58 1351.45 119.399 1344.73 107.79Z" fill="#24292E"/>
<path d="M1276.88 146L1226 68C1226 68 1303.05 95.7627 1294.31 146H1276.88Z" fill="#24292E"/>
<path d="M1279.38 146L1331 68C1331 68 1252.83 95.7627 1261.7 146H1279.38Z" fill="#24292E"/>
<path d="M1369 581H986V0H1369V581ZM987.785 579.184H1367.21V1.81562H987.785V579.184Z" fill="#24292E"/>
<path d="M1368 13H987V16H1368V13Z" fill="#24292E"/>
<path d="M997.5 11C999.433 11 1001 9.433 1001 7.5C1001 5.567 999.433 4 997.5 4C995.567 4 994 5.567 994 7.5C994 9.433 995.567 11 997.5 11Z" fill="#24292E"/>
<path d="M1006.5 11C1008.43 11 1010 9.433 1010 7.5C1010 5.567 1008.43 4 1006.5 4C1004.57 4 1003 5.567 1003 7.5C1003 9.433 1004.57 11 1006.5 11Z" fill="#24292E"/>
<path d="M1016 11C1018.21 11 1020 9.433 1020 7.5C1020 5.567 1018.21 4 1016 4C1013.79 4 1012 5.567 1012 7.5C1012 9.433 1013.79 11 1016 11Z" fill="#24292E"/>
<path d="M1016 26H1001V35H1016V26Z" fill="#24292E"/>
<path d="M1079 98H1001V107H1079V98Z" fill="#24292E"/>
<path d="M1280 35H1358V26H1280V35Z" fill="#24292E"/>
<path d="M1133 114H1001V119H1133V114Z" fill="#24292E"/>
<path d="M1125 125H1001V130H1125V125Z" fill="#24292E"/>
<path d="M1092 137H1001V143H1092V137Z" fill="#24292E"/>
<path d="M1083 298H1030V304H1083V298Z" fill="#24292E"/>
<path d="M1080 311H1030V316H1080V311Z" fill="#24292E"/>
<path d="M1067 322H1030V327H1067V322Z" fill="#24292E"/>
<path d="M1203 298H1152V304H1203V298Z" fill="#24292E"/>
<path d="M1200 311H1152V316H1200V311Z" fill="#24292E"/>
<path d="M1187 322H1152V327H1187V322Z" fill="#24292E"/>
<path d="M1328 298H1276V304H1328V298Z" fill="#24292E"/>
<path d="M1326 311H1276V316H1326V311Z" fill="#24292E"/>
<path d="M1312 322H1276V327H1312V322Z" fill="#24292E"/>
<path d="M1189 504H1111V514H1189V504Z" fill="#24292E"/>
<path d="M1244 520H1111V526H1244V520Z" fill="#24292E"/>
<path d="M1236 532H1111V537H1236V532Z" fill="#24292E"/>
<path d="M1202 544H1111V549H1202V544Z" fill="#24292E"/>
<path d="M1335 196H1024V198H1335V196Z" fill="#24292E"/>
<path d="M1090 228H1023V288H1090V228Z" fill="#24292E"/>
<path d="M1210 228H1144V288H1210V228Z" fill="#24292E"/>
<path d="M1336 228H1270V288H1336V228Z" fill="#24292E"/>
<path d="M1168.87 288L1168 287.982C1168.02 286.986 1168.56 263.493 1177.5 257L1178 257.737C1169.42 263.968 1168.87 287.76 1168.87 288Z" fill="#24292E"/>
<path d="M1182 257C1184.21 257 1186 254.985 1186 252.5C1186 250.015 1184.21 248 1182 248C1179.79 248 1178 250.015 1178 252.5C1178 254.985 1179.79 257 1182 257Z" fill="#24292E"/>
<path d="M1180.61 267.382C1178.47 268.088 1176.19 268.191 1174 267.682C1175.39 265.825 1177.26 264.429 1179.39 263.663C1181.52 262.896 1183.82 262.792 1186 263.363C1184.57 265.175 1182.71 266.561 1180.61 267.382Z" fill="#24292E"/>
<path d="M1293.87 288L1293 287.982C1293.02 286.986 1293.56 263.493 1302.5 257L1303 257.737C1294.42 263.968 1293.87 287.76 1293.87 288Z" fill="#24292E"/>
<path d="M1307 257C1309.21 257 1311 254.985 1311 252.5C1311 250.015 1309.21 248 1307 248C1304.79 248 1303 250.015 1303 252.5C1303 254.985 1304.79 257 1307 257Z" fill="#24292E"/>
<path d="M1306.16 267.382C1303.84 268.088 1301.37 268.191 1299 267.682C1300.51 265.825 1302.53 264.429 1304.84 263.663C1307.15 262.896 1309.63 262.792 1312 263.363C1310.45 265.175 1308.44 266.561 1306.16 267.382Z" fill="#24292E"/>
<path d="M1079 402H1001V411H1079V402Z" fill="#24292E"/>
<path d="M1133 417H1001V423H1133V417Z" fill="#24292E"/>
<path d="M1125 430H1001V435H1125V430Z" fill="#24292E"/>
<path d="M1092 441H1001V446H1092V441Z" fill="#24292E"/>
<path d="M1291.5 443C1306.69 443 1319 430.24 1319 414.5C1319 398.76 1306.69 386 1291.5 386C1276.31 386 1264 398.76 1264 414.5C1264 430.24 1276.31 443 1291.5 443Z" fill="#24292E"/>
<path d="M1240 448C1251.05 448 1260 439.046 1260 428C1260 416.954 1251.05 408 1240 408C1228.95 408 1220 416.954 1220 428C1220 439.046 1228.95 448 1240 448Z" fill="#24292E"/>
<path d="M894.5 550C933.436 550 965 517.765 965 478C965 438.235 933.436 406 894.5 406C855.564 406 824 438.235 824 478C824 517.765 855.564 550 894.5 550Z" fill="#24292E"/>
<path d="M884 534H862V574H884V534Z" fill="#24292E"/>
<path d="M926 534H905V574H926V534Z" fill="#24292E"/>
<path d="M880 581C889.941 581 898 577.642 898 573.5C898 569.358 889.941 566 880 566C870.059 566 862 569.358 862 573.5C862 577.642 870.059 581 880 581Z" fill="#24292E"/>
<path d="M923 580C932.941 580 941 576.866 941 573C941 569.134 932.941 566 923 566C913.059 566 905 569.134 905 573C905 576.866 913.059 580 923 580Z" fill="#24292E"/>
<path d="M896.5 485C910.031 485 921 473.807 921 460C921 446.193 910.031 435 896.5 435C882.969 435 872 446.193 872 460C872 473.807 882.969 485 896.5 485Z" fill="#24292E"/>
<path d="M896.5 457C901.194 457 905 453.418 905 449C905 444.582 901.194 441 896.5 441C891.805 441 888 444.582 888 449C888 453.418 891.805 457 896.5 457Z" fill="#24292E"/>
<path d="M826.042 411.353C820.348 385.244 838.551 358.861 866.699 352.426C894.847 345.991 922.282 361.94 927.976 388.05C933.67 414.16 915.015 423.789 886.867 430.224C858.719 436.66 831.737 437.463 826.042 411.353Z" fill="#24292E"/>
<path d="M957.936 403.364C966.151 385.403 968.312 368.72 962.762 366.1C957.211 363.48 946.052 375.915 937.837 393.876C929.622 411.836 927.461 428.52 933.011 431.14C938.561 433.76 949.721 421.324 957.936 403.364Z" fill="#24292E"/>
<path d="M834.822 452.101C840.231 449.193 837.222 432.645 828.102 415.141C818.981 397.637 807.203 385.806 801.794 388.714C796.385 391.623 799.393 408.17 808.514 425.674C817.634 443.178 829.412 455.01 834.822 452.101Z" fill="#24292E"/>
<path d="M1490.27 458.105C1495.98 455.869 1494.93 439.075 1487.91 420.595C1480.9 402.116 1470.59 388.948 1464.88 391.184C1459.17 393.42 1460.22 410.213 1467.23 428.693C1474.25 447.173 1484.56 460.341 1490.27 458.105Z" fill="#24292E"/>
<path d="M1543 550C1582.21 550 1614 517.988 1614 478.5C1614 439.012 1582.21 407 1543 407C1503.79 407 1472 439.012 1472 478.5C1472 517.988 1503.79 550 1543 550Z" fill="#24292E"/>
<path d="M1553.96 573.906L1575.41 573.845L1575.3 534.807L1553.85 534.868L1553.96 573.906Z" fill="#24292E"/>
<path d="M1511.07 574.031L1532.52 573.97L1532.41 534.933L1510.96 534.994L1511.07 574.031Z" fill="#24292E"/>
<path d="M1557.56 581.162C1567.43 581.134 1575.42 578.062 1575.41 574.302C1575.4 570.542 1567.39 567.516 1557.52 567.544C1547.65 567.572 1539.66 570.643 1539.67 574.404C1539.68 578.164 1547.69 581.19 1557.56 581.162Z" fill="#24292E"/>
<path d="M1514.66 580.376C1524.53 580.348 1532.53 577.277 1532.52 573.516C1532.5 569.756 1524.49 566.73 1514.62 566.758C1504.75 566.787 1496.76 569.858 1496.77 573.618C1496.78 577.378 1504.79 580.404 1514.66 580.376Z" fill="#24292E"/>
<path d="M1541 485C1554.25 485 1565 474.031 1565 460.5C1565 446.969 1554.25 436 1541 436C1527.75 436 1517 446.969 1517 460.5C1517 474.031 1527.75 485 1541 485Z" fill="#24292E"/>
<path d="M1541 469C1545.42 469 1549 465.418 1549 461C1549 456.582 1545.42 453 1541 453C1536.58 453 1533 456.582 1533 461C1533 465.418 1536.58 469 1541 469Z" fill="#24292E"/>
<path d="M1611.97 411.517C1617.65 385.688 1599.2 359.657 1570.77 353.375C1542.34 347.092 1514.69 362.938 1509.01 388.768C1503.33 414.597 1522.19 424.064 1550.62 430.346C1579.06 436.628 1606.3 437.346 1611.97 411.517Z" fill="#24292E"/>
<path d="M1627.18 455.27C1644.77 446.733 1656.89 435.265 1654.25 429.655C1651.62 424.045 1635.22 426.417 1617.63 434.954C1600.03 443.491 1587.91 454.96 1590.55 460.57C1593.19 466.18 1609.59 463.807 1627.18 455.27Z" fill="#24292E"/>
<path d="M1578 504.359C1578.02 511.263 1560.22 524.945 1540.43 525C1520.63 525.055 1502.02 505.672 1502 498.768C1501.98 491.865 1520.56 500.056 1540.36 500C1560.15 499.945 1577.98 497.456 1578 504.359Z" fill="#24292E"/>
<path d="M1564.5 475C1618.9 475 1663 430.005 1663 374.5C1663 318.995 1618.9 274 1564.5 274C1510.1 274 1466 318.995 1466 374.5C1466 430.005 1510.1 475 1564.5 475Z" fill="#24292E"/>
<path d="M915 338C954.212 338 986 305.765 986 266C986 226.235 954.212 194 915 194C875.788 194 844 226.235 844 266C844 305.765 875.788 338 915 338Z" fill="#24292E"/>
<path d="M894.514 319.161L873.41 315.279L866.565 353.692L887.669 357.573L894.514 319.161Z" fill="#24292E"/>
<path d="M936.723 326.923L915.619 323.042L908.774 361.455L929.878 365.336L936.723 326.923Z" fill="#24292E"/>
<path d="M936.645 379.958C939.038 377.088 934.871 369.508 927.338 363.028C919.805 356.547 911.76 353.62 909.367 356.489C906.975 359.359 911.142 366.939 918.675 373.42C926.207 379.9 934.253 382.828 936.645 379.958Z" fill="#24292E"/>
<path d="M895.316 372.357C897.708 369.488 893.541 361.908 886.008 355.427C878.476 348.947 870.43 346.019 868.038 348.889C865.646 351.758 869.813 359.338 877.345 365.819C884.878 372.3 892.924 375.227 895.316 372.357Z" fill="#24292E"/>
<path d="M920 272C933.255 272 944 261.255 944 248C944 234.745 933.255 224 920 224C906.745 224 896 234.745 896 248C896 261.255 906.745 272 920 272Z" fill="#24292E"/>
<path d="M930 248C934.418 248 938 244.194 938 239.5C938 234.806 934.418 231 930 231C925.582 231 922 234.806 922 239.5C922 244.194 925.582 248 930 248Z" fill="#24292E"/>
<path d="M859.036 187.698C857.97 161.454 880.593 139.225 909.567 138.049C938.541 136.872 962.893 157.193 963.959 183.437C965.026 209.681 944.885 215.644 915.911 216.821C886.938 217.997 860.102 213.942 859.036 187.698Z" fill="#24292E"/>
<path d="M982.6 263.622C1001.6 259.197 1015.9 250.697 1014.53 244.637C1013.16 238.577 996.65 237.251 977.648 241.676C958.646 246.101 944.35 254.601 945.717 260.661C947.085 266.721 963.597 268.047 982.6 263.622Z" fill="#24292E"/>
<path d="M844.018 287.034C863.021 282.609 877.317 274.109 875.949 268.049C874.582 261.989 858.069 260.663 839.067 265.088C820.064 269.513 805.768 278.012 807.136 284.073C808.503 290.133 825.016 291.458 844.018 287.034Z" fill="#24292E"/>
<path d="M895.256 294.283C894.5 298.429 895.434 302.704 897.854 306.166C900.274 309.629 903.982 311.995 908.161 312.746C912.34 313.496 916.648 312.569 920.138 310.168C923.628 307.767 926.013 304.089 926.77 299.943C928.345 291.31 921.617 288.254 912.915 286.692C904.212 285.129 896.831 285.65 895.256 294.283Z" fill="#24292E"/>
<path d="M1081.17 207.456L1017.82 188.164L1000.88 245.558L1064.23 264.85L1081.17 207.456Z" fill="#24292E"/>
<path d="M1023.83 253L1023 252.726C1023.29 251.781 1030.35 229.547 1040.73 226L1041 226.85C1031.04 230.254 1023.9 252.773 1023.83 253Z" fill="#24292E"/>
<path d="M1047 227C1049.21 227 1051 225.209 1051 223C1051 220.791 1049.21 219 1047 219C1044.79 219 1043 220.791 1043 223C1043 225.209 1044.79 227 1047 227Z" fill="#24292E"/>
<path d="M1041.58 245.999C1039.28 246.03 1037.01 245.433 1035 244.269C1036.89 242.888 1039.12 242.103 1041.42 242.01C1043.73 241.916 1046.01 242.517 1048 243.74C1046.09 245.064 1043.87 245.843 1041.58 245.999Z" fill="#24292E"/>
<path d="M1367 342C1405.11 342 1436 310.884 1436 272.5C1436 234.116 1405.11 203 1367 203C1328.89 203 1298 234.116 1298 272.5C1298 310.884 1328.89 342 1367 342Z" stroke="white" stroke-width="4" mask="url(#path-2-inside-1_776_224)"/>
<path d="M1368 369H986V474H1368V369Z" stroke="white" stroke-width="4" mask="url(#path-2-inside-1_776_224)"/>
<path d="M1344.73 107.79L1329.35 115.08L1342.96 104.887C1340.75 101.428 1338.26 98.1531 1335.53 95.0922L1268.82 111.695L1329.08 88.6785C1326.32 86.2458 1323.4 84.0139 1320.33 82L1218.68 98.395C1207.89 111.909 1202.01 128.696 1202 146H1355C1354.99 132.58 1351.45 119.399 1344.73 107.79Z" stroke="white" stroke-width="4" mask="url(#path-2-inside-1_776_224)"/>
<path d="M1276.88 146L1226 68C1226 68 1303.05 95.7627 1294.31 146H1276.88Z" stroke="white" stroke-width="4" mask="url(#path-2-inside-1_776_224)"/>
<path d="M1279.38 146L1331 68C1331 68 1252.83 95.7627 1261.7 146H1279.38Z" stroke="white" stroke-width="4" mask="url(#path-2-inside-1_776_224)"/>
<path d="M1369 581H986V0H1369V581ZM987.785 579.184H1367.21V1.81562H987.785V579.184Z" stroke="white" stroke-width="4" mask="url(#path-2-inside-1_776_224)"/>
<path d="M1368 13H987V16H1368V13Z" stroke="white" stroke-width="4" mask="url(#path-2-inside-1_776_224)"/>
<path d="M997.5 11C999.433 11 1001 9.433 1001 7.5C1001 5.567 999.433 4 997.5 4C995.567 4 994 5.567 994 7.5C994 9.433 995.567 11 997.5 11Z" stroke="white" stroke-width="4" mask="url(#path-2-inside-1_776_224)"/>
<path d="M1006.5 11C1008.43 11 1010 9.433 1010 7.5C1010 5.567 1008.43 4 1006.5 4C1004.57 4 1003 5.567 1003 7.5C1003 9.433 1004.57 11 1006.5 11Z" stroke="white" stroke-width="4" mask="url(#path-2-inside-1_776_224)"/>
<path d="M1016 11C1018.21 11 1020 9.433 1020 7.5C1020 5.567 1018.21 4 1016 4C1013.79 4 1012 5.567 1012 7.5C1012 9.433 1013.79 11 1016 11Z" stroke="white" stroke-width="4" mask="url(#path-2-inside-1_776_224)"/>
<path d="M1016 26H1001V35H1016V26Z" stroke="white" stroke-width="4" mask="url(#path-2-inside-1_776_224)"/>
<path d="M1079 98H1001V107H1079V98Z" stroke="white" stroke-width="4" mask="url(#path-2-inside-1_776_224)"/>
<path d="M1280 35H1358V26H1280V35Z" stroke="white" stroke-width="4" mask="url(#path-2-inside-1_776_224)"/>
<path d="M1133 114H1001V119H1133V114Z" stroke="white" stroke-width="4" mask="url(#path-2-inside-1_776_224)"/>
<path d="M1125 125H1001V130H1125V125Z" stroke="white" stroke-width="4" mask="url(#path-2-inside-1_776_224)"/>
<path d="M1092 137H1001V143H1092V137Z" stroke="white" stroke-width="4" mask="url(#path-2-inside-1_776_224)"/>
<path d="M1083 298H1030V304H1083V298Z" stroke="white" stroke-width="4" mask="url(#path-2-inside-1_776_224)"/>
<path d="M1080 311H1030V316H1080V311Z" stroke="white" stroke-width="4" mask="url(#path-2-inside-1_776_224)"/>
<path d="M1067 322H1030V327H1067V322Z" stroke="white" stroke-width="4" mask="url(#path-2-inside-1_776_224)"/>
<path d="M1203 298H1152V304H1203V298Z" stroke="white" stroke-width="4" mask="url(#path-2-inside-1_776_224)"/>
<path d="M1200 311H1152V316H1200V311Z" stroke="white" stroke-width="4" mask="url(#path-2-inside-1_776_224)"/>
<path d="M1187 322H1152V327H1187V322Z" stroke="white" stroke-width="4" mask="url(#path-2-inside-1_776_224)"/>
<path d="M1328 298H1276V304H1328V298Z" stroke="white" stroke-width="4" mask="url(#path-2-inside-1_776_224)"/>
<path d="M1326 311H1276V316H1326V311Z" stroke="white" stroke-width="4" mask="url(#path-2-inside-1_776_224)"/>
<path d="M1312 322H1276V327H1312V322Z" stroke="white" stroke-width="4" mask="url(#path-2-inside-1_776_224)"/>
<path d="M1189 504H1111V514H1189V504Z" stroke="white" stroke-width="4" mask="url(#path-2-inside-1_776_224)"/>
<path d="M1244 520H1111V526H1244V520Z" stroke="white" stroke-width="4" mask="url(#path-2-inside-1_776_224)"/>
<path d="M1236 532H1111V537H1236V532Z" stroke="white" stroke-width="4" mask="url(#path-2-inside-1_776_224)"/>
<path d="M1202 544H1111V549H1202V544Z" stroke="white" stroke-width="4" mask="url(#path-2-inside-1_776_224)"/>
<path d="M1335 196H1024V198H1335V196Z" stroke="white" stroke-width="4" mask="url(#path-2-inside-1_776_224)"/>
<path d="M1090 228H1023V288H1090V228Z" stroke="white" stroke-width="4" mask="url(#path-2-inside-1_776_224)"/>
<path d="M1210 228H1144V288H1210V228Z" stroke="white" stroke-width="4" mask="url(#path-2-inside-1_776_224)"/>
<path d="M1336 228H1270V288H1336V228Z" stroke="white" stroke-width="4" mask="url(#path-2-inside-1_776_224)"/>
<path d="M1168.87 288L1168 287.982C1168.02 286.986 1168.56 263.493 1177.5 257L1178 257.737C1169.42 263.968 1168.87 287.76 1168.87 288Z" stroke="white" stroke-width="4" mask="url(#path-2-inside-1_776_224)"/>
<path d="M1182 257C1184.21 257 1186 254.985 1186 252.5C1186 250.015 1184.21 248 1182 248C1179.79 248 1178 250.015 1178 252.5C1178 254.985 1179.79 257 1182 257Z" stroke="white" stroke-width="4" mask="url(#path-2-inside-1_776_224)"/>
<path d="M1180.61 267.382C1178.47 268.088 1176.19 268.191 1174 267.682C1175.39 265.825 1177.26 264.429 1179.39 263.663C1181.52 262.896 1183.82 262.792 1186 263.363C1184.57 265.175 1182.71 266.561 1180.61 267.382Z" stroke="white" stroke-width="4" mask="url(#path-2-inside-1_776_224)"/>
<path d="M1293.87 288L1293 287.982C1293.02 286.986 1293.56 263.493 1302.5 257L1303 257.737C1294.42 263.968 1293.87 287.76 1293.87 288Z" stroke="white" stroke-width="4" mask="url(#path-2-inside-1_776_224)"/>
<path d="M1307 257C1309.21 257 1311 254.985 1311 252.5C1311 250.015 1309.21 248 1307 248C1304.79 248 1303 250.015 1303 252.5C1303 254.985 1304.79 257 1307 257Z" stroke="white" stroke-width="4" mask="url(#path-2-inside-1_776_224)"/>
<path d="M1306.16 267.382C1303.84 268.088 1301.37 268.191 1299 267.682C1300.51 265.825 1302.53 264.429 1304.84 263.663C1307.15 262.896 1309.63 262.792 1312 263.363C1310.45 265.175 1308.44 266.561 1306.16 267.382Z" stroke="white" stroke-width="4" mask="url(#path-2-inside-1_776_224)"/>
<path d="M1079 402H1001V411H1079V402Z" stroke="white" stroke-width="4" mask="url(#path-2-inside-1_776_224)"/>
<path d="M1133 417H1001V423H1133V417Z" stroke="white" stroke-width="4" mask="url(#path-2-inside-1_776_224)"/>
<path d="M1125 430H1001V435H1125V430Z" stroke="white" stroke-width="4" mask="url(#path-2-inside-1_776_224)"/>
<path d="M1092 441H1001V446H1092V441Z" stroke="white" stroke-width="4" mask="url(#path-2-inside-1_776_224)"/>
<path d="M1291.5 443C1306.69 443 1319 430.24 1319 414.5C1319 398.76 1306.69 386 1291.5 386C1276.31 386 1264 398.76 1264 414.5C1264 430.24 1276.31 443 1291.5 443Z" stroke="white" stroke-width="4" mask="url(#path-2-inside-1_776_224)"/>
<path d="M1240 448C1251.05 448 1260 439.046 1260 428C1260 416.954 1251.05 408 1240 408C1228.95 408 1220 416.954 1220 428C1220 439.046 1228.95 448 1240 448Z" stroke="white" stroke-width="4" mask="url(#path-2-inside-1_776_224)"/>
<path d="M894.5 550C933.436 550 965 517.765 965 478C965 438.235 933.436 406 894.5 406C855.564 406 824 438.235 824 478C824 517.765 855.564 550 894.5 550Z" stroke="white" stroke-width="4" mask="url(#path-2-inside-1_776_224)"/>
<path d="M884 534H862V574H884V534Z" stroke="white" stroke-width="4" mask="url(#path-2-inside-1_776_224)"/>
<path d="M926 534H905V574H926V534Z" stroke="white" stroke-width="4" mask="url(#path-2-inside-1_776_224)"/>
<path d="M880 581C889.941 581 898 577.642 898 573.5C898 569.358 889.941 566 880 566C870.059 566 862 569.358 862 573.5C862 577.642 870.059 581 880 581Z" stroke="white" stroke-width="4" mask="url(#path-2-inside-1_776_224)"/>
<path d="M923 580C932.941 580 941 576.866 941 573C941 569.134 932.941 566 923 566C913.059 566 905 569.134 905 573C905 576.866 913.059 580 923 580Z" stroke="white" stroke-width="4" mask="url(#path-2-inside-1_776_224)"/>
<path d="M896.5 485C910.031 485 921 473.807 921 460C921 446.193 910.031 435 896.5 435C882.969 435 872 446.193 872 460C872 473.807 882.969 485 896.5 485Z" stroke="white" stroke-width="4" mask="url(#path-2-inside-1_776_224)"/>
<path d="M896.5 457C901.194 457 905 453.418 905 449C905 444.582 901.194 441 896.5 441C891.805 441 888 444.582 888 449C888 453.418 891.805 457 896.5 457Z" stroke="white" stroke-width="4" mask="url(#path-2-inside-1_776_224)"/>
<path d="M826.042 411.353C820.348 385.244 838.551 358.861 866.699 352.426C894.847 345.991 922.282 361.94 927.976 388.05C933.67 414.16 915.015 423.789 886.867 430.224C858.719 436.66 831.737 437.463 826.042 411.353Z" stroke="white" stroke-width="4" mask="url(#path-2-inside-1_776_224)"/>
<path d="M957.936 403.364C966.151 385.403 968.312 368.72 962.762 366.1C957.211 363.48 946.052 375.915 937.837 393.876C929.622 411.836 927.461 428.52 933.011 431.14C938.561 433.76 949.721 421.324 957.936 403.364Z" stroke="white" stroke-width="4" mask="url(#path-2-inside-1_776_224)"/>
<path d="M834.822 452.101C840.231 449.193 837.222 432.645 828.102 415.141C818.981 397.637 807.203 385.806 801.794 388.714C796.385 391.623 799.393 408.17 808.514 425.674C817.634 443.178 829.412 455.01 834.822 452.101Z" stroke="white" stroke-width="4" mask="url(#path-2-inside-1_776_224)"/>
<path d="M1490.27 458.105C1495.98 455.869 1494.93 439.075 1487.91 420.595C1480.9 402.116 1470.59 388.948 1464.88 391.184C1459.17 393.42 1460.22 410.213 1467.23 428.693C1474.25 447.173 1484.56 460.341 1490.27 458.105Z" stroke="white" stroke-width="4" mask="url(#path-2-inside-1_776_224)"/>
<path d="M1543 550C1582.21 550 1614 517.988 1614 478.5C1614 439.012 1582.21 407 1543 407C1503.79 407 1472 439.012 1472 478.5C1472 517.988 1503.79 550 1543 550Z" stroke="white" stroke-width="4" mask="url(#path-2-inside-1_776_224)"/>
<path d="M1553.96 573.906L1575.41 573.845L1575.3 534.807L1553.85 534.868L1553.96 573.906Z" stroke="white" stroke-width="4" mask="url(#path-2-inside-1_776_224)"/>
<path d="M1511.07 574.031L1532.52 573.97L1532.41 534.933L1510.96 534.994L1511.07 574.031Z" stroke="white" stroke-width="4" mask="url(#path-2-inside-1_776_224)"/>
<path d="M1557.56 581.162C1567.43 581.134 1575.42 578.062 1575.41 574.302C1575.4 570.542 1567.39 567.516 1557.52 567.544C1547.65 567.572 1539.66 570.643 1539.67 574.404C1539.68 578.164 1547.69 581.19 1557.56 581.162Z" stroke="white" stroke-width="4" mask="url(#path-2-inside-1_776_224)"/>
<path d="M1514.66 580.376C1524.53 580.348 1532.53 577.277 1532.52 573.516C1532.5 569.756 1524.49 566.73 1514.62 566.758C1504.75 566.787 1496.76 569.858 1496.77 573.618C1496.78 577.378 1504.79 580.404 1514.66 580.376Z" stroke="white" stroke-width="4" mask="url(#path-2-inside-1_776_224)"/>
<path d="M1541 485C1554.25 485 1565 474.031 1565 460.5C1565 446.969 1554.25 436 1541 436C1527.75 436 1517 446.969 1517 460.5C1517 474.031 1527.75 485 1541 485Z" stroke="white" stroke-width="4" mask="url(#path-2-inside-1_776_224)"/>
<path d="M1541 469C1545.42 469 1549 465.418 1549 461C1549 456.582 1545.42 453 1541 453C1536.58 453 1533 456.582 1533 461C1533 465.418 1536.58 469 1541 469Z" stroke="white" stroke-width="4" mask="url(#path-2-inside-1_776_224)"/>
<path d="M1611.97 411.517C1617.65 385.688 1599.2 359.657 1570.77 353.375C1542.34 347.092 1514.69 362.938 1509.01 388.768C1503.33 414.597 1522.19 424.064 1550.62 430.346C1579.06 436.628 1606.3 437.346 1611.97 411.517Z" stroke="white" stroke-width="4" mask="url(#path-2-inside-1_776_224)"/>
<path d="M1627.18 455.27C1644.77 446.733 1656.89 435.265 1654.25 429.655C1651.62 424.045 1635.22 426.417 1617.63 434.954C1600.03 443.491 1587.91 454.96 1590.55 460.57C1593.19 466.18 1609.59 463.807 1627.18 455.27Z" stroke="white" stroke-width="4" mask="url(#path-2-inside-1_776_224)"/>
<path d="M1578 504.359C1578.02 511.263 1560.22 524.945 1540.43 525C1520.63 525.055 1502.02 505.672 1502 498.768C1501.98 491.865 1520.56 500.056 1540.36 500C1560.15 499.945 1577.98 497.456 1578 504.359Z" stroke="white" stroke-width="4" mask="url(#path-2-inside-1_776_224)"/>
<path d="M1564.5 475C1618.9 475 1663 430.005 1663 374.5C1663 318.995 1618.9 274 1564.5 274C1510.1 274 1466 318.995 1466 374.5C1466 430.005 1510.1 475 1564.5 475Z" stroke="white" stroke-width="4" mask="url(#path-2-inside-1_776_224)"/>
<path d="M915 338C954.212 338 986 305.765 986 266C986 226.235 954.212 194 915 194C875.788 194 844 226.235 844 266C844 305.765 875.788 338 915 338Z" stroke="white" stroke-width="4" mask="url(#path-2-inside-1_776_224)"/>
<path d="M894.514 319.161L873.41 315.279L866.565 353.692L887.669 357.573L894.514 319.161Z" stroke="white" stroke-width="4" mask="url(#path-2-inside-1_776_224)"/>
<path d="M936.723 326.923L915.619 323.042L908.774 361.455L929.878 365.336L936.723 326.923Z" stroke="white" stroke-width="4" mask="url(#path-2-inside-1_776_224)"/>
<path d="M936.645 379.958C939.038 377.088 934.871 369.508 927.338 363.028C919.805 356.547 911.76 353.62 909.367 356.489C906.975 359.359 911.142 366.939 918.675 373.42C926.207 379.9 934.253 382.828 936.645 379.958Z" stroke="white" stroke-width="4" mask="url(#path-2-inside-1_776_224)"/>
<path d="M895.316 372.357C897.708 369.488 893.541 361.908 886.008 355.427C878.476 348.947 870.43 346.019 868.038 348.889C865.646 351.758 869.813 359.338 877.345 365.819C884.878 372.3 892.924 375.227 895.316 372.357Z" stroke="white" stroke-width="4" mask="url(#path-2-inside-1_776_224)"/>
<path d="M920 272C933.255 272 944 261.255 944 248C944 234.745 933.255 224 920 224C906.745 224 896 234.745 896 248C896 261.255 906.745 272 920 272Z" stroke="white" stroke-width="4" mask="url(#path-2-inside-1_776_224)"/>
<path d="M930 248C934.418 248 938 244.194 938 239.5C938 234.806 934.418 231 930 231C925.582 231 922 234.806 922 239.5C922 244.194 925.582 248 930 248Z" stroke="white" stroke-width="4" mask="url(#path-2-inside-1_776_224)"/>
<path d="M859.036 187.698C857.97 161.454 880.593 139.225 909.567 138.049C938.541 136.872 962.893 157.193 963.959 183.437C965.026 209.681 944.885 215.644 915.911 216.821C886.938 217.997 860.102 213.942 859.036 187.698Z" stroke="white" stroke-width="4" mask="url(#path-2-inside-1_776_224)"/>
<path d="M982.6 263.622C1001.6 259.197 1015.9 250.697 1014.53 244.637C1013.16 238.577 996.65 237.251 977.648 241.676C958.646 246.101 944.35 254.601 945.717 260.661C947.085 266.721 963.597 268.047 982.6 263.622Z" stroke="white" stroke-width="4" mask="url(#path-2-inside-1_776_224)"/>
<path d="M844.018 287.034C863.021 282.609 877.317 274.109 875.949 268.049C874.582 261.989 858.069 260.663 839.067 265.088C820.064 269.513 805.768 278.012 807.136 284.073C808.503 290.133 825.016 291.458 844.018 287.034Z" stroke="white" stroke-width="4" mask="url(#path-2-inside-1_776_224)"/>
<path d="M895.256 294.283C894.5 298.429 895.434 302.704 897.854 306.166C900.274 309.629 903.982 311.995 908.161 312.746C912.34 313.496 916.648 312.569 920.138 310.168C923.628 307.767 926.013 304.089 926.77 299.943C928.345 291.31 921.617 288.254 912.915 286.692C904.212 285.129 896.831 285.65 895.256 294.283Z" stroke="white" stroke-width="4" mask="url(#path-2-inside-1_776_224)"/>
<path d="M1081.17 207.456L1017.82 188.164L1000.88 245.558L1064.23 264.85L1081.17 207.456Z" stroke="white" stroke-width="4" mask="url(#path-2-inside-1_776_224)"/>
<path d="M1023.83 253L1023 252.726C1023.29 251.781 1030.35 229.547 1040.73 226L1041 226.85C1031.04 230.254 1023.9 252.773 1023.83 253Z" stroke="white" stroke-width="4" mask="url(#path-2-inside-1_776_224)"/>
<path d="M1047 227C1049.21 227 1051 225.209 1051 223C1051 220.791 1049.21 219 1047 219C1044.79 219 1043 220.791 1043 223C1043 225.209 1044.79 227 1047 227Z" stroke="white" stroke-width="4" mask="url(#path-2-inside-1_776_224)"/>
<path d="M1041.58 245.999C1039.28 246.03 1037.01 245.433 1035 244.269C1036.89 242.888 1039.12 242.103 1041.42 242.01C1043.73 241.916 1046.01 242.517 1048 243.74C1046.09 245.064 1043.87 245.843 1041.58 245.999Z" stroke="white" stroke-width="4" mask="url(#path-2-inside-1_776_224)"/>
<path d="M786.593 269.254C786.746 268.552 786.346 267.869 785.7 267.729L775.177 265.439C774.532 265.299 773.884 265.754 773.732 266.456C773.579 267.159 773.978 267.842 774.624 267.982L783.978 270.017L781.765 280.189C781.612 280.891 782.012 281.575 782.658 281.715C783.303 281.856 783.951 281.4 784.104 280.698L786.593 269.254ZM709.984 323.594L712.701 321.683L711.439 319.525L708.722 321.436L709.984 323.594ZM718.135 317.86L723.568 314.038L722.306 311.88L716.873 315.702L718.135 317.86ZM729.002 310.215L734.436 306.393L733.173 304.235L727.74 308.057L729.002 310.215ZM739.869 302.57L745.303 298.748L744.041 296.59L738.607 300.412L739.869 302.57ZM750.737 294.925L756.17 291.103L754.908 288.945L749.474 292.767L750.737 294.925ZM761.604 287.28L767.037 283.458L765.775 281.3L760.341 285.122L761.604 287.28ZM772.471 279.635L777.905 275.813L776.642 273.655L771.209 277.477L772.471 279.635ZM783.338 271.99L786.055 270.079L784.793 267.921L782.076 269.832L783.338 271.99ZM787.762 269.509C788.068 268.104 787.269 266.738 785.977 266.457L764.931 261.879C763.64 261.598 762.345 262.508 762.039 263.913C761.734 265.317 762.533 266.684 763.825 266.965L782.532 271.034L778.106 291.378C777.801 292.783 778.6 294.149 779.892 294.43C781.183 294.711 782.478 293.8 782.783 292.396L787.762 269.509ZM710.616 324.673L713.332 322.762L710.808 318.446L708.091 320.357L710.616 324.673ZM718.766 318.939L724.2 315.117L721.675 310.801L716.241 314.623L718.766 318.939ZM729.633 311.294L735.067 307.472L732.542 303.156L727.109 306.978L729.633 311.294ZM740.5 303.649L745.934 299.827L743.409 295.511L737.976 299.333L740.5 303.649ZM751.368 296.004L756.801 292.182L754.277 287.866L748.843 291.688L751.368 296.004ZM762.235 288.359L767.669 284.537L765.144 280.221L759.71 284.043L762.235 288.359ZM773.102 280.714L778.536 276.892L776.011 272.576L770.577 276.398L773.102 280.714ZM783.969 273.069L786.686 271.158L784.162 266.842L781.445 268.753L783.969 273.069Z" fill="#8A8A8A"/>
<path d="M785.7 377.301C786.346 377.161 786.746 376.478 786.593 375.775L784.104 364.332C783.951 363.63 783.303 363.174 782.658 363.315C782.012 363.455 781.612 364.138 781.765 364.841L783.978 375.013L774.624 377.047C773.978 377.188 773.579 377.871 773.732 378.573C773.884 379.276 774.532 379.731 775.177 379.59L785.7 377.301ZM708.722 323.594L711.439 325.505L712.701 323.347L709.984 321.436L708.722 323.594ZM716.873 329.328L722.306 333.15L723.568 330.992L718.135 327.17L716.873 329.328ZM727.74 336.973L733.173 340.795L734.436 338.637L729.002 334.815L727.74 336.973ZM738.607 344.618L744.041 348.44L745.303 346.282L739.869 342.46L738.607 344.618ZM749.474 352.262L754.908 356.085L756.17 353.927L750.737 350.105L749.474 352.262ZM760.341 359.907L765.775 363.73L767.037 361.572L761.604 357.75L760.341 359.907ZM771.209 367.552L776.642 371.375L777.905 369.217L772.471 365.395L771.209 367.552ZM782.076 375.197L784.793 377.109L786.055 374.951L783.338 373.039L782.076 375.197ZM785.977 378.573C787.269 378.292 788.068 376.925 787.762 375.521L782.783 352.634C782.478 351.23 781.183 350.319 779.892 350.6C778.6 350.881 777.801 352.247 778.106 353.652L782.532 373.995L763.825 378.065C762.533 378.346 761.734 379.713 762.039 381.117C762.345 382.521 763.64 383.432 764.931 383.151L785.977 378.573ZM708.091 324.673L710.808 326.584L713.332 322.268L710.616 320.357L708.091 324.673ZM716.241 330.407L721.675 334.229L724.2 329.913L718.766 326.091L716.241 330.407ZM727.109 338.051L732.542 341.874L735.067 337.558L729.633 333.736L727.109 338.051ZM737.976 345.696L743.409 349.519L745.934 345.203L740.5 341.381L737.976 345.696ZM748.843 353.341L754.277 357.164L756.801 352.848L751.368 349.026L748.843 353.341ZM759.71 360.986L765.144 364.809L767.669 360.493L762.235 356.671L759.71 360.986ZM770.577 368.631L776.011 372.454L778.536 368.138L773.102 364.316L770.577 368.631ZM781.445 376.276L784.162 378.188L786.686 373.872L783.969 371.961L781.445 376.276Z" fill="#8A8A8A"/>
<path d="M786.377 324.464C786.869 323.985 786.875 323.193 786.391 322.695L778.507 314.571C778.023 314.073 777.233 314.056 776.741 314.535C776.249 315.013 776.243 315.805 776.727 316.304L783.735 323.525L776.613 330.455C776.121 330.933 776.115 331.725 776.599 332.224C777.083 332.722 777.873 332.739 778.365 332.26L786.377 324.464ZM708.99 323.238L712.815 323.317L712.835 320.815L709.01 320.737L708.99 323.238ZM720.465 323.474L728.115 323.632L728.135 321.13L720.485 320.973L720.465 323.474ZM735.765 323.789L743.415 323.946L743.435 321.445L735.785 321.287L735.765 323.789ZM751.065 324.104L758.716 324.261L758.736 321.759L751.086 321.602L751.065 324.104ZM766.366 324.418L774.016 324.576L774.036 322.074L766.386 321.917L766.366 324.418ZM781.666 324.733L785.491 324.812L785.511 322.31L781.686 322.231L781.666 324.733ZM787.253 325.366C788.236 324.409 788.249 322.825 787.281 321.828L771.514 305.581C770.546 304.584 768.965 304.552 767.981 305.508C766.998 306.465 766.985 308.049 767.953 309.046L781.969 323.488L767.725 337.349C766.742 338.306 766.729 339.89 767.697 340.887C768.664 341.884 770.246 341.916 771.229 340.96L787.253 325.366ZM708.98 324.489L712.805 324.568L712.845 319.564L709.02 319.486L708.98 324.489ZM720.455 324.725L728.105 324.882L728.145 319.879L720.495 319.722L720.455 324.725ZM735.755 325.04L743.405 325.197L743.445 320.194L735.795 320.037L735.755 325.04ZM751.055 325.355L758.705 325.512L758.746 320.509L751.096 320.351L751.055 325.355ZM766.356 325.669L774.006 325.827L774.046 320.823L766.396 320.666L766.356 325.669ZM781.656 325.984L785.481 326.063L785.521 321.059L781.696 320.981L781.656 325.984Z" fill="#8A8A8A"/>
<path d="M208.967 209.876C221.485 209.876 231.634 199.728 231.634 187.209C231.634 174.691 221.485 164.542 208.967 164.542C196.448 164.542 186.3 174.691 186.3 187.209C186.3 199.728 196.448 209.876 208.967 209.876Z" fill="#49D893"/>
<path d="M213.5 224.209H111.5C102.483 224.209 93.8351 220.627 87.4589 214.251C81.0826 207.875 77.5005 199.227 77.5005 190.209C77.5005 181.192 81.0826 172.544 87.4589 166.168C93.8351 159.792 102.483 156.209 111.5 156.209H213.5C222.518 156.209 231.166 159.792 237.542 166.168C243.918 172.544 247.5 181.192 247.5 190.209C247.5 199.227 243.918 207.875 237.542 214.251C231.166 220.627 222.518 224.209 213.5 224.209ZM111.5 160.743C103.685 160.743 96.1904 163.847 90.6644 169.373C85.1383 174.899 82.0338 182.394 82.0338 190.209C82.0338 198.025 85.1383 205.519 90.6644 211.046C96.1904 216.572 103.685 219.676 111.5 219.676H213.5C221.316 219.676 228.81 216.572 234.337 211.046C239.863 205.519 242.967 198.025 242.967 190.209C242.967 182.394 239.863 174.899 234.337 169.373C228.81 163.847 221.316 160.743 213.5 160.743H111.5Z" fill="#49D893"/>
<path d="M115.174 336.654C127.692 336.654 137.841 326.506 137.841 313.987C137.841 301.469 127.692 291.321 115.174 291.321C102.655 291.321 92.5073 301.469 92.5073 313.987C92.5073 326.506 102.655 336.654 115.174 336.654Z" fill="#2F2E41"/>
<path d="M213.5 348.988H111.5C102.483 348.988 93.8351 345.406 87.4589 339.029C81.0826 332.653 77.5005 324.005 77.5005 314.988C77.5005 305.97 81.0826 297.322 87.4589 290.946C93.8351 284.57 102.483 280.988 111.5 280.988H213.5C222.518 280.988 231.166 284.57 237.542 290.946C243.918 297.322 247.5 305.97 247.5 314.988C247.5 324.005 243.918 332.653 237.542 339.029C231.166 345.406 222.518 348.988 213.5 348.988ZM111.5 285.521C103.685 285.521 96.1905 288.626 90.6644 294.152C85.1384 299.678 82.0338 307.173 82.0338 314.988C82.0338 322.803 85.1384 330.298 90.6644 335.824C96.1905 341.35 103.685 344.454 111.5 344.454H213.5C221.316 344.454 228.81 341.35 234.337 335.824C239.863 330.298 242.967 322.803 242.967 314.988C242.967 307.173 239.863 299.678 234.337 294.152C228.81 288.626 221.316 285.521 213.5 285.521H111.5Z" fill="#2F2E41"/>
<path d="M115.174 462.432C127.692 462.432 137.841 452.284 137.841 439.766C137.841 427.247 127.692 417.099 115.174 417.099C102.655 417.099 92.5073 427.247 92.5073 439.766C92.5073 452.284 102.655 462.432 115.174 462.432Z" fill="#2F2E41"/>
<path d="M213.5 473.766H111.5C102.483 473.766 93.8351 470.184 87.4589 463.808C81.0826 457.432 77.5005 448.783 77.5005 439.766C77.5005 430.749 81.0826 422.101 87.4589 415.724C93.8351 409.348 102.483 405.766 111.5 405.766H213.5C222.518 405.766 231.166 409.348 237.542 415.724C243.918 422.101 247.5 430.749 247.5 439.766C247.5 448.783 243.918 457.432 237.542 463.808C231.166 470.184 222.518 473.766 213.5 473.766ZM111.5 410.299C103.685 410.299 96.1904 413.404 90.6644 418.93C85.1383 424.456 82.0338 431.951 82.0338 439.766C82.0338 447.581 85.1383 455.076 90.6644 460.602C96.1904 466.128 103.685 469.233 111.5 469.233H213.5C217.37 469.233 221.202 468.471 224.777 466.99C228.352 465.509 231.6 463.338 234.337 460.602C237.073 457.866 239.243 454.618 240.724 451.043C242.205 447.467 242.967 443.636 242.967 439.766C242.967 435.896 242.205 432.065 240.724 428.49C239.243 424.915 237.073 421.666 234.337 418.93C231.6 416.194 228.352 414.023 224.777 412.542C221.202 411.062 217.37 410.299 213.5 410.299H111.5Z" fill="#2F2E41"/>
<path d="M392.897 314.839C393.377 314.344 393.365 313.552 392.87 313.072L384.793 305.24C384.298 304.76 383.506 304.772 383.026 305.267C382.545 305.763 382.557 306.554 383.053 307.035L390.232 313.996L383.271 321.175C382.79 321.671 382.802 322.462 383.298 322.943C383.793 323.424 384.585 323.411 385.065 322.916L392.897 314.839ZM325.019 316.25L328.369 316.198L328.331 313.699L324.981 313.75L325.019 316.25ZM335.069 316.095L341.769 315.992L341.731 313.492L335.031 313.596L335.069 316.095ZM348.469 315.889L355.169 315.786L355.131 313.286L348.431 313.389L348.469 315.889ZM361.869 315.683L368.569 315.58L368.53 313.08L361.831 313.183L361.869 315.683ZM375.269 315.477L381.969 315.374L381.93 312.874L375.23 312.977L375.269 315.477ZM388.669 315.271L392.019 315.219L391.98 312.719L388.63 312.771L388.669 315.271ZM393.794 315.71C394.755 314.718 394.731 313.136 393.74 312.174L377.587 296.511C376.596 295.55 375.013 295.574 374.052 296.566C373.091 297.557 373.115 299.14 374.106 300.101L388.464 314.024L374.542 328.382C373.58 329.373 373.605 330.956 374.596 331.917C375.587 332.878 377.17 332.854 378.131 331.862L393.794 315.71ZM325.038 317.5L328.388 317.448L328.312 312.449L324.962 312.5L325.038 317.5ZM335.088 317.345L341.788 317.242L341.711 312.243L335.011 312.346L335.088 317.345ZM348.488 317.139L355.188 317.036L355.111 312.036L348.411 312.14L348.488 317.139ZM361.888 316.933L368.588 316.83L368.511 311.83L361.811 311.933L361.888 316.933ZM375.288 316.727L381.988 316.624L381.911 311.624L375.211 311.727L375.288 316.727ZM388.688 316.52L392.038 316.469L391.961 311.47L388.611 311.521L388.688 316.52Z" fill="#8A8A8A"/>
<mask id="path-13-outside-2_776_224" maskUnits="userSpaceOnUse" x="400" y="176" width="310" height="293" fill="black">
<rect fill="white" x="400" y="176" width="310" height="293"/>
<path d="M632.714 312.184H682.64C683.678 314.656 685.596 316.708 688.064 317.988C690.533 319.269 693.397 319.696 696.164 319.198C698.931 318.699 701.427 317.306 703.222 315.258C705.018 313.21 706 310.635 706 307.976C706 305.318 705.018 302.743 703.222 300.695C701.427 298.647 698.931 297.253 696.164 296.755C693.397 296.256 690.533 296.684 688.064 297.964C685.596 299.245 683.678 301.297 682.64 303.768H632.714V283.113H664.896C666.078 283.112 667.212 282.669 668.048 281.88C668.884 281.091 669.354 280.021 669.355 278.905V251.18H682.64C683.678 253.652 685.596 255.704 688.064 256.984C690.533 258.264 693.397 258.692 696.164 258.194C698.931 257.695 701.427 256.302 703.222 254.254C705.018 252.205 706 249.63 706 246.972C706 244.314 705.018 241.739 703.222 239.691C701.427 237.642 698.931 236.249 696.164 235.751C693.397 235.252 690.533 235.68 688.064 236.96C685.596 238.24 683.678 240.293 682.64 242.764H664.896C663.713 242.765 662.579 243.208 661.743 243.997C660.907 244.786 660.437 245.856 660.437 246.972V274.697H632.714V253.368C632.714 252.253 632.244 251.183 631.408 250.394C630.571 249.605 629.438 249.161 628.255 249.16H605.654V222.999H635.033C636.215 222.998 637.349 222.554 638.185 221.765C639.021 220.976 639.491 219.906 639.492 218.791V202.045C642.109 201.066 644.283 199.256 645.638 196.928C646.994 194.599 647.447 191.897 646.919 189.287C646.391 186.678 644.915 184.323 642.745 182.63C640.576 180.936 637.848 180.01 635.033 180.01C632.218 180.01 629.49 180.936 627.321 182.63C625.151 184.323 623.675 186.678 623.147 189.287C622.619 191.897 623.072 194.599 624.427 196.928C625.783 199.256 627.957 201.066 630.574 202.045V214.583H601.195C600.013 214.583 598.879 215.027 598.043 215.816C597.207 216.605 596.737 217.675 596.736 218.791V249.16H574.849V202.047C577.466 201.068 579.64 199.259 580.995 196.93C582.351 194.601 582.804 191.899 582.276 189.29C581.748 186.68 580.272 184.326 578.102 182.632C575.933 180.939 573.205 180.012 570.39 180.012C567.575 180.012 564.847 180.939 562.678 182.632C560.508 184.326 559.032 186.68 558.504 189.29C557.976 191.899 558.429 194.601 559.784 196.93C561.14 199.259 563.314 201.068 565.931 202.047V249.16H544.069V202.045C546.688 201.066 548.863 199.256 550.219 196.926C551.576 194.596 552.029 191.893 551.501 189.282C550.973 186.671 549.496 184.316 547.326 182.621C545.155 180.927 542.427 180 539.61 180C536.793 180 534.065 180.927 531.894 182.621C529.724 184.316 528.247 186.671 527.719 189.282C527.191 191.893 527.644 194.596 529.001 196.926C530.357 199.256 532.532 201.066 535.151 202.045V249.16H513.264V218.791C513.263 217.675 512.793 216.605 511.957 215.816C511.121 215.027 509.987 214.583 508.805 214.583H479.426V202.045C482.045 201.066 484.22 199.256 485.576 196.926C486.933 194.596 487.386 191.893 486.858 189.282C486.33 186.671 484.853 184.316 482.683 182.621C480.512 180.927 477.784 180 474.967 180C472.15 180 469.422 180.927 467.251 182.621C465.081 184.316 463.604 186.671 463.076 189.282C462.548 191.893 463.001 194.596 464.358 196.926C465.714 199.256 467.889 201.066 470.508 202.045V218.791C470.509 219.906 470.979 220.976 471.815 221.765C472.651 222.554 473.785 222.998 474.967 222.999H504.346V249.16H481.745C480.562 249.161 479.429 249.605 478.592 250.394C477.756 251.183 477.286 252.253 477.286 253.368V274.697H449.563V246.972C449.563 245.856 449.093 244.786 448.257 243.997C447.421 243.208 446.287 242.765 445.104 242.764H427.363C426.325 240.294 424.407 238.242 421.939 236.962C419.471 235.682 416.607 235.255 413.841 235.753C411.075 236.252 408.58 237.645 406.785 239.692C404.99 241.74 404.008 244.315 404.008 246.972C404.008 249.63 404.99 252.204 406.785 254.252C408.58 256.3 411.075 257.693 413.841 258.191C416.607 258.69 419.471 258.262 421.939 256.982C424.407 255.703 426.325 253.651 427.363 251.18H440.645V278.905C440.646 280.021 441.116 281.091 441.952 281.88C442.788 282.669 443.922 283.112 445.104 283.113H477.286V303.768H427.363C426.325 301.298 424.407 299.247 421.94 297.968C419.472 296.689 416.609 296.261 413.844 296.76C411.078 297.258 408.584 298.651 406.789 300.698C404.995 302.746 404.013 305.319 404.013 307.976C404.013 310.633 404.995 313.207 406.789 315.254C408.584 317.302 411.078 318.695 413.844 319.193C416.609 319.691 419.472 319.264 421.94 317.985C424.407 316.706 426.325 314.654 427.363 312.184H477.286V332.816H427.36C426.322 330.344 424.404 328.292 421.936 327.012C419.467 325.731 416.603 325.304 413.836 325.802C411.069 326.301 408.573 327.694 406.778 329.742C404.982 331.79 404 334.365 404 337.024C404 339.682 404.982 342.257 406.778 344.305C408.573 346.353 411.069 347.747 413.836 348.245C416.603 348.744 419.467 348.316 421.936 347.036C424.404 345.755 426.322 343.703 427.36 341.232H477.286V361.887H445.104C443.922 361.888 442.788 362.331 441.952 363.12C441.116 363.909 440.646 364.979 440.645 366.095V393.82H427.36C426.322 391.348 424.404 389.296 421.936 388.016C419.467 386.736 416.603 386.308 413.836 386.806C411.069 387.305 408.573 388.698 406.778 390.746C404.982 392.795 404 395.37 404 398.028C404 400.686 404.982 403.261 406.778 405.309C408.573 407.358 411.069 408.751 413.836 409.249C416.603 409.748 419.467 409.32 421.936 408.04C424.404 406.76 426.322 404.707 427.36 402.236H445.104C446.287 402.235 447.421 401.792 448.257 401.003C449.093 400.214 449.563 399.144 449.563 398.028V370.303H477.286V391.632C477.286 392.747 477.756 393.817 478.592 394.606C479.429 395.395 480.562 395.839 481.745 395.84H504.346V422.001H474.967C473.785 422.002 472.651 422.446 471.815 423.235C470.979 424.024 470.509 425.094 470.508 426.209V442.955C467.891 443.934 465.717 445.744 464.362 448.072C463.006 450.401 462.553 453.103 463.081 455.713C463.609 458.322 465.085 460.677 467.255 462.37C469.424 464.064 472.152 464.99 474.967 464.99C477.782 464.99 480.51 464.064 482.679 462.37C484.849 460.677 486.325 458.322 486.853 455.713C487.381 453.103 486.928 450.401 485.573 448.072C484.217 445.744 482.043 443.934 479.426 442.955V430.417H508.805C509.987 430.417 511.121 429.973 511.957 429.184C512.793 428.395 513.263 427.325 513.264 426.209V395.84H535.151V442.953C532.534 443.932 530.36 445.741 529.005 448.07C527.649 450.399 527.196 453.101 527.724 455.71C528.252 458.32 529.728 460.674 531.898 462.368C534.067 464.061 536.795 464.988 539.61 464.988C542.425 464.988 545.153 464.061 547.322 462.368C549.492 460.674 550.968 458.32 551.496 455.71C552.024 453.101 551.571 450.399 550.216 448.07C548.86 445.741 546.686 443.932 544.069 442.953V395.84H565.931V442.955C563.312 443.934 561.137 445.744 559.781 448.074C558.424 450.404 557.971 453.107 558.499 455.718C559.027 458.329 560.504 460.684 562.674 462.379C564.845 464.073 567.573 465 570.39 465C573.207 465 575.935 464.073 578.106 462.379C580.276 460.684 581.753 458.329 582.281 455.718C582.809 453.107 582.356 450.404 580.999 448.074C579.643 445.744 577.468 443.934 574.849 442.955V395.84H596.736V426.209C596.737 427.325 597.207 428.395 598.043 429.184C598.879 429.973 600.013 430.417 601.195 430.417H630.574V442.955C627.956 443.934 625.782 445.744 624.426 448.073C623.07 450.402 622.617 453.105 623.145 455.715C623.673 458.326 625.149 460.681 627.319 462.374C629.489 464.068 632.217 464.995 635.033 464.995C637.849 464.995 640.577 464.068 642.747 462.374C644.917 460.681 646.393 458.326 646.921 455.715C647.449 453.105 646.996 450.402 645.64 448.073C644.284 445.744 642.11 443.934 639.492 442.955V426.209C639.491 425.094 639.021 424.024 638.185 423.235C637.349 422.446 636.215 422.002 635.033 422.001H605.654V395.84H628.255C629.438 395.839 630.571 395.395 631.408 394.606C632.244 393.817 632.714 392.747 632.714 391.632V370.303H660.437V398.028C660.437 399.144 660.907 400.214 661.743 401.003C662.579 401.792 663.713 402.235 664.896 402.236H682.64C683.677 404.706 685.595 406.757 688.063 408.036C690.53 409.316 693.393 409.743 696.159 409.244C698.924 408.746 701.419 407.353 703.213 405.306C705.008 403.259 705.989 400.685 705.989 398.028C705.989 395.371 705.008 392.797 703.213 390.75C701.419 388.702 698.924 387.31 696.159 386.811C693.393 386.313 690.53 386.74 688.063 388.019C685.595 389.299 683.677 391.35 682.64 393.82H669.355V366.095C669.354 364.979 668.884 363.909 668.048 363.12C667.212 362.331 666.078 361.888 664.896 361.887H632.714V341.232H682.637C683.675 343.702 685.593 345.753 688.06 347.032C690.528 348.311 693.391 348.739 696.156 348.24C698.922 347.742 701.416 346.349 703.211 344.302C705.005 342.254 705.987 339.681 705.987 337.024C705.987 334.367 705.005 331.793 703.211 329.746C701.416 327.698 698.922 326.305 696.156 325.807C693.391 325.309 690.528 325.736 688.06 327.015C685.593 328.294 683.675 330.346 682.637 332.816H632.714V312.184ZM693.867 304.971C694.496 304.971 695.112 305.147 695.636 305.477C696.16 305.807 696.568 306.277 696.809 306.826C697.05 307.375 697.113 307.98 696.99 308.563C696.867 309.146 696.564 309.681 696.119 310.102C695.673 310.522 695.106 310.808 694.488 310.924C693.87 311.04 693.23 310.981 692.648 310.753C692.066 310.526 691.568 310.141 691.218 309.646C690.868 309.152 690.681 308.571 690.681 307.976C690.681 307.179 691.017 306.414 691.614 305.849C692.211 305.285 693.021 304.967 693.867 304.966V304.971ZM693.867 243.969C694.496 243.969 695.112 244.145 695.636 244.475C696.16 244.806 696.568 245.275 696.809 245.824C697.05 246.374 697.113 246.978 696.99 247.561C696.867 248.144 696.564 248.68 696.119 249.1C695.673 249.52 695.106 249.807 694.488 249.923C693.87 250.039 693.23 249.979 692.648 249.752C692.066 249.524 691.568 249.139 691.218 248.645C690.868 248.15 690.681 247.569 690.681 246.975C690.681 246.177 691.017 245.412 691.614 244.848C692.211 244.283 693.021 243.965 693.867 243.964V243.969ZM635.036 188.445C635.665 188.445 636.281 188.621 636.805 188.951C637.329 189.282 637.737 189.751 637.978 190.3C638.219 190.849 638.282 191.454 638.159 192.037C638.036 192.62 637.733 193.156 637.288 193.576C636.842 193.996 636.275 194.282 635.657 194.398C635.039 194.514 634.399 194.455 633.817 194.227C633.235 194 632.737 193.615 632.387 193.12C632.037 192.626 631.851 192.045 631.851 191.45C631.852 190.654 632.188 189.89 632.785 189.327C633.382 188.763 634.191 188.446 635.036 188.445ZM570.395 188.445C571.025 188.445 571.641 188.621 572.165 188.951C572.688 189.282 573.097 189.751 573.338 190.3C573.579 190.849 573.642 191.454 573.519 192.037C573.396 192.62 573.093 193.156 572.647 193.576C572.202 193.996 571.634 194.282 571.016 194.398C570.399 194.514 569.758 194.455 569.176 194.227C568.594 194 568.097 193.615 567.747 193.12C567.397 192.626 567.21 192.045 567.21 191.45C567.211 190.654 567.547 189.89 568.144 189.327C568.741 188.763 569.551 188.446 570.395 188.445ZM539.605 188.445C540.235 188.445 540.851 188.621 541.374 188.951C541.898 189.282 542.306 189.751 542.548 190.3C542.789 190.849 542.852 191.454 542.729 192.037C542.606 192.62 542.303 193.156 541.857 193.576C541.412 193.996 540.844 194.282 540.226 194.398C539.608 194.514 538.968 194.455 538.386 194.227C537.804 194 537.307 193.615 536.957 193.12C536.607 192.626 536.42 192.045 536.42 191.45C536.421 190.654 536.756 189.889 537.354 189.326C537.951 188.762 538.76 188.445 539.605 188.445ZM474.964 188.445C475.594 188.445 476.21 188.621 476.734 188.951C477.258 189.282 477.666 189.751 477.907 190.3C478.148 190.849 478.211 191.454 478.088 192.037C477.965 192.62 477.662 193.156 477.217 193.576C476.771 193.996 476.204 194.282 475.586 194.398C474.968 194.514 474.328 194.455 473.746 194.227C473.164 194 472.666 193.615 472.316 193.12C471.966 192.626 471.779 192.045 471.779 191.45C471.78 190.654 472.116 189.889 472.713 189.326C473.31 188.762 474.12 188.445 474.964 188.445ZM416.134 249.976C415.504 249.976 414.888 249.799 414.364 249.469C413.84 249.139 413.432 248.669 413.191 248.12C412.95 247.571 412.887 246.966 413.01 246.383C413.133 245.8 413.436 245.265 413.881 244.844C414.327 244.424 414.894 244.138 415.512 244.022C416.13 243.906 416.77 243.965 417.352 244.193C417.934 244.42 418.432 244.806 418.782 245.3C419.132 245.794 419.319 246.375 419.319 246.97C419.318 247.767 418.982 248.531 418.385 249.094C417.788 249.658 416.978 249.975 416.134 249.976ZM416.134 310.977C415.504 310.977 414.888 310.801 414.364 310.471C413.84 310.14 413.432 309.671 413.191 309.122C412.95 308.573 412.887 307.968 413.01 307.385C413.133 306.802 413.436 306.267 413.881 305.846C414.327 305.426 414.894 305.14 415.512 305.024C416.13 304.908 416.77 304.967 417.352 305.195C417.934 305.422 418.432 305.807 418.782 306.302C419.132 306.796 419.319 307.377 419.319 307.972C419.318 308.769 418.982 309.533 418.385 310.096C417.788 310.66 416.978 310.977 416.134 310.977ZM416.134 340.034C415.504 340.034 414.888 339.858 414.364 339.528C413.84 339.197 413.432 338.728 413.191 338.179C412.95 337.629 412.887 337.025 413.01 336.442C413.133 335.859 413.436 335.323 413.881 334.903C414.327 334.483 414.894 334.196 415.512 334.081C416.13 333.965 416.77 334.024 417.352 334.252C417.934 334.479 418.432 334.864 418.782 335.359C419.132 335.853 419.319 336.434 419.319 337.028C419.317 337.825 418.981 338.589 418.384 339.152C417.787 339.716 416.978 340.033 416.134 340.034ZM416.134 401.036C415.504 401.036 414.888 400.86 414.364 400.529C413.84 400.199 413.432 399.73 413.191 399.18C412.95 398.631 412.887 398.027 413.01 397.444C413.133 396.861 413.436 396.325 413.881 395.905C414.327 395.485 414.894 395.198 415.512 395.082C416.13 394.966 416.77 395.026 417.352 395.253C417.934 395.481 418.432 395.866 418.782 396.36C419.132 396.855 419.319 397.436 419.319 398.03C419.317 398.827 418.981 399.591 418.384 400.154C417.787 400.718 416.978 401.035 416.134 401.036ZM474.964 456.555C474.335 456.555 473.719 456.379 473.195 456.049C472.671 455.718 472.263 455.249 472.022 454.7C471.781 454.151 471.718 453.546 471.841 452.963C471.964 452.38 472.267 451.845 472.712 451.424C473.158 451.004 473.725 450.718 474.343 450.602C474.961 450.486 475.601 450.545 476.183 450.773C476.765 451 477.263 451.385 477.613 451.88C477.963 452.374 478.149 452.955 478.149 453.55C478.148 454.346 477.812 455.11 477.215 455.673C476.618 456.237 475.809 456.554 474.964 456.555ZM539.605 456.555C538.975 456.555 538.359 456.379 537.835 456.049C537.312 455.718 536.903 455.249 536.662 454.7C536.421 454.151 536.358 453.546 536.481 452.963C536.604 452.38 536.907 451.845 537.353 451.424C537.798 451.004 538.366 450.718 538.984 450.602C539.601 450.486 540.242 450.545 540.824 450.773C541.406 451 541.903 451.385 542.253 451.88C542.603 452.374 542.79 452.955 542.79 453.55C542.789 454.346 542.453 455.11 541.856 455.673C541.259 456.237 540.449 456.554 539.605 456.555ZM570.395 456.555C569.765 456.555 569.149 456.379 568.626 456.049C568.102 455.718 567.694 455.249 567.453 454.7C567.211 454.151 567.148 453.546 567.271 452.963C567.394 452.38 567.697 451.845 568.143 451.424C568.588 451.004 569.156 450.718 569.774 450.602C570.392 450.486 571.032 450.545 571.614 450.773C572.196 451 572.693 451.385 573.043 451.88C573.393 452.374 573.58 452.955 573.58 453.55C573.579 454.347 573.244 455.111 572.646 455.674C572.049 456.238 571.24 456.555 570.395 456.555ZM635.036 456.555C634.406 456.555 633.79 456.379 633.266 456.049C632.742 455.718 632.334 455.249 632.093 454.7C631.852 454.151 631.789 453.546 631.912 452.963C632.035 452.38 632.338 451.845 632.783 451.424C633.229 451.004 633.796 450.718 634.414 450.602C635.032 450.486 635.672 450.545 636.254 450.773C636.836 451 637.334 451.385 637.684 451.88C638.034 452.374 638.221 452.955 638.221 453.55C638.22 454.347 637.884 455.111 637.287 455.674C636.69 456.238 635.88 456.555 635.036 456.555ZM693.867 395.025C694.496 395.025 695.112 395.201 695.636 395.531C696.16 395.861 696.568 396.331 696.809 396.88C697.05 397.429 697.113 398.034 696.99 398.617C696.867 399.2 696.564 399.735 696.119 400.156C695.673 400.576 695.106 400.862 694.488 400.978C693.87 401.094 693.23 401.035 692.648 400.807C692.066 400.58 691.568 400.194 691.218 399.7C690.868 399.206 690.681 398.625 690.681 398.03C690.682 397.233 691.018 396.469 691.615 395.906C692.212 395.342 693.022 395.025 693.867 395.025ZM693.867 334.023C694.496 334.023 695.112 334.199 695.636 334.529C696.16 334.86 696.568 335.329 696.809 335.878C697.05 336.427 697.113 337.032 696.99 337.615C696.867 338.198 696.564 338.733 696.119 339.154C695.673 339.574 695.106 339.86 694.488 339.976C693.87 340.092 693.23 340.033 692.648 339.805C692.066 339.578 691.568 339.193 691.218 338.698C690.868 338.204 690.681 337.623 690.681 337.028C690.682 336.232 691.018 335.467 691.615 334.904C692.212 334.34 693.022 334.023 693.867 334.023ZM623.796 387.424H486.204V257.576H623.796V387.424Z"/>
</mask>
<path d="M632.714 312.184H682.64C683.678 314.656 685.596 316.708 688.064 317.988C690.533 319.269 693.397 319.696 696.164 319.198C698.931 318.699 701.427 317.306 703.222 315.258C705.018 313.21 706 310.635 706 307.976C706 305.318 705.018 302.743 703.222 300.695C701.427 298.647 698.931 297.253 696.164 296.755C693.397 296.256 690.533 296.684 688.064 297.964C685.596 299.245 683.678 301.297 682.64 303.768H632.714V283.113H664.896C666.078 283.112 667.212 282.669 668.048 281.88C668.884 281.091 669.354 280.021 669.355 278.905V251.18H682.64C683.678 253.652 685.596 255.704 688.064 256.984C690.533 258.264 693.397 258.692 696.164 258.194C698.931 257.695 701.427 256.302 703.222 254.254C705.018 252.205 706 249.63 706 246.972C706 244.314 705.018 241.739 703.222 239.691C701.427 237.642 698.931 236.249 696.164 235.751C693.397 235.252 690.533 235.68 688.064 236.96C685.596 238.24 683.678 240.293 682.64 242.764H664.896C663.713 242.765 662.579 243.208 661.743 243.997C660.907 244.786 660.437 245.856 660.437 246.972V274.697H632.714V253.368C632.714 252.253 632.244 251.183 631.408 250.394C630.571 249.605 629.438 249.161 628.255 249.16H605.654V222.999H635.033C636.215 222.998 637.349 222.554 638.185 221.765C639.021 220.976 639.491 219.906 639.492 218.791V202.045C642.109 201.066 644.283 199.256 645.638 196.928C646.994 194.599 647.447 191.897 646.919 189.287C646.391 186.678 644.915 184.323 642.745 182.63C640.576 180.936 637.848 180.01 635.033 180.01C632.218 180.01 629.49 180.936 627.321 182.63C625.151 184.323 623.675 186.678 623.147 189.287C622.619 191.897 623.072 194.599 624.427 196.928C625.783 199.256 627.957 201.066 630.574 202.045V214.583H601.195C600.013 214.583 598.879 215.027 598.043 215.816C597.207 216.605 596.737 217.675 596.736 218.791V249.16H574.849V202.047C577.466 201.068 579.64 199.259 580.995 196.93C582.351 194.601 582.804 191.899 582.276 189.29C581.748 186.68 580.272 184.326 578.102 182.632C575.933 180.939 573.205 180.012 570.39 180.012C567.575 180.012 564.847 180.939 562.678 182.632C560.508 184.326 559.032 186.68 558.504 189.29C557.976 191.899 558.429 194.601 559.784 196.93C561.14 199.259 563.314 201.068 565.931 202.047V249.16H544.069V202.045C546.688 201.066 548.863 199.256 550.219 196.926C551.576 194.596 552.029 191.893 551.501 189.282C550.973 186.671 549.496 184.316 547.326 182.621C545.155 180.927 542.427 180 539.61 180C536.793 180 534.065 180.927 531.894 182.621C529.724 184.316 528.247 186.671 527.719 189.282C527.191 191.893 527.644 194.596 529.001 196.926C530.357 199.256 532.532 201.066 535.151 202.045V249.16H513.264V218.791C513.263 217.675 512.793 216.605 511.957 215.816C511.121 215.027 509.987 214.583 508.805 214.583H479.426V202.045C482.045 201.066 484.22 199.256 485.576 196.926C486.933 194.596 487.386 191.893 486.858 189.282C486.33 186.671 484.853 184.316 482.683 182.621C480.512 180.927 477.784 180 474.967 180C472.15 180 469.422 180.927 467.251 182.621C465.081 184.316 463.604 186.671 463.076 189.282C462.548 191.893 463.001 194.596 464.358 196.926C465.714 199.256 467.889 201.066 470.508 202.045V218.791C470.509 219.906 470.979 220.976 471.815 221.765C472.651 222.554 473.785 222.998 474.967 222.999H504.346V249.16H481.745C480.562 249.161 479.429 249.605 478.592 250.394C477.756 251.183 477.286 252.253 477.286 253.368V274.697H449.563V246.972C449.563 245.856 449.093 244.786 448.257 243.997C447.421 243.208 446.287 242.765 445.104 242.764H427.363C426.325 240.294 424.407 238.242 421.939 236.962C419.471 235.682 416.607 235.255 413.841 235.753C411.075 236.252 408.58 237.645 406.785 239.692C404.99 241.74 404.008 244.315 404.008 246.972C404.008 249.63 404.99 252.204 406.785 254.252C408.58 256.3 411.075 257.693 413.841 258.191C416.607 258.69 419.471 258.262 421.939 256.982C424.407 255.703 426.325 253.651 427.363 251.18H440.645V278.905C440.646 280.021 441.116 281.091 441.952 281.88C442.788 282.669 443.922 283.112 445.104 283.113H477.286V303.768H427.363C426.325 301.298 424.407 299.247 421.94 297.968C419.472 296.689 416.609 296.261 413.844 296.76C411.078 297.258 408.584 298.651 406.789 300.698C404.995 302.746 404.013 305.319 404.013 307.976C404.013 310.633 404.995 313.207 406.789 315.254C408.584 317.302 411.078 318.695 413.844 319.193C416.609 319.691 419.472 319.264 421.94 317.985C424.407 316.706 426.325 314.654 427.363 312.184H477.286V332.816H427.36C426.322 330.344 424.404 328.292 421.936 327.012C419.467 325.731 416.603 325.304 413.836 325.802C411.069 326.301 408.573 327.694 406.778 329.742C404.982 331.79 404 334.365 404 337.024C404 339.682 404.982 342.257 406.778 344.305C408.573 346.353 411.069 347.747 413.836 348.245C416.603 348.744 419.467 348.316 421.936 347.036C424.404 345.755 426.322 343.703 427.36 341.232H477.286V361.887H445.104C443.922 361.888 442.788 362.331 441.952 363.12C441.116 363.909 440.646 364.979 440.645 366.095V393.82H427.36C426.322 391.348 424.404 389.296 421.936 388.016C419.467 386.736 416.603 386.308 413.836 386.806C411.069 387.305 408.573 388.698 406.778 390.746C404.982 392.795 404 395.37 404 398.028C404 400.686 404.982 403.261 406.778 405.309C408.573 407.358 411.069 408.751 413.836 409.249C416.603 409.748 419.467 409.32 421.936 408.04C424.404 406.76 426.322 404.707 427.36 402.236H445.104C446.287 402.235 447.421 401.792 448.257 401.003C449.093 400.214 449.563 399.144 449.563 398.028V370.303H477.286V391.632C477.286 392.747 477.756 393.817 478.592 394.606C479.429 395.395 480.562 395.839 481.745 395.84H504.346V422.001H474.967C473.785 422.002 472.651 422.446 471.815 423.235C470.979 424.024 470.509 425.094 470.508 426.209V442.955C467.891 443.934 465.717 445.744 464.362 448.072C463.006 450.401 462.553 453.103 463.081 455.713C463.609 458.322 465.085 460.677 467.255 462.37C469.424 464.064 472.152 464.99 474.967 464.99C477.782 464.99 480.51 464.064 482.679 462.37C484.849 460.677 486.325 458.322 486.853 455.713C487.381 453.103 486.928 450.401 485.573 448.072C484.217 445.744 482.043 443.934 479.426 442.955V430.417H508.805C509.987 430.417 511.121 429.973 511.957 429.184C512.793 428.395 513.263 427.325 513.264 426.209V395.84H535.151V442.953C532.534 443.932 530.36 445.741 529.005 448.07C527.649 450.399 527.196 453.101 527.724 455.71C528.252 458.32 529.728 460.674 531.898 462.368C534.067 464.061 536.795 464.988 539.61 464.988C542.425 464.988 545.153 464.061 547.322 462.368C549.492 460.674 550.968 458.32 551.496 455.71C552.024 453.101 551.571 450.399 550.216 448.07C548.86 445.741 546.686 443.932 544.069 442.953V395.84H565.931V442.955C563.312 443.934 561.137 445.744 559.781 448.074C558.424 450.404 557.971 453.107 558.499 455.718C559.027 458.329 560.504 460.684 562.674 462.379C564.845 464.073 567.573 465 570.39 465C573.207 465 575.935 464.073 578.106 462.379C580.276 460.684 581.753 458.329 582.281 455.718C582.809 453.107 582.356 450.404 580.999 448.074C579.643 445.744 577.468 443.934 574.849 442.955V395.84H596.736V426.209C596.737 427.325 597.207 428.395 598.043 429.184C598.879 429.973 600.013 430.417 601.195 430.417H630.574V442.955C627.956 443.934 625.782 445.744 624.426 448.073C623.07 450.402 622.617 453.105 623.145 455.715C623.673 458.326 625.149 460.681 627.319 462.374C629.489 464.068 632.217 464.995 635.033 464.995C637.849 464.995 640.577 464.068 642.747 462.374C644.917 460.681 646.393 458.326 646.921 455.715C647.449 453.105 646.996 450.402 645.64 448.073C644.284 445.744 642.11 443.934 639.492 442.955V426.209C639.491 425.094 639.021 424.024 638.185 423.235C637.349 422.446 636.215 422.002 635.033 422.001H605.654V395.84H628.255C629.438 395.839 630.571 395.395 631.408 394.606C632.244 393.817 632.714 392.747 632.714 391.632V370.303H660.437V398.028C660.437 399.144 660.907 400.214 661.743 401.003C662.579 401.792 663.713 402.235 664.896 402.236H682.64C683.677 404.706 685.595 406.757 688.063 408.036C690.53 409.316 693.393 409.743 696.159 409.244C698.924 408.746 701.419 407.353 703.213 405.306C705.008 403.259 705.989 400.685 705.989 398.028C705.989 395.371 705.008 392.797 703.213 390.75C701.419 388.702 698.924 387.31 696.159 386.811C693.393 386.313 690.53 386.74 688.063 388.019C685.595 389.299 683.677 391.35 682.64 393.82H669.355V366.095C669.354 364.979 668.884 363.909 668.048 363.12C667.212 362.331 666.078 361.888 664.896 361.887H632.714V341.232H682.637C683.675 343.702 685.593 345.753 688.06 347.032C690.528 348.311 693.391 348.739 696.156 348.24C698.922 347.742 701.416 346.349 703.211 344.302C705.005 342.254 705.987 339.681 705.987 337.024C705.987 334.367 705.005 331.793 703.211 329.746C701.416 327.698 698.922 326.305 696.156 325.807C693.391 325.309 690.528 325.736 688.06 327.015C685.593 328.294 683.675 330.346 682.637 332.816H632.714V312.184ZM693.867 304.971C694.496 304.971 695.112 305.147 695.636 305.477C696.16 305.807 696.568 306.277 696.809 306.826C697.05 307.375 697.113 307.98 696.99 308.563C696.867 309.146 696.564 309.681 696.119 310.102C695.673 310.522 695.106 310.808 694.488 310.924C693.87 311.04 693.23 310.981 692.648 310.753C692.066 310.526 691.568 310.141 691.218 309.646C690.868 309.152 690.681 308.571 690.681 307.976C690.681 307.179 691.017 306.414 691.614 305.849C692.211 305.285 693.021 304.967 693.867 304.966V304.971ZM693.867 243.969C694.496 243.969 695.112 244.145 695.636 244.475C696.16 244.806 696.568 245.275 696.809 245.824C697.05 246.374 697.113 246.978 696.99 247.561C696.867 248.144 696.564 248.68 696.119 249.1C695.673 249.52 695.106 249.807 694.488 249.923C693.87 250.039 693.23 249.979 692.648 249.752C692.066 249.524 691.568 249.139 691.218 248.645C690.868 248.15 690.681 247.569 690.681 246.975C690.681 246.177 691.017 245.412 691.614 244.848C692.211 244.283 693.021 243.965 693.867 243.964V243.969ZM635.036 188.445C635.665 188.445 636.281 188.621 636.805 188.951C637.329 189.282 637.737 189.751 637.978 190.3C638.219 190.849 638.282 191.454 638.159 192.037C638.036 192.62 637.733 193.156 637.288 193.576C636.842 193.996 636.275 194.282 635.657 194.398C635.039 194.514 634.399 194.455 633.817 194.227C633.235 194 632.737 193.615 632.387 193.12C632.037 192.626 631.851 192.045 631.851 191.45C631.852 190.654 632.188 189.89 632.785 189.327C633.382 188.763 634.191 188.446 635.036 188.445ZM570.395 188.445C571.025 188.445 571.641 188.621 572.165 188.951C572.688 189.282 573.097 189.751 573.338 190.3C573.579 190.849 573.642 191.454 573.519 192.037C573.396 192.62 573.093 193.156 572.647 193.576C572.202 193.996 571.634 194.282 571.016 194.398C570.399 194.514 569.758 194.455 569.176 194.227C568.594 194 568.097 193.615 567.747 193.12C567.397 192.626 567.21 192.045 567.21 191.45C567.211 190.654 567.547 189.89 568.144 189.327C568.741 188.763 569.551 188.446 570.395 188.445ZM539.605 188.445C540.235 188.445 540.851 188.621 541.374 188.951C541.898 189.282 542.306 189.751 542.548 190.3C542.789 190.849 542.852 191.454 542.729 192.037C542.606 192.62 542.303 193.156 541.857 193.576C541.412 193.996 540.844 194.282 540.226 194.398C539.608 194.514 538.968 194.455 538.386 194.227C537.804 194 537.307 193.615 536.957 193.12C536.607 192.626 536.42 192.045 536.42 191.45C536.421 190.654 536.756 189.889 537.354 189.326C537.951 188.762 538.76 188.445 539.605 188.445ZM474.964 188.445C475.594 188.445 476.21 188.621 476.734 188.951C477.258 189.282 477.666 189.751 477.907 190.3C478.148 190.849 478.211 191.454 478.088 192.037C477.965 192.62 477.662 193.156 477.217 193.576C476.771 193.996 476.204 194.282 475.586 194.398C474.968 194.514 474.328 194.455 473.746 194.227C473.164 194 472.666 193.615 472.316 193.12C471.966 192.626 471.779 192.045 471.779 191.45C471.78 190.654 472.116 189.889 472.713 189.326C473.31 188.762 474.12 188.445 474.964 188.445ZM416.134 249.976C415.504 249.976 414.888 249.799 414.364 249.469C413.84 249.139 413.432 248.669 413.191 248.12C412.95 247.571 412.887 246.966 413.01 246.383C413.133 245.8 413.436 245.265 413.881 244.844C414.327 244.424 414.894 244.138 415.512 244.022C416.13 243.906 416.77 243.965 417.352 244.193C417.934 244.42 418.432 244.806 418.782 245.3C419.132 245.794 419.319 246.375 419.319 246.97C419.318 247.767 418.982 248.531 418.385 249.094C417.788 249.658 416.978 249.975 416.134 249.976ZM416.134 310.977C415.504 310.977 414.888 310.801 414.364 310.471C413.84 310.14 413.432 309.671 413.191 309.122C412.95 308.573 412.887 307.968 413.01 307.385C413.133 306.802 413.436 306.267 413.881 305.846C414.327 305.426 414.894 305.14 415.512 305.024C416.13 304.908 416.77 304.967 417.352 305.195C417.934 305.422 418.432 305.807 418.782 306.302C419.132 306.796 419.319 307.377 419.319 307.972C419.318 308.769 418.982 309.533 418.385 310.096C417.788 310.66 416.978 310.977 416.134 310.977ZM416.134 340.034C415.504 340.034 414.888 339.858 414.364 339.528C413.84 339.197 413.432 338.728 413.191 338.179C412.95 337.629 412.887 337.025 413.01 336.442C413.133 335.859 413.436 335.323 413.881 334.903C414.327 334.483 414.894 334.196 415.512 334.081C416.13 333.965 416.77 334.024 417.352 334.252C417.934 334.479 418.432 334.864 418.782 335.359C419.132 335.853 419.319 336.434 419.319 337.028C419.317 337.825 418.981 338.589 418.384 339.152C417.787 339.716 416.978 340.033 416.134 340.034ZM416.134 401.036C415.504 401.036 414.888 400.86 414.364 400.529C413.84 400.199 413.432 399.73 413.191 399.18C412.95 398.631 412.887 398.027 413.01 397.444C413.133 396.861 413.436 396.325 413.881 395.905C414.327 395.485 414.894 395.198 415.512 395.082C416.13 394.966 416.77 395.026 417.352 395.253C417.934 395.481 418.432 395.866 418.782 396.36C419.132 396.855 419.319 397.436 419.319 398.03C419.317 398.827 418.981 399.591 418.384 400.154C417.787 400.718 416.978 401.035 416.134 401.036ZM474.964 456.555C474.335 456.555 473.719 456.379 473.195 456.049C472.671 455.718 472.263 455.249 472.022 454.7C471.781 454.151 471.718 453.546 471.841 452.963C471.964 452.38 472.267 451.845 472.712 451.424C473.158 451.004 473.725 450.718 474.343 450.602C474.961 450.486 475.601 450.545 476.183 450.773C476.765 451 477.263 451.385 477.613 451.88C477.963 452.374 478.149 452.955 478.149 453.55C478.148 454.346 477.812 455.11 477.215 455.673C476.618 456.237 475.809 456.554 474.964 456.555ZM539.605 456.555C538.975 456.555 538.359 456.379 537.835 456.049C537.312 455.718 536.903 455.249 536.662 454.7C536.421 454.151 536.358 453.546 536.481 452.963C536.604 452.38 536.907 451.845 537.353 451.424C537.798 451.004 538.366 450.718 538.984 450.602C539.601 450.486 540.242 450.545 540.824 450.773C541.406 451 541.903 451.385 542.253 451.88C542.603 452.374 542.79 452.955 542.79 453.55C542.789 454.346 542.453 455.11 541.856 455.673C541.259 456.237 540.449 456.554 539.605 456.555ZM570.395 456.555C569.765 456.555 569.149 456.379 568.626 456.049C568.102 455.718 567.694 455.249 567.453 454.7C567.211 454.151 567.148 453.546 567.271 452.963C567.394 452.38 567.697 451.845 568.143 451.424C568.588 451.004 569.156 450.718 569.774 450.602C570.392 450.486 571.032 450.545 571.614 450.773C572.196 451 572.693 451.385 573.043 451.88C573.393 452.374 573.58 452.955 573.58 453.55C573.579 454.347 573.244 455.111 572.646 455.674C572.049 456.238 571.24 456.555 570.395 456.555ZM635.036 456.555C634.406 456.555 633.79 456.379 633.266 456.049C632.742 455.718 632.334 455.249 632.093 454.7C631.852 454.151 631.789 453.546 631.912 452.963C632.035 452.38 632.338 451.845 632.783 451.424C633.229 451.004 633.796 450.718 634.414 450.602C635.032 450.486 635.672 450.545 636.254 450.773C636.836 451 637.334 451.385 637.684 451.88C638.034 452.374 638.221 452.955 638.221 453.55C638.22 454.347 637.884 455.111 637.287 455.674C636.69 456.238 635.88 456.555 635.036 456.555ZM693.867 395.025C694.496 395.025 695.112 395.201 695.636 395.531C696.16 395.861 696.568 396.331 696.809 396.88C697.05 397.429 697.113 398.034 696.99 398.617C696.867 399.2 696.564 399.735 696.119 400.156C695.673 400.576 695.106 400.862 694.488 400.978C693.87 401.094 693.23 401.035 692.648 400.807C692.066 400.58 691.568 400.194 691.218 399.7C690.868 399.206 690.681 398.625 690.681 398.03C690.682 397.233 691.018 396.469 691.615 395.906C692.212 395.342 693.022 395.025 693.867 395.025ZM693.867 334.023C694.496 334.023 695.112 334.199 695.636 334.529C696.16 334.86 696.568 335.329 696.809 335.878C697.05 336.427 697.113 337.032 696.99 337.615C696.867 338.198 696.564 338.733 696.119 339.154C695.673 339.574 695.106 339.86 694.488 339.976C693.87 340.092 693.23 340.033 692.648 339.805C692.066 339.578 691.568 339.193 691.218 338.698C690.868 338.204 690.681 337.623 690.681 337.028C690.682 336.232 691.018 335.467 691.615 334.904C692.212 334.34 693.022 334.023 693.867 334.023ZM623.796 387.424H486.204V257.576H623.796V387.424Z" fill="#24292E"/>
<path d="M632.714 312.184H682.64C683.678 314.656 685.596 316.708 688.064 317.988C690.533 319.269 693.397 319.696 696.164 319.198C698.931 318.699 701.427 317.306 703.222 315.258C705.018 313.21 706 310.635 706 307.976C706 305.318 705.018 302.743 703.222 300.695C701.427 298.647 698.931 297.253 696.164 296.755C693.397 296.256 690.533 296.684 688.064 297.964C685.596 299.245 683.678 301.297 682.64 303.768H632.714V283.113H664.896C666.078 283.112 667.212 282.669 668.048 281.88C668.884 281.091 669.354 280.021 669.355 278.905V251.18H682.64C683.678 253.652 685.596 255.704 688.064 256.984C690.533 258.264 693.397 258.692 696.164 258.194C698.931 257.695 701.427 256.302 703.222 254.254C705.018 252.205 706 249.63 706 246.972C706 244.314 705.018 241.739 703.222 239.691C701.427 237.642 698.931 236.249 696.164 235.751C693.397 235.252 690.533 235.68 688.064 236.96C685.596 238.24 683.678 240.293 682.64 242.764H664.896C663.713 242.765 662.579 243.208 661.743 243.997C660.907 244.786 660.437 245.856 660.437 246.972V274.697H632.714V253.368C632.714 252.253 632.244 251.183 631.408 250.394C630.571 249.605 629.438 249.161 628.255 249.16H605.654V222.999H635.033C636.215 222.998 637.349 222.554 638.185 221.765C639.021 220.976 639.491 219.906 639.492 218.791V202.045C642.109 201.066 644.283 199.256 645.638 196.928C646.994 194.599 647.447 191.897 646.919 189.287C646.391 186.678 644.915 184.323 642.745 182.63C640.576 180.936 637.848 180.01 635.033 180.01C632.218 180.01 629.49 180.936 627.321 182.63C625.151 184.323 623.675 186.678 623.147 189.287C622.619 191.897 623.072 194.599 624.427 196.928C625.783 199.256 627.957 201.066 630.574 202.045V214.583H601.195C600.013 214.583 598.879 215.027 598.043 215.816C597.207 216.605 596.737 217.675 596.736 218.791V249.16H574.849V202.047C577.466 201.068 579.64 199.259 580.995 196.93C582.351 194.601 582.804 191.899 582.276 189.29C581.748 186.68 580.272 184.326 578.102 182.632C575.933 180.939 573.205 180.012 570.39 180.012C567.575 180.012 564.847 180.939 562.678 182.632C560.508 184.326 559.032 186.68 558.504 189.29C557.976 191.899 558.429 194.601 559.784 196.93C561.14 199.259 563.314 201.068 565.931 202.047V249.16H544.069V202.045C546.688 201.066 548.863 199.256 550.219 196.926C551.576 194.596 552.029 191.893 551.501 189.282C550.973 186.671 549.496 184.316 547.326 182.621C545.155 180.927 542.427 180 539.61 180C536.793 180 534.065 180.927 531.894 182.621C529.724 184.316 528.247 186.671 527.719 189.282C527.191 191.893 527.644 194.596 529.001 196.926C530.357 199.256 532.532 201.066 535.151 202.045V249.16H513.264V218.791C513.263 217.675 512.793 216.605 511.957 215.816C511.121 215.027 509.987 214.583 508.805 214.583H479.426V202.045C482.045 201.066 484.22 199.256 485.576 196.926C486.933 194.596 487.386 191.893 486.858 189.282C486.33 186.671 484.853 184.316 482.683 182.621C480.512 180.927 477.784 180 474.967 180C472.15 180 469.422 180.927 467.251 182.621C465.081 184.316 463.604 186.671 463.076 189.282C462.548 191.893 463.001 194.596 464.358 196.926C465.714 199.256 467.889 201.066 470.508 202.045V218.791C470.509 219.906 470.979 220.976 471.815 221.765C472.651 222.554 473.785 222.998 474.967 222.999H504.346V249.16H481.745C480.562 249.161 479.429 249.605 478.592 250.394C477.756 251.183 477.286 252.253 477.286 253.368V274.697H449.563V246.972C449.563 245.856 449.093 244.786 448.257 243.997C447.421 243.208 446.287 242.765 445.104 242.764H427.363C426.325 240.294 424.407 238.242 421.939 236.962C419.471 235.682 416.607 235.255 413.841 235.753C411.075 236.252 408.58 237.645 406.785 239.692C404.99 241.74 404.008 244.315 404.008 246.972C404.008 249.63 404.99 252.204 406.785 254.252C408.58 256.3 411.075 257.693 413.841 258.191C416.607 258.69 419.471 258.262 421.939 256.982C424.407 255.703 426.325 253.651 427.363 251.18H440.645V278.905C440.646 280.021 441.116 281.091 441.952 281.88C442.788 282.669 443.922 283.112 445.104 283.113H477.286V303.768H427.363C426.325 301.298 424.407 299.247 421.94 297.968C419.472 296.689 416.609 296.261 413.844 296.76C411.078 297.258 408.584 298.651 406.789 300.698C404.995 302.746 404.013 305.319 404.013 307.976C404.013 310.633 404.995 313.207 406.789 315.254C408.584 317.302 411.078 318.695 413.844 319.193C416.609 319.691 419.472 319.264 421.94 317.985C424.407 316.706 426.325 314.654 427.363 312.184H477.286V332.816H427.36C426.322 330.344 424.404 328.292 421.936 327.012C419.467 325.731 416.603 325.304 413.836 325.802C411.069 326.301 408.573 327.694 406.778 329.742C404.982 331.79 404 334.365 404 337.024C404 339.682 404.982 342.257 406.778 344.305C408.573 346.353 411.069 347.747 413.836 348.245C416.603 348.744 419.467 348.316 421.936 347.036C424.404 345.755 426.322 343.703 427.36 341.232H477.286V361.887H445.104C443.922 361.888 442.788 362.331 441.952 363.12C441.116 363.909 440.646 364.979 440.645 366.095V393.82H427.36C426.322 391.348 424.404 389.296 421.936 388.016C419.467 386.736 416.603 386.308 413.836 386.806C411.069 387.305 408.573 388.698 406.778 390.746C404.982 392.795 404 395.37 404 398.028C404 400.686 404.982 403.261 406.778 405.309C408.573 407.358 411.069 408.751 413.836 409.249C416.603 409.748 419.467 409.32 421.936 408.04C424.404 406.76 426.322 404.707 427.36 402.236H445.104C446.287 402.235 447.421 401.792 448.257 401.003C449.093 400.214 449.563 399.144 449.563 398.028V370.303H477.286V391.632C477.286 392.747 477.756 393.817 478.592 394.606C479.429 395.395 480.562 395.839 481.745 395.84H504.346V422.001H474.967C473.785 422.002 472.651 422.446 471.815 423.235C470.979 424.024 470.509 425.094 470.508 426.209V442.955C467.891 443.934 465.717 445.744 464.362 448.072C463.006 450.401 462.553 453.103 463.081 455.713C463.609 458.322 465.085 460.677 467.255 462.37C469.424 464.064 472.152 464.99 474.967 464.99C477.782 464.99 480.51 464.064 482.679 462.37C484.849 460.677 486.325 458.322 486.853 455.713C487.381 453.103 486.928 450.401 485.573 448.072C484.217 445.744 482.043 443.934 479.426 442.955V430.417H508.805C509.987 430.417 511.121 429.973 511.957 429.184C512.793 428.395 513.263 427.325 513.264 426.209V395.84H535.151V442.953C532.534 443.932 530.36 445.741 529.005 448.07C527.649 450.399 527.196 453.101 527.724 455.71C528.252 458.32 529.728 460.674 531.898 462.368C534.067 464.061 536.795 464.988 539.61 464.988C542.425 464.988 545.153 464.061 547.322 462.368C549.492 460.674 550.968 458.32 551.496 455.71C552.024 453.101 551.571 450.399 550.216 448.07C548.86 445.741 546.686 443.932 544.069 442.953V395.84H565.931V442.955C563.312 443.934 561.137 445.744 559.781 448.074C558.424 450.404 557.971 453.107 558.499 455.718C559.027 458.329 560.504 460.684 562.674 462.379C564.845 464.073 567.573 465 570.39 465C573.207 465 575.935 464.073 578.106 462.379C580.276 460.684 581.753 458.329 582.281 455.718C582.809 453.107 582.356 450.404 580.999 448.074C579.643 445.744 577.468 443.934 574.849 442.955V395.84H596.736V426.209C596.737 427.325 597.207 428.395 598.043 429.184C598.879 429.973 600.013 430.417 601.195 430.417H630.574V442.955C627.956 443.934 625.782 445.744 624.426 448.073C623.07 450.402 622.617 453.105 623.145 455.715C623.673 458.326 625.149 460.681 627.319 462.374C629.489 464.068 632.217 464.995 635.033 464.995C637.849 464.995 640.577 464.068 642.747 462.374C644.917 460.681 646.393 458.326 646.921 455.715C647.449 453.105 646.996 450.402 645.64 448.073C644.284 445.744 642.11 443.934 639.492 442.955V426.209C639.491 425.094 639.021 424.024 638.185 423.235C637.349 422.446 636.215 422.002 635.033 422.001H605.654V395.84H628.255C629.438 395.839 630.571 395.395 631.408 394.606C632.244 393.817 632.714 392.747 632.714 391.632V370.303H660.437V398.028C660.437 399.144 660.907 400.214 661.743 401.003C662.579 401.792 663.713 402.235 664.896 402.236H682.64C683.677 404.706 685.595 406.757 688.063 408.036C690.53 409.316 693.393 409.743 696.159 409.244C698.924 408.746 701.419 407.353 703.213 405.306C705.008 403.259 705.989 400.685 705.989 398.028C705.989 395.371 705.008 392.797 703.213 390.75C701.419 388.702 698.924 387.31 696.159 386.811C693.393 386.313 690.53 386.74 688.063 388.019C685.595 389.299 683.677 391.35 682.64 393.82H669.355V366.095C669.354 364.979 668.884 363.909 668.048 363.12C667.212 362.331 666.078 361.888 664.896 361.887H632.714V341.232H682.637C683.675 343.702 685.593 345.753 688.06 347.032C690.528 348.311 693.391 348.739 696.156 348.24C698.922 347.742 701.416 346.349 703.211 344.302C705.005 342.254 705.987 339.681 705.987 337.024C705.987 334.367 705.005 331.793 703.211 329.746C701.416 327.698 698.922 326.305 696.156 325.807C693.391 325.309 690.528 325.736 688.06 327.015C685.593 328.294 683.675 330.346 682.637 332.816H632.714V312.184ZM693.867 304.971C694.496 304.971 695.112 305.147 695.636 305.477C696.16 305.807 696.568 306.277 696.809 306.826C697.05 307.375 697.113 307.98 696.99 308.563C696.867 309.146 696.564 309.681 696.119 310.102C695.673 310.522 695.106 310.808 694.488 310.924C693.87 311.04 693.23 310.981 692.648 310.753C692.066 310.526 691.568 310.141 691.218 309.646C690.868 309.152 690.681 308.571 690.681 307.976C690.681 307.179 691.017 306.414 691.614 305.849C692.211 305.285 693.021 304.967 693.867 304.966V304.971ZM693.867 243.969C694.496 243.969 695.112 244.145 695.636 244.475C696.16 244.806 696.568 245.275 696.809 245.824C697.05 246.374 697.113 246.978 696.99 247.561C696.867 248.144 696.564 248.68 696.119 249.1C695.673 249.52 695.106 249.807 694.488 249.923C693.87 250.039 693.23 249.979 692.648 249.752C692.066 249.524 691.568 249.139 691.218 248.645C690.868 248.15 690.681 247.569 690.681 246.975C690.681 246.177 691.017 245.412 691.614 244.848C692.211 244.283 693.021 243.965 693.867 243.964V243.969ZM635.036 188.445C635.665 188.445 636.281 188.621 636.805 188.951C637.329 189.282 637.737 189.751 637.978 190.3C638.219 190.849 638.282 191.454 638.159 192.037C638.036 192.62 637.733 193.156 637.288 193.576C636.842 193.996 636.275 194.282 635.657 194.398C635.039 194.514 634.399 194.455 633.817 194.227C633.235 194 632.737 193.615 632.387 193.12C632.037 192.626 631.851 192.045 631.851 191.45C631.852 190.654 632.188 189.89 632.785 189.327C633.382 188.763 634.191 188.446 635.036 188.445ZM570.395 188.445C571.025 188.445 571.641 188.621 572.165 188.951C572.688 189.282 573.097 189.751 573.338 190.3C573.579 190.849 573.642 191.454 573.519 192.037C573.396 192.62 573.093 193.156 572.647 193.576C572.202 193.996 571.634 194.282 571.016 194.398C570.399 194.514 569.758 194.455 569.176 194.227C568.594 194 568.097 193.615 567.747 193.12C567.397 192.626 567.21 192.045 567.21 191.45C567.211 190.654 567.547 189.89 568.144 189.327C568.741 188.763 569.551 188.446 570.395 188.445ZM539.605 188.445C540.235 188.445 540.851 188.621 541.374 188.951C541.898 189.282 542.306 189.751 542.548 190.3C542.789 190.849 542.852 191.454 542.729 192.037C542.606 192.62 542.303 193.156 541.857 193.576C541.412 193.996 540.844 194.282 540.226 194.398C539.608 194.514 538.968 194.455 538.386 194.227C537.804 194 537.307 193.615 536.957 193.12C536.607 192.626 536.42 192.045 536.42 191.45C536.421 190.654 536.756 189.889 537.354 189.326C537.951 188.762 538.76 188.445 539.605 188.445ZM474.964 188.445C475.594 188.445 476.21 188.621 476.734 188.951C477.258 189.282 477.666 189.751 477.907 190.3C478.148 190.849 478.211 191.454 478.088 192.037C477.965 192.62 477.662 193.156 477.217 193.576C476.771 193.996 476.204 194.282 475.586 194.398C474.968 194.514 474.328 194.455 473.746 194.227C473.164 194 472.666 193.615 472.316 193.12C471.966 192.626 471.779 192.045 471.779 191.45C471.78 190.654 472.116 189.889 472.713 189.326C473.31 188.762 474.12 188.445 474.964 188.445ZM416.134 249.976C415.504 249.976 414.888 249.799 414.364 249.469C413.84 249.139 413.432 248.669 413.191 248.12C412.95 247.571 412.887 246.966 413.01 246.383C413.133 245.8 413.436 245.265 413.881 244.844C414.327 244.424 414.894 244.138 415.512 244.022C416.13 243.906 416.77 243.965 417.352 244.193C417.934 244.42 418.432 244.806 418.782 245.3C419.132 245.794 419.319 246.375 419.319 246.97C419.318 247.767 418.982 248.531 418.385 249.094C417.788 249.658 416.978 249.975 416.134 249.976ZM416.134 310.977C415.504 310.977 414.888 310.801 414.364 310.471C413.84 310.14 413.432 309.671 413.191 309.122C412.95 308.573 412.887 307.968 413.01 307.385C413.133 306.802 413.436 306.267 413.881 305.846C414.327 305.426 414.894 305.14 415.512 305.024C416.13 304.908 416.77 304.967 417.352 305.195C417.934 305.422 418.432 305.807 418.782 306.302C419.132 306.796 419.319 307.377 419.319 307.972C419.318 308.769 418.982 309.533 418.385 310.096C417.788 310.66 416.978 310.977 416.134 310.977ZM416.134 340.034C415.504 340.034 414.888 339.858 414.364 339.528C413.84 339.197 413.432 338.728 413.191 338.179C412.95 337.629 412.887 337.025 413.01 336.442C413.133 335.859 413.436 335.323 413.881 334.903C414.327 334.483 414.894 334.196 415.512 334.081C416.13 333.965 416.77 334.024 417.352 334.252C417.934 334.479 418.432 334.864 418.782 335.359C419.132 335.853 419.319 336.434 419.319 337.028C419.317 337.825 418.981 338.589 418.384 339.152C417.787 339.716 416.978 340.033 416.134 340.034ZM416.134 401.036C415.504 401.036 414.888 400.86 414.364 400.529C413.84 400.199 413.432 399.73 413.191 399.18C412.95 398.631 412.887 398.027 413.01 397.444C413.133 396.861 413.436 396.325 413.881 395.905C414.327 395.485 414.894 395.198 415.512 395.082C416.13 394.966 416.77 395.026 417.352 395.253C417.934 395.481 418.432 395.866 418.782 396.36C419.132 396.855 419.319 397.436 419.319 398.03C419.317 398.827 418.981 399.591 418.384 400.154C417.787 400.718 416.978 401.035 416.134 401.036ZM474.964 456.555C474.335 456.555 473.719 456.379 473.195 456.049C472.671 455.718 472.263 455.249 472.022 454.7C471.781 454.151 471.718 453.546 471.841 452.963C471.964 452.38 472.267 451.845 472.712 451.424C473.158 451.004 473.725 450.718 474.343 450.602C474.961 450.486 475.601 450.545 476.183 450.773C476.765 451 477.263 451.385 477.613 451.88C477.963 452.374 478.149 452.955 478.149 453.55C478.148 454.346 477.812 455.11 477.215 455.673C476.618 456.237 475.809 456.554 474.964 456.555ZM539.605 456.555C538.975 456.555 538.359 456.379 537.835 456.049C537.312 455.718 536.903 455.249 536.662 454.7C536.421 454.151 536.358 453.546 536.481 452.963C536.604 452.38 536.907 451.845 537.353 451.424C537.798 451.004 538.366 450.718 538.984 450.602C539.601 450.486 540.242 450.545 540.824 450.773C541.406 451 541.903 451.385 542.253 451.88C542.603 452.374 542.79 452.955 542.79 453.55C542.789 454.346 542.453 455.11 541.856 455.673C541.259 456.237 540.449 456.554 539.605 456.555ZM570.395 456.555C569.765 456.555 569.149 456.379 568.626 456.049C568.102 455.718 567.694 455.249 567.453 454.7C567.211 454.151 567.148 453.546 567.271 452.963C567.394 452.38 567.697 451.845 568.143 451.424C568.588 451.004 569.156 450.718 569.774 450.602C570.392 450.486 571.032 450.545 571.614 450.773C572.196 451 572.693 451.385 573.043 451.88C573.393 452.374 573.58 452.955 573.58 453.55C573.579 454.347 573.244 455.111 572.646 455.674C572.049 456.238 571.24 456.555 570.395 456.555ZM635.036 456.555C634.406 456.555 633.79 456.379 633.266 456.049C632.742 455.718 632.334 455.249 632.093 454.7C631.852 454.151 631.789 453.546 631.912 452.963C632.035 452.38 632.338 451.845 632.783 451.424C633.229 451.004 633.796 450.718 634.414 450.602C635.032 450.486 635.672 450.545 636.254 450.773C636.836 451 637.334 451.385 637.684 451.88C638.034 452.374 638.221 452.955 638.221 453.55C638.22 454.347 637.884 455.111 637.287 455.674C636.69 456.238 635.88 456.555 635.036 456.555ZM693.867 395.025C694.496 395.025 695.112 395.201 695.636 395.531C696.16 395.861 696.568 396.331 696.809 396.88C697.05 397.429 697.113 398.034 696.99 398.617C696.867 399.2 696.564 399.735 696.119 400.156C695.673 400.576 695.106 400.862 694.488 400.978C693.87 401.094 693.23 401.035 692.648 400.807C692.066 400.58 691.568 400.194 691.218 399.7C690.868 399.206 690.681 398.625 690.681 398.03C690.682 397.233 691.018 396.469 691.615 395.906C692.212 395.342 693.022 395.025 693.867 395.025ZM693.867 334.023C694.496 334.023 695.112 334.199 695.636 334.529C696.16 334.86 696.568 335.329 696.809 335.878C697.05 336.427 697.113 337.032 696.99 337.615C696.867 338.198 696.564 338.733 696.119 339.154C695.673 339.574 695.106 339.86 694.488 339.976C693.87 340.092 693.23 340.033 692.648 339.805C692.066 339.578 691.568 339.193 691.218 338.698C690.868 338.204 690.681 337.623 690.681 337.028C690.682 336.232 691.018 335.467 691.615 334.904C692.212 334.34 693.022 334.023 693.867 334.023ZM623.796 387.424H486.204V257.576H623.796V387.424Z" stroke="white" stroke-width="8" stroke-linejoin="round" mask="url(#path-13-outside-2_776_224)"/>
<path d="M501.235 278.266H553.826V298.939H521.943V318.735H553.826V339.232H521.943V379H501.235V278.266ZM614.471 298.939V278.266H561.879V298.939H614.471ZM588.504 339.232V318.735H561.879V339.232H588.504Z" fill="#24292E"/>
<path d="M501.235 278.266H553.826V298.939H521.943V318.735H553.826V339.232H521.943V379H501.235V278.266ZM614.471 298.939V278.266H561.879V298.939H614.471ZM588.504 339.232V318.735H561.879V339.232H588.504Z" fill="#24292E"/>
<path d="M501.235 278.266H553.826V298.939H521.943V318.735H553.826V339.232H521.943V379H501.235V278.266ZM614.471 298.939V278.266H561.879V298.939H614.471ZM588.504 339.232V318.735H561.879V339.232H588.504Z" stroke="white" stroke-width="5" stroke-linejoin="round"/>
</svg>
