<svg width="2005" height="672" viewBox="0 0 2005 672" fill="none" xmlns="http://www.w3.org/2000/svg">
<rect x="0.5" y="0.5" width="2004" height="671" rx="29.5" fill="url(#paint0_linear_900_120)" stroke="#A9A9A9"/>
<path d="M663 212.584H721.88V234.296H686.184V255.088H721.88V276.616H686.184V318.384H663V212.584ZM789.776 234.296V212.584H730.896V234.296H789.776ZM760.704 276.616V255.088H730.896V276.616H760.704Z" fill="white"/>
<path d="M663 212.584H721.88V234.296H686.184V255.088H721.88V276.616H686.184V318.384H663V212.584ZM789.776 234.296V212.584H730.896V234.296H789.776ZM760.704 276.616V255.088H730.896V276.616H760.704Z" fill="white"/>
<path d="M822.976 318.584H800.656V209H822.976V318.584Z" fill="white"/>
<path d="M865.562 320.456C858.458 320.456 852.554 318.008 847.85 313.112C843.242 308.216 840.938 301.112 840.938 291.8C840.938 282.488 844.202 275.72 850.73 271.496C857.354 267.272 866.954 265.16 879.53 265.16H890.33C890.33 258.728 889.706 254.6 888.458 252.776C887.21 250.856 884.378 249.896 879.962 249.896C875.642 249.896 870.794 250.376 865.418 251.336C860.138 252.296 854.234 253.736 847.706 255.656L843.098 239.528C847.034 237.704 852.65 236.024 859.946 234.488C867.338 232.856 873.914 232.04 879.674 232.04C891.482 232.04 899.93 234.776 905.018 240.248C910.106 245.624 912.65 253.496 912.65 263.864V318.584H898.538L895.658 309.224H894.794C893.642 310.088 892.106 311.144 890.186 312.392C888.362 313.64 884.858 315.32 879.674 317.432C874.49 319.448 869.786 320.456 865.562 320.456ZM890.33 281.72C886.97 281.24 882.458 281 876.794 281C871.226 281 867.626 281.72 865.994 283.16C864.458 284.6 863.69 287.336 863.69 291.368C863.69 295.4 864.314 298.232 865.562 299.864C866.906 301.4 868.922 302.168 871.61 302.168C876.602 302.168 881.882 300.824 887.45 298.136L890.33 296.696V281.72Z" fill="white"/>
<path d="M997.62 264.296C997.62 272.648 994.308 279.608 987.684 285.176C981.156 290.648 972.18 293.432 960.756 293.528C960.564 295.256 960.468 296.264 960.468 296.552C960.468 296.84 960.948 297.176 961.908 297.56C962.868 297.944 964.788 298.616 967.668 299.576C981.3 304.376 990.084 308.552 994.02 312.104C998.052 315.56 1000.07 319.4 1000.07 323.624C1000.07 330.248 996.66 335.336 989.844 338.888C983.028 342.536 974.1 344.36 963.06 344.36C957.78 344.36 952.26 343.928 946.5 343.064C940.74 342.296 934.74 341.096 928.5 339.464L930.948 322.472C948.804 325.256 961.332 326.648 968.532 326.648C975.828 326.648 979.476 325.88 979.476 324.344C979.476 323.288 971.268 319.88 954.852 314.12C947.652 311.528 943.668 309.944 942.9 309.368C942.228 308.792 941.892 308.12 941.892 307.352C941.892 305.816 943.764 300.44 947.508 291.224C933.684 286.424 926.772 277.016 926.772 263C926.772 257.432 927.828 252.584 929.94 248.456C932.052 244.328 934.98 241.112 938.724 238.808C946.02 234.296 955.236 232.04 966.372 232.04L1002.95 233.768V246.728L994.02 248.168C996.42 253.352 997.62 258.728 997.62 264.296ZM962.772 277.256C968.724 277.256 972.66 276.2 974.58 274.088C976.596 271.976 977.604 267.608 977.604 260.984C977.604 254.36 977.076 250.52 976.02 249.464C974.964 248.408 971.076 247.88 964.356 247.88C957.732 247.88 953.268 248.792 950.964 250.616C948.756 252.344 947.652 256.232 947.652 262.28C947.652 268.232 948.66 272.216 950.676 274.232C952.788 276.248 956.82 277.256 962.772 277.256Z" fill="white"/>
<path d="M1015.25 209H1037.57V234.2C1044.58 232.76 1050.77 232.04 1056.15 232.04C1077.07 232.04 1087.54 246.392 1087.54 275.096C1087.54 283.928 1086.53 291.464 1084.51 297.704C1082.59 303.848 1079.95 308.504 1076.59 311.672C1070.26 317.528 1062.48 320.456 1053.27 320.456C1048.37 320.456 1042.18 319.832 1034.69 318.584C1027.3 317.336 1020.82 315.848 1015.25 314.12V209ZM1061.19 252.344C1059.84 251 1057.54 250.328 1054.27 250.328C1048.32 250.328 1042.75 250.952 1037.57 252.2V301.016C1042.56 301.976 1047.07 302.456 1051.11 302.456C1055.23 302.456 1058.02 301.88 1059.46 300.728C1062.82 297.944 1064.5 288.584 1064.5 272.648C1064.5 261.224 1063.39 254.456 1061.19 252.344Z" fill="white"/>
<path d="M1126.42 320.456C1119.32 320.456 1113.41 318.008 1108.71 313.112C1104.1 308.216 1101.8 301.112 1101.8 291.8C1101.8 282.488 1105.06 275.72 1111.59 271.496C1118.21 267.272 1127.81 265.16 1140.39 265.16H1151.19C1151.19 258.728 1150.57 254.6 1149.32 252.776C1148.07 250.856 1145.24 249.896 1140.82 249.896C1136.5 249.896 1131.65 250.376 1126.28 251.336C1121 252.296 1115.09 253.736 1108.57 255.656L1103.96 239.528C1107.89 237.704 1113.51 236.024 1120.81 234.488C1128.2 232.856 1134.77 232.04 1140.53 232.04C1152.34 232.04 1160.79 234.776 1165.88 240.248C1170.97 245.624 1173.51 253.496 1173.51 263.864V318.584H1159.4L1156.52 309.224H1155.65C1154.5 310.088 1152.97 311.144 1151.05 312.392C1149.22 313.64 1145.72 315.32 1140.53 317.432C1135.35 319.448 1130.65 320.456 1126.42 320.456ZM1151.19 281.72C1147.83 281.24 1143.32 281 1137.65 281C1132.09 281 1128.49 281.72 1126.85 283.16C1125.32 284.6 1124.55 287.336 1124.55 291.368C1124.55 295.4 1125.17 298.232 1126.42 299.864C1127.77 301.4 1129.78 302.168 1132.47 302.168C1137.46 302.168 1142.74 300.824 1148.31 298.136L1151.19 296.696V281.72Z" fill="white"/>
<path d="M1221.33 249.896C1217.68 249.896 1215.28 250.376 1214.13 251.336C1213.07 252.2 1212.54 253.544 1212.54 255.368C1212.54 257.192 1213.36 258.824 1214.99 260.264C1216.62 261.608 1218.26 262.616 1219.89 263.288C1221.52 263.864 1223.39 264.488 1225.5 265.16C1227.71 265.736 1230.93 266.648 1235.15 267.896C1239.47 269.144 1242.88 270.44 1245.38 271.784C1252.77 275.912 1256.46 282.536 1256.46 291.656C1256.46 300.68 1253.68 307.736 1248.11 312.824C1242.54 317.912 1234.72 320.456 1224.64 320.456C1219.36 320.456 1213.84 319.784 1208.08 318.44C1202.32 317 1197.86 315.608 1194.69 314.264L1190.08 312.104L1195.55 294.536C1207.74 299.72 1217.73 302.312 1225.5 302.312C1228.48 302.312 1230.69 301.784 1232.13 300.728C1233.57 299.672 1234.29 297.752 1234.29 294.968C1234.29 293.24 1234 291.992 1233.42 291.224C1232.85 290.456 1232.37 289.88 1231.98 289.496C1231.6 289.016 1231.02 288.584 1230.26 288.2C1229.49 287.72 1228.82 287.384 1228.24 287.192C1227.76 286.904 1226.99 286.568 1225.94 286.184C1224.88 285.8 1224.06 285.512 1223.49 285.32C1222.91 285.128 1221.95 284.84 1220.61 284.456C1219.26 284.072 1217.73 283.64 1216 283.16C1214.37 282.584 1213.12 282.152 1212.26 281.864C1211.39 281.576 1209.66 280.952 1207.07 279.992C1204.58 279.032 1202.8 278.216 1201.74 277.544C1200.78 276.776 1199.39 275.72 1197.57 274.376C1195.84 272.936 1194.59 271.448 1193.82 269.912C1191.81 265.688 1190.8 261.464 1190.8 257.24C1190.8 249.368 1193.44 243.224 1198.72 238.808C1204 234.296 1211.87 232.04 1222.34 232.04C1232.9 232.04 1243.07 233.672 1252.86 236.936L1249.55 254.216C1238.51 251.336 1229.1 249.896 1221.33 249.896Z" fill="white"/>
<path d="M1307.46 320.456C1281.34 320.456 1268.29 305.72 1268.29 276.248C1268.29 246.776 1281.25 232.04 1307.17 232.04C1318.78 232.04 1327.52 235.16 1333.38 241.4C1339.23 247.544 1342.16 257.768 1342.16 272.072V284.024H1291.47C1291.47 292.088 1292.96 297.416 1295.93 300.008C1297.95 301.832 1300.78 302.744 1304.43 302.744C1311.15 302.744 1319.69 301.208 1330.06 298.136L1335.1 296.552L1340.58 312.68C1336.26 314.696 1330.88 316.52 1324.45 318.152C1318.02 319.688 1312.35 320.456 1307.46 320.456ZM1316.82 252.776C1315.09 250.664 1311.63 249.608 1306.45 249.608C1301.26 249.608 1297.57 250.856 1295.36 253.352C1293.15 255.848 1291.9 260.696 1291.61 267.896L1319.41 267.32C1319.21 259.736 1318.35 254.888 1316.82 252.776Z" fill="white"/>
<path d="M669.161 410V373.636H693.237V379.975H676.849V388.64H691.639V394.979H676.849V410H669.161ZM708.694 410.533C705.888 410.533 703.473 409.964 701.449 408.828C699.437 407.68 697.886 406.058 696.797 403.963C695.708 401.856 695.164 399.364 695.164 396.488C695.164 393.683 695.708 391.22 696.797 389.102C697.886 386.983 699.419 385.331 701.396 384.148C703.385 382.964 705.717 382.372 708.392 382.372C710.191 382.372 711.866 382.662 713.417 383.242C714.979 383.81 716.34 384.669 717.5 385.817C718.672 386.965 719.584 388.409 720.235 390.149C720.886 391.877 721.211 393.902 721.211 396.222V398.299H698.182V393.612H714.091C714.091 392.522 713.855 391.558 713.381 390.717C712.908 389.877 712.251 389.22 711.41 388.746C710.582 388.261 709.617 388.018 708.516 388.018C707.368 388.018 706.35 388.285 705.462 388.817C704.586 389.338 703.9 390.043 703.402 390.93C702.905 391.806 702.651 392.783 702.639 393.86V398.317C702.639 399.666 702.887 400.832 703.385 401.815C703.894 402.797 704.61 403.555 705.533 404.087C706.456 404.62 707.551 404.886 708.818 404.886C709.658 404.886 710.428 404.768 711.126 404.531C711.824 404.295 712.422 403.939 712.919 403.466C713.417 402.992 713.795 402.412 714.056 401.726L721.051 402.188C720.696 403.868 719.968 405.336 718.868 406.591C717.779 407.834 716.37 408.804 714.642 409.503C712.925 410.189 710.943 410.533 708.694 410.533ZM733.924 410.515C732.184 410.515 730.634 410.213 729.272 409.609C727.911 408.994 726.834 408.088 726.041 406.893C725.26 405.685 724.869 404.182 724.869 402.383C724.869 400.868 725.147 399.595 725.703 398.565C726.26 397.536 727.017 396.707 727.976 396.08C728.935 395.452 730.024 394.979 731.243 394.659C732.474 394.339 733.765 394.115 735.114 393.984C736.7 393.819 737.979 393.665 738.949 393.523C739.92 393.369 740.624 393.144 741.062 392.848C741.5 392.552 741.719 392.114 741.719 391.534V391.428C741.719 390.303 741.364 389.433 740.654 388.817C739.955 388.202 738.961 387.894 737.671 387.894C736.31 387.894 735.226 388.196 734.422 388.8C733.617 389.392 733.084 390.137 732.824 391.037L725.828 390.469C726.183 388.812 726.881 387.379 727.923 386.172C728.965 384.953 730.308 384.018 731.953 383.366C733.611 382.704 735.528 382.372 737.706 382.372C739.221 382.372 740.672 382.55 742.056 382.905C743.453 383.26 744.69 383.81 745.767 384.556C746.856 385.302 747.715 386.261 748.342 387.433C748.969 388.593 749.283 389.983 749.283 391.605V410H742.11V406.218H741.897C741.459 407.07 740.873 407.822 740.139 408.473C739.405 409.112 738.523 409.615 737.493 409.982C736.463 410.337 735.274 410.515 733.924 410.515ZM736.091 405.295C737.203 405.295 738.186 405.076 739.038 404.638C739.89 404.188 740.559 403.584 741.044 402.827C741.53 402.069 741.772 401.211 741.772 400.252V397.358C741.536 397.512 741.21 397.654 740.796 397.784C740.393 397.902 739.938 398.015 739.429 398.121C738.92 398.216 738.411 398.305 737.902 398.388C737.393 398.459 736.931 398.524 736.517 398.583C735.629 398.713 734.854 398.92 734.191 399.205C733.528 399.489 733.013 399.873 732.646 400.359C732.279 400.832 732.096 401.424 732.096 402.134C732.096 403.164 732.468 403.951 733.214 404.496C733.972 405.028 734.931 405.295 736.091 405.295ZM769.658 382.727V388.409H753.234V382.727H769.658ZM756.962 376.193H764.526V401.619C764.526 402.318 764.633 402.862 764.846 403.253C765.059 403.632 765.355 403.898 765.734 404.052C766.124 404.206 766.574 404.283 767.083 404.283C767.438 404.283 767.793 404.253 768.148 404.194C768.504 404.123 768.776 404.07 768.965 404.034L770.155 409.663C769.776 409.781 769.243 409.917 768.557 410.071C767.87 410.237 767.036 410.337 766.053 410.373C764.23 410.444 762.632 410.201 761.259 409.645C759.898 409.089 758.839 408.224 758.081 407.053C757.323 405.881 756.951 404.401 756.962 402.614V376.193ZM792.074 398.388V382.727H799.638V410H792.376V405.046H792.092C791.476 406.644 790.453 407.929 789.02 408.899C787.6 409.87 785.866 410.355 783.818 410.355C781.995 410.355 780.391 409.941 779.006 409.112C777.621 408.284 776.538 407.106 775.757 405.579C774.987 404.052 774.597 402.223 774.585 400.092V382.727H782.149V398.743C782.161 400.353 782.593 401.625 783.445 402.56C784.297 403.496 785.44 403.963 786.872 403.963C787.783 403.963 788.636 403.756 789.429 403.342C790.222 402.915 790.861 402.288 791.346 401.46C791.843 400.631 792.086 399.607 792.074 398.388ZM805.688 410V382.727H813.021V387.486H813.306C813.803 385.793 814.637 384.515 815.809 383.651C816.981 382.775 818.33 382.337 819.857 382.337C820.236 382.337 820.645 382.36 821.083 382.408C821.521 382.455 821.905 382.52 822.237 382.603V389.315C821.882 389.208 821.39 389.113 820.763 389.031C820.136 388.948 819.561 388.906 819.041 388.906C817.928 388.906 816.934 389.149 816.058 389.634C815.194 390.108 814.507 390.771 813.998 391.623C813.501 392.475 813.252 393.458 813.252 394.57V410H805.688ZM837.307 410.533C834.501 410.533 832.087 409.964 830.062 408.828C828.05 407.68 826.5 406.058 825.411 403.963C824.321 401.856 823.777 399.364 823.777 396.488C823.777 393.683 824.321 391.22 825.411 389.102C826.5 386.983 828.032 385.331 830.009 384.148C831.998 382.964 834.33 382.372 837.005 382.372C838.804 382.372 840.479 382.662 842.03 383.242C843.592 383.81 844.954 384.669 846.114 385.817C847.286 386.965 848.197 388.409 848.848 390.149C849.499 391.877 849.825 393.902 849.825 396.222V398.299H826.795V393.612H842.705C842.705 392.522 842.468 391.558 841.994 390.717C841.521 389.877 840.864 389.22 840.023 388.746C839.195 388.261 838.23 388.018 837.129 388.018C835.981 388.018 834.963 388.285 834.075 388.817C833.199 389.338 832.513 390.043 832.016 390.93C831.518 391.806 831.264 392.783 831.252 393.86V398.317C831.252 399.666 831.501 400.832 831.998 401.815C832.507 402.797 833.223 403.555 834.146 404.087C835.07 404.62 836.165 404.886 837.431 404.886C838.272 404.886 839.041 404.768 839.739 404.531C840.438 404.295 841.036 403.939 841.533 403.466C842.03 402.992 842.409 402.412 842.669 401.726L849.665 402.188C849.31 403.868 848.582 405.336 847.481 406.591C846.392 407.834 844.983 408.804 843.255 409.503C841.539 410.189 839.556 410.533 837.307 410.533ZM866.475 410V373.636H890.552V379.975H874.163V388.64H888.954V394.979H874.163V410H866.475ZM903.145 373.636V410H895.581V373.636H903.145ZM916.981 410.515C915.241 410.515 913.69 410.213 912.329 409.609C910.968 408.994 909.891 408.088 909.097 406.893C908.316 405.685 907.926 404.182 907.926 402.383C907.926 400.868 908.204 399.595 908.76 398.565C909.316 397.536 910.074 396.707 911.033 396.08C911.992 395.452 913.081 394.979 914.3 394.659C915.531 394.339 916.821 394.115 918.171 393.984C919.757 393.819 921.035 393.665 922.006 393.523C922.977 393.369 923.681 393.144 924.119 392.848C924.557 392.552 924.776 392.114 924.776 391.534V391.428C924.776 390.303 924.421 389.433 923.71 388.817C923.012 388.202 922.018 387.894 920.727 387.894C919.366 387.894 918.283 388.196 917.478 388.8C916.673 389.392 916.141 390.137 915.88 391.037L908.884 390.469C909.24 388.812 909.938 387.379 910.98 386.172C912.021 384.953 913.365 384.018 915.01 383.366C916.667 382.704 918.585 382.372 920.763 382.372C922.278 382.372 923.728 382.55 925.113 382.905C926.51 383.26 927.747 383.81 928.824 384.556C929.913 385.302 930.771 386.261 931.399 387.433C932.026 388.593 932.34 389.983 932.34 391.605V410H925.166V406.218H924.953C924.515 407.07 923.929 407.822 923.195 408.473C922.462 409.112 921.58 409.615 920.55 409.982C919.52 410.337 918.33 410.515 916.981 410.515ZM919.147 405.295C920.26 405.295 921.242 405.076 922.095 404.638C922.947 404.188 923.616 403.584 924.101 402.827C924.586 402.069 924.829 401.211 924.829 400.252V397.358C924.592 397.512 924.267 397.654 923.852 397.784C923.45 397.902 922.994 398.015 922.485 398.121C921.976 398.216 921.467 398.305 920.958 398.388C920.449 398.459 919.988 398.524 919.573 398.583C918.686 398.713 917.91 398.92 917.247 399.205C916.584 399.489 916.07 399.873 915.703 400.359C915.336 400.832 915.152 401.424 915.152 402.134C915.152 403.164 915.525 403.951 916.271 404.496C917.028 405.028 917.987 405.295 919.147 405.295ZM950.495 420.795C948.045 420.795 945.943 420.458 944.192 419.783C942.452 419.121 941.067 418.215 940.037 417.067C939.007 415.919 938.338 414.628 938.03 413.196L945.026 412.255C945.239 412.799 945.577 413.308 946.038 413.782C946.5 414.255 947.109 414.634 947.867 414.918C948.636 415.214 949.572 415.362 950.672 415.362C952.318 415.362 953.673 414.96 954.738 414.155C955.816 413.362 956.354 412.03 956.354 410.16V405.17H956.035C955.703 405.928 955.206 406.644 954.543 407.319C953.88 407.994 953.028 408.544 951.986 408.97C950.945 409.396 949.702 409.609 948.258 409.609C946.21 409.609 944.345 409.136 942.665 408.189C940.996 407.23 939.664 405.768 938.67 403.803C937.687 401.826 937.196 399.329 937.196 396.31C937.196 393.221 937.699 390.64 938.705 388.569C939.711 386.497 941.049 384.947 942.718 383.917C944.399 382.887 946.239 382.372 948.24 382.372C949.767 382.372 951.045 382.633 952.075 383.153C953.105 383.662 953.934 384.302 954.561 385.071C955.2 385.829 955.691 386.574 956.035 387.308H956.319V382.727H963.829V410.266C963.829 412.586 963.261 414.528 962.125 416.09C960.988 417.653 959.414 418.825 957.402 419.606C955.401 420.399 953.099 420.795 950.495 420.795ZM950.655 403.928C951.874 403.928 952.904 403.626 953.744 403.022C954.596 402.406 955.247 401.531 955.697 400.394C956.159 399.246 956.39 397.873 956.39 396.275C956.39 394.677 956.165 393.292 955.715 392.12C955.265 390.936 954.614 390.019 953.762 389.368C952.91 388.717 951.874 388.391 950.655 388.391C949.412 388.391 948.364 388.729 947.512 389.403C946.66 390.066 946.015 390.99 945.577 392.173C945.139 393.357 944.92 394.724 944.92 396.275C944.92 397.849 945.139 399.21 945.577 400.359C946.026 401.495 946.671 402.377 947.512 403.004C948.364 403.62 949.412 403.928 950.655 403.928ZM992.54 390.504L985.616 390.93C985.497 390.339 985.243 389.806 984.852 389.332C984.461 388.847 983.947 388.462 983.307 388.178C982.68 387.882 981.928 387.734 981.052 387.734C979.881 387.734 978.892 387.983 978.087 388.48C977.282 388.965 976.88 389.616 976.88 390.433C976.88 391.084 977.14 391.635 977.661 392.085C978.182 392.534 979.076 392.895 980.342 393.168L985.278 394.162C987.93 394.706 989.907 395.582 991.209 396.79C992.511 397.997 993.162 399.583 993.162 401.548C993.162 403.336 992.635 404.904 991.581 406.254C990.54 407.603 989.108 408.656 987.285 409.414C985.474 410.16 983.384 410.533 981.017 410.533C977.407 410.533 974.53 409.781 972.388 408.278C970.257 406.763 969.008 404.703 968.641 402.099L976.081 401.708C976.306 402.809 976.85 403.649 977.714 404.229C978.578 404.798 979.685 405.082 981.035 405.082C982.36 405.082 983.426 404.827 984.231 404.318C985.047 403.797 985.462 403.129 985.474 402.312C985.462 401.625 985.172 401.063 984.604 400.625C984.035 400.175 983.159 399.832 981.976 399.595L977.253 398.654C974.589 398.121 972.607 397.198 971.305 395.884C970.014 394.57 969.369 392.895 969.369 390.859C969.369 389.107 969.843 387.598 970.79 386.332C971.748 385.065 973.092 384.089 974.82 383.402C976.56 382.715 978.596 382.372 980.928 382.372C984.373 382.372 987.083 383.1 989.06 384.556C991.049 386.012 992.209 387.995 992.54 390.504ZM1009.64 373.636H1019.12L1029.13 398.068H1029.56L1039.58 373.636H1049.06V410H1041.6V386.332H1041.3L1031.89 409.822H1026.81L1017.4 386.243H1017.1V410H1009.64V373.636ZM1063.03 410.515C1061.29 410.515 1059.74 410.213 1058.37 409.609C1057.01 408.994 1055.94 408.088 1055.14 406.893C1054.36 405.685 1053.97 404.182 1053.97 402.383C1053.97 400.868 1054.25 399.595 1054.81 398.565C1055.36 397.536 1056.12 396.707 1057.08 396.08C1058.04 395.452 1059.13 394.979 1060.34 394.659C1061.58 394.339 1062.87 394.115 1064.22 393.984C1065.8 393.819 1067.08 393.665 1068.05 393.523C1069.02 393.369 1069.73 393.144 1070.16 392.848C1070.6 392.552 1070.82 392.114 1070.82 391.534V391.428C1070.82 390.303 1070.47 389.433 1069.76 388.817C1069.06 388.202 1068.06 387.894 1066.77 387.894C1065.41 387.894 1064.33 388.196 1063.52 388.8C1062.72 389.392 1062.19 390.137 1061.93 391.037L1054.93 390.469C1055.28 388.812 1055.98 387.379 1057.02 386.172C1058.07 384.953 1059.41 384.018 1061.06 383.366C1062.71 382.704 1064.63 382.372 1066.81 382.372C1068.32 382.372 1069.77 382.55 1071.16 382.905C1072.55 383.26 1073.79 383.81 1074.87 384.556C1075.96 385.302 1076.82 386.261 1077.44 387.433C1078.07 388.593 1078.38 389.983 1078.38 391.605V410H1071.21V406.218H1071C1070.56 407.07 1069.97 407.822 1069.24 408.473C1068.51 409.112 1067.62 409.615 1066.59 409.982C1065.56 410.337 1064.38 410.515 1063.03 410.515ZM1065.19 405.295C1066.3 405.295 1067.29 405.076 1068.14 404.638C1068.99 404.188 1069.66 403.584 1070.15 402.827C1070.63 402.069 1070.87 401.211 1070.87 400.252V397.358C1070.64 397.512 1070.31 397.654 1069.9 397.784C1069.49 397.902 1069.04 398.015 1068.53 398.121C1068.02 398.216 1067.51 398.305 1067 398.388C1066.49 398.459 1066.03 398.524 1065.62 398.583C1064.73 398.713 1063.96 398.92 1063.29 399.205C1062.63 399.489 1062.11 399.873 1061.75 400.359C1061.38 400.832 1061.2 401.424 1061.2 402.134C1061.2 403.164 1061.57 403.951 1062.32 404.496C1063.07 405.028 1064.03 405.295 1065.19 405.295ZM1094.3 410.444C1092.23 410.444 1090.35 409.911 1088.67 408.846C1087 407.769 1085.68 406.188 1084.7 404.105C1083.73 402.01 1083.24 399.441 1083.24 396.399C1083.24 393.274 1083.74 390.676 1084.75 388.604C1085.76 386.521 1087.09 384.964 1088.76 383.935C1090.44 382.893 1092.28 382.372 1094.28 382.372C1095.81 382.372 1097.08 382.633 1098.1 383.153C1099.13 383.662 1099.96 384.302 1100.59 385.071C1101.23 385.829 1101.71 386.574 1102.04 387.308H1102.27V373.636H1109.82V410H1102.36V405.632H1102.04C1101.69 406.39 1101.19 407.141 1100.53 407.887C1099.9 408.621 1099.06 409.231 1098.03 409.716C1097.01 410.201 1095.77 410.444 1094.3 410.444ZM1096.7 404.425C1097.92 404.425 1098.95 404.093 1099.79 403.43C1100.64 402.756 1101.29 401.815 1101.74 400.607C1102.2 399.4 1102.43 397.985 1102.43 396.364C1102.43 394.742 1102.21 393.333 1101.76 392.138C1101.31 390.942 1100.66 390.019 1099.81 389.368C1098.95 388.717 1097.92 388.391 1096.7 388.391C1095.46 388.391 1094.41 388.729 1093.56 389.403C1092.7 390.078 1092.06 391.013 1091.62 392.209C1091.18 393.404 1090.96 394.789 1090.96 396.364C1090.96 397.95 1091.18 399.353 1091.62 400.572C1092.07 401.779 1092.72 402.726 1093.56 403.413C1094.41 404.087 1095.46 404.425 1096.7 404.425ZM1128.47 410.533C1125.66 410.533 1123.25 409.964 1121.22 408.828C1119.21 407.68 1117.66 406.058 1116.57 403.963C1115.48 401.856 1114.94 399.364 1114.94 396.488C1114.94 393.683 1115.48 391.22 1116.57 389.102C1117.66 386.983 1119.19 385.331 1121.17 384.148C1123.16 382.964 1125.49 382.372 1128.17 382.372C1129.97 382.372 1131.64 382.662 1133.19 383.242C1134.75 383.81 1136.12 384.669 1137.28 385.817C1138.45 386.965 1139.36 388.409 1140.01 390.149C1140.66 391.877 1140.99 393.902 1140.99 396.222V398.299H1117.96V393.612H1133.87C1133.87 392.522 1133.63 391.558 1133.16 390.717C1132.68 389.877 1132.03 389.22 1131.19 388.746C1130.36 388.261 1129.39 388.018 1128.29 388.018C1127.14 388.018 1126.13 388.285 1125.24 388.817C1124.36 389.338 1123.67 390.043 1123.18 390.93C1122.68 391.806 1122.43 392.783 1122.41 393.86V398.317C1122.41 399.666 1122.66 400.832 1123.16 401.815C1123.67 402.797 1124.39 403.555 1125.31 404.087C1126.23 404.62 1127.33 404.886 1128.59 404.886C1129.43 404.886 1130.2 404.768 1130.9 404.531C1131.6 404.295 1132.2 403.939 1132.69 403.466C1133.19 402.992 1133.57 402.412 1133.83 401.726L1140.83 402.188C1140.47 403.868 1139.74 405.336 1138.64 406.591C1137.55 407.834 1136.15 408.804 1134.42 409.503C1132.7 410.189 1130.72 410.533 1128.47 410.533Z" fill="white"/>
<path d="M1182.89 384.094C1182.75 382.662 1182.14 381.549 1181.06 380.756C1179.98 379.963 1178.52 379.567 1176.67 379.567C1175.42 379.567 1174.36 379.744 1173.49 380.099C1172.63 380.443 1171.97 380.922 1171.51 381.538C1171.06 382.153 1170.83 382.852 1170.83 383.633C1170.81 384.284 1170.94 384.852 1171.24 385.337C1171.55 385.823 1171.97 386.243 1172.5 386.598C1173.03 386.941 1173.65 387.243 1174.35 387.504C1175.04 387.752 1175.79 387.965 1176.58 388.143L1179.85 388.924C1181.44 389.279 1182.89 389.753 1184.22 390.344C1185.54 390.936 1186.69 391.664 1187.66 392.528C1188.63 393.393 1189.39 394.411 1189.92 395.582C1190.46 396.754 1190.74 398.098 1190.75 399.613C1190.74 401.838 1190.17 403.768 1189.05 405.401C1187.94 407.023 1186.33 408.284 1184.22 409.183C1182.12 410.071 1179.6 410.515 1176.64 410.515C1173.7 410.515 1171.14 410.065 1168.97 409.165C1166.8 408.266 1165.11 406.934 1163.89 405.17C1162.68 403.395 1162.05 401.199 1161.99 398.583H1169.43C1169.51 399.802 1169.86 400.82 1170.48 401.637C1171.1 402.442 1171.94 403.052 1172.98 403.466C1174.03 403.868 1175.22 404.07 1176.55 404.07C1177.85 404.07 1178.98 403.88 1179.94 403.501C1180.91 403.123 1181.66 402.596 1182.19 401.921C1182.73 401.246 1182.99 400.471 1182.99 399.595C1182.99 398.778 1182.75 398.092 1182.27 397.536C1181.79 396.979 1181.09 396.506 1180.17 396.115C1179.26 395.724 1178.14 395.369 1176.81 395.05L1172.86 394.055C1169.79 393.31 1167.37 392.144 1165.59 390.558C1163.82 388.971 1162.94 386.835 1162.95 384.148C1162.94 381.946 1163.52 380.022 1164.71 378.377C1165.9 376.732 1167.54 375.447 1169.62 374.524C1171.71 373.601 1174.07 373.139 1176.73 373.139C1179.42 373.139 1181.78 373.601 1183.79 374.524C1185.82 375.447 1187.39 376.732 1188.52 378.377C1189.64 380.022 1190.22 381.928 1190.26 384.094H1182.89ZM1195.78 410V382.727H1203.35V410H1195.78ZM1199.58 379.212C1198.46 379.212 1197.49 378.839 1196.69 378.093C1195.89 377.335 1195.5 376.43 1195.5 375.376C1195.5 374.335 1195.89 373.441 1196.69 372.695C1197.49 371.938 1198.46 371.559 1199.58 371.559C1200.71 371.559 1201.67 371.938 1202.46 372.695C1203.26 373.441 1203.67 374.335 1203.67 375.376C1203.67 376.43 1203.26 377.335 1202.46 378.093C1201.67 378.839 1200.71 379.212 1199.58 379.212ZM1209.41 410V382.727H1216.61V387.539H1216.93C1217.5 385.941 1218.45 384.68 1219.77 383.757C1221.1 382.834 1222.69 382.372 1224.53 382.372C1226.4 382.372 1228 382.84 1229.31 383.775C1230.62 384.698 1231.5 385.953 1231.94 387.539H1232.22C1232.78 385.977 1233.78 384.728 1235.24 383.793C1236.71 382.846 1238.44 382.372 1240.44 382.372C1242.99 382.372 1245.05 383.183 1246.64 384.805C1248.24 386.415 1249.04 388.699 1249.04 391.658V410H1241.49V393.15C1241.49 391.635 1241.09 390.498 1240.28 389.741C1239.48 388.983 1238.47 388.604 1237.26 388.604C1235.89 388.604 1234.82 389.042 1234.05 389.918C1233.28 390.782 1232.9 391.925 1232.9 393.345V410H1225.56V392.99C1225.56 391.652 1225.18 390.587 1224.41 389.794C1223.65 389.001 1222.65 388.604 1221.41 388.604C1220.57 388.604 1219.81 388.817 1219.14 389.244C1218.47 389.658 1217.95 390.244 1217.56 391.001C1217.16 391.747 1216.97 392.623 1216.97 393.629V410H1209.41ZM1255.01 420.227V382.727H1262.47V387.308H1262.81C1263.14 386.574 1263.62 385.829 1264.24 385.071C1264.88 384.302 1265.71 383.662 1266.73 383.153C1267.76 382.633 1269.04 382.372 1270.56 382.372C1272.55 382.372 1274.39 382.893 1276.07 383.935C1277.75 384.964 1279.09 386.521 1280.1 388.604C1281.11 390.676 1281.61 393.274 1281.61 396.399C1281.61 399.441 1281.12 402.01 1280.13 404.105C1279.16 406.188 1277.84 407.769 1276.16 408.846C1274.49 409.911 1272.62 410.444 1270.55 410.444C1269.08 410.444 1267.83 410.201 1266.8 409.716C1265.78 409.231 1264.95 408.621 1264.3 407.887C1263.65 407.141 1263.15 406.39 1262.81 405.632H1262.57V420.227H1255.01ZM1262.41 396.364C1262.41 397.985 1262.64 399.4 1263.09 400.607C1263.54 401.815 1264.19 402.756 1265.04 403.43C1265.89 404.093 1266.93 404.425 1268.15 404.425C1269.38 404.425 1270.42 404.087 1271.27 403.413C1272.13 402.726 1272.77 401.779 1273.21 400.572C1273.66 399.353 1273.88 397.95 1273.88 396.364C1273.88 394.789 1273.67 393.404 1273.23 392.209C1272.79 391.013 1272.14 390.078 1271.29 389.403C1270.44 388.729 1269.39 388.391 1268.15 388.391C1266.92 388.391 1265.88 388.717 1265.02 389.368C1264.18 390.019 1263.54 390.942 1263.09 392.138C1262.64 393.333 1262.41 394.742 1262.41 396.364ZM1294.22 373.636V410H1286.65V373.636H1294.22ZM1312.7 410.533C1309.9 410.533 1307.48 409.964 1305.46 408.828C1303.45 407.68 1301.9 406.058 1300.81 403.963C1299.72 401.856 1299.17 399.364 1299.17 396.488C1299.17 393.683 1299.72 391.22 1300.81 389.102C1301.9 386.983 1303.43 385.331 1305.41 384.148C1307.39 382.964 1309.73 382.372 1312.4 382.372C1314.2 382.372 1315.88 382.662 1317.43 383.242C1318.99 383.81 1320.35 384.669 1321.51 385.817C1322.68 386.965 1323.59 388.409 1324.24 390.149C1324.9 391.877 1325.22 393.902 1325.22 396.222V398.299H1302.19V393.612H1318.1C1318.1 392.522 1317.86 391.558 1317.39 390.717C1316.92 389.877 1316.26 389.22 1315.42 388.746C1314.59 388.261 1313.63 388.018 1312.53 388.018C1311.38 388.018 1310.36 388.285 1309.47 388.817C1308.6 389.338 1307.91 390.043 1307.41 390.93C1306.91 391.806 1306.66 392.783 1306.65 393.86V398.317C1306.65 399.666 1306.9 400.832 1307.39 401.815C1307.9 402.797 1308.62 403.555 1309.54 404.087C1310.47 404.62 1311.56 404.886 1312.83 404.886C1313.67 404.886 1314.44 404.768 1315.14 404.531C1315.83 404.295 1316.43 403.939 1316.93 403.466C1317.43 402.992 1317.81 402.412 1318.07 401.726L1325.06 402.188C1324.71 403.868 1323.98 405.336 1322.88 406.591C1321.79 407.834 1320.38 408.804 1318.65 409.503C1316.94 410.189 1314.95 410.533 1312.7 410.533ZM1334.58 410.462C1333.41 410.462 1332.4 410.047 1331.56 409.219C1330.73 408.378 1330.32 407.372 1330.32 406.2C1330.32 405.04 1330.73 404.046 1331.56 403.217C1332.4 402.389 1333.41 401.974 1334.58 401.974C1335.71 401.974 1336.71 402.389 1337.56 403.217C1338.41 404.046 1338.84 405.04 1338.84 406.2C1338.84 406.982 1338.64 407.698 1338.24 408.349C1337.85 408.988 1337.33 409.503 1336.69 409.893C1336.05 410.272 1335.35 410.462 1334.58 410.462Z" fill="#FCEE70"/>
<path d="M1632.54 199.133L1632.54 199.133C1629.64 199.136 1626.86 200.289 1624.81 202.34C1622.76 204.391 1621.61 207.171 1621.6 210.071V210.071L1621.6 404.918L1621.6 404.919C1621.61 407.819 1622.76 410.599 1624.81 412.65C1626.86 414.7 1629.64 415.854 1632.54 415.857H1632.54H1751.68H1752.18V415.357V199.633V199.133H1751.68L1632.54 199.133ZM1753.18 416.857H1632.54C1629.38 416.853 1626.34 415.594 1624.1 413.356C1621.86 411.118 1620.61 408.083 1620.6 404.918V210.072C1620.61 206.906 1621.86 203.872 1624.1 201.634C1626.34 199.395 1629.38 198.136 1632.54 198.133H1753.18V416.857Z" fill="#3F3D56" stroke="white"/>
<path d="M1751.05 198.133H1871.69C1874.86 198.136 1877.89 199.395 1880.13 201.634C1882.37 203.872 1883.63 206.907 1883.63 210.072V404.918C1883.63 408.083 1882.37 411.118 1880.13 413.356C1877.89 415.594 1874.86 416.853 1871.69 416.857H1751.05V198.133Z" fill="#3F3D56" stroke="white"/>
<path d="M1662.57 147.674H1662.94V210.255H1662.57V147.674Z" fill="#2F2E41" stroke="white"/>
<path d="M1663.16 148.041C1660.42 148.041 1657.74 147.228 1655.47 145.705C1653.19 144.183 1651.41 142.019 1650.36 139.486C1649.31 136.954 1649.04 134.168 1649.57 131.48C1650.11 128.792 1651.43 126.323 1653.37 124.385C1655.3 122.447 1657.77 121.127 1660.46 120.593C1663.15 120.058 1665.94 120.332 1668.47 121.381C1671 122.43 1673.16 124.206 1674.69 126.485C1676.21 128.764 1677.02 131.443 1677.02 134.184C1677.02 137.859 1675.56 141.383 1672.96 143.982C1670.36 146.581 1666.84 148.041 1663.16 148.041ZM1663.16 120.694C1660.5 120.694 1657.89 121.485 1655.67 122.967C1653.45 124.449 1651.72 126.556 1650.7 129.021C1649.68 131.486 1649.41 134.199 1649.93 136.815C1650.45 139.432 1651.74 141.836 1653.63 143.722C1655.51 145.609 1657.92 146.894 1660.53 147.414C1663.15 147.935 1665.86 147.668 1668.33 146.647C1670.79 145.626 1672.9 143.897 1674.38 141.678C1675.86 139.46 1676.65 136.852 1676.65 134.184C1676.65 130.606 1675.23 127.175 1672.7 124.645C1670.17 122.115 1666.74 120.694 1663.16 120.694Z" fill="#2F2E41" stroke="white"/>
<path d="M1802.47 62.2144H1802.84V208.204H1802.47V62.2144Z" fill="#2F2E41" stroke="white"/>
<path d="M1803.06 61.2143C1800.32 61.2143 1797.64 60.4016 1795.36 58.8789C1793.08 57.3563 1791.31 55.1921 1790.26 52.66C1789.21 50.128 1788.94 47.3418 1789.47 44.6538C1790.01 41.9657 1791.33 39.4966 1793.26 37.5587C1795.2 35.6207 1797.67 34.3009 1800.36 33.7663C1803.05 33.2316 1805.83 33.506 1808.37 34.5548C1810.9 35.6036 1813.06 37.3797 1814.58 39.6585C1816.11 41.9373 1816.92 44.6165 1816.92 47.3572C1816.92 51.0323 1815.46 54.5569 1812.86 57.1556C1810.26 59.7543 1806.74 61.2143 1803.06 61.2143ZM1803.06 33.8674C1800.39 33.8674 1797.79 34.6585 1795.57 36.1408C1793.35 37.6231 1791.62 39.7299 1790.6 42.1948C1789.58 44.6598 1789.31 47.3721 1789.83 49.9889C1790.35 52.6057 1791.64 55.0093 1793.52 56.8959C1795.41 58.7825 1797.81 60.0672 1800.43 60.5878C1803.05 61.1083 1805.76 60.8411 1808.22 59.8201C1810.69 58.7991 1812.8 57.0701 1814.28 54.8517C1815.76 52.6333 1816.55 50.0252 1816.55 47.3572C1816.55 43.7794 1815.13 40.3483 1812.6 37.8184C1810.07 35.2886 1806.64 33.8674 1803.06 33.8674Z" fill="#2F2E41" stroke="white"/>
<path d="M1751.68 353.557C1739.92 353.426 1728.66 348.696 1720.34 340.368C1711.89 331.921 1707.14 320.466 1707.14 308.521C1707.14 296.575 1711.89 285.12 1720.34 276.673C1728.66 268.345 1739.92 263.615 1751.68 263.484V353.557Z" fill="#44A3D8" stroke="white"/>
<path d="M1752.68 263.484C1764.45 263.615 1775.7 268.345 1784.03 276.673C1792.48 285.12 1797.22 296.575 1797.22 308.521C1797.22 320.466 1792.48 331.921 1784.03 340.368C1775.7 348.696 1764.45 353.426 1752.68 353.557V263.484Z" fill="#E6E6E6" stroke="white"/>
<path d="M1595.62 172.174L1595.62 172.174C1592.77 172.177 1590.04 173.311 1588.02 175.327C1586 177.343 1584.87 180.077 1584.87 182.928V182.929L1584.87 431.378L1584.87 431.378C1584.87 434.229 1586 436.963 1588.02 438.979C1590.04 440.995 1592.77 442.13 1595.62 442.133H1595.62H1910.11H1910.11C1912.96 442.13 1915.7 440.995 1917.71 438.979C1919.73 436.963 1920.86 434.229 1920.87 431.378V431.378V182.929V182.928C1920.86 180.077 1919.73 177.343 1917.71 175.327C1915.7 173.311 1912.96 172.177 1910.11 172.174H1910.11L1595.62 172.174ZM1910.11 442.5H1595.62C1592.67 442.497 1589.85 441.324 1587.76 439.239C1585.68 437.153 1584.5 434.326 1584.5 431.377V182.929C1584.5 179.98 1585.68 177.153 1587.76 175.068C1589.85 172.983 1592.67 171.81 1595.62 171.806H1910.11C1913.06 171.81 1915.89 172.983 1917.97 175.068C1920.06 177.153 1921.23 179.98 1921.23 182.929V431.377C1921.23 434.326 1920.06 437.153 1917.97 439.239C1915.89 441.324 1913.06 442.497 1910.11 442.5Z" fill="#3F3D56" stroke="white"/>
<path d="M1731.57 107.5H1731.94V281.255H1731.57V107.5Z" fill="#2F2E41" stroke="white"/>
<path d="M1732.16 107.041C1729.42 107.041 1726.74 106.228 1724.47 104.705C1722.19 103.183 1720.41 101.019 1719.36 98.4865C1718.31 95.9544 1718.04 93.1682 1718.57 90.4802C1719.11 87.7922 1720.43 85.323 1722.37 83.3851C1724.3 81.4471 1726.77 80.1274 1729.46 79.5927C1732.15 79.058 1734.94 79.3324 1737.47 80.3812C1740 81.4301 1742.16 83.2062 1743.69 85.485C1745.21 87.7638 1746.02 90.4429 1746.02 93.1836C1746.02 96.8587 1744.56 100.383 1741.96 102.982C1739.36 105.581 1735.84 107.041 1732.16 107.041ZM1732.16 79.6938C1729.5 79.6938 1726.89 80.4849 1724.67 81.9672C1722.45 83.4495 1720.72 85.5563 1719.7 88.0213C1718.68 90.4862 1718.41 93.1985 1718.93 95.8153C1719.45 98.4321 1720.74 100.836 1722.63 102.722C1724.51 104.609 1726.92 105.894 1729.53 106.414C1732.15 106.935 1734.86 106.668 1737.33 105.647C1739.79 104.626 1741.9 102.897 1743.38 100.678C1744.86 98.4597 1745.65 95.8516 1745.65 93.1836C1745.65 89.6059 1744.23 86.1747 1741.7 83.6449C1739.17 81.115 1735.74 79.6938 1732.16 79.6938Z" fill="#2F2E41" stroke="white"/>
<path d="M1651.5 397C1651.5 401.694 1647.69 405.5 1643 405.5C1638.31 405.5 1634.5 401.694 1634.5 397C1634.5 392.306 1638.31 388.5 1643 388.5C1647.69 388.5 1651.5 392.306 1651.5 397Z" fill="#3F3D56" stroke="white"/>
<path d="M1872.5 397C1872.5 401.694 1868.69 405.5 1864 405.5C1859.31 405.5 1855.5 401.694 1855.5 397C1855.5 392.306 1859.31 388.5 1864 388.5C1868.69 388.5 1872.5 392.306 1872.5 397Z" fill="#E6E6E6" stroke="white"/>
<path d="M1651.5 218C1651.5 222.694 1647.69 226.5 1643 226.5C1638.31 226.5 1634.5 222.694 1634.5 218C1634.5 213.306 1638.31 209.5 1643 209.5C1647.69 209.5 1651.5 213.306 1651.5 218Z" fill="#3F3D56" stroke="white"/>
<path d="M1872.5 218C1872.5 222.694 1868.69 226.5 1864 226.5C1859.31 226.5 1855.5 222.694 1855.5 218C1855.5 213.306 1859.31 209.5 1864 209.5C1868.69 209.5 1872.5 213.306 1872.5 218Z" fill="#E6E6E6" stroke="white"/>
<path d="M1672.24 138.969C1672.24 146.245 1666.34 152.143 1659.06 152.143C1651.79 152.143 1645.89 146.245 1645.89 138.969C1645.89 131.694 1651.79 125.796 1659.06 125.796C1666.34 125.796 1672.24 131.694 1672.24 138.969Z" fill="#F2F2F2" stroke="white"/>
<path d="M1812.13 52.143C1812.13 59.4185 1806.24 65.3164 1798.96 65.3164C1791.68 65.3164 1785.79 59.4185 1785.79 52.143C1785.79 44.8674 1791.68 38.9695 1798.96 38.9695C1806.24 38.9695 1812.13 44.8674 1812.13 52.143Z" fill="#3F3D56" stroke="white"/>
<path d="M1741.24 97.9694C1741.24 105.245 1735.34 111.143 1728.06 111.143C1720.79 111.143 1714.89 105.245 1714.89 97.9694C1714.89 90.6939 1720.79 84.7959 1728.06 84.7959C1735.34 84.7959 1741.24 90.6939 1741.24 97.9694Z" fill="#44A3D8" stroke="white"/>
<path d="M420.85 610.612C425.076 600.333 428.056 589.144 426.646 578.071C426.162 574.317 425.11 570.665 423.528 567.252C422.253 564.469 420.608 561.887 418.639 559.582C417.958 558.769 417.024 558.229 416 558.058C414.976 557.887 413.926 558.095 413.034 558.646C412.896 558.728 412.758 558.816 412.631 558.91C411.941 559.415 411.396 560.106 411.056 560.909C410.99 561.062 410.936 561.221 410.892 561.382C410.697 562.058 410.645 562.77 410.738 563.469C411.481 569.168 411.32 574.954 410.261 580.599C409.99 582.036 409.66 583.46 409.269 584.871C408.392 583.734 407.459 582.644 406.475 581.606C403.922 578.92 400.979 576.668 397.752 574.933H397.747C397.731 574.922 397.72 574.916 397.704 574.905C393.791 572.835 388.573 573.694 385.524 575.104C385.323 575.192 385.132 575.291 384.946 575.384C383.356 576.232 382.565 577.207 383.244 577.846C383.398 577.983 383.552 578.126 383.695 578.27C388.317 582.707 392.104 587.998 394.862 593.874V593.879C395.958 596.219 396.882 598.641 397.625 601.125C398.648 604.556 399.497 608.36 401.496 611.158C401.7 611.452 401.921 611.733 402.159 612L420.018 611.851C420.06 611.829 420.097 611.813 420.14 611.791L420.85 611.818C420.824 611.686 420.792 611.554 420.76 611.422V611.411C420.744 611.339 420.723 611.262 420.707 611.196C420.691 611.141 420.68 611.091 420.67 611.047C420.702 610.965 420.733 610.888 420.771 610.805C420.797 610.739 420.824 610.678 420.85 610.612Z" fill="#F0F0F0"/>
<path d="M420.994 611.788C420.989 611.83 420.974 611.869 420.95 611.903C420.927 611.936 420.895 611.963 420.859 611.98C420.823 611.996 420.784 612.003 420.745 611.999C420.706 611.994 420.669 611.979 420.637 611.955C419.92 611.395 419.133 610.946 418.3 610.622C418.295 610.616 418.295 610.622 418.295 610.622C417.244 610.215 416.162 609.905 415.062 609.696C415.052 609.696 415.046 609.69 415.036 609.69C414.59 609.595 414.145 609.512 413.699 609.422C411.533 608.993 409.331 608.474 407.456 607.146C406.692 606.637 406.038 605.96 405.535 605.159C405.032 604.358 404.693 603.451 404.539 602.499C404.264 600.63 404.611 598.75 404.756 596.886C404.767 596.752 404.777 596.613 404.782 596.479C404.793 596.306 404.798 596.139 404.798 595.971C404.851 594.28 404.535 592.598 403.875 591.062C403.028 589.223 401.916 587.539 400.58 586.074C399.891 585.277 399.173 584.508 398.425 583.77H398.42C398.388 583.737 398.363 583.709 398.331 583.681C398.331 583.675 398.326 583.67 398.321 583.664C395.124 580.536 391.497 577.958 387.57 576.021C387.43 575.954 387.285 575.881 387.14 575.815C386.762 575.63 386.383 575.457 386 575.285C386.181 575.19 386.368 575.089 386.565 575C390.945 576.995 394.988 579.759 398.528 583.179C398.648 583.29 398.767 583.408 398.881 583.525C399.777 584.417 400.63 585.353 401.44 586.331C402.736 587.833 403.785 589.561 404.544 591.441C405.1 592.963 405.346 594.595 405.264 596.228C405.254 596.54 405.233 596.853 405.207 597.171C405.046 599.051 404.689 600.992 405.088 602.873C405.544 605.015 407.088 606.51 408.881 607.425C410.067 607.995 411.313 608.411 412.59 608.664C415.233 609.261 417.963 609.551 420.274 611.079H420.279C420.316 611.107 420.352 611.129 420.383 611.152C420.388 611.152 420.388 611.152 420.388 611.157C420.555 611.264 420.716 611.382 420.87 611.509C420.88 611.514 420.891 611.526 420.901 611.531C420.916 611.543 420.93 611.556 420.943 611.57C420.967 611.6 420.984 611.635 420.993 611.672C421.002 611.71 421.002 611.75 420.994 611.788Z" fill="white"/>
<path d="M398.62 583.902C399.547 582.644 400.036 581.067 399.998 579.452C399.96 577.837 399.399 576.289 398.414 575.085C398.214 574.842 397.859 575.171 398.059 575.414C398.978 576.534 399.501 577.975 399.534 579.479C399.566 580.983 399.106 582.451 398.236 583.616C398.047 583.87 398.432 584.154 398.62 583.902Z" fill="white"/>
<path d="M404.702 596.228C401.402 596.724 398.078 595.594 395.393 593.064C395.128 592.813 394.84 593.36 395.106 593.61C397.903 596.236 401.364 597.402 404.798 596.877C405.125 596.826 405.028 596.178 404.702 596.228Z" fill="white"/>
<path d="M386.966 576.449C386.956 576.474 386.947 576.493 386.938 576.519C386.678 577.16 386.316 577.715 385.877 578.144C385.438 578.573 384.934 578.866 384.4 579C384.273 578.835 384.137 578.671 384 578.513C384.021 578.495 384.046 578.484 384.071 578.481C384.583 578.405 385.075 578.166 385.506 577.784C385.936 577.403 386.293 576.888 386.547 576.284C386.57 576.234 386.594 576.177 386.613 576.126C386.628 576.095 386.649 576.068 386.672 576.047C386.695 576.026 386.722 576.012 386.749 576.005C386.777 575.998 386.805 575.998 386.833 576.006C386.86 576.014 386.886 576.029 386.909 576.05C386.955 576.095 386.986 576.161 386.996 576.235C387.007 576.309 386.996 576.385 386.966 576.449Z" fill="white"/>
<path d="M124.362 310C114.987 310.011 105.999 313.935 99.3691 320.91C92.7396 327.885 89.0106 337.342 89 347.206V489.794C89.0106 499.658 92.7396 509.115 99.3691 516.09C105.999 523.065 114.987 526.989 124.362 527H439.638C449.013 526.989 458.001 523.065 464.631 516.09C471.26 509.115 474.989 499.658 475 489.794V347.206C474.989 337.342 471.26 327.885 464.631 320.91C458.001 313.935 449.013 310.011 439.638 310H124.362Z" fill="white"/>
<path d="M439.768 530H124.232C114.096 529.988 104.378 525.749 97.2106 518.213C90.0431 510.677 86.0114 500.46 86 489.802V347.198C86.0114 336.54 90.0431 326.323 97.2106 318.787C104.378 311.251 114.096 307.012 124.232 307H439.768C449.904 307.012 459.622 311.251 466.789 318.787C473.957 326.323 477.989 336.54 478 347.198V489.802C477.989 500.46 473.957 510.677 466.789 518.213C459.622 525.749 449.904 529.988 439.768 530ZM124.232 312.973C115.602 312.983 107.328 316.593 101.226 323.009C95.1235 329.425 91.6909 338.124 91.6811 347.198V489.802C91.6909 498.876 95.1235 507.575 101.226 513.991C107.328 520.407 115.602 524.017 124.232 524.027H439.768C448.398 524.017 456.672 520.407 462.774 513.991C468.876 507.575 472.309 498.876 472.319 489.802V347.198C472.309 338.124 468.876 329.425 462.774 323.009C456.672 316.593 448.398 312.983 439.768 312.973H124.232Z" fill="#E6E6E6"/>
<path d="M282.933 340H133.067C129.868 340.006 126.802 341.338 124.54 343.705C122.279 346.072 121.006 349.281 121 352.628V423.372C120.999 424.122 121.065 424.871 121.199 425.608C121.246 425.945 121.322 426.271 121.397 426.598C122.084 429.29 123.599 431.67 125.709 433.37C127.818 435.069 130.404 435.994 133.067 436H282.933C283.179 436 283.425 435.99 283.662 435.97H283.832V435.96C283.879 435.962 283.927 435.959 283.974 435.951C284.021 435.951 284.078 435.941 284.125 435.941C284.141 435.942 284.158 435.939 284.172 435.931C284.276 435.921 284.38 435.911 284.475 435.901C284.645 435.871 284.815 435.852 284.976 435.822C284.997 435.814 285.02 435.81 285.042 435.812C285.072 435.797 285.104 435.79 285.137 435.792C285.141 435.788 285.145 435.786 285.15 435.784C285.155 435.782 285.16 435.782 285.165 435.782C285.269 435.763 285.373 435.743 285.477 435.713C285.535 435.705 285.592 435.691 285.647 435.673C285.856 435.624 286.064 435.574 286.262 435.505C286.357 435.475 286.442 435.456 286.536 435.426C286.659 435.386 286.792 435.337 286.915 435.287C286.979 435.269 287.042 435.246 287.104 435.218C287.111 435.218 287.118 435.216 287.125 435.213C287.131 435.209 287.137 435.204 287.142 435.198C287.415 435.097 287.683 434.982 287.945 434.852C288.172 434.743 288.39 434.624 288.607 434.506C288.692 434.466 288.768 434.417 288.853 434.367C288.874 434.357 288.893 434.344 288.91 434.328C289.127 434.189 289.345 434.05 289.553 433.922C289.562 433.912 289.562 433.902 289.572 433.902C289.573 433.902 289.574 433.902 289.576 433.901C289.577 433.901 289.578 433.9 289.579 433.899C289.58 433.898 289.58 433.897 289.581 433.896C289.581 433.895 289.581 433.893 289.581 433.892C289.804 433.746 290.019 433.587 290.224 433.417H290.234C290.291 433.367 290.338 433.328 290.385 433.288C290.451 433.239 290.518 433.179 290.574 433.13C290.688 433.031 290.801 432.932 290.905 432.833C290.97 432.782 291.03 432.726 291.085 432.665C291.246 432.516 291.397 432.358 291.548 432.2C291.629 432.119 291.705 432.033 291.775 431.942C291.893 431.824 292.004 431.699 292.106 431.566C292.201 431.438 292.305 431.309 292.399 431.18C292.512 431.045 292.616 430.903 292.712 430.755C292.882 430.517 293.033 430.28 293.184 430.022C293.307 429.814 293.43 429.597 293.544 429.379C293.6 429.27 293.657 429.151 293.714 429.033C293.723 429.033 293.723 429.023 293.723 429.013C293.827 428.805 293.922 428.597 294.007 428.379C294.045 428.29 294.083 428.211 294.111 428.122C294.187 427.954 294.243 427.776 294.31 427.598C294.414 427.271 294.518 426.934 294.603 426.598C294.678 426.271 294.754 425.945 294.801 425.608C294.935 424.871 295.001 424.122 295 423.372V352.628C294.994 349.281 293.721 346.072 291.46 343.705C289.198 341.338 286.132 340.006 282.933 340Z" fill="#44A3D8"/>
<path opacity="0.3" d="M295 360H121V361H295V360Z" fill="white"/>
<path opacity="0.3" d="M295 370H121V372H295V370Z" fill="white"/>
<path opacity="0.3" d="M295 393H121V394H295V393Z" fill="white"/>
<path opacity="0.3" d="M295 404H121V405H295V404Z" fill="white"/>
<path opacity="0.3" d="M295 415H121V416H295V415Z" fill="white"/>
<path opacity="0.3" d="M295 425C294.953 425.68 294.877 426.34 294.801 427H121.114C121.057 426.339 121.019 425.671 121 425H295Z" fill="white"/>
<g opacity="0.1">
<path d="M294.929 407.924V423.328C294.931 424.083 294.864 424.836 294.73 425.577C294.683 425.915 294.607 426.244 294.532 426.572C294.446 426.911 294.342 427.249 294.238 427.577C294.172 427.757 294.115 427.936 294.039 428.105C294.011 428.194 293.973 428.274 293.935 428.364C293.85 428.582 293.755 428.791 293.651 429C293.651 429.01 293.651 429.02 293.642 429.02C293.585 429.14 293.528 429.259 293.471 429.369C293.358 429.588 293.234 429.806 293.111 430.015C292.96 430.274 292.808 430.513 292.638 430.752C292.542 430.901 292.438 431.044 292.325 431.18C292.231 431.309 292.127 431.439 292.032 431.568C291.929 431.701 291.818 431.827 291.701 431.946C291.63 432.037 291.554 432.124 291.473 432.205C291.322 432.364 291.17 432.523 291.009 432.672C290.954 432.734 290.894 432.791 290.829 432.842C290.725 432.941 290.612 433.041 290.498 433.14C290.441 433.19 290.375 433.25 290.309 433.299C290.261 433.339 290.214 433.379 290.157 433.429H290.148C289.941 433.6 289.726 433.76 289.504 433.906C289.504 433.908 289.504 433.909 289.503 433.91C289.503 433.911 289.502 433.913 289.501 433.914C289.5 433.914 289.499 433.915 289.498 433.916C289.497 433.916 289.496 433.916 289.494 433.916C289.485 433.916 289.485 433.926 289.475 433.936C289.343 434.036 289.201 434.125 289.059 434.215C288.983 434.265 288.907 434.304 288.832 434.344C288.815 434.361 288.796 434.374 288.775 434.384C288.689 434.434 288.614 434.484 288.528 434.523C288.311 434.643 288.093 434.762 287.866 434.872C287.603 435.002 287.335 435.118 287.061 435.22C287.056 435.226 287.051 435.231 287.044 435.234C287.038 435.238 287.03 435.24 287.023 435.24C286.961 435.268 286.898 435.291 286.834 435.31C286.711 435.359 286.578 435.409 286.455 435.449C286.36 435.479 286.275 435.499 286.18 435.528C285.981 435.598 285.773 435.648 285.565 435.698C285.509 435.716 285.452 435.729 285.394 435.737C285.29 435.767 285.186 435.787 285.082 435.807C285.077 435.806 285.072 435.807 285.067 435.809C285.062 435.81 285.057 435.813 285.054 435.817C285.021 435.815 284.988 435.822 284.959 435.837C284.936 435.835 284.914 435.839 284.893 435.847C284.732 435.877 284.561 435.897 284.391 435.926C284.296 435.936 284.192 435.946 284.088 435.956C284.073 435.964 284.057 435.968 284.04 435.966C283.936 435.976 283.842 435.986 283.747 435.996H283.728C283.624 436.006 283.52 436.006 283.415 436.016C283.226 436.026 283.037 436.026 282.847 436.026H132.789C130.123 436.02 127.534 435.09 125.422 433.381C123.309 431.672 121.792 429.279 121.105 426.572H120.84C120.783 426.243 120.745 425.911 120.726 425.577C120.717 425.388 120.707 425.189 120.707 425V407.645C122.694 407.706 124.665 408.044 126.568 408.65C131.719 410.302 136.728 413.098 142.106 413.098C142.532 413.098 142.977 413.078 143.413 413.038C149.075 412.541 153.478 408.849 157.142 404.679C157.436 404.351 157.729 404.023 158.004 403.684C158.695 402.878 159.358 402.052 160.002 401.236C162.059 398.506 164.364 395.993 166.885 393.733C167.293 393.385 167.7 393.056 168.116 392.738C170.561 390.822 173.44 389.611 176.468 389.225C176.856 389.185 177.244 389.155 177.632 389.145C181.685 389.016 185.491 390.549 188.957 392.738C189.459 393.056 189.96 393.385 190.443 393.733C192.1 394.914 193.696 396.186 195.225 397.544C197.585 399.723 200.05 401.772 202.61 403.684C202.8 403.824 202.989 403.963 203.179 404.082C203.472 404.291 203.775 404.49 204.078 404.679C206.672 406.432 209.589 407.588 212.638 408.073C212.742 408.093 212.855 408.113 212.969 408.123C217.902 408.73 222.495 407.197 226.689 404.679C227.21 404.361 227.74 404.033 228.251 403.684C231.528 401.396 234.599 398.797 237.426 395.922C238.165 395.196 238.913 394.459 239.689 393.733C240.04 393.405 240.39 393.066 240.75 392.738C246.374 387.543 252.86 382.786 260.52 382.786C260.842 382.786 261.174 382.796 261.505 382.816C267.016 383.095 271.854 385.901 275.916 389.464C277.096 390.493 278.225 391.586 279.297 392.738C279.344 392.788 279.382 392.827 279.429 392.877C279.694 393.156 279.959 393.444 280.206 393.733C283.236 397.067 286.029 400.629 289.324 403.684C289.684 404.033 290.053 404.361 290.432 404.679C291.568 405.671 292.77 406.575 294.03 407.386C294.323 407.575 294.626 407.754 294.929 407.924Z" fill="black"/>
</g>
<g opacity="0.1">
<path d="M294.929 392.887V423.328C294.931 424.083 294.864 424.836 294.73 425.577C294.683 425.915 294.607 426.244 294.532 426.572C294.446 426.911 294.342 427.249 294.238 427.577C294.172 427.756 294.115 427.936 294.039 428.105C294.011 428.194 293.973 428.274 293.935 428.363C293.85 428.582 293.755 428.791 293.651 429C293.651 429.01 293.651 429.02 293.642 429.02C293.585 429.14 293.528 429.259 293.471 429.369C293.358 429.587 293.234 429.806 293.111 430.015C292.96 430.274 292.808 430.513 292.638 430.752C292.542 430.901 292.438 431.044 292.325 431.18C292.231 431.309 292.127 431.438 292.032 431.568C291.929 431.701 291.818 431.827 291.701 431.946C291.63 432.037 291.554 432.123 291.473 432.205C291.322 432.364 291.17 432.523 291.009 432.672C290.954 432.734 290.894 432.79 290.829 432.842C290.725 432.941 290.612 433.041 290.498 433.14C290.441 433.19 290.375 433.249 290.309 433.299C290.261 433.339 290.214 433.379 290.157 433.429H290.148C289.941 433.6 289.726 433.76 289.504 433.906C289.504 433.908 289.504 433.909 289.503 433.91C289.503 433.911 289.502 433.912 289.501 433.913C289.5 433.914 289.499 433.915 289.498 433.916C289.497 433.916 289.496 433.916 289.494 433.916C289.485 433.916 289.485 433.926 289.475 433.936C289.343 434.036 289.201 434.125 289.059 434.215C288.983 434.265 288.907 434.304 288.832 434.344C288.815 434.361 288.796 434.374 288.775 434.384C288.689 434.434 288.614 434.484 288.528 434.523C288.311 434.643 288.093 434.762 287.866 434.872C287.603 435.002 287.335 435.118 287.061 435.22C287.056 435.226 287.051 435.231 287.044 435.234C287.038 435.238 287.03 435.24 287.023 435.24C286.961 435.267 286.898 435.291 286.834 435.309C286.711 435.359 286.578 435.409 286.455 435.449C286.36 435.479 286.275 435.498 286.18 435.528C285.981 435.598 285.773 435.648 285.565 435.697C285.509 435.716 285.452 435.729 285.394 435.737C285.29 435.767 285.186 435.787 285.082 435.807C285.077 435.806 285.072 435.807 285.067 435.809C285.062 435.81 285.057 435.813 285.054 435.817C285.021 435.815 284.988 435.822 284.959 435.837C284.936 435.835 284.914 435.839 284.893 435.847C284.732 435.877 284.561 435.897 284.391 435.926C284.296 435.936 284.192 435.946 284.088 435.956C284.073 435.964 284.057 435.968 284.04 435.966C283.993 435.966 283.936 435.976 283.889 435.976C283.842 435.984 283.794 435.988 283.747 435.986C283.706 435.995 283.665 435.998 283.624 435.996H283.576C283.529 436.006 283.472 436.006 283.415 436.016C283.226 436.026 283.037 436.026 282.847 436.026H132.789C130.123 436.02 127.534 435.09 125.422 433.381C123.309 431.672 121.792 429.279 121.105 426.572C121.029 426.244 120.953 425.915 120.906 425.577C120.772 424.836 120.706 424.083 120.707 423.328V405.605C121.038 405.306 121.36 404.998 121.682 404.679C122.014 404.351 122.336 404.022 122.658 403.684C125.478 400.599 128.047 397.27 130.337 393.733C130.412 393.623 130.488 393.524 130.554 393.414C130.706 393.186 130.857 392.967 131.018 392.738C133.315 389.205 135.883 385.877 138.697 382.786C139.019 382.448 139.341 382.12 139.673 381.791C143.195 378.308 147.21 375.711 151.944 375.094C158.468 374.238 164.537 377.413 169.906 381.791C170.304 382.12 170.692 382.448 171.08 382.786C172.917 384.359 174.659 386.07 176.307 387.772C176.742 388.23 177.187 388.688 177.632 389.145C178.778 390.349 179.952 391.554 181.136 392.738C181.477 393.076 181.808 393.404 182.149 393.733C186.883 398.34 192.006 402.391 198.094 403.684C198.511 403.774 198.937 403.853 199.363 403.913C201.663 404.235 203.998 404.158 206.275 403.684C206.654 403.615 207.023 403.525 207.402 403.425C213.102 401.943 218.385 398.211 223.167 393.733C223.508 393.404 223.858 393.076 224.199 392.738C226.642 390.359 228.962 387.812 231.13 385.304C231.849 384.468 232.588 383.622 233.327 382.786C233.63 382.458 233.923 382.13 234.217 381.791C237.386 378.162 240.852 374.832 244.575 371.84C245.02 371.492 245.465 371.163 245.91 370.845C250.919 367.252 256.392 364.944 262.405 365.312C267.366 365.61 271.902 367.76 275.983 370.845C276.399 371.163 276.816 371.492 277.232 371.84C280.338 374.462 283.172 377.421 285.688 380.667C285.981 381.035 286.275 381.413 286.568 381.791C286.72 381.98 286.862 382.179 287.014 382.368L287.326 382.786C289.835 386.08 292.25 389.504 294.816 392.738L294.929 392.887Z" fill="black"/>
</g>
<g opacity="0.1">
<path d="M294.929 380.319V423.328C294.931 424.083 294.864 424.836 294.73 425.577C294.683 425.915 294.607 426.244 294.532 426.572C294.446 426.911 294.342 427.249 294.238 427.577C294.172 427.757 294.115 427.936 294.039 428.105C294.011 428.194 293.973 428.274 293.935 428.364C293.85 428.582 293.755 428.791 293.651 429C293.651 429.01 293.651 429.02 293.642 429.02C293.585 429.14 293.528 429.259 293.471 429.369C293.358 429.588 293.234 429.806 293.111 430.015C292.96 430.274 292.808 430.513 292.638 430.752C292.542 430.901 292.438 431.044 292.325 431.18C292.231 431.309 292.127 431.439 292.032 431.568C291.929 431.701 291.818 431.827 291.701 431.946C291.63 432.037 291.554 432.124 291.473 432.205C291.322 432.364 291.17 432.523 291.009 432.672C290.954 432.734 290.894 432.791 290.829 432.842C290.725 432.941 290.612 433.041 290.498 433.14C290.441 433.19 290.375 433.25 290.309 433.299C290.261 433.339 290.214 433.379 290.157 433.429H290.148C289.941 433.6 289.726 433.76 289.504 433.906C289.504 433.908 289.504 433.909 289.503 433.91C289.503 433.911 289.502 433.913 289.501 433.914C289.5 433.914 289.499 433.915 289.498 433.916C289.497 433.916 289.496 433.916 289.494 433.916C289.485 433.916 289.485 433.926 289.475 433.936C289.343 434.036 289.201 434.125 289.059 434.215C288.983 434.265 288.907 434.304 288.832 434.344C288.815 434.361 288.796 434.374 288.775 434.384C288.689 434.434 288.614 434.484 288.528 434.523C288.311 434.643 288.093 434.762 287.866 434.872C287.603 435.002 287.335 435.118 287.061 435.22C287.056 435.226 287.051 435.231 287.044 435.234C287.038 435.238 287.03 435.24 287.023 435.24C286.961 435.268 286.898 435.291 286.834 435.31C286.711 435.359 286.578 435.409 286.455 435.449C286.36 435.479 286.275 435.499 286.18 435.528C285.981 435.598 285.773 435.648 285.565 435.698C285.509 435.716 285.452 435.729 285.394 435.737C285.29 435.767 285.186 435.787 285.082 435.807C285.077 435.806 285.072 435.807 285.067 435.809C285.062 435.81 285.057 435.813 285.054 435.817C285.021 435.815 284.988 435.822 284.959 435.837C284.936 435.835 284.914 435.839 284.893 435.847C284.732 435.877 284.561 435.897 284.391 435.926C284.296 435.936 284.192 435.946 284.088 435.956C284.073 435.964 284.057 435.968 284.04 435.966C283.993 435.966 283.936 435.976 283.889 435.976C283.842 435.984 283.794 435.988 283.747 435.986C283.742 435.992 283.735 435.995 283.728 435.996H283.576C283.34 436.016 283.094 436.026 282.847 436.026H132.789C130.123 436.02 127.534 435.09 125.422 433.381C123.309 431.672 121.792 429.279 121.105 426.572C121.029 426.244 120.953 425.915 120.906 425.577C120.772 424.836 120.706 424.083 120.707 423.328V397.634C121.663 396.33 122.623 395.03 123.585 393.733C123.832 393.395 124.078 393.066 124.324 392.738C125.621 390.986 126.928 389.255 128.272 387.563C129.56 385.941 130.914 384.339 132.325 382.787C132.628 382.458 132.931 382.12 133.243 381.791C136.836 377.858 140.961 374.505 145.486 371.84C146.102 371.482 146.727 371.153 147.361 370.845C150.721 369.159 154.355 368.163 158.07 367.909C162.943 367.653 167.801 368.662 172.216 370.845C172.879 371.143 173.532 371.482 174.176 371.84C178.806 374.348 183.152 377.861 187.224 381.791C187.574 382.11 187.906 382.448 188.247 382.787C191.475 385.971 194.534 389.384 197.45 392.738C197.668 392.987 197.886 393.245 198.103 393.494C198.17 393.574 198.245 393.653 198.312 393.733C201.152 397.017 204.182 400.341 207.402 403.426C207.487 403.515 207.581 403.595 207.676 403.684C208.026 404.023 208.377 404.351 208.737 404.679C210.005 405.864 211.312 406.998 212.638 408.073C215.779 410.673 219.202 412.875 222.835 414.631C223.602 414.999 224.379 415.327 225.165 415.626C229.494 417.364 234.166 417.945 238.762 417.318C240.872 417.01 242.941 416.443 244.926 415.626C245.683 415.327 246.422 414.989 247.151 414.631C251.951 412.242 256.288 408.63 260.397 404.679C260.738 404.351 261.079 404.023 261.42 403.684C263.759 401.376 266.031 398.977 268.275 396.659C269.222 395.683 270.188 394.698 271.182 393.733C271.523 393.405 271.873 393.076 272.224 392.738C273.417 391.613 274.648 390.509 275.916 389.464C279.018 386.796 282.428 384.553 286.067 382.787C286.379 382.637 286.701 382.498 287.014 382.369C287.496 382.16 287.979 381.971 288.462 381.791C290.548 381.006 292.722 380.511 294.929 380.319Z" fill="black"/>
</g>
<path d="M158.5 374C159.881 374 161 372.657 161 371C161 369.343 159.881 368 158.5 368C157.119 368 156 369.343 156 371C156 372.657 157.119 374 158.5 374Z" fill="white"/>
<path d="M201.5 406C202.881 406 204 404.657 204 403C204 401.343 202.881 400 201.5 400C200.119 400 199 401.343 199 403C199 404.657 200.119 406 201.5 406Z" fill="white"/>
<path d="M260.5 385C261.881 385 263 383.657 263 382C263 380.343 261.881 379 260.5 379C259.119 379 258 380.343 258 382C258 383.657 259.119 385 260.5 385Z" fill="white"/>
<path d="M389.577 407H322.427C322.108 407 321.793 407.064 321.498 407.189C321.204 407.315 320.936 407.499 320.711 407.731C320.486 407.963 320.307 408.239 320.185 408.542C320.063 408.846 320 409.171 320 409.5C320 409.829 320.063 410.154 320.185 410.458C320.307 410.761 320.486 411.037 320.711 411.269C320.936 411.501 321.204 411.685 321.498 411.811C321.793 411.936 322.108 412 322.427 412H389.577C390.22 412 390.836 411.737 391.29 411.268C391.745 410.799 392 410.163 392 409.5C392 408.837 391.745 408.201 391.29 407.732C390.836 407.263 390.22 407 389.577 407Z" fill="#E6E6E6"/>
<path d="M389.577 446H322.423C321.78 446 321.164 446.263 320.71 446.732C320.255 447.201 320 447.837 320 448.5C320 449.163 320.255 449.799 320.71 450.268C321.164 450.737 321.78 451 322.423 451H389.577C390.22 451 390.836 450.737 391.29 450.268C391.745 449.799 392 449.163 392 448.5C392 447.837 391.745 447.201 391.29 446.732C390.836 446.263 390.22 446 389.577 446Z" fill="#E6E6E6"/>
<path d="M389.577 484H322.423C321.78 484 321.164 484.316 320.71 484.879C320.255 485.441 320 486.204 320 487C320 487.796 320.255 488.559 320.71 489.121C321.164 489.684 321.78 490 322.423 490H389.577C390.22 490 390.836 489.684 391.29 489.121C391.745 488.559 392 487.796 392 487C392 486.204 391.745 485.441 391.29 484.879C390.836 484.316 390.22 484 389.577 484Z" fill="#E6E6E6"/>
<path d="M430 417C433.314 417 436 414.09 436 410.5C436 406.91 433.314 404 430 404C426.686 404 424 406.91 424 410.5C424 414.09 426.686 417 430 417Z" fill="#F2F2F2"/>
<path d="M429.583 413C429.467 413 429.352 412.973 429.248 412.921C429.145 412.869 429.054 412.794 428.985 412.701L427.15 410.255C427.091 410.176 427.048 410.086 427.024 409.991C426.999 409.896 426.994 409.797 427.007 409.7C427.021 409.602 427.054 409.509 427.104 409.424C427.154 409.339 427.221 409.266 427.299 409.207C427.378 409.148 427.467 409.105 427.563 409.08C427.658 409.056 427.757 409.051 427.854 409.065C427.952 409.079 428.045 409.112 428.13 409.162C428.214 409.212 428.288 409.278 428.347 409.357L429.547 410.957L432.63 406.333C432.74 406.168 432.911 406.053 433.105 406.015C433.3 405.976 433.502 406.016 433.667 406.126C433.832 406.236 433.947 406.407 433.985 406.601C434.024 406.796 433.984 406.998 433.874 407.163L430.205 412.667C430.139 412.766 430.05 412.849 429.945 412.907C429.84 412.964 429.723 412.996 429.604 413L429.583 413Z" fill="white"/>
<path d="M430 454C433.314 454 436 451.314 436 448C436 444.686 433.314 442 430 442C426.686 442 424 444.686 424 448C424 451.314 426.686 454 430 454Z" fill="#F2F2F2"/>
<path d="M429.583 452C429.467 452 429.352 451.973 429.248 451.921C429.145 451.869 429.054 451.794 428.985 451.701L427.15 449.255C427.091 449.176 427.048 449.086 427.024 448.991C426.999 448.896 426.994 448.797 427.007 448.7C427.021 448.602 427.054 448.509 427.104 448.424C427.154 448.339 427.221 448.266 427.299 448.207C427.378 448.148 427.467 448.105 427.563 448.08C427.658 448.056 427.757 448.051 427.854 448.065C427.952 448.079 428.045 448.112 428.13 448.162C428.214 448.212 428.288 448.278 428.347 448.357L429.547 449.957L432.63 445.333C432.684 445.251 432.754 445.181 432.836 445.127C432.917 445.072 433.009 445.034 433.105 445.015C433.202 444.995 433.301 444.995 433.397 445.014C433.494 445.033 433.585 445.071 433.667 445.126C433.749 445.18 433.819 445.25 433.874 445.332C433.928 445.413 433.966 445.505 433.985 445.601C434.005 445.698 434.005 445.797 433.986 445.893C433.967 445.99 433.929 446.081 433.874 446.163L430.205 451.667C430.139 451.766 430.05 451.849 429.945 451.907C429.84 451.964 429.723 451.996 429.604 452L429.583 452Z" fill="white"/>
<path d="M430 493C433.314 493 436 490.314 436 487C436 483.686 433.314 481 430 481C426.686 481 424 483.686 424 487C424 490.314 426.686 493 430 493Z" fill="#F2F2F2"/>
<path d="M389.577 369H322.423C321.78 369 321.164 369.263 320.71 369.732C320.255 370.201 320 370.837 320 371.5C320 372.163 320.255 372.799 320.71 373.268C321.164 373.737 321.78 374 322.423 374H389.577C390.22 374 390.836 373.737 391.29 373.268C391.745 372.799 392 372.163 392 371.5C392 370.837 391.745 370.201 391.29 369.732C390.836 369.263 390.22 369 389.577 369Z" fill="#E6E6E6"/>
<path d="M430 378C433.314 378 436 375.09 436 371.5C436 367.91 433.314 365 430 365C426.686 365 424 367.91 424 371.5C424 375.09 426.686 378 430 378Z" fill="#44A3D8"/>
<path d="M429.583 375C429.467 375 429.352 374.973 429.248 374.921C429.145 374.869 429.054 374.794 428.985 374.701L427.15 372.255C427.091 372.176 427.048 372.086 427.024 371.991C426.999 371.896 426.994 371.797 427.007 371.7C427.021 371.602 427.054 371.509 427.104 371.424C427.154 371.339 427.221 371.266 427.299 371.207C427.378 371.148 427.467 371.105 427.563 371.08C427.658 371.056 427.757 371.051 427.854 371.065C427.952 371.079 428.045 371.112 428.13 371.162C428.214 371.212 428.288 371.278 428.347 371.357L429.547 372.957L432.63 368.333C432.684 368.251 432.754 368.181 432.836 368.126C432.917 368.072 433.009 368.034 433.105 368.015C433.202 367.995 433.301 367.995 433.397 368.014C433.494 368.033 433.585 368.071 433.667 368.126C433.749 368.18 433.819 368.25 433.873 368.332C433.928 368.413 433.966 368.505 433.985 368.601C434.005 368.698 434.005 368.797 433.986 368.893C433.967 368.99 433.929 369.081 433.874 369.163L430.205 374.667C430.139 374.766 430.05 374.849 429.945 374.907C429.84 374.964 429.723 374.996 429.604 375L429.583 375Z" fill="white"/>
<path d="M410 378C413.314 378 416 375.09 416 371.5C416 367.91 413.314 365 410 365C406.686 365 404 367.91 404 371.5C404 375.09 406.686 378 410 378Z" fill="#F2F2F2"/>
<path d="M410 417C413.314 417 416 414.09 416 410.5C416 406.91 413.314 404 410 404C406.686 404 404 406.91 404 410.5C404 414.09 406.686 417 410 417Z" fill="#F2F2F2"/>
<path d="M410 454C413.314 454 416 451.314 416 448C416 444.686 413.314 442 410 442C406.686 442 404 444.686 404 448C404 451.314 406.686 454 410 454Z" fill="#F2F2F2"/>
<path d="M410 493C413.314 493 416 490.314 416 487C416 483.686 413.314 481 410 481C406.686 481 404 483.686 404 487C404 490.314 406.686 493 410 493Z" fill="#F2F2F2"/>
<path d="M429.583 490C429.466 490 429.352 489.977 429.248 489.932C429.144 489.888 429.054 489.823 428.984 489.743L427.15 487.647C427.091 487.579 427.048 487.503 427.023 487.421C426.999 487.34 426.994 487.255 427.008 487.171C427.021 487.088 427.054 487.008 427.104 486.935C427.154 486.863 427.221 486.8 427.299 486.749C427.378 486.699 427.467 486.662 427.562 486.641C427.658 486.62 427.757 486.615 427.854 486.627C427.951 486.639 428.045 486.667 428.129 486.71C428.214 486.753 428.288 486.81 428.346 486.877L429.547 488.249L432.63 484.286C432.74 484.144 432.911 484.046 433.105 484.012C433.3 483.979 433.502 484.013 433.667 484.108C433.832 484.202 433.947 484.349 433.985 484.515C434.024 484.682 433.984 484.855 433.874 484.997L430.205 489.714C430.139 489.8 430.049 489.87 429.945 489.92C429.84 489.97 429.723 489.997 429.603 490L429.583 490Z" fill="white"/>
<path d="M421 610.743C421.002 610.779 420.996 610.816 420.982 610.849C420.968 610.882 420.946 610.912 420.919 610.935C420.877 610.968 420.827 610.988 420.775 610.995C420.722 611.007 420.667 610.997 420.621 610.967C420.575 610.937 420.542 610.89 420.529 610.836C419.791 608.293 417.984 606.341 416.273 604.428C414.734 602.712 413.221 600.902 412.445 598.671C412.11 597.785 411.961 596.835 412.009 595.885C412.057 594.936 412.3 594.007 412.723 593.161C412.99 592.655 413.299 592.174 413.648 591.725C414.413 590.727 415.322 589.839 416.14 588.896C416.225 588.797 416.311 588.693 416.391 588.594C416.503 588.468 416.605 588.337 416.701 588.205C417.721 586.912 418.43 585.39 418.77 583.764C419.135 581.781 419.191 579.751 418.936 577.75C418.829 576.686 418.681 575.63 418.492 574.581C418.481 574.532 418.476 574.488 418.465 574.444C417.64 569.945 416.14 565.604 414.017 561.577C413.937 561.429 413.862 561.281 413.782 561.138C413.44 560.502 413.087 559.877 412.713 559.263C412.841 559.17 412.98 559.082 413.119 559C414.345 561.036 415.412 563.168 416.311 565.376C417.472 568.209 418.345 571.158 418.915 574.175C418.952 574.34 418.979 574.51 419.005 574.674C419.23 575.941 419.396 577.224 419.497 578.501C419.698 580.505 419.564 582.53 419.102 584.488C418.682 586.041 417.94 587.483 416.926 588.715C416.744 588.951 416.551 589.181 416.348 589.406C415.536 590.316 414.637 591.198 413.905 592.191C413.531 592.689 413.213 593.23 412.959 593.803C412.098 595.776 412.504 597.936 413.456 599.789C415.177 603.161 418.46 605.458 420.208 608.764C420.531 609.373 420.793 610.014 420.989 610.677C420.995 610.699 420.999 610.721 421 610.743Z" fill="white"/>
<path d="M418.305 573.993C419.733 573.675 420.987 572.916 421.843 571.852C422.699 570.788 423.101 569.489 422.978 568.186C422.952 567.923 422.49 567.946 422.516 568.21C422.633 569.423 422.258 570.633 421.459 571.622C420.659 572.611 419.488 573.314 418.156 573.604C417.867 573.667 418.017 574.056 418.305 573.993Z" fill="white"/>
<path d="M416.881 588.459C414.269 586.62 412.331 583.666 411.452 580.186C411.366 579.841 410.925 580.021 411.011 580.365C411.931 583.985 413.954 587.054 416.675 588.961C416.934 589.143 417.139 588.64 416.881 588.459Z" fill="white"/>
<path d="M413.849 561.543C413.83 561.555 413.815 561.561 413.796 561.574C412.915 562.078 411.914 562.137 411 561.739C411.04 561.559 411.091 561.383 411.152 561.212C411.945 561.553 412.813 561.507 413.581 561.083C413.625 561.064 413.664 561.04 413.708 561.015C413.763 560.991 413.824 560.996 413.878 561.028C413.931 561.06 413.971 561.117 413.991 561.187C414.007 561.258 414.001 561.334 413.975 561.4C413.949 561.465 413.904 561.517 413.849 561.543Z" fill="white"/>
<path d="M388.283 477.15C388.717 476.584 389.031 475.923 389.203 475.212C389.375 474.501 389.401 473.758 389.279 473.035C389.157 472.312 388.89 471.627 388.497 471.028C388.104 470.429 387.594 469.93 387.004 469.567L390 452L382.1 455.619L380.466 471.746C379.968 472.86 379.865 474.133 380.177 475.323C380.488 476.514 381.193 477.539 382.156 478.205C383.12 478.871 384.276 479.132 385.405 478.937C386.534 478.743 387.558 478.107 388.283 477.15Z" fill="#FFB6B6"/>
<path d="M393 424.679L390.34 415.407L371.581 385.059C370.537 383.796 369.29 382.73 367.895 381.909C365.123 380.265 361.891 379.657 358.738 380.185C355.585 380.713 352.702 382.346 350.57 384.811C348.437 387.276 347.184 390.424 347.019 393.731C346.854 397.038 347.786 400.303 349.662 402.983C350.048 403.543 350.475 404.072 350.94 404.564L375.235 430.545L376.617 432.028L378.805 437.762L379.667 463.912L380.44 464.103L387.248 465.766L388.2 466L389.793 457.458L390.792 453.375C391.642 449.893 392.071 446.315 392.069 442.723C392.069 441.616 392.033 440.504 391.948 439.398L393 424.679Z" fill="#3F3D56"/>
<path d="M366.999 606H360.901L358 580L367 580.001L366.999 606Z" fill="#FFB6B6"/>
<path d="M367.165 603.817L360.216 601.082L360.011 601L356.174 603.817C354.068 603.817 352.044 604.605 350.523 606.017C349.002 607.428 348.102 609.355 348.011 611.394C348 611.506 348 611.623 348 611.74V612H369V603.817H367.165Z" fill="#2F2E41"/>
<path d="M355 592.559L349.393 596L334 575.079L342.275 570L355 592.559Z" fill="#FFB6B6"/>
<path d="M359.218 596.012L358.431 594.709L355.581 590L354.099 590.85L353.946 590.934L346.281 592.032L346.052 592.064L344.163 596.535C343.207 597.081 342.371 597.806 341.703 598.666C341.036 599.527 340.548 600.507 340.27 601.55C339.992 602.594 339.928 603.681 340.082 604.748C340.235 605.816 340.604 606.844 341.166 607.773L341.307 608L360 597.306L359.218 596.012Z" fill="#2F2E41"/>
<path d="M375.905 446C378.961 455.6 378.638 466.021 375.17 477.205L374.265 515.652L371.358 539.904C373.111 544.656 374.01 549.703 374.011 554.794C373.998 568.138 373.137 587.095 368.769 596H358.432L356.099 556.343L353.315 536.403L352.971 515.037L352.672 496.402L341.433 513.518L330.512 530.15L341.367 549.219L350.838 579.905L340.841 588.672L329.5 566.281L324.004 559.63L309 525.805L310.348 521.095C313.125 511.396 317.158 502.136 322.336 493.571L337.259 457.499L375.905 446Z" fill="#2F2E41"/>
<path d="M377.239 443.079L375.531 439.485L375.684 430.867L376.195 401.728C376.257 397.954 375.592 394.206 374.239 390.71C372.887 387.214 370.876 384.042 368.328 381.386C366.815 379.8 365.123 378.416 363.29 377.265L359.622 374.958L357.767 370L340.661 370.438L340.624 375.246L340.608 376.938L334.48 387.22L334.485 387.265L334.611 405.977L334.864 443.223L336.556 448.997L334 455.719L335.36 460L336.445 459.817L373.007 453.666C374.669 453.105 376.08 451.926 376.975 450.35C377.156 450.042 377.312 449.719 377.444 449.385C377.843 448.38 378.031 447.297 377.996 446.209C377.96 445.12 377.702 444.053 377.239 443.079Z" fill="#3F3D56"/>
<path d="M348 364C356.284 364 363 356.837 363 348C363 339.163 356.284 332 348 332C339.716 332 333 339.163 333 348C333 356.837 339.716 364 348 364Z" fill="#FFB6B6"/>
<path d="M357.368 361.225C359.01 360.019 360.673 357.723 361.781 356.005C363.249 353.745 364.246 351.189 364.708 348.501C365.169 345.814 365.084 343.055 364.458 340.404C364.256 339.344 363.78 338.361 363.082 337.562C362.725 337.171 362.259 336.909 361.75 336.812C361.242 336.715 360.717 336.789 360.252 337.022C360.486 336.337 360.584 335.609 360.539 334.882C360.494 334.156 360.306 333.447 359.988 332.799C359.343 331.506 358.417 330.388 357.286 329.533C355.121 327.842 352.557 326.794 349.868 326.501C347.178 326.208 344.463 326.681 342.01 327.869C341.045 328.352 342.592 324.701 341.58 325.066C340.575 325.489 339.452 325.484 338.451 325.054C337.488 324.565 334.358 327.596 334.711 326.541C333.99 326.895 333.366 327.434 332.899 328.107C332.431 328.781 332.134 329.567 332.036 330.393C331.938 331.218 332.041 332.056 332.337 332.828C332.632 333.601 333.111 334.283 333.727 334.81C334.539 335.506 335.546 335.898 336.433 336.486C337.987 337.594 339.099 339.258 339.558 341.163C340.018 343.069 339.793 345.084 338.926 346.828C339.843 346.194 340.851 345.72 341.912 345.422C342.445 345.278 343.002 345.269 343.539 345.396C344.076 345.522 344.575 345.781 344.997 346.149C345.35 346.56 345.62 347.042 345.789 347.565C345.957 348.089 346.022 348.642 345.978 349.193C345.957 350.294 345.721 351.383 345.707 352.485C345.667 355.718 344.09 361.887 346.514 363.57C348.427 364.899 355.125 362.872 357.368 361.225Z" fill="#2F2E41"/>
<path d="M261.73 387.148C262.108 387.821 262.621 388.398 263.233 388.838C263.846 389.279 264.543 389.573 265.274 389.699C266.006 389.825 266.755 389.781 267.469 389.569C268.183 389.356 268.844 388.982 269.405 388.471L285 398L284.459 388.141L269.733 380.604C268.857 379.666 267.685 379.1 266.439 379.012C265.194 378.924 263.961 379.321 262.974 380.128C261.988 380.935 261.316 382.095 261.087 383.389C260.857 384.682 261.086 386.02 261.73 387.148Z" fill="#FFB6B6"/>
<path d="M359.338 384.4C358.752 382.435 357.792 380.622 356.52 379.073C355.248 377.525 353.691 376.275 351.947 375.403C350.203 374.531 348.309 374.055 346.385 374.004C344.46 373.954 342.547 374.331 340.765 375.112C340.597 375.185 340.429 375.264 340.261 375.343L306.719 391.707L293.661 390.046L276.759 383.719L276.328 384.434L272.531 390.722L272 391.6L290.132 403.089L292.054 403.517C293.728 403.888 295.317 404.61 296.73 405.64C298.144 406.671 299.353 407.99 300.29 409.523L307.318 412L334.772 406.303L350.162 403.106L351.034 402.926C353.671 401.838 355.939 399.92 357.54 397.424C359.14 394.928 359.998 391.971 360 388.943C360.001 387.401 359.778 385.868 359.338 384.4Z" fill="#3F3D56"/>
<path d="M436.378 613H254.622C254.457 613 254.299 612.947 254.182 612.854C254.066 612.76 254 612.633 254 612.5C254 612.367 254.066 612.24 254.182 612.146C254.299 612.053 254.457 612 254.622 612H436.378C436.543 612 436.701 612.053 436.818 612.146C436.934 612.24 437 612.367 437 612.5C437 612.633 436.934 612.76 436.818 612.854C436.701 612.947 436.543 613 436.378 613Z" fill="#CCCCCC"/>
<path d="M241.582 460H131.411C130.771 460.001 130.158 460.318 129.706 460.88C129.254 461.443 129 462.205 129 463C129 463.795 129.254 464.557 129.706 465.12C130.158 465.682 130.771 465.999 131.411 466H241.582C241.9 466.001 242.214 465.923 242.507 465.773C242.801 465.622 243.067 465.402 243.292 465.123C243.516 464.844 243.694 464.513 243.816 464.149C243.937 463.785 244 463.394 244 463C244 462.606 243.937 462.215 243.816 461.851C243.694 461.487 243.516 461.156 243.292 460.877C243.067 460.598 242.801 460.378 242.507 460.227C242.214 460.077 241.9 459.999 241.582 460Z" fill="#E6E6E6"/>
<path d="M282 470C285.314 470 288 467.09 288 463.5C288 459.91 285.314 457 282 457C278.686 457 276 459.91 276 463.5C276 467.09 278.686 470 282 470Z" fill="#44A3D8"/>
<path d="M281.214 466C281.114 466 281.016 465.977 280.927 465.932C280.838 465.888 280.76 465.823 280.701 465.743L279.128 463.647C279.078 463.579 279.041 463.503 279.02 463.421C278.999 463.34 278.995 463.255 279.006 463.171C279.018 463.088 279.047 463.008 279.089 462.935C279.132 462.863 279.189 462.8 279.256 462.749C279.324 462.699 279.4 462.662 279.482 462.641C279.564 462.62 279.649 462.615 279.732 462.627C279.815 462.639 279.895 462.667 279.968 462.71C280.04 462.753 280.104 462.81 280.154 462.877L281.183 464.249L283.825 460.286C283.872 460.215 283.932 460.155 284.002 460.108C284.072 460.062 284.15 460.029 284.233 460.012C284.316 459.996 284.401 459.996 284.483 460.012C284.566 460.029 284.644 460.061 284.714 460.108C284.785 460.154 284.845 460.214 284.892 460.284C284.938 460.354 284.971 460.433 284.988 460.515C285.004 460.598 285.004 460.683 284.988 460.766C284.971 460.848 284.939 460.927 284.892 460.997L281.747 465.714C281.69 465.8 281.614 465.87 281.524 465.92C281.434 465.97 281.334 465.997 281.232 466L281.214 466Z" fill="white"/>
<path d="M262 470C265.314 470 268 467.09 268 463.5C268 459.91 265.314 457 262 457C258.686 457 256 459.91 256 463.5C256 467.09 258.686 470 262 470Z" fill="#F2F2F2"/>
<path d="M240.586 491H130.411C129.771 491.001 129.158 491.265 128.706 491.734C128.254 492.202 128 492.838 128 493.5C128 494.162 128.254 494.798 128.706 495.266C129.158 495.735 129.771 495.999 130.411 496H240.586C241.226 496 241.84 495.737 242.293 495.268C242.746 494.799 243 494.163 243 493.5C243 492.837 242.746 492.201 242.293 491.732C241.84 491.263 241.226 491 240.586 491Z" fill="#E6E6E6"/>
<path d="M281 501C284.314 501 287 498.09 287 494.5C287 490.91 284.314 488 281 488C277.686 488 275 490.91 275 494.5C275 498.09 277.686 501 281 501Z" fill="#F2F2F2"/>
<path d="M280.583 497C280.466 497 280.352 496.973 280.248 496.921C280.144 496.869 280.054 496.794 279.984 496.701L278.15 494.254C278.031 494.096 277.979 493.896 278.008 493.7C278.036 493.504 278.141 493.326 278.299 493.207C278.458 493.088 278.657 493.037 278.854 493.065C279.05 493.093 279.227 493.198 279.346 493.357L280.547 494.957L283.63 490.333C283.684 490.251 283.754 490.181 283.836 490.127C283.917 490.072 284.009 490.034 284.105 490.015C284.202 489.995 284.301 489.995 284.397 490.014C284.493 490.033 284.585 490.071 284.667 490.126C284.749 490.18 284.819 490.25 284.873 490.332C284.928 490.413 284.966 490.505 284.985 490.601C285.005 490.698 285.005 490.797 284.986 490.893C284.967 490.99 284.929 491.081 284.874 491.163L281.205 496.667C281.139 496.766 281.049 496.849 280.945 496.906C280.84 496.964 280.723 496.996 280.603 497L280.583 497Z" fill="white"/>
<path d="M261 501C264.314 501 267 498.09 267 494.5C267 490.91 264.314 488 261 488C257.686 488 255 490.91 255 494.5C255 498.09 257.686 501 261 501Z" fill="#F2F2F2"/>
<defs>
<linearGradient id="paint0_linear_900_120" x1="1002.5" y1="0" x2="1002.5" y2="672" gradientUnits="userSpaceOnUse">
<stop/>
<stop offset="0.703125" stop-color="#1C252E" stop-opacity="0.836377"/>
<stop offset="0.9997" stop-color="#3D4F62" stop-opacity="0.651042"/>
<stop offset="0.9998" stop-color="#3D4F62" stop-opacity="0"/>
<stop offset="0.9999" stop-color="#3D4F62"/>
</linearGradient>
</defs>
</svg>
