<svg version="1.2" baseProfile="tiny-ps" xmlns="http://www.w3.org/2000/svg" viewBox="0 0 127 107" width="127" height="107">
	<title>banner-light-svg</title>
	<style>
		tspan { white-space:pre }
		.s0 { fill: #ffffff } 
	</style>
	<path id="Layer" fill-rule="evenodd" class="s0" d="m0 0.58h58.88v21.71h-35.7v20.79h35.7v21.53h-35.7v41.77h-23.18v-105.8zm67.9 21.71v-21.71h58.88v21.71h-58.88zm0 42.32v-21.53h29.81v21.53h-29.81z" />
	<path id="Layer" fill-rule="evenodd" class="s0" d="m0 0.58h58.88v21.71h-35.7v20.79h35.7v21.53h-35.7v41.77h-23.18v-105.8zm67.9 21.71v-21.71h58.88v21.71h-58.88zm0 42.32v-21.53h29.81v21.53h-29.81z" />
	<path id="Layer" class="s0" d="m159.98 106.58h-22.32v-109.58h22.32v109.58z" />
	<path id="Layer" fill-rule="evenodd" class="s0" d="m202.56 108.46c-7.1 0-13.01-2.45-17.71-7.34c-4.61-4.9-6.91-12-6.91-21.31c0-9.31 3.26-16.08 9.79-20.3c6.62-4.22 16.22-6.34 28.8-6.34h10.8c0-6.43-0.62-10.56-1.87-12.38c-1.25-1.92-4.08-2.88-8.5-2.88c-4.32 0-9.17 0.48-14.54 1.44c-5.28 0.96-11.18 2.4-17.71 4.32l-4.61-16.13c3.94-1.82 9.55-3.5 16.85-5.04c7.39-1.63 13.97-2.45 19.73-2.45c11.81 0 20.26 2.74 25.34 8.21c5.09 5.38 7.63 13.25 7.63 23.62v54.72h-14.11l-2.88-9.36h-0.86c-1.15 0.86-2.69 1.92-4.61 3.17c-1.82 1.25-5.33 2.93-10.51 5.04c-5.18 2.02-9.89 3.02-14.11 3.02zm24.77-38.74c-3.36-0.48-7.87-0.72-13.54-0.72c-5.57 0-9.17 0.72-10.8 2.16c-1.54 1.44-2.3 4.18-2.3 8.21c0 4.03 0.62 6.86 1.87 8.5c1.34 1.54 3.36 2.3 6.05 2.3c4.99 0 10.27-1.34 15.84-4.03l2.88-1.44v-14.98z" />
	<path id="Layer" fill-rule="evenodd" class="s0" d="m334.62 52.3c0 8.35-3.31 15.31-9.94 20.88c-6.53 5.47-15.5 8.26-26.93 8.35c-0.19 1.73-0.29 2.74-0.29 3.02c0 0.29 0.48 0.62 1.44 1.01c0.96 0.38 2.88 1.06 5.76 2.02c13.63 4.8 22.42 8.98 26.35 12.53c4.03 3.46 6.05 7.3 6.05 11.52c0 6.62-3.41 11.71-10.22 15.26c-6.82 3.65-15.74 5.47-26.78 5.47c-5.28 0-10.8-0.43-16.56-1.3c-5.76-0.77-11.76-1.97-18-3.6l2.45-16.99c17.86 2.78 30.38 4.18 37.58 4.18c7.3 0 10.94-0.77 10.94-2.3c0-1.06-8.21-4.46-24.62-10.22c-7.2-2.59-11.18-4.18-11.95-4.75c-0.67-0.58-1.01-1.25-1.01-2.02c0-1.54 1.87-6.91 5.62-16.13c-13.82-4.8-20.74-14.21-20.74-28.22c0-5.57 1.06-10.42 3.17-14.54c2.11-4.13 5.04-7.34 8.78-9.65c7.3-4.51 16.51-6.77 27.65-6.77l36.58 1.73v12.96l-8.93 1.44c2.4 5.18 3.6 10.56 3.6 16.13zm-34.85 12.96c5.95 0 9.89-1.06 11.81-3.17c2.02-2.11 3.02-6.48 3.02-13.1c0-6.62-0.53-10.46-1.58-11.52c-1.06-1.06-4.94-1.58-11.66-1.58c-6.62 0-11.09 0.91-13.39 2.74c-2.21 1.73-3.31 5.62-3.31 11.66c0 5.95 1.01 9.94 3.02 11.95c2.11 2.02 6.14 3.02 12.1 3.02z" />
	<path id="Layer" fill-rule="evenodd" class="s0" d="m352.25-3h22.32v25.2c7.01-1.44 13.2-2.16 18.58-2.16c20.93 0 31.39 14.35 31.39 43.06c0 8.83-1.01 16.37-3.02 22.61c-1.92 6.14-4.56 10.8-7.92 13.97c-6.34 5.86-14.11 8.78-23.33 8.78c-4.9 0-11.09-0.62-18.58-1.87c-7.39-1.25-13.87-2.74-19.44-4.46v-105.12zm45.94 43.34c-1.34-1.34-3.65-2.02-6.91-2.02c-5.95 0-11.52 0.62-16.7 1.87v48.82c4.99 0.96 9.5 1.44 13.54 1.44c4.13 0 6.91-0.58 8.35-1.73c3.36-2.78 5.04-12.14 5.04-28.08c0-11.42-1.1-18.19-3.31-20.3z" />
	<path id="Layer" fill-rule="evenodd" class="s0" d="m463.42 108.46c-7.1 0-13.01-2.45-17.71-7.34c-4.61-4.9-6.91-12-6.91-21.31c0-9.31 3.26-16.08 9.79-20.3c6.62-4.22 16.22-6.34 28.8-6.34h10.8c0-6.43-0.62-10.56-1.87-12.38c-1.25-1.92-4.08-2.88-8.5-2.88c-4.32 0-9.17 0.48-14.54 1.44c-5.28 0.96-11.18 2.4-17.71 4.32l-4.61-16.13c3.94-1.82 9.55-3.5 16.85-5.04c7.39-1.63 13.97-2.45 19.73-2.45c11.81 0 20.26 2.74 25.34 8.21c5.09 5.38 7.63 13.25 7.63 23.62v54.72h-14.11l-2.88-9.36h-0.86c-1.15 0.86-2.69 1.92-4.61 3.17c-1.82 1.25-5.33 2.93-10.51 5.04c-5.18 2.02-9.89 3.02-14.11 3.02zm24.77-38.74c-3.36-0.48-7.87-0.72-13.54-0.72c-5.57 0-9.17 0.72-10.8 2.16c-1.54 1.44-2.3 4.18-2.3 8.21c0 4.03 0.62 6.86 1.87 8.5c1.34 1.54 3.36 2.3 6.05 2.3c4.99 0 10.27-1.34 15.84-4.03l2.88-1.44v-14.98z" />
	<path id="Layer" class="s0" d="m558.33 37.9c-3.65 0-6.05 0.48-7.2 1.44c-1.06 0.86-1.58 2.21-1.58 4.03c0 1.82 0.82 3.46 2.45 4.9c1.63 1.34 3.26 2.35 4.9 3.02c1.63 0.58 3.5 1.2 5.62 1.87c2.21 0.58 5.42 1.49 9.65 2.74c4.32 1.25 7.73 2.54 10.22 3.89c7.39 4.13 11.09 10.75 11.09 19.87c0 9.02-2.78 16.08-8.35 21.17c-5.57 5.09-13.39 7.63-23.47 7.63c-5.28 0-10.8-0.67-16.56-2.02c-5.76-1.44-10.22-2.83-13.39-4.18l-4.61-2.16l5.47-17.57c12.19 5.18 22.18 7.78 29.95 7.78c2.98 0 5.18-0.53 6.62-1.58c1.44-1.06 2.16-2.98 2.16-5.76c0-1.73-0.29-2.98-0.86-3.74c-0.58-0.77-1.06-1.34-1.44-1.73c-0.38-0.48-0.96-0.91-1.73-1.3c-0.77-0.48-1.44-0.82-2.02-1.01c-0.48-0.29-1.25-0.62-2.3-1.01c-1.06-0.38-1.87-0.67-2.45-0.86c-0.58-0.19-1.54-0.48-2.88-0.86c-1.34-0.38-2.88-0.82-4.61-1.3c-1.63-0.58-2.88-1.01-3.74-1.3c-0.86-0.29-2.59-0.91-5.18-1.87c-2.5-0.96-4.27-1.78-5.33-2.45c-0.96-0.77-2.35-1.82-4.18-3.17c-1.73-1.44-2.98-2.93-3.74-4.46c-2.02-4.22-3.02-8.45-3.02-12.67c0-7.87 2.64-14.02 7.92-18.43c5.28-4.51 13.15-6.77 23.62-6.77c10.56 0 20.74 1.63 30.53 4.9l-3.31 17.28c-11.04-2.88-20.45-4.32-28.22-4.32z" />
	<path id="Layer" fill-rule="evenodd" class="s0" d="m644.46 108.46c-26.11 0-39.17-14.74-39.17-44.21c0-29.47 12.96-44.21 38.88-44.21c11.62 0 20.35 3.12 26.21 9.36c5.86 6.14 8.78 16.37 8.78 30.67v11.95h-50.69c0 8.06 1.49 13.39 4.46 15.98c2.02 1.82 4.85 2.74 8.5 2.74c6.72 0 15.26-1.54 25.63-4.61l5.04-1.58l5.47 16.13c-4.32 2.02-9.7 3.84-16.13 5.47c-6.43 1.54-12.1 2.3-16.99 2.3zm9.36-67.68c-1.73-2.11-5.18-3.17-10.37-3.17c-5.18 0-8.88 1.25-11.09 3.74c-2.21 2.5-3.46 7.34-3.74 14.54l27.79-0.58c-0.19-7.58-1.06-12.43-2.59-14.54z" />
</svg>