<svg width="51" height="47" viewBox="0 0 51 47" fill="none" xmlns="http://www.w3.org/2000/svg">
<path d="M49.2617 23.1849L26.736 0.675492C26.5738 0.512983 26.3811 0.384055 26.169 0.296088C25.957 0.208121 25.7296 0.162842 25.5 0.162842C25.2704 0.162842 25.0431 0.208121 24.831 0.296088C24.6189 0.384055 24.4263 0.512983 24.2641 0.675492L1.7383 23.1849C1.08205 23.8411 0.710178 24.7325 0.710178 25.6622C0.710178 27.5927 2.27971 29.1622 4.21018 29.1622H6.58362V45.2239C6.58362 46.1919 7.36565 46.9739 8.33362 46.9739H22V34.7239H28.125V46.9739H42.6664C43.6344 46.9739 44.4164 46.1919 44.4164 45.2239V29.1622H46.7899C47.7196 29.1622 48.611 28.7958 49.2672 28.1341C50.6289 26.7669 50.6289 24.5521 49.2617 23.1849Z" fill="white"/>
</svg>
