<svg width="49" height="49" viewBox="0 0 49 49" fill="none" xmlns="http://www.w3.org/2000/svg">
<path d="M48.0312 10.8804C47.8438 10.0366 46.8125 9.75537 46.1562 10.3179L39.2188 17.2554L32.8438 16.2241L31.8125 9.84912L38.75 2.91162C39.4062 2.25537 39.0312 1.22412 38.1875 1.03662C33.7812 -0.0883789 28.9062 1.13037 25.4375 4.59912C21.6875 8.25537 20.6562 13.6929 22.25 18.3804L2.1875 38.3491C-0.15625 40.6929 -0.15625 44.5366 2.1875 46.8804C4.53125 49.2241 8.375 49.2241 10.7188 46.8804L30.6875 26.9116C35.375 28.4116 40.7188 27.3804 44.4688 23.6304C47.9375 20.1616 49.1562 15.2866 48.0312 10.8804ZM6.5 44.8179C5.1875 44.8179 4.25 43.8804 4.25 42.5679C4.25 41.3491 5.1875 40.3179 6.5 40.3179C7.71875 40.3179 8.75 41.3491 8.75 42.5679C8.75 43.8804 7.71875 44.8179 6.5 44.8179Z" fill="white"/>
</svg>
