<svg width="43" height="49" viewBox="0 0 43 49" fill="none" xmlns="http://www.w3.org/2000/svg">
    <path d="M21.5 24.5679C28.0625 24.5679 33.5 19.2241 33.5 12.5679C33.5 6.00537 28.0625 0.567871 21.5 0.567871C14.8438 0.567871 9.5 6.00537 9.5 12.5679C9.5 19.2241 14.8438 24.5679 21.5 24.5679ZM29.8438 27.5679H28.25C26.1875 28.5991 23.9375 29.0679 21.5 29.0679C19.0625 29.0679 16.7188 28.5991 14.6562 27.5679H13.0625C6.125 27.5679 0.5 33.2866 0.5 40.2241V44.0679C0.5 46.5991 2.46875 48.5679 5 48.5679H38C40.4375 48.5679 42.5 46.5991 42.5 44.0679V40.2241C42.5 33.2866 36.7812 27.5679 29.8438 27.5679Z" fill="white"/>
    </svg>
    